  0
SECTION
  2
HEADER
  9
$ACADVER
  1
AC1027
  9
$ACADMAINTVER
 70
105
  9
$DWGCODEPAGE
  3
ANSI_1252
  9
$LASTSAVEDBY
  1
ezdxf
  9
$REQUIREDVERSIONS
160
0
  9
$INSBASE
 10
0.0
 20
0.0
 30
0.0
  9
$EXTMIN
 10
1e+20
 20
1e+20
 30
1e+20
  9
$EXTMAX
 10
-1e+20
 20
-1e+20
 30
-1e+20
  9
$LIMMIN
 10
0.0
 20
0.0
  9
$LIMMAX
 10
420.0
 20
297.0
  9
$ORTHOMODE
 70
0
  9
$REGENMODE
 70
1
  9
$FILLMODE
 70
1
  9
$QTEXTMODE
 70
0
  9
$MIRRTEXT
 70
1
  9
$LTSCALE
 40
1.0
  9
$ATTMODE
 70
1
  9
$TEXTSIZE
 40
2.5
  9
$TRACEWID
 40
1.0
  9
$TEXTSTYLE
  7
Standard
  9
$CLAYER
  8
0
  9
$CELTYPE
  6
ByLayer
  9
$CECOLOR
 62
256
  9
$CELTSCALE
 40
1.0
  9
$DISPSILH
 70
0
  9
$DIMSCALE
 40
1.0
  9
$DIMASZ
 40
2.5
  9
$DIMEXO
 40
0.625
  9
$DIMDLI
 40
3.75
  9
$DIMRND
 40
0.0
  9
$DIMDLE
 40
0.0
  9
$DIMEXE
 40
1.25
  9
$DIMTP
 40
0.0
  9
$DIMTM
 40
0.0
  9
$DIMTXT
 40
2.5
  9
$DIMCEN
 40
2.5
  9
$DIMTSZ
 40
0.0
  9
$DIMTOL
 70
0
  9
$DIMLIM
 70
0
  9
$DIMTIH
 70
0
  9
$DIMTOH
 70
0
  9
$DIMSE1
 70
0
  9
$DIMSE2
 70
0
  9
$DIMTAD
 70
1
  9
$DIMZIN
 70
8
  9
$DIMBLK
  1

  9
$DIMASO
 70
1
  9
$DIMSHO
 70
1
  9
$DIMPOST
  1

  9
$DIMAPOST
  1

  9
$DIMALT
 70
0
  9
$DIMALTD
 70
3
  9
$DIMALTF
 40
0.03937007874
  9
$DIMLFAC
 40
1.0
  9
$DIMTOFL
 70
1
  9
$DIMTVP
 40
0.0
  9
$DIMTIX
 70
0
  9
$DIMSOXD
 70
0
  9
$DIMSAH
 70
0
  9
$DIMBLK1
  1

  9
$DIMBLK2
  1

  9
$DIMSTYLE
  2
ISO-25
  9
$DIMCLRD
 70
0
  9
$DIMCLRE
 70
0
  9
$DIMCLRT
 70
0
  9
$DIMTFAC
 40
1.0
  9
$DIMGAP
 40
0.625
  9
$DIMJUST
 70
0
  9
$DIMSD1
 70
0
  9
$DIMSD2
 70
0
  9
$DIMTOLJ
 70
0
  9
$DIMTZIN
 70
8
  9
$DIMALTZ
 70
0
  9
$DIMALTTZ
 70
0
  9
$DIMUPT
 70
0
  9
$DIMDEC
 70
2
  9
$DIMTDEC
 70
2
  9
$DIMALTU
 70
2
  9
$DIMALTTD
 70
3
  9
$DIMTXSTY
  7
Standard
  9
$DIMAUNIT
 70
0
  9
$DIMADEC
 70
0
  9
$DIMALTRND
 40
0.0
  9
$DIMAZIN
 70
0
  9
$DIMDSEP
 70
44
  9
$DIMATFIT
 70
3
  9
$DIMFRAC
 70
0
  9
$DIMLDRBLK
  1

  9
$DIMLUNIT
 70
2
  9
$DIMLWD
 70
-2
  9
$DIMLWE
 70
-2
  9
$DIMTMOVE
 70
0
  9
$DIMFXL
 40
1.0
  9
$DIMFXLON
 70
0
  9
$DIMJOGANG
 40
0.785398163397
  9
$DIMTFILL
 70
0
  9
$DIMTFILLCLR
 70
0
  9
$DIMARCSYM
 70
0
  9
$DIMLTYPE
  6

  9
$DIMLTEX1
  6

  9
$DIMLTEX2
  6

  9
$DIMTXTDIRECTION
 70
0
  9
$LUNITS
 70
2
  9
$LUPREC
 70
4
  9
$SKETCHINC
 40
1.0
  9
$FILLETRAD
 40
10.0
  9
$AUNITS
 70
0
  9
$AUPREC
 70
2
  9
$MENU
  1
.
  9
$ELEVATION
 40
0.0
  9
$PELEVATION
 40
0.0
  9
$THICKNESS
 40
0.0
  9
$LIMCHECK
 70
0
  9
$CHAMFERA
 40
0.0
  9
$CHAMFERB
 40
0.0
  9
$CHAMFERC
 40
0.0
  9
$CHAMFERD
 40
0.0
  9
$SKPOLY
 70
0
  9
$TDCREATE
 40
2461026.9547222224
  9
$TDUCREATE
 40
2458532.153996898
  9
$TDUPDATE
 40
2461026.9547222224
  9
$TDUUPDATE
 40
2458532.1544311
  9
$TDINDWG
 40
0.0
  9
$TDUSRTIMER
 40
0.0
  9
$USRTIMER
 70
1
  9
$ANGBASE
 50
0.0
  9
$ANGDIR
 70
0
  9
$PDMODE
 70
0
  9
$PDSIZE
 40
0.0
  9
$PLINEWID
 40
0.0
  9
$SPLFRAME
 70
0
  9
$SPLINETYPE
 70
6
  9
$SPLINESEGS
 70
8
  9
$HANDSEED
  5
89
  9
$SURFTAB1
 70
6
  9
$SURFTAB2
 70
6
  9
$SURFTYPE
 70
6
  9
$SURFU
 70
6
  9
$SURFV
 70
6
  9
$UCSBASE
  2

  9
$UCSNAME
  2

  9
$UCSORG
 10
0.0
 20
0.0
 30
0.0
  9
$UCSXDIR
 10
1.0
 20
0.0
 30
0.0
  9
$UCSYDIR
 10
0.0
 20
1.0
 30
0.0
  9
$UCSORTHOREF
  2

  9
$UCSORTHOVIEW
 70
0
  9
$UCSORGTOP
 10
0.0
 20
0.0
 30
0.0
  9
$UCSORGBOTTOM
 10
0.0
 20
0.0
 30
0.0
  9
$UCSORGLEFT
 10
0.0
 20
0.0
 30
0.0
  9
$UCSORGRIGHT
 10
0.0
 20
0.0
 30
0.0
  9
$UCSORGFRONT
 10
0.0
 20
0.0
 30
0.0
  9
$UCSORGBACK
 10
0.0
 20
0.0
 30
0.0
  9
$PUCSBASE
  2

  9
$PUCSNAME
  2

  9
$PUCSORG
 10
0.0
 20
0.0
 30
0.0
  9
$PUCSXDIR
 10
1.0
 20
0.0
 30
0.0
  9
$PUCSYDIR
 10
0.0
 20
1.0
 30
0.0
  9
$PUCSORTHOREF
  2

  9
$PUCSORTHOVIEW
 70
0
  9
$PUCSORGTOP
 10
0.0
 20
0.0
 30
0.0
  9
$PUCSORGBOTTOM
 10
0.0
 20
0.0
 30
0.0
  9
$PUCSORGLEFT
 10
0.0
 20
0.0
 30
0.0
  9
$PUCSORGRIGHT
 10
0.0
 20
0.0
 30
0.0
  9
$PUCSORGFRONT
 10
0.0
 20
0.0
 30
0.0
  9
$PUCSORGBACK
 10
0.0
 20
0.0
 30
0.0
  9
$USERI1
 70
0
  9
$USERI2
 70
0
  9
$USERI3
 70
0
  9
$USERI4
 70
0
  9
$USERI5
 70
0
  9
$USERR1
 40
0.0
  9
$USERR2
 40
0.0
  9
$USERR3
 40
0.0
  9
$USERR4
 40
0.0
  9
$USERR5
 40
0.0
  9
$WORLDVIEW
 70
1
  9
$SHADEDGE
 70
3
  9
$SHADEDIF
 70
70
  9
$TILEMODE
 70
1
  9
$MAXACTVP
 70
64
  9
$PINSBASE
 10
0.0
 20
0.0
 30
0.0
  9
$PLIMCHECK
 70
0
  9
$PEXTMIN
 10
1e+20
 20
1e+20
 30
1e+20
  9
$PEXTMAX
 10
-1e+20
 20
-1e+20
 30
-1e+20
  9
$PLIMMIN
 10
0.0
 20
0.0
  9
$PLIMMAX
 10
420.0
 20
297.0
  9
$UNITMODE
 70
0
  9
$VISRETAIN
 70
1
  9
$PLINEGEN
 70
0
  9
$PSLTSCALE
 70
1
  9
$TREEDEPTH
 70
3020
  9
$CMLSTYLE
  2
Standard
  9
$CMLJUST
 70
0
  9
$CMLSCALE
 40
20.0
  9
$PROXYGRAPHICS
 70
1
  9
$MEASUREMENT
 70
1
  9
$CELWEIGHT
370
-1
  9
$ENDCAPS
280
0
  9
$JOINSTYLE
280
0
  9
$LWDISPLAY
290
0
  9
$INSUNITS
 70
6
  9
$HYPERLINKBASE
  1

  9
$STYLESHEET
  1

  9
$XEDIT
290
1
  9
$CEPSNTYPE
380
0
  9
$PSTYLEMODE
290
1
  9
$FINGERPRINTGUID
  2
{734A34A0-7A39-4D42-8F14-0288FE8500AF}
  9
$VERSIONGUID
  2
{B0837410-205D-4244-A758-9C7E0E6AAB3A}
  9
$EXTNAMES
290
1
  9
$PSVPSCALE
 40
0.0
  9
$OLESTARTUP
290
0
  9
$SORTENTS
280
127
  9
$INDEXCTL
280
0
  9
$HIDETEXT
280
1
  9
$XCLIPFRAME
280
1
  9
$HALOGAP
280
0
  9
$OBSCOLOR
 70
257
  9
$OBSLTYPE
280
0
  9
$INTERSECTIONDISPLAY
280
0
  9
$INTERSECTIONCOLOR
 70
257
  9
$DIMASSOC
280
2
  9
$PROJECTNAME
  1

  9
$CAMERADISPLAY
290
0
  9
$LENSLENGTH
 40
50.0
  9
$CAMERAHEIGHT
 40
0.0
  9
$STEPSPERSEC
 40
24.0
  9
$STEPSIZE
 40
100.0
  9
$3DDWFPREC
 40
2.0
  9
$PSOLWIDTH
 40
0.005
  9
$PSOLHEIGHT
 40
0.08
  9
$LOFTANG1
 40
1.570796326795
  9
$LOFTANG2
 40
1.570796326795
  9
$LOFTMAG1
 40
0.0
  9
$LOFTMAG2
 40
0.0
  9
$LOFTPARAM
 70
7
  9
$LOFTNORMALS
280
1
  9
$LATITUDE
 40
37.795
  9
$LONGITUDE
 40
-122.394
  9
$NORTHDIRECTION
 40
0.0
  9
$TIMEZONE
 70
-8000
  9
$LIGHTGLYPHDISPLAY
280
1
  9
$TILEMODELIGHTSYNCH
280
1
  9
$CMATERIAL
347
20
  9
$SOLIDHIST
280
0
  9
$SHOWHIST
280
1
  9
$DWFFRAME
280
2
  9
$DGNFRAME
280
2
  9
$REALWORLDSCALE
290
1
  9
$INTERFERECOLOR
 62
256
  9
$CSHADOW
280
0
  9
$SHADOWPLANELOCATION
 40
0.0
  0
ENDSEC
  0
SECTION
  2
CLASSES
  0
CLASS
  1
ACDBDICTIONARYWDFLT
  2
AcDbDictionaryWithDefault
  3
ObjectDBX Classes
 90
0
 91
0
280
0
281
0
  0
CLASS
  1
SUN
  2
AcDbSun
  3
SCENEOE
 90
1153
 91
0
280
0
281
0
  0
CLASS
  1
VISUALSTYLE
  2
AcDbVisualStyle
  3
ObjectDBX Classes
 90
4095
 91
0
280
0
281
0
  0
CLASS
  1
MATERIAL
  2
AcDbMaterial
  3
ObjectDBX Classes
 90
1153
 91
0
280
0
281
0
  0
CLASS
  1
SCALE
  2
AcDbScale
  3
ObjectDBX Classes
 90
1153
 91
0
280
0
281
0
  0
CLASS
  1
TABLESTYLE
  2
AcDbTableStyle
  3
ObjectDBX Classes
 90
4095
 91
0
280
0
281
0
  0
CLASS
  1
MLEADERSTYLE
  2
AcDbMLeaderStyle
  3
ACDB_MLEADERSTYLE_CLASS
 90
4095
 91
0
280
0
281
0
  0
CLASS
  1
DICTIONARYVAR
  2
AcDbDictionaryVar
  3
ObjectDBX Classes
 90
0
 91
0
280
0
281
0
  0
CLASS
  1
CELLSTYLEMAP
  2
AcDbCellStyleMap
  3
ObjectDBX Classes
 90
1152
 91
0
280
0
281
0
  0
CLASS
  1
MENTALRAYRENDERSETTINGS
  2
AcDbMentalRayRenderSettings
  3
SCENEOE
 90
1024
 91
0
280
0
281
0
  0
CLASS
  1
ACDBDETAILVIEWSTYLE
  2
AcDbDetailViewStyle
  3
ObjectDBX Classes
 90
1025
 91
0
280
0
281
0
  0
CLASS
  1
ACDBSECTIONVIEWSTYLE
  2
AcDbSectionViewStyle
  3
ObjectDBX Classes
 90
1025
 91
0
280
0
281
0
  0
CLASS
  1
RASTERVARIABLES
  2
AcDbRasterVariables
  3
ISM
 90
0
 91
0
280
0
281
0
  0
CLASS
  1
LAYOUT
  2
AcDbLayout
  3
ObjectDBX Classes
 90
0
 91
0
280
0
281
0
  0
CLASS
  1
ACDBPLACEHOLDER
  2
AcDbPlaceHolder
  3
ObjectDBX Classes
 90
0
 91
0
280
0
281
0
  0
ENDSEC
  0
SECTION
  2
TABLES
  0
TABLE
  2
VPORT
  5
8
330
0
100
AcDbSymbolTable
 70
1
  0
VPORT
  5
23
330
8
100
AcDbSymbolTableRecord
100
AcDbViewportTableRecord
  2
*Active
 70
0
 10
0.0
 20
0.0
 11
1.0
 21
1.0
 12
0.0
 22
0.0
 13
0.0
 23
0.0
 14
0.5
 24
0.5
 15
0.5
 25
0.5
 16
0.0
 26
0.0
 36
1.0
 17
0.0
 27
0.0
 37
0.0
 40
1000.0
 41
1.34
 42
50.0
 43
0.0
 44
0.0
 50
0.0
 51
0.0
 71
0
 72
1000
 73
1
 74
3
 75
0
 76
0
 77
0
 78
0
281
0
 65
0
146
0.0
  0
ENDTAB
  0
TABLE
  2
LTYPE
  5
2
330
0
100
AcDbSymbolTable
 70
3
  0
LTYPE
  5
24
330
2
100
AcDbSymbolTableRecord
100
AcDbLinetypeTableRecord
  2
ByBlock
 70
0
  3

 72
65
 73
0
 40
0.0
  0
LTYPE
  5
25
330
2
100
AcDbSymbolTableRecord
100
AcDbLinetypeTableRecord
  2
ByLayer
 70
0
  3

 72
65
 73
0
 40
0.0
  0
LTYPE
  5
26
330
2
100
AcDbSymbolTableRecord
100
AcDbLinetypeTableRecord
  2
Continuous
 70
0
  3

 72
65
 73
0
 40
0.0
  0
ENDTAB
  0
TABLE
  2
LAYER
  5
1
330
0
100
AcDbSymbolTable
 70
2
  0
LAYER
  5
27
330
1
100
AcDbSymbolTableRecord
100
AcDbLayerTableRecord
  2
0
 70
0
 62
7
  6
Continuous
370
-3
390
13
347
21
  0
LAYER
  5
28
330
1
100
AcDbSymbolTableRecord
100
AcDbLayerTableRecord
  2
Defpoints
 70
0
 62
7
  6
Continuous
290
0
370
-3
390
13
347
21
  0
ENDTAB
  0
TABLE
  2
STYLE
  5
5
330
0
100
AcDbSymbolTable
 70
1
  0
STYLE
  5
29
330
5
100
AcDbSymbolTableRecord
100
AcDbTextStyleTableRecord
  2
Standard
 70
0
 40
0.0
 41
1.0
 50
0.0
 71
0
 42
2.5
  3
txt
  4

  0
ENDTAB
  0
TABLE
  2
VIEW
  5
7
330
0
100
AcDbSymbolTable
 70
0
  0
ENDTAB
  0
TABLE
  2
UCS
  5
6
330
0
100
AcDbSymbolTable
 70
0
  0
ENDTAB
  0
TABLE
  2
APPID
  5
3
330
0
100
AcDbSymbolTable
 70
3
  0
APPID
  5
2A
330
3
100
AcDbSymbolTableRecord
100
AcDbRegAppTableRecord
  2
ACAD
 70
0
  0
APPID
  5
86
330
3
100
AcDbSymbolTableRecord
100
AcDbRegAppTableRecord
  2
HATCHBACKGROUNDCOLOR
 70
0
  0
APPID
  5
87
330
3
100
AcDbSymbolTableRecord
100
AcDbRegAppTableRecord
  2
EZDXF
 70
0
  0
ENDTAB
  0
TABLE
  2
DIMSTYLE
  5
4
330
0
100
AcDbSymbolTable
 70
1
100
AcDbDimStyleTable
  0
DIMSTYLE
105
2B
330
4
100
AcDbSymbolTableRecord
100
AcDbDimStyleTableRecord
  2
Standard
 70
0
 40
1.0
 41
2.5
 42
0.625
 43
3.75
 44
1.25
 45
0.0
 46
0.0
 47
0.0
 48
0.0
 49
2.5
140
2.5
141
2.5
142
0.0
143
0.03937007874
144
1.0
145
0.0
146
1.0
147
0.625
148
0.0
 69
0
 70
0
 71
0
 72
0
 73
0
 74
0
 75
0
 76
0
 77
1
 78
8
 79
3
170
0
171
3
172
1
173
0
174
0
175
0
176
0
177
0
178
0
179
2
271
2
272
2
273
2
274
3
275
0
276
0
277
2
278
44
279
0
280
0
281
0
282
0
283
0
284
8
285
0
286
0
288
0
289
3
290
0
371
-2
372
-2
  0
ENDTAB
  0
TABLE
  2
BLOCK_RECORD
  5
9
330
0
100
AcDbSymbolTable
 70
2
  0
BLOCK_RECORD
  5
17
330
9
100
AcDbSymbolTableRecord
100
AcDbBlockTableRecord
  2
*Model_Space
340
1A
 70
0
280
1
281
0
  0
BLOCK_RECORD
  5
1B
330
9
100
AcDbSymbolTableRecord
100
AcDbBlockTableRecord
  2
*Paper_Space
340
1E
 70
0
280
1
281
0
  0
ENDTAB
  0
ENDSEC
  0
SECTION
  2
BLOCKS
  0
BLOCK
  5
18
330
17
100
AcDbEntity
  8
0
100
AcDbBlockBegin
  2
*Model_Space
 70
0
 10
0.0
 20
0.0
 30
0.0
  3
*Model_Space
  1

  0
ENDBLK
  5
19
330
17
100
AcDbEntity
  8
0
100
AcDbBlockEnd
  0
BLOCK
  5
1C
330
1B
100
AcDbEntity
  8
0
100
AcDbBlockBegin
  2
*Paper_Space
 70
0
 10
0.0
 20
0.0
 30
0.0
  3
*Paper_Space
  1

  0
ENDBLK
  5
1D
330
1B
100
AcDbEntity
  8
0
100
AcDbBlockEnd
  0
ENDSEC
  0
SECTION
  2
ENTITIES
  0
LWPOLYLINE
  5
2F
330
17
100
AcDbEntity
  8
MERIDIAN_RIBS
 62
1
100
AcDbPolyline
 90
7
 70
0
 10
15.0
 20
0.0
 10
12.5
 20
0.0
 40
2.0
 41
0.0
 10
10.000000000000002
 20
0.0
 40
4.0
 41
0.0
 10
7.5
 20
0.0
 40
6.0
 41
0.0
 10
5.000000000000001
 20
0.0
 40
8.0
 41
0.0
 10
2.4999999999999996
 20
0.0
 40
10.0
 41
0.0
 10
0.0
 20
0.0
 40
12.0
 41
0.0
  0
LWPOLYLINE
  5
30
330
17
100
AcDbEntity
  8
MERIDIAN_RIBS
 62
1
100
AcDbPolyline
 90
7
 70
0
 10
12.99038105676658
 20
6.249999999999999
 10
10.825317547305485
 20
5.208333333333333
 40
2.0
 41
0.0
 10
8.660254037844387
 20
4.166666666666667
 40
4.0
 41
0.0
 10
6.49519052838329
 20
3.1249999999999996
 40
6.0
 41
0.0
 10
4.330127018922194
 20
2.0833333333333335
 40
8.0
 41
0.0
 10
2.1650635094610964
 20
1.0416666666666663
 40
10.0
 41
0.0
 10
0.0
 20
0.0
 40
12.0
 41
0.0
  0
LWPOLYLINE
  5
31
330
17
100
AcDbEntity
  8
MERIDIAN_RIBS
 62
1
100
AcDbPolyline
 90
7
 70
0
 10
7.500000000000002
 20
10.825317547305483
 10
6.250000000000002
 20
9.021097956087903
 40
2.0
 41
0.0
 10
5.000000000000002
 20
7.216878364870323
 40
4.0
 41
0.0
 10
3.750000000000001
 20
5.412658773652741
 40
6.0
 41
0.0
 10
2.500000000000001
 20
3.6084391824351614
 40
8.0
 41
0.0
 10
1.25
 20
1.80421959121758
 40
10.0
 41
0.0
 10
0.0
 20
0.0
 40
12.0
 41
0.0
  0
LWPOLYLINE
  5
32
330
17
100
AcDbEntity
  8
MERIDIAN_RIBS
 62
1
100
AcDbPolyline
 90
7
 70
0
 10
9.18485099360515e-16
 20
12.5
 10
7.654042494670959e-16
 20
10.416666666666668
 40
2.0
 41
0.0
 10
6.123233995736767e-16
 20
8.333333333333334
 40
4.0
 41
0.0
 10
4.592425496802575e-16
 20
6.25
 40
6.0
 41
0.0
 10
3.0616169978683836e-16
 20
4.166666666666667
 40
8.0
 41
0.0
 10
1.5308084989341913e-16
 20
2.083333333333333
 40
10.0
 41
0.0
 10
0.0
 20
0.0
 40
12.0
 41
0.0
  0
LWPOLYLINE
  5
33
330
17
100
AcDbEntity
  8
MERIDIAN_RIBS
 62
1
100
AcDbPolyline
 90
7
 70
0
 10
-7.499999999999997
 20
10.825317547305485
 10
-6.249999999999998
 20
9.021097956087905
 40
2.0
 41
0.0
 10
-4.999999999999999
 20
7.216878364870324
 40
4.0
 41
0.0
 10
-3.7499999999999987
 20
5.412658773652742
 40
6.0
 41
0.0
 10
-2.4999999999999996
 20
3.608439182435162
 40
8.0
 41
0.0
 10
-1.2499999999999993
 20
1.8042195912175805
 40
10.0
 41
0.0
 10
-0.0
 20
0.0
 40
12.0
 41
0.0
  0
LWPOLYLINE
  5
34
330
17
100
AcDbEntity
  8
MERIDIAN_RIBS
 62
1
100
AcDbPolyline
 90
7
 70
0
 10
-12.99038105676658
 20
6.249999999999999
 10
-10.825317547305485
 20
5.208333333333333
 40
2.0
 41
0.0
 10
-8.660254037844387
 20
4.166666666666667
 40
4.0
 41
0.0
 10
-6.49519052838329
 20
3.1249999999999996
 40
6.0
 41
0.0
 10
-4.330127018922194
 20
2.0833333333333335
 40
8.0
 41
0.0
 10
-2.1650635094610964
 20
1.0416666666666663
 40
10.0
 41
0.0
 10
-0.0
 20
0.0
 40
12.0
 41
0.0
  0
LWPOLYLINE
  5
35
330
17
100
AcDbEntity
  8
MERIDIAN_RIBS
 62
1
100
AcDbPolyline
 90
7
 70
0
 10
-15.0
 20
1.5308084989341915e-15
 10
-12.5
 20
1.2756737491118262e-15
 40
2.0
 41
0.0
 10
-10.000000000000002
 20
1.0205389992894611e-15
 40
4.0
 41
0.0
 10
-7.5
 20
7.654042494670958e-16
 40
6.0
 41
0.0
 10
-5.000000000000001
 20
5.102694996447306e-16
 40
8.0
 41
0.0
 10
-2.4999999999999996
 20
2.551347498223652e-16
 40
10.0
 41
0.0
 10
-0.0
 20
0.0
 40
12.0
 41
0.0
  0
LWPOLYLINE
  5
36
330
17
100
AcDbEntity
  8
MERIDIAN_RIBS
 62
1
100
AcDbPolyline
 90
7
 70
0
 10
-12.990381056766578
 20
-6.250000000000002
 10
-10.825317547305483
 20
-5.208333333333335
 40
2.0
 41
0.0
 10
-8.660254037844387
 20
-4.166666666666669
 40
4.0
 41
0.0
 10
-6.495190528383289
 20
-3.125000000000001
 40
6.0
 41
0.0
 10
-4.330127018922194
 20
-2.0833333333333344
 40
8.0
 41
0.0
 10
-2.165063509461096
 20
-1.0416666666666667
 40
10.0
 41
0.0
 10
-0.0
 20
-0.0
 40
12.0
 41
0.0
  0
LWPOLYLINE
  5
37
330
17
100
AcDbEntity
  8
MERIDIAN_RIBS
 62
1
100
AcDbPolyline
 90
7
 70
0
 10
-7.500000000000007
 20
-10.82531754730548
 10
-6.250000000000006
 20
-9.0210979560879
 40
2.0
 41
0.0
 10
-5.000000000000005
 20
-7.21687836487032
 40
4.0
 41
0.0
 10
-3.7500000000000036
 20
-5.41265877365274
 40
6.0
 41
0.0
 10
-2.5000000000000027
 20
-3.60843918243516
 40
8.0
 41
0.0
 10
-1.2500000000000009
 20
-1.8042195912175796
 40
10.0
 41
0.0
 10
-0.0
 20
-0.0
 40
12.0
 41
0.0
  0
LWPOLYLINE
  5
38
330
17
100
AcDbEntity
  8
MERIDIAN_RIBS
 62
1
100
AcDbPolyline
 90
7
 70
0
 10
-2.7554552980815444e-15
 20
-12.5
 10
-2.296212748401287e-15
 20
-10.416666666666668
 40
2.0
 41
0.0
 10
-1.83697019872103e-15
 20
-8.333333333333334
 40
4.0
 41
0.0
 10
-1.3777276490407722e-15
 20
-6.25
 40
6.0
 41
0.0
 10
-9.18485099360515e-16
 20
-4.166666666666667
 40
8.0
 41
0.0
 10
-4.592425496802573e-16
 20
-2.083333333333333
 40
10.0
 41
0.0
 10
-0.0
 20
-0.0
 40
12.0
 41
0.0
  0
LWPOLYLINE
  5
39
330
17
100
AcDbEntity
  8
MERIDIAN_RIBS
 62
1
100
AcDbPolyline
 90
7
 70
0
 10
7.500000000000002
 20
-10.825317547305483
 10
6.250000000000002
 20
-9.021097956087903
 40
2.0
 41
0.0
 10
5.000000000000002
 20
-7.216878364870323
 40
4.0
 41
0.0
 10
3.750000000000001
 20
-5.412658773652741
 40
6.0
 41
0.0
 10
2.500000000000001
 20
-3.6084391824351614
 40
8.0
 41
0.0
 10
1.25
 20
-1.80421959121758
 40
10.0
 41
0.0
 10
0.0
 20
-0.0
 40
12.0
 41
0.0
  0
LWPOLYLINE
  5
3A
330
17
100
AcDbEntity
  8
MERIDIAN_RIBS
 62
1
100
AcDbPolyline
 90
7
 70
0
 10
12.990381056766577
 20
-6.250000000000005
 10
10.825317547305481
 20
-5.208333333333338
 40
2.0
 41
0.0
 10
8.660254037844386
 20
-4.1666666666666705
 40
4.0
 41
0.0
 10
6.495190528383288
 20
-3.1250000000000027
 40
6.0
 41
0.0
 10
4.330127018922193
 20
-2.0833333333333353
 40
8.0
 41
0.0
 10
2.1650635094610955
 20
-1.0416666666666674
 40
10.0
 41
0.0
 10
0.0
 20
-0.0
 40
12.0
 41
0.0
  0
LWPOLYLINE
  5
3B
330
17
100
AcDbEntity
  8
LATITUDINAL_RIBS
 62
2
100
AcDbPolyline
 90
51
 70
0
 10
12.5
 20
0.0
 40
2.0
 41
0.0
 10
12.401433766430973
 20
1.305554516294836
 40
2.0
 41
0.0
 10
12.107289514107888
 20
2.5905196579672376
 40
2.0
 41
0.0
 10
11.622206073603143
 20
3.834630757132062
 40
2.0
 41
0.0
 10
10.953833500548296
 20
5.018267438559535
 40
2.0
 41
0.0
 10
10.112712429686843
 20
6.122763044713262
 40
2.0
 41
0.0
 10
9.112107842767644
 20
7.130699020090507
 40
2.0
 41
0.0
 10
7.96779987185862
 20
8.026179612247805
 40
2.0
 41
0.0
 10
6.697834937237457
 20
8.795082557312657
 40
2.0
 41
0.0
 10
5.322241144563408
 20
9.425281796521038
 40
2.0
 41
0.0
 10
3.862712429686843
 20
9.90683871140785
 40
2.0
 41
0.0
 10
2.3422664323215594
 20
10.232158861757174
 40
2.0
 41
0.0
 10
0.784881494116419
 20
10.396111754461163
 40
2.0
 41
0.0
 10
-0.7848814941164175
 20
10.396111754461163
 40
2.0
 41
0.0
 10
-2.3422664323215603
 20
10.232158861757174
 40
2.0
 41
0.0
 10
-3.862712429686842
 20
9.906838711407852
 40
2.0
 41
0.0
 10
-5.322241144563409
 20
9.425281796521038
 40
2.0
 41
0.0
 10
-6.697834937237461
 20
8.795082557312657
 40
2.0
 41
0.0
 10
-7.967799871858622
 20
8.026179612247805
 40
2.0
 41
0.0
 10
-9.112107842767642
 20
7.13069902009051
 40
2.0
 41
0.0
 10
-10.112712429686841
 20
6.122763044713263
 40
2.0
 41
0.0
 10
-10.953833500548292
 20
5.018267438559538
 40
2.0
 41
0.0
 10
-11.622206073603142
 20
3.8346307571320644
 40
2.0
 41
0.0
 10
-12.107289514107888
 20
2.590519657967238
 40
2.0
 41
0.0
 10
-12.401433766430973
 20
1.305554516294839
 40
2.0
 41
0.0
 10
-12.5
 20
1.2756737491118264e-15
 40
2.0
 41
0.0
 10
-12.401433766430973
 20
-1.3055545162948365
 40
2.0
 41
0.0
 10
-12.107289514107888
 20
-2.5905196579672403
 40
2.0
 41
0.0
 10
-11.62220607360314
 20
-3.834630757132066
 40
2.0
 41
0.0
 10
-10.953833500548296
 20
-5.018267438559532
 40
2.0
 41
0.0
 10
-10.112712429686843
 20
-6.1227630447132615
 40
2.0
 41
0.0
 10
-9.112107842767644
 20
-7.130699020090509
 40
2.0
 41
0.0
 10
-7.967799871858619
 20
-8.026179612247807
 40
2.0
 41
0.0
 10
-6.697834937237454
 20
-8.79508255731266
 40
2.0
 41
0.0
 10
-5.322241144563402
 20
-9.425281796521041
 40
2.0
 41
0.0
 10
-3.8627124296868445
 20
-9.90683871140785
 40
2.0
 41
0.0
 10
-2.342266432321558
 20
-10.232158861757176
 40
2.0
 41
0.0
 10
-0.7848814941164151
 20
-10.396111754461163
 40
2.0
 41
0.0
 10
0.7848814941164104
 20
-10.396111754461163
 40
2.0
 41
0.0
 10
2.342266432321553
 20
-10.232158861757176
 40
2.0
 41
0.0
 10
3.8627124296868405
 20
-9.906838711407852
 40
2.0
 41
0.0
 10
5.322241144563398
 20
-9.425281796521041
 40
2.0
 41
0.0
 10
6.69783493723745
 20
-8.795082557312663
 40
2.0
 41
0.0
 10
7.967799871858617
 20
-8.026179612247809
 40
2.0
 41
0.0
 10
9.112107842767642
 20
-7.1306990200905105
 40
2.0
 41
0.0
 10
10.112712429686841
 20
-6.122763044713265
 40
2.0
 41
0.0
 10
10.953833500548296
 20
-5.018267438559535
 40
2.0
 41
0.0
 10
11.62220607360314
 20
-3.83463075713207
 40
2.0
 41
0.0
 10
12.107289514107887
 20
-2.5905196579672434
 40
2.0
 41
0.0
 10
12.401433766430973
 20
-1.3055545162948403
 40
2.0
 41
0.0
 10
12.5
 20
0.0
 40
2.0
 41
0.0
  0
LWPOLYLINE
  5
3C
330
17
100
AcDbEntity
  8
LATITUDINAL_RIBS
 62
2
100
AcDbPolyline
 90
51
 70
0
 10
10.000000000000002
 20
0.0
 40
4.0
 41
0.0
 10
9.92114701314478
 20
1.044443613035869
 40
4.0
 41
0.0
 10
9.685831611286313
 20
2.07241572637379
 40
4.0
 41
0.0
 10
9.297764858882516
 20
3.0677046057056496
 40
4.0
 41
0.0
 10
8.763066800438638
 20
4.014613950847628
 40
4.0
 41
0.0
 10
8.090169943749476
 20
4.8982104357706095
 40
4.0
 41
0.0
 10
7.289686274214117
 20
5.704559216072406
 40
4.0
 41
0.0
 10
6.3742398974868975
 20
6.420943689798245
 40
4.0
 41
0.0
 10
5.358267949789966
 20
7.036066045850126
 40
4.0
 41
0.0
 10
4.257792915650727
 20
7.54022543721683
 40
4.0
 41
0.0
 10
3.090169943749475
 20
7.92547096912628
 40
4.0
 41
0.0
 10
1.8738131458572478
 20
8.18572708940574
 40
4.0
 41
0.0
 10
0.6279051952931354
 20
8.316889403568931
 40
4.0
 41
0.0
 10
-0.6279051952931342
 20
8.316889403568931
 40
4.0
 41
0.0
 10
-1.8738131458572485
 20
8.18572708940574
 40
4.0
 41
0.0
 10
-3.090169943749474
 20
7.925470969126281
 40
4.0
 41
0.0
 10
-4.257792915650728
 20
7.540225437216829
 40
4.0
 41
0.0
 10
-5.35826794978997
 20
7.036066045850125
 40
4.0
 41
0.0
 10
-6.374239897486898
 20
6.420943689798245
 40
4.0
 41
0.0
 10
-7.289686274214114
 20
5.704559216072408
 40
4.0
 41
0.0
 10
-8.090169943749475
 20
4.89821043577061
 40
4.0
 41
0.0
 10
-8.763066800438635
 20
4.014613950847631
 40
4.0
 41
0.0
 10
-9.297764858882514
 20
3.0677046057056514
 40
4.0
 41
0.0
 10
-9.685831611286313
 20
2.0724157263737903
 40
4.0
 41
0.0
 10
-9.921147013144779
 20
1.0444436130358712
 40
4.0
 41
0.0
 10
-10.000000000000002
 20
1.0205389992894611e-15
 40
4.0
 41
0.0
 10
-9.92114701314478
 20
-1.0444436130358692
 40
4.0
 41
0.0
 10
-9.685831611286313
 20
-2.072415726373792
 40
4.0
 41
0.0
 10
-9.297764858882514
 20
-3.0677046057056527
 40
4.0
 41
0.0
 10
-8.763066800438638
 20
-4.014613950847625
 40
4.0
 41
0.0
 10
-8.090169943749476
 20
-4.898210435770609
 40
4.0
 41
0.0
 10
-7.289686274214117
 20
-5.704559216072407
 40
4.0
 41
0.0
 10
-6.374239897486897
 20
-6.4209436897982455
 40
4.0
 41
0.0
 10
-5.358267949789965
 20
-7.036066045850128
 40
4.0
 41
0.0
 10
-4.257792915650723
 20
-7.540225437216832
 40
4.0
 41
0.0
 10
-3.0901699437494763
 20
-7.92547096912628
 40
4.0
 41
0.0
 10
-1.8738131458572467
 20
-8.18572708940574
 40
4.0
 41
0.0
 10
-0.6279051952931322
 20
-8.316889403568931
 40
4.0
 41
0.0
 10
0.6279051952931285
 20
-8.316889403568931
 40
4.0
 41
0.0
 10
1.873813145857243
 20
-8.18572708940574
 40
4.0
 41
0.0
 10
3.0901699437494727
 20
-7.925470969126281
 40
4.0
 41
0.0
 10
4.257792915650719
 20
-7.540225437216833
 40
4.0
 41
0.0
 10
5.358267949789961
 20
-7.03606604585013
 40
4.0
 41
0.0
 10
6.374239897486894
 20
-6.420943689798247
 40
4.0
 41
0.0
 10
7.289686274214114
 20
-5.704559216072409
 40
4.0
 41
0.0
 10
8.090169943749475
 20
-4.898210435770611
 40
4.0
 41
0.0
 10
8.763066800438638
 20
-4.014613950847628
 40
4.0
 41
0.0
 10
9.297764858882513
 20
-3.067704605705656
 40
4.0
 41
0.0
 10
9.68583161128631
 20
-2.072415726373795
 40
4.0
 41
0.0
 10
9.921147013144779
 20
-1.044443613035872
 40
4.0
 41
0.0
 10
10.000000000000002
 20
0.0
 40
4.0
 41
0.0
  0
LWPOLYLINE
  5
3D
330
17
100
AcDbEntity
  8
LATITUDINAL_RIBS
 62
2
100
AcDbPolyline
 90
51
 70
0
 10
7.5
 20
0.0
 40
6.0
 41
0.0
 10
7.440860259858584
 20
0.7833327097769016
 40
6.0
 41
0.0
 10
7.264373708464733
 20
1.5543117947803424
 40
6.0
 41
0.0
 10
6.973323644161886
 20
2.300778454279237
 40
6.0
 41
0.0
 10
6.5723001003289765
 20
3.0109604631357207
 40
6.0
 41
0.0
 10
6.067627457812106
 20
3.673657826827957
 40
6.0
 41
0.0
 10
5.467264705660587
 20
4.278419412054304
 40
6.0
 41
0.0
 10
4.780679923115172
 20
4.815707767348683
 40
6.0
 41
0.0
 10
4.018700962342474
 20
5.2770495343875945
 40
6.0
 41
0.0
 10
3.193344686738045
 20
5.655169077912622
 40
6.0
 41
0.0
 10
2.317627457812106
 20
5.944103226844709
 40
6.0
 41
0.0
 10
1.4053598593929355
 20
6.139295317054303
 40
6.0
 41
0.0
 10
0.4709288964698515
 20
6.237667052676697
 40
6.0
 41
0.0
 10
-0.47092889646985053
 20
6.237667052676697
 40
6.0
 41
0.0
 10
-1.4053598593929362
 20
6.139295317054303
 40
6.0
 41
0.0
 10
-2.317627457812105
 20
5.94410322684471
 40
6.0
 41
0.0
 10
-3.1933446867380453
 20
5.655169077912622
 40
6.0
 41
0.0
 10
-4.018700962342477
 20
5.277049534387594
 40
6.0
 41
0.0
 10
-4.780679923115173
 20
4.815707767348683
 40
6.0
 41
0.0
 10
-5.467264705660585
 20
4.278419412054305
 40
6.0
 41
0.0
 10
-6.067627457812105
 20
3.6736578268279576
 40
6.0
 41
0.0
 10
-6.572300100328976
 20
3.0109604631357225
 40
6.0
 41
0.0
 10
-6.973323644161885
 20
2.3007784542792384
 40
6.0
 41
0.0
 10
-7.264373708464733
 20
1.5543117947803426
 40
6.0
 41
0.0
 10
-7.440860259858583
 20
0.7833327097769034
 40
6.0
 41
0.0
 10
-7.5
 20
7.654042494670958e-16
 40
6.0
 41
0.0
 10
-7.440860259858584
 20
-0.7833327097769018
 40
6.0
 41
0.0
 10
-7.264373708464733
 20
-1.5543117947803438
 40
6.0
 41
0.0
 10
-6.973323644161884
 20
-2.3007784542792393
 40
6.0
 41
0.0
 10
-6.572300100328977
 20
-3.0109604631357185
 40
6.0
 41
0.0
 10
-6.067627457812106
 20
-3.6736578268279563
 40
6.0
 41
0.0
 10
-5.467264705660587
 20
-4.278419412054305
 40
6.0
 41
0.0
 10
-4.780679923115171
 20
-4.815707767348684
 40
6.0
 41
0.0
 10
-4.018700962342472
 20
-5.277049534387595
 40
6.0
 41
0.0
 10
-3.1933446867380413
 20
-5.655169077912624
 40
6.0
 41
0.0
 10
-2.3176274578121068
 20
-5.944103226844709
 40
6.0
 41
0.0
 10
-1.4053598593929346
 20
-6.139295317054304
 40
6.0
 41
0.0
 10
-0.47092889646984903
 20
-6.237667052676697
 40
6.0
 41
0.0
 10
0.47092889646984626
 20
-6.237667052676697
 40
6.0
 41
0.0
 10
1.405359859392932
 20
-6.139295317054304
 40
6.0
 41
0.0
 10
2.317627457812104
 20
-5.94410322684471
 40
6.0
 41
0.0
 10
3.1933446867380386
 20
-5.655169077912625
 40
6.0
 41
0.0
 10
4.01870096234247
 20
-5.277049534387597
 40
6.0
 41
0.0
 10
4.780679923115169
 20
-4.815707767348685
 40
6.0
 41
0.0
 10
5.467264705660585
 20
-4.278419412054306
 40
6.0
 41
0.0
 10
6.067627457812105
 20
-3.6736578268279585
 40
6.0
 41
0.0
 10
6.5723001003289765
 20
-3.0109604631357207
 40
6.0
 41
0.0
 10
6.9733236441618835
 20
-2.300778454279242
 40
6.0
 41
0.0
 10
7.264373708464732
 20
-1.554311794780346
 40
6.0
 41
0.0
 10
7.440860259858583
 20
-0.7833327097769041
 40
6.0
 41
0.0
 10
7.5
 20
0.0
 40
6.0
 41
0.0
  0
LWPOLYLINE
  5
3E
330
17
100
AcDbEntity
  8
LATITUDINAL_RIBS
 62
2
100
AcDbPolyline
 90
51
 70
0
 10
5.000000000000001
 20
0.0
 40
8.0
 41
0.0
 10
4.96057350657239
 20
0.5222218065179345
 40
8.0
 41
0.0
 10
4.842915805643156
 20
1.036207863186895
 40
8.0
 41
0.0
 10
4.648882429441258
 20
1.5338523028528248
 40
8.0
 41
0.0
 10
4.381533400219319
 20
2.007306975423814
 40
8.0
 41
0.0
 10
4.045084971874738
 20
2.4491052178853048
 40
8.0
 41
0.0
 10
3.6448431371070584
 20
2.852279608036203
 40
8.0
 41
0.0
 10
3.1871199487434487
 20
3.2104718448991223
 40
8.0
 41
0.0
 10
2.679133974894983
 20
3.518033022925063
 40
8.0
 41
0.0
 10
2.1288964578253635
 20
3.770112718608415
 40
8.0
 41
0.0
 10
1.5450849718747375
 20
3.96273548456314
 40
8.0
 41
0.0
 10
0.9369065729286239
 20
4.09286354470287
 40
8.0
 41
0.0
 10
0.3139525976465677
 20
4.1584447017844655
 40
8.0
 41
0.0
 10
-0.3139525976465671
 20
4.1584447017844655
 40
8.0
 41
0.0
 10
-0.9369065729286242
 20
4.09286354470287
 40
8.0
 41
0.0
 10
-1.545084971874737
 20
3.9627354845631406
 40
8.0
 41
0.0
 10
-2.128896457825364
 20
3.7701127186084147
 40
8.0
 41
0.0
 10
-2.679133974894985
 20
3.5180330229250627
 40
8.0
 41
0.0
 10
-3.187119948743449
 20
3.2104718448991223
 40
8.0
 41
0.0
 10
-3.644843137107057
 20
2.852279608036204
 40
8.0
 41
0.0
 10
-4.045084971874737
 20
2.449105217885305
 40
8.0
 41
0.0
 10
-4.381533400219317
 20
2.0073069754238153
 40
8.0
 41
0.0
 10
-4.648882429441257
 20
1.5338523028528257
 40
8.0
 41
0.0
 10
-4.842915805643156
 20
1.0362078631868952
 40
8.0
 41
0.0
 10
-4.9605735065723895
 20
0.5222218065179356
 40
8.0
 41
0.0
 10
-5.000000000000001
 20
5.102694996447306e-16
 40
8.0
 41
0.0
 10
-4.96057350657239
 20
-0.5222218065179346
 40
8.0
 41
0.0
 10
-4.842915805643156
 20
-1.036207863186896
 40
8.0
 41
0.0
 10
-4.648882429441257
 20
-1.5338523028528264
 40
8.0
 41
0.0
 10
-4.381533400219319
 20
-2.0073069754238126
 40
8.0
 41
0.0
 10
-4.045084971874738
 20
-2.4491052178853043
 40
8.0
 41
0.0
 10
-3.6448431371070584
 20
-2.8522796080362034
 40
8.0
 41
0.0
 10
-3.1871199487434483
 20
-3.2104718448991227
 40
8.0
 41
0.0
 10
-2.6791339748949823
 20
-3.518033022925064
 40
8.0
 41
0.0
 10
-2.1288964578253613
 20
-3.770112718608416
 40
8.0
 41
0.0
 10
-1.5450849718747381
 20
-3.96273548456314
 40
8.0
 41
0.0
 10
-0.9369065729286233
 20
-4.09286354470287
 40
8.0
 41
0.0
 10
-0.3139525976465661
 20
-4.1584447017844655
 40
8.0
 41
0.0
 10
0.31395259764656425
 20
-4.1584447017844655
 40
8.0
 41
0.0
 10
0.9369065729286215
 20
-4.09286354470287
 40
8.0
 41
0.0
 10
1.5450849718747364
 20
-3.9627354845631406
 40
8.0
 41
0.0
 10
2.1288964578253595
 20
-3.7701127186084165
 40
8.0
 41
0.0
 10
2.6791339748949805
 20
-3.518033022925065
 40
8.0
 41
0.0
 10
3.187119948743447
 20
-3.2104718448991236
 40
8.0
 41
0.0
 10
3.644843137107057
 20
-2.8522796080362043
 40
8.0
 41
0.0
 10
4.045084971874737
 20
-2.4491052178853057
 40
8.0
 41
0.0
 10
4.381533400219319
 20
-2.007306975423814
 40
8.0
 41
0.0
 10
4.648882429441256
 20
-1.533852302852828
 40
8.0
 41
0.0
 10
4.842915805643155
 20
-1.0362078631868974
 40
8.0
 41
0.0
 10
4.9605735065723895
 20
-0.522221806517936
 40
8.0
 41
0.0
 10
5.000000000000001
 20
0.0
 40
8.0
 41
0.0
  0
LWPOLYLINE
  5
3F
330
17
100
AcDbEntity
  8
LATITUDINAL_RIBS
 62
2
100
AcDbPolyline
 90
51
 70
0
 10
2.4999999999999996
 20
0.0
 40
10.0
 41
0.0
 10
2.4802867532861943
 20
0.2611109032589672
 40
10.0
 41
0.0
 10
2.4214579028215772
 20
0.5181039315934474
 40
10.0
 41
0.0
 10
2.324441214720628
 20
0.7669261514264122
 40
10.0
 41
0.0
 10
2.1907667001096587
 20
1.0036534877119068
 40
10.0
 41
0.0
 10
2.022542485937368
 20
1.2245526089426522
 40
10.0
 41
0.0
 10
1.8224215685535285
 20
1.426139804018101
 40
10.0
 41
0.0
 10
1.5935599743717237
 20
1.6052359224495607
 40
10.0
 41
0.0
 10
1.3395669874474911
 20
1.7590165114625311
 40
10.0
 41
0.0
 10
1.0644482289126815
 20
1.8850563593042071
 40
10.0
 41
0.0
 10
0.7725424859373685
 20
1.9813677422815696
 40
10.0
 41
0.0
 10
0.4684532864643118
 20
2.0464317723514345
 40
10.0
 41
0.0
 10
0.1569762988232838
 20
2.0792223508922323
 40
10.0
 41
0.0
 10
-0.15697629882328348
 20
2.0792223508922323
 40
10.0
 41
0.0
 10
-0.468453286464312
 20
2.0464317723514345
 40
10.0
 41
0.0
 10
-0.7725424859373682
 20
1.9813677422815699
 40
10.0
 41
0.0
 10
-1.0644482289126815
 20
1.885056359304207
 40
10.0
 41
0.0
 10
-1.339566987447492
 20
1.759016511462531
 40
10.0
 41
0.0
 10
-1.5935599743717241
 20
1.6052359224495607
 40
10.0
 41
0.0
 10
-1.822421568553528
 20
1.4261398040181015
 40
10.0
 41
0.0
 10
-2.022542485937368
 20
1.2245526089426524
 40
10.0
 41
0.0
 10
-2.190766700109658
 20
1.0036534877119074
 40
10.0
 41
0.0
 10
-2.324441214720628
 20
0.7669261514264127
 40
10.0
 41
0.0
 10
-2.4214579028215772
 20
0.5181039315934475
 40
10.0
 41
0.0
 10
-2.480286753286194
 20
0.26111090325896774
 40
10.0
 41
0.0
 10
-2.4999999999999996
 20
2.5513474982236524e-16
 40
10.0
 41
0.0
 10
-2.4802867532861943
 20
-0.26111090325896724
 40
10.0
 41
0.0
 10
-2.4214579028215772
 20
-0.5181039315934479
 40
10.0
 41
0.0
 10
-2.3244412147206277
 20
-0.7669261514264131
 40
10.0
 41
0.0
 10
-2.1907667001096587
 20
-1.003653487711906
 40
10.0
 41
0.0
 10
-2.022542485937368
 20
-1.224552608942652
 40
10.0
 41
0.0
 10
-1.8224215685535285
 20
-1.4261398040181013
 40
10.0
 41
0.0
 10
-1.5935599743717235
 20
-1.605235922449561
 40
10.0
 41
0.0
 10
-1.3395669874474905
 20
-1.7590165114625316
 40
10.0
 41
0.0
 10
-1.0644482289126802
 20
-1.8850563593042076
 40
10.0
 41
0.0
 10
-0.7725424859373687
 20
-1.9813677422815696
 40
10.0
 41
0.0
 10
-0.4684532864643115
 20
-2.0464317723514345
 40
10.0
 41
0.0
 10
-0.15697629882328298
 20
-2.0792223508922323
 40
10.0
 41
0.0
 10
0.15697629882328204
 20
-2.0792223508922323
 40
10.0
 41
0.0
 10
0.4684532864643106
 20
-2.0464317723514345
 40
10.0
 41
0.0
 10
0.772542485937368
 20
-1.9813677422815699
 40
10.0
 41
0.0
 10
1.0644482289126793
 20
-1.8850563593042078
 40
10.0
 41
0.0
 10
1.3395669874474898
 20
-1.759016511462532
 40
10.0
 41
0.0
 10
1.593559974371723
 20
-1.6052359224495614
 40
10.0
 41
0.0
 10
1.822421568553528
 20
-1.4261398040181017
 40
10.0
 41
0.0
 10
2.022542485937368
 20
-1.2245526089426526
 40
10.0
 41
0.0
 10
2.1907667001096587
 20
-1.0036534877119068
 40
10.0
 41
0.0
 10
2.3244412147206273
 20
-0.7669261514264138
 40
10.0
 41
0.0
 10
2.421457902821577
 20
-0.5181039315934486
 40
10.0
 41
0.0
 10
2.480286753286194
 20
-0.26111090325896796
 40
10.0
 41
0.0
 10
2.4999999999999996
 20
0.0
 40
10.0
 41
0.0
  0
LWPOLYLINE
  5
40
330
17
100
AcDbEntity
  8
LATITUDINAL_RIBS
 62
2
100
AcDbPolyline
 90
51
 70
0
 10
0.0
 20
0.0
 40
12.0
 41
0.0
 10
0.0
 20
0.0
 40
12.0
 41
0.0
 10
0.0
 20
0.0
 40
12.0
 41
0.0
 10
0.0
 20
0.0
 40
12.0
 41
0.0
 10
0.0
 20
0.0
 40
12.0
 41
0.0
 10
0.0
 20
0.0
 40
12.0
 41
0.0
 10
0.0
 20
0.0
 40
12.0
 41
0.0
 10
0.0
 20
0.0
 40
12.0
 41
0.0
 10
0.0
 20
0.0
 40
12.0
 41
0.0
 10
0.0
 20
0.0
 40
12.0
 41
0.0
 10
0.0
 20
0.0
 40
12.0
 41
0.0
 10
0.0
 20
0.0
 40
12.0
 41
0.0
 10
0.0
 20
0.0
 40
12.0
 41
0.0
 10
-0.0
 20
0.0
 40
12.0
 41
0.0
 10
-0.0
 20
0.0
 40
12.0
 41
0.0
 10
-0.0
 20
0.0
 40
12.0
 41
0.0
 10
-0.0
 20
0.0
 40
12.0
 41
0.0
 10
-0.0
 20
0.0
 40
12.0
 41
0.0
 10
-0.0
 20
0.0
 40
12.0
 41
0.0
 10
-0.0
 20
0.0
 40
12.0
 41
0.0
 10
-0.0
 20
0.0
 40
12.0
 41
0.0
 10
-0.0
 20
0.0
 40
12.0
 41
0.0
 10
-0.0
 20
0.0
 40
12.0
 41
0.0
 10
-0.0
 20
0.0
 40
12.0
 41
0.0
 10
-0.0
 20
0.0
 40
12.0
 41
0.0
 10
-0.0
 20
0.0
 40
12.0
 41
0.0
 10
-0.0
 20
-0.0
 40
12.0
 41
0.0
 10
-0.0
 20
-0.0
 40
12.0
 41
0.0
 10
-0.0
 20
-0.0
 40
12.0
 41
0.0
 10
-0.0
 20
-0.0
 40
12.0
 41
0.0
 10
-0.0
 20
-0.0
 40
12.0
 41
0.0
 10
-0.0
 20
-0.0
 40
12.0
 41
0.0
 10
-0.0
 20
-0.0
 40
12.0
 41
0.0
 10
-0.0
 20
-0.0
 40
12.0
 41
0.0
 10
-0.0
 20
-0.0
 40
12.0
 41
0.0
 10
-0.0
 20
-0.0
 40
12.0
 41
0.0
 10
-0.0
 20
-0.0
 40
12.0
 41
0.0
 10
-0.0
 20
-0.0
 40
12.0
 41
0.0
 10
0.0
 20
-0.0
 40
12.0
 41
0.0
 10
0.0
 20
-0.0
 40
12.0
 41
0.0
 10
0.0
 20
-0.0
 40
12.0
 41
0.0
 10
0.0
 20
-0.0
 40
12.0
 41
0.0
 10
0.0
 20
-0.0
 40
12.0
 41
0.0
 10
0.0
 20
-0.0
 40
12.0
 41
0.0
 10
0.0
 20
-0.0
 40
12.0
 41
0.0
 10
0.0
 20
-0.0
 40
12.0
 41
0.0
 10
0.0
 20
-0.0
 40
12.0
 41
0.0
 10
0.0
 20
-0.0
 40
12.0
 41
0.0
 10
0.0
 20
-0.0
 40
12.0
 41
0.0
 10
0.0
 20
-0.0
 40
12.0
 41
0.0
 10
0.0
 20
0.0
 40
12.0
 41
0.0
  0
LINE
  5
41
330
17
100
AcDbEntity
  8
BRACING
 62
3
100
AcDbLine
 10
12.5
 20
0.0
 30
2.0
 11
8.660254037844389
 21
4.166666666666666
 31
4.0
  0
LINE
  5
42
330
17
100
AcDbEntity
  8
BRACING
 62
3
100
AcDbLine
 10
10.000000000000002
 20
0.0
 30
4.0
 11
6.49519052838329
 21
3.1249999999999996
 31
6.0
  0
LINE
  5
43
330
17
100
AcDbEntity
  8
BRACING
 62
3
100
AcDbLine
 10
7.5
 20
0.0
 30
6.0
 11
4.3301270189221945
 21
2.083333333333333
 31
8.0
  0
LINE
  5
44
330
17
100
AcDbEntity
  8
BRACING
 62
3
100
AcDbLine
 10
5.000000000000001
 20
0.0
 30
8.0
 11
2.1650635094610964
 21
1.0416666666666663
 31
10.0
  0
LINE
  5
45
330
17
100
AcDbEntity
  8
BRACING
 62
3
100
AcDbLine
 10
2.4999999999999996
 20
0.0
 30
10.0
 11
0.0
 21
0.0
 31
12.0
  0
LINE
  5
46
330
17
100
AcDbEntity
  8
BRACING
 62
3
100
AcDbLine
 10
10.825317547305485
 20
5.208333333333333
 30
2.0
 11
5.000000000000002
 21
7.216878364870322
 31
4.0
  0
LINE
  5
47
330
17
100
AcDbEntity
  8
BRACING
 62
3
100
AcDbLine
 10
8.660254037844389
 20
4.166666666666666
 30
4.0
 11
3.750000000000001
 21
5.412658773652741
 31
6.0
  0
LINE
  5
48
330
17
100
AcDbEntity
  8
BRACING
 62
3
100
AcDbLine
 10
6.49519052838329
 20
3.1249999999999996
 30
6.0
 11
2.500000000000001
 21
3.608439182435161
 31
8.0
  0
LINE
  5
49
330
17
100
AcDbEntity
  8
BRACING
 62
3
100
AcDbLine
 10
4.3301270189221945
 20
2.083333333333333
 30
8.0
 11
1.25
 21
1.8042195912175802
 31
10.0
  0
LINE
  5
4A
330
17
100
AcDbEntity
  8
BRACING
 62
3
100
AcDbLine
 10
2.1650635094610964
 20
1.0416666666666663
 30
10.0
 11
0.0
 21
0.0
 31
12.0
  0
LINE
  5
4B
330
17
100
AcDbEntity
  8
BRACING
 62
3
100
AcDbLine
 10
6.250000000000002
 20
9.021097956087903
 30
2.0
 11
6.123233995736767e-16
 21
8.333333333333334
 31
4.0
  0
LINE
  5
4C
330
17
100
AcDbEntity
  8
BRACING
 62
3
100
AcDbLine
 10
5.000000000000002
 20
7.216878364870322
 30
4.0
 11
4.592425496802575e-16
 21
6.25
 31
6.0
  0
LINE
  5
4D
330
17
100
AcDbEntity
  8
BRACING
 62
3
100
AcDbLine
 10
3.750000000000001
 20
5.412658773652741
 30
6.0
 11
3.0616169978683836e-16
 21
4.166666666666667
 31
8.0
  0
LINE
  5
4E
330
17
100
AcDbEntity
  8
BRACING
 62
3
100
AcDbLine
 10
2.500000000000001
 20
3.608439182435161
 30
8.0
 11
1.5308084989341913e-16
 21
2.083333333333333
 31
10.0
  0
LINE
  5
4F
330
17
100
AcDbEntity
  8
BRACING
 62
3
100
AcDbLine
 10
1.25
 20
1.8042195912175802
 30
10.0
 11
0.0
 21
0.0
 31
12.0
  0
LINE
  5
50
330
17
100
AcDbEntity
  8
BRACING
 62
3
100
AcDbLine
 10
7.654042494670958e-16
 20
10.416666666666668
 30
2.0
 11
-4.999999999999999
 21
7.216878364870323
 31
4.0
  0
LINE
  5
51
330
17
100
AcDbEntity
  8
BRACING
 62
3
100
AcDbLine
 10
6.123233995736767e-16
 20
8.333333333333334
 30
4.0
 11
-3.7499999999999987
 21
5.412658773652742
 31
6.0
  0
LINE
  5
52
330
17
100
AcDbEntity
  8
BRACING
 62
3
100
AcDbLine
 10
4.592425496802575e-16
 20
6.25
 30
6.0
 11
-2.4999999999999996
 21
3.6084391824351614
 31
8.0
  0
LINE
  5
53
330
17
100
AcDbEntity
  8
BRACING
 62
3
100
AcDbLine
 10
3.0616169978683836e-16
 20
4.166666666666667
 30
8.0
 11
-1.2499999999999993
 21
1.8042195912175805
 31
10.0
  0
LINE
  5
54
330
17
100
AcDbEntity
  8
BRACING
 62
3
100
AcDbLine
 10
1.5308084989341913e-16
 20
2.083333333333333
 30
10.0
 11
-0.0
 21
0.0
 31
12.0
  0
LINE
  5
55
330
17
100
AcDbEntity
  8
BRACING
 62
3
100
AcDbLine
 10
-6.249999999999998
 20
9.021097956087905
 30
2.0
 11
-8.660254037844389
 21
4.166666666666666
 31
4.0
  0
LINE
  5
56
330
17
100
AcDbEntity
  8
BRACING
 62
3
100
AcDbLine
 10
-4.999999999999999
 20
7.216878364870323
 30
4.0
 11
-6.49519052838329
 21
3.1249999999999996
 31
6.0
  0
LINE
  5
57
330
17
100
AcDbEntity
  8
BRACING
 62
3
100
AcDbLine
 10
-3.7499999999999987
 20
5.412658773652742
 30
6.0
 11
-4.3301270189221945
 21
2.083333333333333
 31
8.0
  0
LINE
  5
58
330
17
100
AcDbEntity
  8
BRACING
 62
3
100
AcDbLine
 10
-2.4999999999999996
 20
3.6084391824351614
 30
8.0
 11
-2.1650635094610964
 21
1.0416666666666663
 31
10.0
  0
LINE
  5
59
330
17
100
AcDbEntity
  8
BRACING
 62
3
100
AcDbLine
 10
-1.2499999999999993
 20
1.8042195912175805
 30
10.0
 11
-0.0
 21
0.0
 31
12.0
  0
LINE
  5
5A
330
17
100
AcDbEntity
  8
BRACING
 62
3
100
AcDbLine
 10
-10.825317547305485
 20
5.208333333333333
 30
2.0
 11
-10.000000000000002
 21
1.0205389992894611e-15
 31
4.0
  0
LINE
  5
5B
330
17
100
AcDbEntity
  8
BRACING
 62
3
100
AcDbLine
 10
-8.660254037844389
 20
4.166666666666666
 30
4.0
 11
-7.5
 21
7.654042494670958e-16
 31
6.0
  0
LINE
  5
5C
330
17
100
AcDbEntity
  8
BRACING
 62
3
100
AcDbLine
 10
-6.49519052838329
 20
3.1249999999999996
 30
6.0
 11
-5.000000000000001
 21
5.102694996447306e-16
 31
8.0
  0
LINE
  5
5D
330
17
100
AcDbEntity
  8
BRACING
 62
3
100
AcDbLine
 10
-4.3301270189221945
 20
2.083333333333333
 30
8.0
 11
-2.4999999999999996
 21
2.5513474982236524e-16
 31
10.0
  0
LINE
  5
5E
330
17
100
AcDbEntity
  8
BRACING
 62
3
100
AcDbLine
 10
-2.1650635094610964
 20
1.0416666666666663
 30
10.0
 11
-0.0
 21
0.0
 31
12.0
  0
LINE
  5
5F
330
17
100
AcDbEntity
  8
BRACING
 62
3
100
AcDbLine
 10
-12.5
 20
1.2756737491118264e-15
 30
2.0
 11
-8.660254037844387
 21
-4.166666666666668
 31
4.0
  0
LINE
  5
60
330
17
100
AcDbEntity
  8
BRACING
 62
3
100
AcDbLine
 10
-10.000000000000002
 20
1.0205389992894611e-15
 30
4.0
 11
-6.495190528383289
 21
-3.125000000000001
 31
6.0
  0
LINE
  5
61
330
17
100
AcDbEntity
  8
BRACING
 62
3
100
AcDbLine
 10
-7.5
 20
7.654042494670958e-16
 30
6.0
 11
-4.330127018922194
 21
-2.083333333333334
 31
8.0
  0
LINE
  5
62
330
17
100
AcDbEntity
  8
BRACING
 62
3
100
AcDbLine
 10
-5.000000000000001
 20
5.102694996447306e-16
 30
8.0
 11
-2.165063509461096
 21
-1.0416666666666667
 31
10.0
  0
LINE
  5
63
330
17
100
AcDbEntity
  8
BRACING
 62
3
100
AcDbLine
 10
-2.4999999999999996
 20
2.5513474982236524e-16
 30
10.0
 11
-0.0
 21
-0.0
 31
12.0
  0
LINE
  5
64
330
17
100
AcDbEntity
  8
BRACING
 62
3
100
AcDbLine
 10
-10.825317547305483
 20
-5.208333333333335
 30
2.0
 11
-5.000000000000005
 21
-7.21687836487032
 31
4.0
  0
LINE
  5
65
330
17
100
AcDbEntity
  8
BRACING
 62
3
100
AcDbLine
 10
-8.660254037844387
 20
-4.166666666666668
 30
4.0
 11
-3.7500000000000036
 21
-5.41265877365274
 31
6.0
  0
LINE
  5
66
330
17
100
AcDbEntity
  8
BRACING
 62
3
100
AcDbLine
 10
-6.495190528383289
 20
-3.125000000000001
 30
6.0
 11
-2.5000000000000027
 21
-3.60843918243516
 31
8.0
  0
LINE
  5
67
330
17
100
AcDbEntity
  8
BRACING
 62
3
100
AcDbLine
 10
-4.330127018922194
 20
-2.083333333333334
 30
8.0
 11
-1.2500000000000009
 21
-1.8042195912175798
 31
10.0
  0
LINE
  5
68
330
17
100
AcDbEntity
  8
BRACING
 62
3
100
AcDbLine
 10
-2.165063509461096
 20
-1.0416666666666667
 30
10.0
 11
-0.0
 21
-0.0
 31
12.0
  0
LINE
  5
69
330
17
100
AcDbEntity
  8
BRACING
 62
3
100
AcDbLine
 10
-6.250000000000005
 20
-9.021097956087901
 30
2.0
 11
-1.83697019872103e-15
 21
-8.333333333333334
 31
4.0
  0
LINE
  5
6A
330
17
100
AcDbEntity
  8
BRACING
 62
3
100
AcDbLine
 10
-5.000000000000005
 20
-7.21687836487032
 30
4.0
 11
-1.3777276490407722e-15
 21
-6.25
 31
6.0
  0
LINE
  5
6B
330
17
100
AcDbEntity
  8
BRACING
 62
3
100
AcDbLine
 10
-3.7500000000000036
 20
-5.41265877365274
 30
6.0
 11
-9.18485099360515e-16
 21
-4.166666666666667
 31
8.0
  0
LINE
  5
6C
330
17
100
AcDbEntity
  8
BRACING
 62
3
100
AcDbLine
 10
-2.5000000000000027
 20
-3.60843918243516
 30
8.0
 11
-4.592425496802573e-16
 21
-2.083333333333333
 31
10.0
  0
LINE
  5
6D
330
17
100
AcDbEntity
  8
BRACING
 62
3
100
AcDbLine
 10
-1.2500000000000009
 20
-1.8042195912175798
 30
10.0
 11
-0.0
 21
-0.0
 31
12.0
  0
LINE
  5
6E
330
17
100
AcDbEntity
  8
BRACING
 62
3
100
AcDbLine
 10
-2.296212748401287e-15
 20
-10.416666666666668
 30
2.0
 11
5.000000000000002
 21
-7.216878364870322
 31
4.0
  0
LINE
  5
6F
330
17
100
AcDbEntity
  8
BRACING
 62
3
100
AcDbLine
 10
-1.83697019872103e-15
 20
-8.333333333333334
 30
4.0
 11
3.750000000000001
 21
-5.412658773652741
 31
6.0
  0
LINE
  5
70
330
17
100
AcDbEntity
  8
BRACING
 62
3
100
AcDbLine
 10
-1.3777276490407722e-15
 20
-6.25
 30
6.0
 11
2.500000000000001
 21
-3.608439182435161
 31
8.0
  0
LINE
  5
71
330
17
100
AcDbEntity
  8
BRACING
 62
3
100
AcDbLine
 10
-9.18485099360515e-16
 20
-4.166666666666667
 30
8.0
 11
1.25
 21
-1.8042195912175802
 31
10.0
  0
LINE
  5
72
330
17
100
AcDbEntity
  8
BRACING
 62
3
100
AcDbLine
 10
-4.592425496802573e-16
 20
-2.083333333333333
 30
10.0
 11
0.0
 21
-0.0
 31
12.0
  0
LINE
  5
73
330
17
100
AcDbEntity
  8
BRACING
 62
3
100
AcDbLine
 10
6.250000000000002
 20
-9.021097956087903
 30
2.0
 11
8.660254037844386
 21
-4.1666666666666705
 31
4.0
  0
LINE
  5
74
330
17
100
AcDbEntity
  8
BRACING
 62
3
100
AcDbLine
 10
5.000000000000002
 20
-7.216878364870322
 30
4.0
 11
6.495190528383288
 21
-3.1250000000000027
 31
6.0
  0
LINE
  5
75
330
17
100
AcDbEntity
  8
BRACING
 62
3
100
AcDbLine
 10
3.750000000000001
 20
-5.412658773652741
 30
6.0
 11
4.330127018922193
 21
-2.0833333333333353
 31
8.0
  0
LINE
  5
76
330
17
100
AcDbEntity
  8
BRACING
 62
3
100
AcDbLine
 10
2.500000000000001
 20
-3.608439182435161
 30
8.0
 11
2.1650635094610955
 21
-1.0416666666666674
 31
10.0
  0
LINE
  5
77
330
17
100
AcDbEntity
  8
BRACING
 62
3
100
AcDbLine
 10
1.25
 20
-1.8042195912175802
 30
10.0
 11
0.0
 21
-0.0
 31
12.0
  0
LINE
  5
78
330
17
100
AcDbEntity
  8
BRACING
 62
3
100
AcDbLine
 10
10.82531754730548
 20
-5.208333333333338
 30
2.0
 11
10.000000000000002
 21
0.0
 31
4.0
  0
LINE
  5
79
330
17
100
AcDbEntity
  8
BRACING
 62
3
100
AcDbLine
 10
8.660254037844386
 20
-4.1666666666666705
 30
4.0
 11
7.5
 21
0.0
 31
6.0
  0
LINE
  5
7A
330
17
100
AcDbEntity
  8
BRACING
 62
3
100
AcDbLine
 10
6.495190528383288
 20
-3.1250000000000027
 30
6.0
 11
5.000000000000001
 21
0.0
 31
8.0
  0
LINE
  5
7B
330
17
100
AcDbEntity
  8
BRACING
 62
3
100
AcDbLine
 10
4.330127018922193
 20
-2.0833333333333353
 30
8.0
 11
2.4999999999999996
 21
0.0
 31
10.0
  0
LINE
  5
7C
330
17
100
AcDbEntity
  8
BRACING
 62
3
100
AcDbLine
 10
2.1650635094610955
 20
-1.0416666666666674
 30
10.0
 11
0.0
 21
0.0
 31
12.0
  0
LWPOLYLINE
  5
7D
330
17
100
AcDbEntity
  8
BASE_RING
 62
4
100
AcDbPolyline
 90
101
 70
0
 10
15.0
 20
0.0
 10
14.970400926424073
 20
0.7848814941164172
 10
14.881720519717168
 20
1.5666654195538032
 10
14.73430876093033
 20
2.3422664323215576
 10
14.528747416929466
 20
3.108623589560685
 10
14.265847744427303
 20
3.8627124296868423
 10
13.946647288323772
 20
4.601556908558474
 10
13.572405786990291
 20
5.322241144563409
 10
13.144600200657953
 20
6.0219209262714415
 10
12.664918882530227
 20
6.697834937237459
 10
12.135254915624213
 20
7.347315653655914
 10
11.557698641636838
 20
7.96779987185862
 10
10.934529411321174
 20
8.556838824108608
 10
10.26820658893033
 20
9.112107842767644
 10
9.561359846230344
 20
9.631415534697366
 10
8.816778784387097
 20
10.112712429686843
 10
8.037401924684948
 20
10.554099068775189
 10
7.226305111525727
 20
10.953833500548296
 10
6.38668937347609
 20
11.310338155825244
 10
5.521868290270171
 20
11.622206073603142
 10
4.635254915624212
 20
11.888206453689419
 10
3.7303483074728243
 20
12.107289514107888
 10
2.810719718785871
 20
12.278590634108607
 10
1.8799985034645639
 20
12.401433766430973
 10
0.941857792939703
 20
12.475334105353394
 10
9.18485099360515e-16
 20
12.5
 10
-0.9418577929397011
 20
12.475334105353394
 10
-1.8799985034645657
 20
12.401433766430973
 10
-2.8107197187858723
 20
12.278590634108607
 10
-3.7303483074728194
 20
12.10728951410789
 10
-4.63525491562421
 20
11.88820645368942
 10
-5.521868290270169
 20
11.622206073603142
 10
-6.386689373476091
 20
11.310338155825244
 10
-7.226305111525732
 20
10.953833500548294
 10
-8.037401924684954
 20
10.554099068775187
 10
-8.816778784387095
 20
10.112712429686843
 10
-9.561359846230346
 20
9.631415534697366
 10
-10.268206588930331
 20
9.112107842767642
 10
-10.93452941132117
 20
8.55683882410861
 10
-11.557698641636836
 20
7.967799871858623
 10
-12.13525491562421
 20
7.347315653655915
 10
-12.664918882530223
 20
6.697834937237462
 10
-13.144600200657951
 20
6.021920926271445
 10
-13.57240578699029
 20
5.322241144563411
 10
-13.94664728832377
 20
4.601556908558477
 10
-14.265847744427303
 20
3.862712429686844
 10
-14.528747416929466
 20
3.1086235895606853
 10
-14.734308760930329
 20
2.3422664323215625
 10
-14.881720519717167
 20
1.5666654195538068
 10
-14.970400926424073
 20
0.7848814941164197
 10
-15.0
 20
1.5308084989341915e-15
 10
-14.970400926424073
 20
-0.7848814941164168
 10
-14.881720519717168
 20
-1.5666654195538037
 10
-14.734308760930329
 20
-2.3422664323215594
 10
-14.528747416929466
 20
-3.1086235895606875
 10
-14.265847744427303
 20
-3.8627124296868467
 10
-13.946647288323769
 20
-4.601556908558479
 10
-13.572405786990295
 20
-5.322241144563403
 10
-13.144600200657955
 20
-6.021920926271437
 10
-12.664918882530229
 20
-6.697834937237455
 10
-12.135254915624213
 20
-7.3473156536559125
 10
-11.557698641636838
 20
-7.96779987185862
 10
-10.934529411321174
 20
-8.55683882410861
 10
-10.268206588930335
 20
-9.112107842767642
 10
-9.561359846230342
 20
-9.631415534697368
 10
-8.816778784387099
 20
-10.112712429686841
 10
-8.037401924684945
 20
-10.55409906877519
 10
-7.226305111525729
 20
-10.953833500548296
 10
-6.386689373476083
 20
-11.310338155825248
 10
-5.521868290270179
 20
-11.62220607360314
 10
-4.6352549156242135
 20
-11.888206453689419
 10
-3.7303483074728296
 20
-12.107289514107887
 10
-2.8107197187858692
 20
-12.278590634108609
 10
-1.8799985034645688
 20
-12.401433766430973
 10
-0.9418577929396981
 20
-12.475334105353394
 10
-2.7554552980815444e-15
 20
-12.5
 10
0.9418577929396925
 20
-12.475334105353394
 10
1.8799985034645634
 20
-12.401433766430973
 10
2.810719718785864
 20
-12.278590634108609
 10
3.730348307472824
 20
-12.107289514107888
 10
4.635254915624208
 20
-11.88820645368942
 10
5.521868290270174
 20
-11.62220607360314
 10
6.386689373476077
 20
-11.31033815582525
 10
7.226305111525724
 20
-10.953833500548297
 10
8.03740192468494
 20
-10.554099068775194
 10
8.816778784387093
 20
-10.112712429686844
 10
9.561359846230339
 20
-9.63141553469737
 10
10.26820658893033
 20
-9.112107842767644
 10
10.93452941132117
 20
-8.556838824108612
 10
11.557698641636838
 20
-7.96779987185862
 10
12.13525491562421
 20
-7.347315653655917
 10
12.66491888253023
 20
-6.697834937237454
 10
13.144600200657953
 20
-6.0219209262714415
 10
13.572405786990295
 20
-5.322241144563403
 10
13.946647288323767
 20
-4.601556908558484
 10
14.265847744427303
 20
-3.862712429686846
 10
14.528747416929464
 20
-3.108623589560692
 10
14.73430876093033
 20
-2.3422664323215585
 10
14.881720519717167
 20
-1.5666654195538081
 10
14.970400926424073
 20
-0.7848814941164158
 10
15.0
 20
0.0
  0
LINE
  5
7E
330
17
100
AcDbEntity
  8
SUPPORTS
 62
5
100
AcDbLine
 10
15.0
 20
0.0
 30
-5.0
 11
15.0
 21
0.0
 31
0.0
  0
LWPOLYLINE
  5
7F
330
17
100
AcDbEntity
  8
SUPPORTS
 62
5
100
AcDbPolyline
 90
5
 70
0
 10
13.5
 20
-1.5
 40
-5.0
 41
0.0
 10
16.5
 20
-1.5
 40
-5.0
 41
0.0
 10
16.5
 20
1.5
 40
-5.0
 41
0.0
 10
13.5
 20
1.5
 40
-5.0
 41
0.0
 10
13.5
 20
-1.5
 40
-5.0
 41
0.0
  0
LINE
  5
80
330
17
100
AcDbEntity
  8
SUPPORTS
 62
5
100
AcDbLine
 10
9.18485099360515e-16
 20
12.5
 30
-5.0
 11
9.18485099360515e-16
 21
12.5
 31
0.0
  0
LWPOLYLINE
  5
81
330
17
100
AcDbEntity
  8
SUPPORTS
 62
5
100
AcDbPolyline
 90
5
 70
0
 10
-1.4999999999999991
 20
11.0
 40
-5.0
 41
0.0
 10
1.5000000000000009
 20
11.0
 40
-5.0
 41
0.0
 10
1.5000000000000009
 20
14.0
 40
-5.0
 41
0.0
 10
-1.4999999999999991
 20
14.0
 40
-5.0
 41
0.0
 10
-1.4999999999999991
 20
11.0
 40
-5.0
 41
0.0
  0
LINE
  5
82
330
17
100
AcDbEntity
  8
SUPPORTS
 62
5
100
AcDbLine
 10
-15.0
 20
1.5308084989341915e-15
 30
-5.0
 11
-15.0
 21
1.5308084989341915e-15
 31
0.0
  0
LWPOLYLINE
  5
83
330
17
100
AcDbEntity
  8
SUPPORTS
 62
5
100
AcDbPolyline
 90
5
 70
0
 10
-16.5
 20
-1.4999999999999984
 40
-5.0
 41
0.0
 10
-13.5
 20
-1.4999999999999984
 40
-5.0
 41
0.0
 10
-13.5
 20
1.5000000000000016
 40
-5.0
 41
0.0
 10
-16.5
 20
1.5000000000000016
 40
-5.0
 41
0.0
 10
-16.5
 20
-1.4999999999999984
 40
-5.0
 41
0.0
  0
LINE
  5
84
330
17
100
AcDbEntity
  8
SUPPORTS
 62
5
100
AcDbLine
 10
-2.7554552980815444e-15
 20
-12.5
 30
-5.0
 11
-2.7554552980815444e-15
 21
-12.5
 31
0.0
  0
LWPOLYLINE
  5
85
330
17
100
AcDbEntity
  8
SUPPORTS
 62
5
100
AcDbPolyline
 90
5
 70
0
 10
-1.5000000000000027
 20
-14.0
 40
-5.0
 41
0.0
 10
1.4999999999999973
 20
-14.0
 40
-5.0
 41
0.0
 10
1.4999999999999973
 20
-11.0
 40
-5.0
 41
0.0
 10
-1.5000000000000027
 20
-11.0
 40
-5.0
 41
0.0
 10
-1.5000000000000027
 20
-14.0
 40
-5.0
 41
0.0
  0
ENDSEC
  0
SECTION
  2
OBJECTS
  0
DICTIONARY
  5
A
330
0
100
AcDbDictionary
281
1
  3
ACAD_COLOR
350
B
  3
ACAD_GROUP
350
C
  3
ACAD_LAYOUT
350
D
  3
ACAD_MATERIAL
350
E
  3
ACAD_MLEADERSTYLE
350
F
  3
ACAD_MLINESTYLE
350
10
  3
ACAD_PLOTSETTINGS
350
11
  3
ACAD_PLOTSTYLENAME
350
12
  3
ACAD_SCALELIST
350
14
  3
ACAD_TABLESTYLE
350
15
  3
ACAD_VISUALSTYLE
350
16
  3
EZDXF_META
350
2D
  0
DICTIONARY
  5
B
330
A
100
AcDbDictionary
281
1
  0
DICTIONARY
  5
C
330
A
100
AcDbDictionary
281
1
  0
DICTIONARY
  5
D
330
A
100
AcDbDictionary
281
1
  3
Model
350
1A
  3
Layout1
350
1E
  0
DICTIONARY
  5
E
330
A
100
AcDbDictionary
281
1
  3
ByBlock
350
1F
  3
ByLayer
350
20
  3
Global
350
21
  0
DICTIONARY
  5
F
330
A
100
AcDbDictionary
281
1
  3
Standard
350
2C
  0
DICTIONARY
  5
10
330
A
100
AcDbDictionary
281
1
  3
Standard
350
22
  0
DICTIONARY
  5
11
330
A
100
AcDbDictionary
281
1
  0
ACDBDICTIONARYWDFLT
  5
12
330
A
100
AcDbDictionary
281
1
  3
Normal
350
13
100
AcDbDictionaryWithDefault
340
13
  0
ACDBPLACEHOLDER
  5
13
330
12
  0
DICTIONARY
  5
14
330
A
100
AcDbDictionary
281
1
  0
DICTIONARY
  5
15
330
A
100
AcDbDictionary
281
1
  0
DICTIONARY
  5
16
330
A
100
AcDbDictionary
281
1
  0
LAYOUT
  5
1A
330
D
100
AcDbPlotSettings
  1

  4
A3
  6

 40
7.5
 41
20.0
 42
7.5
 43
20.0
 44
420.0
 45
297.0
 46
0.0
 47
0.0
 48
0.0
 49
0.0
140
0.0
141
0.0
142
1.0
143
1.0
 70
1024
 72
1
 73
0
 74
5
  7

 75
16
 76
0
 77
2
 78
300
147
1.0
148
0.0
149
0.0
100
AcDbLayout
  1
Model
 70
1
 71
0
 10
0.0
 20
0.0
 11
420.0
 21
297.0
 12
0.0
 22
0.0
 32
0.0
 14
1e+20
 24
1e+20
 34
1e+20
 15
-1e+20
 25
-1e+20
 35
-1e+20
146
0.0
 13
0.0
 23
0.0
 33
0.0
 16
1.0
 26
0.0
 36
0.0
 17
0.0
 27
1.0
 37
0.0
 76
1
330
17
  0
LAYOUT
  5
1E
330
D
100
AcDbPlotSettings
  1

  4
A3
  6

 40
7.5
 41
20.0
 42
7.5
 43
20.0
 44
420.0
 45
297.0
 46
0.0
 47
0.0
 48
0.0
 49
0.0
140
0.0
141
0.0
142
1.0
143
1.0
 70
0
 72
1
 73
0
 74
5
  7

 75
16
 76
0
 77
2
 78
300
147
1.0
148
0.0
149
0.0
100
AcDbLayout
  1
Layout1
 70
1
 71
1
 10
0.0
 20
0.0
 11
420.0
 21
297.0
 12
0.0
 22
0.0
 32
0.0
 14
1e+20
 24
1e+20
 34
1e+20
 15
-1e+20
 25
-1e+20
 35
-1e+20
146
0.0
 13
0.0
 23
0.0
 33
0.0
 16
1.0
 26
0.0
 36
0.0
 17
0.0
 27
1.0
 37
0.0
 76
1
330
1B
  0
MATERIAL
  5
1F
102
{ACAD_REACTORS
330
E
102
}
330
E
100
AcDbMaterial
  1
ByBlock
  2

 70
0
 40
1.0
 71
1
 41
1.0
 91
-1023410177
 42
1.0
 72
1
  3

 73
1
 74
1
 75
1
 44
0.5
 73
0
 45
1.0
 46
1.0
 77
1
  4

 78
1
 79
1
170
1
 48
1.0
171
1
  6

172
1
173
1
174
1
140
1.0
141
1.0
175
1
  7

176
1
177
1
178
1
143
1.0
179
1
  8

270
1
271
1
272
1
145
1.0
146
1.0
273
1
  9

274
1
275
1
276
1
 42
1.0
 72
1
  3

 73
1
 74
1
 75
1
 94
63
  0
MATERIAL
  5
20
102
{ACAD_REACTORS
330
E
102
}
330
E
100
AcDbMaterial
  1
ByLayer
  2

 70
0
 40
1.0
 71
1
 41
1.0
 91
-1023410177
 42
1.0
 72
1
  3

 73
1
 74
1
 75
1
 44
0.5
 73
0
 45
1.0
 46
1.0
 77
1
  4

 78
1
 79
1
170
1
 48
1.0
171
1
  6

172
1
173
1
174
1
140
1.0
141
1.0
175
1
  7

176
1
177
1
178
1
143
1.0
179
1
  8

270
1
271
1
272
1
145
1.0
146
1.0
273
1
  9

274
1
275
1
276
1
 42
1.0
 72
1
  3

 73
1
 74
1
 75
1
 94
63
  0
MATERIAL
  5
21
102
{ACAD_REACTORS
330
E
102
}
330
E
100
AcDbMaterial
  1
Global
  2

 70
0
 40
1.0
 71
1
 41
1.0
 91
-1023410177
 42
1.0
 72
1
  3

 73
1
 74
1
 75
1
 44
0.5
 73
0
 45
1.0
 46
1.0
 77
1
  4

 78
1
 79
1
170
1
 48
1.0
171
1
  6

172
1
173
1
174
1
140
1.0
141
1.0
175
1
  7

176
1
177
1
178
1
143
1.0
179
1
  8

270
1
271
1
272
1
145
1.0
146
1.0
273
1
  9

274
1
275
1
276
1
 42
1.0
 72
1
  3

 73
1
 74
1
 75
1
 94
63
  0
MLINESTYLE
  5
22
102
{ACAD_REACTORS
330
10
102
}
330
10
100
AcDbMlineStyle
  2
Standard
 70
0
  3

 62
256
 51
90.0
 52
90.0
 71
2
 49
0.5
 62
256
  6
BYLAYER
 49
-0.5
 62
256
  6
BYLAYER
  0
MLEADERSTYLE
  5
2C
102
{ACAD_REACTORS
330
F
102
}
330
F
100
AcDbMLeaderStyle
179
2
170
2
171
1
172
0
 90
2
 40
0.0
 41
0.0
173
1
 91
-1056964608
 92
-2
290
1
 42
2.0
291
1
 43
8.0
  3
Standard
 44
4.0
300

342
29
174
1
175
1
176
0
178
1
 93
-1056964608
 45
4.0
292
0
297
0
 46
4.0
 94
-1056964608
 47
1.0
 49
1.0
140
1.0
294
1
141
0.0
177
0
142
1.0
295
0
296
0
143
3.75
271
0
272
9
273
9
  0
DICTIONARY
  5
2D
330
A
100
AcDbDictionary
280
1
281
1
  3
CREATED_BY_EZDXF
350
2E
  3
WRITTEN_BY_EZDXF
350
88
  0
DICTIONARYVAR
  5
2E
330
2D
100
DictionaryVariables
280
0
  1
1.4.3 @ 2025-12-16T17:24:48.320000+00:00
  0
DICTIONARYVAR
  5
88
330
2D
100
DictionaryVariables
280
0
  1
1.4.3 @ 2025-12-16T17:24:48.323339+00:00
  0
ENDSEC
  0
EOF
