999
Complex Steel Building - Multi-Story Frame
  0
SECTION
  2
HEADER
  9
$ACADVER
  1
AC1021
  9
$UNITS
 70
1
  0
ENDSEC
  0
SECTION
  2
TABLES
  0
TABLE
  2
LAYER
 70
7
  0
LAYER
  2
COLUMNS
 70
0
 62
1
  6
CONTINUOUS
  0
LAYER
  2
BEAMS_X
 70
0
 62
2
  6
CONTINUOUS
  0
LAYER
  2
BEAMS_Y
 70
0
 62
3
  6
CONTINUOUS
  0
LAYER
  2
BRACES
 70
0
 62
5
  6
CONTINUOUS
  0
LAYER
  2
CONNECTIONS
 70
0
 62
4
  6
CONTINUOUS
  0
ENDTAB
  0
ENDSEC
  0
SECTION
  2
BLOCKS
  0
ENDSEC
  0
SECTION
  2
ENTITIES
  0
LINE
  8
COLUMNS
 10
0.00
 20
0.00
 30
0.00
 11
0.00
 21
0.00
 31
4.00
  0
TEXT
  8
COLUMNS
 10
0.00
 20
0.00
 30
0.00
 40
0.3
  1
COL_001
  0
LINE
  8
COLUMNS
 10
5.00
 20
0.00
 30
0.00
 11
5.00
 21
0.00
 31
4.00
  0
TEXT
  8
COLUMNS
 10
5.00
 20
0.00
 30
0.00
 40
0.3
  1
COL_002
  0
LINE
  8
COLUMNS
 10
10.00
 20
0.00
 30
0.00
 11
10.00
 21
0.00
 31
4.00
  0
TEXT
  8
COLUMNS
 10
10.00
 20
0.00
 30
0.00
 40
0.3
  1
COL_003
  0
LINE
  8
COLUMNS
 10
15.00
 20
0.00
 30
0.00
 11
15.00
 21
0.00
 31
4.00
  0
TEXT
  8
COLUMNS
 10
15.00
 20
0.00
 30
0.00
 40
0.3
  1
COL_004
  0
LINE
  8
COLUMNS
 10
20.00
 20
0.00
 30
0.00
 11
20.00
 21
0.00
 31
4.00
  0
TEXT
  8
COLUMNS
 10
20.00
 20
0.00
 30
0.00
 40
0.3
  1
COL_005
  0
LINE
  8
COLUMNS
 10
0.00
 20
5.00
 30
0.00
 11
0.00
 21
5.00
 31
4.00
  0
TEXT
  8
COLUMNS
 10
0.00
 20
5.00
 30
0.00
 40
0.3
  1
COL_006
  0
LINE
  8
COLUMNS
 10
5.00
 20
5.00
 30
0.00
 11
5.00
 21
5.00
 31
4.00
  0
TEXT
  8
COLUMNS
 10
5.00
 20
5.00
 30
0.00
 40
0.3
  1
COL_007
  0
LINE
  8
COLUMNS
 10
10.00
 20
5.00
 30
0.00
 11
10.00
 21
5.00
 31
4.00
  0
TEXT
  8
COLUMNS
 10
10.00
 20
5.00
 30
0.00
 40
0.3
  1
COL_008
  0
LINE
  8
COLUMNS
 10
15.00
 20
5.00
 30
0.00
 11
15.00
 21
5.00
 31
4.00
  0
TEXT
  8
COLUMNS
 10
15.00
 20
5.00
 30
0.00
 40
0.3
  1
COL_009
  0
LINE
  8
COLUMNS
 10
20.00
 20
5.00
 30
0.00
 11
20.00
 21
5.00
 31
4.00
  0
TEXT
  8
COLUMNS
 10
20.00
 20
5.00
 30
0.00
 40
0.3
  1
COL_010
  0
LINE
  8
COLUMNS
 10
0.00
 20
10.00
 30
0.00
 11
0.00
 21
10.00
 31
4.00
  0
TEXT
  8
COLUMNS
 10
0.00
 20
10.00
 30
0.00
 40
0.3
  1
COL_011
  0
LINE
  8
COLUMNS
 10
5.00
 20
10.00
 30
0.00
 11
5.00
 21
10.00
 31
4.00
  0
TEXT
  8
COLUMNS
 10
5.00
 20
10.00
 30
0.00
 40
0.3
  1
COL_012
  0
LINE
  8
COLUMNS
 10
10.00
 20
10.00
 30
0.00
 11
10.00
 21
10.00
 31
4.00
  0
TEXT
  8
COLUMNS
 10
10.00
 20
10.00
 30
0.00
 40
0.3
  1
COL_013
  0
LINE
  8
COLUMNS
 10
15.00
 20
10.00
 30
0.00
 11
15.00
 21
10.00
 31
4.00
  0
TEXT
  8
COLUMNS
 10
15.00
 20
10.00
 30
0.00
 40
0.3
  1
COL_014
  0
LINE
  8
COLUMNS
 10
20.00
 20
10.00
 30
0.00
 11
20.00
 21
10.00
 31
4.00
  0
TEXT
  8
COLUMNS
 10
20.00
 20
10.00
 30
0.00
 40
0.3
  1
COL_015
  0
LINE
  8
COLUMNS
 10
0.00
 20
15.00
 30
0.00
 11
0.00
 21
15.00
 31
4.00
  0
TEXT
  8
COLUMNS
 10
0.00
 20
15.00
 30
0.00
 40
0.3
  1
COL_016
  0
LINE
  8
COLUMNS
 10
5.00
 20
15.00
 30
0.00
 11
5.00
 21
15.00
 31
4.00
  0
TEXT
  8
COLUMNS
 10
5.00
 20
15.00
 30
0.00
 40
0.3
  1
COL_017
  0
LINE
  8
COLUMNS
 10
10.00
 20
15.00
 30
0.00
 11
10.00
 21
15.00
 31
4.00
  0
TEXT
  8
COLUMNS
 10
10.00
 20
15.00
 30
0.00
 40
0.3
  1
COL_018
  0
LINE
  8
COLUMNS
 10
15.00
 20
15.00
 30
0.00
 11
15.00
 21
15.00
 31
4.00
  0
TEXT
  8
COLUMNS
 10
15.00
 20
15.00
 30
0.00
 40
0.3
  1
COL_019
  0
LINE
  8
COLUMNS
 10
20.00
 20
15.00
 30
0.00
 11
20.00
 21
15.00
 31
4.00
  0
TEXT
  8
COLUMNS
 10
20.00
 20
15.00
 30
0.00
 40
0.3
  1
COL_020
  0
LINE
  8
COLUMNS
 10
0.00
 20
20.00
 30
0.00
 11
0.00
 21
20.00
 31
4.00
  0
TEXT
  8
COLUMNS
 10
0.00
 20
20.00
 30
0.00
 40
0.3
  1
COL_021
  0
LINE
  8
COLUMNS
 10
5.00
 20
20.00
 30
0.00
 11
5.00
 21
20.00
 31
4.00
  0
TEXT
  8
COLUMNS
 10
5.00
 20
20.00
 30
0.00
 40
0.3
  1
COL_022
  0
LINE
  8
COLUMNS
 10
10.00
 20
20.00
 30
0.00
 11
10.00
 21
20.00
 31
4.00
  0
TEXT
  8
COLUMNS
 10
10.00
 20
20.00
 30
0.00
 40
0.3
  1
COL_023
  0
LINE
  8
COLUMNS
 10
15.00
 20
20.00
 30
0.00
 11
15.00
 21
20.00
 31
4.00
  0
TEXT
  8
COLUMNS
 10
15.00
 20
20.00
 30
0.00
 40
0.3
  1
COL_024
  0
LINE
  8
COLUMNS
 10
20.00
 20
20.00
 30
0.00
 11
20.00
 21
20.00
 31
4.00
  0
TEXT
  8
COLUMNS
 10
20.00
 20
20.00
 30
0.00
 40
0.3
  1
COL_025
  0
LINE
  8
COLUMNS
 10
0.00
 20
0.00
 30
4.00
 11
0.00
 21
0.00
 31
8.00
  0
TEXT
  8
COLUMNS
 10
0.00
 20
0.00
 30
4.00
 40
0.3
  1
COL_026
  0
LINE
  8
COLUMNS
 10
5.00
 20
0.00
 30
4.00
 11
5.00
 21
0.00
 31
8.00
  0
TEXT
  8
COLUMNS
 10
5.00
 20
0.00
 30
4.00
 40
0.3
  1
COL_027
  0
LINE
  8
COLUMNS
 10
10.00
 20
0.00
 30
4.00
 11
10.00
 21
0.00
 31
8.00
  0
TEXT
  8
COLUMNS
 10
10.00
 20
0.00
 30
4.00
 40
0.3
  1
COL_028
  0
LINE
  8
COLUMNS
 10
15.00
 20
0.00
 30
4.00
 11
15.00
 21
0.00
 31
8.00
  0
TEXT
  8
COLUMNS
 10
15.00
 20
0.00
 30
4.00
 40
0.3
  1
COL_029
  0
LINE
  8
COLUMNS
 10
20.00
 20
0.00
 30
4.00
 11
20.00
 21
0.00
 31
8.00
  0
TEXT
  8
COLUMNS
 10
20.00
 20
0.00
 30
4.00
 40
0.3
  1
COL_030
  0
LINE
  8
COLUMNS
 10
0.00
 20
5.00
 30
4.00
 11
0.00
 21
5.00
 31
8.00
  0
TEXT
  8
COLUMNS
 10
0.00
 20
5.00
 30
4.00
 40
0.3
  1
COL_031
  0
LINE
  8
COLUMNS
 10
5.00
 20
5.00
 30
4.00
 11
5.00
 21
5.00
 31
8.00
  0
TEXT
  8
COLUMNS
 10
5.00
 20
5.00
 30
4.00
 40
0.3
  1
COL_032
  0
LINE
  8
COLUMNS
 10
10.00
 20
5.00
 30
4.00
 11
10.00
 21
5.00
 31
8.00
  0
TEXT
  8
COLUMNS
 10
10.00
 20
5.00
 30
4.00
 40
0.3
  1
COL_033
  0
LINE
  8
COLUMNS
 10
15.00
 20
5.00
 30
4.00
 11
15.00
 21
5.00
 31
8.00
  0
TEXT
  8
COLUMNS
 10
15.00
 20
5.00
 30
4.00
 40
0.3
  1
COL_034
  0
LINE
  8
COLUMNS
 10
20.00
 20
5.00
 30
4.00
 11
20.00
 21
5.00
 31
8.00
  0
TEXT
  8
COLUMNS
 10
20.00
 20
5.00
 30
4.00
 40
0.3
  1
COL_035
  0
LINE
  8
COLUMNS
 10
0.00
 20
10.00
 30
4.00
 11
0.00
 21
10.00
 31
8.00
  0
TEXT
  8
COLUMNS
 10
0.00
 20
10.00
 30
4.00
 40
0.3
  1
COL_036
  0
LINE
  8
COLUMNS
 10
5.00
 20
10.00
 30
4.00
 11
5.00
 21
10.00
 31
8.00
  0
TEXT
  8
COLUMNS
 10
5.00
 20
10.00
 30
4.00
 40
0.3
  1
COL_037
  0
LINE
  8
COLUMNS
 10
10.00
 20
10.00
 30
4.00
 11
10.00
 21
10.00
 31
8.00
  0
TEXT
  8
COLUMNS
 10
10.00
 20
10.00
 30
4.00
 40
0.3
  1
COL_038
  0
LINE
  8
COLUMNS
 10
15.00
 20
10.00
 30
4.00
 11
15.00
 21
10.00
 31
8.00
  0
TEXT
  8
COLUMNS
 10
15.00
 20
10.00
 30
4.00
 40
0.3
  1
COL_039
  0
LINE
  8
COLUMNS
 10
20.00
 20
10.00
 30
4.00
 11
20.00
 21
10.00
 31
8.00
  0
TEXT
  8
COLUMNS
 10
20.00
 20
10.00
 30
4.00
 40
0.3
  1
COL_040
  0
LINE
  8
COLUMNS
 10
0.00
 20
15.00
 30
4.00
 11
0.00
 21
15.00
 31
8.00
  0
TEXT
  8
COLUMNS
 10
0.00
 20
15.00
 30
4.00
 40
0.3
  1
COL_041
  0
LINE
  8
COLUMNS
 10
5.00
 20
15.00
 30
4.00
 11
5.00
 21
15.00
 31
8.00
  0
TEXT
  8
COLUMNS
 10
5.00
 20
15.00
 30
4.00
 40
0.3
  1
COL_042
  0
LINE
  8
COLUMNS
 10
10.00
 20
15.00
 30
4.00
 11
10.00
 21
15.00
 31
8.00
  0
TEXT
  8
COLUMNS
 10
10.00
 20
15.00
 30
4.00
 40
0.3
  1
COL_043
  0
LINE
  8
COLUMNS
 10
15.00
 20
15.00
 30
4.00
 11
15.00
 21
15.00
 31
8.00
  0
TEXT
  8
COLUMNS
 10
15.00
 20
15.00
 30
4.00
 40
0.3
  1
COL_044
  0
LINE
  8
COLUMNS
 10
20.00
 20
15.00
 30
4.00
 11
20.00
 21
15.00
 31
8.00
  0
TEXT
  8
COLUMNS
 10
20.00
 20
15.00
 30
4.00
 40
0.3
  1
COL_045
  0
LINE
  8
COLUMNS
 10
0.00
 20
20.00
 30
4.00
 11
0.00
 21
20.00
 31
8.00
  0
TEXT
  8
COLUMNS
 10
0.00
 20
20.00
 30
4.00
 40
0.3
  1
COL_046
  0
LINE
  8
COLUMNS
 10
5.00
 20
20.00
 30
4.00
 11
5.00
 21
20.00
 31
8.00
  0
TEXT
  8
COLUMNS
 10
5.00
 20
20.00
 30
4.00
 40
0.3
  1
COL_047
  0
LINE
  8
COLUMNS
 10
10.00
 20
20.00
 30
4.00
 11
10.00
 21
20.00
 31
8.00
  0
TEXT
  8
COLUMNS
 10
10.00
 20
20.00
 30
4.00
 40
0.3
  1
COL_048
  0
LINE
  8
COLUMNS
 10
15.00
 20
20.00
 30
4.00
 11
15.00
 21
20.00
 31
8.00
  0
TEXT
  8
COLUMNS
 10
15.00
 20
20.00
 30
4.00
 40
0.3
  1
COL_049
  0
LINE
  8
COLUMNS
 10
20.00
 20
20.00
 30
4.00
 11
20.00
 21
20.00
 31
8.00
  0
TEXT
  8
COLUMNS
 10
20.00
 20
20.00
 30
4.00
 40
0.3
  1
COL_050
  0
LINE
  8
COLUMNS
 10
0.00
 20
0.00
 30
8.00
 11
0.00
 21
0.00
 31
12.00
  0
TEXT
  8
COLUMNS
 10
0.00
 20
0.00
 30
8.00
 40
0.3
  1
COL_051
  0
LINE
  8
COLUMNS
 10
5.00
 20
0.00
 30
8.00
 11
5.00
 21
0.00
 31
12.00
  0
TEXT
  8
COLUMNS
 10
5.00
 20
0.00
 30
8.00
 40
0.3
  1
COL_052
  0
LINE
  8
COLUMNS
 10
10.00
 20
0.00
 30
8.00
 11
10.00
 21
0.00
 31
12.00
  0
TEXT
  8
COLUMNS
 10
10.00
 20
0.00
 30
8.00
 40
0.3
  1
COL_053
  0
LINE
  8
COLUMNS
 10
15.00
 20
0.00
 30
8.00
 11
15.00
 21
0.00
 31
12.00
  0
TEXT
  8
COLUMNS
 10
15.00
 20
0.00
 30
8.00
 40
0.3
  1
COL_054
  0
LINE
  8
COLUMNS
 10
20.00
 20
0.00
 30
8.00
 11
20.00
 21
0.00
 31
12.00
  0
TEXT
  8
COLUMNS
 10
20.00
 20
0.00
 30
8.00
 40
0.3
  1
COL_055
  0
LINE
  8
COLUMNS
 10
0.00
 20
5.00
 30
8.00
 11
0.00
 21
5.00
 31
12.00
  0
TEXT
  8
COLUMNS
 10
0.00
 20
5.00
 30
8.00
 40
0.3
  1
COL_056
  0
LINE
  8
COLUMNS
 10
5.00
 20
5.00
 30
8.00
 11
5.00
 21
5.00
 31
12.00
  0
TEXT
  8
COLUMNS
 10
5.00
 20
5.00
 30
8.00
 40
0.3
  1
COL_057
  0
LINE
  8
COLUMNS
 10
10.00
 20
5.00
 30
8.00
 11
10.00
 21
5.00
 31
12.00
  0
TEXT
  8
COLUMNS
 10
10.00
 20
5.00
 30
8.00
 40
0.3
  1
COL_058
  0
LINE
  8
COLUMNS
 10
15.00
 20
5.00
 30
8.00
 11
15.00
 21
5.00
 31
12.00
  0
TEXT
  8
COLUMNS
 10
15.00
 20
5.00
 30
8.00
 40
0.3
  1
COL_059
  0
LINE
  8
COLUMNS
 10
20.00
 20
5.00
 30
8.00
 11
20.00
 21
5.00
 31
12.00
  0
TEXT
  8
COLUMNS
 10
20.00
 20
5.00
 30
8.00
 40
0.3
  1
COL_060
  0
LINE
  8
COLUMNS
 10
0.00
 20
10.00
 30
8.00
 11
0.00
 21
10.00
 31
12.00
  0
TEXT
  8
COLUMNS
 10
0.00
 20
10.00
 30
8.00
 40
0.3
  1
COL_061
  0
LINE
  8
COLUMNS
 10
5.00
 20
10.00
 30
8.00
 11
5.00
 21
10.00
 31
12.00
  0
TEXT
  8
COLUMNS
 10
5.00
 20
10.00
 30
8.00
 40
0.3
  1
COL_062
  0
LINE
  8
COLUMNS
 10
10.00
 20
10.00
 30
8.00
 11
10.00
 21
10.00
 31
12.00
  0
TEXT
  8
COLUMNS
 10
10.00
 20
10.00
 30
8.00
 40
0.3
  1
COL_063
  0
LINE
  8
COLUMNS
 10
15.00
 20
10.00
 30
8.00
 11
15.00
 21
10.00
 31
12.00
  0
TEXT
  8
COLUMNS
 10
15.00
 20
10.00
 30
8.00
 40
0.3
  1
COL_064
  0
LINE
  8
COLUMNS
 10
20.00
 20
10.00
 30
8.00
 11
20.00
 21
10.00
 31
12.00
  0
TEXT
  8
COLUMNS
 10
20.00
 20
10.00
 30
8.00
 40
0.3
  1
COL_065
  0
LINE
  8
COLUMNS
 10
0.00
 20
15.00
 30
8.00
 11
0.00
 21
15.00
 31
12.00
  0
TEXT
  8
COLUMNS
 10
0.00
 20
15.00
 30
8.00
 40
0.3
  1
COL_066
  0
LINE
  8
COLUMNS
 10
5.00
 20
15.00
 30
8.00
 11
5.00
 21
15.00
 31
12.00
  0
TEXT
  8
COLUMNS
 10
5.00
 20
15.00
 30
8.00
 40
0.3
  1
COL_067
  0
LINE
  8
COLUMNS
 10
10.00
 20
15.00
 30
8.00
 11
10.00
 21
15.00
 31
12.00
  0
TEXT
  8
COLUMNS
 10
10.00
 20
15.00
 30
8.00
 40
0.3
  1
COL_068
  0
LINE
  8
COLUMNS
 10
15.00
 20
15.00
 30
8.00
 11
15.00
 21
15.00
 31
12.00
  0
TEXT
  8
COLUMNS
 10
15.00
 20
15.00
 30
8.00
 40
0.3
  1
COL_069
  0
LINE
  8
COLUMNS
 10
20.00
 20
15.00
 30
8.00
 11
20.00
 21
15.00
 31
12.00
  0
TEXT
  8
COLUMNS
 10
20.00
 20
15.00
 30
8.00
 40
0.3
  1
COL_070
  0
LINE
  8
COLUMNS
 10
0.00
 20
20.00
 30
8.00
 11
0.00
 21
20.00
 31
12.00
  0
TEXT
  8
COLUMNS
 10
0.00
 20
20.00
 30
8.00
 40
0.3
  1
COL_071
  0
LINE
  8
COLUMNS
 10
5.00
 20
20.00
 30
8.00
 11
5.00
 21
20.00
 31
12.00
  0
TEXT
  8
COLUMNS
 10
5.00
 20
20.00
 30
8.00
 40
0.3
  1
COL_072
  0
LINE
  8
COLUMNS
 10
10.00
 20
20.00
 30
8.00
 11
10.00
 21
20.00
 31
12.00
  0
TEXT
  8
COLUMNS
 10
10.00
 20
20.00
 30
8.00
 40
0.3
  1
COL_073
  0
LINE
  8
COLUMNS
 10
15.00
 20
20.00
 30
8.00
 11
15.00
 21
20.00
 31
12.00
  0
TEXT
  8
COLUMNS
 10
15.00
 20
20.00
 30
8.00
 40
0.3
  1
COL_074
  0
LINE
  8
COLUMNS
 10
20.00
 20
20.00
 30
8.00
 11
20.00
 21
20.00
 31
12.00
  0
TEXT
  8
COLUMNS
 10
20.00
 20
20.00
 30
8.00
 40
0.3
  1
COL_075
  0
LINE
  8
BEAMS_X
 10
0.00
 20
0.00
 30
4.00
 11
5.00
 21
0.00
 31
4.00
  0
LINE
  8
BEAMS_X
 10
5.00
 20
0.00
 30
4.00
 11
10.00
 21
0.00
 31
4.00
  0
LINE
  8
BEAMS_X
 10
10.00
 20
0.00
 30
4.00
 11
15.00
 21
0.00
 31
4.00
  0
LINE
  8
BEAMS_X
 10
15.00
 20
0.00
 30
4.00
 11
20.00
 21
0.00
 31
4.00
  0
LINE
  8
BEAMS_X
 10
0.00
 20
5.00
 30
4.00
 11
5.00
 21
5.00
 31
4.00
  0
LINE
  8
BEAMS_X
 10
5.00
 20
5.00
 30
4.00
 11
10.00
 21
5.00
 31
4.00
  0
LINE
  8
BEAMS_X
 10
10.00
 20
5.00
 30
4.00
 11
15.00
 21
5.00
 31
4.00
  0
LINE
  8
BEAMS_X
 10
15.00
 20
5.00
 30
4.00
 11
20.00
 21
5.00
 31
4.00
  0
LINE
  8
BEAMS_X
 10
0.00
 20
10.00
 30
4.00
 11
5.00
 21
10.00
 31
4.00
  0
LINE
  8
BEAMS_X
 10
5.00
 20
10.00
 30
4.00
 11
10.00
 21
10.00
 31
4.00
  0
LINE
  8
BEAMS_X
 10
10.00
 20
10.00
 30
4.00
 11
15.00
 21
10.00
 31
4.00
  0
LINE
  8
BEAMS_X
 10
15.00
 20
10.00
 30
4.00
 11
20.00
 21
10.00
 31
4.00
  0
LINE
  8
BEAMS_X
 10
0.00
 20
15.00
 30
4.00
 11
5.00
 21
15.00
 31
4.00
  0
LINE
  8
BEAMS_X
 10
5.00
 20
15.00
 30
4.00
 11
10.00
 21
15.00
 31
4.00
  0
LINE
  8
BEAMS_X
 10
10.00
 20
15.00
 30
4.00
 11
15.00
 21
15.00
 31
4.00
  0
LINE
  8
BEAMS_X
 10
15.00
 20
15.00
 30
4.00
 11
20.00
 21
15.00
 31
4.00
  0
LINE
  8
BEAMS_X
 10
0.00
 20
20.00
 30
4.00
 11
5.00
 21
20.00
 31
4.00
  0
LINE
  8
BEAMS_X
 10
5.00
 20
20.00
 30
4.00
 11
10.00
 21
20.00
 31
4.00
  0
LINE
  8
BEAMS_X
 10
10.00
 20
20.00
 30
4.00
 11
15.00
 21
20.00
 31
4.00
  0
LINE
  8
BEAMS_X
 10
15.00
 20
20.00
 30
4.00
 11
20.00
 21
20.00
 31
4.00
  0
LINE
  8
BEAMS_X
 10
0.00
 20
0.00
 30
8.00
 11
5.00
 21
0.00
 31
8.00
  0
LINE
  8
BEAMS_X
 10
5.00
 20
0.00
 30
8.00
 11
10.00
 21
0.00
 31
8.00
  0
LINE
  8
BEAMS_X
 10
10.00
 20
0.00
 30
8.00
 11
15.00
 21
0.00
 31
8.00
  0
LINE
  8
BEAMS_X
 10
15.00
 20
0.00
 30
8.00
 11
20.00
 21
0.00
 31
8.00
  0
LINE
  8
BEAMS_X
 10
0.00
 20
5.00
 30
8.00
 11
5.00
 21
5.00
 31
8.00
  0
LINE
  8
BEAMS_X
 10
5.00
 20
5.00
 30
8.00
 11
10.00
 21
5.00
 31
8.00
  0
LINE
  8
BEAMS_X
 10
10.00
 20
5.00
 30
8.00
 11
15.00
 21
5.00
 31
8.00
  0
LINE
  8
BEAMS_X
 10
15.00
 20
5.00
 30
8.00
 11
20.00
 21
5.00
 31
8.00
  0
LINE
  8
BEAMS_X
 10
0.00
 20
10.00
 30
8.00
 11
5.00
 21
10.00
 31
8.00
  0
LINE
  8
BEAMS_X
 10
5.00
 20
10.00
 30
8.00
 11
10.00
 21
10.00
 31
8.00
  0
LINE
  8
BEAMS_X
 10
10.00
 20
10.00
 30
8.00
 11
15.00
 21
10.00
 31
8.00
  0
LINE
  8
BEAMS_X
 10
15.00
 20
10.00
 30
8.00
 11
20.00
 21
10.00
 31
8.00
  0
LINE
  8
BEAMS_X
 10
0.00
 20
15.00
 30
8.00
 11
5.00
 21
15.00
 31
8.00
  0
LINE
  8
BEAMS_X
 10
5.00
 20
15.00
 30
8.00
 11
10.00
 21
15.00
 31
8.00
  0
LINE
  8
BEAMS_X
 10
10.00
 20
15.00
 30
8.00
 11
15.00
 21
15.00
 31
8.00
  0
LINE
  8
BEAMS_X
 10
15.00
 20
15.00
 30
8.00
 11
20.00
 21
15.00
 31
8.00
  0
LINE
  8
BEAMS_X
 10
0.00
 20
20.00
 30
8.00
 11
5.00
 21
20.00
 31
8.00
  0
LINE
  8
BEAMS_X
 10
5.00
 20
20.00
 30
8.00
 11
10.00
 21
20.00
 31
8.00
  0
LINE
  8
BEAMS_X
 10
10.00
 20
20.00
 30
8.00
 11
15.00
 21
20.00
 31
8.00
  0
LINE
  8
BEAMS_X
 10
15.00
 20
20.00
 30
8.00
 11
20.00
 21
20.00
 31
8.00
  0
LINE
  8
BEAMS_X
 10
0.00
 20
0.00
 30
12.00
 11
5.00
 21
0.00
 31
12.00
  0
LINE
  8
BEAMS_X
 10
5.00
 20
0.00
 30
12.00
 11
10.00
 21
0.00
 31
12.00
  0
LINE
  8
BEAMS_X
 10
10.00
 20
0.00
 30
12.00
 11
15.00
 21
0.00
 31
12.00
  0
LINE
  8
BEAMS_X
 10
15.00
 20
0.00
 30
12.00
 11
20.00
 21
0.00
 31
12.00
  0
LINE
  8
BEAMS_X
 10
0.00
 20
5.00
 30
12.00
 11
5.00
 21
5.00
 31
12.00
  0
LINE
  8
BEAMS_X
 10
5.00
 20
5.00
 30
12.00
 11
10.00
 21
5.00
 31
12.00
  0
LINE
  8
BEAMS_X
 10
10.00
 20
5.00
 30
12.00
 11
15.00
 21
5.00
 31
12.00
  0
LINE
  8
BEAMS_X
 10
15.00
 20
5.00
 30
12.00
 11
20.00
 21
5.00
 31
12.00
  0
LINE
  8
BEAMS_X
 10
0.00
 20
10.00
 30
12.00
 11
5.00
 21
10.00
 31
12.00
  0
LINE
  8
BEAMS_X
 10
5.00
 20
10.00
 30
12.00
 11
10.00
 21
10.00
 31
12.00
  0
LINE
  8
BEAMS_X
 10
10.00
 20
10.00
 30
12.00
 11
15.00
 21
10.00
 31
12.00
  0
LINE
  8
BEAMS_X
 10
15.00
 20
10.00
 30
12.00
 11
20.00
 21
10.00
 31
12.00
  0
LINE
  8
BEAMS_X
 10
0.00
 20
15.00
 30
12.00
 11
5.00
 21
15.00
 31
12.00
  0
LINE
  8
BEAMS_X
 10
5.00
 20
15.00
 30
12.00
 11
10.00
 21
15.00
 31
12.00
  0
LINE
  8
BEAMS_X
 10
10.00
 20
15.00
 30
12.00
 11
15.00
 21
15.00
 31
12.00
  0
LINE
  8
BEAMS_X
 10
15.00
 20
15.00
 30
12.00
 11
20.00
 21
15.00
 31
12.00
  0
LINE
  8
BEAMS_X
 10
0.00
 20
20.00
 30
12.00
 11
5.00
 21
20.00
 31
12.00
  0
LINE
  8
BEAMS_X
 10
5.00
 20
20.00
 30
12.00
 11
10.00
 21
20.00
 31
12.00
  0
LINE
  8
BEAMS_X
 10
10.00
 20
20.00
 30
12.00
 11
15.00
 21
20.00
 31
12.00
  0
LINE
  8
BEAMS_X
 10
15.00
 20
20.00
 30
12.00
 11
20.00
 21
20.00
 31
12.00
  0
LINE
  8
BEAMS_Y
 10
0.00
 20
0.00
 30
4.00
 11
0.00
 21
5.00
 31
4.00
  0
LINE
  8
BEAMS_Y
 10
0.00
 20
5.00
 30
4.00
 11
0.00
 21
10.00
 31
4.00
  0
LINE
  8
BEAMS_Y
 10
0.00
 20
10.00
 30
4.00
 11
0.00
 21
15.00
 31
4.00
  0
LINE
  8
BEAMS_Y
 10
0.00
 20
15.00
 30
4.00
 11
0.00
 21
20.00
 31
4.00
  0
LINE
  8
BEAMS_Y
 10
5.00
 20
0.00
 30
4.00
 11
5.00
 21
5.00
 31
4.00
  0
LINE
  8
BEAMS_Y
 10
5.00
 20
5.00
 30
4.00
 11
5.00
 21
10.00
 31
4.00
  0
LINE
  8
BEAMS_Y
 10
5.00
 20
10.00
 30
4.00
 11
5.00
 21
15.00
 31
4.00
  0
LINE
  8
BEAMS_Y
 10
5.00
 20
15.00
 30
4.00
 11
5.00
 21
20.00
 31
4.00
  0
LINE
  8
BEAMS_Y
 10
10.00
 20
0.00
 30
4.00
 11
10.00
 21
5.00
 31
4.00
  0
LINE
  8
BEAMS_Y
 10
10.00
 20
5.00
 30
4.00
 11
10.00
 21
10.00
 31
4.00
  0
LINE
  8
BEAMS_Y
 10
10.00
 20
10.00
 30
4.00
 11
10.00
 21
15.00
 31
4.00
  0
LINE
  8
BEAMS_Y
 10
10.00
 20
15.00
 30
4.00
 11
10.00
 21
20.00
 31
4.00
  0
LINE
  8
BEAMS_Y
 10
15.00
 20
0.00
 30
4.00
 11
15.00
 21
5.00
 31
4.00
  0
LINE
  8
BEAMS_Y
 10
15.00
 20
5.00
 30
4.00
 11
15.00
 21
10.00
 31
4.00
  0
LINE
  8
BEAMS_Y
 10
15.00
 20
10.00
 30
4.00
 11
15.00
 21
15.00
 31
4.00
  0
LINE
  8
BEAMS_Y
 10
15.00
 20
15.00
 30
4.00
 11
15.00
 21
20.00
 31
4.00
  0
LINE
  8
BEAMS_Y
 10
20.00
 20
0.00
 30
4.00
 11
20.00
 21
5.00
 31
4.00
  0
LINE
  8
BEAMS_Y
 10
20.00
 20
5.00
 30
4.00
 11
20.00
 21
10.00
 31
4.00
  0
LINE
  8
BEAMS_Y
 10
20.00
 20
10.00
 30
4.00
 11
20.00
 21
15.00
 31
4.00
  0
LINE
  8
BEAMS_Y
 10
20.00
 20
15.00
 30
4.00
 11
20.00
 21
20.00
 31
4.00
  0
LINE
  8
BEAMS_Y
 10
0.00
 20
0.00
 30
8.00
 11
0.00
 21
5.00
 31
8.00
  0
LINE
  8
BEAMS_Y
 10
0.00
 20
5.00
 30
8.00
 11
0.00
 21
10.00
 31
8.00
  0
LINE
  8
BEAMS_Y
 10
0.00
 20
10.00
 30
8.00
 11
0.00
 21
15.00
 31
8.00
  0
LINE
  8
BEAMS_Y
 10
0.00
 20
15.00
 30
8.00
 11
0.00
 21
20.00
 31
8.00
  0
LINE
  8
BEAMS_Y
 10
5.00
 20
0.00
 30
8.00
 11
5.00
 21
5.00
 31
8.00
  0
LINE
  8
BEAMS_Y
 10
5.00
 20
5.00
 30
8.00
 11
5.00
 21
10.00
 31
8.00
  0
LINE
  8
BEAMS_Y
 10
5.00
 20
10.00
 30
8.00
 11
5.00
 21
15.00
 31
8.00
  0
LINE
  8
BEAMS_Y
 10
5.00
 20
15.00
 30
8.00
 11
5.00
 21
20.00
 31
8.00
  0
LINE
  8
BEAMS_Y
 10
10.00
 20
0.00
 30
8.00
 11
10.00
 21
5.00
 31
8.00
  0
LINE
  8
BEAMS_Y
 10
10.00
 20
5.00
 30
8.00
 11
10.00
 21
10.00
 31
8.00
  0
LINE
  8
BEAMS_Y
 10
10.00
 20
10.00
 30
8.00
 11
10.00
 21
15.00
 31
8.00
  0
LINE
  8
BEAMS_Y
 10
10.00
 20
15.00
 30
8.00
 11
10.00
 21
20.00
 31
8.00
  0
LINE
  8
BEAMS_Y
 10
15.00
 20
0.00
 30
8.00
 11
15.00
 21
5.00
 31
8.00
  0
LINE
  8
BEAMS_Y
 10
15.00
 20
5.00
 30
8.00
 11
15.00
 21
10.00
 31
8.00
  0
LINE
  8
BEAMS_Y
 10
15.00
 20
10.00
 30
8.00
 11
15.00
 21
15.00
 31
8.00
  0
LINE
  8
BEAMS_Y
 10
15.00
 20
15.00
 30
8.00
 11
15.00
 21
20.00
 31
8.00
  0
LINE
  8
BEAMS_Y
 10
20.00
 20
0.00
 30
8.00
 11
20.00
 21
5.00
 31
8.00
  0
LINE
  8
BEAMS_Y
 10
20.00
 20
5.00
 30
8.00
 11
20.00
 21
10.00
 31
8.00
  0
LINE
  8
BEAMS_Y
 10
20.00
 20
10.00
 30
8.00
 11
20.00
 21
15.00
 31
8.00
  0
LINE
  8
BEAMS_Y
 10
20.00
 20
15.00
 30
8.00
 11
20.00
 21
20.00
 31
8.00
  0
LINE
  8
BEAMS_Y
 10
0.00
 20
0.00
 30
12.00
 11
0.00
 21
5.00
 31
12.00
  0
LINE
  8
BEAMS_Y
 10
0.00
 20
5.00
 30
12.00
 11
0.00
 21
10.00
 31
12.00
  0
LINE
  8
BEAMS_Y
 10
0.00
 20
10.00
 30
12.00
 11
0.00
 21
15.00
 31
12.00
  0
LINE
  8
BEAMS_Y
 10
0.00
 20
15.00
 30
12.00
 11
0.00
 21
20.00
 31
12.00
  0
LINE
  8
BEAMS_Y
 10
5.00
 20
0.00
 30
12.00
 11
5.00
 21
5.00
 31
12.00
  0
LINE
  8
BEAMS_Y
 10
5.00
 20
5.00
 30
12.00
 11
5.00
 21
10.00
 31
12.00
  0
LINE
  8
BEAMS_Y
 10
5.00
 20
10.00
 30
12.00
 11
5.00
 21
15.00
 31
12.00
  0
LINE
  8
BEAMS_Y
 10
5.00
 20
15.00
 30
12.00
 11
5.00
 21
20.00
 31
12.00
  0
LINE
  8
BEAMS_Y
 10
10.00
 20
0.00
 30
12.00
 11
10.00
 21
5.00
 31
12.00
  0
LINE
  8
BEAMS_Y
 10
10.00
 20
5.00
 30
12.00
 11
10.00
 21
10.00
 31
12.00
  0
LINE
  8
BEAMS_Y
 10
10.00
 20
10.00
 30
12.00
 11
10.00
 21
15.00
 31
12.00
  0
LINE
  8
BEAMS_Y
 10
10.00
 20
15.00
 30
12.00
 11
10.00
 21
20.00
 31
12.00
  0
LINE
  8
BEAMS_Y
 10
15.00
 20
0.00
 30
12.00
 11
15.00
 21
5.00
 31
12.00
  0
LINE
  8
BEAMS_Y
 10
15.00
 20
5.00
 30
12.00
 11
15.00
 21
10.00
 31
12.00
  0
LINE
  8
BEAMS_Y
 10
15.00
 20
10.00
 30
12.00
 11
15.00
 21
15.00
 31
12.00
  0
LINE
  8
BEAMS_Y
 10
15.00
 20
15.00
 30
12.00
 11
15.00
 21
20.00
 31
12.00
  0
LINE
  8
BEAMS_Y
 10
20.00
 20
0.00
 30
12.00
 11
20.00
 21
5.00
 31
12.00
  0
LINE
  8
BEAMS_Y
 10
20.00
 20
5.00
 30
12.00
 11
20.00
 21
10.00
 31
12.00
  0
LINE
  8
BEAMS_Y
 10
20.00
 20
10.00
 30
12.00
 11
20.00
 21
15.00
 31
12.00
  0
LINE
  8
BEAMS_Y
 10
20.00
 20
15.00
 30
12.00
 11
20.00
 21
20.00
 31
12.00
  0
LINE
  8
BRACES
 10
0.00
 20
0.00
 30
4.00
 11
2.50
 21
0.00
 31
6.30
  0
LINE
  8
BRACES
 10
5.00
 20
0.00
 30
4.00
 11
2.50
 21
0.00
 31
5.70
  0
LINE
  8
BRACES
 10
5.00
 20
0.00
 30
4.00
 11
7.50
 21
0.00
 31
6.30
  0
LINE
  8
BRACES
 10
10.00
 20
0.00
 30
4.00
 11
7.50
 21
0.00
 31
5.70
  0
LINE
  8
BRACES
 10
10.00
 20
0.00
 30
4.00
 11
12.50
 21
0.00
 31
6.30
  0
LINE
  8
BRACES
 10
15.00
 20
0.00
 30
4.00
 11
12.50
 21
0.00
 31
5.70
  0
LINE
  8
BRACES
 10
15.00
 20
0.00
 30
4.00
 11
17.50
 21
0.00
 31
6.30
  0
LINE
  8
BRACES
 10
20.00
 20
0.00
 30
4.00
 11
17.50
 21
0.00
 31
5.70
  0
LINE
  8
BRACES
 10
0.00
 20
20.00
 30
4.00
 11
2.50
 21
20.00
 31
6.30
  0
LINE
  8
BRACES
 10
5.00
 20
20.00
 30
4.00
 11
2.50
 21
20.00
 31
5.70
  0
LINE
  8
BRACES
 10
5.00
 20
20.00
 30
4.00
 11
7.50
 21
20.00
 31
6.30
  0
LINE
  8
BRACES
 10
10.00
 20
20.00
 30
4.00
 11
7.50
 21
20.00
 31
5.70
  0
LINE
  8
BRACES
 10
10.00
 20
20.00
 30
4.00
 11
12.50
 21
20.00
 31
6.30
  0
LINE
  8
BRACES
 10
15.00
 20
20.00
 30
4.00
 11
12.50
 21
20.00
 31
5.70
  0
LINE
  8
BRACES
 10
15.00
 20
20.00
 30
4.00
 11
17.50
 21
20.00
 31
6.30
  0
LINE
  8
BRACES
 10
20.00
 20
20.00
 30
4.00
 11
17.50
 21
20.00
 31
5.70
  0
LINE
  8
BRACES
 10
0.00
 20
0.00
 30
8.00
 11
2.50
 21
0.00
 31
10.30
  0
LINE
  8
BRACES
 10
5.00
 20
0.00
 30
8.00
 11
2.50
 21
0.00
 31
9.70
  0
LINE
  8
BRACES
 10
5.00
 20
0.00
 30
8.00
 11
7.50
 21
0.00
 31
10.30
  0
LINE
  8
BRACES
 10
10.00
 20
0.00
 30
8.00
 11
7.50
 21
0.00
 31
9.70
  0
LINE
  8
BRACES
 10
10.00
 20
0.00
 30
8.00
 11
12.50
 21
0.00
 31
10.30
  0
LINE
  8
BRACES
 10
15.00
 20
0.00
 30
8.00
 11
12.50
 21
0.00
 31
9.70
  0
LINE
  8
BRACES
 10
15.00
 20
0.00
 30
8.00
 11
17.50
 21
0.00
 31
10.30
  0
LINE
  8
BRACES
 10
20.00
 20
0.00
 30
8.00
 11
17.50
 21
0.00
 31
9.70
  0
LINE
  8
BRACES
 10
0.00
 20
20.00
 30
8.00
 11
2.50
 21
20.00
 31
10.30
  0
LINE
  8
BRACES
 10
5.00
 20
20.00
 30
8.00
 11
2.50
 21
20.00
 31
9.70
  0
LINE
  8
BRACES
 10
5.00
 20
20.00
 30
8.00
 11
7.50
 21
20.00
 31
10.30
  0
LINE
  8
BRACES
 10
10.00
 20
20.00
 30
8.00
 11
7.50
 21
20.00
 31
9.70
  0
LINE
  8
BRACES
 10
10.00
 20
20.00
 30
8.00
 11
12.50
 21
20.00
 31
10.30
  0
LINE
  8
BRACES
 10
15.00
 20
20.00
 30
8.00
 11
12.50
 21
20.00
 31
9.70
  0
LINE
  8
BRACES
 10
15.00
 20
20.00
 30
8.00
 11
17.50
 21
20.00
 31
10.30
  0
LINE
  8
BRACES
 10
20.00
 20
20.00
 30
8.00
 11
17.50
 21
20.00
 31
9.70
  0
LINE
  8
BRACES
 10
0.00
 20
0.00
 30
12.00
 11
2.50
 21
0.00
 31
14.30
  0
LINE
  8
BRACES
 10
5.00
 20
0.00
 30
12.00
 11
2.50
 21
0.00
 31
13.70
  0
LINE
  8
BRACES
 10
5.00
 20
0.00
 30
12.00
 11
7.50
 21
0.00
 31
14.30
  0
LINE
  8
BRACES
 10
10.00
 20
0.00
 30
12.00
 11
7.50
 21
0.00
 31
13.70
  0
LINE
  8
BRACES
 10
10.00
 20
0.00
 30
12.00
 11
12.50
 21
0.00
 31
14.30
  0
LINE
  8
BRACES
 10
15.00
 20
0.00
 30
12.00
 11
12.50
 21
0.00
 31
13.70
  0
LINE
  8
BRACES
 10
15.00
 20
0.00
 30
12.00
 11
17.50
 21
0.00
 31
14.30
  0
LINE
  8
BRACES
 10
20.00
 20
0.00
 30
12.00
 11
17.50
 21
0.00
 31
13.70
  0
LINE
  8
BRACES
 10
0.00
 20
20.00
 30
12.00
 11
2.50
 21
20.00
 31
14.30
  0
LINE
  8
BRACES
 10
5.00
 20
20.00
 30
12.00
 11
2.50
 21
20.00
 31
13.70
  0
LINE
  8
BRACES
 10
5.00
 20
20.00
 30
12.00
 11
7.50
 21
20.00
 31
14.30
  0
LINE
  8
BRACES
 10
10.00
 20
20.00
 30
12.00
 11
7.50
 21
20.00
 31
13.70
  0
LINE
  8
BRACES
 10
10.00
 20
20.00
 30
12.00
 11
12.50
 21
20.00
 31
14.30
  0
LINE
  8
BRACES
 10
15.00
 20
20.00
 30
12.00
 11
12.50
 21
20.00
 31
13.70
  0
LINE
  8
BRACES
 10
15.00
 20
20.00
 30
12.00
 11
17.50
 21
20.00
 31
14.30
  0
LINE
  8
BRACES
 10
20.00
 20
20.00
 30
12.00
 11
17.50
 21
20.00
 31
13.70
  0
CIRCLE
  8
CONNECTIONS
 10
0.00
 20
0.00
 30
4.00
 40
0.2
  0
CIRCLE
  8
CONNECTIONS
 10
0.00
 20
0.00
 30
4.00
 40
0.2
  0
CIRCLE
  8
CONNECTIONS
 10
5.00
 20
0.00
 30
4.00
 40
0.2
  0
CIRCLE
  8
CONNECTIONS
 10
5.00
 20
0.00
 30
4.00
 40
0.2
  0
CIRCLE
  8
CONNECTIONS
 10
5.00
 20
0.00
 30
4.00
 40
0.2
  0
CIRCLE
  8
CONNECTIONS
 10
10.00
 20
0.00
 30
4.00
 40
0.2
  0
CIRCLE
  8
CONNECTIONS
 10
10.00
 20
0.00
 30
4.00
 40
0.2
  0
CIRCLE
  8
CONNECTIONS
 10
10.00
 20
0.00
 30
4.00
 40
0.2
  0
CIRCLE
  8
CONNECTIONS
 10
15.00
 20
0.00
 30
4.00
 40
0.2
  0
CIRCLE
  8
CONNECTIONS
 10
15.00
 20
0.00
 30
4.00
 40
0.2
  0
CIRCLE
  8
CONNECTIONS
 10
15.00
 20
0.00
 30
4.00
 40
0.2
  0
CIRCLE
  8
CONNECTIONS
 10
20.00
 20
0.00
 30
4.00
 40
0.2
  0
CIRCLE
  8
CONNECTIONS
 10
20.00
 20
0.00
 30
4.00
 40
0.2
  0
CIRCLE
  8
CONNECTIONS
 10
0.00
 20
5.00
 30
4.00
 40
0.2
  0
CIRCLE
  8
CONNECTIONS
 10
0.00
 20
5.00
 30
4.00
 40
0.2
  0
CIRCLE
  8
CONNECTIONS
 10
0.00
 20
5.00
 30
4.00
 40
0.2
  0
CIRCLE
  8
CONNECTIONS
 10
5.00
 20
5.00
 30
4.00
 40
0.2
  0
CIRCLE
  8
CONNECTIONS
 10
5.00
 20
5.00
 30
4.00
 40
0.2
  0
CIRCLE
  8
CONNECTIONS
 10
5.00
 20
5.00
 30
4.00
 40
0.2
  0
CIRCLE
  8
CONNECTIONS
 10
5.00
 20
5.00
 30
4.00
 40
0.2
  0
CIRCLE
  8
CONNECTIONS
 10
10.00
 20
5.00
 30
4.00
 40
0.2
  0
CIRCLE
  8
CONNECTIONS
 10
10.00
 20
5.00
 30
4.00
 40
0.2
  0
CIRCLE
  8
CONNECTIONS
 10
10.00
 20
5.00
 30
4.00
 40
0.2
  0
CIRCLE
  8
CONNECTIONS
 10
10.00
 20
5.00
 30
4.00
 40
0.2
  0
CIRCLE
  8
CONNECTIONS
 10
15.00
 20
5.00
 30
4.00
 40
0.2
  0
CIRCLE
  8
CONNECTIONS
 10
15.00
 20
5.00
 30
4.00
 40
0.2
  0
CIRCLE
  8
CONNECTIONS
 10
15.00
 20
5.00
 30
4.00
 40
0.2
  0
CIRCLE
  8
CONNECTIONS
 10
15.00
 20
5.00
 30
4.00
 40
0.2
  0
CIRCLE
  8
CONNECTIONS
 10
20.00
 20
5.00
 30
4.00
 40
0.2
  0
CIRCLE
  8
CONNECTIONS
 10
20.00
 20
5.00
 30
4.00
 40
0.2
  0
CIRCLE
  8
CONNECTIONS
 10
20.00
 20
5.00
 30
4.00
 40
0.2
  0
CIRCLE
  8
CONNECTIONS
 10
0.00
 20
10.00
 30
4.00
 40
0.2
  0
CIRCLE
  8
CONNECTIONS
 10
0.00
 20
10.00
 30
4.00
 40
0.2
  0
CIRCLE
  8
CONNECTIONS
 10
0.00
 20
10.00
 30
4.00
 40
0.2
  0
CIRCLE
  8
CONNECTIONS
 10
5.00
 20
10.00
 30
4.00
 40
0.2
  0
CIRCLE
  8
CONNECTIONS
 10
5.00
 20
10.00
 30
4.00
 40
0.2
  0
CIRCLE
  8
CONNECTIONS
 10
5.00
 20
10.00
 30
4.00
 40
0.2
  0
CIRCLE
  8
CONNECTIONS
 10
5.00
 20
10.00
 30
4.00
 40
0.2
  0
CIRCLE
  8
CONNECTIONS
 10
10.00
 20
10.00
 30
4.00
 40
0.2
  0
CIRCLE
  8
CONNECTIONS
 10
10.00
 20
10.00
 30
4.00
 40
0.2
  0
CIRCLE
  8
CONNECTIONS
 10
10.00
 20
10.00
 30
4.00
 40
0.2
  0
CIRCLE
  8
CONNECTIONS
 10
10.00
 20
10.00
 30
4.00
 40
0.2
  0
CIRCLE
  8
CONNECTIONS
 10
15.00
 20
10.00
 30
4.00
 40
0.2
  0
CIRCLE
  8
CONNECTIONS
 10
15.00
 20
10.00
 30
4.00
 40
0.2
  0
CIRCLE
  8
CONNECTIONS
 10
15.00
 20
10.00
 30
4.00
 40
0.2
  0
CIRCLE
  8
CONNECTIONS
 10
15.00
 20
10.00
 30
4.00
 40
0.2
  0
CIRCLE
  8
CONNECTIONS
 10
20.00
 20
10.00
 30
4.00
 40
0.2
  0
CIRCLE
  8
CONNECTIONS
 10
20.00
 20
10.00
 30
4.00
 40
0.2
  0
CIRCLE
  8
CONNECTIONS
 10
20.00
 20
10.00
 30
4.00
 40
0.2
  0
CIRCLE
  8
CONNECTIONS
 10
0.00
 20
15.00
 30
4.00
 40
0.2
  0
CIRCLE
  8
CONNECTIONS
 10
0.00
 20
15.00
 30
4.00
 40
0.2
  0
CIRCLE
  8
CONNECTIONS
 10
0.00
 20
15.00
 30
4.00
 40
0.2
  0
CIRCLE
  8
CONNECTIONS
 10
5.00
 20
15.00
 30
4.00
 40
0.2
  0
CIRCLE
  8
CONNECTIONS
 10
5.00
 20
15.00
 30
4.00
 40
0.2
  0
CIRCLE
  8
CONNECTIONS
 10
5.00
 20
15.00
 30
4.00
 40
0.2
  0
CIRCLE
  8
CONNECTIONS
 10
5.00
 20
15.00
 30
4.00
 40
0.2
  0
CIRCLE
  8
CONNECTIONS
 10
10.00
 20
15.00
 30
4.00
 40
0.2
  0
CIRCLE
  8
CONNECTIONS
 10
10.00
 20
15.00
 30
4.00
 40
0.2
  0
CIRCLE
  8
CONNECTIONS
 10
10.00
 20
15.00
 30
4.00
 40
0.2
  0
CIRCLE
  8
CONNECTIONS
 10
10.00
 20
15.00
 30
4.00
 40
0.2
  0
CIRCLE
  8
CONNECTIONS
 10
15.00
 20
15.00
 30
4.00
 40
0.2
  0
CIRCLE
  8
CONNECTIONS
 10
15.00
 20
15.00
 30
4.00
 40
0.2
  0
CIRCLE
  8
CONNECTIONS
 10
15.00
 20
15.00
 30
4.00
 40
0.2
  0
CIRCLE
  8
CONNECTIONS
 10
15.00
 20
15.00
 30
4.00
 40
0.2
  0
CIRCLE
  8
CONNECTIONS
 10
20.00
 20
15.00
 30
4.00
 40
0.2
  0
CIRCLE
  8
CONNECTIONS
 10
20.00
 20
15.00
 30
4.00
 40
0.2
  0
CIRCLE
  8
CONNECTIONS
 10
20.00
 20
15.00
 30
4.00
 40
0.2
  0
CIRCLE
  8
CONNECTIONS
 10
0.00
 20
20.00
 30
4.00
 40
0.2
  0
CIRCLE
  8
CONNECTIONS
 10
0.00
 20
20.00
 30
4.00
 40
0.2
  0
CIRCLE
  8
CONNECTIONS
 10
5.00
 20
20.00
 30
4.00
 40
0.2
  0
CIRCLE
  8
CONNECTIONS
 10
5.00
 20
20.00
 30
4.00
 40
0.2
  0
CIRCLE
  8
CONNECTIONS
 10
5.00
 20
20.00
 30
4.00
 40
0.2
  0
CIRCLE
  8
CONNECTIONS
 10
10.00
 20
20.00
 30
4.00
 40
0.2
  0
CIRCLE
  8
CONNECTIONS
 10
10.00
 20
20.00
 30
4.00
 40
0.2
  0
CIRCLE
  8
CONNECTIONS
 10
10.00
 20
20.00
 30
4.00
 40
0.2
  0
CIRCLE
  8
CONNECTIONS
 10
15.00
 20
20.00
 30
4.00
 40
0.2
  0
CIRCLE
  8
CONNECTIONS
 10
15.00
 20
20.00
 30
4.00
 40
0.2
  0
CIRCLE
  8
CONNECTIONS
 10
15.00
 20
20.00
 30
4.00
 40
0.2
  0
CIRCLE
  8
CONNECTIONS
 10
20.00
 20
20.00
 30
4.00
 40
0.2
  0
CIRCLE
  8
CONNECTIONS
 10
20.00
 20
20.00
 30
4.00
 40
0.2
  0
ENDSEC
  0
EOF