  0
SECTION
  2
HEADER
  9
$ACADVER
  1
AC1015
  9
$ACADMAINTVER
 70
6
  9
$DWGCODEPAGE
  3
ANSI_1252
  9
$INSBASE
 10
0.0
 20
0.0
 30
0.0
  9
$EXTMIN
 10
1e+20
 20
1e+20
 30
1e+20
  9
$EXTMAX
 10
-1e+20
 20
-1e+20
 30
-1e+20
  9
$LIMMIN
 10
0.0
 20
0.0
  9
$LIMMAX
 10
420.0
 20
297.0
  9
$ORTHOMODE
 70
0
  9
$REGENMODE
 70
1
  9
$FILLMODE
 70
1
  9
$QTEXTMODE
 70
0
  9
$MIRRTEXT
 70
1
  9
$LTSCALE
 40
1.0
  9
$ATTMODE
 70
1
  9
$TEXTSIZE
 40
2.5
  9
$TRACEWID
 40
1.0
  9
$TEXTSTYLE
  7
Standard
  9
$CLAYER
  8
0
  9
$CELTYPE
  6
ByLayer
  9
$CECOLOR
 62
256
  9
$CELTSCALE
 40
1.0
  9
$DISPSILH
 70
0
  9
$DIMSCALE
 40
1.0
  9
$DIMASZ
 40
2.5
  9
$DIMEXO
 40
0.625
  9
$DIMDLI
 40
3.75
  9
$DIMRND
 40
0.0
  9
$DIMDLE
 40
0.0
  9
$DIMEXE
 40
1.25
  9
$DIMTP
 40
0.0
  9
$DIMTM
 40
0.0
  9
$DIMTXT
 40
2.5
  9
$DIMCEN
 40
2.5
  9
$DIMTSZ
 40
0.0
  9
$DIMTOL
 70
0
  9
$DIMLIM
 70
0
  9
$DIMTIH
 70
0
  9
$DIMTOH
 70
0
  9
$DIMSE1
 70
0
  9
$DIMSE2
 70
0
  9
$DIMTAD
 70
1
  9
$DIMZIN
 70
8
  9
$DIMBLK
  1

  9
$DIMASO
 70
1
  9
$DIMSHO
 70
1
  9
$DIMPOST
  1

  9
$DIMAPOST
  1

  9
$DIMALT
 70
0
  9
$DIMALTD
 70
3
  9
$DIMALTF
 40
0.03937007874
  9
$DIMLFAC
 40
1.0
  9
$DIMTOFL
 70
1
  9
$DIMTVP
 40
0.0
  9
$DIMTIX
 70
0
  9
$DIMSOXD
 70
0
  9
$DIMSAH
 70
0
  9
$DIMBLK1
  1

  9
$DIMBLK2
  1

  9
$DIMSTYLE
  2
ISO-25
  9
$DIMCLRD
 70
0
  9
$DIMCLRE
 70
0
  9
$DIMCLRT
 70
0
  9
$DIMTFAC
 40
1.0
  9
$DIMGAP
 40
0.625
  9
$DIMJUST
 70
0
  9
$DIMSD1
 70
0
  9
$DIMSD2
 70
0
  9
$DIMTOLJ
 70
0
  9
$DIMTZIN
 70
8
  9
$DIMALTZ
 70
0
  9
$DIMALTTZ
 70
0
  9
$DIMUPT
 70
0
  9
$DIMDEC
 70
2
  9
$DIMTDEC
 70
2
  9
$DIMALTU
 70
2
  9
$DIMALTTD
 70
3
  9
$DIMTXSTY
  7
Standard
  9
$DIMAUNIT
 70
0
  9
$DIMADEC
 70
0
  9
$DIMALTRND
 40
0.0
  9
$DIMAZIN
 70
0
  9
$DIMDSEP
 70
44
  9
$DIMATFIT
 70
3
  9
$DIMFRAC
 70
0
  9
$DIMLDRBLK
  1

  9
$DIMLUNIT
 70
2
  9
$DIMLWD
 70
-2
  9
$DIMLWE
 70
-2
  9
$DIMTMOVE
 70
0
  9
$LUNITS
 70
2
  9
$LUPREC
 70
4
  9
$SKETCHINC
 40
1.0
  9
$FILLETRAD
 40
10.0
  9
$AUNITS
 70
0
  9
$AUPREC
 70
2
  9
$MENU
  1
.
  9
$ELEVATION
 40
0.0
  9
$PELEVATION
 40
0.0
  9
$THICKNESS
 40
0.0
  9
$LIMCHECK
 70
0
  9
$CHAMFERA
 40
0.0
  9
$CHAMFERB
 40
0.0
  9
$CHAMFERC
 40
0.0
  9
$CHAMFERD
 40
0.0
  9
$SKPOLY
 70
0
  9
$TDCREATE
 40
2461027.0312037035
  9
$TDUCREATE
 40
2458532.153996898
  9
$TDUPDATE
 40
2461027.0312037035
  9
$TDUUPDATE
 40
2458532.1544311
  9
$TDINDWG
 40
0.0
  9
$TDUSRTIMER
 40
0.0
  9
$USRTIMER
 70
1
  9
$ANGBASE
 50
0.0
  9
$ANGDIR
 70
0
  9
$PDMODE
 70
0
  9
$PDSIZE
 40
0.0
  9
$PLINEWID
 40
0.0
  9
$SPLFRAME
 70
0
  9
$SPLINETYPE
 70
6
  9
$SPLINESEGS
 70
8
  9
$HANDSEED
  5
30E
  9
$SURFTAB1
 70
6
  9
$SURFTAB2
 70
6
  9
$SURFTYPE
 70
6
  9
$SURFU
 70
6
  9
$SURFV
 70
6
  9
$UCSBASE
  2

  9
$UCSNAME
  2

  9
$UCSORG
 10
0.0
 20
0.0
 30
0.0
  9
$UCSXDIR
 10
1.0
 20
0.0
 30
0.0
  9
$UCSYDIR
 10
0.0
 20
1.0
 30
0.0
  9
$UCSORTHOREF
  2

  9
$UCSORTHOVIEW
 70
0
  9
$UCSORGTOP
 10
0.0
 20
0.0
 30
0.0
  9
$UCSORGBOTTOM
 10
0.0
 20
0.0
 30
0.0
  9
$UCSORGLEFT
 10
0.0
 20
0.0
 30
0.0
  9
$UCSORGRIGHT
 10
0.0
 20
0.0
 30
0.0
  9
$UCSORGFRONT
 10
0.0
 20
0.0
 30
0.0
  9
$UCSORGBACK
 10
0.0
 20
0.0
 30
0.0
  9
$PUCSBASE
  2

  9
$PUCSNAME
  2

  9
$PUCSORG
 10
0.0
 20
0.0
 30
0.0
  9
$PUCSXDIR
 10
1.0
 20
0.0
 30
0.0
  9
$PUCSYDIR
 10
0.0
 20
1.0
 30
0.0
  9
$PUCSORTHOREF
  2

  9
$PUCSORTHOVIEW
 70
0
  9
$PUCSORGTOP
 10
0.0
 20
0.0
 30
0.0
  9
$PUCSORGBOTTOM
 10
0.0
 20
0.0
 30
0.0
  9
$PUCSORGLEFT
 10
0.0
 20
0.0
 30
0.0
  9
$PUCSORGRIGHT
 10
0.0
 20
0.0
 30
0.0
  9
$PUCSORGFRONT
 10
0.0
 20
0.0
 30
0.0
  9
$PUCSORGBACK
 10
0.0
 20
0.0
 30
0.0
  9
$USERI1
 70
0
  9
$USERI2
 70
0
  9
$USERI3
 70
0
  9
$USERI4
 70
0
  9
$USERI5
 70
0
  9
$USERR1
 40
0.0
  9
$USERR2
 40
0.0
  9
$USERR3
 40
0.0
  9
$USERR4
 40
0.0
  9
$USERR5
 40
0.0
  9
$WORLDVIEW
 70
1
  9
$SHADEDGE
 70
3
  9
$SHADEDIF
 70
70
  9
$TILEMODE
 70
1
  9
$MAXACTVP
 70
64
  9
$PINSBASE
 10
0.0
 20
0.0
 30
0.0
  9
$PLIMCHECK
 70
0
  9
$PEXTMIN
 10
1e+20
 20
1e+20
 30
1e+20
  9
$PEXTMAX
 10
-1e+20
 20
-1e+20
 30
-1e+20
  9
$PLIMMIN
 10
0.0
 20
0.0
  9
$PLIMMAX
 10
420.0
 20
297.0
  9
$UNITMODE
 70
0
  9
$VISRETAIN
 70
1
  9
$PLINEGEN
 70
0
  9
$PSLTSCALE
 70
1
  9
$TREEDEPTH
 70
3020
  9
$CMLSTYLE
  2
Standard
  9
$CMLJUST
 70
0
  9
$CMLSCALE
 40
20.0
  9
$PROXYGRAPHICS
 70
1
  9
$MEASUREMENT
 70
1
  9
$CELWEIGHT
370
-1
  9
$ENDCAPS
280
0
  9
$JOINSTYLE
280
0
  9
$LWDISPLAY
290
0
  9
$INSUNITS
 70
6
  9
$HYPERLINKBASE
  1

  9
$STYLESHEET
  1

  9
$XEDIT
290
1
  9
$CEPSNTYPE
380
0
  9
$PSTYLEMODE
290
1
  9
$FINGERPRINTGUID
  2
{BD3306EA-26C4-4942-BA7A-47CBF41B14CA}
  9
$VERSIONGUID
  2
{7E22D2EF-975F-4DEB-8C3B-E8B8A8D4CC4D}
  9
$EXTNAMES
290
1
  9
$PSVPSCALE
 40
0.0
  9
$OLESTARTUP
290
0
  0
ENDSEC
  0
SECTION
  2
CLASSES
  0
CLASS
  1
ACDBDICTIONARYWDFLT
  2
AcDbDictionaryWithDefault
  3
ObjectDBX Classes
 90
0
280
0
281
0
  0
CLASS
  1
SUN
  2
AcDbSun
  3
SCENEOE
 90
1153
280
0
281
0
  0
CLASS
  1
VISUALSTYLE
  2
AcDbVisualStyle
  3
ObjectDBX Classes
 90
4095
280
0
281
0
  0
CLASS
  1
MATERIAL
  2
AcDbMaterial
  3
ObjectDBX Classes
 90
1153
280
0
281
0
  0
CLASS
  1
SCALE
  2
AcDbScale
  3
ObjectDBX Classes
 90
1153
280
0
281
0
  0
CLASS
  1
TABLESTYLE
  2
AcDbTableStyle
  3
ObjectDBX Classes
 90
4095
280
0
281
0
  0
CLASS
  1
MLEADERSTYLE
  2
AcDbMLeaderStyle
  3
ACDB_MLEADERSTYLE_CLASS
 90
4095
280
0
281
0
  0
CLASS
  1
DICTIONARYVAR
  2
AcDbDictionaryVar
  3
ObjectDBX Classes
 90
0
280
0
281
0
  0
CLASS
  1
CELLSTYLEMAP
  2
AcDbCellStyleMap
  3
ObjectDBX Classes
 90
1152
280
0
281
0
  0
CLASS
  1
MENTALRAYRENDERSETTINGS
  2
AcDbMentalRayRenderSettings
  3
SCENEOE
 90
1024
280
0
281
0
  0
CLASS
  1
ACDBDETAILVIEWSTYLE
  2
AcDbDetailViewStyle
  3
ObjectDBX Classes
 90
1025
280
0
281
0
  0
CLASS
  1
ACDBSECTIONVIEWSTYLE
  2
AcDbSectionViewStyle
  3
ObjectDBX Classes
 90
1025
280
0
281
0
  0
CLASS
  1
RASTERVARIABLES
  2
AcDbRasterVariables
  3
ISM
 90
0
280
0
281
0
  0
CLASS
  1
ACDBPLACEHOLDER
  2
AcDbPlaceHolder
  3
ObjectDBX Classes
 90
0
280
0
281
0
  0
CLASS
  1
LAYOUT
  2
AcDbLayout
  3
ObjectDBX Classes
 90
0
280
0
281
0
  0
ENDSEC
  0
SECTION
  2
TABLES
  0
TABLE
  2
VPORT
  5
8
330
0
100
AcDbSymbolTable
 70
1
  0
VPORT
  5
23
330
8
100
AcDbSymbolTableRecord
100
AcDbViewportTableRecord
  2
*Active
 70
0
 10
0.0
 20
0.0
 11
1.0
 21
1.0
 12
0.0
 22
0.0
 13
0.0
 23
0.0
 14
0.5
 24
0.5
 15
0.5
 25
0.5
 16
0.0
 26
0.0
 36
1.0
 17
0.0
 27
0.0
 37
0.0
 40
1000.0
 41
1.34
 42
50.0
 43
0.0
 44
0.0
 50
0.0
 51
0.0
 71
0
 72
1000
 73
1
 74
3
 75
0
 76
0
 77
0
 78
0
281
0
 65
0
146
0.0
  0
ENDTAB
  0
TABLE
  2
LTYPE
  5
2
330
0
100
AcDbSymbolTable
 70
3
  0
LTYPE
  5
24
330
2
100
AcDbSymbolTableRecord
100
AcDbLinetypeTableRecord
  2
ByBlock
 70
0
  3

 72
65
 73
0
 40
0.0
  0
LTYPE
  5
25
330
2
100
AcDbSymbolTableRecord
100
AcDbLinetypeTableRecord
  2
ByLayer
 70
0
  3

 72
65
 73
0
 40
0.0
  0
LTYPE
  5
26
330
2
100
AcDbSymbolTableRecord
100
AcDbLinetypeTableRecord
  2
Continuous
 70
0
  3

 72
65
 73
0
 40
0.0
  0
ENDTAB
  0
TABLE
  2
LAYER
  5
1
330
0
100
AcDbSymbolTable
 70
9
  0
LAYER
  5
27
330
1
100
AcDbSymbolTableRecord
100
AcDbLayerTableRecord
  2
0
 70
0
 62
7
  6
Continuous
370
-3
390
13
  0
LAYER
  5
28
330
1
100
AcDbSymbolTableRecord
100
AcDbLayerTableRecord
  2
Defpoints
 70
0
 62
7
  6
Continuous
290
0
370
-3
390
13
  0
LAYER
  5
2F
330
1
100
AcDbSymbolTableRecord
100
AcDbLayerTableRecord
  2
COLUMNS
 70
0
 62
7
  6
Continuous
370
-3
390
13
  0
LAYER
  5
30
330
1
100
AcDbSymbolTableRecord
100
AcDbLayerTableRecord
  2
BEAMS
 70
0
 62
7
  6
Continuous
370
-3
390
13
  0
LAYER
  5
31
330
1
100
AcDbSymbolTableRecord
100
AcDbLayerTableRecord
  2
BRACING
 70
0
 62
7
  6
Continuous
370
-3
390
13
  0
LAYER
  5
32
330
1
100
AcDbSymbolTableRecord
100
AcDbLayerTableRecord
  2
RIBS
 70
0
 62
7
  6
Continuous
370
-3
390
13
  0
LAYER
  5
33
330
1
100
AcDbSymbolTableRecord
100
AcDbLayerTableRecord
  2
ARCHES
 70
0
 62
7
  6
Continuous
370
-3
390
13
  0
LAYER
  5
34
330
1
100
AcDbSymbolTableRecord
100
AcDbLayerTableRecord
  2
GRIDS
 70
0
 62
7
  6
Continuous
370
-3
390
13
  0
LAYER
  5
35
330
1
100
AcDbSymbolTableRecord
100
AcDbLayerTableRecord
  2
MARKERS
 70
0
 62
7
  6
Continuous
370
-3
390
13
  0
ENDTAB
  0
TABLE
  2
STYLE
  5
5
330
0
100
AcDbSymbolTable
 70
1
  0
STYLE
  5
29
330
5
100
AcDbSymbolTableRecord
100
AcDbTextStyleTableRecord
  2
Standard
 70
0
 40
0.0
 41
1.0
 50
0.0
 71
0
 42
2.5
  3
txt
  4

  0
ENDTAB
  0
TABLE
  2
VIEW
  5
7
330
0
100
AcDbSymbolTable
 70
0
  0
ENDTAB
  0
TABLE
  2
UCS
  5
6
330
0
100
AcDbSymbolTable
 70
0
  0
ENDTAB
  0
TABLE
  2
APPID
  5
3
330
0
100
AcDbSymbolTable
 70
3
  0
APPID
  5
2A
330
3
100
AcDbSymbolTableRecord
100
AcDbRegAppTableRecord
  2
ACAD
 70
0
  0
APPID
  5
30B
330
3
100
AcDbSymbolTableRecord
100
AcDbRegAppTableRecord
  2
HATCHBACKGROUNDCOLOR
 70
0
  0
APPID
  5
30C
330
3
100
AcDbSymbolTableRecord
100
AcDbRegAppTableRecord
  2
EZDXF
 70
0
  0
ENDTAB
  0
TABLE
  2
DIMSTYLE
  5
4
330
0
100
AcDbSymbolTable
 70
1
100
AcDbDimStyleTable
  0
DIMSTYLE
105
2B
330
4
100
AcDbSymbolTableRecord
100
AcDbDimStyleTableRecord
  2
Standard
 70
0
  3

  4

 40
1.0
 41
2.5
 42
0.625
 43
3.75
 44
1.25
 45
0.0
 46
0.0
 47
0.0
 48
0.0
140
2.5
141
2.5
142
0.0
143
0.03937007874
144
1.0
145
0.0
146
1.0
147
0.625
148
0.0
 71
0
 72
0
 73
0
 74
0
 75
0
 76
0
 77
1
 78
8
 79
3
170
0
171
3
172
1
173
0
174
0
175
0
176
0
177
0
178
0
179
2
271
2
272
2
273
2
274
3
275
0
276
0
277
2
278
44
279
0
280
0
281
0
282
0
283
0
284
8
285
0
286
0
288
0
289
3
371
-2
372
-2
  0
ENDTAB
  0
TABLE
  2
BLOCK_RECORD
  5
9
330
0
100
AcDbSymbolTable
 70
2
  0
BLOCK_RECORD
  5
17
330
9
100
AcDbSymbolTableRecord
100
AcDbBlockTableRecord
  2
*Model_Space
340
1A
  0
BLOCK_RECORD
  5
1B
330
9
100
AcDbSymbolTableRecord
100
AcDbBlockTableRecord
  2
*Paper_Space
340
1E
  0
ENDTAB
  0
ENDSEC
  0
SECTION
  2
BLOCKS
  0
BLOCK
  5
18
330
17
100
AcDbEntity
  8
0
100
AcDbBlockBegin
  2
*Model_Space
 70
0
 10
0.0
 20
0.0
 30
0.0
  3
*Model_Space
  1

  0
ENDBLK
  5
19
330
17
100
AcDbEntity
  8
0
100
AcDbBlockEnd
  0
BLOCK
  5
1C
330
1B
100
AcDbEntity
  8
0
100
AcDbBlockBegin
  2
*Paper_Space
 70
0
 10
0.0
 20
0.0
 30
0.0
  3
*Paper_Space
  1

  0
ENDBLK
  5
1D
330
1B
100
AcDbEntity
  8
0
100
AcDbBlockEnd
  0
ENDSEC
  0
SECTION
  2
ENTITIES
  0
LINE
  5
36
330
17
100
AcDbEntity
  8
COLUMNS
100
AcDbLine
 10
-110000.0
 20
-70000.0
 30
0.0
 11
-110000.0
 21
-70000.0
 31
9600.0
  0
LINE
  5
37
330
17
100
AcDbEntity
  8
COLUMNS
100
AcDbLine
 10
110000.0
 20
-70000.0
 30
0.0
 11
110000.0
 21
-70000.0
 31
9600.0
  0
LINE
  5
38
330
17
100
AcDbEntity
  8
ARCHES
100
AcDbLine
 10
-110000.0
 20
-70000.0
 30
0.0
 11
-104500.0
 21
-70000.0
 31
4680.000000000002
  0
LINE
  5
39
330
17
100
AcDbEntity
  8
ARCHES
100
AcDbLine
 10
-104500.0
 20
-70000.0
 30
4680.000000000002
 11
-99000.0
 21
-70000.0
 31
9119.999999999998
  0
LINE
  5
3A
330
17
100
AcDbEntity
  8
ARCHES
100
AcDbLine
 10
-99000.0
 20
-70000.0
 30
9119.999999999998
 11
-93500.0
 21
-70000.0
 31
13320.000000000004
  0
LINE
  5
3B
330
17
100
AcDbEntity
  8
ARCHES
100
AcDbLine
 10
-93500.0
 20
-70000.0
 30
13320.000000000004
 11
-88000.0
 21
-70000.0
 31
17279.999999999993
  0
LINE
  5
3C
330
17
100
AcDbEntity
  8
ARCHES
100
AcDbLine
 10
-88000.0
 20
-70000.0
 30
17279.999999999993
 11
-82500.0
 21
-70000.0
 31
21000.0
  0
LINE
  5
3D
330
17
100
AcDbEntity
  8
ARCHES
100
AcDbLine
 10
-82500.0
 20
-70000.0
 30
21000.0
 11
-77000.0
 21
-70000.0
 31
24480.0
  0
LINE
  5
3E
330
17
100
AcDbEntity
  8
ARCHES
100
AcDbLine
 10
-77000.0
 20
-70000.0
 30
24480.0
 11
-71500.0
 21
-70000.0
 31
27719.999999999996
  0
LINE
  5
3F
330
17
100
AcDbEntity
  8
ARCHES
100
AcDbLine
 10
-71500.0
 20
-70000.0
 30
27719.999999999996
 11
-66000.0
 21
-70000.0
 31
30720.0
  0
LINE
  5
40
330
17
100
AcDbEntity
  8
ARCHES
100
AcDbLine
 10
-66000.0
 20
-70000.0
 30
30720.0
 11
-60500.00000000001
 21
-70000.0
 31
33480.0
  0
LINE
  5
41
330
17
100
AcDbEntity
  8
ARCHES
100
AcDbLine
 10
-60500.00000000001
 20
-70000.0
 30
33480.0
 11
-55000.0
 21
-70000.0
 31
36000.0
  0
LINE
  5
42
330
17
100
AcDbEntity
  8
ARCHES
100
AcDbLine
 10
-55000.0
 20
-70000.0
 30
36000.0
 11
-49499.99999999999
 21
-70000.0
 31
38280.00000000001
  0
LINE
  5
43
330
17
100
AcDbEntity
  8
ARCHES
100
AcDbLine
 10
-49499.99999999999
 20
-70000.0
 30
38280.00000000001
 11
-44000.0
 21
-70000.0
 31
40320.0
  0
LINE
  5
44
330
17
100
AcDbEntity
  8
ARCHES
100
AcDbLine
 10
-44000.0
 20
-70000.0
 30
40320.0
 11
-38500.0
 21
-70000.0
 31
42120.0
  0
LINE
  5
45
330
17
100
AcDbEntity
  8
ARCHES
100
AcDbLine
 10
-38500.0
 20
-70000.0
 30
42120.0
 11
-33000.00000000001
 21
-70000.0
 31
43679.99999999999
  0
LINE
  5
46
330
17
100
AcDbEntity
  8
ARCHES
100
AcDbLine
 10
-33000.00000000001
 20
-70000.0
 30
43679.99999999999
 11
-27500.0
 21
-70000.0
 31
45000.0
  0
LINE
  5
47
330
17
100
AcDbEntity
  8
ARCHES
100
AcDbLine
 10
-27500.0
 20
-70000.0
 30
45000.0
 11
-21999.999999999996
 21
-70000.0
 31
46080.0
  0
LINE
  5
48
330
17
100
AcDbEntity
  8
ARCHES
100
AcDbLine
 10
-21999.999999999996
 20
-70000.0
 30
46080.0
 11
-16500.000000000004
 21
-70000.0
 31
46920.0
  0
LINE
  5
49
330
17
100
AcDbEntity
  8
ARCHES
100
AcDbLine
 10
-16500.000000000004
 20
-70000.0
 30
46920.0
 11
-10999.999999999998
 21
-70000.0
 31
47520.0
  0
LINE
  5
4A
330
17
100
AcDbEntity
  8
ARCHES
100
AcDbLine
 10
-10999.999999999998
 20
-70000.0
 30
47520.0
 11
-5500.000000000005
 21
-70000.0
 31
47880.0
  0
LINE
  5
4B
330
17
100
AcDbEntity
  8
ARCHES
100
AcDbLine
 10
-5500.000000000005
 20
-70000.0
 30
47880.0
 11
0.0
 21
-70000.0
 31
48000.0
  0
LINE
  5
4C
330
17
100
AcDbEntity
  8
ARCHES
100
AcDbLine
 10
0.0
 20
-70000.0
 30
48000.0
 11
5500.000000000005
 21
-70000.0
 31
47880.0
  0
LINE
  5
4D
330
17
100
AcDbEntity
  8
ARCHES
100
AcDbLine
 10
5500.000000000005
 20
-70000.0
 30
47880.0
 11
11000.00000000001
 21
-70000.0
 31
47520.0
  0
LINE
  5
4E
330
17
100
AcDbEntity
  8
ARCHES
100
AcDbLine
 10
11000.00000000001
 20
-70000.0
 30
47520.0
 11
16499.99999999999
 21
-70000.0
 31
46920.0
  0
LINE
  5
4F
330
17
100
AcDbEntity
  8
ARCHES
100
AcDbLine
 10
16499.99999999999
 20
-70000.0
 30
46920.0
 11
21999.999999999996
 21
-70000.0
 31
46080.0
  0
LINE
  5
50
330
17
100
AcDbEntity
  8
ARCHES
100
AcDbLine
 10
21999.999999999996
 20
-70000.0
 30
46080.0
 11
27500.0
 21
-70000.0
 31
45000.0
  0
LINE
  5
51
330
17
100
AcDbEntity
  8
ARCHES
100
AcDbLine
 10
27500.0
 20
-70000.0
 30
45000.0
 11
33000.00000000001
 21
-70000.0
 31
43679.99999999999
  0
LINE
  5
52
330
17
100
AcDbEntity
  8
ARCHES
100
AcDbLine
 10
33000.00000000001
 20
-70000.0
 30
43679.99999999999
 11
38500.00000000001
 21
-70000.0
 31
42120.0
  0
LINE
  5
53
330
17
100
AcDbEntity
  8
ARCHES
100
AcDbLine
 10
38500.00000000001
 20
-70000.0
 30
42120.0
 11
43999.99999999999
 21
-70000.0
 31
40320.00000000001
  0
LINE
  5
54
330
17
100
AcDbEntity
  8
ARCHES
100
AcDbLine
 10
43999.99999999999
 20
-70000.0
 30
40320.00000000001
 11
49499.99999999999
 21
-70000.0
 31
38280.00000000001
  0
LINE
  5
55
330
17
100
AcDbEntity
  8
ARCHES
100
AcDbLine
 10
49499.99999999999
 20
-70000.0
 30
38280.00000000001
 11
55000.0
 21
-70000.0
 31
36000.0
  0
LINE
  5
56
330
17
100
AcDbEntity
  8
ARCHES
100
AcDbLine
 10
55000.0
 20
-70000.0
 30
36000.0
 11
60500.00000000001
 21
-70000.0
 31
33480.0
  0
LINE
  5
57
330
17
100
AcDbEntity
  8
ARCHES
100
AcDbLine
 10
60500.00000000001
 20
-70000.0
 30
33480.0
 11
66000.00000000001
 21
-70000.0
 31
30719.999999999996
  0
LINE
  5
58
330
17
100
AcDbEntity
  8
ARCHES
100
AcDbLine
 10
66000.00000000001
 20
-70000.0
 30
30719.999999999996
 11
71499.99999999999
 21
-70000.0
 31
27720.000000000007
  0
LINE
  5
59
330
17
100
AcDbEntity
  8
ARCHES
100
AcDbLine
 10
71499.99999999999
 20
-70000.0
 30
27720.000000000007
 11
77000.0
 21
-70000.0
 31
24480.0
  0
LINE
  5
5A
330
17
100
AcDbEntity
  8
ARCHES
100
AcDbLine
 10
77000.0
 20
-70000.0
 30
24480.0
 11
82500.0
 21
-70000.0
 31
21000.0
  0
LINE
  5
5B
330
17
100
AcDbEntity
  8
ARCHES
100
AcDbLine
 10
82500.0
 20
-70000.0
 30
21000.0
 11
88000.0
 21
-70000.0
 31
17279.999999999993
  0
LINE
  5
5C
330
17
100
AcDbEntity
  8
ARCHES
100
AcDbLine
 10
88000.0
 20
-70000.0
 30
17279.999999999993
 11
93500.00000000001
 21
-70000.0
 31
13319.999999999993
  0
LINE
  5
5D
330
17
100
AcDbEntity
  8
ARCHES
100
AcDbLine
 10
93500.00000000001
 20
-70000.0
 30
13319.999999999993
 11
98999.99999999999
 21
-70000.0
 31
9120.000000000007
  0
LINE
  5
5E
330
17
100
AcDbEntity
  8
ARCHES
100
AcDbLine
 10
98999.99999999999
 20
-70000.0
 30
9120.000000000007
 11
104500.0
 21
-70000.0
 31
4680.000000000002
  0
LINE
  5
5F
330
17
100
AcDbEntity
  8
ARCHES
100
AcDbLine
 10
104500.0
 20
-70000.0
 30
4680.000000000002
 11
110000.0
 21
-70000.0
 31
0.0
  0
LINE
  5
60
330
17
100
AcDbEntity
  8
COLUMNS
100
AcDbLine
 10
-110000.0
 20
0.0
 30
0.0
 11
-110000.0
 21
0.0
 31
9600.0
  0
LINE
  5
61
330
17
100
AcDbEntity
  8
COLUMNS
100
AcDbLine
 10
110000.0
 20
0.0
 30
0.0
 11
110000.0
 21
0.0
 31
9600.0
  0
LINE
  5
62
330
17
100
AcDbEntity
  8
ARCHES
100
AcDbLine
 10
-110000.0
 20
0.0
 30
0.0
 11
-104500.0
 21
0.0
 31
4680.000000000002
  0
LINE
  5
63
330
17
100
AcDbEntity
  8
ARCHES
100
AcDbLine
 10
-104500.0
 20
0.0
 30
4680.000000000002
 11
-99000.0
 21
0.0
 31
9119.999999999998
  0
LINE
  5
64
330
17
100
AcDbEntity
  8
ARCHES
100
AcDbLine
 10
-99000.0
 20
0.0
 30
9119.999999999998
 11
-93500.0
 21
0.0
 31
13320.000000000004
  0
LINE
  5
65
330
17
100
AcDbEntity
  8
ARCHES
100
AcDbLine
 10
-93500.0
 20
0.0
 30
13320.000000000004
 11
-88000.0
 21
0.0
 31
17279.999999999993
  0
LINE
  5
66
330
17
100
AcDbEntity
  8
ARCHES
100
AcDbLine
 10
-88000.0
 20
0.0
 30
17279.999999999993
 11
-82500.0
 21
0.0
 31
21000.0
  0
LINE
  5
67
330
17
100
AcDbEntity
  8
ARCHES
100
AcDbLine
 10
-82500.0
 20
0.0
 30
21000.0
 11
-77000.0
 21
0.0
 31
24480.0
  0
LINE
  5
68
330
17
100
AcDbEntity
  8
ARCHES
100
AcDbLine
 10
-77000.0
 20
0.0
 30
24480.0
 11
-71500.0
 21
0.0
 31
27719.999999999996
  0
LINE
  5
69
330
17
100
AcDbEntity
  8
ARCHES
100
AcDbLine
 10
-71500.0
 20
0.0
 30
27719.999999999996
 11
-66000.0
 21
0.0
 31
30720.0
  0
LINE
  5
6A
330
17
100
AcDbEntity
  8
ARCHES
100
AcDbLine
 10
-66000.0
 20
0.0
 30
30720.0
 11
-60500.00000000001
 21
0.0
 31
33480.0
  0
LINE
  5
6B
330
17
100
AcDbEntity
  8
ARCHES
100
AcDbLine
 10
-60500.00000000001
 20
0.0
 30
33480.0
 11
-55000.0
 21
0.0
 31
36000.0
  0
LINE
  5
6C
330
17
100
AcDbEntity
  8
ARCHES
100
AcDbLine
 10
-55000.0
 20
0.0
 30
36000.0
 11
-49499.99999999999
 21
0.0
 31
38280.00000000001
  0
LINE
  5
6D
330
17
100
AcDbEntity
  8
ARCHES
100
AcDbLine
 10
-49499.99999999999
 20
0.0
 30
38280.00000000001
 11
-44000.0
 21
0.0
 31
40320.0
  0
LINE
  5
6E
330
17
100
AcDbEntity
  8
ARCHES
100
AcDbLine
 10
-44000.0
 20
0.0
 30
40320.0
 11
-38500.0
 21
0.0
 31
42120.0
  0
LINE
  5
6F
330
17
100
AcDbEntity
  8
ARCHES
100
AcDbLine
 10
-38500.0
 20
0.0
 30
42120.0
 11
-33000.00000000001
 21
0.0
 31
43679.99999999999
  0
LINE
  5
70
330
17
100
AcDbEntity
  8
ARCHES
100
AcDbLine
 10
-33000.00000000001
 20
0.0
 30
43679.99999999999
 11
-27500.0
 21
0.0
 31
45000.0
  0
LINE
  5
71
330
17
100
AcDbEntity
  8
ARCHES
100
AcDbLine
 10
-27500.0
 20
0.0
 30
45000.0
 11
-21999.999999999996
 21
0.0
 31
46080.0
  0
LINE
  5
72
330
17
100
AcDbEntity
  8
ARCHES
100
AcDbLine
 10
-21999.999999999996
 20
0.0
 30
46080.0
 11
-16500.000000000004
 21
0.0
 31
46920.0
  0
LINE
  5
73
330
17
100
AcDbEntity
  8
ARCHES
100
AcDbLine
 10
-16500.000000000004
 20
0.0
 30
46920.0
 11
-10999.999999999998
 21
0.0
 31
47520.0
  0
LINE
  5
74
330
17
100
AcDbEntity
  8
ARCHES
100
AcDbLine
 10
-10999.999999999998
 20
0.0
 30
47520.0
 11
-5500.000000000005
 21
0.0
 31
47880.0
  0
LINE
  5
75
330
17
100
AcDbEntity
  8
ARCHES
100
AcDbLine
 10
-5500.000000000005
 20
0.0
 30
47880.0
 11
0.0
 21
0.0
 31
48000.0
  0
LINE
  5
76
330
17
100
AcDbEntity
  8
ARCHES
100
AcDbLine
 10
0.0
 20
0.0
 30
48000.0
 11
5500.000000000005
 21
0.0
 31
47880.0
  0
LINE
  5
77
330
17
100
AcDbEntity
  8
ARCHES
100
AcDbLine
 10
5500.000000000005
 20
0.0
 30
47880.0
 11
11000.00000000001
 21
0.0
 31
47520.0
  0
LINE
  5
78
330
17
100
AcDbEntity
  8
ARCHES
100
AcDbLine
 10
11000.00000000001
 20
0.0
 30
47520.0
 11
16499.99999999999
 21
0.0
 31
46920.0
  0
LINE
  5
79
330
17
100
AcDbEntity
  8
ARCHES
100
AcDbLine
 10
16499.99999999999
 20
0.0
 30
46920.0
 11
21999.999999999996
 21
0.0
 31
46080.0
  0
LINE
  5
7A
330
17
100
AcDbEntity
  8
ARCHES
100
AcDbLine
 10
21999.999999999996
 20
0.0
 30
46080.0
 11
27500.0
 21
0.0
 31
45000.0
  0
LINE
  5
7B
330
17
100
AcDbEntity
  8
ARCHES
100
AcDbLine
 10
27500.0
 20
0.0
 30
45000.0
 11
33000.00000000001
 21
0.0
 31
43679.99999999999
  0
LINE
  5
7C
330
17
100
AcDbEntity
  8
ARCHES
100
AcDbLine
 10
33000.00000000001
 20
0.0
 30
43679.99999999999
 11
38500.00000000001
 21
0.0
 31
42120.0
  0
LINE
  5
7D
330
17
100
AcDbEntity
  8
ARCHES
100
AcDbLine
 10
38500.00000000001
 20
0.0
 30
42120.0
 11
43999.99999999999
 21
0.0
 31
40320.00000000001
  0
LINE
  5
7E
330
17
100
AcDbEntity
  8
ARCHES
100
AcDbLine
 10
43999.99999999999
 20
0.0
 30
40320.00000000001
 11
49499.99999999999
 21
0.0
 31
38280.00000000001
  0
LINE
  5
7F
330
17
100
AcDbEntity
  8
ARCHES
100
AcDbLine
 10
49499.99999999999
 20
0.0
 30
38280.00000000001
 11
55000.0
 21
0.0
 31
36000.0
  0
LINE
  5
80
330
17
100
AcDbEntity
  8
ARCHES
100
AcDbLine
 10
55000.0
 20
0.0
 30
36000.0
 11
60500.00000000001
 21
0.0
 31
33480.0
  0
LINE
  5
81
330
17
100
AcDbEntity
  8
ARCHES
100
AcDbLine
 10
60500.00000000001
 20
0.0
 30
33480.0
 11
66000.00000000001
 21
0.0
 31
30719.999999999996
  0
LINE
  5
82
330
17
100
AcDbEntity
  8
ARCHES
100
AcDbLine
 10
66000.00000000001
 20
0.0
 30
30719.999999999996
 11
71499.99999999999
 21
0.0
 31
27720.000000000007
  0
LINE
  5
83
330
17
100
AcDbEntity
  8
ARCHES
100
AcDbLine
 10
71499.99999999999
 20
0.0
 30
27720.000000000007
 11
77000.0
 21
0.0
 31
24480.0
  0
LINE
  5
84
330
17
100
AcDbEntity
  8
ARCHES
100
AcDbLine
 10
77000.0
 20
0.0
 30
24480.0
 11
82500.0
 21
0.0
 31
21000.0
  0
LINE
  5
85
330
17
100
AcDbEntity
  8
ARCHES
100
AcDbLine
 10
82500.0
 20
0.0
 30
21000.0
 11
88000.0
 21
0.0
 31
17279.999999999993
  0
LINE
  5
86
330
17
100
AcDbEntity
  8
ARCHES
100
AcDbLine
 10
88000.0
 20
0.0
 30
17279.999999999993
 11
93500.00000000001
 21
0.0
 31
13319.999999999993
  0
LINE
  5
87
330
17
100
AcDbEntity
  8
ARCHES
100
AcDbLine
 10
93500.00000000001
 20
0.0
 30
13319.999999999993
 11
98999.99999999999
 21
0.0
 31
9120.000000000007
  0
LINE
  5
88
330
17
100
AcDbEntity
  8
ARCHES
100
AcDbLine
 10
98999.99999999999
 20
0.0
 30
9120.000000000007
 11
104500.0
 21
0.0
 31
4680.000000000002
  0
LINE
  5
89
330
17
100
AcDbEntity
  8
ARCHES
100
AcDbLine
 10
104500.0
 20
0.0
 30
4680.000000000002
 11
110000.0
 21
0.0
 31
0.0
  0
LINE
  5
8A
330
17
100
AcDbEntity
  8
COLUMNS
100
AcDbLine
 10
-110000.0
 20
70000.0
 30
0.0
 11
-110000.0
 21
70000.0
 31
9600.0
  0
LINE
  5
8B
330
17
100
AcDbEntity
  8
COLUMNS
100
AcDbLine
 10
110000.0
 20
70000.0
 30
0.0
 11
110000.0
 21
70000.0
 31
9600.0
  0
LINE
  5
8C
330
17
100
AcDbEntity
  8
ARCHES
100
AcDbLine
 10
-110000.0
 20
70000.0
 30
0.0
 11
-104500.0
 21
70000.0
 31
4680.000000000002
  0
LINE
  5
8D
330
17
100
AcDbEntity
  8
ARCHES
100
AcDbLine
 10
-104500.0
 20
70000.0
 30
4680.000000000002
 11
-99000.0
 21
70000.0
 31
9119.999999999998
  0
LINE
  5
8E
330
17
100
AcDbEntity
  8
ARCHES
100
AcDbLine
 10
-99000.0
 20
70000.0
 30
9119.999999999998
 11
-93500.0
 21
70000.0
 31
13320.000000000004
  0
LINE
  5
8F
330
17
100
AcDbEntity
  8
ARCHES
100
AcDbLine
 10
-93500.0
 20
70000.0
 30
13320.000000000004
 11
-88000.0
 21
70000.0
 31
17279.999999999993
  0
LINE
  5
90
330
17
100
AcDbEntity
  8
ARCHES
100
AcDbLine
 10
-88000.0
 20
70000.0
 30
17279.999999999993
 11
-82500.0
 21
70000.0
 31
21000.0
  0
LINE
  5
91
330
17
100
AcDbEntity
  8
ARCHES
100
AcDbLine
 10
-82500.0
 20
70000.0
 30
21000.0
 11
-77000.0
 21
70000.0
 31
24480.0
  0
LINE
  5
92
330
17
100
AcDbEntity
  8
ARCHES
100
AcDbLine
 10
-77000.0
 20
70000.0
 30
24480.0
 11
-71500.0
 21
70000.0
 31
27719.999999999996
  0
LINE
  5
93
330
17
100
AcDbEntity
  8
ARCHES
100
AcDbLine
 10
-71500.0
 20
70000.0
 30
27719.999999999996
 11
-66000.0
 21
70000.0
 31
30720.0
  0
LINE
  5
94
330
17
100
AcDbEntity
  8
ARCHES
100
AcDbLine
 10
-66000.0
 20
70000.0
 30
30720.0
 11
-60500.00000000001
 21
70000.0
 31
33480.0
  0
LINE
  5
95
330
17
100
AcDbEntity
  8
ARCHES
100
AcDbLine
 10
-60500.00000000001
 20
70000.0
 30
33480.0
 11
-55000.0
 21
70000.0
 31
36000.0
  0
LINE
  5
96
330
17
100
AcDbEntity
  8
ARCHES
100
AcDbLine
 10
-55000.0
 20
70000.0
 30
36000.0
 11
-49499.99999999999
 21
70000.0
 31
38280.00000000001
  0
LINE
  5
97
330
17
100
AcDbEntity
  8
ARCHES
100
AcDbLine
 10
-49499.99999999999
 20
70000.0
 30
38280.00000000001
 11
-44000.0
 21
70000.0
 31
40320.0
  0
LINE
  5
98
330
17
100
AcDbEntity
  8
ARCHES
100
AcDbLine
 10
-44000.0
 20
70000.0
 30
40320.0
 11
-38500.0
 21
70000.0
 31
42120.0
  0
LINE
  5
99
330
17
100
AcDbEntity
  8
ARCHES
100
AcDbLine
 10
-38500.0
 20
70000.0
 30
42120.0
 11
-33000.00000000001
 21
70000.0
 31
43679.99999999999
  0
LINE
  5
9A
330
17
100
AcDbEntity
  8
ARCHES
100
AcDbLine
 10
-33000.00000000001
 20
70000.0
 30
43679.99999999999
 11
-27500.0
 21
70000.0
 31
45000.0
  0
LINE
  5
9B
330
17
100
AcDbEntity
  8
ARCHES
100
AcDbLine
 10
-27500.0
 20
70000.0
 30
45000.0
 11
-21999.999999999996
 21
70000.0
 31
46080.0
  0
LINE
  5
9C
330
17
100
AcDbEntity
  8
ARCHES
100
AcDbLine
 10
-21999.999999999996
 20
70000.0
 30
46080.0
 11
-16500.000000000004
 21
70000.0
 31
46920.0
  0
LINE
  5
9D
330
17
100
AcDbEntity
  8
ARCHES
100
AcDbLine
 10
-16500.000000000004
 20
70000.0
 30
46920.0
 11
-10999.999999999998
 21
70000.0
 31
47520.0
  0
LINE
  5
9E
330
17
100
AcDbEntity
  8
ARCHES
100
AcDbLine
 10
-10999.999999999998
 20
70000.0
 30
47520.0
 11
-5500.000000000005
 21
70000.0
 31
47880.0
  0
LINE
  5
9F
330
17
100
AcDbEntity
  8
ARCHES
100
AcDbLine
 10
-5500.000000000005
 20
70000.0
 30
47880.0
 11
0.0
 21
70000.0
 31
48000.0
  0
LINE
  5
A0
330
17
100
AcDbEntity
  8
ARCHES
100
AcDbLine
 10
0.0
 20
70000.0
 30
48000.0
 11
5500.000000000005
 21
70000.0
 31
47880.0
  0
LINE
  5
A1
330
17
100
AcDbEntity
  8
ARCHES
100
AcDbLine
 10
5500.000000000005
 20
70000.0
 30
47880.0
 11
11000.00000000001
 21
70000.0
 31
47520.0
  0
LINE
  5
A2
330
17
100
AcDbEntity
  8
ARCHES
100
AcDbLine
 10
11000.00000000001
 20
70000.0
 30
47520.0
 11
16499.99999999999
 21
70000.0
 31
46920.0
  0
LINE
  5
A3
330
17
100
AcDbEntity
  8
ARCHES
100
AcDbLine
 10
16499.99999999999
 20
70000.0
 30
46920.0
 11
21999.999999999996
 21
70000.0
 31
46080.0
  0
LINE
  5
A4
330
17
100
AcDbEntity
  8
ARCHES
100
AcDbLine
 10
21999.999999999996
 20
70000.0
 30
46080.0
 11
27500.0
 21
70000.0
 31
45000.0
  0
LINE
  5
A5
330
17
100
AcDbEntity
  8
ARCHES
100
AcDbLine
 10
27500.0
 20
70000.0
 30
45000.0
 11
33000.00000000001
 21
70000.0
 31
43679.99999999999
  0
LINE
  5
A6
330
17
100
AcDbEntity
  8
ARCHES
100
AcDbLine
 10
33000.00000000001
 20
70000.0
 30
43679.99999999999
 11
38500.00000000001
 21
70000.0
 31
42120.0
  0
LINE
  5
A7
330
17
100
AcDbEntity
  8
ARCHES
100
AcDbLine
 10
38500.00000000001
 20
70000.0
 30
42120.0
 11
43999.99999999999
 21
70000.0
 31
40320.00000000001
  0
LINE
  5
A8
330
17
100
AcDbEntity
  8
ARCHES
100
AcDbLine
 10
43999.99999999999
 20
70000.0
 30
40320.00000000001
 11
49499.99999999999
 21
70000.0
 31
38280.00000000001
  0
LINE
  5
A9
330
17
100
AcDbEntity
  8
ARCHES
100
AcDbLine
 10
49499.99999999999
 20
70000.0
 30
38280.00000000001
 11
55000.0
 21
70000.0
 31
36000.0
  0
LINE
  5
AA
330
17
100
AcDbEntity
  8
ARCHES
100
AcDbLine
 10
55000.0
 20
70000.0
 30
36000.0
 11
60500.00000000001
 21
70000.0
 31
33480.0
  0
LINE
  5
AB
330
17
100
AcDbEntity
  8
ARCHES
100
AcDbLine
 10
60500.00000000001
 20
70000.0
 30
33480.0
 11
66000.00000000001
 21
70000.0
 31
30719.999999999996
  0
LINE
  5
AC
330
17
100
AcDbEntity
  8
ARCHES
100
AcDbLine
 10
66000.00000000001
 20
70000.0
 30
30719.999999999996
 11
71499.99999999999
 21
70000.0
 31
27720.000000000007
  0
LINE
  5
AD
330
17
100
AcDbEntity
  8
ARCHES
100
AcDbLine
 10
71499.99999999999
 20
70000.0
 30
27720.000000000007
 11
77000.0
 21
70000.0
 31
24480.0
  0
LINE
  5
AE
330
17
100
AcDbEntity
  8
ARCHES
100
AcDbLine
 10
77000.0
 20
70000.0
 30
24480.0
 11
82500.0
 21
70000.0
 31
21000.0
  0
LINE
  5
AF
330
17
100
AcDbEntity
  8
ARCHES
100
AcDbLine
 10
82500.0
 20
70000.0
 30
21000.0
 11
88000.0
 21
70000.0
 31
17279.999999999993
  0
LINE
  5
B0
330
17
100
AcDbEntity
  8
ARCHES
100
AcDbLine
 10
88000.0
 20
70000.0
 30
17279.999999999993
 11
93500.00000000001
 21
70000.0
 31
13319.999999999993
  0
LINE
  5
B1
330
17
100
AcDbEntity
  8
ARCHES
100
AcDbLine
 10
93500.00000000001
 20
70000.0
 30
13319.999999999993
 11
98999.99999999999
 21
70000.0
 31
9120.000000000007
  0
LINE
  5
B2
330
17
100
AcDbEntity
  8
ARCHES
100
AcDbLine
 10
98999.99999999999
 20
70000.0
 30
9120.000000000007
 11
104500.0
 21
70000.0
 31
4680.000000000002
  0
LINE
  5
B3
330
17
100
AcDbEntity
  8
ARCHES
100
AcDbLine
 10
104500.0
 20
70000.0
 30
4680.000000000002
 11
110000.0
 21
70000.0
 31
0.0
  0
LINE
  5
B4
330
17
100
AcDbEntity
  8
RIBS
100
AcDbLine
 10
-110000.0
 20
-64166.666666666664
 30
0.0
 11
-104500.0
 21
-64166.666666666664
 31
4212.000000000002
  0
LINE
  5
B5
330
17
100
AcDbEntity
  8
RIBS
100
AcDbLine
 10
-104500.0
 20
-64166.666666666664
 30
4212.000000000002
 11
-99000.0
 21
-64166.666666666664
 31
8207.999999999998
  0
LINE
  5
B6
330
17
100
AcDbEntity
  8
RIBS
100
AcDbLine
 10
-99000.0
 20
-64166.666666666664
 30
8207.999999999998
 11
-93500.0
 21
-64166.666666666664
 31
11988.000000000004
  0
LINE
  5
B7
330
17
100
AcDbEntity
  8
RIBS
100
AcDbLine
 10
-93500.0
 20
-64166.666666666664
 30
11988.000000000004
 11
-88000.0
 21
-64166.666666666664
 31
15551.999999999995
  0
LINE
  5
B8
330
17
100
AcDbEntity
  8
RIBS
100
AcDbLine
 10
-88000.0
 20
-64166.666666666664
 30
15551.999999999995
 11
-82500.0
 21
-64166.666666666664
 31
18900.0
  0
LINE
  5
B9
330
17
100
AcDbEntity
  8
RIBS
100
AcDbLine
 10
-82500.0
 20
-64166.666666666664
 30
18900.0
 11
-77000.0
 21
-64166.666666666664
 31
22032.0
  0
LINE
  5
BA
330
17
100
AcDbEntity
  8
RIBS
100
AcDbLine
 10
-77000.0
 20
-64166.666666666664
 30
22032.0
 11
-71500.0
 21
-64166.666666666664
 31
24947.999999999996
  0
LINE
  5
BB
330
17
100
AcDbEntity
  8
RIBS
100
AcDbLine
 10
-71500.0
 20
-64166.666666666664
 30
24947.999999999996
 11
-66000.0
 21
-64166.666666666664
 31
27648.0
  0
LINE
  5
BC
330
17
100
AcDbEntity
  8
RIBS
100
AcDbLine
 10
-66000.0
 20
-64166.666666666664
 30
27648.0
 11
-60500.00000000001
 21
-64166.666666666664
 31
30132.0
  0
LINE
  5
BD
330
17
100
AcDbEntity
  8
RIBS
100
AcDbLine
 10
-60500.00000000001
 20
-64166.666666666664
 30
30132.0
 11
-55000.0
 21
-64166.666666666664
 31
32400.0
  0
LINE
  5
BE
330
17
100
AcDbEntity
  8
RIBS
100
AcDbLine
 10
-55000.0
 20
-64166.666666666664
 30
32400.0
 11
-49499.99999999999
 21
-64166.666666666664
 31
34452.00000000001
  0
LINE
  5
BF
330
17
100
AcDbEntity
  8
RIBS
100
AcDbLine
 10
-49499.99999999999
 20
-64166.666666666664
 30
34452.00000000001
 11
-44000.0
 21
-64166.666666666664
 31
36288.0
  0
LINE
  5
C0
330
17
100
AcDbEntity
  8
RIBS
100
AcDbLine
 10
-44000.0
 20
-64166.666666666664
 30
36288.0
 11
-38500.0
 21
-64166.666666666664
 31
37908.0
  0
LINE
  5
C1
330
17
100
AcDbEntity
  8
RIBS
100
AcDbLine
 10
-38500.0
 20
-64166.666666666664
 30
37908.0
 11
-33000.00000000001
 21
-64166.666666666664
 31
39311.99999999999
  0
LINE
  5
C2
330
17
100
AcDbEntity
  8
RIBS
100
AcDbLine
 10
-33000.00000000001
 20
-64166.666666666664
 30
39311.99999999999
 11
-27500.0
 21
-64166.666666666664
 31
40500.0
  0
LINE
  5
C3
330
17
100
AcDbEntity
  8
RIBS
100
AcDbLine
 10
-27500.0
 20
-64166.666666666664
 30
40500.0
 11
-21999.999999999996
 21
-64166.666666666664
 31
41472.0
  0
LINE
  5
C4
330
17
100
AcDbEntity
  8
RIBS
100
AcDbLine
 10
-21999.999999999996
 20
-64166.666666666664
 30
41472.0
 11
-16500.000000000004
 21
-64166.666666666664
 31
42228.0
  0
LINE
  5
C5
330
17
100
AcDbEntity
  8
RIBS
100
AcDbLine
 10
-16500.000000000004
 20
-64166.666666666664
 30
42228.0
 11
-10999.999999999998
 21
-64166.666666666664
 31
42768.0
  0
LINE
  5
C6
330
17
100
AcDbEntity
  8
RIBS
100
AcDbLine
 10
-10999.999999999998
 20
-64166.666666666664
 30
42768.0
 11
-5500.000000000005
 21
-64166.666666666664
 31
43092.0
  0
LINE
  5
C7
330
17
100
AcDbEntity
  8
RIBS
100
AcDbLine
 10
-5500.000000000005
 20
-64166.666666666664
 30
43092.0
 11
0.0
 21
-64166.666666666664
 31
43200.0
  0
LINE
  5
C8
330
17
100
AcDbEntity
  8
RIBS
100
AcDbLine
 10
0.0
 20
-64166.666666666664
 30
43200.0
 11
5500.000000000005
 21
-64166.666666666664
 31
43092.0
  0
LINE
  5
C9
330
17
100
AcDbEntity
  8
RIBS
100
AcDbLine
 10
5500.000000000005
 20
-64166.666666666664
 30
43092.0
 11
11000.00000000001
 21
-64166.666666666664
 31
42768.0
  0
LINE
  5
CA
330
17
100
AcDbEntity
  8
RIBS
100
AcDbLine
 10
11000.00000000001
 20
-64166.666666666664
 30
42768.0
 11
16499.99999999999
 21
-64166.666666666664
 31
42228.0
  0
LINE
  5
CB
330
17
100
AcDbEntity
  8
RIBS
100
AcDbLine
 10
16499.99999999999
 20
-64166.666666666664
 30
42228.0
 11
21999.999999999996
 21
-64166.666666666664
 31
41472.0
  0
LINE
  5
CC
330
17
100
AcDbEntity
  8
RIBS
100
AcDbLine
 10
21999.999999999996
 20
-64166.666666666664
 30
41472.0
 11
27500.0
 21
-64166.666666666664
 31
40500.0
  0
LINE
  5
CD
330
17
100
AcDbEntity
  8
RIBS
100
AcDbLine
 10
27500.0
 20
-64166.666666666664
 30
40500.0
 11
33000.00000000001
 21
-64166.666666666664
 31
39311.99999999999
  0
LINE
  5
CE
330
17
100
AcDbEntity
  8
RIBS
100
AcDbLine
 10
33000.00000000001
 20
-64166.666666666664
 30
39311.99999999999
 11
38500.00000000001
 21
-64166.666666666664
 31
37908.0
  0
LINE
  5
CF
330
17
100
AcDbEntity
  8
RIBS
100
AcDbLine
 10
38500.00000000001
 20
-64166.666666666664
 30
37908.0
 11
43999.99999999999
 21
-64166.666666666664
 31
36288.00000000001
  0
LINE
  5
D0
330
17
100
AcDbEntity
  8
RIBS
100
AcDbLine
 10
43999.99999999999
 20
-64166.666666666664
 30
36288.00000000001
 11
49499.99999999999
 21
-64166.666666666664
 31
34452.00000000001
  0
LINE
  5
D1
330
17
100
AcDbEntity
  8
RIBS
100
AcDbLine
 10
49499.99999999999
 20
-64166.666666666664
 30
34452.00000000001
 11
55000.0
 21
-64166.666666666664
 31
32400.0
  0
LINE
  5
D2
330
17
100
AcDbEntity
  8
RIBS
100
AcDbLine
 10
55000.0
 20
-64166.666666666664
 30
32400.0
 11
60500.00000000001
 21
-64166.666666666664
 31
30132.0
  0
LINE
  5
D3
330
17
100
AcDbEntity
  8
RIBS
100
AcDbLine
 10
60500.00000000001
 20
-64166.666666666664
 30
30132.0
 11
66000.00000000001
 21
-64166.666666666664
 31
27647.999999999996
  0
LINE
  5
D4
330
17
100
AcDbEntity
  8
RIBS
100
AcDbLine
 10
66000.00000000001
 20
-64166.666666666664
 30
27647.999999999996
 11
71499.99999999999
 21
-64166.666666666664
 31
24948.000000000007
  0
LINE
  5
D5
330
17
100
AcDbEntity
  8
RIBS
100
AcDbLine
 10
71499.99999999999
 20
-64166.666666666664
 30
24948.000000000007
 11
77000.0
 21
-64166.666666666664
 31
22032.0
  0
LINE
  5
D6
330
17
100
AcDbEntity
  8
RIBS
100
AcDbLine
 10
77000.0
 20
-64166.666666666664
 30
22032.0
 11
82500.0
 21
-64166.666666666664
 31
18900.0
  0
LINE
  5
D7
330
17
100
AcDbEntity
  8
RIBS
100
AcDbLine
 10
82500.0
 20
-64166.666666666664
 30
18900.0
 11
88000.0
 21
-64166.666666666664
 31
15551.999999999995
  0
LINE
  5
D8
330
17
100
AcDbEntity
  8
RIBS
100
AcDbLine
 10
88000.0
 20
-64166.666666666664
 30
15551.999999999995
 11
93500.00000000001
 21
-64166.666666666664
 31
11987.999999999995
  0
LINE
  5
D9
330
17
100
AcDbEntity
  8
RIBS
100
AcDbLine
 10
93500.00000000001
 20
-64166.666666666664
 30
11987.999999999995
 11
98999.99999999999
 21
-64166.666666666664
 31
8208.000000000007
  0
LINE
  5
DA
330
17
100
AcDbEntity
  8
RIBS
100
AcDbLine
 10
98999.99999999999
 20
-64166.666666666664
 30
8208.000000000007
 11
104500.0
 21
-64166.666666666664
 31
4212.000000000002
  0
LINE
  5
DB
330
17
100
AcDbEntity
  8
RIBS
100
AcDbLine
 10
104500.0
 20
-64166.666666666664
 30
4212.000000000002
 11
110000.0
 21
-64166.666666666664
 31
0.0
  0
LINE
  5
DC
330
17
100
AcDbEntity
  8
RIBS
100
AcDbLine
 10
-110000.0
 20
-52500.0
 30
0.0
 11
-104500.0
 21
-52500.0
 31
4436.371152066769
  0
LINE
  5
DD
330
17
100
AcDbEntity
  8
RIBS
100
AcDbLine
 10
-104500.0
 20
-52500.0
 30
4436.371152066769
 11
-99000.0
 21
-52500.0
 31
8645.236091207033
  0
LINE
  5
DE
330
17
100
AcDbEntity
  8
RIBS
100
AcDbLine
 10
-99000.0
 20
-52500.0
 30
8645.236091207033
 11
-93500.0
 21
-52500.0
 31
12626.594817420802
  0
LINE
  5
DF
330
17
100
AcDbEntity
  8
RIBS
100
AcDbLine
 10
-93500.0
 20
-52500.0
 30
12626.594817420802
 11
-88000.0
 21
-52500.0
 31
16380.447330708057
  0
LINE
  5
E0
330
17
100
AcDbEntity
  8
RIBS
100
AcDbLine
 10
-88000.0
 20
-52500.0
 30
16380.447330708057
 11
-82500.0
 21
-52500.0
 31
19906.793631068827
  0
LINE
  5
E1
330
17
100
AcDbEntity
  8
RIBS
100
AcDbLine
 10
-82500.0
 20
-52500.0
 30
19906.793631068827
 11
-77000.0
 21
-52500.0
 31
23205.63371850309
  0
LINE
  5
E2
330
17
100
AcDbEntity
  8
RIBS
100
AcDbLine
 10
-77000.0
 20
-52500.0
 30
23205.63371850309
 11
-71500.0
 21
-52500.0
 31
26276.96759301085
  0
LINE
  5
E3
330
17
100
AcDbEntity
  8
RIBS
100
AcDbLine
 10
-71500.0
 20
-52500.0
 30
26276.96759301085
 11
-66000.0
 21
-52500.0
 31
29120.795254592114
  0
LINE
  5
E4
330
17
100
AcDbEntity
  8
RIBS
100
AcDbLine
 10
-66000.0
 20
-52500.0
 30
29120.795254592114
 11
-60500.00000000001
 21
-52500.0
 31
31737.116703246873
  0
LINE
  5
E5
330
17
100
AcDbEntity
  8
RIBS
100
AcDbLine
 10
-60500.00000000001
 20
-52500.0
 30
31737.116703246873
 11
-55000.0
 21
-52500.0
 31
34125.93193897513
  0
LINE
  5
E6
330
17
100
AcDbEntity
  8
RIBS
100
AcDbLine
 10
-55000.0
 20
-52500.0
 30
34125.93193897513
 11
-49499.99999999999
 21
-52500.0
 31
36287.2409617769
  0
LINE
  5
E7
330
17
100
AcDbEntity
  8
RIBS
100
AcDbLine
 10
-49499.99999999999
 20
-52500.0
 30
36287.2409617769
 11
-44000.0
 21
-52500.0
 31
38221.04377165215
  0
LINE
  5
E8
330
17
100
AcDbEntity
  8
RIBS
100
AcDbLine
 10
-44000.0
 20
-52500.0
 30
38221.04377165215
 11
-38500.0
 21
-52500.0
 31
39927.340368600904
  0
LINE
  5
E9
330
17
100
AcDbEntity
  8
RIBS
100
AcDbLine
 10
-38500.0
 20
-52500.0
 30
39927.340368600904
 11
-33000.00000000001
 21
-52500.0
 31
41406.130752623154
  0
LINE
  5
EA
330
17
100
AcDbEntity
  8
RIBS
100
AcDbLine
 10
-33000.00000000001
 20
-52500.0
 30
41406.130752623154
 11
-27500.0
 21
-52500.0
 31
42657.41492371892
  0
LINE
  5
EB
330
17
100
AcDbEntity
  8
RIBS
100
AcDbLine
 10
-27500.0
 20
-52500.0
 30
42657.41492371892
 11
-21999.999999999996
 21
-52500.0
 31
43681.19288188817
  0
LINE
  5
EC
330
17
100
AcDbEntity
  8
RIBS
100
AcDbLine
 10
-21999.999999999996
 20
-52500.0
 30
43681.19288188817
 11
-16500.000000000004
 21
-52500.0
 31
44477.464627130925
  0
LINE
  5
ED
330
17
100
AcDbEntity
  8
RIBS
100
AcDbLine
 10
-16500.000000000004
 20
-52500.0
 30
44477.464627130925
 11
-10999.999999999998
 21
-52500.0
 31
45046.23015944718
  0
LINE
  5
EE
330
17
100
AcDbEntity
  8
RIBS
100
AcDbLine
 10
-10999.999999999998
 20
-52500.0
 30
45046.23015944718
 11
-5500.000000000005
 21
-52500.0
 31
45387.48947883693
  0
LINE
  5
EF
330
17
100
AcDbEntity
  8
RIBS
100
AcDbLine
 10
-5500.000000000005
 20
-52500.0
 30
45387.48947883693
 11
0.0
 21
-52500.0
 31
45501.24258530018
  0
LINE
  5
F0
330
17
100
AcDbEntity
  8
RIBS
100
AcDbLine
 10
0.0
 20
-52500.0
 30
45501.24258530018
 11
5500.000000000005
 21
-52500.0
 31
45387.48947883693
  0
LINE
  5
F1
330
17
100
AcDbEntity
  8
RIBS
100
AcDbLine
 10
5500.000000000005
 20
-52500.0
 30
45387.48947883693
 11
11000.00000000001
 21
-52500.0
 31
45046.23015944718
  0
LINE
  5
F2
330
17
100
AcDbEntity
  8
RIBS
100
AcDbLine
 10
11000.00000000001
 20
-52500.0
 30
45046.23015944718
 11
16499.99999999999
 21
-52500.0
 31
44477.464627130925
  0
LINE
  5
F3
330
17
100
AcDbEntity
  8
RIBS
100
AcDbLine
 10
16499.99999999999
 20
-52500.0
 30
44477.464627130925
 11
21999.999999999996
 21
-52500.0
 31
43681.19288188817
  0
LINE
  5
F4
330
17
100
AcDbEntity
  8
RIBS
100
AcDbLine
 10
21999.999999999996
 20
-52500.0
 30
43681.19288188817
 11
27500.0
 21
-52500.0
 31
42657.41492371892
  0
LINE
  5
F5
330
17
100
AcDbEntity
  8
RIBS
100
AcDbLine
 10
27500.0
 20
-52500.0
 30
42657.41492371892
 11
33000.00000000001
 21
-52500.0
 31
41406.130752623154
  0
LINE
  5
F6
330
17
100
AcDbEntity
  8
RIBS
100
AcDbLine
 10
33000.00000000001
 20
-52500.0
 30
41406.130752623154
 11
38500.00000000001
 21
-52500.0
 31
39927.340368600904
  0
LINE
  5
F7
330
17
100
AcDbEntity
  8
RIBS
100
AcDbLine
 10
38500.00000000001
 20
-52500.0
 30
39927.340368600904
 11
43999.99999999999
 21
-52500.0
 31
38221.043771652156
  0
LINE
  5
F8
330
17
100
AcDbEntity
  8
RIBS
100
AcDbLine
 10
43999.99999999999
 20
-52500.0
 30
38221.043771652156
 11
49499.99999999999
 21
-52500.0
 31
36287.2409617769
  0
LINE
  5
F9
330
17
100
AcDbEntity
  8
RIBS
100
AcDbLine
 10
49499.99999999999
 20
-52500.0
 30
36287.2409617769
 11
55000.0
 21
-52500.0
 31
34125.93193897513
  0
LINE
  5
FA
330
17
100
AcDbEntity
  8
RIBS
100
AcDbLine
 10
55000.0
 20
-52500.0
 30
34125.93193897513
 11
60500.00000000001
 21
-52500.0
 31
31737.116703246873
  0
LINE
  5
FB
330
17
100
AcDbEntity
  8
RIBS
100
AcDbLine
 10
60500.00000000001
 20
-52500.0
 30
31737.116703246873
 11
66000.00000000001
 21
-52500.0
 31
29120.79525459211
  0
LINE
  5
FC
330
17
100
AcDbEntity
  8
RIBS
100
AcDbLine
 10
66000.00000000001
 20
-52500.0
 30
29120.79525459211
 11
71499.99999999999
 21
-52500.0
 31
26276.96759301086
  0
LINE
  5
FD
330
17
100
AcDbEntity
  8
RIBS
100
AcDbLine
 10
71499.99999999999
 20
-52500.0
 30
26276.96759301086
 11
77000.0
 21
-52500.0
 31
23205.63371850309
  0
LINE
  5
FE
330
17
100
AcDbEntity
  8
RIBS
100
AcDbLine
 10
77000.0
 20
-52500.0
 30
23205.63371850309
 11
82500.0
 21
-52500.0
 31
19906.793631068827
  0
LINE
  5
FF
330
17
100
AcDbEntity
  8
RIBS
100
AcDbLine
 10
82500.0
 20
-52500.0
 30
19906.793631068827
 11
88000.0
 21
-52500.0
 31
16380.447330708057
  0
LINE
  5
100
330
17
100
AcDbEntity
  8
RIBS
100
AcDbLine
 10
88000.0
 20
-52500.0
 30
16380.447330708057
 11
93500.00000000001
 21
-52500.0
 31
12626.594817420792
  0
LINE
  5
101
330
17
100
AcDbEntity
  8
RIBS
100
AcDbLine
 10
93500.00000000001
 20
-52500.0
 30
12626.594817420792
 11
98999.99999999999
 21
-52500.0
 31
8645.23609120704
  0
LINE
  5
102
330
17
100
AcDbEntity
  8
RIBS
100
AcDbLine
 10
98999.99999999999
 20
-52500.0
 30
8645.23609120704
 11
104500.0
 21
-52500.0
 31
4436.371152066769
  0
LINE
  5
103
330
17
100
AcDbEntity
  8
RIBS
100
AcDbLine
 10
104500.0
 20
-52500.0
 30
4436.371152066769
 11
110000.0
 21
-52500.0
 31
0.0
  0
LINE
  5
104
330
17
100
AcDbEntity
  8
RIBS
100
AcDbLine
 10
-110000.0
 20
-40833.333333333336
 30
0.0
 11
-104500.0
 21
-40833.333333333336
 31
4605.808420890097
  0
LINE
  5
105
330
17
100
AcDbEntity
  8
RIBS
100
AcDbLine
 10
-104500.0
 20
-40833.333333333336
 30
4605.808420890097
 11
-99000.0
 21
-40833.333333333336
 31
8975.4215381448
  0
LINE
  5
106
330
17
100
AcDbEntity
  8
RIBS
100
AcDbLine
 10
-99000.0
 20
-40833.333333333336
 30
8975.4215381448
 11
-93500.0
 21
-40833.333333333336
 31
13108.839351764122
  0
LINE
  5
107
330
17
100
AcDbEntity
  8
RIBS
100
AcDbLine
 10
-93500.0
 20
-40833.333333333336
 30
13108.839351764122
 11
-88000.0
 21
-40833.333333333336
 31
17006.061861748036
  0
LINE
  5
108
330
17
100
AcDbEntity
  8
RIBS
100
AcDbLine
 10
-88000.0
 20
-40833.333333333336
 30
17006.061861748036
 11
-82500.0
 21
-40833.333333333336
 31
20667.089068096582
  0
LINE
  5
109
330
17
100
AcDbEntity
  8
RIBS
100
AcDbLine
 10
-82500.0
 20
-40833.333333333336
 30
20667.089068096582
 11
-77000.0
 21
-40833.333333333336
 31
24091.92097080973
  0
LINE
  5
10A
330
17
100
AcDbEntity
  8
RIBS
100
AcDbLine
 10
-77000.0
 20
-40833.333333333336
 30
24091.92097080973
 11
-71500.0
 21
-40833.333333333336
 31
27280.557569887485
  0
LINE
  5
10B
330
17
100
AcDbEntity
  8
RIBS
100
AcDbLine
 10
-71500.0
 20
-40833.333333333336
 30
27280.557569887485
 11
-66000.0
 21
-40833.333333333336
 31
30232.998865329857
  0
LINE
  5
10C
330
17
100
AcDbEntity
  8
RIBS
100
AcDbLine
 10
-66000.0
 20
-40833.333333333336
 30
30232.998865329857
 11
-60500.00000000001
 21
-40833.333333333336
 31
32949.24485713684
  0
LINE
  5
10D
330
17
100
AcDbEntity
  8
RIBS
100
AcDbLine
 10
-60500.00000000001
 20
-40833.333333333336
 30
32949.24485713684
 11
-55000.0
 21
-40833.333333333336
 31
35429.29554530843
  0
LINE
  5
10E
330
17
100
AcDbEntity
  8
RIBS
100
AcDbLine
 10
-55000.0
 20
-40833.333333333336
 30
35429.29554530843
 11
-49499.99999999999
 21
-40833.333333333336
 31
37673.15092984463
  0
LINE
  5
10F
330
17
100
AcDbEntity
  8
RIBS
100
AcDbLine
 10
-49499.99999999999
 20
-40833.333333333336
 30
37673.15092984463
 11
-44000.0
 21
-40833.333333333336
 31
39680.81101074544
  0
LINE
  5
110
330
17
100
AcDbEntity
  8
RIBS
100
AcDbLine
 10
-44000.0
 20
-40833.333333333336
 30
39680.81101074544
 11
-38500.0
 21
-40833.333333333336
 31
41452.27578801086
  0
LINE
  5
111
330
17
100
AcDbEntity
  8
RIBS
100
AcDbLine
 10
-38500.0
 20
-40833.333333333336
 30
41452.27578801086
 11
-33000.00000000001
 21
-40833.333333333336
 31
42987.54526164088
  0
LINE
  5
112
330
17
100
AcDbEntity
  8
RIBS
100
AcDbLine
 10
-33000.00000000001
 20
-40833.333333333336
 30
42987.54526164088
 11
-27500.0
 21
-40833.333333333336
 31
44286.61943163553
  0
LINE
  5
113
330
17
100
AcDbEntity
  8
RIBS
100
AcDbLine
 10
-27500.0
 20
-40833.333333333336
 30
44286.61943163553
 11
-21999.999999999996
 21
-40833.333333333336
 31
45349.49829799479
  0
LINE
  5
114
330
17
100
AcDbEntity
  8
RIBS
100
AcDbLine
 10
-21999.999999999996
 20
-40833.333333333336
 30
45349.49829799479
 11
-16500.000000000004
 21
-40833.333333333336
 31
46176.18186071865
  0
LINE
  5
115
330
17
100
AcDbEntity
  8
RIBS
100
AcDbLine
 10
-16500.000000000004
 20
-40833.333333333336
 30
46176.18186071865
 11
-10999.999999999998
 21
-40833.333333333336
 31
46766.670119807124
  0
LINE
  5
116
330
17
100
AcDbEntity
  8
RIBS
100
AcDbLine
 10
-10999.999999999998
 20
-40833.333333333336
 30
46766.670119807124
 11
-5500.000000000005
 21
-40833.333333333336
 31
47120.96307526021
  0
LINE
  5
117
330
17
100
AcDbEntity
  8
RIBS
100
AcDbLine
 10
-5500.000000000005
 20
-40833.333333333336
 30
47120.96307526021
 11
0.0
 21
-40833.333333333336
 31
47239.0607270779
  0
LINE
  5
118
330
17
100
AcDbEntity
  8
RIBS
100
AcDbLine
 10
0.0
 20
-40833.333333333336
 30
47239.0607270779
 11
5500.000000000005
 21
-40833.333333333336
 31
47120.96307526021
  0
LINE
  5
119
330
17
100
AcDbEntity
  8
RIBS
100
AcDbLine
 10
5500.000000000005
 20
-40833.333333333336
 30
47120.96307526021
 11
11000.00000000001
 21
-40833.333333333336
 31
46766.670119807124
  0
LINE
  5
11A
330
17
100
AcDbEntity
  8
RIBS
100
AcDbLine
 10
11000.00000000001
 20
-40833.333333333336
 30
46766.670119807124
 11
16499.99999999999
 21
-40833.333333333336
 31
46176.18186071865
  0
LINE
  5
11B
330
17
100
AcDbEntity
  8
RIBS
100
AcDbLine
 10
16499.99999999999
 20
-40833.333333333336
 30
46176.18186071865
 11
21999.999999999996
 21
-40833.333333333336
 31
45349.49829799479
  0
LINE
  5
11C
330
17
100
AcDbEntity
  8
RIBS
100
AcDbLine
 10
21999.999999999996
 20
-40833.333333333336
 30
45349.49829799479
 11
27500.0
 21
-40833.333333333336
 31
44286.61943163553
  0
LINE
  5
11D
330
17
100
AcDbEntity
  8
RIBS
100
AcDbLine
 10
27500.0
 20
-40833.333333333336
 30
44286.61943163553
 11
33000.00000000001
 21
-40833.333333333336
 31
42987.54526164088
  0
LINE
  5
11E
330
17
100
AcDbEntity
  8
RIBS
100
AcDbLine
 10
33000.00000000001
 20
-40833.333333333336
 30
42987.54526164088
 11
38500.00000000001
 21
-40833.333333333336
 31
41452.27578801086
  0
LINE
  5
11F
330
17
100
AcDbEntity
  8
RIBS
100
AcDbLine
 10
38500.00000000001
 20
-40833.333333333336
 30
41452.27578801086
 11
43999.99999999999
 21
-40833.333333333336
 31
39680.81101074545
  0
LINE
  5
120
330
17
100
AcDbEntity
  8
RIBS
100
AcDbLine
 10
43999.99999999999
 20
-40833.333333333336
 30
39680.81101074545
 11
49499.99999999999
 21
-40833.333333333336
 31
37673.15092984463
  0
LINE
  5
121
330
17
100
AcDbEntity
  8
RIBS
100
AcDbLine
 10
49499.99999999999
 20
-40833.333333333336
 30
37673.15092984463
 11
55000.0
 21
-40833.333333333336
 31
35429.29554530843
  0
LINE
  5
122
330
17
100
AcDbEntity
  8
RIBS
100
AcDbLine
 10
55000.0
 20
-40833.333333333336
 30
35429.29554530843
 11
60500.00000000001
 21
-40833.333333333336
 31
32949.24485713684
  0
LINE
  5
123
330
17
100
AcDbEntity
  8
RIBS
100
AcDbLine
 10
60500.00000000001
 20
-40833.333333333336
 30
32949.24485713684
 11
66000.00000000001
 21
-40833.333333333336
 31
30232.998865329853
  0
LINE
  5
124
330
17
100
AcDbEntity
  8
RIBS
100
AcDbLine
 10
66000.00000000001
 20
-40833.333333333336
 30
30232.998865329853
 11
71499.99999999999
 21
-40833.333333333336
 31
27280.557569887496
  0
LINE
  5
125
330
17
100
AcDbEntity
  8
RIBS
100
AcDbLine
 10
71499.99999999999
 20
-40833.333333333336
 30
27280.557569887496
 11
77000.0
 21
-40833.333333333336
 31
24091.92097080973
  0
LINE
  5
126
330
17
100
AcDbEntity
  8
RIBS
100
AcDbLine
 10
77000.0
 20
-40833.333333333336
 30
24091.92097080973
 11
82500.0
 21
-40833.333333333336
 31
20667.089068096582
  0
LINE
  5
127
330
17
100
AcDbEntity
  8
RIBS
100
AcDbLine
 10
82500.0
 20
-40833.333333333336
 30
20667.089068096582
 11
88000.0
 21
-40833.333333333336
 31
17006.061861748036
  0
LINE
  5
128
330
17
100
AcDbEntity
  8
RIBS
100
AcDbLine
 10
88000.0
 20
-40833.333333333336
 30
17006.061861748036
 11
93500.00000000001
 21
-40833.333333333336
 31
13108.83935176411
  0
LINE
  5
129
330
17
100
AcDbEntity
  8
RIBS
100
AcDbLine
 10
93500.00000000001
 20
-40833.333333333336
 30
13108.83935176411
 11
98999.99999999999
 21
-40833.333333333336
 31
8975.421538144808
  0
LINE
  5
12A
330
17
100
AcDbEntity
  8
RIBS
100
AcDbLine
 10
98999.99999999999
 20
-40833.333333333336
 30
8975.421538144808
 11
104500.0
 21
-40833.333333333336
 31
4605.808420890097
  0
LINE
  5
12B
330
17
100
AcDbEntity
  8
RIBS
100
AcDbLine
 10
104500.0
 20
-40833.333333333336
 30
4605.808420890097
 11
110000.0
 21
-40833.333333333336
 31
0.0
  0
LINE
  5
12C
330
17
100
AcDbEntity
  8
RIBS
100
AcDbLine
 10
-110000.0
 20
-29166.66666666667
 30
0.0
 11
-104500.0
 21
-29166.66666666667
 31
4678.827653730699
  0
LINE
  5
12D
330
17
100
AcDbEntity
  8
RIBS
100
AcDbLine
 10
-104500.0
 20
-29166.66666666667
 30
4678.827653730699
 11
-99000.0
 21
-29166.66666666667
 31
9117.715427782896
  0
LINE
  5
12E
330
17
100
AcDbEntity
  8
RIBS
100
AcDbLine
 10
-99000.0
 20
-29166.66666666667
 30
9117.715427782896
 11
-93500.0
 21
-29166.66666666667
 31
13316.663322156604
  0
LINE
  5
12F
330
17
100
AcDbEntity
  8
RIBS
100
AcDbLine
 10
-93500.0
 20
-29166.66666666667
 30
13316.663322156604
 11
-88000.0
 21
-29166.66666666667
 31
17275.6713368518
  0
LINE
  5
130
330
17
100
AcDbEntity
  8
RIBS
100
AcDbLine
 10
-88000.0
 20
-29166.66666666667
 30
17275.6713368518
 11
-82500.0
 21
-29166.66666666667
 31
20994.739471868514
  0
LINE
  5
131
330
17
100
AcDbEntity
  8
RIBS
100
AcDbLine
 10
-82500.0
 20
-29166.66666666667
 30
20994.739471868514
 11
-77000.0
 21
-29166.66666666667
 31
24473.867727206725
  0
LINE
  5
132
330
17
100
AcDbEntity
  8
RIBS
100
AcDbLine
 10
-77000.0
 20
-29166.66666666667
 30
24473.867727206725
 11
-71500.0
 21
-29166.66666666667
 31
27713.056102866434
  0
LINE
  5
133
330
17
100
AcDbEntity
  8
RIBS
100
AcDbLine
 10
-71500.0
 20
-29166.66666666667
 30
27713.056102866434
 11
-66000.0
 21
-29166.66666666667
 31
30712.304598847655
  0
LINE
  5
134
330
17
100
AcDbEntity
  8
RIBS
100
AcDbLine
 10
-66000.0
 20
-29166.66666666667
 30
30712.304598847655
 11
-60500.00000000001
 21
-29166.66666666667
 31
33471.61321515037
  0
LINE
  5
135
330
17
100
AcDbEntity
  8
RIBS
100
AcDbLine
 10
-60500.00000000001
 20
-29166.66666666667
 30
33471.61321515037
 11
-55000.0
 21
-29166.66666666667
 31
35990.98195177459
  0
LINE
  5
136
330
17
100
AcDbEntity
  8
RIBS
100
AcDbLine
 10
-55000.0
 20
-29166.66666666667
 30
35990.98195177459
 11
-49499.99999999999
 21
-29166.66666666667
 31
38270.41080872033
  0
LINE
  5
137
330
17
100
AcDbEntity
  8
RIBS
100
AcDbLine
 10
-49499.99999999999
 20
-29166.66666666667
 30
38270.41080872033
 11
-44000.0
 21
-29166.66666666667
 31
40309.899785987545
  0
LINE
  5
138
330
17
100
AcDbEntity
  8
RIBS
100
AcDbLine
 10
-44000.0
 20
-29166.66666666667
 30
40309.899785987545
 11
-38500.0
 21
-29166.66666666667
 31
42109.448883576275
  0
LINE
  5
139
330
17
100
AcDbEntity
  8
RIBS
100
AcDbLine
 10
-38500.0
 20
-29166.66666666667
 30
42109.448883576275
 11
-33000.00000000001
 21
-29166.66666666667
 31
43669.0581014865
  0
LINE
  5
13A
330
17
100
AcDbEntity
  8
RIBS
100
AcDbLine
 10
-33000.00000000001
 20
-29166.66666666667
 30
43669.0581014865
 11
-27500.0
 21
-29166.66666666667
 31
44988.72743971824
  0
LINE
  5
13B
330
17
100
AcDbEntity
  8
RIBS
100
AcDbLine
 10
-27500.0
 20
-29166.66666666667
 30
44988.72743971824
 11
-21999.999999999996
 21
-29166.66666666667
 31
46068.456898271485
  0
LINE
  5
13C
330
17
100
AcDbEntity
  8
RIBS
100
AcDbLine
 10
-21999.999999999996
 20
-29166.66666666667
 30
46068.456898271485
 11
-16500.000000000004
 21
-29166.66666666667
 31
46908.246477146226
  0
LINE
  5
13D
330
17
100
AcDbEntity
  8
RIBS
100
AcDbLine
 10
-16500.000000000004
 20
-29166.66666666667
 30
46908.246477146226
 11
-10999.999999999998
 21
-29166.66666666667
 31
47508.096176342464
  0
LINE
  5
13E
330
17
100
AcDbEntity
  8
RIBS
100
AcDbLine
 10
-10999.999999999998
 20
-29166.66666666667
 30
47508.096176342464
 11
-5500.000000000005
 21
-29166.66666666667
 31
47868.005995860214
  0
LINE
  5
13F
330
17
100
AcDbEntity
  8
RIBS
100
AcDbLine
 10
-5500.000000000005
 20
-29166.66666666667
 30
47868.005995860214
 11
0.0
 21
-29166.66666666667
 31
47987.97593569946
  0
LINE
  5
140
330
17
100
AcDbEntity
  8
RIBS
100
AcDbLine
 10
0.0
 20
-29166.66666666667
 30
47987.97593569946
 11
5500.000000000005
 21
-29166.66666666667
 31
47868.005995860214
  0
LINE
  5
141
330
17
100
AcDbEntity
  8
RIBS
100
AcDbLine
 10
5500.000000000005
 20
-29166.66666666667
 30
47868.005995860214
 11
11000.00000000001
 21
-29166.66666666667
 31
47508.096176342464
  0
LINE
  5
142
330
17
100
AcDbEntity
  8
RIBS
100
AcDbLine
 10
11000.00000000001
 20
-29166.66666666667
 30
47508.096176342464
 11
16499.99999999999
 21
-29166.66666666667
 31
46908.246477146226
  0
LINE
  5
143
330
17
100
AcDbEntity
  8
RIBS
100
AcDbLine
 10
16499.99999999999
 20
-29166.66666666667
 30
46908.246477146226
 11
21999.999999999996
 21
-29166.66666666667
 31
46068.456898271485
  0
LINE
  5
144
330
17
100
AcDbEntity
  8
RIBS
100
AcDbLine
 10
21999.999999999996
 20
-29166.66666666667
 30
46068.456898271485
 11
27500.0
 21
-29166.66666666667
 31
44988.72743971824
  0
LINE
  5
145
330
17
100
AcDbEntity
  8
RIBS
100
AcDbLine
 10
27500.0
 20
-29166.66666666667
 30
44988.72743971824
 11
33000.00000000001
 21
-29166.66666666667
 31
43669.0581014865
  0
LINE
  5
146
330
17
100
AcDbEntity
  8
RIBS
100
AcDbLine
 10
33000.00000000001
 20
-29166.66666666667
 30
43669.0581014865
 11
38500.00000000001
 21
-29166.66666666667
 31
42109.448883576275
  0
LINE
  5
147
330
17
100
AcDbEntity
  8
RIBS
100
AcDbLine
 10
38500.00000000001
 20
-29166.66666666667
 30
42109.448883576275
 11
43999.99999999999
 21
-29166.66666666667
 31
40309.89978598755
  0
LINE
  5
148
330
17
100
AcDbEntity
  8
RIBS
100
AcDbLine
 10
43999.99999999999
 20
-29166.66666666667
 30
40309.89978598755
 11
49499.99999999999
 21
-29166.66666666667
 31
38270.41080872033
  0
LINE
  5
149
330
17
100
AcDbEntity
  8
RIBS
100
AcDbLine
 10
49499.99999999999
 20
-29166.66666666667
 30
38270.41080872033
 11
55000.0
 21
-29166.66666666667
 31
35990.98195177459
  0
LINE
  5
14A
330
17
100
AcDbEntity
  8
RIBS
100
AcDbLine
 10
55000.0
 20
-29166.66666666667
 30
35990.98195177459
 11
60500.00000000001
 21
-29166.66666666667
 31
33471.61321515037
  0
LINE
  5
14B
330
17
100
AcDbEntity
  8
RIBS
100
AcDbLine
 10
60500.00000000001
 20
-29166.66666666667
 30
33471.61321515037
 11
66000.00000000001
 21
-29166.66666666667
 31
30712.30459884765
  0
LINE
  5
14C
330
17
100
AcDbEntity
  8
RIBS
100
AcDbLine
 10
66000.00000000001
 20
-29166.66666666667
 30
30712.30459884765
 11
71499.99999999999
 21
-29166.66666666667
 31
27713.056102866445
  0
LINE
  5
14D
330
17
100
AcDbEntity
  8
RIBS
100
AcDbLine
 10
71499.99999999999
 20
-29166.66666666667
 30
27713.056102866445
 11
77000.0
 21
-29166.66666666667
 31
24473.867727206725
  0
LINE
  5
14E
330
17
100
AcDbEntity
  8
RIBS
100
AcDbLine
 10
77000.0
 20
-29166.66666666667
 30
24473.867727206725
 11
82500.0
 21
-29166.66666666667
 31
20994.739471868514
  0
LINE
  5
14F
330
17
100
AcDbEntity
  8
RIBS
100
AcDbLine
 10
82500.0
 20
-29166.66666666667
 30
20994.739471868514
 11
88000.0
 21
-29166.66666666667
 31
17275.6713368518
  0
LINE
  5
150
330
17
100
AcDbEntity
  8
RIBS
100
AcDbLine
 10
88000.0
 20
-29166.66666666667
 30
17275.6713368518
 11
93500.00000000001
 21
-29166.66666666667
 31
13316.663322156593
  0
LINE
  5
151
330
17
100
AcDbEntity
  8
RIBS
100
AcDbLine
 10
93500.00000000001
 20
-29166.66666666667
 30
13316.663322156593
 11
98999.99999999999
 21
-29166.66666666667
 31
9117.715427782905
  0
LINE
  5
152
330
17
100
AcDbEntity
  8
RIBS
100
AcDbLine
 10
98999.99999999999
 20
-29166.66666666667
 30
9117.715427782905
 11
104500.0
 21
-29166.66666666667
 31
4678.827653730699
  0
LINE
  5
153
330
17
100
AcDbEntity
  8
RIBS
100
AcDbLine
 10
104500.0
 20
-29166.66666666667
 30
4678.827653730699
 11
110000.0
 21
-29166.66666666667
 31
0.0
  0
LINE
  5
154
330
17
100
AcDbEntity
  8
RIBS
100
AcDbLine
 10
-110000.0
 20
-17500.0
 30
0.0
 11
-104500.0
 21
-17500.0
 31
4637.55119575442
  0
LINE
  5
155
330
17
100
AcDbEntity
  8
RIBS
100
AcDbLine
 10
-104500.0
 20
-17500.0
 30
4637.55119575442
 11
-99000.0
 21
-17500.0
 31
9037.27925326502
  0
LINE
  5
156
330
17
100
AcDbEntity
  8
RIBS
100
AcDbLine
 10
-99000.0
 20
-17500.0
 30
9037.27925326502
 11
-93500.0
 21
-17500.0
 31
13199.184172531812
  0
LINE
  5
157
330
17
100
AcDbEntity
  8
RIBS
100
AcDbLine
 10
-93500.0
 20
-17500.0
 30
13199.184172531812
 11
-88000.0
 21
-17500.0
 31
17123.265953554772
  0
LINE
  5
158
330
17
100
AcDbEntity
  8
RIBS
100
AcDbLine
 10
-88000.0
 20
-17500.0
 30
17123.265953554772
 11
-82500.0
 21
-17500.0
 31
20809.524596333933
  0
LINE
  5
159
330
17
100
AcDbEntity
  8
RIBS
100
AcDbLine
 10
-82500.0
 20
-17500.0
 30
20809.524596333933
 11
-77000.0
 21
-17500.0
 31
24257.96010086927
  0
LINE
  5
15A
330
17
100
AcDbEntity
  8
RIBS
100
AcDbLine
 10
-77000.0
 20
-17500.0
 30
24257.96010086927
 11
-71500.0
 21
-17500.0
 31
27468.572467160786
  0
LINE
  5
15B
330
17
100
AcDbEntity
  8
RIBS
100
AcDbLine
 10
-71500.0
 20
-17500.0
 30
27468.572467160786
 11
-66000.0
 21
-17500.0
 31
30441.361695208496
  0
LINE
  5
15C
330
17
100
AcDbEntity
  8
RIBS
100
AcDbLine
 10
-66000.0
 20
-17500.0
 30
30441.361695208496
 11
-60500.00000000001
 21
-17500.0
 31
33176.327785012385
  0
LINE
  5
15D
330
17
100
AcDbEntity
  8
RIBS
100
AcDbLine
 10
-60500.00000000001
 20
-17500.0
 30
33176.327785012385
 11
-55000.0
 21
-17500.0
 31
35673.47073657245
  0
LINE
  5
15E
330
17
100
AcDbEntity
  8
RIBS
100
AcDbLine
 10
-55000.0
 20
-17500.0
 30
35673.47073657245
 11
-49499.99999999999
 21
-17500.0
 31
37932.79054988872
  0
LINE
  5
15F
330
17
100
AcDbEntity
  8
RIBS
100
AcDbLine
 10
-49499.99999999999
 20
-17500.0
 30
37932.79054988872
 11
-44000.0
 21
-17500.0
 31
39954.28722496115
  0
LINE
  5
160
330
17
100
AcDbEntity
  8
RIBS
100
AcDbLine
 10
-44000.0
 20
-17500.0
 30
39954.28722496115
 11
-38500.0
 21
-17500.0
 31
41737.96076178977
  0
LINE
  5
161
330
17
100
AcDbEntity
  8
RIBS
100
AcDbLine
 10
-38500.0
 20
-17500.0
 30
41737.96076178977
 11
-33000.00000000001
 21
-17500.0
 31
43283.81116037457
  0
LINE
  5
162
330
17
100
AcDbEntity
  8
RIBS
100
AcDbLine
 10
-33000.00000000001
 20
-17500.0
 30
43283.81116037457
 11
-27500.0
 21
-17500.0
 31
44591.83842071557
  0
LINE
  5
163
330
17
100
AcDbEntity
  8
RIBS
100
AcDbLine
 10
-27500.0
 20
-17500.0
 30
44591.83842071557
 11
-21999.999999999996
 21
-17500.0
 31
45662.04254281274
  0
LINE
  5
164
330
17
100
AcDbEntity
  8
RIBS
100
AcDbLine
 10
-21999.999999999996
 20
-17500.0
 30
45662.04254281274
 11
-16500.000000000004
 21
-17500.0
 31
46494.4235266661
  0
LINE
  5
165
330
17
100
AcDbEntity
  8
RIBS
100
AcDbLine
 10
-16500.000000000004
 20
-17500.0
 30
46494.4235266661
 11
-10999.999999999998
 21
-17500.0
 31
47088.98137227564
  0
LINE
  5
166
330
17
100
AcDbEntity
  8
RIBS
100
AcDbLine
 10
-10999.999999999998
 20
-17500.0
 30
47088.98137227564
 11
-5500.000000000005
 21
-17500.0
 31
47445.71607964137
  0
LINE
  5
167
330
17
100
AcDbEntity
  8
RIBS
100
AcDbLine
 10
-5500.000000000005
 20
-17500.0
 30
47445.71607964137
 11
0.0
 21
-17500.0
 31
47564.62764876327
  0
LINE
  5
168
330
17
100
AcDbEntity
  8
RIBS
100
AcDbLine
 10
0.0
 20
-17500.0
 30
47564.62764876327
 11
5500.000000000005
 21
-17500.0
 31
47445.71607964137
  0
LINE
  5
169
330
17
100
AcDbEntity
  8
RIBS
100
AcDbLine
 10
5500.000000000005
 20
-17500.0
 30
47445.71607964137
 11
11000.00000000001
 21
-17500.0
 31
47088.98137227564
  0
LINE
  5
16A
330
17
100
AcDbEntity
  8
RIBS
100
AcDbLine
 10
11000.00000000001
 20
-17500.0
 30
47088.98137227564
 11
16499.99999999999
 21
-17500.0
 31
46494.4235266661
  0
LINE
  5
16B
330
17
100
AcDbEntity
  8
RIBS
100
AcDbLine
 10
16499.99999999999
 20
-17500.0
 30
46494.4235266661
 11
21999.999999999996
 21
-17500.0
 31
45662.04254281274
  0
LINE
  5
16C
330
17
100
AcDbEntity
  8
RIBS
100
AcDbLine
 10
21999.999999999996
 20
-17500.0
 30
45662.04254281274
 11
27500.0
 21
-17500.0
 31
44591.83842071557
  0
LINE
  5
16D
330
17
100
AcDbEntity
  8
RIBS
100
AcDbLine
 10
27500.0
 20
-17500.0
 30
44591.83842071557
 11
33000.00000000001
 21
-17500.0
 31
43283.81116037457
  0
LINE
  5
16E
330
17
100
AcDbEntity
  8
RIBS
100
AcDbLine
 10
33000.00000000001
 20
-17500.0
 30
43283.81116037457
 11
38500.00000000001
 21
-17500.0
 31
41737.96076178977
  0
LINE
  5
16F
330
17
100
AcDbEntity
  8
RIBS
100
AcDbLine
 10
38500.00000000001
 20
-17500.0
 30
41737.96076178977
 11
43999.99999999999
 21
-17500.0
 31
39954.287224961154
  0
LINE
  5
170
330
17
100
AcDbEntity
  8
RIBS
100
AcDbLine
 10
43999.99999999999
 20
-17500.0
 30
39954.287224961154
 11
49499.99999999999
 21
-17500.0
 31
37932.79054988872
  0
LINE
  5
171
330
17
100
AcDbEntity
  8
RIBS
100
AcDbLine
 10
49499.99999999999
 20
-17500.0
 30
37932.79054988872
 11
55000.0
 21
-17500.0
 31
35673.47073657245
  0
LINE
  5
172
330
17
100
AcDbEntity
  8
RIBS
100
AcDbLine
 10
55000.0
 20
-17500.0
 30
35673.47073657245
 11
60500.00000000001
 21
-17500.0
 31
33176.327785012385
  0
LINE
  5
173
330
17
100
AcDbEntity
  8
RIBS
100
AcDbLine
 10
60500.00000000001
 20
-17500.0
 30
33176.327785012385
 11
66000.00000000001
 21
-17500.0
 31
30441.361695208492
  0
LINE
  5
174
330
17
100
AcDbEntity
  8
RIBS
100
AcDbLine
 10
66000.00000000001
 20
-17500.0
 30
30441.361695208492
 11
71499.99999999999
 21
-17500.0
 31
27468.572467160797
  0
LINE
  5
175
330
17
100
AcDbEntity
  8
RIBS
100
AcDbLine
 10
71499.99999999999
 20
-17500.0
 30
27468.572467160797
 11
77000.0
 21
-17500.0
 31
24257.96010086927
  0
LINE
  5
176
330
17
100
AcDbEntity
  8
RIBS
100
AcDbLine
 10
77000.0
 20
-17500.0
 30
24257.96010086927
 11
82500.0
 21
-17500.0
 31
20809.524596333933
  0
LINE
  5
177
330
17
100
AcDbEntity
  8
RIBS
100
AcDbLine
 10
82500.0
 20
-17500.0
 30
20809.524596333933
 11
88000.0
 21
-17500.0
 31
17123.265953554772
  0
LINE
  5
178
330
17
100
AcDbEntity
  8
RIBS
100
AcDbLine
 10
88000.0
 20
-17500.0
 30
17123.265953554772
 11
93500.00000000001
 21
-17500.0
 31
13199.1841725318
  0
LINE
  5
179
330
17
100
AcDbEntity
  8
RIBS
100
AcDbLine
 10
93500.00000000001
 20
-17500.0
 30
13199.1841725318
 11
98999.99999999999
 21
-17500.0
 31
9037.27925326503
  0
LINE
  5
17A
330
17
100
AcDbEntity
  8
RIBS
100
AcDbLine
 10
98999.99999999999
 20
-17500.0
 30
9037.27925326503
 11
104500.0
 21
-17500.0
 31
4637.55119575442
  0
LINE
  5
17B
330
17
100
AcDbEntity
  8
RIBS
100
AcDbLine
 10
104500.0
 20
-17500.0
 30
4637.55119575442
 11
110000.0
 21
-17500.0
 31
0.0
  0
LINE
  5
17C
330
17
100
AcDbEntity
  8
RIBS
100
AcDbLine
 10
-110000.0
 20
-5833.333333333336
 30
0.0
 11
-104500.0
 21
-5833.333333333336
 31
4492.084963440653
  0
LINE
  5
17D
330
17
100
AcDbEntity
  8
RIBS
100
AcDbLine
 10
-104500.0
 20
-5833.333333333336
 30
4492.084963440653
 11
-99000.0
 21
-5833.333333333336
 31
8753.806595422806
  0
LINE
  5
17E
330
17
100
AcDbEntity
  8
RIBS
100
AcDbLine
 10
-99000.0
 20
-5833.333333333336
 30
8753.806595422806
 11
-93500.0
 21
-5833.333333333336
 31
12785.164895946475
  0
LINE
  5
17F
330
17
100
AcDbEntity
  8
RIBS
100
AcDbLine
 10
-93500.0
 20
-5833.333333333336
 30
12785.164895946475
 11
-88000.0
 21
-5833.333333333336
 31
16586.15986501163
  0
LINE
  5
180
330
17
100
AcDbEntity
  8
RIBS
100
AcDbLine
 10
-88000.0
 20
-5833.333333333336
 30
16586.15986501163
 11
-82500.0
 21
-5833.333333333336
 31
20156.791502618307
  0
LINE
  5
181
330
17
100
AcDbEntity
  8
RIBS
100
AcDbLine
 10
-82500.0
 20
-5833.333333333336
 30
20156.791502618307
 11
-77000.0
 21
-5833.333333333336
 31
23497.059808766488
  0
LINE
  5
182
330
17
100
AcDbEntity
  8
RIBS
100
AcDbLine
 10
-77000.0
 20
-5833.333333333336
 30
23497.059808766488
 11
-71500.0
 21
-5833.333333333336
 31
26606.964783456166
  0
LINE
  5
183
330
17
100
AcDbEntity
  8
RIBS
100
AcDbLine
 10
-71500.0
 20
-5833.333333333336
 30
26606.964783456166
 11
-66000.0
 21
-5833.333333333336
 31
29486.506426687356
  0
LINE
  5
184
330
17
100
AcDbEntity
  8
RIBS
100
AcDbLine
 10
-66000.0
 20
-5833.333333333336
 30
29486.506426687356
 11
-60500.00000000001
 21
-5833.333333333336
 31
32135.684738460048
  0
LINE
  5
185
330
17
100
AcDbEntity
  8
RIBS
100
AcDbLine
 10
-60500.00000000001
 20
-5833.333333333336
 30
32135.684738460048
 11
-55000.0
 21
-5833.333333333336
 31
34554.49971877424
  0
LINE
  5
186
330
17
100
AcDbEntity
  8
RIBS
100
AcDbLine
 10
-55000.0
 20
-5833.333333333336
 30
34554.49971877424
 11
-49499.99999999999
 21
-5833.333333333336
 31
36742.951367629954
  0
LINE
  5
187
330
17
100
AcDbEntity
  8
RIBS
100
AcDbLine
 10
-49499.99999999999
 20
-5833.333333333336
 30
36742.951367629954
 11
-44000.0
 21
-5833.333333333336
 31
38701.03968502715
  0
LINE
  5
188
330
17
100
AcDbEntity
  8
RIBS
100
AcDbLine
 10
-44000.0
 20
-5833.333333333336
 30
38701.03968502715
 11
-38500.0
 21
-5833.333333333336
 31
40428.764670965866
  0
LINE
  5
189
330
17
100
AcDbEntity
  8
RIBS
100
AcDbLine
 10
-38500.0
 20
-5833.333333333336
 30
40428.764670965866
 11
-33000.00000000001
 21
-5833.333333333336
 31
41926.12632544608
  0
LINE
  5
18A
330
17
100
AcDbEntity
  8
RIBS
100
AcDbLine
 10
-33000.00000000001
 20
-5833.333333333336
 30
41926.12632544608
 11
-27500.0
 21
-5833.333333333336
 31
43193.124648467805
  0
LINE
  5
18B
330
17
100
AcDbEntity
  8
RIBS
100
AcDbLine
 10
-27500.0
 20
-5833.333333333336
 30
43193.124648467805
 11
-21999.999999999996
 21
-5833.333333333336
 31
44229.759640031036
  0
LINE
  5
18C
330
17
100
AcDbEntity
  8
RIBS
100
AcDbLine
 10
-21999.999999999996
 20
-5833.333333333336
 30
44229.759640031036
 11
-16500.000000000004
 21
-5833.333333333336
 31
45036.031300135764
  0
LINE
  5
18D
330
17
100
AcDbEntity
  8
RIBS
100
AcDbLine
 10
-16500.000000000004
 20
-5833.333333333336
 30
45036.031300135764
 11
-10999.999999999998
 21
-5833.333333333336
 31
45611.939628782005
  0
LINE
  5
18E
330
17
100
AcDbEntity
  8
RIBS
100
AcDbLine
 10
-10999.999999999998
 20
-5833.333333333336
 30
45611.939628782005
 11
-5500.000000000005
 21
-5833.333333333336
 31
45957.484625969744
  0
LINE
  5
18F
330
17
100
AcDbEntity
  8
RIBS
100
AcDbLine
 10
-5500.000000000005
 20
-5833.333333333336
 30
45957.484625969744
 11
0.0
 21
-5833.333333333336
 31
46072.666291698995
  0
LINE
  5
190
330
17
100
AcDbEntity
  8
RIBS
100
AcDbLine
 10
0.0
 20
-5833.333333333336
 30
46072.666291698995
 11
5500.000000000005
 21
-5833.333333333336
 31
45957.484625969744
  0
LINE
  5
191
330
17
100
AcDbEntity
  8
RIBS
100
AcDbLine
 10
5500.000000000005
 20
-5833.333333333336
 30
45957.484625969744
 11
11000.00000000001
 21
-5833.333333333336
 31
45611.939628782005
  0
LINE
  5
192
330
17
100
AcDbEntity
  8
RIBS
100
AcDbLine
 10
11000.00000000001
 20
-5833.333333333336
 30
45611.939628782005
 11
16499.99999999999
 21
-5833.333333333336
 31
45036.031300135764
  0
LINE
  5
193
330
17
100
AcDbEntity
  8
RIBS
100
AcDbLine
 10
16499.99999999999
 20
-5833.333333333336
 30
45036.031300135764
 11
21999.999999999996
 21
-5833.333333333336
 31
44229.759640031036
  0
LINE
  5
194
330
17
100
AcDbEntity
  8
RIBS
100
AcDbLine
 10
21999.999999999996
 20
-5833.333333333336
 30
44229.759640031036
 11
27500.0
 21
-5833.333333333336
 31
43193.124648467805
  0
LINE
  5
195
330
17
100
AcDbEntity
  8
RIBS
100
AcDbLine
 10
27500.0
 20
-5833.333333333336
 30
43193.124648467805
 11
33000.00000000001
 21
-5833.333333333336
 31
41926.12632544608
  0
LINE
  5
196
330
17
100
AcDbEntity
  8
RIBS
100
AcDbLine
 10
33000.00000000001
 20
-5833.333333333336
 30
41926.12632544608
 11
38500.00000000001
 21
-5833.333333333336
 31
40428.764670965866
  0
LINE
  5
197
330
17
100
AcDbEntity
  8
RIBS
100
AcDbLine
 10
38500.00000000001
 20
-5833.333333333336
 30
40428.764670965866
 11
43999.99999999999
 21
-5833.333333333336
 31
38701.03968502716
  0
LINE
  5
198
330
17
100
AcDbEntity
  8
RIBS
100
AcDbLine
 10
43999.99999999999
 20
-5833.333333333336
 30
38701.03968502716
 11
49499.99999999999
 21
-5833.333333333336
 31
36742.951367629954
  0
LINE
  5
199
330
17
100
AcDbEntity
  8
RIBS
100
AcDbLine
 10
49499.99999999999
 20
-5833.333333333336
 30
36742.951367629954
 11
55000.0
 21
-5833.333333333336
 31
34554.49971877424
  0
LINE
  5
19A
330
17
100
AcDbEntity
  8
RIBS
100
AcDbLine
 10
55000.0
 20
-5833.333333333336
 30
34554.49971877424
 11
60500.00000000001
 21
-5833.333333333336
 31
32135.684738460048
  0
LINE
  5
19B
330
17
100
AcDbEntity
  8
RIBS
100
AcDbLine
 10
60500.00000000001
 20
-5833.333333333336
 30
32135.684738460048
 11
66000.00000000001
 21
-5833.333333333336
 31
29486.506426687352
  0
LINE
  5
19C
330
17
100
AcDbEntity
  8
RIBS
100
AcDbLine
 10
66000.00000000001
 20
-5833.333333333336
 30
29486.506426687352
 11
71499.99999999999
 21
-5833.333333333336
 31
26606.964783456177
  0
LINE
  5
19D
330
17
100
AcDbEntity
  8
RIBS
100
AcDbLine
 10
71499.99999999999
 20
-5833.333333333336
 30
26606.964783456177
 11
77000.0
 21
-5833.333333333336
 31
23497.059808766488
  0
LINE
  5
19E
330
17
100
AcDbEntity
  8
RIBS
100
AcDbLine
 10
77000.0
 20
-5833.333333333336
 30
23497.059808766488
 11
82500.0
 21
-5833.333333333336
 31
20156.791502618307
  0
LINE
  5
19F
330
17
100
AcDbEntity
  8
RIBS
100
AcDbLine
 10
82500.0
 20
-5833.333333333336
 30
20156.791502618307
 11
88000.0
 21
-5833.333333333336
 31
16586.15986501163
  0
LINE
  5
1A0
330
17
100
AcDbEntity
  8
RIBS
100
AcDbLine
 10
88000.0
 20
-5833.333333333336
 30
16586.15986501163
 11
93500.00000000001
 21
-5833.333333333336
 31
12785.164895946464
  0
LINE
  5
1A1
330
17
100
AcDbEntity
  8
RIBS
100
AcDbLine
 10
93500.00000000001
 20
-5833.333333333336
 30
12785.164895946464
 11
98999.99999999999
 21
-5833.333333333336
 31
8753.806595422815
  0
LINE
  5
1A2
330
17
100
AcDbEntity
  8
RIBS
100
AcDbLine
 10
98999.99999999999
 20
-5833.333333333336
 30
8753.806595422815
 11
104500.0
 21
-5833.333333333336
 31
4492.084963440653
  0
LINE
  5
1A3
330
17
100
AcDbEntity
  8
RIBS
100
AcDbLine
 10
104500.0
 20
-5833.333333333336
 30
4492.084963440653
 11
110000.0
 21
-5833.333333333336
 31
0.0
  0
LINE
  5
1A4
330
17
100
AcDbEntity
  8
RIBS
100
AcDbLine
 10
-110000.0
 20
5833.3333333333285
 30
0.0
 11
-104500.0
 21
5833.3333333333285
 31
4278.04416377202
  0
LINE
  5
1A5
330
17
100
AcDbEntity
  8
RIBS
100
AcDbLine
 10
-104500.0
 20
5833.3333333333285
 30
4278.04416377202
 11
-99000.0
 21
5833.3333333333285
 31
8336.701447350597
  0
LINE
  5
1A6
330
17
100
AcDbEntity
  8
RIBS
100
AcDbLine
 10
-99000.0
 20
5833.3333333333285
 30
8336.701447350597
 11
-93500.0
 21
5833.3333333333285
 31
12175.971850735747
  0
LINE
  5
1A7
330
17
100
AcDbEntity
  8
RIBS
100
AcDbLine
 10
-93500.0
 20
5833.3333333333285
 30
12175.971850735747
 11
-88000.0
 21
5833.3333333333285
 31
15795.855373927445
  0
LINE
  5
1A8
330
17
100
AcDbEntity
  8
RIBS
100
AcDbLine
 10
-88000.0
 20
5833.3333333333285
 30
15795.855373927445
 11
-82500.0
 21
5833.3333333333285
 31
19196.35201692572
  0
LINE
  5
1A9
330
17
100
AcDbEntity
  8
RIBS
100
AcDbLine
 10
-82500.0
 20
5833.3333333333285
 30
19196.35201692572
 11
-77000.0
 21
5833.3333333333285
 31
22377.461779730555
  0
LINE
  5
1AA
330
17
100
AcDbEntity
  8
RIBS
100
AcDbLine
 10
-77000.0
 20
5833.3333333333285
 30
22377.461779730555
 11
-71500.0
 21
5833.3333333333285
 31
25339.184662341948
  0
LINE
  5
1AB
330
17
100
AcDbEntity
  8
RIBS
100
AcDbLine
 10
-71500.0
 20
5833.3333333333285
 30
25339.184662341948
 11
-66000.0
 21
5833.3333333333285
 31
28081.52066475991
  0
LINE
  5
1AC
330
17
100
AcDbEntity
  8
RIBS
100
AcDbLine
 10
-66000.0
 20
5833.3333333333285
 30
28081.52066475991
 11
-60500.00000000001
 21
5833.3333333333285
 31
30604.469786984435
  0
LINE
  5
1AD
330
17
100
AcDbEntity
  8
RIBS
100
AcDbLine
 10
-60500.00000000001
 20
5833.3333333333285
 30
30604.469786984435
 11
-55000.0
 21
5833.3333333333285
 31
32908.03202901552
  0
LINE
  5
1AE
330
17
100
AcDbEntity
  8
RIBS
100
AcDbLine
 10
-55000.0
 20
5833.3333333333285
 30
32908.03202901552
 11
-49499.99999999999
 21
5833.3333333333285
 31
34992.20739085318
  0
LINE
  5
1AF
330
17
100
AcDbEntity
  8
RIBS
100
AcDbLine
 10
-49499.99999999999
 20
5833.3333333333285
 30
34992.20739085318
 11
-44000.0
 21
5833.3333333333285
 31
36856.995872497384
  0
LINE
  5
1B0
330
17
100
AcDbEntity
  8
RIBS
100
AcDbLine
 10
-44000.0
 20
5833.3333333333285
 30
36856.995872497384
 11
-38500.0
 21
5833.3333333333285
 31
38502.397473948164
  0
LINE
  5
1B1
330
17
100
AcDbEntity
  8
RIBS
100
AcDbLine
 10
-38500.0
 20
5833.3333333333285
 30
38502.397473948164
 11
-33000.00000000001
 21
5833.3333333333285
 31
39928.41219520549
  0
LINE
  5
1B2
330
17
100
AcDbEntity
  8
RIBS
100
AcDbLine
 10
-33000.00000000001
 20
5833.3333333333285
 30
39928.41219520549
 11
-27500.0
 21
5833.3333333333285
 31
41135.040036269405
  0
LINE
  5
1B3
330
17
100
AcDbEntity
  8
RIBS
100
AcDbLine
 10
-27500.0
 20
5833.3333333333285
 30
41135.040036269405
 11
-21999.999999999996
 21
5833.3333333333285
 31
42122.28099713987
  0
LINE
  5
1B4
330
17
100
AcDbEntity
  8
RIBS
100
AcDbLine
 10
-21999.999999999996
 20
5833.3333333333285
 30
42122.28099713987
 11
-16500.000000000004
 21
5833.3333333333285
 31
42890.1350778169
  0
LINE
  5
1B5
330
17
100
AcDbEntity
  8
RIBS
100
AcDbLine
 10
-16500.000000000004
 20
5833.3333333333285
 30
42890.1350778169
 11
-10999.999999999998
 21
5833.3333333333285
 31
43438.60227830049
  0
LINE
  5
1B6
330
17
100
AcDbEntity
  8
RIBS
100
AcDbLine
 10
-10999.999999999998
 20
5833.3333333333285
 30
43438.60227830049
 11
-5500.000000000005
 21
5833.3333333333285
 31
43767.68259859065
  0
LINE
  5
1B7
330
17
100
AcDbEntity
  8
RIBS
100
AcDbLine
 10
-5500.000000000005
 20
5833.3333333333285
 30
43767.68259859065
 11
0.0
 21
5833.3333333333285
 31
43877.37603868736
  0
LINE
  5
1B8
330
17
100
AcDbEntity
  8
RIBS
100
AcDbLine
 10
0.0
 20
5833.3333333333285
 30
43877.37603868736
 11
5500.000000000005
 21
5833.3333333333285
 31
43767.68259859065
  0
LINE
  5
1B9
330
17
100
AcDbEntity
  8
RIBS
100
AcDbLine
 10
5500.000000000005
 20
5833.3333333333285
 30
43767.68259859065
 11
11000.00000000001
 21
5833.3333333333285
 31
43438.60227830049
  0
LINE
  5
1BA
330
17
100
AcDbEntity
  8
RIBS
100
AcDbLine
 10
11000.00000000001
 20
5833.3333333333285
 30
43438.60227830049
 11
16499.99999999999
 21
5833.3333333333285
 31
42890.1350778169
  0
LINE
  5
1BB
330
17
100
AcDbEntity
  8
RIBS
100
AcDbLine
 10
16499.99999999999
 20
5833.3333333333285
 30
42890.1350778169
 11
21999.999999999996
 21
5833.3333333333285
 31
42122.28099713987
  0
LINE
  5
1BC
330
17
100
AcDbEntity
  8
RIBS
100
AcDbLine
 10
21999.999999999996
 20
5833.3333333333285
 30
42122.28099713987
 11
27500.0
 21
5833.3333333333285
 31
41135.040036269405
  0
LINE
  5
1BD
330
17
100
AcDbEntity
  8
RIBS
100
AcDbLine
 10
27500.0
 20
5833.3333333333285
 30
41135.040036269405
 11
33000.00000000001
 21
5833.3333333333285
 31
39928.41219520549
  0
LINE
  5
1BE
330
17
100
AcDbEntity
  8
RIBS
100
AcDbLine
 10
33000.00000000001
 20
5833.3333333333285
 30
39928.41219520549
 11
38500.00000000001
 21
5833.3333333333285
 31
38502.397473948164
  0
LINE
  5
1BF
330
17
100
AcDbEntity
  8
RIBS
100
AcDbLine
 10
38500.00000000001
 20
5833.3333333333285
 30
38502.397473948164
 11
43999.99999999999
 21
5833.3333333333285
 31
36856.99587249739
  0
LINE
  5
1C0
330
17
100
AcDbEntity
  8
RIBS
100
AcDbLine
 10
43999.99999999999
 20
5833.3333333333285
 30
36856.99587249739
 11
49499.99999999999
 21
5833.3333333333285
 31
34992.20739085318
  0
LINE
  5
1C1
330
17
100
AcDbEntity
  8
RIBS
100
AcDbLine
 10
49499.99999999999
 20
5833.3333333333285
 30
34992.20739085318
 11
55000.0
 21
5833.3333333333285
 31
32908.03202901552
  0
LINE
  5
1C2
330
17
100
AcDbEntity
  8
RIBS
100
AcDbLine
 10
55000.0
 20
5833.3333333333285
 30
32908.03202901552
 11
60500.00000000001
 21
5833.3333333333285
 31
30604.469786984435
  0
LINE
  5
1C3
330
17
100
AcDbEntity
  8
RIBS
100
AcDbLine
 10
60500.00000000001
 20
5833.3333333333285
 30
30604.469786984435
 11
66000.00000000001
 21
5833.3333333333285
 31
28081.52066475991
  0
LINE
  5
1C4
330
17
100
AcDbEntity
  8
RIBS
100
AcDbLine
 10
66000.00000000001
 20
5833.3333333333285
 30
28081.52066475991
 11
71499.99999999999
 21
5833.3333333333285
 31
25339.18466234196
  0
LINE
  5
1C5
330
17
100
AcDbEntity
  8
RIBS
100
AcDbLine
 10
71499.99999999999
 20
5833.3333333333285
 30
25339.18466234196
 11
77000.0
 21
5833.3333333333285
 31
22377.461779730555
  0
LINE
  5
1C6
330
17
100
AcDbEntity
  8
RIBS
100
AcDbLine
 10
77000.0
 20
5833.3333333333285
 30
22377.461779730555
 11
82500.0
 21
5833.3333333333285
 31
19196.35201692572
  0
LINE
  5
1C7
330
17
100
AcDbEntity
  8
RIBS
100
AcDbLine
 10
82500.0
 20
5833.3333333333285
 30
19196.35201692572
 11
88000.0
 21
5833.3333333333285
 31
15795.855373927445
  0
LINE
  5
1C8
330
17
100
AcDbEntity
  8
RIBS
100
AcDbLine
 10
88000.0
 20
5833.3333333333285
 30
15795.855373927445
 11
93500.00000000001
 21
5833.3333333333285
 31
12175.971850735737
  0
LINE
  5
1C9
330
17
100
AcDbEntity
  8
RIBS
100
AcDbLine
 10
93500.00000000001
 20
5833.3333333333285
 30
12175.971850735737
 11
98999.99999999999
 21
5833.3333333333285
 31
8336.701447350606
  0
LINE
  5
1CA
330
17
100
AcDbEntity
  8
RIBS
100
AcDbLine
 10
98999.99999999999
 20
5833.3333333333285
 30
8336.701447350606
 11
104500.0
 21
5833.3333333333285
 31
4278.04416377202
  0
LINE
  5
1CB
330
17
100
AcDbEntity
  8
RIBS
100
AcDbLine
 10
104500.0
 20
5833.3333333333285
 30
4278.04416377202
 11
110000.0
 21
5833.3333333333285
 31
0.0
  0
LINE
  5
1CC
330
17
100
AcDbEntity
  8
RIBS
100
AcDbLine
 10
-110000.0
 20
17500.0
 30
0.0
 11
-104500.0
 21
17500.0
 31
4047.8334494412597
  0
LINE
  5
1CD
330
17
100
AcDbEntity
  8
RIBS
100
AcDbLine
 10
-104500.0
 20
17500.0
 30
4047.8334494412597
 11
-99000.0
 21
17500.0
 31
7888.085696347066
  0
LINE
  5
1CE
330
17
100
AcDbEntity
  8
RIBS
100
AcDbLine
 10
-99000.0
 20
17500.0
 30
7888.085696347066
 11
-93500.0
 21
17500.0
 31
11520.75674071743
  0
LINE
  5
1CF
330
17
100
AcDbEntity
  8
RIBS
100
AcDbLine
 10
-93500.0
 20
17500.0
 30
11520.75674071743
 11
-88000.0
 21
17500.0
 31
14945.84658255233
  0
LINE
  5
1D0
330
17
100
AcDbEntity
  8
RIBS
100
AcDbLine
 10
-88000.0
 20
17500.0
 30
14945.84658255233
 11
-82500.0
 21
17500.0
 31
18163.355221851798
  0
LINE
  5
1D1
330
17
100
AcDbEntity
  8
RIBS
100
AcDbLine
 10
-82500.0
 20
17500.0
 30
18163.355221851798
 11
-77000.0
 21
17500.0
 31
21173.28265861581
  0
LINE
  5
1D2
330
17
100
AcDbEntity
  8
RIBS
100
AcDbLine
 10
-77000.0
 20
17500.0
 30
21173.28265861581
 11
-71500.0
 21
17500.0
 31
23975.628892844372
  0
LINE
  5
1D3
330
17
100
AcDbEntity
  8
RIBS
100
AcDbLine
 10
-71500.0
 20
17500.0
 30
23975.628892844372
 11
-66000.0
 21
17500.0
 31
26570.39392453749
  0
LINE
  5
1D4
330
17
100
AcDbEntity
  8
RIBS
100
AcDbLine
 10
-66000.0
 20
17500.0
 30
26570.39392453749
 11
-60500.00000000001
 21
17500.0
 31
28957.577753695154
  0
LINE
  5
1D5
330
17
100
AcDbEntity
  8
RIBS
100
AcDbLine
 10
-60500.00000000001
 20
17500.0
 30
28957.577753695154
 11
-55000.0
 21
17500.0
 31
31137.18038031737
  0
LINE
  5
1D6
330
17
100
AcDbEntity
  8
RIBS
100
AcDbLine
 10
-55000.0
 20
17500.0
 30
31137.18038031737
 11
-49499.99999999999
 21
17500.0
 31
33109.20180440415
  0
LINE
  5
1D7
330
17
100
AcDbEntity
  8
RIBS
100
AcDbLine
 10
-49499.99999999999
 20
17500.0
 30
33109.20180440415
 11
-44000.0
 21
17500.0
 31
34873.64202595546
  0
LINE
  5
1D8
330
17
100
AcDbEntity
  8
RIBS
100
AcDbLine
 10
-44000.0
 20
17500.0
 30
34873.64202595546
 11
-38500.0
 21
17500.0
 31
36430.50104497132
  0
LINE
  5
1D9
330
17
100
AcDbEntity
  8
RIBS
100
AcDbLine
 10
-38500.0
 20
17500.0
 30
36430.50104497132
 11
-33000.00000000001
 21
17500.0
 31
37779.778861451734
  0
LINE
  5
1DA
330
17
100
AcDbEntity
  8
RIBS
100
AcDbLine
 10
-33000.00000000001
 20
17500.0
 30
37779.778861451734
 11
-27500.0
 21
17500.0
 31
38921.47547539671
  0
LINE
  5
1DB
330
17
100
AcDbEntity
  8
RIBS
100
AcDbLine
 10
-27500.0
 20
17500.0
 30
38921.47547539671
 11
-21999.999999999996
 21
17500.0
 31
39855.59088680623
  0
LINE
  5
1DC
330
17
100
AcDbEntity
  8
RIBS
100
AcDbLine
 10
-21999.999999999996
 20
17500.0
 30
39855.59088680623
 11
-16500.000000000004
 21
17500.0
 31
40582.125095680305
  0
LINE
  5
1DD
330
17
100
AcDbEntity
  8
RIBS
100
AcDbLine
 10
-16500.000000000004
 20
17500.0
 30
40582.125095680305
 11
-10999.999999999998
 21
17500.0
 31
41101.07810201893
  0
LINE
  5
1DE
330
17
100
AcDbEntity
  8
RIBS
100
AcDbLine
 10
-10999.999999999998
 20
17500.0
 30
41101.07810201893
 11
-5500.000000000005
 21
17500.0
 31
41412.449905822104
  0
LINE
  5
1DF
330
17
100
AcDbEntity
  8
RIBS
100
AcDbLine
 10
-5500.000000000005
 20
17500.0
 30
41412.449905822104
 11
0.0
 21
17500.0
 31
41516.24050708983
  0
LINE
  5
1E0
330
17
100
AcDbEntity
  8
RIBS
100
AcDbLine
 10
0.0
 20
17500.0
 30
41516.24050708983
 11
5500.000000000005
 21
17500.0
 31
41412.449905822104
  0
LINE
  5
1E1
330
17
100
AcDbEntity
  8
RIBS
100
AcDbLine
 10
5500.000000000005
 20
17500.0
 30
41412.449905822104
 11
11000.00000000001
 21
17500.0
 31
41101.07810201893
  0
LINE
  5
1E2
330
17
100
AcDbEntity
  8
RIBS
100
AcDbLine
 10
11000.00000000001
 20
17500.0
 30
41101.07810201893
 11
16499.99999999999
 21
17500.0
 31
40582.125095680305
  0
LINE
  5
1E3
330
17
100
AcDbEntity
  8
RIBS
100
AcDbLine
 10
16499.99999999999
 20
17500.0
 30
40582.125095680305
 11
21999.999999999996
 21
17500.0
 31
39855.59088680623
  0
LINE
  5
1E4
330
17
100
AcDbEntity
  8
RIBS
100
AcDbLine
 10
21999.999999999996
 20
17500.0
 30
39855.59088680623
 11
27500.0
 21
17500.0
 31
38921.47547539671
  0
LINE
  5
1E5
330
17
100
AcDbEntity
  8
RIBS
100
AcDbLine
 10
27500.0
 20
17500.0
 30
38921.47547539671
 11
33000.00000000001
 21
17500.0
 31
37779.778861451734
  0
LINE
  5
1E6
330
17
100
AcDbEntity
  8
RIBS
100
AcDbLine
 10
33000.00000000001
 20
17500.0
 30
37779.778861451734
 11
38500.00000000001
 21
17500.0
 31
36430.50104497132
  0
LINE
  5
1E7
330
17
100
AcDbEntity
  8
RIBS
100
AcDbLine
 10
38500.00000000001
 20
17500.0
 30
36430.50104497132
 11
43999.99999999999
 21
17500.0
 31
34873.64202595546
  0
LINE
  5
1E8
330
17
100
AcDbEntity
  8
RIBS
100
AcDbLine
 10
43999.99999999999
 20
17500.0
 30
34873.64202595546
 11
49499.99999999999
 21
17500.0
 31
33109.20180440415
  0
LINE
  5
1E9
330
17
100
AcDbEntity
  8
RIBS
100
AcDbLine
 10
49499.99999999999
 20
17500.0
 30
33109.20180440415
 11
55000.0
 21
17500.0
 31
31137.18038031737
  0
LINE
  5
1EA
330
17
100
AcDbEntity
  8
RIBS
100
AcDbLine
 10
55000.0
 20
17500.0
 30
31137.18038031737
 11
60500.00000000001
 21
17500.0
 31
28957.577753695154
  0
LINE
  5
1EB
330
17
100
AcDbEntity
  8
RIBS
100
AcDbLine
 10
60500.00000000001
 20
17500.0
 30
28957.577753695154
 11
66000.00000000001
 21
17500.0
 31
26570.393924537486
  0
LINE
  5
1EC
330
17
100
AcDbEntity
  8
RIBS
100
AcDbLine
 10
66000.00000000001
 20
17500.0
 30
26570.393924537486
 11
71499.99999999999
 21
17500.0
 31
23975.628892844383
  0
LINE
  5
1ED
330
17
100
AcDbEntity
  8
RIBS
100
AcDbLine
 10
71499.99999999999
 20
17500.0
 30
23975.628892844383
 11
77000.0
 21
17500.0
 31
21173.28265861581
  0
LINE
  5
1EE
330
17
100
AcDbEntity
  8
RIBS
100
AcDbLine
 10
77000.0
 20
17500.0
 30
21173.28265861581
 11
82500.0
 21
17500.0
 31
18163.355221851798
  0
LINE
  5
1EF
330
17
100
AcDbEntity
  8
RIBS
100
AcDbLine
 10
82500.0
 20
17500.0
 30
18163.355221851798
 11
88000.0
 21
17500.0
 31
14945.84658255233
  0
LINE
  5
1F0
330
17
100
AcDbEntity
  8
RIBS
100
AcDbLine
 10
88000.0
 20
17500.0
 30
14945.84658255233
 11
93500.00000000001
 21
17500.0
 31
11520.756740717421
  0
LINE
  5
1F1
330
17
100
AcDbEntity
  8
RIBS
100
AcDbLine
 10
93500.00000000001
 20
17500.0
 30
11520.756740717421
 11
98999.99999999999
 21
17500.0
 31
7888.085696347073
  0
LINE
  5
1F2
330
17
100
AcDbEntity
  8
RIBS
100
AcDbLine
 10
98999.99999999999
 20
17500.0
 30
7888.085696347073
 11
104500.0
 21
17500.0
 31
4047.8334494412597
  0
LINE
  5
1F3
330
17
100
AcDbEntity
  8
RIBS
100
AcDbLine
 10
104500.0
 20
17500.0
 30
4047.8334494412597
 11
110000.0
 21
17500.0
 31
0.0
  0
LINE
  5
1F4
330
17
100
AcDbEntity
  8
RIBS
100
AcDbLine
 10
-110000.0
 20
29166.666666666657
 30
0.0
 11
-104500.0
 21
29166.666666666657
 31
3857.8164321958916
  0
LINE
  5
1F5
330
17
100
AcDbEntity
  8
RIBS
100
AcDbLine
 10
-104500.0
 20
29166.666666666657
 30
3857.8164321958916
 11
-99000.0
 21
29166.666666666657
 31
7517.796124279169
  0
LINE
  5
1F6
330
17
100
AcDbEntity
  8
RIBS
100
AcDbLine
 10
-99000.0
 20
29166.666666666657
 30
7517.796124279169
 11
-93500.0
 21
29166.666666666657
 31
10979.939076249844
  0
LINE
  5
1F7
330
17
100
AcDbEntity
  8
RIBS
100
AcDbLine
 10
-93500.0
 20
29166.666666666657
 30
10979.939076249844
 11
-88000.0
 21
29166.666666666657
 31
14244.245288107895
  0
LINE
  5
1F8
330
17
100
AcDbEntity
  8
RIBS
100
AcDbLine
 10
-88000.0
 20
29166.666666666657
 30
14244.245288107895
 11
-82500.0
 21
29166.666666666657
 31
17310.714759853352
  0
LINE
  5
1F9
330
17
100
AcDbEntity
  8
RIBS
100
AcDbLine
 10
-82500.0
 20
29166.666666666657
 30
17310.714759853352
 11
-77000.0
 21
29166.666666666657
 31
20179.347491486194
  0
LINE
  5
1FA
330
17
100
AcDbEntity
  8
RIBS
100
AcDbLine
 10
-77000.0
 20
29166.666666666657
 30
20179.347491486194
 11
-71500.0
 21
29166.666666666657
 31
22850.14348300642
  0
LINE
  5
1FB
330
17
100
AcDbEntity
  8
RIBS
100
AcDbLine
 10
-71500.0
 20
29166.666666666657
 30
22850.14348300642
 11
-66000.0
 21
29166.666666666657
 31
25323.102734414046
  0
LINE
  5
1FC
330
17
100
AcDbEntity
  8
RIBS
100
AcDbLine
 10
-66000.0
 20
29166.666666666657
 30
25323.102734414046
 11
-60500.00000000001
 21
29166.666666666657
 31
27598.225245709058
  0
LINE
  5
1FD
330
17
100
AcDbEntity
  8
RIBS
100
AcDbLine
 10
-60500.00000000001
 20
29166.666666666657
 30
27598.225245709058
 11
-55000.0
 21
29166.666666666657
 31
29675.51101689146
  0
LINE
  5
1FE
330
17
100
AcDbEntity
  8
RIBS
100
AcDbLine
 10
-55000.0
 20
29166.666666666657
 30
29675.51101689146
 11
-49499.99999999999
 21
29166.666666666657
 31
31554.96004796126
  0
LINE
  5
1FF
330
17
100
AcDbEntity
  8
RIBS
100
AcDbLine
 10
-49499.99999999999
 20
29166.666666666657
 30
31554.96004796126
 11
-44000.0
 21
29166.666666666657
 31
33236.572338918435
  0
LINE
  5
200
330
17
100
AcDbEntity
  8
RIBS
100
AcDbLine
 10
-44000.0
 20
29166.666666666657
 30
33236.572338918435
 11
-38500.0
 21
29166.666666666657
 31
34720.34788976301
  0
LINE
  5
201
330
17
100
AcDbEntity
  8
RIBS
100
AcDbLine
 10
-38500.0
 20
29166.666666666657
 30
34720.34788976301
 11
-33000.00000000001
 21
29166.666666666657
 31
36006.286700494966
  0
LINE
  5
202
330
17
100
AcDbEntity
  8
RIBS
100
AcDbLine
 10
-33000.00000000001
 20
29166.666666666657
 30
36006.286700494966
 11
-27500.0
 21
29166.666666666657
 31
37094.388771114325
  0
LINE
  5
203
330
17
100
AcDbEntity
  8
RIBS
100
AcDbLine
 10
-27500.0
 20
29166.666666666657
 30
37094.388771114325
 11
-21999.999999999996
 21
29166.666666666657
 31
37984.65410162107
  0
LINE
  5
204
330
17
100
AcDbEntity
  8
RIBS
100
AcDbLine
 10
-21999.999999999996
 20
29166.666666666657
 30
37984.65410162107
 11
-16500.000000000004
 21
29166.666666666657
 31
38677.0826920152
  0
LINE
  5
205
330
17
100
AcDbEntity
  8
RIBS
100
AcDbLine
 10
-16500.000000000004
 20
29166.666666666657
 30
38677.0826920152
 11
-10999.999999999998
 21
29166.666666666657
 31
39171.67454229673
  0
LINE
  5
206
330
17
100
AcDbEntity
  8
RIBS
100
AcDbLine
 10
-10999.999999999998
 20
29166.666666666657
 30
39171.67454229673
 11
-5500.000000000005
 21
29166.666666666657
 31
39468.429652465646
  0
LINE
  5
207
330
17
100
AcDbEntity
  8
RIBS
100
AcDbLine
 10
-5500.000000000005
 20
29166.666666666657
 30
39468.429652465646
 11
0.0
 21
29166.666666666657
 31
39567.34802252195
  0
LINE
  5
208
330
17
100
AcDbEntity
  8
RIBS
100
AcDbLine
 10
0.0
 20
29166.666666666657
 30
39567.34802252195
 11
5500.000000000005
 21
29166.666666666657
 31
39468.429652465646
  0
LINE
  5
209
330
17
100
AcDbEntity
  8
RIBS
100
AcDbLine
 10
5500.000000000005
 20
29166.666666666657
 30
39468.429652465646
 11
11000.00000000001
 21
29166.666666666657
 31
39171.67454229673
  0
LINE
  5
20A
330
17
100
AcDbEntity
  8
RIBS
100
AcDbLine
 10
11000.00000000001
 20
29166.666666666657
 30
39171.67454229673
 11
16499.99999999999
 21
29166.666666666657
 31
38677.0826920152
  0
LINE
  5
20B
330
17
100
AcDbEntity
  8
RIBS
100
AcDbLine
 10
16499.99999999999
 20
29166.666666666657
 30
38677.0826920152
 11
21999.999999999996
 21
29166.666666666657
 31
37984.65410162107
  0
LINE
  5
20C
330
17
100
AcDbEntity
  8
RIBS
100
AcDbLine
 10
21999.999999999996
 20
29166.666666666657
 30
37984.65410162107
 11
27500.0
 21
29166.666666666657
 31
37094.388771114325
  0
LINE
  5
20D
330
17
100
AcDbEntity
  8
RIBS
100
AcDbLine
 10
27500.0
 20
29166.666666666657
 30
37094.388771114325
 11
33000.00000000001
 21
29166.666666666657
 31
36006.286700494966
  0
LINE
  5
20E
330
17
100
AcDbEntity
  8
RIBS
100
AcDbLine
 10
33000.00000000001
 20
29166.666666666657
 30
36006.286700494966
 11
38500.00000000001
 21
29166.666666666657
 31
34720.34788976301
  0
LINE
  5
20F
330
17
100
AcDbEntity
  8
RIBS
100
AcDbLine
 10
38500.00000000001
 20
29166.666666666657
 30
34720.34788976301
 11
43999.99999999999
 21
29166.666666666657
 31
33236.57233891844
  0
LINE
  5
210
330
17
100
AcDbEntity
  8
RIBS
100
AcDbLine
 10
43999.99999999999
 20
29166.666666666657
 30
33236.57233891844
 11
49499.99999999999
 21
29166.666666666657
 31
31554.96004796126
  0
LINE
  5
211
330
17
100
AcDbEntity
  8
RIBS
100
AcDbLine
 10
49499.99999999999
 20
29166.666666666657
 30
31554.96004796126
 11
55000.0
 21
29166.666666666657
 31
29675.51101689146
  0
LINE
  5
212
330
17
100
AcDbEntity
  8
RIBS
100
AcDbLine
 10
55000.0
 20
29166.666666666657
 30
29675.51101689146
 11
60500.00000000001
 21
29166.666666666657
 31
27598.225245709058
  0
LINE
  5
213
330
17
100
AcDbEntity
  8
RIBS
100
AcDbLine
 10
60500.00000000001
 20
29166.666666666657
 30
27598.225245709058
 11
66000.00000000001
 21
29166.666666666657
 31
25323.102734414042
  0
LINE
  5
214
330
17
100
AcDbEntity
  8
RIBS
100
AcDbLine
 10
66000.00000000001
 20
29166.666666666657
 30
25323.102734414042
 11
71499.99999999999
 21
29166.666666666657
 31
22850.14348300643
  0
LINE
  5
215
330
17
100
AcDbEntity
  8
RIBS
100
AcDbLine
 10
71499.99999999999
 20
29166.666666666657
 30
22850.14348300643
 11
77000.0
 21
29166.666666666657
 31
20179.347491486194
  0
LINE
  5
216
330
17
100
AcDbEntity
  8
RIBS
100
AcDbLine
 10
77000.0
 20
29166.666666666657
 30
20179.347491486194
 11
82500.0
 21
29166.666666666657
 31
17310.714759853352
  0
LINE
  5
217
330
17
100
AcDbEntity
  8
RIBS
100
AcDbLine
 10
82500.0
 20
29166.666666666657
 30
17310.714759853352
 11
88000.0
 21
29166.666666666657
 31
14244.245288107895
  0
LINE
  5
218
330
17
100
AcDbEntity
  8
RIBS
100
AcDbLine
 10
88000.0
 20
29166.666666666657
 30
14244.245288107895
 11
93500.00000000001
 21
29166.666666666657
 31
10979.939076249835
  0
LINE
  5
219
330
17
100
AcDbEntity
  8
RIBS
100
AcDbLine
 10
93500.00000000001
 20
29166.666666666657
 30
10979.939076249835
 11
98999.99999999999
 21
29166.666666666657
 31
7517.796124279176
  0
LINE
  5
21A
330
17
100
AcDbEntity
  8
RIBS
100
AcDbLine
 10
98999.99999999999
 20
29166.666666666657
 30
7517.796124279176
 11
104500.0
 21
29166.666666666657
 31
3857.8164321958916
  0
LINE
  5
21B
330
17
100
AcDbEntity
  8
RIBS
100
AcDbLine
 10
104500.0
 20
29166.666666666657
 30
3857.8164321958916
 11
110000.0
 21
29166.666666666657
 31
0.0
  0
LINE
  5
21C
330
17
100
AcDbEntity
  8
RIBS
100
AcDbLine
 10
-110000.0
 20
40833.33333333333
 30
0.0
 11
-104500.0
 21
40833.33333333333
 31
3754.515904932736
  0
LINE
  5
21D
330
17
100
AcDbEntity
  8
RIBS
100
AcDbLine
 10
-104500.0
 20
40833.33333333333
 30
3754.515904932736
 11
-99000.0
 21
40833.33333333333
 31
7316.49253268943
  0
LINE
  5
21E
330
17
100
AcDbEntity
  8
RIBS
100
AcDbLine
 10
-99000.0
 20
40833.33333333333
 30
7316.49253268943
 11
-93500.0
 21
40833.33333333333
 31
10685.929883270093
  0
LINE
  5
21F
330
17
100
AcDbEntity
  8
RIBS
100
AcDbLine
 10
-93500.0
 20
40833.33333333333
 30
10685.929883270093
 11
-88000.0
 21
40833.33333333333
 31
13862.827956674706
  0
LINE
  5
220
330
17
100
AcDbEntity
  8
RIBS
100
AcDbLine
 10
-88000.0
 20
40833.33333333333
 30
13862.827956674706
 11
-82500.0
 21
40833.33333333333
 31
16847.186752903297
  0
LINE
  5
221
330
17
100
AcDbEntity
  8
RIBS
100
AcDbLine
 10
-82500.0
 20
40833.33333333333
 30
16847.186752903297
 11
-77000.0
 21
40833.33333333333
 31
19639.00627195584
  0
LINE
  5
222
330
17
100
AcDbEntity
  8
RIBS
100
AcDbLine
 10
-77000.0
 20
40833.33333333333
 30
19639.00627195584
 11
-71500.0
 21
40833.33333333333
 31
22238.286513832347
  0
LINE
  5
223
330
17
100
AcDbEntity
  8
RIBS
100
AcDbLine
 10
-71500.0
 20
40833.33333333333
 30
22238.286513832347
 11
-66000.0
 21
40833.33333333333
 31
24645.027478532822
  0
LINE
  5
224
330
17
100
AcDbEntity
  8
RIBS
100
AcDbLine
 10
-66000.0
 20
40833.33333333333
 30
24645.027478532822
 11
-60500.00000000001
 21
40833.33333333333
 31
26859.229166057255
  0
LINE
  5
225
330
17
100
AcDbEntity
  8
RIBS
100
AcDbLine
 10
-60500.00000000001
 20
40833.33333333333
 30
26859.229166057255
 11
-55000.0
 21
40833.33333333333
 31
28880.89157640565
  0
LINE
  5
226
330
17
100
AcDbEntity
  8
RIBS
100
AcDbLine
 10
-55000.0
 20
40833.33333333333
 30
28880.89157640565
 11
-49499.99999999999
 21
40833.33333333333
 31
30710.014709578012
  0
LINE
  5
227
330
17
100
AcDbEntity
  8
RIBS
100
AcDbLine
 10
-49499.99999999999
 20
40833.33333333333
 30
30710.014709578012
 11
-44000.0
 21
40833.33333333333
 31
32346.598565574328
  0
LINE
  5
228
330
17
100
AcDbEntity
  8
RIBS
100
AcDbLine
 10
-44000.0
 20
40833.33333333333
 30
32346.598565574328
 11
-38500.0
 21
40833.33333333333
 31
33790.64314439461
  0
LINE
  5
229
330
17
100
AcDbEntity
  8
RIBS
100
AcDbLine
 10
-38500.0
 20
40833.33333333333
 30
33790.64314439461
 11
-33000.00000000001
 21
40833.33333333333
 31
35042.14844603885
  0
LINE
  5
22A
330
17
100
AcDbEntity
  8
RIBS
100
AcDbLine
 10
-33000.00000000001
 20
40833.33333333333
 30
35042.14844603885
 11
-27500.0
 21
40833.33333333333
 31
36101.11447050706
  0
LINE
  5
22B
330
17
100
AcDbEntity
  8
RIBS
100
AcDbLine
 10
-27500.0
 20
40833.33333333333
 30
36101.11447050706
 11
-21999.999999999996
 21
40833.33333333333
 31
36967.54121779923
  0
LINE
  5
22C
330
17
100
AcDbEntity
  8
RIBS
100
AcDbLine
 10
-21999.999999999996
 20
40833.33333333333
 30
36967.54121779923
 11
-16500.000000000004
 21
40833.33333333333
 31
37641.428687915366
  0
LINE
  5
22D
330
17
100
AcDbEntity
  8
RIBS
100
AcDbLine
 10
-16500.000000000004
 20
40833.33333333333
 30
37641.428687915366
 11
-10999.999999999998
 21
40833.33333333333
 31
38122.77688085546
  0
LINE
  5
22E
330
17
100
AcDbEntity
  8
RIBS
100
AcDbLine
 10
-10999.999999999998
 20
40833.33333333333
 30
38122.77688085546
 11
-5500.000000000005
 21
40833.33333333333
 31
38411.58579661952
  0
LINE
  5
22F
330
17
100
AcDbEntity
  8
RIBS
100
AcDbLine
 10
-5500.000000000005
 20
40833.33333333333
 30
38411.58579661952
 11
0.0
 21
40833.33333333333
 31
38507.85543520753
  0
LINE
  5
230
330
17
100
AcDbEntity
  8
RIBS
100
AcDbLine
 10
0.0
 20
40833.33333333333
 30
38507.85543520753
 11
5500.000000000005
 21
40833.33333333333
 31
38411.58579661952
  0
LINE
  5
231
330
17
100
AcDbEntity
  8
RIBS
100
AcDbLine
 10
5500.000000000005
 20
40833.33333333333
 30
38411.58579661952
 11
11000.00000000001
 21
40833.33333333333
 31
38122.77688085546
  0
LINE
  5
232
330
17
100
AcDbEntity
  8
RIBS
100
AcDbLine
 10
11000.00000000001
 20
40833.33333333333
 30
38122.77688085546
 11
16499.99999999999
 21
40833.33333333333
 31
37641.428687915366
  0
LINE
  5
233
330
17
100
AcDbEntity
  8
RIBS
100
AcDbLine
 10
16499.99999999999
 20
40833.33333333333
 30
37641.428687915366
 11
21999.999999999996
 21
40833.33333333333
 31
36967.54121779923
  0
LINE
  5
234
330
17
100
AcDbEntity
  8
RIBS
100
AcDbLine
 10
21999.999999999996
 20
40833.33333333333
 30
36967.54121779923
 11
27500.0
 21
40833.33333333333
 31
36101.11447050706
  0
LINE
  5
235
330
17
100
AcDbEntity
  8
RIBS
100
AcDbLine
 10
27500.0
 20
40833.33333333333
 30
36101.11447050706
 11
33000.00000000001
 21
40833.33333333333
 31
35042.14844603885
  0
LINE
  5
236
330
17
100
AcDbEntity
  8
RIBS
100
AcDbLine
 10
33000.00000000001
 20
40833.33333333333
 30
35042.14844603885
 11
38500.00000000001
 21
40833.33333333333
 31
33790.64314439461
  0
LINE
  5
237
330
17
100
AcDbEntity
  8
RIBS
100
AcDbLine
 10
38500.00000000001
 20
40833.33333333333
 30
33790.64314439461
 11
43999.99999999999
 21
40833.33333333333
 31
32346.598565574335
  0
LINE
  5
238
330
17
100
AcDbEntity
  8
RIBS
100
AcDbLine
 10
43999.99999999999
 20
40833.33333333333
 30
32346.598565574335
 11
49499.99999999999
 21
40833.33333333333
 31
30710.014709578012
  0
LINE
  5
239
330
17
100
AcDbEntity
  8
RIBS
100
AcDbLine
 10
49499.99999999999
 20
40833.33333333333
 30
30710.014709578012
 11
55000.0
 21
40833.33333333333
 31
28880.89157640565
  0
LINE
  5
23A
330
17
100
AcDbEntity
  8
RIBS
100
AcDbLine
 10
55000.0
 20
40833.33333333333
 30
28880.89157640565
 11
60500.00000000001
 21
40833.33333333333
 31
26859.229166057255
  0
LINE
  5
23B
330
17
100
AcDbEntity
  8
RIBS
100
AcDbLine
 10
60500.00000000001
 20
40833.33333333333
 30
26859.229166057255
 11
66000.00000000001
 21
40833.33333333333
 31
24645.02747853282
  0
LINE
  5
23C
330
17
100
AcDbEntity
  8
RIBS
100
AcDbLine
 10
66000.00000000001
 20
40833.33333333333
 30
24645.02747853282
 11
71499.99999999999
 21
40833.33333333333
 31
22238.286513832358
  0
LINE
  5
23D
330
17
100
AcDbEntity
  8
RIBS
100
AcDbLine
 10
71499.99999999999
 20
40833.33333333333
 30
22238.286513832358
 11
77000.0
 21
40833.33333333333
 31
19639.00627195584
  0
LINE
  5
23E
330
17
100
AcDbEntity
  8
RIBS
100
AcDbLine
 10
77000.0
 20
40833.33333333333
 30
19639.00627195584
 11
82500.0
 21
40833.33333333333
 31
16847.186752903297
  0
LINE
  5
23F
330
17
100
AcDbEntity
  8
RIBS
100
AcDbLine
 10
82500.0
 20
40833.33333333333
 30
16847.186752903297
 11
88000.0
 21
40833.33333333333
 31
13862.827956674706
  0
LINE
  5
240
330
17
100
AcDbEntity
  8
RIBS
100
AcDbLine
 10
88000.0
 20
40833.33333333333
 30
13862.827956674706
 11
93500.00000000001
 21
40833.33333333333
 31
10685.929883270084
  0
LINE
  5
241
330
17
100
AcDbEntity
  8
RIBS
100
AcDbLine
 10
93500.00000000001
 20
40833.33333333333
 30
10685.929883270084
 11
98999.99999999999
 21
40833.33333333333
 31
7316.492532689437
  0
LINE
  5
242
330
17
100
AcDbEntity
  8
RIBS
100
AcDbLine
 10
98999.99999999999
 20
40833.33333333333
 30
7316.492532689437
 11
104500.0
 21
40833.33333333333
 31
3754.515904932736
  0
LINE
  5
243
330
17
100
AcDbEntity
  8
RIBS
100
AcDbLine
 10
104500.0
 20
40833.33333333333
 30
3754.515904932736
 11
110000.0
 21
40833.33333333333
 31
0.0
  0
LINE
  5
244
330
17
100
AcDbEntity
  8
RIBS
100
AcDbLine
 10
-110000.0
 20
52500.0
 30
0.0
 11
-104500.0
 21
52500.0
 31
3763.2234394576526
  0
LINE
  5
245
330
17
100
AcDbEntity
  8
RIBS
100
AcDbLine
 10
-104500.0
 20
52500.0
 30
3763.2234394576526
 11
-99000.0
 21
52500.0
 31
7333.461061507216
  0
LINE
  5
246
330
17
100
AcDbEntity
  8
RIBS
100
AcDbLine
 10
-99000.0
 20
52500.0
 30
7333.461061507216
 11
-93500.0
 21
52500.0
 31
10710.712866148702
  0
LINE
  5
247
330
17
100
AcDbEntity
  8
RIBS
100
AcDbLine
 10
-93500.0
 20
52500.0
 30
10710.712866148702
 11
-88000.0
 21
52500.0
 31
13894.97885338209
  0
LINE
  5
248
330
17
100
AcDbEntity
  8
RIBS
100
AcDbLine
 10
-88000.0
 20
52500.0
 30
13894.97885338209
 11
-82500.0
 21
52500.0
 31
16886.25902320741
  0
LINE
  5
249
330
17
100
AcDbEntity
  8
RIBS
100
AcDbLine
 10
-82500.0
 20
52500.0
 30
16886.25902320741
 11
-77000.0
 21
52500.0
 31
19684.553375624637
  0
LINE
  5
24A
330
17
100
AcDbEntity
  8
RIBS
100
AcDbLine
 10
-77000.0
 20
52500.0
 30
19684.553375624637
 11
-71500.0
 21
52500.0
 31
22289.861910633776
  0
LINE
  5
24B
330
17
100
AcDbEntity
  8
RIBS
100
AcDbLine
 10
-71500.0
 20
52500.0
 30
22289.861910633776
 11
-66000.0
 21
52500.0
 31
24702.184628234838
  0
LINE
  5
24C
330
17
100
AcDbEntity
  8
RIBS
100
AcDbLine
 10
-66000.0
 20
52500.0
 30
24702.184628234838
 11
-60500.00000000001
 21
52500.0
 31
26921.521528427813
  0
LINE
  5
24D
330
17
100
AcDbEntity
  8
RIBS
100
AcDbLine
 10
-60500.00000000001
 20
52500.0
 30
26921.521528427813
 11
-55000.0
 21
52500.0
 31
28947.8726112127
  0
LINE
  5
24E
330
17
100
AcDbEntity
  8
RIBS
100
AcDbLine
 10
-55000.0
 20
52500.0
 30
28947.8726112127
 11
-49499.99999999999
 21
52500.0
 31
30781.237876589512
  0
LINE
  5
24F
330
17
100
AcDbEntity
  8
RIBS
100
AcDbLine
 10
-49499.99999999999
 20
52500.0
 30
30781.237876589512
 11
-44000.0
 21
52500.0
 31
32421.617324558225
  0
LINE
  5
250
330
17
100
AcDbEntity
  8
RIBS
100
AcDbLine
 10
-44000.0
 20
52500.0
 30
32421.617324558225
 11
-38500.0
 21
52500.0
 31
33869.01095511886
  0
LINE
  5
251
330
17
100
AcDbEntity
  8
RIBS
100
AcDbLine
 10
-38500.0
 20
52500.0
 30
33869.01095511886
 11
-33000.00000000001
 21
52500.0
 31
35123.418768271404
  0
LINE
  5
252
330
17
100
AcDbEntity
  8
RIBS
100
AcDbLine
 10
-33000.00000000001
 20
52500.0
 30
35123.418768271404
 11
-27500.0
 21
52500.0
 31
36184.84076401588
  0
LINE
  5
253
330
17
100
AcDbEntity
  8
RIBS
100
AcDbLine
 10
-27500.0
 20
52500.0
 30
36184.84076401588
 11
-21999.999999999996
 21
52500.0
 31
37053.276942352255
  0
LINE
  5
254
330
17
100
AcDbEntity
  8
RIBS
100
AcDbLine
 10
-21999.999999999996
 20
52500.0
 30
37053.276942352255
 11
-16500.000000000004
 21
52500.0
 31
37728.72730328055
  0
LINE
  5
255
330
17
100
AcDbEntity
  8
RIBS
100
AcDbLine
 10
-16500.000000000004
 20
52500.0
 30
37728.72730328055
 11
-10999.999999999998
 21
52500.0
 31
38211.191846800764
  0
LINE
  5
256
330
17
100
AcDbEntity
  8
RIBS
100
AcDbLine
 10
-10999.999999999998
 20
52500.0
 30
38211.191846800764
 11
-5500.000000000005
 21
52500.0
 31
38500.670572912895
  0
LINE
  5
257
330
17
100
AcDbEntity
  8
RIBS
100
AcDbLine
 10
-5500.000000000005
 20
52500.0
 30
38500.670572912895
 11
0.0
 21
52500.0
 31
38597.16348161693
  0
LINE
  5
258
330
17
100
AcDbEntity
  8
RIBS
100
AcDbLine
 10
0.0
 20
52500.0
 30
38597.16348161693
 11
5500.000000000005
 21
52500.0
 31
38500.670572912895
  0
LINE
  5
259
330
17
100
AcDbEntity
  8
RIBS
100
AcDbLine
 10
5500.000000000005
 20
52500.0
 30
38500.670572912895
 11
11000.00000000001
 21
52500.0
 31
38211.191846800764
  0
LINE
  5
25A
330
17
100
AcDbEntity
  8
RIBS
100
AcDbLine
 10
11000.00000000001
 20
52500.0
 30
38211.191846800764
 11
16499.99999999999
 21
52500.0
 31
37728.72730328055
  0
LINE
  5
25B
330
17
100
AcDbEntity
  8
RIBS
100
AcDbLine
 10
16499.99999999999
 20
52500.0
 30
37728.72730328055
 11
21999.999999999996
 21
52500.0
 31
37053.276942352255
  0
LINE
  5
25C
330
17
100
AcDbEntity
  8
RIBS
100
AcDbLine
 10
21999.999999999996
 20
52500.0
 30
37053.276942352255
 11
27500.0
 21
52500.0
 31
36184.84076401588
  0
LINE
  5
25D
330
17
100
AcDbEntity
  8
RIBS
100
AcDbLine
 10
27500.0
 20
52500.0
 30
36184.84076401588
 11
33000.00000000001
 21
52500.0
 31
35123.418768271404
  0
LINE
  5
25E
330
17
100
AcDbEntity
  8
RIBS
100
AcDbLine
 10
33000.00000000001
 20
52500.0
 30
35123.418768271404
 11
38500.00000000001
 21
52500.0
 31
33869.01095511886
  0
LINE
  5
25F
330
17
100
AcDbEntity
  8
RIBS
100
AcDbLine
 10
38500.00000000001
 20
52500.0
 30
33869.01095511886
 11
43999.99999999999
 21
52500.0
 31
32421.617324558232
  0
LINE
  5
260
330
17
100
AcDbEntity
  8
RIBS
100
AcDbLine
 10
43999.99999999999
 20
52500.0
 30
32421.617324558232
 11
49499.99999999999
 21
52500.0
 31
30781.237876589512
  0
LINE
  5
261
330
17
100
AcDbEntity
  8
RIBS
100
AcDbLine
 10
49499.99999999999
 20
52500.0
 30
30781.237876589512
 11
55000.0
 21
52500.0
 31
28947.8726112127
  0
LINE
  5
262
330
17
100
AcDbEntity
  8
RIBS
100
AcDbLine
 10
55000.0
 20
52500.0
 30
28947.8726112127
 11
60500.00000000001
 21
52500.0
 31
26921.521528427813
  0
LINE
  5
263
330
17
100
AcDbEntity
  8
RIBS
100
AcDbLine
 10
60500.00000000001
 20
52500.0
 30
26921.521528427813
 11
66000.00000000001
 21
52500.0
 31
24702.184628234834
  0
LINE
  5
264
330
17
100
AcDbEntity
  8
RIBS
100
AcDbLine
 10
66000.00000000001
 20
52500.0
 30
24702.184628234834
 11
71499.99999999999
 21
52500.0
 31
22289.861910633786
  0
LINE
  5
265
330
17
100
AcDbEntity
  8
RIBS
100
AcDbLine
 10
71499.99999999999
 20
52500.0
 30
22289.861910633786
 11
77000.0
 21
52500.0
 31
19684.553375624637
  0
LINE
  5
266
330
17
100
AcDbEntity
  8
RIBS
100
AcDbLine
 10
77000.0
 20
52500.0
 30
19684.553375624637
 11
82500.0
 21
52500.0
 31
16886.25902320741
  0
LINE
  5
267
330
17
100
AcDbEntity
  8
RIBS
100
AcDbLine
 10
82500.0
 20
52500.0
 30
16886.25902320741
 11
88000.0
 21
52500.0
 31
13894.97885338209
  0
LINE
  5
268
330
17
100
AcDbEntity
  8
RIBS
100
AcDbLine
 10
88000.0
 20
52500.0
 30
13894.97885338209
 11
93500.00000000001
 21
52500.0
 31
10710.712866148693
  0
LINE
  5
269
330
17
100
AcDbEntity
  8
RIBS
100
AcDbLine
 10
93500.00000000001
 20
52500.0
 30
10710.712866148693
 11
98999.99999999999
 21
52500.0
 31
7333.461061507223
  0
LINE
  5
26A
330
17
100
AcDbEntity
  8
RIBS
100
AcDbLine
 10
98999.99999999999
 20
52500.0
 30
7333.461061507223
 11
104500.0
 21
52500.0
 31
3763.2234394576526
  0
LINE
  5
26B
330
17
100
AcDbEntity
  8
RIBS
100
AcDbLine
 10
104500.0
 20
52500.0
 30
3763.2234394576526
 11
110000.0
 21
52500.0
 31
0.0
  0
LINE
  5
26C
330
17
100
AcDbEntity
  8
RIBS
100
AcDbLine
 10
-110000.0
 20
64166.66666666666
 30
0.0
 11
-104500.0
 21
64166.66666666666
 31
3881.8071276330584
  0
LINE
  5
26D
330
17
100
AcDbEntity
  8
RIBS
100
AcDbLine
 10
-104500.0
 20
64166.66666666666
 30
3881.8071276330584
 11
-99000.0
 21
64166.66666666666
 31
7564.547223079801
  0
LINE
  5
26E
330
17
100
AcDbEntity
  8
RIBS
100
AcDbLine
 10
-99000.0
 20
64166.66666666666
 30
7564.547223079801
 11
-93500.0
 21
64166.66666666666
 31
11048.220286340242
  0
LINE
  5
26F
330
17
100
AcDbEntity
  8
RIBS
100
AcDbLine
 10
-93500.0
 20
64166.66666666666
 30
11048.220286340242
 11
-88000.0
 21
64166.66666666666
 31
14332.826317414358
  0
LINE
  5
270
330
17
100
AcDbEntity
  8
RIBS
100
AcDbLine
 10
-88000.0
 20
64166.66666666666
 30
14332.826317414358
 11
-82500.0
 21
64166.66666666666
 31
17418.365316302177
  0
LINE
  5
271
330
17
100
AcDbEntity
  8
RIBS
100
AcDbLine
 10
-82500.0
 20
64166.66666666666
 30
17418.365316302177
 11
-77000.0
 21
64166.66666666666
 31
20304.837283003682
  0
LINE
  5
272
330
17
100
AcDbEntity
  8
RIBS
100
AcDbLine
 10
-77000.0
 20
64166.66666666666
 30
20304.837283003682
 11
-71500.0
 21
64166.66666666666
 31
22992.242217518873
  0
LINE
  5
273
330
17
100
AcDbEntity
  8
RIBS
100
AcDbLine
 10
-71500.0
 20
64166.66666666666
 30
22992.242217518873
 11
-66000.0
 21
64166.66666666666
 31
25480.580119847757
  0
LINE
  5
274
330
17
100
AcDbEntity
  8
RIBS
100
AcDbLine
 10
-66000.0
 20
64166.66666666666
 30
25480.580119847757
 11
-60500.00000000001
 21
64166.66666666666
 31
27769.85098999033
  0
LINE
  5
275
330
17
100
AcDbEntity
  8
RIBS
100
AcDbLine
 10
-60500.00000000001
 20
64166.66666666666
 30
27769.85098999033
 11
-55000.0
 21
64166.66666666666
 31
29860.05482794659
  0
LINE
  5
276
330
17
100
AcDbEntity
  8
RIBS
100
AcDbLine
 10
-55000.0
 20
64166.66666666666
 30
29860.05482794659
 11
-49499.99999999999
 21
64166.66666666666
 31
31751.191633716546
  0
LINE
  5
277
330
17
100
AcDbEntity
  8
RIBS
100
AcDbLine
 10
-49499.99999999999
 20
64166.66666666666
 30
31751.191633716546
 11
-44000.0
 21
64166.66666666666
 31
33443.26140730018
  0
LINE
  5
278
330
17
100
AcDbEntity
  8
RIBS
100
AcDbLine
 10
-44000.0
 20
64166.66666666666
 30
33443.26140730018
 11
-38500.0
 21
64166.66666666666
 31
34936.26414869751
  0
LINE
  5
279
330
17
100
AcDbEntity
  8
RIBS
100
AcDbLine
 10
-38500.0
 20
64166.66666666666
 30
34936.26414869751
 11
-33000.00000000001
 21
64166.66666666666
 31
36230.19985790853
  0
LINE
  5
27A
330
17
100
AcDbEntity
  8
RIBS
100
AcDbLine
 10
-33000.00000000001
 20
64166.66666666666
 30
36230.19985790853
 11
-27500.0
 21
64166.66666666666
 31
37325.068534933234
  0
LINE
  5
27B
330
17
100
AcDbEntity
  8
RIBS
100
AcDbLine
 10
-27500.0
 20
64166.66666666666
 30
37325.068534933234
 11
-21999.999999999996
 21
64166.66666666666
 31
38220.870179771635
  0
LINE
  5
27C
330
17
100
AcDbEntity
  8
RIBS
100
AcDbLine
 10
-21999.999999999996
 20
64166.66666666666
 30
38220.870179771635
 11
-16500.000000000004
 21
64166.66666666666
 31
38917.60479242372
  0
LINE
  5
27D
330
17
100
AcDbEntity
  8
RIBS
100
AcDbLine
 10
-16500.000000000004
 20
64166.66666666666
 30
38917.60479242372
 11
-10999.999999999998
 21
64166.66666666666
 31
39415.2723728895
  0
LINE
  5
27E
330
17
100
AcDbEntity
  8
RIBS
100
AcDbLine
 10
-10999.999999999998
 20
64166.66666666666
 30
39415.2723728895
 11
-5500.000000000005
 21
64166.66666666666
 31
39713.872921168964
  0
LINE
  5
27F
330
17
100
AcDbEntity
  8
RIBS
100
AcDbLine
 10
-5500.000000000005
 20
64166.66666666666
 30
39713.872921168964
 11
0.0
 21
64166.66666666666
 31
39813.40643726212
  0
LINE
  5
280
330
17
100
AcDbEntity
  8
RIBS
100
AcDbLine
 10
0.0
 20
64166.66666666666
 30
39813.40643726212
 11
5500.000000000005
 21
64166.66666666666
 31
39713.872921168964
  0
LINE
  5
281
330
17
100
AcDbEntity
  8
RIBS
100
AcDbLine
 10
5500.000000000005
 20
64166.66666666666
 30
39713.872921168964
 11
11000.00000000001
 21
64166.66666666666
 31
39415.2723728895
  0
LINE
  5
282
330
17
100
AcDbEntity
  8
RIBS
100
AcDbLine
 10
11000.00000000001
 20
64166.66666666666
 30
39415.2723728895
 11
16499.99999999999
 21
64166.66666666666
 31
38917.60479242372
  0
LINE
  5
283
330
17
100
AcDbEntity
  8
RIBS
100
AcDbLine
 10
16499.99999999999
 20
64166.66666666666
 30
38917.60479242372
 11
21999.999999999996
 21
64166.66666666666
 31
38220.870179771635
  0
LINE
  5
284
330
17
100
AcDbEntity
  8
RIBS
100
AcDbLine
 10
21999.999999999996
 20
64166.66666666666
 30
38220.870179771635
 11
27500.0
 21
64166.66666666666
 31
37325.068534933234
  0
LINE
  5
285
330
17
100
AcDbEntity
  8
RIBS
100
AcDbLine
 10
27500.0
 20
64166.66666666666
 30
37325.068534933234
 11
33000.00000000001
 21
64166.66666666666
 31
36230.19985790853
  0
LINE
  5
286
330
17
100
AcDbEntity
  8
RIBS
100
AcDbLine
 10
33000.00000000001
 20
64166.66666666666
 30
36230.19985790853
 11
38500.00000000001
 21
64166.66666666666
 31
34936.26414869751
  0
LINE
  5
287
330
17
100
AcDbEntity
  8
RIBS
100
AcDbLine
 10
38500.00000000001
 20
64166.66666666666
 30
34936.26414869751
 11
43999.99999999999
 21
64166.66666666666
 31
33443.26140730019
  0
LINE
  5
288
330
17
100
AcDbEntity
  8
RIBS
100
AcDbLine
 10
43999.99999999999
 20
64166.66666666666
 30
33443.26140730019
 11
49499.99999999999
 21
64166.66666666666
 31
31751.191633716546
  0
LINE
  5
289
330
17
100
AcDbEntity
  8
RIBS
100
AcDbLine
 10
49499.99999999999
 20
64166.66666666666
 30
31751.191633716546
 11
55000.0
 21
64166.66666666666
 31
29860.05482794659
  0
LINE
  5
28A
330
17
100
AcDbEntity
  8
RIBS
100
AcDbLine
 10
55000.0
 20
64166.66666666666
 30
29860.05482794659
 11
60500.00000000001
 21
64166.66666666666
 31
27769.85098999033
  0
LINE
  5
28B
330
17
100
AcDbEntity
  8
RIBS
100
AcDbLine
 10
60500.00000000001
 20
64166.66666666666
 30
27769.85098999033
 11
66000.00000000001
 21
64166.66666666666
 31
25480.580119847753
  0
LINE
  5
28C
330
17
100
AcDbEntity
  8
RIBS
100
AcDbLine
 10
66000.00000000001
 20
64166.66666666666
 30
25480.580119847753
 11
71499.99999999999
 21
64166.66666666666
 31
22992.24221751888
  0
LINE
  5
28D
330
17
100
AcDbEntity
  8
RIBS
100
AcDbLine
 10
71499.99999999999
 20
64166.66666666666
 30
22992.24221751888
 11
77000.0
 21
64166.66666666666
 31
20304.837283003682
  0
LINE
  5
28E
330
17
100
AcDbEntity
  8
RIBS
100
AcDbLine
 10
77000.0
 20
64166.66666666666
 30
20304.837283003682
 11
82500.0
 21
64166.66666666666
 31
17418.365316302177
  0
LINE
  5
28F
330
17
100
AcDbEntity
  8
RIBS
100
AcDbLine
 10
82500.0
 20
64166.66666666666
 30
17418.365316302177
 11
88000.0
 21
64166.66666666666
 31
14332.826317414358
  0
LINE
  5
290
330
17
100
AcDbEntity
  8
RIBS
100
AcDbLine
 10
88000.0
 20
64166.66666666666
 30
14332.826317414358
 11
93500.00000000001
 21
64166.66666666666
 31
11048.220286340233
  0
LINE
  5
291
330
17
100
AcDbEntity
  8
RIBS
100
AcDbLine
 10
93500.00000000001
 20
64166.66666666666
 30
11048.220286340233
 11
98999.99999999999
 21
64166.66666666666
 31
7564.547223079809
  0
LINE
  5
292
330
17
100
AcDbEntity
  8
RIBS
100
AcDbLine
 10
98999.99999999999
 20
64166.66666666666
 30
7564.547223079809
 11
104500.0
 21
64166.66666666666
 31
3881.8071276330584
  0
LINE
  5
293
330
17
100
AcDbEntity
  8
RIBS
100
AcDbLine
 10
104500.0
 20
64166.66666666666
 30
3881.8071276330584
 11
110000.0
 21
64166.66666666666
 31
0.0
  0
LINE
  5
294
330
17
100
AcDbEntity
  8
BEAMS
100
AcDbLine
 10
-110000.0
 20
-70000.0
 30
8000.0
 11
110000.0
 21
-70000.0
 31
8000.0
  0
LINE
  5
295
330
17
100
AcDbEntity
  8
BEAMS
100
AcDbLine
 10
110000.0
 20
-70000.0
 30
8000.0
 11
110000.0
 21
70000.0
 31
8000.0
  0
LINE
  5
296
330
17
100
AcDbEntity
  8
BEAMS
100
AcDbLine
 10
110000.0
 20
70000.0
 30
8000.0
 11
-110000.0
 21
70000.0
 31
8000.0
  0
LINE
  5
297
330
17
100
AcDbEntity
  8
BEAMS
100
AcDbLine
 10
-110000.0
 20
70000.0
 30
8000.0
 11
-110000.0
 21
-70000.0
 31
8000.0
  0
LINE
  5
298
330
17
100
AcDbEntity
  8
BRACING
100
AcDbLine
 10
-55000.0
 20
-70000.0
 30
36000.0
 11
-55000.0
 21
0.0
 31
35280.0
  0
LINE
  5
299
330
17
100
AcDbEntity
  8
BRACING
100
AcDbLine
 10
0.0
 20
-70000.0
 30
48000.0
 11
0.0
 21
0.0
 31
47040.0
  0
LINE
  5
29A
330
17
100
AcDbEntity
  8
BRACING
100
AcDbLine
 10
55000.0
 20
-70000.0
 30
36000.0
 11
55000.0
 21
0.0
 31
35280.0
  0
LINE
  5
29B
330
17
100
AcDbEntity
  8
BRACING
100
AcDbLine
 10
-55000.0
 20
0.0
 30
36000.0
 11
-55000.0
 21
70000.0
 31
35280.0
  0
LINE
  5
29C
330
17
100
AcDbEntity
  8
BRACING
100
AcDbLine
 10
0.0
 20
0.0
 30
48000.0
 11
0.0
 21
70000.0
 31
47040.0
  0
LINE
  5
29D
330
17
100
AcDbEntity
  8
BRACING
100
AcDbLine
 10
55000.0
 20
0.0
 30
36000.0
 11
55000.0
 21
70000.0
 31
35280.0
  0
LINE
  5
29E
330
17
100
AcDbEntity
  8
COLUMNS
100
AcDbLine
 10
-110000.0
 20
-70000.0
 30
0.0
 11
-110000.0
 21
-70000.0
 31
8000.0
  0
LINE
  5
29F
330
17
100
AcDbEntity
  8
COLUMNS
100
AcDbLine
 10
-110000.0
 20
70000.0
 30
0.0
 11
-110000.0
 21
70000.0
 31
8000.0
  0
LINE
  5
2A0
330
17
100
AcDbEntity
  8
COLUMNS
100
AcDbLine
 10
-90000.0
 20
-70000.0
 30
0.0
 11
-90000.0
 21
-70000.0
 31
8000.0
  0
LINE
  5
2A1
330
17
100
AcDbEntity
  8
COLUMNS
100
AcDbLine
 10
-90000.0
 20
70000.0
 30
0.0
 11
-90000.0
 21
70000.0
 31
8000.0
  0
LINE
  5
2A2
330
17
100
AcDbEntity
  8
COLUMNS
100
AcDbLine
 10
-70000.0
 20
-70000.0
 30
0.0
 11
-70000.0
 21
-70000.0
 31
8000.0
  0
LINE
  5
2A3
330
17
100
AcDbEntity
  8
COLUMNS
100
AcDbLine
 10
-70000.0
 20
70000.0
 30
0.0
 11
-70000.0
 21
70000.0
 31
8000.0
  0
LINE
  5
2A4
330
17
100
AcDbEntity
  8
COLUMNS
100
AcDbLine
 10
-50000.0
 20
-70000.0
 30
0.0
 11
-50000.0
 21
-70000.0
 31
8000.0
  0
LINE
  5
2A5
330
17
100
AcDbEntity
  8
COLUMNS
100
AcDbLine
 10
-50000.0
 20
70000.0
 30
0.0
 11
-50000.0
 21
70000.0
 31
8000.0
  0
LINE
  5
2A6
330
17
100
AcDbEntity
  8
COLUMNS
100
AcDbLine
 10
-30000.0
 20
-70000.0
 30
0.0
 11
-30000.0
 21
-70000.0
 31
8000.0
  0
LINE
  5
2A7
330
17
100
AcDbEntity
  8
COLUMNS
100
AcDbLine
 10
-30000.0
 20
70000.0
 30
0.0
 11
-30000.0
 21
70000.0
 31
8000.0
  0
LINE
  5
2A8
330
17
100
AcDbEntity
  8
COLUMNS
100
AcDbLine
 10
-10000.0
 20
-70000.0
 30
0.0
 11
-10000.0
 21
-70000.0
 31
8000.0
  0
LINE
  5
2A9
330
17
100
AcDbEntity
  8
COLUMNS
100
AcDbLine
 10
-10000.0
 20
70000.0
 30
0.0
 11
-10000.0
 21
70000.0
 31
8000.0
  0
LINE
  5
2AA
330
17
100
AcDbEntity
  8
COLUMNS
100
AcDbLine
 10
10000.0
 20
-70000.0
 30
0.0
 11
10000.0
 21
-70000.0
 31
8000.0
  0
LINE
  5
2AB
330
17
100
AcDbEntity
  8
COLUMNS
100
AcDbLine
 10
10000.0
 20
70000.0
 30
0.0
 11
10000.0
 21
70000.0
 31
8000.0
  0
LINE
  5
2AC
330
17
100
AcDbEntity
  8
COLUMNS
100
AcDbLine
 10
30000.0
 20
-70000.0
 30
0.0
 11
30000.0
 21
-70000.0
 31
8000.0
  0
LINE
  5
2AD
330
17
100
AcDbEntity
  8
COLUMNS
100
AcDbLine
 10
30000.0
 20
70000.0
 30
0.0
 11
30000.0
 21
70000.0
 31
8000.0
  0
LINE
  5
2AE
330
17
100
AcDbEntity
  8
COLUMNS
100
AcDbLine
 10
50000.0
 20
-70000.0
 30
0.0
 11
50000.0
 21
-70000.0
 31
8000.0
  0
LINE
  5
2AF
330
17
100
AcDbEntity
  8
COLUMNS
100
AcDbLine
 10
50000.0
 20
70000.0
 30
0.0
 11
50000.0
 21
70000.0
 31
8000.0
  0
LINE
  5
2B0
330
17
100
AcDbEntity
  8
COLUMNS
100
AcDbLine
 10
70000.0
 20
-70000.0
 30
0.0
 11
70000.0
 21
-70000.0
 31
8000.0
  0
LINE
  5
2B1
330
17
100
AcDbEntity
  8
COLUMNS
100
AcDbLine
 10
70000.0
 20
70000.0
 30
0.0
 11
70000.0
 21
70000.0
 31
8000.0
  0
LINE
  5
2B2
330
17
100
AcDbEntity
  8
COLUMNS
100
AcDbLine
 10
90000.0
 20
-70000.0
 30
0.0
 11
90000.0
 21
-70000.0
 31
8000.0
  0
LINE
  5
2B3
330
17
100
AcDbEntity
  8
COLUMNS
100
AcDbLine
 10
90000.0
 20
70000.0
 30
0.0
 11
90000.0
 21
70000.0
 31
8000.0
  0
LINE
  5
2B4
330
17
100
AcDbEntity
  8
COLUMNS
100
AcDbLine
 10
110000.0
 20
-70000.0
 30
0.0
 11
110000.0
 21
-70000.0
 31
8000.0
  0
LINE
  5
2B5
330
17
100
AcDbEntity
  8
COLUMNS
100
AcDbLine
 10
110000.0
 20
70000.0
 30
0.0
 11
110000.0
 21
70000.0
 31
8000.0
  0
LINE
  5
2B6
330
17
100
AcDbEntity
  8
COLUMNS
100
AcDbLine
 10
-110000.0
 20
-70000.0
 30
0.0
 11
-110000.0
 21
-70000.0
 31
8000.0
  0
LINE
  5
2B7
330
17
100
AcDbEntity
  8
COLUMNS
100
AcDbLine
 10
110000.0
 20
-70000.0
 30
0.0
 11
110000.0
 21
-70000.0
 31
8000.0
  0
LINE
  5
2B8
330
17
100
AcDbEntity
  8
COLUMNS
100
AcDbLine
 10
-110000.0
 20
-50000.0
 30
0.0
 11
-110000.0
 21
-50000.0
 31
8000.0
  0
LINE
  5
2B9
330
17
100
AcDbEntity
  8
COLUMNS
100
AcDbLine
 10
110000.0
 20
-50000.0
 30
0.0
 11
110000.0
 21
-50000.0
 31
8000.0
  0
LINE
  5
2BA
330
17
100
AcDbEntity
  8
COLUMNS
100
AcDbLine
 10
-110000.0
 20
-30000.0
 30
0.0
 11
-110000.0
 21
-30000.0
 31
8000.0
  0
LINE
  5
2BB
330
17
100
AcDbEntity
  8
COLUMNS
100
AcDbLine
 10
110000.0
 20
-30000.0
 30
0.0
 11
110000.0
 21
-30000.0
 31
8000.0
  0
LINE
  5
2BC
330
17
100
AcDbEntity
  8
COLUMNS
100
AcDbLine
 10
-110000.0
 20
-10000.0
 30
0.0
 11
-110000.0
 21
-10000.0
 31
8000.0
  0
LINE
  5
2BD
330
17
100
AcDbEntity
  8
COLUMNS
100
AcDbLine
 10
110000.0
 20
-10000.0
 30
0.0
 11
110000.0
 21
-10000.0
 31
8000.0
  0
LINE
  5
2BE
330
17
100
AcDbEntity
  8
COLUMNS
100
AcDbLine
 10
-110000.0
 20
10000.0
 30
0.0
 11
-110000.0
 21
10000.0
 31
8000.0
  0
LINE
  5
2BF
330
17
100
AcDbEntity
  8
COLUMNS
100
AcDbLine
 10
110000.0
 20
10000.0
 30
0.0
 11
110000.0
 21
10000.0
 31
8000.0
  0
LINE
  5
2C0
330
17
100
AcDbEntity
  8
COLUMNS
100
AcDbLine
 10
-110000.0
 20
30000.0
 30
0.0
 11
-110000.0
 21
30000.0
 31
8000.0
  0
LINE
  5
2C1
330
17
100
AcDbEntity
  8
COLUMNS
100
AcDbLine
 10
110000.0
 20
30000.0
 30
0.0
 11
110000.0
 21
30000.0
 31
8000.0
  0
LINE
  5
2C2
330
17
100
AcDbEntity
  8
COLUMNS
100
AcDbLine
 10
-110000.0
 20
50000.0
 30
0.0
 11
-110000.0
 21
50000.0
 31
8000.0
  0
LINE
  5
2C3
330
17
100
AcDbEntity
  8
COLUMNS
100
AcDbLine
 10
110000.0
 20
50000.0
 30
0.0
 11
110000.0
 21
50000.0
 31
8000.0
  0
LINE
  5
2C4
330
17
100
AcDbEntity
  8
COLUMNS
100
AcDbLine
 10
-110000.0
 20
70000.0
 30
0.0
 11
-110000.0
 21
70000.0
 31
8000.0
  0
LINE
  5
2C5
330
17
100
AcDbEntity
  8
COLUMNS
100
AcDbLine
 10
110000.0
 20
70000.0
 30
0.0
 11
110000.0
 21
70000.0
 31
8000.0
  0
LINE
  5
2C6
330
17
100
AcDbEntity
  8
GRIDS
100
AcDbLine
 10
-260000.0
 20
-260000.0
 30
0.0
 11
-260000.0
 21
260000.0
 31
0.0
  0
LINE
  5
2C7
330
17
100
AcDbEntity
  8
GRIDS
100
AcDbLine
 10
-240000.0
 20
-260000.0
 30
0.0
 11
-240000.0
 21
260000.0
 31
0.0
  0
LINE
  5
2C8
330
17
100
AcDbEntity
  8
GRIDS
100
AcDbLine
 10
-220000.0
 20
-260000.0
 30
0.0
 11
-220000.0
 21
260000.0
 31
0.0
  0
LINE
  5
2C9
330
17
100
AcDbEntity
  8
GRIDS
100
AcDbLine
 10
-200000.0
 20
-260000.0
 30
0.0
 11
-200000.0
 21
260000.0
 31
0.0
  0
LINE
  5
2CA
330
17
100
AcDbEntity
  8
GRIDS
100
AcDbLine
 10
-180000.0
 20
-260000.0
 30
0.0
 11
-180000.0
 21
260000.0
 31
0.0
  0
LINE
  5
2CB
330
17
100
AcDbEntity
  8
GRIDS
100
AcDbLine
 10
-160000.0
 20
-260000.0
 30
0.0
 11
-160000.0
 21
260000.0
 31
0.0
  0
LINE
  5
2CC
330
17
100
AcDbEntity
  8
GRIDS
100
AcDbLine
 10
-140000.0
 20
-260000.0
 30
0.0
 11
-140000.0
 21
260000.0
 31
0.0
  0
LINE
  5
2CD
330
17
100
AcDbEntity
  8
GRIDS
100
AcDbLine
 10
-120000.0
 20
-260000.0
 30
0.0
 11
-120000.0
 21
260000.0
 31
0.0
  0
LINE
  5
2CE
330
17
100
AcDbEntity
  8
GRIDS
100
AcDbLine
 10
-100000.0
 20
-260000.0
 30
0.0
 11
-100000.0
 21
260000.0
 31
0.0
  0
LINE
  5
2CF
330
17
100
AcDbEntity
  8
GRIDS
100
AcDbLine
 10
-80000.0
 20
-260000.0
 30
0.0
 11
-80000.0
 21
260000.0
 31
0.0
  0
LINE
  5
2D0
330
17
100
AcDbEntity
  8
GRIDS
100
AcDbLine
 10
-60000.0
 20
-260000.0
 30
0.0
 11
-60000.0
 21
260000.0
 31
0.0
  0
LINE
  5
2D1
330
17
100
AcDbEntity
  8
GRIDS
100
AcDbLine
 10
-40000.0
 20
-260000.0
 30
0.0
 11
-40000.0
 21
260000.0
 31
0.0
  0
LINE
  5
2D2
330
17
100
AcDbEntity
  8
GRIDS
100
AcDbLine
 10
-20000.0
 20
-260000.0
 30
0.0
 11
-20000.0
 21
260000.0
 31
0.0
  0
LINE
  5
2D3
330
17
100
AcDbEntity
  8
GRIDS
100
AcDbLine
 10
0.0
 20
-260000.0
 30
0.0
 11
0.0
 21
260000.0
 31
0.0
  0
LINE
  5
2D4
330
17
100
AcDbEntity
  8
GRIDS
100
AcDbLine
 10
20000.0
 20
-260000.0
 30
0.0
 11
20000.0
 21
260000.0
 31
0.0
  0
LINE
  5
2D5
330
17
100
AcDbEntity
  8
GRIDS
100
AcDbLine
 10
40000.0
 20
-260000.0
 30
0.0
 11
40000.0
 21
260000.0
 31
0.0
  0
LINE
  5
2D6
330
17
100
AcDbEntity
  8
GRIDS
100
AcDbLine
 10
60000.0
 20
-260000.0
 30
0.0
 11
60000.0
 21
260000.0
 31
0.0
  0
LINE
  5
2D7
330
17
100
AcDbEntity
  8
GRIDS
100
AcDbLine
 10
80000.0
 20
-260000.0
 30
0.0
 11
80000.0
 21
260000.0
 31
0.0
  0
LINE
  5
2D8
330
17
100
AcDbEntity
  8
GRIDS
100
AcDbLine
 10
100000.0
 20
-260000.0
 30
0.0
 11
100000.0
 21
260000.0
 31
0.0
  0
LINE
  5
2D9
330
17
100
AcDbEntity
  8
GRIDS
100
AcDbLine
 10
120000.0
 20
-260000.0
 30
0.0
 11
120000.0
 21
260000.0
 31
0.0
  0
LINE
  5
2DA
330
17
100
AcDbEntity
  8
GRIDS
100
AcDbLine
 10
140000.0
 20
-260000.0
 30
0.0
 11
140000.0
 21
260000.0
 31
0.0
  0
LINE
  5
2DB
330
17
100
AcDbEntity
  8
GRIDS
100
AcDbLine
 10
160000.0
 20
-260000.0
 30
0.0
 11
160000.0
 21
260000.0
 31
0.0
  0
LINE
  5
2DC
330
17
100
AcDbEntity
  8
GRIDS
100
AcDbLine
 10
180000.0
 20
-260000.0
 30
0.0
 11
180000.0
 21
260000.0
 31
0.0
  0
LINE
  5
2DD
330
17
100
AcDbEntity
  8
GRIDS
100
AcDbLine
 10
200000.0
 20
-260000.0
 30
0.0
 11
200000.0
 21
260000.0
 31
0.0
  0
LINE
  5
2DE
330
17
100
AcDbEntity
  8
GRIDS
100
AcDbLine
 10
220000.0
 20
-260000.0
 30
0.0
 11
220000.0
 21
260000.0
 31
0.0
  0
LINE
  5
2DF
330
17
100
AcDbEntity
  8
GRIDS
100
AcDbLine
 10
240000.0
 20
-260000.0
 30
0.0
 11
240000.0
 21
260000.0
 31
0.0
  0
LINE
  5
2E0
330
17
100
AcDbEntity
  8
GRIDS
100
AcDbLine
 10
260000.0
 20
-260000.0
 30
0.0
 11
260000.0
 21
260000.0
 31
0.0
  0
LINE
  5
2E1
330
17
100
AcDbEntity
  8
GRIDS
100
AcDbLine
 10
-260000.0
 20
-260000.0
 30
0.0
 11
260000.0
 21
-260000.0
 31
0.0
  0
LINE
  5
2E2
330
17
100
AcDbEntity
  8
GRIDS
100
AcDbLine
 10
-260000.0
 20
-240000.0
 30
0.0
 11
260000.0
 21
-240000.0
 31
0.0
  0
LINE
  5
2E3
330
17
100
AcDbEntity
  8
GRIDS
100
AcDbLine
 10
-260000.0
 20
-220000.0
 30
0.0
 11
260000.0
 21
-220000.0
 31
0.0
  0
LINE
  5
2E4
330
17
100
AcDbEntity
  8
GRIDS
100
AcDbLine
 10
-260000.0
 20
-200000.0
 30
0.0
 11
260000.0
 21
-200000.0
 31
0.0
  0
LINE
  5
2E5
330
17
100
AcDbEntity
  8
GRIDS
100
AcDbLine
 10
-260000.0
 20
-180000.0
 30
0.0
 11
260000.0
 21
-180000.0
 31
0.0
  0
LINE
  5
2E6
330
17
100
AcDbEntity
  8
GRIDS
100
AcDbLine
 10
-260000.0
 20
-160000.0
 30
0.0
 11
260000.0
 21
-160000.0
 31
0.0
  0
LINE
  5
2E7
330
17
100
AcDbEntity
  8
GRIDS
100
AcDbLine
 10
-260000.0
 20
-140000.0
 30
0.0
 11
260000.0
 21
-140000.0
 31
0.0
  0
LINE
  5
2E8
330
17
100
AcDbEntity
  8
GRIDS
100
AcDbLine
 10
-260000.0
 20
-120000.0
 30
0.0
 11
260000.0
 21
-120000.0
 31
0.0
  0
LINE
  5
2E9
330
17
100
AcDbEntity
  8
GRIDS
100
AcDbLine
 10
-260000.0
 20
-100000.0
 30
0.0
 11
260000.0
 21
-100000.0
 31
0.0
  0
LINE
  5
2EA
330
17
100
AcDbEntity
  8
GRIDS
100
AcDbLine
 10
-260000.0
 20
-80000.0
 30
0.0
 11
260000.0
 21
-80000.0
 31
0.0
  0
LINE
  5
2EB
330
17
100
AcDbEntity
  8
GRIDS
100
AcDbLine
 10
-260000.0
 20
-60000.0
 30
0.0
 11
260000.0
 21
-60000.0
 31
0.0
  0
LINE
  5
2EC
330
17
100
AcDbEntity
  8
GRIDS
100
AcDbLine
 10
-260000.0
 20
-40000.0
 30
0.0
 11
260000.0
 21
-40000.0
 31
0.0
  0
LINE
  5
2ED
330
17
100
AcDbEntity
  8
GRIDS
100
AcDbLine
 10
-260000.0
 20
-20000.0
 30
0.0
 11
260000.0
 21
-20000.0
 31
0.0
  0
LINE
  5
2EE
330
17
100
AcDbEntity
  8
GRIDS
100
AcDbLine
 10
-260000.0
 20
0.0
 30
0.0
 11
260000.0
 21
0.0
 31
0.0
  0
LINE
  5
2EF
330
17
100
AcDbEntity
  8
GRIDS
100
AcDbLine
 10
-260000.0
 20
20000.0
 30
0.0
 11
260000.0
 21
20000.0
 31
0.0
  0
LINE
  5
2F0
330
17
100
AcDbEntity
  8
GRIDS
100
AcDbLine
 10
-260000.0
 20
40000.0
 30
0.0
 11
260000.0
 21
40000.0
 31
0.0
  0
LINE
  5
2F1
330
17
100
AcDbEntity
  8
GRIDS
100
AcDbLine
 10
-260000.0
 20
60000.0
 30
0.0
 11
260000.0
 21
60000.0
 31
0.0
  0
LINE
  5
2F2
330
17
100
AcDbEntity
  8
GRIDS
100
AcDbLine
 10
-260000.0
 20
80000.0
 30
0.0
 11
260000.0
 21
80000.0
 31
0.0
  0
LINE
  5
2F3
330
17
100
AcDbEntity
  8
GRIDS
100
AcDbLine
 10
-260000.0
 20
100000.0
 30
0.0
 11
260000.0
 21
100000.0
 31
0.0
  0
LINE
  5
2F4
330
17
100
AcDbEntity
  8
GRIDS
100
AcDbLine
 10
-260000.0
 20
120000.0
 30
0.0
 11
260000.0
 21
120000.0
 31
0.0
  0
LINE
  5
2F5
330
17
100
AcDbEntity
  8
GRIDS
100
AcDbLine
 10
-260000.0
 20
140000.0
 30
0.0
 11
260000.0
 21
140000.0
 31
0.0
  0
LINE
  5
2F6
330
17
100
AcDbEntity
  8
GRIDS
100
AcDbLine
 10
-260000.0
 20
160000.0
 30
0.0
 11
260000.0
 21
160000.0
 31
0.0
  0
LINE
  5
2F7
330
17
100
AcDbEntity
  8
GRIDS
100
AcDbLine
 10
-260000.0
 20
180000.0
 30
0.0
 11
260000.0
 21
180000.0
 31
0.0
  0
LINE
  5
2F8
330
17
100
AcDbEntity
  8
GRIDS
100
AcDbLine
 10
-260000.0
 20
200000.0
 30
0.0
 11
260000.0
 21
200000.0
 31
0.0
  0
LINE
  5
2F9
330
17
100
AcDbEntity
  8
GRIDS
100
AcDbLine
 10
-260000.0
 20
220000.0
 30
0.0
 11
260000.0
 21
220000.0
 31
0.0
  0
LINE
  5
2FA
330
17
100
AcDbEntity
  8
GRIDS
100
AcDbLine
 10
-260000.0
 20
240000.0
 30
0.0
 11
260000.0
 21
240000.0
 31
0.0
  0
LINE
  5
2FB
330
17
100
AcDbEntity
  8
GRIDS
100
AcDbLine
 10
-260000.0
 20
260000.0
 30
0.0
 11
260000.0
 21
260000.0
 31
0.0
  0
CIRCLE
  5
2FC
330
17
100
AcDbEntity
  8
MARKERS
 62
3
100
AcDbCircle
 10
-110000.0
 20
-70000.0
 30
0.0
 40
800.0
  0
CIRCLE
  5
2FD
330
17
100
AcDbEntity
  8
MARKERS
 62
3
100
AcDbCircle
 10
-55000.0
 20
-70000.0
 30
36000.0
 40
800.0
  0
CIRCLE
  5
2FE
330
17
100
AcDbEntity
  8
MARKERS
 62
3
100
AcDbCircle
 10
0.0
 20
-70000.0
 30
48000.0
 40
800.0
  0
CIRCLE
  5
2FF
330
17
100
AcDbEntity
  8
MARKERS
 62
3
100
AcDbCircle
 10
55000.0
 20
-70000.0
 30
36000.0
 40
800.0
  0
CIRCLE
  5
300
330
17
100
AcDbEntity
  8
MARKERS
 62
3
100
AcDbCircle
 10
110000.0
 20
-70000.0
 30
0.0
 40
800.0
  0
CIRCLE
  5
301
330
17
100
AcDbEntity
  8
MARKERS
 62
3
100
AcDbCircle
 10
-110000.0
 20
0.0
 30
0.0
 40
800.0
  0
CIRCLE
  5
302
330
17
100
AcDbEntity
  8
MARKERS
 62
3
100
AcDbCircle
 10
-55000.0
 20
0.0
 30
36000.0
 40
800.0
  0
CIRCLE
  5
303
330
17
100
AcDbEntity
  8
MARKERS
 62
3
100
AcDbCircle
 10
0.0
 20
0.0
 30
48000.0
 40
800.0
  0
CIRCLE
  5
304
330
17
100
AcDbEntity
  8
MARKERS
 62
3
100
AcDbCircle
 10
55000.0
 20
0.0
 30
36000.0
 40
800.0
  0
CIRCLE
  5
305
330
17
100
AcDbEntity
  8
MARKERS
 62
3
100
AcDbCircle
 10
110000.0
 20
0.0
 30
0.0
 40
800.0
  0
CIRCLE
  5
306
330
17
100
AcDbEntity
  8
MARKERS
 62
3
100
AcDbCircle
 10
-110000.0
 20
70000.0
 30
0.0
 40
800.0
  0
CIRCLE
  5
307
330
17
100
AcDbEntity
  8
MARKERS
 62
3
100
AcDbCircle
 10
-55000.0
 20
70000.0
 30
36000.0
 40
800.0
  0
CIRCLE
  5
308
330
17
100
AcDbEntity
  8
MARKERS
 62
3
100
AcDbCircle
 10
0.0
 20
70000.0
 30
48000.0
 40
800.0
  0
CIRCLE
  5
309
330
17
100
AcDbEntity
  8
MARKERS
 62
3
100
AcDbCircle
 10
55000.0
 20
70000.0
 30
36000.0
 40
800.0
  0
CIRCLE
  5
30A
330
17
100
AcDbEntity
  8
MARKERS
 62
3
100
AcDbCircle
 10
110000.0
 20
70000.0
 30
0.0
 40
800.0
  0
ENDSEC
  0
SECTION
  2
OBJECTS
  0
DICTIONARY
  5
A
330
0
100
AcDbDictionary
281
1
  3
ACAD_COLOR
350
B
  3
ACAD_GROUP
350
C
  3
ACAD_LAYOUT
350
D
  3
ACAD_MATERIAL
350
E
  3
ACAD_MLEADERSTYLE
350
F
  3
ACAD_MLINESTYLE
350
10
  3
ACAD_PLOTSETTINGS
350
11
  3
ACAD_PLOTSTYLENAME
350
12
  3
ACAD_SCALELIST
350
14
  3
ACAD_TABLESTYLE
350
15
  3
ACAD_VISUALSTYLE
350
16
  3
EZDXF_META
350
2D
  0
DICTIONARY
  5
B
330
A
100
AcDbDictionary
281
1
  0
DICTIONARY
  5
C
330
A
100
AcDbDictionary
281
1
  0
DICTIONARY
  5
D
330
A
100
AcDbDictionary
281
1
  3
Model
350
1A
  3
Layout1
350
1E
  0
DICTIONARY
  5
E
330
A
100
AcDbDictionary
281
1
  3
ByBlock
350
1F
  3
ByLayer
350
20
  3
Global
350
21
  0
DICTIONARY
  5
F
330
A
100
AcDbDictionary
281
1
  3
Standard
350
2C
  0
DICTIONARY
  5
10
330
A
100
AcDbDictionary
281
1
  3
Standard
350
22
  0
DICTIONARY
  5
11
330
A
100
AcDbDictionary
281
1
  0
ACDBDICTIONARYWDFLT
  5
12
330
A
100
AcDbDictionary
281
1
  3
Normal
350
13
100
AcDbDictionaryWithDefault
340
13
  0
ACDBPLACEHOLDER
  5
13
330
12
  0
DICTIONARY
  5
14
330
A
100
AcDbDictionary
281
1
  0
DICTIONARY
  5
15
330
A
100
AcDbDictionary
281
1
  0
DICTIONARY
  5
16
330
A
100
AcDbDictionary
281
1
  0
LAYOUT
  5
1A
330
D
100
AcDbPlotSettings
  1

  4
A3
  6

 40
7.5
 41
20.0
 42
7.5
 43
20.0
 44
420.0
 45
297.0
 46
0.0
 47
0.0
 48
0.0
 49
0.0
140
0.0
141
0.0
142
1.0
143
1.0
 70
1024
 72
1
 73
0
 74
5
  7

 75
16
 76
0
 77
2
 78
300
147
1.0
148
0.0
149
0.0
100
AcDbLayout
  1
Model
 70
1
 71
0
 10
0.0
 20
0.0
 11
420.0
 21
297.0
 12
0.0
 22
0.0
 32
0.0
 14
1e+20
 24
1e+20
 34
1e+20
 15
-1e+20
 25
-1e+20
 35
-1e+20
146
0.0
 13
0.0
 23
0.0
 33
0.0
 16
1.0
 26
0.0
 36
0.0
 17
0.0
 27
1.0
 37
0.0
 76
1
330
17
  0
LAYOUT
  5
1E
330
D
100
AcDbPlotSettings
  1

  4
A3
  6

 40
7.5
 41
20.0
 42
7.5
 43
20.0
 44
420.0
 45
297.0
 46
0.0
 47
0.0
 48
0.0
 49
0.0
140
0.0
141
0.0
142
1.0
143
1.0
 70
0
 72
1
 73
0
 74
5
  7

 75
16
 76
0
 77
2
 78
300
147
1.0
148
0.0
149
0.0
100
AcDbLayout
  1
Layout1
 70
1
 71
1
 10
0.0
 20
0.0
 11
420.0
 21
297.0
 12
0.0
 22
0.0
 32
0.0
 14
1e+20
 24
1e+20
 34
1e+20
 15
-1e+20
 25
-1e+20
 35
-1e+20
146
0.0
 13
0.0
 23
0.0
 33
0.0
 16
1.0
 26
0.0
 36
0.0
 17
0.0
 27
1.0
 37
0.0
 76
1
330
1B
  0
MATERIAL
  5
1F
102
{ACAD_REACTORS
330
E
102
}
330
E
100
AcDbMaterial
  1
ByBlock
  2

 70
0
 40
1.0
 71
1
 41
1.0
 91
-1023410177
 42
1.0
 72
1
  3

 73
1
 74
1
 75
1
 44
0.5
 73
0
 45
1.0
 46
1.0
 77
1
  4

 78
1
 79
1
170
1
 48
1.0
171
1
  6

172
1
173
1
174
1
140
1.0
141
1.0
175
1
  7

176
1
177
1
178
1
143
1.0
179
1
  8

270
1
271
1
272
1
145
1.0
146
1.0
273
1
  9

274
1
275
1
276
1
 42
1.0
 72
1
  3

 73
1
 74
1
 75
1
 94
63
  0
MATERIAL
  5
20
102
{ACAD_REACTORS
330
E
102
}
330
E
100
AcDbMaterial
  1
ByLayer
  2

 70
0
 40
1.0
 71
1
 41
1.0
 91
-1023410177
 42
1.0
 72
1
  3

 73
1
 74
1
 75
1
 44
0.5
 73
0
 45
1.0
 46
1.0
 77
1
  4

 78
1
 79
1
170
1
 48
1.0
171
1
  6

172
1
173
1
174
1
140
1.0
141
1.0
175
1
  7

176
1
177
1
178
1
143
1.0
179
1
  8

270
1
271
1
272
1
145
1.0
146
1.0
273
1
  9

274
1
275
1
276
1
 42
1.0
 72
1
  3

 73
1
 74
1
 75
1
 94
63
  0
MATERIAL
  5
21
102
{ACAD_REACTORS
330
E
102
}
330
E
100
AcDbMaterial
  1
Global
  2

 70
0
 40
1.0
 71
1
 41
1.0
 91
-1023410177
 42
1.0
 72
1
  3

 73
1
 74
1
 75
1
 44
0.5
 73
0
 45
1.0
 46
1.0
 77
1
  4

 78
1
 79
1
170
1
 48
1.0
171
1
  6

172
1
173
1
174
1
140
1.0
141
1.0
175
1
  7

176
1
177
1
178
1
143
1.0
179
1
  8

270
1
271
1
272
1
145
1.0
146
1.0
273
1
  9

274
1
275
1
276
1
 42
1.0
 72
1
  3

 73
1
 74
1
 75
1
 94
63
  0
MLINESTYLE
  5
22
102
{ACAD_REACTORS
330
10
102
}
330
10
100
AcDbMlineStyle
  2
Standard
 70
0
  3

 62
256
 51
90.0
 52
90.0
 71
2
 49
0.5
 62
256
  6
BYLAYER
 49
-0.5
 62
256
  6
BYLAYER
  0
MLEADERSTYLE
  5
2C
102
{ACAD_REACTORS
330
F
102
}
330
F
100
AcDbMLeaderStyle
179
2
170
2
171
1
172
0
 90
2
 40
0.0
 41
0.0
173
1
 91
-1056964608
 92
-2
290
1
 42
2.0
291
1
 43
8.0
  3
Standard
 44
4.0
300

342
29
174
1
175
1
176
0
178
1
 93
-1056964608
 45
4.0
292
0
297
0
 46
4.0
 94
-1056964608
 47
1.0
 49
1.0
140
1.0
294
1
141
0.0
177
0
142
1.0
295
0
296
0
143
3.75
271
0
272
9
273
9
  0
DICTIONARY
  5
2D
330
A
100
AcDbDictionary
280
1
281
1
  3
CREATED_BY_EZDXF
350
2E
  3
WRITTEN_BY_EZDXF
350
30D
  0
DICTIONARYVAR
  5
2E
330
2D
100
DictionaryVariables
280
0
  1
1.4.3 @ 2025-12-16T19:14:56.739591+00:00
  0
DICTIONARYVAR
  5
30D
330
2D
100
DictionaryVariables
280
0
  1
1.4.3 @ 2025-12-16T19:14:56.747295+00:00
  0
ENDSEC
  0
EOF
