  0
SECTION
  2
HEADER
  9
$ACADVER
  1
AC1015
  9
$ACADMAINTVER
 70
6
  9
$DWGCODEPAGE
  3
ANSI_1252
  9
$INSBASE
 10
0.0
 20
0.0
 30
0.0
  9
$EXTMIN
 10
1e+20
 20
1e+20
 30
1e+20
  9
$EXTMAX
 10
-1e+20
 20
-1e+20
 30
-1e+20
  9
$LIMMIN
 10
0.0
 20
0.0
  9
$LIMMAX
 10
420.0
 20
297.0
  9
$ORTHOMODE
 70
0
  9
$REGENMODE
 70
1
  9
$FILLMODE
 70
1
  9
$QTEXTMODE
 70
0
  9
$MIRRTEXT
 70
1
  9
$LTSCALE
 40
1.0
  9
$ATTMODE
 70
1
  9
$TEXTSIZE
 40
2.5
  9
$TRACEWID
 40
1.0
  9
$TEXTSTYLE
  7
Standard
  9
$CLAYER
  8
0
  9
$CELTYPE
  6
ByLayer
  9
$CECOLOR
 62
256
  9
$CELTSCALE
 40
1.0
  9
$DISPSILH
 70
0
  9
$DIMSCALE
 40
1.0
  9
$DIMASZ
 40
2.5
  9
$DIMEXO
 40
0.625
  9
$DIMDLI
 40
3.75
  9
$DIMRND
 40
0.0
  9
$DIMDLE
 40
0.0
  9
$DIMEXE
 40
1.25
  9
$DIMTP
 40
0.0
  9
$DIMTM
 40
0.0
  9
$DIMTXT
 40
2.5
  9
$DIMCEN
 40
2.5
  9
$DIMTSZ
 40
0.0
  9
$DIMTOL
 70
0
  9
$DIMLIM
 70
0
  9
$DIMTIH
 70
0
  9
$DIMTOH
 70
0
  9
$DIMSE1
 70
0
  9
$DIMSE2
 70
0
  9
$DIMTAD
 70
1
  9
$DIMZIN
 70
8
  9
$DIMBLK
  1

  9
$DIMASO
 70
1
  9
$DIMSHO
 70
1
  9
$DIMPOST
  1

  9
$DIMAPOST
  1

  9
$DIMALT
 70
0
  9
$DIMALTD
 70
3
  9
$DIMALTF
 40
0.03937007874
  9
$DIMLFAC
 40
1.0
  9
$DIMTOFL
 70
1
  9
$DIMTVP
 40
0.0
  9
$DIMTIX
 70
0
  9
$DIMSOXD
 70
0
  9
$DIMSAH
 70
0
  9
$DIMBLK1
  1

  9
$DIMBLK2
  1

  9
$DIMSTYLE
  2
ISO-25
  9
$DIMCLRD
 70
0
  9
$DIMCLRE
 70
0
  9
$DIMCLRT
 70
0
  9
$DIMTFAC
 40
1.0
  9
$DIMGAP
 40
0.625
  9
$DIMJUST
 70
0
  9
$DIMSD1
 70
0
  9
$DIMSD2
 70
0
  9
$DIMTOLJ
 70
0
  9
$DIMTZIN
 70
8
  9
$DIMALTZ
 70
0
  9
$DIMALTTZ
 70
0
  9
$DIMUPT
 70
0
  9
$DIMDEC
 70
2
  9
$DIMTDEC
 70
2
  9
$DIMALTU
 70
2
  9
$DIMALTTD
 70
3
  9
$DIMTXSTY
  7
Standard
  9
$DIMAUNIT
 70
0
  9
$DIMADEC
 70
0
  9
$DIMALTRND
 40
0.0
  9
$DIMAZIN
 70
0
  9
$DIMDSEP
 70
44
  9
$DIMATFIT
 70
3
  9
$DIMFRAC
 70
0
  9
$DIMLDRBLK
  1

  9
$DIMLUNIT
 70
2
  9
$DIMLWD
 70
-2
  9
$DIMLWE
 70
-2
  9
$DIMTMOVE
 70
0
  9
$LUNITS
 70
2
  9
$LUPREC
 70
4
  9
$SKETCHINC
 40
1.0
  9
$FILLETRAD
 40
10.0
  9
$AUNITS
 70
0
  9
$AUPREC
 70
2
  9
$MENU
  1
.
  9
$ELEVATION
 40
0.0
  9
$PELEVATION
 40
0.0
  9
$THICKNESS
 40
0.0
  9
$LIMCHECK
 70
0
  9
$CHAMFERA
 40
0.0
  9
$CHAMFERB
 40
0.0
  9
$CHAMFERC
 40
0.0
  9
$CHAMFERD
 40
0.0
  9
$SKPOLY
 70
0
  9
$TDCREATE
 40
2461027.0160648148
  9
$TDUCREATE
 40
2458532.153996898
  9
$TDUPDATE
 40
2461027.0160648148
  9
$TDUUPDATE
 40
2458532.1544311
  9
$TDINDWG
 40
0.0
  9
$TDUSRTIMER
 40
0.0
  9
$USRTIMER
 70
1
  9
$ANGBASE
 50
0.0
  9
$ANGDIR
 70
0
  9
$PDMODE
 70
0
  9
$PDSIZE
 40
0.0
  9
$PLINEWID
 40
0.0
  9
$SPLFRAME
 70
0
  9
$SPLINETYPE
 70
6
  9
$SPLINESEGS
 70
8
  9
$HANDSEED
  5
219
  9
$SURFTAB1
 70
6
  9
$SURFTAB2
 70
6
  9
$SURFTYPE
 70
6
  9
$SURFU
 70
6
  9
$SURFV
 70
6
  9
$UCSBASE
  2

  9
$UCSNAME
  2

  9
$UCSORG
 10
0.0
 20
0.0
 30
0.0
  9
$UCSXDIR
 10
1.0
 20
0.0
 30
0.0
  9
$UCSYDIR
 10
0.0
 20
1.0
 30
0.0
  9
$UCSORTHOREF
  2

  9
$UCSORTHOVIEW
 70
0
  9
$UCSORGTOP
 10
0.0
 20
0.0
 30
0.0
  9
$UCSORGBOTTOM
 10
0.0
 20
0.0
 30
0.0
  9
$UCSORGLEFT
 10
0.0
 20
0.0
 30
0.0
  9
$UCSORGRIGHT
 10
0.0
 20
0.0
 30
0.0
  9
$UCSORGFRONT
 10
0.0
 20
0.0
 30
0.0
  9
$UCSORGBACK
 10
0.0
 20
0.0
 30
0.0
  9
$PUCSBASE
  2

  9
$PUCSNAME
  2

  9
$PUCSORG
 10
0.0
 20
0.0
 30
0.0
  9
$PUCSXDIR
 10
1.0
 20
0.0
 30
0.0
  9
$PUCSYDIR
 10
0.0
 20
1.0
 30
0.0
  9
$PUCSORTHOREF
  2

  9
$PUCSORTHOVIEW
 70
0
  9
$PUCSORGTOP
 10
0.0
 20
0.0
 30
0.0
  9
$PUCSORGBOTTOM
 10
0.0
 20
0.0
 30
0.0
  9
$PUCSORGLEFT
 10
0.0
 20
0.0
 30
0.0
  9
$PUCSORGRIGHT
 10
0.0
 20
0.0
 30
0.0
  9
$PUCSORGFRONT
 10
0.0
 20
0.0
 30
0.0
  9
$PUCSORGBACK
 10
0.0
 20
0.0
 30
0.0
  9
$USERI1
 70
0
  9
$USERI2
 70
0
  9
$USERI3
 70
0
  9
$USERI4
 70
0
  9
$USERI5
 70
0
  9
$USERR1
 40
0.0
  9
$USERR2
 40
0.0
  9
$USERR3
 40
0.0
  9
$USERR4
 40
0.0
  9
$USERR5
 40
0.0
  9
$WORLDVIEW
 70
1
  9
$SHADEDGE
 70
3
  9
$SHADEDIF
 70
70
  9
$TILEMODE
 70
1
  9
$MAXACTVP
 70
64
  9
$PINSBASE
 10
0.0
 20
0.0
 30
0.0
  9
$PLIMCHECK
 70
0
  9
$PEXTMIN
 10
1e+20
 20
1e+20
 30
1e+20
  9
$PEXTMAX
 10
-1e+20
 20
-1e+20
 30
-1e+20
  9
$PLIMMIN
 10
0.0
 20
0.0
  9
$PLIMMAX
 10
420.0
 20
297.0
  9
$UNITMODE
 70
0
  9
$VISRETAIN
 70
1
  9
$PLINEGEN
 70
0
  9
$PSLTSCALE
 70
1
  9
$TREEDEPTH
 70
3020
  9
$CMLSTYLE
  2
Standard
  9
$CMLJUST
 70
0
  9
$CMLSCALE
 40
20.0
  9
$PROXYGRAPHICS
 70
1
  9
$MEASUREMENT
 70
1
  9
$CELWEIGHT
370
-1
  9
$ENDCAPS
280
0
  9
$JOINSTYLE
280
0
  9
$LWDISPLAY
290
0
  9
$INSUNITS
 70
6
  9
$HYPERLINKBASE
  1

  9
$STYLESHEET
  1

  9
$XEDIT
290
1
  9
$CEPSNTYPE
380
0
  9
$PSTYLEMODE
290
1
  9
$FINGERPRINTGUID
  2
{6E31AFC1-75F9-410F-9FAB-6F8F30F0F851}
  9
$VERSIONGUID
  2
{F1857BB5-49FE-4834-B13D-A957D2563061}
  9
$EXTNAMES
290
1
  9
$PSVPSCALE
 40
0.0
  9
$OLESTARTUP
290
0
  0
ENDSEC
  0
SECTION
  2
CLASSES
  0
CLASS
  1
ACDBDICTIONARYWDFLT
  2
AcDbDictionaryWithDefault
  3
ObjectDBX Classes
 90
0
280
0
281
0
  0
CLASS
  1
SUN
  2
AcDbSun
  3
SCENEOE
 90
1153
280
0
281
0
  0
CLASS
  1
VISUALSTYLE
  2
AcDbVisualStyle
  3
ObjectDBX Classes
 90
4095
280
0
281
0
  0
CLASS
  1
MATERIAL
  2
AcDbMaterial
  3
ObjectDBX Classes
 90
1153
280
0
281
0
  0
CLASS
  1
SCALE
  2
AcDbScale
  3
ObjectDBX Classes
 90
1153
280
0
281
0
  0
CLASS
  1
TABLESTYLE
  2
AcDbTableStyle
  3
ObjectDBX Classes
 90
4095
280
0
281
0
  0
CLASS
  1
MLEADERSTYLE
  2
AcDbMLeaderStyle
  3
ACDB_MLEADERSTYLE_CLASS
 90
4095
280
0
281
0
  0
CLASS
  1
DICTIONARYVAR
  2
AcDbDictionaryVar
  3
ObjectDBX Classes
 90
0
280
0
281
0
  0
CLASS
  1
CELLSTYLEMAP
  2
AcDbCellStyleMap
  3
ObjectDBX Classes
 90
1152
280
0
281
0
  0
CLASS
  1
MENTALRAYRENDERSETTINGS
  2
AcDbMentalRayRenderSettings
  3
SCENEOE
 90
1024
280
0
281
0
  0
CLASS
  1
ACDBDETAILVIEWSTYLE
  2
AcDbDetailViewStyle
  3
ObjectDBX Classes
 90
1025
280
0
281
0
  0
CLASS
  1
ACDBSECTIONVIEWSTYLE
  2
AcDbSectionViewStyle
  3
ObjectDBX Classes
 90
1025
280
0
281
0
  0
CLASS
  1
RASTERVARIABLES
  2
AcDbRasterVariables
  3
ISM
 90
0
280
0
281
0
  0
CLASS
  1
ACDBPLACEHOLDER
  2
AcDbPlaceHolder
  3
ObjectDBX Classes
 90
0
280
0
281
0
  0
CLASS
  1
LAYOUT
  2
AcDbLayout
  3
ObjectDBX Classes
 90
0
280
0
281
0
  0
ENDSEC
  0
SECTION
  2
TABLES
  0
TABLE
  2
VPORT
  5
8
330
0
100
AcDbSymbolTable
 70
1
  0
VPORT
  5
23
330
8
100
AcDbSymbolTableRecord
100
AcDbViewportTableRecord
  2
*Active
 70
0
 10
0.0
 20
0.0
 11
1.0
 21
1.0
 12
0.0
 22
0.0
 13
0.0
 23
0.0
 14
0.5
 24
0.5
 15
0.5
 25
0.5
 16
0.0
 26
0.0
 36
1.0
 17
0.0
 27
0.0
 37
0.0
 40
1000.0
 41
1.34
 42
50.0
 43
0.0
 44
0.0
 50
0.0
 51
0.0
 71
0
 72
1000
 73
1
 74
3
 75
0
 76
0
 77
0
 78
0
281
0
 65
0
146
0.0
  0
ENDTAB
  0
TABLE
  2
LTYPE
  5
2
330
0
100
AcDbSymbolTable
 70
3
  0
LTYPE
  5
24
330
2
100
AcDbSymbolTableRecord
100
AcDbLinetypeTableRecord
  2
ByBlock
 70
0
  3

 72
65
 73
0
 40
0.0
  0
LTYPE
  5
25
330
2
100
AcDbSymbolTableRecord
100
AcDbLinetypeTableRecord
  2
ByLayer
 70
0
  3

 72
65
 73
0
 40
0.0
  0
LTYPE
  5
26
330
2
100
AcDbSymbolTableRecord
100
AcDbLinetypeTableRecord
  2
Continuous
 70
0
  3

 72
65
 73
0
 40
0.0
  0
ENDTAB
  0
TABLE
  2
LAYER
  5
1
330
0
100
AcDbSymbolTable
 70
2
  0
LAYER
  5
27
330
1
100
AcDbSymbolTableRecord
100
AcDbLayerTableRecord
  2
0
 70
0
 62
7
  6
Continuous
370
-3
390
13
  0
LAYER
  5
28
330
1
100
AcDbSymbolTableRecord
100
AcDbLayerTableRecord
  2
Defpoints
 70
0
 62
7
  6
Continuous
290
0
370
-3
390
13
  0
ENDTAB
  0
TABLE
  2
STYLE
  5
5
330
0
100
AcDbSymbolTable
 70
1
  0
STYLE
  5
29
330
5
100
AcDbSymbolTableRecord
100
AcDbTextStyleTableRecord
  2
Standard
 70
0
 40
0.0
 41
1.0
 50
0.0
 71
0
 42
2.5
  3
txt
  4

  0
ENDTAB
  0
TABLE
  2
VIEW
  5
7
330
0
100
AcDbSymbolTable
 70
0
  0
ENDTAB
  0
TABLE
  2
UCS
  5
6
330
0
100
AcDbSymbolTable
 70
0
  0
ENDTAB
  0
TABLE
  2
APPID
  5
3
330
0
100
AcDbSymbolTable
 70
3
  0
APPID
  5
2A
330
3
100
AcDbSymbolTableRecord
100
AcDbRegAppTableRecord
  2
ACAD
 70
0
  0
APPID
  5
216
330
3
100
AcDbSymbolTableRecord
100
AcDbRegAppTableRecord
  2
HATCHBACKGROUNDCOLOR
 70
0
  0
APPID
  5
217
330
3
100
AcDbSymbolTableRecord
100
AcDbRegAppTableRecord
  2
EZDXF
 70
0
  0
ENDTAB
  0
TABLE
  2
DIMSTYLE
  5
4
330
0
100
AcDbSymbolTable
 70
1
100
AcDbDimStyleTable
  0
DIMSTYLE
105
2B
330
4
100
AcDbSymbolTableRecord
100
AcDbDimStyleTableRecord
  2
Standard
 70
0
  3

  4

 40
1.0
 41
2.5
 42
0.625
 43
3.75
 44
1.25
 45
0.0
 46
0.0
 47
0.0
 48
0.0
140
2.5
141
2.5
142
0.0
143
0.03937007874
144
1.0
145
0.0
146
1.0
147
0.625
148
0.0
 71
0
 72
0
 73
0
 74
0
 75
0
 76
0
 77
1
 78
8
 79
3
170
0
171
3
172
1
173
0
174
0
175
0
176
0
177
0
178
0
179
2
271
2
272
2
273
2
274
3
275
0
276
0
277
2
278
44
279
0
280
0
281
0
282
0
283
0
284
8
285
0
286
0
288
0
289
3
371
-2
372
-2
  0
ENDTAB
  0
TABLE
  2
BLOCK_RECORD
  5
9
330
0
100
AcDbSymbolTable
 70
2
  0
BLOCK_RECORD
  5
17
330
9
100
AcDbSymbolTableRecord
100
AcDbBlockTableRecord
  2
*Model_Space
340
1A
  0
BLOCK_RECORD
  5
1B
330
9
100
AcDbSymbolTableRecord
100
AcDbBlockTableRecord
  2
*Paper_Space
340
1E
  0
ENDTAB
  0
ENDSEC
  0
SECTION
  2
BLOCKS
  0
BLOCK
  5
18
330
17
100
AcDbEntity
  8
0
100
AcDbBlockBegin
  2
*Model_Space
 70
0
 10
0.0
 20
0.0
 30
0.0
  3
*Model_Space
  1

  0
ENDBLK
  5
19
330
17
100
AcDbEntity
  8
0
100
AcDbBlockEnd
  0
BLOCK
  5
1C
330
1B
100
AcDbEntity
  8
0
100
AcDbBlockBegin
  2
*Paper_Space
 70
0
 10
0.0
 20
0.0
 30
0.0
  3
*Paper_Space
  1

  0
ENDBLK
  5
1D
330
1B
100
AcDbEntity
  8
0
100
AcDbBlockEnd
  0
ENDSEC
  0
SECTION
  2
ENTITIES
  0
LINE
  5
2F
330
17
100
AcDbEntity
  8
0
100
AcDbLine
 10
-60.0
 20
-50.0
 30
0.0
 11
-60.0
 21
-25.0
 31
0.0
  0
LINE
  5
30
330
17
100
AcDbEntity
  8
0
100
AcDbLine
 10
-60.0
 20
-25.0
 30
0.0
 11
-60.0
 21
0.0
 31
0.0
  0
LINE
  5
31
330
17
100
AcDbEntity
  8
0
100
AcDbLine
 10
-60.0
 20
0.0
 30
0.0
 11
-60.0
 21
25.0
 31
0.0
  0
LINE
  5
32
330
17
100
AcDbEntity
  8
0
100
AcDbLine
 10
-60.0
 20
25.0
 30
0.0
 11
-60.0
 21
50.0
 31
0.0
  0
LINE
  5
33
330
17
100
AcDbEntity
  8
0
100
AcDbLine
 10
-30.0
 20
-50.0
 30
0.0
 11
-30.0
 21
-25.0
 31
0.0
  0
LINE
  5
34
330
17
100
AcDbEntity
  8
0
100
AcDbLine
 10
-30.0
 20
-25.0
 30
0.0
 11
-30.0
 21
0.0
 31
0.0
  0
LINE
  5
35
330
17
100
AcDbEntity
  8
0
100
AcDbLine
 10
-30.0
 20
0.0
 30
0.0
 11
-30.0
 21
25.0
 31
0.0
  0
LINE
  5
36
330
17
100
AcDbEntity
  8
0
100
AcDbLine
 10
-30.0
 20
25.0
 30
0.0
 11
-30.0
 21
50.0
 31
0.0
  0
LINE
  5
37
330
17
100
AcDbEntity
  8
0
100
AcDbLine
 10
0.0
 20
-50.0
 30
0.0
 11
0.0
 21
-25.0
 31
0.0
  0
LINE
  5
38
330
17
100
AcDbEntity
  8
0
100
AcDbLine
 10
0.0
 20
-25.0
 30
0.0
 11
0.0
 21
0.0
 31
0.0
  0
LINE
  5
39
330
17
100
AcDbEntity
  8
0
100
AcDbLine
 10
0.0
 20
0.0
 30
0.0
 11
0.0
 21
25.0
 31
0.0
  0
LINE
  5
3A
330
17
100
AcDbEntity
  8
0
100
AcDbLine
 10
0.0
 20
25.0
 30
0.0
 11
0.0
 21
50.0
 31
0.0
  0
LINE
  5
3B
330
17
100
AcDbEntity
  8
0
100
AcDbLine
 10
30.0
 20
-50.0
 30
0.0
 11
30.0
 21
-25.0
 31
0.0
  0
LINE
  5
3C
330
17
100
AcDbEntity
  8
0
100
AcDbLine
 10
30.0
 20
-25.0
 30
0.0
 11
30.0
 21
0.0
 31
0.0
  0
LINE
  5
3D
330
17
100
AcDbEntity
  8
0
100
AcDbLine
 10
30.0
 20
0.0
 30
0.0
 11
30.0
 21
25.0
 31
0.0
  0
LINE
  5
3E
330
17
100
AcDbEntity
  8
0
100
AcDbLine
 10
30.0
 20
25.0
 30
0.0
 11
30.0
 21
50.0
 31
0.0
  0
LINE
  5
3F
330
17
100
AcDbEntity
  8
0
100
AcDbLine
 10
60.0
 20
-50.0
 30
0.0
 11
60.0
 21
-25.0
 31
0.0
  0
LINE
  5
40
330
17
100
AcDbEntity
  8
0
100
AcDbLine
 10
60.0
 20
-25.0
 30
0.0
 11
60.0
 21
0.0
 31
0.0
  0
LINE
  5
41
330
17
100
AcDbEntity
  8
0
100
AcDbLine
 10
60.0
 20
0.0
 30
0.0
 11
60.0
 21
25.0
 31
0.0
  0
LINE
  5
42
330
17
100
AcDbEntity
  8
0
100
AcDbLine
 10
60.0
 20
25.0
 30
0.0
 11
60.0
 21
50.0
 31
0.0
  0
LINE
  5
43
330
17
100
AcDbEntity
  8
0
100
AcDbLine
 10
-60.0
 20
-50.0
 30
0.0
 11
-30.0
 21
-50.0
 31
0.0
  0
LINE
  5
44
330
17
100
AcDbEntity
  8
0
100
AcDbLine
 10
-60.0
 20
-25.0
 30
0.0
 11
-30.0
 21
-25.0
 31
0.0
  0
LINE
  5
45
330
17
100
AcDbEntity
  8
0
100
AcDbLine
 10
-60.0
 20
0.0
 30
0.0
 11
-30.0
 21
0.0
 31
0.0
  0
LINE
  5
46
330
17
100
AcDbEntity
  8
0
100
AcDbLine
 10
-60.0
 20
25.0
 30
0.0
 11
-30.0
 21
25.0
 31
0.0
  0
LINE
  5
47
330
17
100
AcDbEntity
  8
0
100
AcDbLine
 10
-60.0
 20
50.0
 30
0.0
 11
-30.0
 21
50.0
 31
0.0
  0
LINE
  5
48
330
17
100
AcDbEntity
  8
0
100
AcDbLine
 10
-30.0
 20
-50.0
 30
0.0
 11
0.0
 21
-50.0
 31
0.0
  0
LINE
  5
49
330
17
100
AcDbEntity
  8
0
100
AcDbLine
 10
-30.0
 20
-25.0
 30
0.0
 11
0.0
 21
-25.0
 31
0.0
  0
LINE
  5
4A
330
17
100
AcDbEntity
  8
0
100
AcDbLine
 10
-30.0
 20
0.0
 30
0.0
 11
0.0
 21
0.0
 31
0.0
  0
LINE
  5
4B
330
17
100
AcDbEntity
  8
0
100
AcDbLine
 10
-30.0
 20
25.0
 30
0.0
 11
0.0
 21
25.0
 31
0.0
  0
LINE
  5
4C
330
17
100
AcDbEntity
  8
0
100
AcDbLine
 10
-30.0
 20
50.0
 30
0.0
 11
0.0
 21
50.0
 31
0.0
  0
LINE
  5
4D
330
17
100
AcDbEntity
  8
0
100
AcDbLine
 10
0.0
 20
-50.0
 30
0.0
 11
30.0
 21
-50.0
 31
0.0
  0
LINE
  5
4E
330
17
100
AcDbEntity
  8
0
100
AcDbLine
 10
0.0
 20
-25.0
 30
0.0
 11
30.0
 21
-25.0
 31
0.0
  0
LINE
  5
4F
330
17
100
AcDbEntity
  8
0
100
AcDbLine
 10
0.0
 20
0.0
 30
0.0
 11
30.0
 21
0.0
 31
0.0
  0
LINE
  5
50
330
17
100
AcDbEntity
  8
0
100
AcDbLine
 10
0.0
 20
25.0
 30
0.0
 11
30.0
 21
25.0
 31
0.0
  0
LINE
  5
51
330
17
100
AcDbEntity
  8
0
100
AcDbLine
 10
0.0
 20
50.0
 30
0.0
 11
30.0
 21
50.0
 31
0.0
  0
LINE
  5
52
330
17
100
AcDbEntity
  8
0
100
AcDbLine
 10
30.0
 20
-50.0
 30
0.0
 11
60.0
 21
-50.0
 31
0.0
  0
LINE
  5
53
330
17
100
AcDbEntity
  8
0
100
AcDbLine
 10
30.0
 20
-25.0
 30
0.0
 11
60.0
 21
-25.0
 31
0.0
  0
LINE
  5
54
330
17
100
AcDbEntity
  8
0
100
AcDbLine
 10
30.0
 20
0.0
 30
0.0
 11
60.0
 21
0.0
 31
0.0
  0
LINE
  5
55
330
17
100
AcDbEntity
  8
0
100
AcDbLine
 10
30.0
 20
25.0
 30
0.0
 11
60.0
 21
25.0
 31
0.0
  0
LINE
  5
56
330
17
100
AcDbEntity
  8
0
100
AcDbLine
 10
30.0
 20
50.0
 30
0.0
 11
60.0
 21
50.0
 31
0.0
  0
LINE
  5
57
330
17
100
AcDbEntity
  8
0
100
AcDbLine
 10
-55.22143490706921
 20
-55.23217474266533
 30
8.5
 11
-57.48724941201372
 21
-30.33506477726607
 31
8.5
  0
LINE
  5
58
330
17
100
AcDbEntity
  8
0
100
AcDbLine
 10
-57.48724941201372
 20
-30.33506477726607
 30
8.5
 11
-59.75306391695822
 21
-5.43795481186681
 31
8.5
  0
LINE
  5
59
330
17
100
AcDbEntity
  8
0
100
AcDbLine
 10
-59.75306391695822
 20
-5.43795481186681
 30
8.5
 11
-62.01887842190272
 21
19.45915515353245
 31
8.5
  0
LINE
  5
5A
330
17
100
AcDbEntity
  8
0
100
AcDbLine
 10
-62.01887842190272
 20
19.45915515353245
 30
8.5
 11
-64.28469292684723
 21
44.35626511893171
 31
8.5
  0
LINE
  5
5B
330
17
100
AcDbEntity
  8
0
100
AcDbLine
 10
-25.344902948590104
 20
-52.51319733673192
 30
8.5
 11
-27.610717453534605
 21
-27.616087371332664
 31
8.5
  0
LINE
  5
5C
330
17
100
AcDbEntity
  8
0
100
AcDbLine
 10
-27.610717453534605
 20
-27.616087371332664
 30
8.5
 11
-29.87653195847911
 21
-2.718977405933405
 31
8.5
  0
LINE
  5
5D
330
17
100
AcDbEntity
  8
0
100
AcDbLine
 10
-29.87653195847911
 20
-2.718977405933405
 30
8.5
 11
-32.142346463423614
 21
22.178132559465855
 31
8.5
  0
LINE
  5
5E
330
17
100
AcDbEntity
  8
0
100
AcDbLine
 10
-32.142346463423614
 20
22.178132559465855
 30
8.5
 11
-34.408160968368115
 21
47.07524252486512
 31
8.5
  0
LINE
  5
5F
330
17
100
AcDbEntity
  8
0
100
AcDbLine
 10
4.5316290098890075
 20
-49.79421993079852
 30
8.5
 11
2.2658145049445038
 21
-24.89710996539926
 31
8.5
  0
LINE
  5
60
330
17
100
AcDbEntity
  8
0
100
AcDbLine
 10
2.2658145049445038
 20
-24.89710996539926
 30
8.5
 11
0.0
 21
0.0
 31
8.5
  0
LINE
  5
61
330
17
100
AcDbEntity
  8
0
100
AcDbLine
 10
0.0
 20
0.0
 30
8.5
 11
-2.2658145049445038
 21
24.89710996539926
 31
8.5
  0
LINE
  5
62
330
17
100
AcDbEntity
  8
0
100
AcDbLine
 10
-2.2658145049445038
 20
24.89710996539926
 30
8.5
 11
-4.5316290098890075
 21
49.79421993079852
 31
8.5
  0
LINE
  5
63
330
17
100
AcDbEntity
  8
0
100
AcDbLine
 10
34.408160968368115
 20
-47.07524252486512
 30
8.5
 11
32.142346463423614
 21
-22.178132559465855
 31
8.5
  0
LINE
  5
64
330
17
100
AcDbEntity
  8
0
100
AcDbLine
 10
32.142346463423614
 20
-22.178132559465855
 30
8.5
 11
29.87653195847911
 21
2.718977405933405
 31
8.5
  0
LINE
  5
65
330
17
100
AcDbEntity
  8
0
100
AcDbLine
 10
29.87653195847911
 20
2.718977405933405
 30
8.5
 11
27.610717453534605
 21
27.616087371332664
 31
8.5
  0
LINE
  5
66
330
17
100
AcDbEntity
  8
0
100
AcDbLine
 10
27.610717453534605
 20
27.616087371332664
 30
8.5
 11
25.344902948590104
 21
52.51319733673192
 31
8.5
  0
LINE
  5
67
330
17
100
AcDbEntity
  8
0
100
AcDbLine
 10
64.28469292684723
 20
-44.35626511893171
 30
8.5
 11
62.01887842190272
 21
-19.45915515353245
 31
8.5
  0
LINE
  5
68
330
17
100
AcDbEntity
  8
0
100
AcDbLine
 10
62.01887842190272
 20
-19.45915515353245
 30
8.5
 11
59.75306391695822
 21
5.43795481186681
 31
8.5
  0
LINE
  5
69
330
17
100
AcDbEntity
  8
0
100
AcDbLine
 10
59.75306391695822
 20
5.43795481186681
 30
8.5
 11
57.48724941201372
 21
30.33506477726607
 31
8.5
  0
LINE
  5
6A
330
17
100
AcDbEntity
  8
0
100
AcDbLine
 10
57.48724941201372
 20
30.33506477726607
 30
8.5
 11
55.22143490706921
 21
55.23217474266533
 31
8.5
  0
LINE
  5
6B
330
17
100
AcDbEntity
  8
0
100
AcDbLine
 10
-55.22143490706921
 20
-55.23217474266533
 30
8.5
 11
-25.344902948590104
 21
-52.51319733673192
 31
8.5
  0
LINE
  5
6C
330
17
100
AcDbEntity
  8
0
100
AcDbLine
 10
-57.48724941201372
 20
-30.33506477726607
 30
8.5
 11
-27.610717453534605
 21
-27.616087371332664
 31
8.5
  0
LINE
  5
6D
330
17
100
AcDbEntity
  8
0
100
AcDbLine
 10
-59.75306391695822
 20
-5.43795481186681
 30
8.5
 11
-29.87653195847911
 21
-2.718977405933405
 31
8.5
  0
LINE
  5
6E
330
17
100
AcDbEntity
  8
0
100
AcDbLine
 10
-62.01887842190272
 20
19.45915515353245
 30
8.5
 11
-32.142346463423614
 21
22.178132559465855
 31
8.5
  0
LINE
  5
6F
330
17
100
AcDbEntity
  8
0
100
AcDbLine
 10
-64.28469292684723
 20
44.35626511893171
 30
8.5
 11
-34.408160968368115
 21
47.07524252486512
 31
8.5
  0
LINE
  5
70
330
17
100
AcDbEntity
  8
0
100
AcDbLine
 10
-25.344902948590104
 20
-52.51319733673192
 30
8.5
 11
4.5316290098890075
 21
-49.79421993079852
 31
8.5
  0
LINE
  5
71
330
17
100
AcDbEntity
  8
0
100
AcDbLine
 10
-27.610717453534605
 20
-27.616087371332664
 30
8.5
 11
2.2658145049445038
 21
-24.89710996539926
 31
8.5
  0
LINE
  5
72
330
17
100
AcDbEntity
  8
0
100
AcDbLine
 10
-29.87653195847911
 20
-2.718977405933405
 30
8.5
 11
0.0
 21
0.0
 31
8.5
  0
LINE
  5
73
330
17
100
AcDbEntity
  8
0
100
AcDbLine
 10
-32.142346463423614
 20
22.178132559465855
 30
8.5
 11
-2.2658145049445038
 21
24.89710996539926
 31
8.5
  0
LINE
  5
74
330
17
100
AcDbEntity
  8
0
100
AcDbLine
 10
-34.408160968368115
 20
47.07524252486512
 30
8.5
 11
-4.5316290098890075
 21
49.79421993079852
 31
8.5
  0
LINE
  5
75
330
17
100
AcDbEntity
  8
0
100
AcDbLine
 10
4.5316290098890075
 20
-49.79421993079852
 30
8.5
 11
34.408160968368115
 21
-47.07524252486512
 31
8.5
  0
LINE
  5
76
330
17
100
AcDbEntity
  8
0
100
AcDbLine
 10
2.2658145049445038
 20
-24.89710996539926
 30
8.5
 11
32.142346463423614
 21
-22.178132559465855
 31
8.5
  0
LINE
  5
77
330
17
100
AcDbEntity
  8
0
100
AcDbLine
 10
0.0
 20
0.0
 30
8.5
 11
29.87653195847911
 21
2.718977405933405
 31
8.5
  0
LINE
  5
78
330
17
100
AcDbEntity
  8
0
100
AcDbLine
 10
-2.2658145049445038
 20
24.89710996539926
 30
8.5
 11
27.610717453534605
 21
27.616087371332664
 31
8.5
  0
LINE
  5
79
330
17
100
AcDbEntity
  8
0
100
AcDbLine
 10
-4.5316290098890075
 20
49.79421993079852
 30
8.5
 11
25.344902948590104
 21
52.51319733673192
 31
8.5
  0
LINE
  5
7A
330
17
100
AcDbEntity
  8
0
100
AcDbLine
 10
34.408160968368115
 20
-47.07524252486512
 30
8.5
 11
64.28469292684723
 21
-44.35626511893171
 31
8.5
  0
LINE
  5
7B
330
17
100
AcDbEntity
  8
0
100
AcDbLine
 10
32.142346463423614
 20
-22.178132559465855
 30
8.5
 11
62.01887842190272
 21
-19.45915515353245
 31
8.5
  0
LINE
  5
7C
330
17
100
AcDbEntity
  8
0
100
AcDbLine
 10
29.87653195847911
 20
2.718977405933405
 30
8.5
 11
59.75306391695822
 21
5.43795481186681
 31
8.5
  0
LINE
  5
7D
330
17
100
AcDbEntity
  8
0
100
AcDbLine
 10
27.610717453534605
 20
27.616087371332664
 30
8.5
 11
57.48724941201372
 21
30.33506477726607
 31
8.5
  0
LINE
  5
7E
330
17
100
AcDbEntity
  8
0
100
AcDbLine
 10
25.344902948590104
 20
52.51319733673192
 30
8.5
 11
55.22143490706921
 21
55.23217474266533
 31
8.5
  0
LINE
  5
7F
330
17
100
AcDbEntity
  8
0
100
AcDbLine
 10
-58.02709102506275
 20
-43.750505221872366
 30
17.0
 11
-56.453085890562754
 21
-20.052720349936177
 31
17.0
  0
LINE
  5
80
330
17
100
AcDbEntity
  8
0
100
AcDbLine
 10
-56.453085890562754
 20
-20.052720349936177
 30
17.0
 11
-54.87908075606275
 21
3.6450645220000077
 31
17.0
  0
LINE
  5
81
330
17
100
AcDbEntity
  8
0
100
AcDbLine
 10
-54.87908075606275
 20
3.6450645220000077
 30
17.0
 11
-53.30507562156274
 21
27.342849393936195
 31
17.0
  0
LINE
  5
82
330
17
100
AcDbEntity
  8
0
100
AcDbLine
 10
-53.30507562156274
 20
27.342849393936195
 30
17.0
 11
-51.731070487062745
 21
51.04063426587238
 31
17.0
  0
LINE
  5
83
330
17
100
AcDbEntity
  8
0
100
AcDbLine
 10
-30.58755064703138
 20
-45.573037482872365
 30
17.0
 11
-29.013545512531376
 21
-21.875252610936183
 31
17.0
  0
LINE
  5
84
330
17
100
AcDbEntity
  8
0
100
AcDbLine
 10
-29.013545512531376
 20
-21.875252610936183
 30
17.0
 11
-27.439540378031374
 21
1.8225322610000039
 31
17.0
  0
LINE
  5
85
330
17
100
AcDbEntity
  8
0
100
AcDbLine
 10
-27.439540378031374
 20
1.8225322610000039
 30
17.0
 11
-25.865535243531372
 21
25.52031713293619
 31
17.0
  0
LINE
  5
86
330
17
100
AcDbEntity
  8
0
100
AcDbLine
 10
-25.865535243531372
 20
25.52031713293619
 30
17.0
 11
-24.291530109031367
 21
49.21810200487238
 31
17.0
  0
LINE
  5
87
330
17
100
AcDbEntity
  8
0
100
AcDbLine
 10
-3.1480102690000065
 20
-47.39556974387237
 30
17.0
 11
-1.5740051345000032
 21
-23.697784871936186
 31
17.0
  0
LINE
  5
88
330
17
100
AcDbEntity
  8
0
100
AcDbLine
 10
-1.5740051345000032
 20
-23.697784871936186
 30
17.0
 11
0.0
 21
0.0
 31
17.0
  0
LINE
  5
89
330
17
100
AcDbEntity
  8
0
100
AcDbLine
 10
0.0
 20
0.0
 30
17.0
 11
1.5740051345000032
 21
23.697784871936186
 31
17.0
  0
LINE
  5
8A
330
17
100
AcDbEntity
  8
0
100
AcDbLine
 10
1.5740051345000032
 20
23.697784871936186
 30
17.0
 11
3.1480102690000065
 21
47.39556974387237
 31
17.0
  0
LINE
  5
8B
330
17
100
AcDbEntity
  8
0
100
AcDbLine
 10
24.291530109031367
 20
-49.21810200487238
 30
17.0
 11
25.865535243531372
 21
-25.52031713293619
 31
17.0
  0
LINE
  5
8C
330
17
100
AcDbEntity
  8
0
100
AcDbLine
 10
25.865535243531372
 20
-25.52031713293619
 30
17.0
 11
27.439540378031374
 21
-1.8225322610000039
 31
17.0
  0
LINE
  5
8D
330
17
100
AcDbEntity
  8
0
100
AcDbLine
 10
27.439540378031374
 20
-1.8225322610000039
 30
17.0
 11
29.013545512531376
 21
21.875252610936183
 31
17.0
  0
LINE
  5
8E
330
17
100
AcDbEntity
  8
0
100
AcDbLine
 10
29.013545512531376
 20
21.875252610936183
 30
17.0
 11
30.58755064703138
 21
45.573037482872365
 31
17.0
  0
LINE
  5
8F
330
17
100
AcDbEntity
  8
0
100
AcDbLine
 10
51.731070487062745
 20
-51.04063426587238
 30
17.0
 11
53.30507562156274
 21
-27.342849393936195
 31
17.0
  0
LINE
  5
90
330
17
100
AcDbEntity
  8
0
100
AcDbLine
 10
53.30507562156274
 20
-27.342849393936195
 30
17.0
 11
54.87908075606275
 21
-3.6450645220000077
 31
17.0
  0
LINE
  5
91
330
17
100
AcDbEntity
  8
0
100
AcDbLine
 10
54.87908075606275
 20
-3.6450645220000077
 30
17.0
 11
56.453085890562754
 21
20.052720349936177
 31
17.0
  0
LINE
  5
92
330
17
100
AcDbEntity
  8
0
100
AcDbLine
 10
56.453085890562754
 20
20.052720349936177
 30
17.0
 11
58.02709102506275
 21
43.750505221872366
 31
17.0
  0
LINE
  5
93
330
17
100
AcDbEntity
  8
0
100
AcDbLine
 10
-58.02709102506275
 20
-43.750505221872366
 30
17.0
 11
-30.58755064703138
 21
-45.573037482872365
 31
17.0
  0
LINE
  5
94
330
17
100
AcDbEntity
  8
0
100
AcDbLine
 10
-56.453085890562754
 20
-20.052720349936177
 30
17.0
 11
-29.013545512531376
 21
-21.875252610936183
 31
17.0
  0
LINE
  5
95
330
17
100
AcDbEntity
  8
0
100
AcDbLine
 10
-54.87908075606275
 20
3.6450645220000077
 30
17.0
 11
-27.439540378031374
 21
1.8225322610000039
 31
17.0
  0
LINE
  5
96
330
17
100
AcDbEntity
  8
0
100
AcDbLine
 10
-53.30507562156274
 20
27.342849393936195
 30
17.0
 11
-25.865535243531372
 21
25.52031713293619
 31
17.0
  0
LINE
  5
97
330
17
100
AcDbEntity
  8
0
100
AcDbLine
 10
-51.731070487062745
 20
51.04063426587238
 30
17.0
 11
-24.291530109031367
 21
49.21810200487238
 31
17.0
  0
LINE
  5
98
330
17
100
AcDbEntity
  8
0
100
AcDbLine
 10
-30.58755064703138
 20
-45.573037482872365
 30
17.0
 11
-3.1480102690000065
 21
-47.39556974387237
 31
17.0
  0
LINE
  5
99
330
17
100
AcDbEntity
  8
0
100
AcDbLine
 10
-29.013545512531376
 20
-21.875252610936183
 30
17.0
 11
-1.5740051345000032
 21
-23.697784871936186
 31
17.0
  0
LINE
  5
9A
330
17
100
AcDbEntity
  8
0
100
AcDbLine
 10
-27.439540378031374
 20
1.8225322610000039
 30
17.0
 11
0.0
 21
0.0
 31
17.0
  0
LINE
  5
9B
330
17
100
AcDbEntity
  8
0
100
AcDbLine
 10
-25.865535243531372
 20
25.52031713293619
 30
17.0
 11
1.5740051345000032
 21
23.697784871936186
 31
17.0
  0
LINE
  5
9C
330
17
100
AcDbEntity
  8
0
100
AcDbLine
 10
-24.291530109031367
 20
49.21810200487238
 30
17.0
 11
3.1480102690000065
 21
47.39556974387237
 31
17.0
  0
LINE
  5
9D
330
17
100
AcDbEntity
  8
0
100
AcDbLine
 10
-3.1480102690000065
 20
-47.39556974387237
 30
17.0
 11
24.291530109031367
 21
-49.21810200487238
 31
17.0
  0
LINE
  5
9E
330
17
100
AcDbEntity
  8
0
100
AcDbLine
 10
-1.5740051345000032
 20
-23.697784871936186
 30
17.0
 11
25.865535243531372
 21
-25.52031713293619
 31
17.0
  0
LINE
  5
9F
330
17
100
AcDbEntity
  8
0
100
AcDbLine
 10
0.0
 20
0.0
 30
17.0
 11
27.439540378031374
 21
-1.8225322610000039
 31
17.0
  0
LINE
  5
A0
330
17
100
AcDbEntity
  8
0
100
AcDbLine
 10
1.5740051345000032
 20
23.697784871936186
 30
17.0
 11
29.013545512531376
 21
21.875252610936183
 31
17.0
  0
LINE
  5
A1
330
17
100
AcDbEntity
  8
0
100
AcDbLine
 10
3.1480102690000065
 20
47.39556974387237
 30
17.0
 11
30.58755064703138
 21
45.573037482872365
 31
17.0
  0
LINE
  5
A2
330
17
100
AcDbEntity
  8
0
100
AcDbLine
 10
24.291530109031367
 20
-49.21810200487238
 30
17.0
 11
51.731070487062745
 21
-51.04063426587238
 31
17.0
  0
LINE
  5
A3
330
17
100
AcDbEntity
  8
0
100
AcDbLine
 10
25.865535243531372
 20
-25.52031713293619
 30
17.0
 11
53.30507562156274
 21
-27.342849393936195
 31
17.0
  0
LINE
  5
A4
330
17
100
AcDbEntity
  8
0
100
AcDbLine
 10
27.439540378031374
 20
-1.8225322610000039
 30
17.0
 11
54.87908075606275
 21
-3.6450645220000077
 31
17.0
  0
LINE
  5
A5
330
17
100
AcDbEntity
  8
0
100
AcDbLine
 10
29.013545512531376
 20
21.875252610936183
 30
17.0
 11
56.453085890562754
 21
20.052720349936177
 31
17.0
  0
LINE
  5
A6
330
17
100
AcDbEntity
  8
0
100
AcDbLine
 10
30.58755064703138
 20
45.573037482872365
 30
17.0
 11
58.02709102506275
 21
43.750505221872366
 31
17.0
  0
LINE
  5
A7
330
17
100
AcDbEntity
  8
0
100
AcDbLine
 10
-43.698564418788195
 20
-51.14132837282405
 30
26.3
 11
-46.63540374373936
 21
-28.83381899191331
 31
26.3
  0
LINE
  5
A8
330
17
100
AcDbEntity
  8
0
100
AcDbLine
 10
-46.63540374373936
 20
-28.83381899191331
 30
26.3
 11
-49.57224306869052
 21
-6.526309611002579
 31
26.3
  0
LINE
  5
A9
330
17
100
AcDbEntity
  8
0
100
AcDbLine
 10
-49.57224306869052
 20
-6.526309611002579
 30
26.3
 11
-52.50908239364168
 21
15.781199769908156
 31
26.3
  0
LINE
  5
AA
330
17
100
AcDbEntity
  8
0
100
AcDbLine
 10
-52.50908239364168
 20
15.781199769908156
 30
26.3
 11
-55.44592171859284
 21
38.088709150818886
 31
26.3
  0
LINE
  5
AB
330
17
100
AcDbEntity
  8
0
100
AcDbLine
 10
-18.91244288444294
 20
-47.878173567322754
 30
26.3
 11
-21.849282209394097
 21
-25.570664186412024
 31
26.3
  0
LINE
  5
AC
330
17
100
AcDbEntity
  8
0
100
AcDbLine
 10
-21.849282209394097
 20
-25.570664186412024
 30
26.3
 11
-24.78612153434526
 21
-3.2631548055012893
 31
26.3
  0
LINE
  5
AD
330
17
100
AcDbEntity
  8
0
100
AcDbLine
 10
-24.78612153434526
 20
-3.2631548055012893
 30
26.3
 11
-27.72296085929642
 21
19.044354575409443
 31
26.3
  0
LINE
  5
AE
330
17
100
AcDbEntity
  8
0
100
AcDbLine
 10
-27.72296085929642
 20
19.044354575409443
 30
26.3
 11
-30.65980018424758
 21
41.35186395632018
 31
26.3
  0
LINE
  5
AF
330
17
100
AcDbEntity
  8
0
100
AcDbLine
 10
5.87367864990232
 20
-44.61501876182147
 30
26.3
 11
2.93683932495116
 21
-22.307509380910734
 31
26.3
  0
LINE
  5
B0
330
17
100
AcDbEntity
  8
0
100
AcDbLine
 10
2.93683932495116
 20
-22.307509380910734
 30
26.3
 11
0.0
 21
0.0
 31
26.3
  0
LINE
  5
B1
330
17
100
AcDbEntity
  8
0
100
AcDbLine
 10
0.0
 20
0.0
 30
26.3
 11
-2.93683932495116
 21
22.307509380910734
 31
26.3
  0
LINE
  5
B2
330
17
100
AcDbEntity
  8
0
100
AcDbLine
 10
-2.93683932495116
 20
22.307509380910734
 30
26.3
 11
-5.87367864990232
 21
44.61501876182147
 31
26.3
  0
LINE
  5
B3
330
17
100
AcDbEntity
  8
0
100
AcDbLine
 10
30.65980018424758
 20
-41.35186395632018
 30
26.3
 11
27.72296085929642
 21
-19.044354575409443
 31
26.3
  0
LINE
  5
B4
330
17
100
AcDbEntity
  8
0
100
AcDbLine
 10
27.72296085929642
 20
-19.044354575409443
 30
26.3
 11
24.78612153434526
 21
3.2631548055012893
 31
26.3
  0
LINE
  5
B5
330
17
100
AcDbEntity
  8
0
100
AcDbLine
 10
24.78612153434526
 20
3.2631548055012893
 30
26.3
 11
21.849282209394097
 21
25.570664186412024
 31
26.3
  0
LINE
  5
B6
330
17
100
AcDbEntity
  8
0
100
AcDbLine
 10
21.849282209394097
 20
25.570664186412024
 30
26.3
 11
18.91244288444294
 21
47.878173567322754
 31
26.3
  0
LINE
  5
B7
330
17
100
AcDbEntity
  8
0
100
AcDbLine
 10
55.44592171859284
 20
-38.088709150818886
 30
26.3
 11
52.50908239364168
 21
-15.781199769908156
 31
26.3
  0
LINE
  5
B8
330
17
100
AcDbEntity
  8
0
100
AcDbLine
 10
52.50908239364168
 20
-15.781199769908156
 30
26.3
 11
49.57224306869052
 21
6.526309611002579
 31
26.3
  0
LINE
  5
B9
330
17
100
AcDbEntity
  8
0
100
AcDbLine
 10
49.57224306869052
 20
6.526309611002579
 30
26.3
 11
46.63540374373936
 21
28.83381899191331
 31
26.3
  0
LINE
  5
BA
330
17
100
AcDbEntity
  8
0
100
AcDbLine
 10
46.63540374373936
 20
28.83381899191331
 30
26.3
 11
43.698564418788195
 21
51.14132837282405
 31
26.3
  0
LINE
  5
BB
330
17
100
AcDbEntity
  8
0
100
AcDbLine
 10
-43.698564418788195
 20
-51.14132837282405
 30
26.3
 11
-18.91244288444294
 21
-47.878173567322754
 31
26.3
  0
LINE
  5
BC
330
17
100
AcDbEntity
  8
0
100
AcDbLine
 10
-46.63540374373936
 20
-28.83381899191331
 30
26.3
 11
-21.849282209394097
 21
-25.570664186412024
 31
26.3
  0
LINE
  5
BD
330
17
100
AcDbEntity
  8
0
100
AcDbLine
 10
-49.57224306869052
 20
-6.526309611002579
 30
26.3
 11
-24.78612153434526
 21
-3.2631548055012893
 31
26.3
  0
LINE
  5
BE
330
17
100
AcDbEntity
  8
0
100
AcDbLine
 10
-52.50908239364168
 20
15.781199769908156
 30
26.3
 11
-27.72296085929642
 21
19.044354575409443
 31
26.3
  0
LINE
  5
BF
330
17
100
AcDbEntity
  8
0
100
AcDbLine
 10
-55.44592171859284
 20
38.088709150818886
 30
26.3
 11
-30.65980018424758
 21
41.35186395632018
 31
26.3
  0
LINE
  5
C0
330
17
100
AcDbEntity
  8
0
100
AcDbLine
 10
-18.91244288444294
 20
-47.878173567322754
 30
26.3
 11
5.87367864990232
 21
-44.61501876182147
 31
26.3
  0
LINE
  5
C1
330
17
100
AcDbEntity
  8
0
100
AcDbLine
 10
-21.849282209394097
 20
-25.570664186412024
 30
26.3
 11
2.93683932495116
 21
-22.307509380910734
 31
26.3
  0
LINE
  5
C2
330
17
100
AcDbEntity
  8
0
100
AcDbLine
 10
-24.78612153434526
 20
-3.2631548055012893
 30
26.3
 11
0.0
 21
0.0
 31
26.3
  0
LINE
  5
C3
330
17
100
AcDbEntity
  8
0
100
AcDbLine
 10
-27.72296085929642
 20
19.044354575409443
 30
26.3
 11
-2.93683932495116
 21
22.307509380910734
 31
26.3
  0
LINE
  5
C4
330
17
100
AcDbEntity
  8
0
100
AcDbLine
 10
-30.65980018424758
 20
41.35186395632018
 30
26.3
 11
-5.87367864990232
 21
44.61501876182147
 31
26.3
  0
LINE
  5
C5
330
17
100
AcDbEntity
  8
0
100
AcDbLine
 10
5.87367864990232
 20
-44.61501876182147
 30
26.3
 11
30.65980018424758
 21
-41.35186395632018
 31
26.3
  0
LINE
  5
C6
330
17
100
AcDbEntity
  8
0
100
AcDbLine
 10
2.93683932495116
 20
-22.307509380910734
 30
26.3
 11
27.72296085929642
 21
-19.044354575409443
 31
26.3
  0
LINE
  5
C7
330
17
100
AcDbEntity
  8
0
100
AcDbLine
 10
0.0
 20
0.0
 30
26.3
 11
24.78612153434526
 21
3.2631548055012893
 31
26.3
  0
LINE
  5
C8
330
17
100
AcDbEntity
  8
0
100
AcDbLine
 10
-2.93683932495116
 20
22.307509380910734
 30
26.3
 11
21.849282209394097
 21
25.570664186412024
 31
26.3
  0
LINE
  5
C9
330
17
100
AcDbEntity
  8
0
100
AcDbLine
 10
-5.87367864990232
 20
44.61501876182147
 30
26.3
 11
18.91244288444294
 21
47.878173567322754
 31
26.3
  0
LINE
  5
CA
330
17
100
AcDbEntity
  8
0
100
AcDbLine
 10
30.65980018424758
 20
-41.35186395632018
 30
26.3
 11
55.44592171859284
 21
-38.088709150818886
 31
26.3
  0
LINE
  5
CB
330
17
100
AcDbEntity
  8
0
100
AcDbLine
 10
27.72296085929642
 20
-19.044354575409443
 30
26.3
 11
52.50908239364168
 21
-15.781199769908156
 31
26.3
  0
LINE
  5
CC
330
17
100
AcDbEntity
  8
0
100
AcDbLine
 10
24.78612153434526
 20
3.2631548055012893
 30
26.3
 11
49.57224306869052
 21
6.526309611002579
 31
26.3
  0
LINE
  5
CD
330
17
100
AcDbEntity
  8
0
100
AcDbLine
 10
21.849282209394097
 20
25.570664186412024
 30
26.3
 11
46.63540374373936
 21
28.83381899191331
 31
26.3
  0
LINE
  5
CE
330
17
100
AcDbEntity
  8
0
100
AcDbLine
 10
18.91244288444294
 20
47.878173567322754
 30
26.3
 11
43.698564418788195
 21
51.14132837282405
 31
26.3
  0
LINE
  5
CF
330
17
100
AcDbEntity
  8
0
100
AcDbLine
 10
-46.56901948145246
 20
-38.161845140612655
 30
35.8
 11
-45.76638363080126
 21
-18.17795723832373
 31
35.8
  0
LINE
  5
D0
330
17
100
AcDbEntity
  8
0
100
AcDbLine
 10
-45.76638363080126
 20
-18.17795723832373
 30
35.8
 11
-44.963747780150065
 21
1.805930663965188
 31
35.8
  0
LINE
  5
D1
330
17
100
AcDbEntity
  8
0
100
AcDbLine
 10
-44.963747780150065
 20
1.805930663965188
 30
35.8
 11
-44.16111192949887
 21
21.78981856625411
 31
35.8
  0
LINE
  5
D2
330
17
100
AcDbEntity
  8
0
100
AcDbLine
 10
-44.16111192949887
 20
21.78981856625411
 30
35.8
 11
-43.35847607884767
 21
41.773706468543025
 31
35.8
  0
LINE
  5
D3
330
17
100
AcDbEntity
  8
0
100
AcDbLine
 10
-24.08714559137742
 20
-39.06481047259525
 30
35.8
 11
-23.28450974072623
 21
-19.080922570306328
 31
35.8
  0
LINE
  5
D4
330
17
100
AcDbEntity
  8
0
100
AcDbLine
 10
-23.28450974072623
 20
-19.080922570306328
 30
35.8
 11
-22.481873890075033
 21
0.902965331982594
 31
35.8
  0
LINE
  5
D5
330
17
100
AcDbEntity
  8
0
100
AcDbLine
 10
-22.481873890075033
 20
0.902965331982594
 30
35.8
 11
-21.679238039423836
 21
20.886853234271513
 31
35.8
  0
LINE
  5
D6
330
17
100
AcDbEntity
  8
0
100
AcDbLine
 10
-21.679238039423836
 20
20.886853234271513
 30
35.8
 11
-20.876602188772644
 21
40.87074113656043
 31
35.8
  0
LINE
  5
D7
330
17
100
AcDbEntity
  8
0
100
AcDbLine
 10
-1.6052717013023892
 20
-39.96777580457784
 30
35.8
 11
-0.8026358506511946
 21
-19.98388790228892
 31
35.8
  0
LINE
  5
D8
330
17
100
AcDbEntity
  8
0
100
AcDbLine
 10
-0.8026358506511946
 20
-19.98388790228892
 30
35.8
 11
0.0
 21
0.0
 31
35.8
  0
LINE
  5
D9
330
17
100
AcDbEntity
  8
0
100
AcDbLine
 10
0.0
 20
0.0
 30
35.8
 11
0.8026358506511946
 21
19.98388790228892
 31
35.8
  0
LINE
  5
DA
330
17
100
AcDbEntity
  8
0
100
AcDbLine
 10
0.8026358506511946
 20
19.98388790228892
 30
35.8
 11
1.6052717013023892
 21
39.96777580457784
 31
35.8
  0
LINE
  5
DB
330
17
100
AcDbEntity
  8
0
100
AcDbLine
 10
20.876602188772644
 20
-40.87074113656043
 30
35.8
 11
21.679238039423836
 21
-20.886853234271513
 31
35.8
  0
LINE
  5
DC
330
17
100
AcDbEntity
  8
0
100
AcDbLine
 10
21.679238039423836
 20
-20.886853234271513
 30
35.8
 11
22.481873890075033
 21
-0.902965331982594
 31
35.8
  0
LINE
  5
DD
330
17
100
AcDbEntity
  8
0
100
AcDbLine
 10
22.481873890075033
 20
-0.902965331982594
 30
35.8
 11
23.28450974072623
 21
19.080922570306328
 31
35.8
  0
LINE
  5
DE
330
17
100
AcDbEntity
  8
0
100
AcDbLine
 10
23.28450974072623
 20
19.080922570306328
 30
35.8
 11
24.08714559137742
 21
39.06481047259525
 31
35.8
  0
LINE
  5
DF
330
17
100
AcDbEntity
  8
0
100
AcDbLine
 10
43.35847607884767
 20
-41.773706468543025
 30
35.8
 11
44.16111192949887
 21
-21.78981856625411
 31
35.8
  0
LINE
  5
E0
330
17
100
AcDbEntity
  8
0
100
AcDbLine
 10
44.16111192949887
 20
-21.78981856625411
 30
35.8
 11
44.963747780150065
 21
-1.805930663965188
 31
35.8
  0
LINE
  5
E1
330
17
100
AcDbEntity
  8
0
100
AcDbLine
 10
44.963747780150065
 20
-1.805930663965188
 30
35.8
 11
45.76638363080126
 21
18.17795723832373
 31
35.8
  0
LINE
  5
E2
330
17
100
AcDbEntity
  8
0
100
AcDbLine
 10
45.76638363080126
 20
18.17795723832373
 30
35.8
 11
46.56901948145246
 21
38.161845140612655
 31
35.8
  0
LINE
  5
E3
330
17
100
AcDbEntity
  8
0
100
AcDbLine
 10
-46.56901948145246
 20
-38.161845140612655
 30
35.8
 11
-24.08714559137742
 21
-39.06481047259525
 31
35.8
  0
LINE
  5
E4
330
17
100
AcDbEntity
  8
0
100
AcDbLine
 10
-45.76638363080126
 20
-18.17795723832373
 30
35.8
 11
-23.28450974072623
 21
-19.080922570306328
 31
35.8
  0
LINE
  5
E5
330
17
100
AcDbEntity
  8
0
100
AcDbLine
 10
-44.963747780150065
 20
1.805930663965188
 30
35.8
 11
-22.481873890075033
 21
0.902965331982594
 31
35.8
  0
LINE
  5
E6
330
17
100
AcDbEntity
  8
0
100
AcDbLine
 10
-44.16111192949887
 20
21.78981856625411
 30
35.8
 11
-21.679238039423836
 21
20.886853234271513
 31
35.8
  0
LINE
  5
E7
330
17
100
AcDbEntity
  8
0
100
AcDbLine
 10
-43.35847607884767
 20
41.773706468543025
 30
35.8
 11
-20.876602188772644
 21
40.87074113656043
 31
35.8
  0
LINE
  5
E8
330
17
100
AcDbEntity
  8
0
100
AcDbLine
 10
-24.08714559137742
 20
-39.06481047259525
 30
35.8
 11
-1.6052717013023892
 21
-39.96777580457784
 31
35.8
  0
LINE
  5
E9
330
17
100
AcDbEntity
  8
0
100
AcDbLine
 10
-23.28450974072623
 20
-19.080922570306328
 30
35.8
 11
-0.8026358506511946
 21
-19.98388790228892
 31
35.8
  0
LINE
  5
EA
330
17
100
AcDbEntity
  8
0
100
AcDbLine
 10
-22.481873890075033
 20
0.902965331982594
 30
35.8
 11
0.0
 21
0.0
 31
35.8
  0
LINE
  5
EB
330
17
100
AcDbEntity
  8
0
100
AcDbLine
 10
-21.679238039423836
 20
20.886853234271513
 30
35.8
 11
0.8026358506511946
 21
19.98388790228892
 31
35.8
  0
LINE
  5
EC
330
17
100
AcDbEntity
  8
0
100
AcDbLine
 10
-20.876602188772644
 20
40.87074113656043
 30
35.8
 11
1.6052717013023892
 21
39.96777580457784
 31
35.8
  0
LINE
  5
ED
330
17
100
AcDbEntity
  8
0
100
AcDbLine
 10
-1.6052717013023892
 20
-39.96777580457784
 30
35.8
 11
20.876602188772644
 21
-40.87074113656043
 31
35.8
  0
LINE
  5
EE
330
17
100
AcDbEntity
  8
0
100
AcDbLine
 10
-0.8026358506511946
 20
-19.98388790228892
 30
35.8
 11
21.679238039423836
 21
-20.886853234271513
 31
35.8
  0
LINE
  5
EF
330
17
100
AcDbEntity
  8
0
100
AcDbLine
 10
0.0
 20
0.0
 30
35.8
 11
22.481873890075033
 21
-0.902965331982594
 31
35.8
  0
LINE
  5
F0
330
17
100
AcDbEntity
  8
0
100
AcDbLine
 10
0.8026358506511946
 20
19.98388790228892
 30
35.8
 11
23.28450974072623
 21
19.080922570306328
 31
35.8
  0
LINE
  5
F1
330
17
100
AcDbEntity
  8
0
100
AcDbLine
 10
1.6052717013023892
 20
39.96777580457784
 30
35.8
 11
24.08714559137742
 21
39.06481047259525
 31
35.8
  0
LINE
  5
F2
330
17
100
AcDbEntity
  8
0
100
AcDbLine
 10
20.876602188772644
 20
-40.87074113656043
 30
35.8
 11
43.35847607884767
 21
-41.773706468543025
 31
35.8
  0
LINE
  5
F3
330
17
100
AcDbEntity
  8
0
100
AcDbLine
 10
21.679238039423836
 20
-20.886853234271513
 30
35.8
 11
44.16111192949887
 21
-21.78981856625411
 31
35.8
  0
LINE
  5
F4
330
17
100
AcDbEntity
  8
0
100
AcDbLine
 10
22.481873890075033
 20
-0.902965331982594
 30
35.8
 11
44.963747780150065
 21
-1.805930663965188
 31
35.8
  0
LINE
  5
F5
330
17
100
AcDbEntity
  8
0
100
AcDbLine
 10
23.28450974072623
 20
19.080922570306328
 30
35.8
 11
45.76638363080126
 21
18.17795723832373
 31
35.8
  0
LINE
  5
F6
330
17
100
AcDbEntity
  8
0
100
AcDbLine
 10
24.08714559137742
 20
39.06481047259525
 30
35.8
 11
46.56901948145246
 21
38.161845140612655
 31
35.8
  0
LINE
  5
F7
330
17
100
AcDbEntity
  8
0
100
AcDbLine
 10
-31.84899485073065
 20
-42.55163365839357
 30
45.0
 11
-35.48744944004144
 21
-25.434050645551974
 31
45.0
  0
LINE
  5
F8
330
17
100
AcDbEntity
  8
0
100
AcDbLine
 10
-35.48744944004144
 20
-25.434050645551974
 30
45.0
 11
-39.12590402935223
 21
-8.316467632710374
 31
45.0
  0
LINE
  5
F9
330
17
100
AcDbEntity
  8
0
100
AcDbLine
 10
-39.12590402935223
 20
-8.316467632710374
 30
45.0
 11
-42.76435861866302
 21
8.801115380131225
 31
45.0
  0
LINE
  5
FA
330
17
100
AcDbEntity
  8
0
100
AcDbLine
 10
-42.76435861866302
 20
8.801115380131225
 30
45.0
 11
-46.40281320797381
 21
25.918698392972825
 31
45.0
  0
LINE
  5
FB
330
17
100
AcDbEntity
  8
0
100
AcDbLine
 10
-12.286042836054538
 20
-38.393399842038384
 30
45.0
 11
-15.924497425365326
 21
-21.275816829196785
 31
45.0
  0
LINE
  5
FC
330
17
100
AcDbEntity
  8
0
100
AcDbLine
 10
-15.924497425365326
 20
-21.275816829196785
 30
45.0
 11
-19.562952014676114
 21
-4.158233816355187
 31
45.0
  0
LINE
  5
FD
330
17
100
AcDbEntity
  8
0
100
AcDbLine
 10
-19.562952014676114
 20
-4.158233816355187
 30
45.0
 11
-23.201406603986904
 21
12.959349196486412
 31
45.0
  0
LINE
  5
FE
330
17
100
AcDbEntity
  8
0
100
AcDbLine
 10
-23.201406603986904
 20
12.959349196486412
 30
45.0
 11
-26.83986119329769
 21
30.076932209328014
 31
45.0
  0
LINE
  5
FF
330
17
100
AcDbEntity
  8
0
100
AcDbLine
 10
7.276909178621577
 20
-34.2351660256832
 30
45.0
 11
3.6384545893107885
 21
-17.1175830128416
 31
45.0
  0
LINE
  5
100
330
17
100
AcDbEntity
  8
0
100
AcDbLine
 10
3.6384545893107885
 20
-17.1175830128416
 30
45.0
 11
0.0
 21
0.0
 31
45.0
  0
LINE
  5
101
330
17
100
AcDbEntity
  8
0
100
AcDbLine
 10
0.0
 20
0.0
 30
45.0
 11
-3.6384545893107885
 21
17.1175830128416
 31
45.0
  0
LINE
  5
102
330
17
100
AcDbEntity
  8
0
100
AcDbLine
 10
-3.6384545893107885
 20
17.1175830128416
 30
45.0
 11
-7.276909178621577
 21
34.2351660256832
 31
45.0
  0
LINE
  5
103
330
17
100
AcDbEntity
  8
0
100
AcDbLine
 10
26.83986119329769
 20
-30.076932209328014
 30
45.0
 11
23.201406603986904
 21
-12.959349196486412
 31
45.0
  0
LINE
  5
104
330
17
100
AcDbEntity
  8
0
100
AcDbLine
 10
23.201406603986904
 20
-12.959349196486412
 30
45.0
 11
19.562952014676114
 21
4.158233816355187
 31
45.0
  0
LINE
  5
105
330
17
100
AcDbEntity
  8
0
100
AcDbLine
 10
19.562952014676114
 20
4.158233816355187
 30
45.0
 11
15.924497425365326
 21
21.275816829196785
 31
45.0
  0
LINE
  5
106
330
17
100
AcDbEntity
  8
0
100
AcDbLine
 10
15.924497425365326
 20
21.275816829196785
 30
45.0
 11
12.286042836054538
 21
38.393399842038384
 31
45.0
  0
LINE
  5
107
330
17
100
AcDbEntity
  8
0
100
AcDbLine
 10
46.40281320797381
 20
-25.918698392972825
 30
45.0
 11
42.76435861866302
 21
-8.801115380131225
 31
45.0
  0
LINE
  5
108
330
17
100
AcDbEntity
  8
0
100
AcDbLine
 10
42.76435861866302
 20
-8.801115380131225
 30
45.0
 11
39.12590402935223
 21
8.316467632710374
 31
45.0
  0
LINE
  5
109
330
17
100
AcDbEntity
  8
0
100
AcDbLine
 10
39.12590402935223
 20
8.316467632710374
 30
45.0
 11
35.48744944004144
 21
25.434050645551974
 31
45.0
  0
LINE
  5
10A
330
17
100
AcDbEntity
  8
0
100
AcDbLine
 10
35.48744944004144
 20
25.434050645551974
 30
45.0
 11
31.84899485073065
 21
42.55163365839357
 31
45.0
  0
LINE
  5
10B
330
17
100
AcDbEntity
  8
0
100
AcDbLine
 10
-31.84899485073065
 20
-42.55163365839357
 30
45.0
 11
-12.286042836054538
 21
-38.393399842038384
 31
45.0
  0
LINE
  5
10C
330
17
100
AcDbEntity
  8
0
100
AcDbLine
 10
-35.48744944004144
 20
-25.434050645551974
 30
45.0
 11
-15.924497425365326
 21
-21.275816829196785
 31
45.0
  0
LINE
  5
10D
330
17
100
AcDbEntity
  8
0
100
AcDbLine
 10
-39.12590402935223
 20
-8.316467632710374
 30
45.0
 11
-19.562952014676114
 21
-4.158233816355187
 31
45.0
  0
LINE
  5
10E
330
17
100
AcDbEntity
  8
0
100
AcDbLine
 10
-42.76435861866302
 20
8.801115380131225
 30
45.0
 11
-23.201406603986904
 21
12.959349196486412
 31
45.0
  0
LINE
  5
10F
330
17
100
AcDbEntity
  8
0
100
AcDbLine
 10
-46.40281320797381
 20
25.918698392972825
 30
45.0
 11
-26.83986119329769
 21
30.076932209328014
 31
45.0
  0
LINE
  5
110
330
17
100
AcDbEntity
  8
0
100
AcDbLine
 10
-12.286042836054538
 20
-38.393399842038384
 30
45.0
 11
7.276909178621577
 21
-34.2351660256832
 31
45.0
  0
LINE
  5
111
330
17
100
AcDbEntity
  8
0
100
AcDbLine
 10
-15.924497425365326
 20
-21.275816829196785
 30
45.0
 11
3.6384545893107885
 21
-17.1175830128416
 31
45.0
  0
LINE
  5
112
330
17
100
AcDbEntity
  8
0
100
AcDbLine
 10
-19.562952014676114
 20
-4.158233816355187
 30
45.0
 11
0.0
 21
0.0
 31
45.0
  0
LINE
  5
113
330
17
100
AcDbEntity
  8
0
100
AcDbLine
 10
-23.201406603986904
 20
12.959349196486412
 30
45.0
 11
-3.6384545893107885
 21
17.1175830128416
 31
45.0
  0
LINE
  5
114
330
17
100
AcDbEntity
  8
0
100
AcDbLine
 10
-26.83986119329769
 20
30.076932209328014
 30
45.0
 11
-7.276909178621577
 21
34.2351660256832
 31
45.0
  0
LINE
  5
115
330
17
100
AcDbEntity
  8
0
100
AcDbLine
 10
7.276909178621577
 20
-34.2351660256832
 30
45.0
 11
26.83986119329769
 21
-30.076932209328014
 31
45.0
  0
LINE
  5
116
330
17
100
AcDbEntity
  8
0
100
AcDbLine
 10
3.6384545893107885
 20
-17.1175830128416
 30
45.0
 11
23.201406603986904
 21
-12.959349196486412
 31
45.0
  0
LINE
  5
117
330
17
100
AcDbEntity
  8
0
100
AcDbLine
 10
0.0
 20
0.0
 30
45.0
 11
19.562952014676114
 21
4.158233816355187
 31
45.0
  0
LINE
  5
118
330
17
100
AcDbEntity
  8
0
100
AcDbLine
 10
-3.6384545893107885
 20
17.1175830128416
 30
45.0
 11
15.924497425365326
 21
21.275816829196785
 31
45.0
  0
LINE
  5
119
330
17
100
AcDbEntity
  8
0
100
AcDbLine
 10
-7.276909178621577
 20
34.2351660256832
 30
45.0
 11
12.286042836054538
 21
38.393399842038384
 31
45.0
  0
LINE
  5
11A
330
17
100
AcDbEntity
  8
0
100
AcDbLine
 10
26.83986119329769
 20
-30.076932209328014
 30
45.0
 11
46.40281320797381
 21
-25.918698392972825
 31
45.0
  0
LINE
  5
11B
330
17
100
AcDbEntity
  8
0
100
AcDbLine
 10
23.201406603986904
 20
-12.959349196486412
 30
45.0
 11
42.76435861866302
 21
-8.801115380131225
 31
45.0
  0
LINE
  5
11C
330
17
100
AcDbEntity
  8
0
100
AcDbLine
 10
19.562952014676114
 20
4.158233816355187
 30
45.0
 11
39.12590402935223
 21
8.316467632710374
 31
45.0
  0
LINE
  5
11D
330
17
100
AcDbEntity
  8
0
100
AcDbLine
 10
15.924497425365326
 20
21.275816829196785
 30
45.0
 11
35.48744944004144
 21
25.434050645551974
 31
45.0
  0
LINE
  5
11E
330
17
100
AcDbEntity
  8
0
100
AcDbLine
 10
12.286042836054538
 20
38.393399842038384
 30
45.0
 11
31.84899485073065
 21
42.55163365839357
 31
45.0
  0
LINE
  5
11F
330
17
100
AcDbEntity
  8
0
100
AcDbLine
 10
-37.71423951845798
 20
-26.507284612807528
 30
54.5
 11
-36.27655323065462
 21
-11.576341637299844
 31
54.5
  0
LINE
  5
120
330
17
100
AcDbEntity
  8
0
100
AcDbLine
 10
-36.27655323065462
 20
-11.576341637299844
 30
54.5
 11
-34.83886694285126
 21
3.3546013382078392
 31
54.5
  0
LINE
  5
121
330
17
100
AcDbEntity
  8
0
100
AcDbLine
 10
-34.83886694285126
 20
3.3546013382078392
 30
54.5
 11
-33.4011806550479
 21
18.285544313715523
 31
54.5
  0
LINE
  5
122
330
17
100
AcDbEntity
  8
0
100
AcDbLine
 10
-33.4011806550479
 20
18.285544313715523
 30
54.5
 11
-31.963494367244543
 21
33.21648728922321
 31
54.5
  0
LINE
  5
123
330
17
100
AcDbEntity
  8
0
100
AcDbLine
 10
-20.29480604703235
 20
-28.184585281911446
 30
54.5
 11
-18.85711975922899
 21
-13.253642306403764
 31
54.5
  0
LINE
  5
124
330
17
100
AcDbEntity
  8
0
100
AcDbLine
 10
-18.85711975922899
 20
-13.253642306403764
 30
54.5
 11
-17.41943347142563
 21
1.6773006691039196
 31
54.5
  0
LINE
  5
125
330
17
100
AcDbEntity
  8
0
100
AcDbLine
 10
-17.41943347142563
 20
1.6773006691039196
 30
54.5
 11
-15.981747183622272
 21
16.608243644611605
 31
54.5
  0
LINE
  5
126
330
17
100
AcDbEntity
  8
0
100
AcDbLine
 10
-15.981747183622272
 20
16.608243644611605
 30
54.5
 11
-14.544060895818912
 21
31.53918662011929
 31
54.5
  0
LINE
  5
127
330
17
100
AcDbEntity
  8
0
100
AcDbLine
 10
-2.875372575606719
 20
-29.861885951015367
 30
54.5
 11
-1.4376862878033596
 21
-14.930942975507683
 31
54.5
  0
LINE
  5
128
330
17
100
AcDbEntity
  8
0
100
AcDbLine
 10
-1.4376862878033596
 20
-14.930942975507683
 30
54.5
 11
0.0
 21
0.0
 31
54.5
  0
LINE
  5
129
330
17
100
AcDbEntity
  8
0
100
AcDbLine
 10
0.0
 20
0.0
 30
54.5
 11
1.4376862878033596
 21
14.930942975507683
 31
54.5
  0
LINE
  5
12A
330
17
100
AcDbEntity
  8
0
100
AcDbLine
 10
1.4376862878033596
 20
14.930942975507683
 30
54.5
 11
2.875372575606719
 21
29.861885951015367
 31
54.5
  0
LINE
  5
12B
330
17
100
AcDbEntity
  8
0
100
AcDbLine
 10
14.544060895818912
 20
-31.53918662011929
 30
54.5
 11
15.981747183622272
 21
-16.608243644611605
 31
54.5
  0
LINE
  5
12C
330
17
100
AcDbEntity
  8
0
100
AcDbLine
 10
15.981747183622272
 20
-16.608243644611605
 30
54.5
 11
17.41943347142563
 21
-1.6773006691039196
 31
54.5
  0
LINE
  5
12D
330
17
100
AcDbEntity
  8
0
100
AcDbLine
 10
17.41943347142563
 20
-1.6773006691039196
 30
54.5
 11
18.85711975922899
 21
13.253642306403764
 31
54.5
  0
LINE
  5
12E
330
17
100
AcDbEntity
  8
0
100
AcDbLine
 10
18.85711975922899
 20
13.253642306403764
 30
54.5
 11
20.29480604703235
 21
28.184585281911446
 31
54.5
  0
LINE
  5
12F
330
17
100
AcDbEntity
  8
0
100
AcDbLine
 10
31.963494367244543
 20
-33.21648728922321
 30
54.5
 11
33.4011806550479
 21
-18.285544313715523
 31
54.5
  0
LINE
  5
130
330
17
100
AcDbEntity
  8
0
100
AcDbLine
 10
33.4011806550479
 20
-18.285544313715523
 30
54.5
 11
34.83886694285126
 21
-3.3546013382078392
 31
54.5
  0
LINE
  5
131
330
17
100
AcDbEntity
  8
0
100
AcDbLine
 10
34.83886694285126
 20
-3.3546013382078392
 30
54.5
 11
36.27655323065462
 21
11.576341637299844
 31
54.5
  0
LINE
  5
132
330
17
100
AcDbEntity
  8
0
100
AcDbLine
 10
36.27655323065462
 20
11.576341637299844
 30
54.5
 11
37.71423951845798
 21
26.507284612807528
 31
54.5
  0
LINE
  5
133
330
17
100
AcDbEntity
  8
0
100
AcDbLine
 10
-37.71423951845798
 20
-26.507284612807528
 30
54.5
 11
-20.29480604703235
 21
-28.184585281911446
 31
54.5
  0
LINE
  5
134
330
17
100
AcDbEntity
  8
0
100
AcDbLine
 10
-36.27655323065462
 20
-11.576341637299844
 30
54.5
 11
-18.85711975922899
 21
-13.253642306403764
 31
54.5
  0
LINE
  5
135
330
17
100
AcDbEntity
  8
0
100
AcDbLine
 10
-34.83886694285126
 20
3.3546013382078392
 30
54.5
 11
-17.41943347142563
 21
1.6773006691039196
 31
54.5
  0
LINE
  5
136
330
17
100
AcDbEntity
  8
0
100
AcDbLine
 10
-33.4011806550479
 20
18.285544313715523
 30
54.5
 11
-15.981747183622272
 21
16.608243644611605
 31
54.5
  0
LINE
  5
137
330
17
100
AcDbEntity
  8
0
100
AcDbLine
 10
-31.963494367244543
 20
33.21648728922321
 30
54.5
 11
-14.544060895818912
 21
31.53918662011929
 31
54.5
  0
LINE
  5
138
330
17
100
AcDbEntity
  8
0
100
AcDbLine
 10
-20.29480604703235
 20
-28.184585281911446
 30
54.5
 11
-2.875372575606719
 21
-29.861885951015367
 31
54.5
  0
LINE
  5
139
330
17
100
AcDbEntity
  8
0
100
AcDbLine
 10
-18.85711975922899
 20
-13.253642306403764
 30
54.5
 11
-1.4376862878033596
 21
-14.930942975507683
 31
54.5
  0
LINE
  5
13A
330
17
100
AcDbEntity
  8
0
100
AcDbLine
 10
-17.41943347142563
 20
1.6773006691039196
 30
54.5
 11
0.0
 21
0.0
 31
54.5
  0
LINE
  5
13B
330
17
100
AcDbEntity
  8
0
100
AcDbLine
 10
-15.981747183622272
 20
16.608243644611605
 30
54.5
 11
1.4376862878033596
 21
14.930942975507683
 31
54.5
  0
LINE
  5
13C
330
17
100
AcDbEntity
  8
0
100
AcDbLine
 10
-14.544060895818912
 20
31.53918662011929
 30
54.5
 11
2.875372575606719
 21
29.861885951015367
 31
54.5
  0
LINE
  5
13D
330
17
100
AcDbEntity
  8
0
100
AcDbLine
 10
-2.875372575606719
 20
-29.861885951015367
 30
54.5
 11
14.544060895818912
 21
-31.53918662011929
 31
54.5
  0
LINE
  5
13E
330
17
100
AcDbEntity
  8
0
100
AcDbLine
 10
-1.4376862878033596
 20
-14.930942975507683
 30
54.5
 11
15.981747183622272
 21
-16.608243644611605
 31
54.5
  0
LINE
  5
13F
330
17
100
AcDbEntity
  8
0
100
AcDbLine
 10
0.0
 20
0.0
 30
54.5
 11
17.41943347142563
 21
-1.6773006691039196
 31
54.5
  0
LINE
  5
140
330
17
100
AcDbEntity
  8
0
100
AcDbLine
 10
1.4376862878033596
 20
14.930942975507683
 30
54.5
 11
18.85711975922899
 21
13.253642306403764
 31
54.5
  0
LINE
  5
141
330
17
100
AcDbEntity
  8
0
100
AcDbLine
 10
2.875372575606719
 20
29.861885951015367
 30
54.5
 11
20.29480604703235
 21
28.184585281911446
 31
54.5
  0
LINE
  5
142
330
17
100
AcDbEntity
  8
0
100
AcDbLine
 10
14.544060895818912
 20
-31.53918662011929
 30
54.5
 11
31.963494367244543
 21
-33.21648728922321
 31
54.5
  0
LINE
  5
143
330
17
100
AcDbEntity
  8
0
100
AcDbLine
 10
15.981747183622272
 20
-16.608243644611605
 30
54.5
 11
33.4011806550479
 21
-18.285544313715523
 31
54.5
  0
LINE
  5
144
330
17
100
AcDbEntity
  8
0
100
AcDbLine
 10
17.41943347142563
 20
-1.6773006691039196
 30
54.5
 11
34.83886694285126
 21
-3.3546013382078392
 31
54.5
  0
LINE
  5
145
330
17
100
AcDbEntity
  8
0
100
AcDbLine
 10
18.85711975922899
 20
13.253642306403764
 30
54.5
 11
36.27655323065462
 21
11.576341637299844
 31
54.5
  0
LINE
  5
146
330
17
100
AcDbEntity
  8
0
100
AcDbLine
 10
20.29480604703235
 20
28.184585281911446
 30
54.5
 11
37.71423951845798
 21
26.507284612807528
 31
54.5
  0
LINE
  5
147
330
17
100
AcDbEntity
  8
0
100
AcDbLine
 10
-40.0
 20
-30.0
 30
0.0
 11
-40.0
 21
-30.0
 31
8.5
  0
LINE
  5
148
330
17
100
AcDbEntity
  8
0
100
AcDbLine
 10
-10.0
 20
-30.0
 30
0.0
 11
-10.0
 21
-30.0
 31
8.5
  0
LINE
  5
149
330
17
100
AcDbEntity
  8
0
100
AcDbLine
 10
20.0
 20
-30.0
 30
0.0
 11
20.0
 21
-30.0
 31
8.5
  0
LINE
  5
14A
330
17
100
AcDbEntity
  8
0
100
AcDbLine
 10
50.0
 20
-30.0
 30
0.0
 11
50.0
 21
-30.0
 31
8.5
  0
LINE
  5
14B
330
17
100
AcDbEntity
  8
0
100
AcDbLine
 10
-40.0
 20
-30.0
 30
8.5
 11
-40.0
 21
-30.0
 31
17.0
  0
LINE
  5
14C
330
17
100
AcDbEntity
  8
0
100
AcDbLine
 10
-10.0
 20
-30.0
 30
8.5
 11
-10.0
 21
-30.0
 31
17.0
  0
LINE
  5
14D
330
17
100
AcDbEntity
  8
0
100
AcDbLine
 10
20.0
 20
-30.0
 30
8.5
 11
20.0
 21
-30.0
 31
17.0
  0
LINE
  5
14E
330
17
100
AcDbEntity
  8
0
100
AcDbLine
 10
50.0
 20
-30.0
 30
8.5
 11
50.0
 21
-30.0
 31
17.0
  0
LINE
  5
14F
330
17
100
AcDbEntity
  8
0
100
AcDbLine
 10
-40.0
 20
-30.0
 30
17.0
 11
-40.0
 21
-30.0
 31
26.3
  0
LINE
  5
150
330
17
100
AcDbEntity
  8
0
100
AcDbLine
 10
-10.0
 20
-30.0
 30
17.0
 11
-10.0
 21
-30.0
 31
26.3
  0
LINE
  5
151
330
17
100
AcDbEntity
  8
0
100
AcDbLine
 10
20.0
 20
-30.0
 30
17.0
 11
20.0
 21
-30.0
 31
26.3
  0
LINE
  5
152
330
17
100
AcDbEntity
  8
0
100
AcDbLine
 10
50.0
 20
-30.0
 30
17.0
 11
50.0
 21
-30.0
 31
26.3
  0
LINE
  5
153
330
17
100
AcDbEntity
  8
0
100
AcDbLine
 10
-40.0
 20
-30.0
 30
26.3
 11
-40.0
 21
-30.0
 31
35.8
  0
LINE
  5
154
330
17
100
AcDbEntity
  8
0
100
AcDbLine
 10
-10.0
 20
-30.0
 30
26.3
 11
-10.0
 21
-30.0
 31
35.8
  0
LINE
  5
155
330
17
100
AcDbEntity
  8
0
100
AcDbLine
 10
20.0
 20
-30.0
 30
26.3
 11
20.0
 21
-30.0
 31
35.8
  0
LINE
  5
156
330
17
100
AcDbEntity
  8
0
100
AcDbLine
 10
50.0
 20
-30.0
 30
26.3
 11
50.0
 21
-30.0
 31
35.8
  0
LINE
  5
157
330
17
100
AcDbEntity
  8
0
100
AcDbLine
 10
-40.0
 20
-30.0
 30
35.8
 11
-40.0
 21
-30.0
 31
45.0
  0
LINE
  5
158
330
17
100
AcDbEntity
  8
0
100
AcDbLine
 10
-10.0
 20
-30.0
 30
35.8
 11
-10.0
 21
-30.0
 31
45.0
  0
LINE
  5
159
330
17
100
AcDbEntity
  8
0
100
AcDbLine
 10
20.0
 20
-30.0
 30
35.8
 11
20.0
 21
-30.0
 31
45.0
  0
LINE
  5
15A
330
17
100
AcDbEntity
  8
0
100
AcDbLine
 10
50.0
 20
-30.0
 30
35.8
 11
50.0
 21
-30.0
 31
45.0
  0
LINE
  5
15B
330
17
100
AcDbEntity
  8
0
100
AcDbLine
 10
-40.0
 20
-30.0
 30
45.0
 11
-40.0
 21
-30.0
 31
54.5
  0
LINE
  5
15C
330
17
100
AcDbEntity
  8
0
100
AcDbLine
 10
-10.0
 20
-30.0
 30
45.0
 11
-10.0
 21
-30.0
 31
54.5
  0
LINE
  5
15D
330
17
100
AcDbEntity
  8
0
100
AcDbLine
 10
20.0
 20
-30.0
 30
45.0
 11
20.0
 21
-30.0
 31
54.5
  0
LINE
  5
15E
330
17
100
AcDbEntity
  8
0
100
AcDbLine
 10
50.0
 20
-30.0
 30
45.0
 11
50.0
 21
-30.0
 31
54.5
  0
LINE
  5
15F
330
17
100
AcDbEntity
  8
0
100
AcDbLine
 10
-30.0
 20
0.0
 30
8.5
 11
-30.0
 21
15.0
 31
8.5
  0
LINE
  5
160
330
17
100
AcDbEntity
  8
0
100
AcDbLine
 10
-33.0
 20
0.0
 30
8.5
 11
-27.0
 21
15.0
 31
10.5
  0
LINE
  5
161
330
17
100
AcDbEntity
  8
0
100
AcDbLine
 10
-27.0
 20
0.0
 30
8.5
 11
-33.0
 21
15.0
 31
10.5
  0
LINE
  5
162
330
17
100
AcDbEntity
  8
0
100
AcDbLine
 10
0.0
 20
0.0
 30
8.5
 11
0.0
 21
15.0
 31
8.5
  0
LINE
  5
163
330
17
100
AcDbEntity
  8
0
100
AcDbLine
 10
-3.0
 20
0.0
 30
8.5
 11
3.0
 21
15.0
 31
10.5
  0
LINE
  5
164
330
17
100
AcDbEntity
  8
0
100
AcDbLine
 10
3.0
 20
0.0
 30
8.5
 11
-3.0
 21
15.0
 31
10.5
  0
LINE
  5
165
330
17
100
AcDbEntity
  8
0
100
AcDbLine
 10
30.0
 20
0.0
 30
8.5
 11
30.0
 21
15.0
 31
8.5
  0
LINE
  5
166
330
17
100
AcDbEntity
  8
0
100
AcDbLine
 10
27.0
 20
0.0
 30
8.5
 11
33.0
 21
15.0
 31
10.5
  0
LINE
  5
167
330
17
100
AcDbEntity
  8
0
100
AcDbLine
 10
33.0
 20
0.0
 30
8.5
 11
27.0
 21
15.0
 31
10.5
  0
LINE
  5
168
330
17
100
AcDbEntity
  8
0
100
AcDbLine
 10
-30.0
 20
0.0
 30
26.3
 11
-30.0
 21
15.0
 31
26.3
  0
LINE
  5
169
330
17
100
AcDbEntity
  8
0
100
AcDbLine
 10
-33.0
 20
0.0
 30
26.3
 11
-27.0
 21
15.0
 31
28.3
  0
LINE
  5
16A
330
17
100
AcDbEntity
  8
0
100
AcDbLine
 10
-27.0
 20
0.0
 30
26.3
 11
-33.0
 21
15.0
 31
28.3
  0
LINE
  5
16B
330
17
100
AcDbEntity
  8
0
100
AcDbLine
 10
0.0
 20
0.0
 30
26.3
 11
0.0
 21
15.0
 31
26.3
  0
LINE
  5
16C
330
17
100
AcDbEntity
  8
0
100
AcDbLine
 10
-3.0
 20
0.0
 30
26.3
 11
3.0
 21
15.0
 31
28.3
  0
LINE
  5
16D
330
17
100
AcDbEntity
  8
0
100
AcDbLine
 10
3.0
 20
0.0
 30
26.3
 11
-3.0
 21
15.0
 31
28.3
  0
LINE
  5
16E
330
17
100
AcDbEntity
  8
0
100
AcDbLine
 10
30.0
 20
0.0
 30
26.3
 11
30.0
 21
15.0
 31
26.3
  0
LINE
  5
16F
330
17
100
AcDbEntity
  8
0
100
AcDbLine
 10
27.0
 20
0.0
 30
26.3
 11
33.0
 21
15.0
 31
28.3
  0
LINE
  5
170
330
17
100
AcDbEntity
  8
0
100
AcDbLine
 10
33.0
 20
0.0
 30
26.3
 11
27.0
 21
15.0
 31
28.3
  0
LINE
  5
171
330
17
100
AcDbEntity
  8
0
100
AcDbLine
 10
-30.0
 20
0.0
 30
45.0
 11
-30.0
 21
15.0
 31
45.0
  0
LINE
  5
172
330
17
100
AcDbEntity
  8
0
100
AcDbLine
 10
-33.0
 20
0.0
 30
45.0
 11
-27.0
 21
15.0
 31
47.0
  0
LINE
  5
173
330
17
100
AcDbEntity
  8
0
100
AcDbLine
 10
-27.0
 20
0.0
 30
45.0
 11
-33.0
 21
15.0
 31
47.0
  0
LINE
  5
174
330
17
100
AcDbEntity
  8
0
100
AcDbLine
 10
0.0
 20
0.0
 30
45.0
 11
0.0
 21
15.0
 31
45.0
  0
LINE
  5
175
330
17
100
AcDbEntity
  8
0
100
AcDbLine
 10
-3.0
 20
0.0
 30
45.0
 11
3.0
 21
15.0
 31
47.0
  0
LINE
  5
176
330
17
100
AcDbEntity
  8
0
100
AcDbLine
 10
3.0
 20
0.0
 30
45.0
 11
-3.0
 21
15.0
 31
47.0
  0
LINE
  5
177
330
17
100
AcDbEntity
  8
0
100
AcDbLine
 10
30.0
 20
0.0
 30
45.0
 11
30.0
 21
15.0
 31
45.0
  0
LINE
  5
178
330
17
100
AcDbEntity
  8
0
100
AcDbLine
 10
27.0
 20
0.0
 30
45.0
 11
33.0
 21
15.0
 31
47.0
  0
LINE
  5
179
330
17
100
AcDbEntity
  8
0
100
AcDbLine
 10
33.0
 20
0.0
 30
45.0
 11
27.0
 21
15.0
 31
47.0
  0
LINE
  5
17A
330
17
100
AcDbEntity
  8
0
100
AcDbLine
 10
-55.0
 20
-45.0
 30
0.0
 11
-45.0
 21
-35.0
 31
8.5
  0
LINE
  5
17B
330
17
100
AcDbEntity
  8
0
100
AcDbLine
 10
-45.0
 20
-45.0
 30
0.0
 11
-55.0
 21
-35.0
 31
8.5
  0
LINE
  5
17C
330
17
100
AcDbEntity
  8
0
100
AcDbLine
 10
-35.0
 20
-5.0
 30
0.0
 11
-25.0
 21
5.0
 31
8.5
  0
LINE
  5
17D
330
17
100
AcDbEntity
  8
0
100
AcDbLine
 10
-25.0
 20
-5.0
 30
0.0
 11
-35.0
 21
5.0
 31
8.5
  0
LINE
  5
17E
330
17
100
AcDbEntity
  8
0
100
AcDbLine
 10
-15.0
 20
-45.0
 30
0.0
 11
-5.0
 21
-35.0
 31
8.5
  0
LINE
  5
17F
330
17
100
AcDbEntity
  8
0
100
AcDbLine
 10
-5.0
 20
-45.0
 30
0.0
 11
-15.0
 21
-35.0
 31
8.5
  0
LINE
  5
180
330
17
100
AcDbEntity
  8
0
100
AcDbLine
 10
5.0
 20
-5.0
 30
0.0
 11
15.0
 21
5.0
 31
8.5
  0
LINE
  5
181
330
17
100
AcDbEntity
  8
0
100
AcDbLine
 10
15.0
 20
-5.0
 30
0.0
 11
5.0
 21
5.0
 31
8.5
  0
LINE
  5
182
330
17
100
AcDbEntity
  8
0
100
AcDbLine
 10
25.0
 20
-45.0
 30
0.0
 11
35.0
 21
-35.0
 31
8.5
  0
LINE
  5
183
330
17
100
AcDbEntity
  8
0
100
AcDbLine
 10
35.0
 20
-45.0
 30
0.0
 11
25.0
 21
-35.0
 31
8.5
  0
LINE
  5
184
330
17
100
AcDbEntity
  8
0
100
AcDbLine
 10
45.0
 20
-5.0
 30
0.0
 11
55.0
 21
5.0
 31
8.5
  0
LINE
  5
185
330
17
100
AcDbEntity
  8
0
100
AcDbLine
 10
55.0
 20
-5.0
 30
0.0
 11
45.0
 21
5.0
 31
8.5
  0
LINE
  5
186
330
17
100
AcDbEntity
  8
0
100
AcDbLine
 10
-55.0
 20
-45.0
 30
8.5
 11
-45.0
 21
-35.0
 31
17.0
  0
LINE
  5
187
330
17
100
AcDbEntity
  8
0
100
AcDbLine
 10
-45.0
 20
-45.0
 30
8.5
 11
-55.0
 21
-35.0
 31
17.0
  0
LINE
  5
188
330
17
100
AcDbEntity
  8
0
100
AcDbLine
 10
-35.0
 20
-5.0
 30
8.5
 11
-25.0
 21
5.0
 31
17.0
  0
LINE
  5
189
330
17
100
AcDbEntity
  8
0
100
AcDbLine
 10
-25.0
 20
-5.0
 30
8.5
 11
-35.0
 21
5.0
 31
17.0
  0
LINE
  5
18A
330
17
100
AcDbEntity
  8
0
100
AcDbLine
 10
-15.0
 20
-45.0
 30
8.5
 11
-5.0
 21
-35.0
 31
17.0
  0
LINE
  5
18B
330
17
100
AcDbEntity
  8
0
100
AcDbLine
 10
-5.0
 20
-45.0
 30
8.5
 11
-15.0
 21
-35.0
 31
17.0
  0
LINE
  5
18C
330
17
100
AcDbEntity
  8
0
100
AcDbLine
 10
5.0
 20
-5.0
 30
8.5
 11
15.0
 21
5.0
 31
17.0
  0
LINE
  5
18D
330
17
100
AcDbEntity
  8
0
100
AcDbLine
 10
15.0
 20
-5.0
 30
8.5
 11
5.0
 21
5.0
 31
17.0
  0
LINE
  5
18E
330
17
100
AcDbEntity
  8
0
100
AcDbLine
 10
25.0
 20
-45.0
 30
8.5
 11
35.0
 21
-35.0
 31
17.0
  0
LINE
  5
18F
330
17
100
AcDbEntity
  8
0
100
AcDbLine
 10
35.0
 20
-45.0
 30
8.5
 11
25.0
 21
-35.0
 31
17.0
  0
LINE
  5
190
330
17
100
AcDbEntity
  8
0
100
AcDbLine
 10
45.0
 20
-5.0
 30
8.5
 11
55.0
 21
5.0
 31
17.0
  0
LINE
  5
191
330
17
100
AcDbEntity
  8
0
100
AcDbLine
 10
55.0
 20
-5.0
 30
8.5
 11
45.0
 21
5.0
 31
17.0
  0
LINE
  5
192
330
17
100
AcDbEntity
  8
0
100
AcDbLine
 10
-55.0
 20
-45.0
 30
17.0
 11
-45.0
 21
-35.0
 31
26.3
  0
LINE
  5
193
330
17
100
AcDbEntity
  8
0
100
AcDbLine
 10
-45.0
 20
-45.0
 30
17.0
 11
-55.0
 21
-35.0
 31
26.3
  0
LINE
  5
194
330
17
100
AcDbEntity
  8
0
100
AcDbLine
 10
-35.0
 20
-5.0
 30
17.0
 11
-25.0
 21
5.0
 31
26.3
  0
LINE
  5
195
330
17
100
AcDbEntity
  8
0
100
AcDbLine
 10
-25.0
 20
-5.0
 30
17.0
 11
-35.0
 21
5.0
 31
26.3
  0
LINE
  5
196
330
17
100
AcDbEntity
  8
0
100
AcDbLine
 10
-15.0
 20
-45.0
 30
17.0
 11
-5.0
 21
-35.0
 31
26.3
  0
LINE
  5
197
330
17
100
AcDbEntity
  8
0
100
AcDbLine
 10
-5.0
 20
-45.0
 30
17.0
 11
-15.0
 21
-35.0
 31
26.3
  0
LINE
  5
198
330
17
100
AcDbEntity
  8
0
100
AcDbLine
 10
5.0
 20
-5.0
 30
17.0
 11
15.0
 21
5.0
 31
26.3
  0
LINE
  5
199
330
17
100
AcDbEntity
  8
0
100
AcDbLine
 10
15.0
 20
-5.0
 30
17.0
 11
5.0
 21
5.0
 31
26.3
  0
LINE
  5
19A
330
17
100
AcDbEntity
  8
0
100
AcDbLine
 10
25.0
 20
-45.0
 30
17.0
 11
35.0
 21
-35.0
 31
26.3
  0
LINE
  5
19B
330
17
100
AcDbEntity
  8
0
100
AcDbLine
 10
35.0
 20
-45.0
 30
17.0
 11
25.0
 21
-35.0
 31
26.3
  0
LINE
  5
19C
330
17
100
AcDbEntity
  8
0
100
AcDbLine
 10
45.0
 20
-5.0
 30
17.0
 11
55.0
 21
5.0
 31
26.3
  0
LINE
  5
19D
330
17
100
AcDbEntity
  8
0
100
AcDbLine
 10
55.0
 20
-5.0
 30
17.0
 11
45.0
 21
5.0
 31
26.3
  0
LINE
  5
19E
330
17
100
AcDbEntity
  8
0
100
AcDbLine
 10
-55.0
 20
-45.0
 30
26.3
 11
-45.0
 21
-35.0
 31
35.8
  0
LINE
  5
19F
330
17
100
AcDbEntity
  8
0
100
AcDbLine
 10
-45.0
 20
-45.0
 30
26.3
 11
-55.0
 21
-35.0
 31
35.8
  0
LINE
  5
1A0
330
17
100
AcDbEntity
  8
0
100
AcDbLine
 10
-35.0
 20
-5.0
 30
26.3
 11
-25.0
 21
5.0
 31
35.8
  0
LINE
  5
1A1
330
17
100
AcDbEntity
  8
0
100
AcDbLine
 10
-25.0
 20
-5.0
 30
26.3
 11
-35.0
 21
5.0
 31
35.8
  0
LINE
  5
1A2
330
17
100
AcDbEntity
  8
0
100
AcDbLine
 10
-15.0
 20
-45.0
 30
26.3
 11
-5.0
 21
-35.0
 31
35.8
  0
LINE
  5
1A3
330
17
100
AcDbEntity
  8
0
100
AcDbLine
 10
-5.0
 20
-45.0
 30
26.3
 11
-15.0
 21
-35.0
 31
35.8
  0
LINE
  5
1A4
330
17
100
AcDbEntity
  8
0
100
AcDbLine
 10
5.0
 20
-5.0
 30
26.3
 11
15.0
 21
5.0
 31
35.8
  0
LINE
  5
1A5
330
17
100
AcDbEntity
  8
0
100
AcDbLine
 10
15.0
 20
-5.0
 30
26.3
 11
5.0
 21
5.0
 31
35.8
  0
LINE
  5
1A6
330
17
100
AcDbEntity
  8
0
100
AcDbLine
 10
25.0
 20
-45.0
 30
26.3
 11
35.0
 21
-35.0
 31
35.8
  0
LINE
  5
1A7
330
17
100
AcDbEntity
  8
0
100
AcDbLine
 10
35.0
 20
-45.0
 30
26.3
 11
25.0
 21
-35.0
 31
35.8
  0
LINE
  5
1A8
330
17
100
AcDbEntity
  8
0
100
AcDbLine
 10
45.0
 20
-5.0
 30
26.3
 11
55.0
 21
5.0
 31
35.8
  0
LINE
  5
1A9
330
17
100
AcDbEntity
  8
0
100
AcDbLine
 10
55.0
 20
-5.0
 30
26.3
 11
45.0
 21
5.0
 31
35.8
  0
LINE
  5
1AA
330
17
100
AcDbEntity
  8
0
100
AcDbLine
 10
-55.0
 20
-45.0
 30
35.8
 11
-45.0
 21
-35.0
 31
45.0
  0
LINE
  5
1AB
330
17
100
AcDbEntity
  8
0
100
AcDbLine
 10
-45.0
 20
-45.0
 30
35.8
 11
-55.0
 21
-35.0
 31
45.0
  0
LINE
  5
1AC
330
17
100
AcDbEntity
  8
0
100
AcDbLine
 10
-35.0
 20
-5.0
 30
35.8
 11
-25.0
 21
5.0
 31
45.0
  0
LINE
  5
1AD
330
17
100
AcDbEntity
  8
0
100
AcDbLine
 10
-25.0
 20
-5.0
 30
35.8
 11
-35.0
 21
5.0
 31
45.0
  0
LINE
  5
1AE
330
17
100
AcDbEntity
  8
0
100
AcDbLine
 10
-15.0
 20
-45.0
 30
35.8
 11
-5.0
 21
-35.0
 31
45.0
  0
LINE
  5
1AF
330
17
100
AcDbEntity
  8
0
100
AcDbLine
 10
-5.0
 20
-45.0
 30
35.8
 11
-15.0
 21
-35.0
 31
45.0
  0
LINE
  5
1B0
330
17
100
AcDbEntity
  8
0
100
AcDbLine
 10
5.0
 20
-5.0
 30
35.8
 11
15.0
 21
5.0
 31
45.0
  0
LINE
  5
1B1
330
17
100
AcDbEntity
  8
0
100
AcDbLine
 10
15.0
 20
-5.0
 30
35.8
 11
5.0
 21
5.0
 31
45.0
  0
LINE
  5
1B2
330
17
100
AcDbEntity
  8
0
100
AcDbLine
 10
25.0
 20
-45.0
 30
35.8
 11
35.0
 21
-35.0
 31
45.0
  0
LINE
  5
1B3
330
17
100
AcDbEntity
  8
0
100
AcDbLine
 10
35.0
 20
-45.0
 30
35.8
 11
25.0
 21
-35.0
 31
45.0
  0
LINE
  5
1B4
330
17
100
AcDbEntity
  8
0
100
AcDbLine
 10
45.0
 20
-5.0
 30
35.8
 11
55.0
 21
5.0
 31
45.0
  0
LINE
  5
1B5
330
17
100
AcDbEntity
  8
0
100
AcDbLine
 10
55.0
 20
-5.0
 30
35.8
 11
45.0
 21
5.0
 31
45.0
  0
LINE
  5
1B6
330
17
100
AcDbEntity
  8
0
100
AcDbLine
 10
-55.0
 20
-45.0
 30
45.0
 11
-45.0
 21
-35.0
 31
54.5
  0
LINE
  5
1B7
330
17
100
AcDbEntity
  8
0
100
AcDbLine
 10
-45.0
 20
-45.0
 30
45.0
 11
-55.0
 21
-35.0
 31
54.5
  0
LINE
  5
1B8
330
17
100
AcDbEntity
  8
0
100
AcDbLine
 10
-35.0
 20
-5.0
 30
45.0
 11
-25.0
 21
5.0
 31
54.5
  0
LINE
  5
1B9
330
17
100
AcDbEntity
  8
0
100
AcDbLine
 10
-25.0
 20
-5.0
 30
45.0
 11
-35.0
 21
5.0
 31
54.5
  0
LINE
  5
1BA
330
17
100
AcDbEntity
  8
0
100
AcDbLine
 10
-15.0
 20
-45.0
 30
45.0
 11
-5.0
 21
-35.0
 31
54.5
  0
LINE
  5
1BB
330
17
100
AcDbEntity
  8
0
100
AcDbLine
 10
-5.0
 20
-45.0
 30
45.0
 11
-15.0
 21
-35.0
 31
54.5
  0
LINE
  5
1BC
330
17
100
AcDbEntity
  8
0
100
AcDbLine
 10
5.0
 20
-5.0
 30
45.0
 11
15.0
 21
5.0
 31
54.5
  0
LINE
  5
1BD
330
17
100
AcDbEntity
  8
0
100
AcDbLine
 10
15.0
 20
-5.0
 30
45.0
 11
5.0
 21
5.0
 31
54.5
  0
LINE
  5
1BE
330
17
100
AcDbEntity
  8
0
100
AcDbLine
 10
25.0
 20
-45.0
 30
45.0
 11
35.0
 21
-35.0
 31
54.5
  0
LINE
  5
1BF
330
17
100
AcDbEntity
  8
0
100
AcDbLine
 10
35.0
 20
-45.0
 30
45.0
 11
25.0
 21
-35.0
 31
54.5
  0
LINE
  5
1C0
330
17
100
AcDbEntity
  8
0
100
AcDbLine
 10
45.0
 20
-5.0
 30
45.0
 11
55.0
 21
5.0
 31
54.5
  0
LINE
  5
1C1
330
17
100
AcDbEntity
  8
0
100
AcDbLine
 10
55.0
 20
-5.0
 30
45.0
 11
45.0
 21
5.0
 31
54.5
  0
LINE
  5
1C2
330
17
100
AcDbEntity
  8
0
100
AcDbLine
 10
-10.0
 20
-15.0
 30
14.0
 11
10.0
 21
-15.0
 31
14.0
  0
LINE
  5
1C3
330
17
100
AcDbEntity
  8
0
100
AcDbLine
 10
10.0
 20
-15.0
 30
14.0
 11
10.0
 21
15.0
 31
14.0
  0
LINE
  5
1C4
330
17
100
AcDbEntity
  8
0
100
AcDbLine
 10
10.0
 20
15.0
 30
14.0
 11
-10.0
 21
15.0
 31
14.0
  0
LINE
  5
1C5
330
17
100
AcDbEntity
  8
0
100
AcDbLine
 10
-10.0
 20
15.0
 30
14.0
 11
-10.0
 21
-15.0
 31
14.0
  0
LINE
  5
1C6
330
17
100
AcDbEntity
  8
0
100
AcDbLine
 10
-10.0
 20
-15.0
 30
14.0
 11
-10.0
 21
15.0
 31
14.0
  0
LINE
  5
1C7
330
17
100
AcDbEntity
  8
0
100
AcDbLine
 10
-10.0
 20
-15.0
 30
14.0
 11
-10.0
 21
15.0
 31
14.0
  0
LINE
  5
1C8
330
17
100
AcDbEntity
  8
0
100
AcDbLine
 10
-10.0
 20
-15.0
 30
14.0
 11
-10.0
 21
15.0
 31
14.0
  0
LINE
  5
1C9
330
17
100
AcDbEntity
  8
0
100
AcDbLine
 10
-3.333333333333333
 20
-15.0
 30
14.0
 11
-3.333333333333333
 21
15.0
 31
14.0
  0
LINE
  5
1CA
330
17
100
AcDbEntity
  8
0
100
AcDbLine
 10
-3.333333333333333
 20
-15.0
 30
14.0
 11
-3.333333333333333
 21
15.0
 31
14.0
  0
LINE
  5
1CB
330
17
100
AcDbEntity
  8
0
100
AcDbLine
 10
-3.333333333333333
 20
-15.0
 30
14.0
 11
-3.333333333333333
 21
15.0
 31
14.0
  0
LINE
  5
1CC
330
17
100
AcDbEntity
  8
0
100
AcDbLine
 10
3.333333333333334
 20
-15.0
 30
14.0
 11
3.333333333333334
 21
15.0
 31
14.0
  0
LINE
  5
1CD
330
17
100
AcDbEntity
  8
0
100
AcDbLine
 10
3.333333333333334
 20
-15.0
 30
14.0
 11
3.333333333333334
 21
15.0
 31
14.0
  0
LINE
  5
1CE
330
17
100
AcDbEntity
  8
0
100
AcDbLine
 10
3.333333333333334
 20
-15.0
 30
14.0
 11
3.333333333333334
 21
15.0
 31
14.0
  0
LINE
  5
1CF
330
17
100
AcDbEntity
  8
0
100
AcDbLine
 10
10.0
 20
-15.0
 30
14.0
 11
10.0
 21
15.0
 31
14.0
  0
LINE
  5
1D0
330
17
100
AcDbEntity
  8
0
100
AcDbLine
 10
10.0
 20
-15.0
 30
14.0
 11
10.0
 21
15.0
 31
14.0
  0
LINE
  5
1D1
330
17
100
AcDbEntity
  8
0
100
AcDbLine
 10
10.0
 20
-15.0
 30
14.0
 11
10.0
 21
15.0
 31
14.0
  0
LINE
  5
1D2
330
17
100
AcDbEntity
  8
0
100
AcDbLine
 10
-10.0
 20
-15.0
 30
14.0
 11
10.0
 21
-15.0
 31
14.0
  0
LINE
  5
1D3
330
17
100
AcDbEntity
  8
0
100
AcDbLine
 10
-10.0
 20
-15.0
 30
14.0
 11
10.0
 21
-15.0
 31
14.0
  0
LINE
  5
1D4
330
17
100
AcDbEntity
  8
0
100
AcDbLine
 10
-10.0
 20
-15.0
 30
14.0
 11
10.0
 21
-15.0
 31
14.0
  0
LINE
  5
1D5
330
17
100
AcDbEntity
  8
0
100
AcDbLine
 10
-10.0
 20
-15.0
 30
14.0
 11
10.0
 21
-15.0
 31
14.0
  0
LINE
  5
1D6
330
17
100
AcDbEntity
  8
0
100
AcDbLine
 10
-10.0
 20
0.0
 30
14.0
 11
10.0
 21
0.0
 31
14.0
  0
LINE
  5
1D7
330
17
100
AcDbEntity
  8
0
100
AcDbLine
 10
-10.0
 20
0.0
 30
14.0
 11
10.0
 21
0.0
 31
14.0
  0
LINE
  5
1D8
330
17
100
AcDbEntity
  8
0
100
AcDbLine
 10
-10.0
 20
0.0
 30
14.0
 11
10.0
 21
0.0
 31
14.0
  0
LINE
  5
1D9
330
17
100
AcDbEntity
  8
0
100
AcDbLine
 10
-10.0
 20
0.0
 30
14.0
 11
10.0
 21
0.0
 31
14.0
  0
LINE
  5
1DA
330
17
100
AcDbEntity
  8
0
100
AcDbLine
 10
-10.0
 20
15.0
 30
14.0
 11
10.0
 21
15.0
 31
14.0
  0
LINE
  5
1DB
330
17
100
AcDbEntity
  8
0
100
AcDbLine
 10
-10.0
 20
15.0
 30
14.0
 11
10.0
 21
15.0
 31
14.0
  0
LINE
  5
1DC
330
17
100
AcDbEntity
  8
0
100
AcDbLine
 10
-10.0
 20
15.0
 30
14.0
 11
10.0
 21
15.0
 31
14.0
  0
LINE
  5
1DD
330
17
100
AcDbEntity
  8
0
100
AcDbLine
 10
-10.0
 20
15.0
 30
14.0
 11
10.0
 21
15.0
 31
14.0
  0
LINE
  5
1DE
330
17
100
AcDbEntity
  8
0
100
AcDbLine
 10
-10.0
 20
-15.0
 30
32.0
 11
10.0
 21
-15.0
 31
32.0
  0
LINE
  5
1DF
330
17
100
AcDbEntity
  8
0
100
AcDbLine
 10
10.0
 20
-15.0
 30
32.0
 11
10.0
 21
15.0
 31
32.0
  0
LINE
  5
1E0
330
17
100
AcDbEntity
  8
0
100
AcDbLine
 10
10.0
 20
15.0
 30
32.0
 11
-10.0
 21
15.0
 31
32.0
  0
LINE
  5
1E1
330
17
100
AcDbEntity
  8
0
100
AcDbLine
 10
-10.0
 20
15.0
 30
32.0
 11
-10.0
 21
-15.0
 31
32.0
  0
LINE
  5
1E2
330
17
100
AcDbEntity
  8
0
100
AcDbLine
 10
-10.0
 20
-15.0
 30
32.0
 11
-10.0
 21
15.0
 31
32.0
  0
LINE
  5
1E3
330
17
100
AcDbEntity
  8
0
100
AcDbLine
 10
-10.0
 20
-15.0
 30
32.0
 11
-10.0
 21
15.0
 31
32.0
  0
LINE
  5
1E4
330
17
100
AcDbEntity
  8
0
100
AcDbLine
 10
-10.0
 20
-15.0
 30
32.0
 11
-10.0
 21
15.0
 31
32.0
  0
LINE
  5
1E5
330
17
100
AcDbEntity
  8
0
100
AcDbLine
 10
-3.333333333333333
 20
-15.0
 30
32.0
 11
-3.333333333333333
 21
15.0
 31
32.0
  0
LINE
  5
1E6
330
17
100
AcDbEntity
  8
0
100
AcDbLine
 10
-3.333333333333333
 20
-15.0
 30
32.0
 11
-3.333333333333333
 21
15.0
 31
32.0
  0
LINE
  5
1E7
330
17
100
AcDbEntity
  8
0
100
AcDbLine
 10
-3.333333333333333
 20
-15.0
 30
32.0
 11
-3.333333333333333
 21
15.0
 31
32.0
  0
LINE
  5
1E8
330
17
100
AcDbEntity
  8
0
100
AcDbLine
 10
3.333333333333334
 20
-15.0
 30
32.0
 11
3.333333333333334
 21
15.0
 31
32.0
  0
LINE
  5
1E9
330
17
100
AcDbEntity
  8
0
100
AcDbLine
 10
3.333333333333334
 20
-15.0
 30
32.0
 11
3.333333333333334
 21
15.0
 31
32.0
  0
LINE
  5
1EA
330
17
100
AcDbEntity
  8
0
100
AcDbLine
 10
3.333333333333334
 20
-15.0
 30
32.0
 11
3.333333333333334
 21
15.0
 31
32.0
  0
LINE
  5
1EB
330
17
100
AcDbEntity
  8
0
100
AcDbLine
 10
10.0
 20
-15.0
 30
32.0
 11
10.0
 21
15.0
 31
32.0
  0
LINE
  5
1EC
330
17
100
AcDbEntity
  8
0
100
AcDbLine
 10
10.0
 20
-15.0
 30
32.0
 11
10.0
 21
15.0
 31
32.0
  0
LINE
  5
1ED
330
17
100
AcDbEntity
  8
0
100
AcDbLine
 10
10.0
 20
-15.0
 30
32.0
 11
10.0
 21
15.0
 31
32.0
  0
LINE
  5
1EE
330
17
100
AcDbEntity
  8
0
100
AcDbLine
 10
-10.0
 20
-15.0
 30
32.0
 11
10.0
 21
-15.0
 31
32.0
  0
LINE
  5
1EF
330
17
100
AcDbEntity
  8
0
100
AcDbLine
 10
-10.0
 20
-15.0
 30
32.0
 11
10.0
 21
-15.0
 31
32.0
  0
LINE
  5
1F0
330
17
100
AcDbEntity
  8
0
100
AcDbLine
 10
-10.0
 20
-15.0
 30
32.0
 11
10.0
 21
-15.0
 31
32.0
  0
LINE
  5
1F1
330
17
100
AcDbEntity
  8
0
100
AcDbLine
 10
-10.0
 20
-15.0
 30
32.0
 11
10.0
 21
-15.0
 31
32.0
  0
LINE
  5
1F2
330
17
100
AcDbEntity
  8
0
100
AcDbLine
 10
-10.0
 20
0.0
 30
32.0
 11
10.0
 21
0.0
 31
32.0
  0
LINE
  5
1F3
330
17
100
AcDbEntity
  8
0
100
AcDbLine
 10
-10.0
 20
0.0
 30
32.0
 11
10.0
 21
0.0
 31
32.0
  0
LINE
  5
1F4
330
17
100
AcDbEntity
  8
0
100
AcDbLine
 10
-10.0
 20
0.0
 30
32.0
 11
10.0
 21
0.0
 31
32.0
  0
LINE
  5
1F5
330
17
100
AcDbEntity
  8
0
100
AcDbLine
 10
-10.0
 20
0.0
 30
32.0
 11
10.0
 21
0.0
 31
32.0
  0
LINE
  5
1F6
330
17
100
AcDbEntity
  8
0
100
AcDbLine
 10
-10.0
 20
15.0
 30
32.0
 11
10.0
 21
15.0
 31
32.0
  0
LINE
  5
1F7
330
17
100
AcDbEntity
  8
0
100
AcDbLine
 10
-10.0
 20
15.0
 30
32.0
 11
10.0
 21
15.0
 31
32.0
  0
LINE
  5
1F8
330
17
100
AcDbEntity
  8
0
100
AcDbLine
 10
-10.0
 20
15.0
 30
32.0
 11
10.0
 21
15.0
 31
32.0
  0
LINE
  5
1F9
330
17
100
AcDbEntity
  8
0
100
AcDbLine
 10
-10.0
 20
15.0
 30
32.0
 11
10.0
 21
15.0
 31
32.0
  0
LINE
  5
1FA
330
17
100
AcDbEntity
  8
0
100
AcDbLine
 10
-10.0
 20
-15.0
 30
50.0
 11
10.0
 21
-15.0
 31
50.0
  0
LINE
  5
1FB
330
17
100
AcDbEntity
  8
0
100
AcDbLine
 10
10.0
 20
-15.0
 30
50.0
 11
10.0
 21
15.0
 31
50.0
  0
LINE
  5
1FC
330
17
100
AcDbEntity
  8
0
100
AcDbLine
 10
10.0
 20
15.0
 30
50.0
 11
-10.0
 21
15.0
 31
50.0
  0
LINE
  5
1FD
330
17
100
AcDbEntity
  8
0
100
AcDbLine
 10
-10.0
 20
15.0
 30
50.0
 11
-10.0
 21
-15.0
 31
50.0
  0
LINE
  5
1FE
330
17
100
AcDbEntity
  8
0
100
AcDbLine
 10
-10.0
 20
-15.0
 30
50.0
 11
-10.0
 21
15.0
 31
50.0
  0
LINE
  5
1FF
330
17
100
AcDbEntity
  8
0
100
AcDbLine
 10
-10.0
 20
-15.0
 30
50.0
 11
-10.0
 21
15.0
 31
50.0
  0
LINE
  5
200
330
17
100
AcDbEntity
  8
0
100
AcDbLine
 10
-10.0
 20
-15.0
 30
50.0
 11
-10.0
 21
15.0
 31
50.0
  0
LINE
  5
201
330
17
100
AcDbEntity
  8
0
100
AcDbLine
 10
-3.333333333333333
 20
-15.0
 30
50.0
 11
-3.333333333333333
 21
15.0
 31
50.0
  0
LINE
  5
202
330
17
100
AcDbEntity
  8
0
100
AcDbLine
 10
-3.333333333333333
 20
-15.0
 30
50.0
 11
-3.333333333333333
 21
15.0
 31
50.0
  0
LINE
  5
203
330
17
100
AcDbEntity
  8
0
100
AcDbLine
 10
-3.333333333333333
 20
-15.0
 30
50.0
 11
-3.333333333333333
 21
15.0
 31
50.0
  0
LINE
  5
204
330
17
100
AcDbEntity
  8
0
100
AcDbLine
 10
3.333333333333334
 20
-15.0
 30
50.0
 11
3.333333333333334
 21
15.0
 31
50.0
  0
LINE
  5
205
330
17
100
AcDbEntity
  8
0
100
AcDbLine
 10
3.333333333333334
 20
-15.0
 30
50.0
 11
3.333333333333334
 21
15.0
 31
50.0
  0
LINE
  5
206
330
17
100
AcDbEntity
  8
0
100
AcDbLine
 10
3.333333333333334
 20
-15.0
 30
50.0
 11
3.333333333333334
 21
15.0
 31
50.0
  0
LINE
  5
207
330
17
100
AcDbEntity
  8
0
100
AcDbLine
 10
10.0
 20
-15.0
 30
50.0
 11
10.0
 21
15.0
 31
50.0
  0
LINE
  5
208
330
17
100
AcDbEntity
  8
0
100
AcDbLine
 10
10.0
 20
-15.0
 30
50.0
 11
10.0
 21
15.0
 31
50.0
  0
LINE
  5
209
330
17
100
AcDbEntity
  8
0
100
AcDbLine
 10
10.0
 20
-15.0
 30
50.0
 11
10.0
 21
15.0
 31
50.0
  0
LINE
  5
20A
330
17
100
AcDbEntity
  8
0
100
AcDbLine
 10
-10.0
 20
-15.0
 30
50.0
 11
10.0
 21
-15.0
 31
50.0
  0
LINE
  5
20B
330
17
100
AcDbEntity
  8
0
100
AcDbLine
 10
-10.0
 20
-15.0
 30
50.0
 11
10.0
 21
-15.0
 31
50.0
  0
LINE
  5
20C
330
17
100
AcDbEntity
  8
0
100
AcDbLine
 10
-10.0
 20
-15.0
 30
50.0
 11
10.0
 21
-15.0
 31
50.0
  0
LINE
  5
20D
330
17
100
AcDbEntity
  8
0
100
AcDbLine
 10
-10.0
 20
-15.0
 30
50.0
 11
10.0
 21
-15.0
 31
50.0
  0
LINE
  5
20E
330
17
100
AcDbEntity
  8
0
100
AcDbLine
 10
-10.0
 20
0.0
 30
50.0
 11
10.0
 21
0.0
 31
50.0
  0
LINE
  5
20F
330
17
100
AcDbEntity
  8
0
100
AcDbLine
 10
-10.0
 20
0.0
 30
50.0
 11
10.0
 21
0.0
 31
50.0
  0
LINE
  5
210
330
17
100
AcDbEntity
  8
0
100
AcDbLine
 10
-10.0
 20
0.0
 30
50.0
 11
10.0
 21
0.0
 31
50.0
  0
LINE
  5
211
330
17
100
AcDbEntity
  8
0
100
AcDbLine
 10
-10.0
 20
0.0
 30
50.0
 11
10.0
 21
0.0
 31
50.0
  0
LINE
  5
212
330
17
100
AcDbEntity
  8
0
100
AcDbLine
 10
-10.0
 20
15.0
 30
50.0
 11
10.0
 21
15.0
 31
50.0
  0
LINE
  5
213
330
17
100
AcDbEntity
  8
0
100
AcDbLine
 10
-10.0
 20
15.0
 30
50.0
 11
10.0
 21
15.0
 31
50.0
  0
LINE
  5
214
330
17
100
AcDbEntity
  8
0
100
AcDbLine
 10
-10.0
 20
15.0
 30
50.0
 11
10.0
 21
15.0
 31
50.0
  0
LINE
  5
215
330
17
100
AcDbEntity
  8
0
100
AcDbLine
 10
-10.0
 20
15.0
 30
50.0
 11
10.0
 21
15.0
 31
50.0
  0
ENDSEC
  0
SECTION
  2
OBJECTS
  0
DICTIONARY
  5
A
330
0
100
AcDbDictionary
281
1
  3
ACAD_COLOR
350
B
  3
ACAD_GROUP
350
C
  3
ACAD_LAYOUT
350
D
  3
ACAD_MATERIAL
350
E
  3
ACAD_MLEADERSTYLE
350
F
  3
ACAD_MLINESTYLE
350
10
  3
ACAD_PLOTSETTINGS
350
11
  3
ACAD_PLOTSTYLENAME
350
12
  3
ACAD_SCALELIST
350
14
  3
ACAD_TABLESTYLE
350
15
  3
ACAD_VISUALSTYLE
350
16
  3
EZDXF_META
350
2D
  0
DICTIONARY
  5
B
330
A
100
AcDbDictionary
281
1
  0
DICTIONARY
  5
C
330
A
100
AcDbDictionary
281
1
  0
DICTIONARY
  5
D
330
A
100
AcDbDictionary
281
1
  3
Model
350
1A
  3
Layout1
350
1E
  0
DICTIONARY
  5
E
330
A
100
AcDbDictionary
281
1
  3
ByBlock
350
1F
  3
ByLayer
350
20
  3
Global
350
21
  0
DICTIONARY
  5
F
330
A
100
AcDbDictionary
281
1
  3
Standard
350
2C
  0
DICTIONARY
  5
10
330
A
100
AcDbDictionary
281
1
  3
Standard
350
22
  0
DICTIONARY
  5
11
330
A
100
AcDbDictionary
281
1
  0
ACDBDICTIONARYWDFLT
  5
12
330
A
100
AcDbDictionary
281
1
  3
Normal
350
13
100
AcDbDictionaryWithDefault
340
13
  0
ACDBPLACEHOLDER
  5
13
330
12
  0
DICTIONARY
  5
14
330
A
100
AcDbDictionary
281
1
  0
DICTIONARY
  5
15
330
A
100
AcDbDictionary
281
1
  0
DICTIONARY
  5
16
330
A
100
AcDbDictionary
281
1
  0
LAYOUT
  5
1A
330
D
100
AcDbPlotSettings
  1

  4
A3
  6

 40
7.5
 41
20.0
 42
7.5
 43
20.0
 44
420.0
 45
297.0
 46
0.0
 47
0.0
 48
0.0
 49
0.0
140
0.0
141
0.0
142
1.0
143
1.0
 70
1024
 72
1
 73
0
 74
5
  7

 75
16
 76
0
 77
2
 78
300
147
1.0
148
0.0
149
0.0
100
AcDbLayout
  1
Model
 70
1
 71
0
 10
0.0
 20
0.0
 11
420.0
 21
297.0
 12
0.0
 22
0.0
 32
0.0
 14
1e+20
 24
1e+20
 34
1e+20
 15
-1e+20
 25
-1e+20
 35
-1e+20
146
0.0
 13
0.0
 23
0.0
 33
0.0
 16
1.0
 26
0.0
 36
0.0
 17
0.0
 27
1.0
 37
0.0
 76
1
330
17
  0
LAYOUT
  5
1E
330
D
100
AcDbPlotSettings
  1

  4
A3
  6

 40
7.5
 41
20.0
 42
7.5
 43
20.0
 44
420.0
 45
297.0
 46
0.0
 47
0.0
 48
0.0
 49
0.0
140
0.0
141
0.0
142
1.0
143
1.0
 70
0
 72
1
 73
0
 74
5
  7

 75
16
 76
0
 77
2
 78
300
147
1.0
148
0.0
149
0.0
100
AcDbLayout
  1
Layout1
 70
1
 71
1
 10
0.0
 20
0.0
 11
420.0
 21
297.0
 12
0.0
 22
0.0
 32
0.0
 14
1e+20
 24
1e+20
 34
1e+20
 15
-1e+20
 25
-1e+20
 35
-1e+20
146
0.0
 13
0.0
 23
0.0
 33
0.0
 16
1.0
 26
0.0
 36
0.0
 17
0.0
 27
1.0
 37
0.0
 76
1
330
1B
  0
MATERIAL
  5
1F
102
{ACAD_REACTORS
330
E
102
}
330
E
100
AcDbMaterial
  1
ByBlock
  2

 70
0
 40
1.0
 71
1
 41
1.0
 91
-1023410177
 42
1.0
 72
1
  3

 73
1
 74
1
 75
1
 44
0.5
 73
0
 45
1.0
 46
1.0
 77
1
  4

 78
1
 79
1
170
1
 48
1.0
171
1
  6

172
1
173
1
174
1
140
1.0
141
1.0
175
1
  7

176
1
177
1
178
1
143
1.0
179
1
  8

270
1
271
1
272
1
145
1.0
146
1.0
273
1
  9

274
1
275
1
276
1
 42
1.0
 72
1
  3

 73
1
 74
1
 75
1
 94
63
  0
MATERIAL
  5
20
102
{ACAD_REACTORS
330
E
102
}
330
E
100
AcDbMaterial
  1
ByLayer
  2

 70
0
 40
1.0
 71
1
 41
1.0
 91
-1023410177
 42
1.0
 72
1
  3

 73
1
 74
1
 75
1
 44
0.5
 73
0
 45
1.0
 46
1.0
 77
1
  4

 78
1
 79
1
170
1
 48
1.0
171
1
  6

172
1
173
1
174
1
140
1.0
141
1.0
175
1
  7

176
1
177
1
178
1
143
1.0
179
1
  8

270
1
271
1
272
1
145
1.0
146
1.0
273
1
  9

274
1
275
1
276
1
 42
1.0
 72
1
  3

 73
1
 74
1
 75
1
 94
63
  0
MATERIAL
  5
21
102
{ACAD_REACTORS
330
E
102
}
330
E
100
AcDbMaterial
  1
Global
  2

 70
0
 40
1.0
 71
1
 41
1.0
 91
-1023410177
 42
1.0
 72
1
  3

 73
1
 74
1
 75
1
 44
0.5
 73
0
 45
1.0
 46
1.0
 77
1
  4

 78
1
 79
1
170
1
 48
1.0
171
1
  6

172
1
173
1
174
1
140
1.0
141
1.0
175
1
  7

176
1
177
1
178
1
143
1.0
179
1
  8

270
1
271
1
272
1
145
1.0
146
1.0
273
1
  9

274
1
275
1
276
1
 42
1.0
 72
1
  3

 73
1
 74
1
 75
1
 94
63
  0
MLINESTYLE
  5
22
102
{ACAD_REACTORS
330
10
102
}
330
10
100
AcDbMlineStyle
  2
Standard
 70
0
  3

 62
256
 51
90.0
 52
90.0
 71
2
 49
0.5
 62
256
  6
BYLAYER
 49
-0.5
 62
256
  6
BYLAYER
  0
MLEADERSTYLE
  5
2C
102
{ACAD_REACTORS
330
F
102
}
330
F
100
AcDbMLeaderStyle
179
2
170
2
171
1
172
0
 90
2
 40
0.0
 41
0.0
173
1
 91
-1056964608
 92
-2
290
1
 42
2.0
291
1
 43
8.0
  3
Standard
 44
4.0
300

342
29
174
1
175
1
176
0
178
1
 93
-1056964608
 45
4.0
292
0
297
0
 46
4.0
 94
-1056964608
 47
1.0
 49
1.0
140
1.0
294
1
141
0.0
177
0
142
1.0
295
0
296
0
143
3.75
271
0
272
9
273
9
  0
DICTIONARY
  5
2D
330
A
100
AcDbDictionary
280
1
281
1
  3
CREATED_BY_EZDXF
350
2E
  3
WRITTEN_BY_EZDXF
350
218
  0
DICTIONARYVAR
  5
2E
330
2D
100
DictionaryVariables
280
0
  1
1.4.3 @ 2025-12-16T18:53:08.175340+00:00
  0
DICTIONARYVAR
  5
218
330
2D
100
DictionaryVariables
280
0
  1
1.4.3 @ 2025-12-16T18:53:08.180932+00:00
  0
ENDSEC
  0
EOF
