  0
SECTION
  2
HEADER
  9
$ACADVER
  1
AC1015
  9
$ACADMAINTVER
 70
6
  9
$DWGCODEPAGE
  3
ANSI_1252
  9
$INSBASE
 10
0.0
 20
0.0
 30
0.0
  9
$EXTMIN
 10
1e+20
 20
1e+20
 30
1e+20
  9
$EXTMAX
 10
-1e+20
 20
-1e+20
 30
-1e+20
  9
$LIMMIN
 10
0.0
 20
0.0
  9
$LIMMAX
 10
420.0
 20
297.0
  9
$ORTHOMODE
 70
0
  9
$REGENMODE
 70
1
  9
$FILLMODE
 70
1
  9
$QTEXTMODE
 70
0
  9
$MIRRTEXT
 70
1
  9
$LTSCALE
 40
1.0
  9
$ATTMODE
 70
1
  9
$TEXTSIZE
 40
2.5
  9
$TRACEWID
 40
1.0
  9
$TEXTSTYLE
  7
Standard
  9
$CLAYER
  8
0
  9
$CELTYPE
  6
ByLayer
  9
$CECOLOR
 62
256
  9
$CELTSCALE
 40
1.0
  9
$DISPSILH
 70
0
  9
$DIMSCALE
 40
1.0
  9
$DIMASZ
 40
2.5
  9
$DIMEXO
 40
0.625
  9
$DIMDLI
 40
3.75
  9
$DIMRND
 40
0.0
  9
$DIMDLE
 40
0.0
  9
$DIMEXE
 40
1.25
  9
$DIMTP
 40
0.0
  9
$DIMTM
 40
0.0
  9
$DIMTXT
 40
2.5
  9
$DIMCEN
 40
2.5
  9
$DIMTSZ
 40
0.0
  9
$DIMTOL
 70
0
  9
$DIMLIM
 70
0
  9
$DIMTIH
 70
0
  9
$DIMTOH
 70
0
  9
$DIMSE1
 70
0
  9
$DIMSE2
 70
0
  9
$DIMTAD
 70
1
  9
$DIMZIN
 70
8
  9
$DIMBLK
  1

  9
$DIMASO
 70
1
  9
$DIMSHO
 70
1
  9
$DIMPOST
  1

  9
$DIMAPOST
  1

  9
$DIMALT
 70
0
  9
$DIMALTD
 70
3
  9
$DIMALTF
 40
0.03937007874
  9
$DIMLFAC
 40
1.0
  9
$DIMTOFL
 70
1
  9
$DIMTVP
 40
0.0
  9
$DIMTIX
 70
0
  9
$DIMSOXD
 70
0
  9
$DIMSAH
 70
0
  9
$DIMBLK1
  1

  9
$DIMBLK2
  1

  9
$DIMSTYLE
  2
ISO-25
  9
$DIMCLRD
 70
0
  9
$DIMCLRE
 70
0
  9
$DIMCLRT
 70
0
  9
$DIMTFAC
 40
1.0
  9
$DIMGAP
 40
0.625
  9
$DIMJUST
 70
0
  9
$DIMSD1
 70
0
  9
$DIMSD2
 70
0
  9
$DIMTOLJ
 70
0
  9
$DIMTZIN
 70
8
  9
$DIMALTZ
 70
0
  9
$DIMALTTZ
 70
0
  9
$DIMUPT
 70
0
  9
$DIMDEC
 70
2
  9
$DIMTDEC
 70
2
  9
$DIMALTU
 70
2
  9
$DIMALTTD
 70
3
  9
$DIMTXSTY
  7
Standard
  9
$DIMAUNIT
 70
0
  9
$DIMADEC
 70
0
  9
$DIMALTRND
 40
0.0
  9
$DIMAZIN
 70
0
  9
$DIMDSEP
 70
44
  9
$DIMATFIT
 70
3
  9
$DIMFRAC
 70
0
  9
$DIMLDRBLK
  1

  9
$DIMLUNIT
 70
2
  9
$DIMLWD
 70
-2
  9
$DIMLWE
 70
-2
  9
$DIMTMOVE
 70
0
  9
$LUNITS
 70
2
  9
$LUPREC
 70
4
  9
$SKETCHINC
 40
1.0
  9
$FILLETRAD
 40
10.0
  9
$AUNITS
 70
0
  9
$AUPREC
 70
2
  9
$MENU
  1
.
  9
$ELEVATION
 40
0.0
  9
$PELEVATION
 40
0.0
  9
$THICKNESS
 40
0.0
  9
$LIMCHECK
 70
0
  9
$CHAMFERA
 40
0.0
  9
$CHAMFERB
 40
0.0
  9
$CHAMFERC
 40
0.0
  9
$CHAMFERD
 40
0.0
  9
$SKPOLY
 70
0
  9
$TDCREATE
 40
2461027.0160648148
  9
$TDUCREATE
 40
2458532.153996898
  9
$TDUPDATE
 40
2461027.0160648148
  9
$TDUUPDATE
 40
2458532.1544311
  9
$TDINDWG
 40
0.0
  9
$TDUSRTIMER
 40
0.0
  9
$USRTIMER
 70
1
  9
$ANGBASE
 50
0.0
  9
$ANGDIR
 70
0
  9
$PDMODE
 70
0
  9
$PDSIZE
 40
0.0
  9
$PLINEWID
 40
0.0
  9
$SPLFRAME
 70
0
  9
$SPLINETYPE
 70
6
  9
$SPLINESEGS
 70
8
  9
$HANDSEED
  5
111
  9
$SURFTAB1
 70
6
  9
$SURFTAB2
 70
6
  9
$SURFTYPE
 70
6
  9
$SURFU
 70
6
  9
$SURFV
 70
6
  9
$UCSBASE
  2

  9
$UCSNAME
  2

  9
$UCSORG
 10
0.0
 20
0.0
 30
0.0
  9
$UCSXDIR
 10
1.0
 20
0.0
 30
0.0
  9
$UCSYDIR
 10
0.0
 20
1.0
 30
0.0
  9
$UCSORTHOREF
  2

  9
$UCSORTHOVIEW
 70
0
  9
$UCSORGTOP
 10
0.0
 20
0.0
 30
0.0
  9
$UCSORGBOTTOM
 10
0.0
 20
0.0
 30
0.0
  9
$UCSORGLEFT
 10
0.0
 20
0.0
 30
0.0
  9
$UCSORGRIGHT
 10
0.0
 20
0.0
 30
0.0
  9
$UCSORGFRONT
 10
0.0
 20
0.0
 30
0.0
  9
$UCSORGBACK
 10
0.0
 20
0.0
 30
0.0
  9
$PUCSBASE
  2

  9
$PUCSNAME
  2

  9
$PUCSORG
 10
0.0
 20
0.0
 30
0.0
  9
$PUCSXDIR
 10
1.0
 20
0.0
 30
0.0
  9
$PUCSYDIR
 10
0.0
 20
1.0
 30
0.0
  9
$PUCSORTHOREF
  2

  9
$PUCSORTHOVIEW
 70
0
  9
$PUCSORGTOP
 10
0.0
 20
0.0
 30
0.0
  9
$PUCSORGBOTTOM
 10
0.0
 20
0.0
 30
0.0
  9
$PUCSORGLEFT
 10
0.0
 20
0.0
 30
0.0
  9
$PUCSORGRIGHT
 10
0.0
 20
0.0
 30
0.0
  9
$PUCSORGFRONT
 10
0.0
 20
0.0
 30
0.0
  9
$PUCSORGBACK
 10
0.0
 20
0.0
 30
0.0
  9
$USERI1
 70
0
  9
$USERI2
 70
0
  9
$USERI3
 70
0
  9
$USERI4
 70
0
  9
$USERI5
 70
0
  9
$USERR1
 40
0.0
  9
$USERR2
 40
0.0
  9
$USERR3
 40
0.0
  9
$USERR4
 40
0.0
  9
$USERR5
 40
0.0
  9
$WORLDVIEW
 70
1
  9
$SHADEDGE
 70
3
  9
$SHADEDIF
 70
70
  9
$TILEMODE
 70
1
  9
$MAXACTVP
 70
64
  9
$PINSBASE
 10
0.0
 20
0.0
 30
0.0
  9
$PLIMCHECK
 70
0
  9
$PEXTMIN
 10
1e+20
 20
1e+20
 30
1e+20
  9
$PEXTMAX
 10
-1e+20
 20
-1e+20
 30
-1e+20
  9
$PLIMMIN
 10
0.0
 20
0.0
  9
$PLIMMAX
 10
420.0
 20
297.0
  9
$UNITMODE
 70
0
  9
$VISRETAIN
 70
1
  9
$PLINEGEN
 70
0
  9
$PSLTSCALE
 70
1
  9
$TREEDEPTH
 70
3020
  9
$CMLSTYLE
  2
Standard
  9
$CMLJUST
 70
0
  9
$CMLSCALE
 40
20.0
  9
$PROXYGRAPHICS
 70
1
  9
$MEASUREMENT
 70
1
  9
$CELWEIGHT
370
-1
  9
$ENDCAPS
280
0
  9
$JOINSTYLE
280
0
  9
$LWDISPLAY
290
0
  9
$INSUNITS
 70
6
  9
$HYPERLINKBASE
  1

  9
$STYLESHEET
  1

  9
$XEDIT
290
1
  9
$CEPSNTYPE
380
0
  9
$PSTYLEMODE
290
1
  9
$FINGERPRINTGUID
  2
{E9720AFD-1129-4E77-9E2C-768CE28B1014}
  9
$VERSIONGUID
  2
{0C1BF5E7-840D-42F9-A765-5D5090294731}
  9
$EXTNAMES
290
1
  9
$PSVPSCALE
 40
0.0
  9
$OLESTARTUP
290
0
  0
ENDSEC
  0
SECTION
  2
CLASSES
  0
CLASS
  1
ACDBDICTIONARYWDFLT
  2
AcDbDictionaryWithDefault
  3
ObjectDBX Classes
 90
0
280
0
281
0
  0
CLASS
  1
SUN
  2
AcDbSun
  3
SCENEOE
 90
1153
280
0
281
0
  0
CLASS
  1
VISUALSTYLE
  2
AcDbVisualStyle
  3
ObjectDBX Classes
 90
4095
280
0
281
0
  0
CLASS
  1
MATERIAL
  2
AcDbMaterial
  3
ObjectDBX Classes
 90
1153
280
0
281
0
  0
CLASS
  1
SCALE
  2
AcDbScale
  3
ObjectDBX Classes
 90
1153
280
0
281
0
  0
CLASS
  1
TABLESTYLE
  2
AcDbTableStyle
  3
ObjectDBX Classes
 90
4095
280
0
281
0
  0
CLASS
  1
MLEADERSTYLE
  2
AcDbMLeaderStyle
  3
ACDB_MLEADERSTYLE_CLASS
 90
4095
280
0
281
0
  0
CLASS
  1
DICTIONARYVAR
  2
AcDbDictionaryVar
  3
ObjectDBX Classes
 90
0
280
0
281
0
  0
CLASS
  1
CELLSTYLEMAP
  2
AcDbCellStyleMap
  3
ObjectDBX Classes
 90
1152
280
0
281
0
  0
CLASS
  1
MENTALRAYRENDERSETTINGS
  2
AcDbMentalRayRenderSettings
  3
SCENEOE
 90
1024
280
0
281
0
  0
CLASS
  1
ACDBDETAILVIEWSTYLE
  2
AcDbDetailViewStyle
  3
ObjectDBX Classes
 90
1025
280
0
281
0
  0
CLASS
  1
ACDBSECTIONVIEWSTYLE
  2
AcDbSectionViewStyle
  3
ObjectDBX Classes
 90
1025
280
0
281
0
  0
CLASS
  1
RASTERVARIABLES
  2
AcDbRasterVariables
  3
ISM
 90
0
280
0
281
0
  0
CLASS
  1
ACDBPLACEHOLDER
  2
AcDbPlaceHolder
  3
ObjectDBX Classes
 90
0
280
0
281
0
  0
CLASS
  1
LAYOUT
  2
AcDbLayout
  3
ObjectDBX Classes
 90
0
280
0
281
0
  0
ENDSEC
  0
SECTION
  2
TABLES
  0
TABLE
  2
VPORT
  5
8
330
0
100
AcDbSymbolTable
 70
1
  0
VPORT
  5
23
330
8
100
AcDbSymbolTableRecord
100
AcDbViewportTableRecord
  2
*Active
 70
0
 10
0.0
 20
0.0
 11
1.0
 21
1.0
 12
0.0
 22
0.0
 13
0.0
 23
0.0
 14
0.5
 24
0.5
 15
0.5
 25
0.5
 16
0.0
 26
0.0
 36
1.0
 17
0.0
 27
0.0
 37
0.0
 40
1000.0
 41
1.34
 42
50.0
 43
0.0
 44
0.0
 50
0.0
 51
0.0
 71
0
 72
1000
 73
1
 74
3
 75
0
 76
0
 77
0
 78
0
281
0
 65
0
146
0.0
  0
ENDTAB
  0
TABLE
  2
LTYPE
  5
2
330
0
100
AcDbSymbolTable
 70
3
  0
LTYPE
  5
24
330
2
100
AcDbSymbolTableRecord
100
AcDbLinetypeTableRecord
  2
ByBlock
 70
0
  3

 72
65
 73
0
 40
0.0
  0
LTYPE
  5
25
330
2
100
AcDbSymbolTableRecord
100
AcDbLinetypeTableRecord
  2
ByLayer
 70
0
  3

 72
65
 73
0
 40
0.0
  0
LTYPE
  5
26
330
2
100
AcDbSymbolTableRecord
100
AcDbLinetypeTableRecord
  2
Continuous
 70
0
  3

 72
65
 73
0
 40
0.0
  0
ENDTAB
  0
TABLE
  2
LAYER
  5
1
330
0
100
AcDbSymbolTable
 70
2
  0
LAYER
  5
27
330
1
100
AcDbSymbolTableRecord
100
AcDbLayerTableRecord
  2
0
 70
0
 62
7
  6
Continuous
370
-3
390
13
  0
LAYER
  5
28
330
1
100
AcDbSymbolTableRecord
100
AcDbLayerTableRecord
  2
Defpoints
 70
0
 62
7
  6
Continuous
290
0
370
-3
390
13
  0
ENDTAB
  0
TABLE
  2
STYLE
  5
5
330
0
100
AcDbSymbolTable
 70
1
  0
STYLE
  5
29
330
5
100
AcDbSymbolTableRecord
100
AcDbTextStyleTableRecord
  2
Standard
 70
0
 40
0.0
 41
1.0
 50
0.0
 71
0
 42
2.5
  3
txt
  4

  0
ENDTAB
  0
TABLE
  2
VIEW
  5
7
330
0
100
AcDbSymbolTable
 70
0
  0
ENDTAB
  0
TABLE
  2
UCS
  5
6
330
0
100
AcDbSymbolTable
 70
0
  0
ENDTAB
  0
TABLE
  2
APPID
  5
3
330
0
100
AcDbSymbolTable
 70
3
  0
APPID
  5
2A
330
3
100
AcDbSymbolTableRecord
100
AcDbRegAppTableRecord
  2
ACAD
 70
0
  0
APPID
  5
10E
330
3
100
AcDbSymbolTableRecord
100
AcDbRegAppTableRecord
  2
HATCHBACKGROUNDCOLOR
 70
0
  0
APPID
  5
10F
330
3
100
AcDbSymbolTableRecord
100
AcDbRegAppTableRecord
  2
EZDXF
 70
0
  0
ENDTAB
  0
TABLE
  2
DIMSTYLE
  5
4
330
0
100
AcDbSymbolTable
 70
1
100
AcDbDimStyleTable
  0
DIMSTYLE
105
2B
330
4
100
AcDbSymbolTableRecord
100
AcDbDimStyleTableRecord
  2
Standard
 70
0
  3

  4

 40
1.0
 41
2.5
 42
0.625
 43
3.75
 44
1.25
 45
0.0
 46
0.0
 47
0.0
 48
0.0
140
2.5
141
2.5
142
0.0
143
0.03937007874
144
1.0
145
0.0
146
1.0
147
0.625
148
0.0
 71
0
 72
0
 73
0
 74
0
 75
0
 76
0
 77
1
 78
8
 79
3
170
0
171
3
172
1
173
0
174
0
175
0
176
0
177
0
178
0
179
2
271
2
272
2
273
2
274
3
275
0
276
0
277
2
278
44
279
0
280
0
281
0
282
0
283
0
284
8
285
0
286
0
288
0
289
3
371
-2
372
-2
  0
ENDTAB
  0
TABLE
  2
BLOCK_RECORD
  5
9
330
0
100
AcDbSymbolTable
 70
2
  0
BLOCK_RECORD
  5
17
330
9
100
AcDbSymbolTableRecord
100
AcDbBlockTableRecord
  2
*Model_Space
340
1A
  0
BLOCK_RECORD
  5
1B
330
9
100
AcDbSymbolTableRecord
100
AcDbBlockTableRecord
  2
*Paper_Space
340
1E
  0
ENDTAB
  0
ENDSEC
  0
SECTION
  2
BLOCKS
  0
BLOCK
  5
18
330
17
100
AcDbEntity
  8
0
100
AcDbBlockBegin
  2
*Model_Space
 70
0
 10
0.0
 20
0.0
 30
0.0
  3
*Model_Space
  1

  0
ENDBLK
  5
19
330
17
100
AcDbEntity
  8
0
100
AcDbBlockEnd
  0
BLOCK
  5
1C
330
1B
100
AcDbEntity
  8
0
100
AcDbBlockBegin
  2
*Paper_Space
 70
0
 10
0.0
 20
0.0
 30
0.0
  3
*Paper_Space
  1

  0
ENDBLK
  5
1D
330
1B
100
AcDbEntity
  8
0
100
AcDbBlockEnd
  0
ENDSEC
  0
SECTION
  2
ENTITIES
  0
LINE
  5
2F
330
17
100
AcDbEntity
  8
0
100
AcDbLine
 10
60.0
 20
0.0
 30
35.0
 11
65.71428571428571
 21
0.0
 31
34.28571428571429
  0
LINE
  5
30
330
17
100
AcDbEntity
  8
0
100
AcDbLine
 10
65.71428571428571
 20
0.0
 30
34.28571428571429
 11
71.42857142857143
 21
0.0
 31
32.142857142857146
  0
LINE
  5
31
330
17
100
AcDbEntity
  8
0
100
AcDbLine
 10
71.42857142857143
 20
0.0
 30
32.142857142857146
 11
77.14285714285714
 21
0.0
 31
28.571428571428573
  0
LINE
  5
32
330
17
100
AcDbEntity
  8
0
100
AcDbLine
 10
77.14285714285714
 20
0.0
 30
28.571428571428573
 11
82.85714285714286
 21
0.0
 31
23.571428571428566
  0
LINE
  5
33
330
17
100
AcDbEntity
  8
0
100
AcDbLine
 10
82.85714285714286
 20
0.0
 30
23.571428571428566
 11
88.57142857142857
 21
0.0
 31
17.142857142857146
  0
LINE
  5
34
330
17
100
AcDbEntity
  8
0
100
AcDbLine
 10
88.57142857142857
 20
0.0
 30
17.142857142857146
 11
94.28571428571428
 21
0.0
 31
9.285714285714295
  0
LINE
  5
35
330
17
100
AcDbEntity
  8
0
100
AcDbLine
 10
94.28571428571428
 20
0.0
 30
9.285714285714295
 11
100.0
 21
0.0
 31
0.0
  0
LINE
  5
36
330
17
100
AcDbEntity
  8
0
100
AcDbLine
 10
51.96152422706632
 20
29.999999999999996
 30
35.0
 11
56.91024082012025
 21
32.85714285714285
 31
34.28571428571429
  0
LINE
  5
37
330
17
100
AcDbEntity
  8
0
100
AcDbLine
 10
56.91024082012025
 20
32.85714285714285
 30
34.28571428571429
 11
61.858957413174195
 21
35.71428571428571
 31
32.142857142857146
  0
LINE
  5
38
330
17
100
AcDbEntity
  8
0
100
AcDbLine
 10
61.858957413174195
 20
35.71428571428571
 30
32.142857142857146
 11
66.80767400622813
 21
38.57142857142856
 31
28.571428571428573
  0
LINE
  5
39
330
17
100
AcDbEntity
  8
0
100
AcDbLine
 10
66.80767400622813
 20
38.57142857142856
 30
28.571428571428573
 11
71.75639059928207
 21
41.42857142857142
 31
23.571428571428566
  0
LINE
  5
3A
330
17
100
AcDbEntity
  8
0
100
AcDbLine
 10
71.75639059928207
 20
41.42857142857142
 30
23.571428571428566
 11
76.705107192336
 21
44.28571428571428
 31
17.142857142857146
  0
LINE
  5
3B
330
17
100
AcDbEntity
  8
0
100
AcDbLine
 10
76.705107192336
 20
44.28571428571428
 30
17.142857142857146
 11
81.65382378538993
 21
47.14285714285713
 31
9.285714285714295
  0
LINE
  5
3C
330
17
100
AcDbEntity
  8
0
100
AcDbLine
 10
81.65382378538993
 20
47.14285714285713
 30
9.285714285714295
 11
86.60254037844388
 21
49.99999999999999
 31
0.0
  0
LINE
  5
3D
330
17
100
AcDbEntity
  8
0
100
AcDbLine
 10
30.000000000000007
 20
51.96152422706631
 30
35.0
 11
32.85714285714286
 21
56.910240820120244
 31
34.28571428571429
  0
LINE
  5
3E
330
17
100
AcDbEntity
  8
0
100
AcDbLine
 10
32.85714285714286
 20
56.910240820120244
 30
34.28571428571429
 11
35.71428571428572
 21
61.85895741317419
 31
32.142857142857146
  0
LINE
  5
3F
330
17
100
AcDbEntity
  8
0
100
AcDbLine
 10
35.71428571428572
 20
61.85895741317419
 30
32.142857142857146
 11
38.57142857142858
 21
66.80767400622811
 31
28.571428571428573
  0
LINE
  5
40
330
17
100
AcDbEntity
  8
0
100
AcDbLine
 10
38.57142857142858
 20
66.80767400622811
 30
28.571428571428573
 11
41.42857142857144
 21
71.75639059928206
 31
23.571428571428566
  0
LINE
  5
41
330
17
100
AcDbEntity
  8
0
100
AcDbLine
 10
41.42857142857144
 20
71.75639059928206
 30
23.571428571428566
 11
44.28571428571429
 21
76.70510719233599
 31
17.142857142857146
  0
LINE
  5
42
330
17
100
AcDbEntity
  8
0
100
AcDbLine
 10
44.28571428571429
 20
76.70510719233599
 30
17.142857142857146
 11
47.142857142857146
 21
81.65382378538992
 31
9.285714285714295
  0
LINE
  5
43
330
17
100
AcDbEntity
  8
0
100
AcDbLine
 10
47.142857142857146
 20
81.65382378538992
 30
9.285714285714295
 11
50.000000000000014
 21
86.60254037844386
 31
0.0
  0
LINE
  5
44
330
17
100
AcDbEntity
  8
0
100
AcDbLine
 10
3.67394039744206e-15
 20
60.0
 30
35.0
 11
4.023839482912731e-15
 21
65.71428571428571
 31
34.28571428571429
  0
LINE
  5
45
330
17
100
AcDbEntity
  8
0
100
AcDbLine
 10
4.023839482912731e-15
 20
65.71428571428571
 30
34.28571428571429
 11
4.373738568383404e-15
 21
71.42857142857143
 31
32.142857142857146
  0
LINE
  5
46
330
17
100
AcDbEntity
  8
0
100
AcDbLine
 10
4.373738568383404e-15
 20
71.42857142857143
 30
32.142857142857146
 11
4.723637653854076e-15
 21
77.14285714285714
 31
28.571428571428573
  0
LINE
  5
47
330
17
100
AcDbEntity
  8
0
100
AcDbLine
 10
4.723637653854076e-15
 20
77.14285714285714
 30
28.571428571428573
 11
5.073536739324749e-15
 21
82.85714285714286
 31
23.571428571428566
  0
LINE
  5
48
330
17
100
AcDbEntity
  8
0
100
AcDbLine
 10
5.073536739324749e-15
 20
82.85714285714286
 30
23.571428571428566
 11
5.423435824795421e-15
 21
88.57142857142857
 31
17.142857142857146
  0
LINE
  5
49
330
17
100
AcDbEntity
  8
0
100
AcDbLine
 10
5.423435824795421e-15
 20
88.57142857142857
 30
17.142857142857146
 11
5.773334910266093e-15
 21
94.28571428571428
 31
9.285714285714295
  0
LINE
  5
4A
330
17
100
AcDbEntity
  8
0
100
AcDbLine
 10
5.773334910266093e-15
 20
94.28571428571428
 30
9.285714285714295
 11
6.123233995736766e-15
 21
100.0
 31
0.0
  0
LINE
  5
4B
330
17
100
AcDbEntity
  8
0
100
AcDbLine
 10
-29.99999999999999
 20
51.96152422706632
 30
35.0
 11
-32.85714285714284
 21
56.91024082012025
 31
34.28571428571429
  0
LINE
  5
4C
330
17
100
AcDbEntity
  8
0
100
AcDbLine
 10
-32.85714285714284
 20
56.91024082012025
 30
34.28571428571429
 11
-35.7142857142857
 21
61.858957413174195
 31
32.142857142857146
  0
LINE
  5
4D
330
17
100
AcDbEntity
  8
0
100
AcDbLine
 10
-35.7142857142857
 20
61.858957413174195
 30
32.142857142857146
 11
-38.571428571428555
 21
66.80767400622813
 31
28.571428571428573
  0
LINE
  5
4E
330
17
100
AcDbEntity
  8
0
100
AcDbLine
 10
-38.571428571428555
 20
66.80767400622813
 30
28.571428571428573
 11
-41.428571428571416
 21
71.75639059928207
 31
23.571428571428566
  0
LINE
  5
4F
330
17
100
AcDbEntity
  8
0
100
AcDbLine
 10
-41.428571428571416
 20
71.75639059928207
 30
23.571428571428566
 11
-44.28571428571427
 21
76.705107192336
 31
17.142857142857146
  0
LINE
  5
50
330
17
100
AcDbEntity
  8
0
100
AcDbLine
 10
-44.28571428571427
 20
76.705107192336
 30
17.142857142857146
 11
-47.142857142857125
 21
81.65382378538993
 31
9.285714285714295
  0
LINE
  5
51
330
17
100
AcDbEntity
  8
0
100
AcDbLine
 10
-47.142857142857125
 20
81.65382378538993
 30
9.285714285714295
 11
-49.999999999999986
 21
86.60254037844388
 31
0.0
  0
LINE
  5
52
330
17
100
AcDbEntity
  8
0
100
AcDbLine
 10
-51.96152422706632
 20
29.999999999999996
 30
35.0
 11
-56.91024082012025
 21
32.85714285714285
 31
34.28571428571429
  0
LINE
  5
53
330
17
100
AcDbEntity
  8
0
100
AcDbLine
 10
-56.91024082012025
 20
32.85714285714285
 30
34.28571428571429
 11
-61.858957413174195
 21
35.71428571428571
 31
32.142857142857146
  0
LINE
  5
54
330
17
100
AcDbEntity
  8
0
100
AcDbLine
 10
-61.858957413174195
 20
35.71428571428571
 30
32.142857142857146
 11
-66.80767400622813
 21
38.57142857142856
 31
28.571428571428573
  0
LINE
  5
55
330
17
100
AcDbEntity
  8
0
100
AcDbLine
 10
-66.80767400622813
 20
38.57142857142856
 30
28.571428571428573
 11
-71.75639059928207
 21
41.42857142857142
 31
23.571428571428566
  0
LINE
  5
56
330
17
100
AcDbEntity
  8
0
100
AcDbLine
 10
-71.75639059928207
 20
41.42857142857142
 30
23.571428571428566
 11
-76.705107192336
 21
44.28571428571428
 31
17.142857142857146
  0
LINE
  5
57
330
17
100
AcDbEntity
  8
0
100
AcDbLine
 10
-76.705107192336
 20
44.28571428571428
 30
17.142857142857146
 11
-81.65382378538993
 21
47.14285714285713
 31
9.285714285714295
  0
LINE
  5
58
330
17
100
AcDbEntity
  8
0
100
AcDbLine
 10
-81.65382378538993
 20
47.14285714285713
 30
9.285714285714295
 11
-86.60254037844388
 21
49.99999999999999
 31
0.0
  0
LINE
  5
59
330
17
100
AcDbEntity
  8
0
100
AcDbLine
 10
-60.0
 20
7.34788079488412e-15
 30
35.0
 11
-65.71428571428571
 21
8.047678965825463e-15
 31
34.28571428571429
  0
LINE
  5
5A
330
17
100
AcDbEntity
  8
0
100
AcDbLine
 10
-65.71428571428571
 20
8.047678965825463e-15
 30
34.28571428571429
 11
-71.42857142857143
 21
8.747477136766808e-15
 31
32.142857142857146
  0
LINE
  5
5B
330
17
100
AcDbEntity
  8
0
100
AcDbLine
 10
-71.42857142857143
 20
8.747477136766808e-15
 30
32.142857142857146
 11
-77.14285714285714
 21
9.447275307708152e-15
 31
28.571428571428573
  0
LINE
  5
5C
330
17
100
AcDbEntity
  8
0
100
AcDbLine
 10
-77.14285714285714
 20
9.447275307708152e-15
 30
28.571428571428573
 11
-82.85714285714286
 21
1.0147073478649498e-14
 31
23.571428571428566
  0
LINE
  5
5D
330
17
100
AcDbEntity
  8
0
100
AcDbLine
 10
-82.85714285714286
 20
1.0147073478649498e-14
 30
23.571428571428566
 11
-88.57142857142857
 21
1.0846871649590842e-14
 31
17.142857142857146
  0
LINE
  5
5E
330
17
100
AcDbEntity
  8
0
100
AcDbLine
 10
-88.57142857142857
 20
1.0846871649590842e-14
 30
17.142857142857146
 11
-94.28571428571428
 21
1.1546669820532186e-14
 31
9.285714285714295
  0
LINE
  5
5F
330
17
100
AcDbEntity
  8
0
100
AcDbLine
 10
-94.28571428571428
 20
1.1546669820532186e-14
 30
9.285714285714295
 11
-100.0
 21
1.2246467991473532e-14
 31
0.0
  0
LINE
  5
60
330
17
100
AcDbEntity
  8
0
100
AcDbLine
 10
-51.96152422706631
 20
-30.000000000000007
 30
35.0
 11
-56.910240820120244
 21
-32.85714285714286
 31
34.28571428571429
  0
LINE
  5
61
330
17
100
AcDbEntity
  8
0
100
AcDbLine
 10
-56.910240820120244
 20
-32.85714285714286
 30
34.28571428571429
 11
-61.85895741317419
 21
-35.71428571428572
 31
32.142857142857146
  0
LINE
  5
62
330
17
100
AcDbEntity
  8
0
100
AcDbLine
 10
-61.85895741317419
 20
-35.71428571428572
 30
32.142857142857146
 11
-66.80767400622811
 21
-38.57142857142858
 31
28.571428571428573
  0
LINE
  5
63
330
17
100
AcDbEntity
  8
0
100
AcDbLine
 10
-66.80767400622811
 20
-38.57142857142858
 30
28.571428571428573
 11
-71.75639059928206
 21
-41.42857142857144
 31
23.571428571428566
  0
LINE
  5
64
330
17
100
AcDbEntity
  8
0
100
AcDbLine
 10
-71.75639059928206
 20
-41.42857142857144
 30
23.571428571428566
 11
-76.70510719233599
 21
-44.28571428571429
 31
17.142857142857146
  0
LINE
  5
65
330
17
100
AcDbEntity
  8
0
100
AcDbLine
 10
-76.70510719233599
 20
-44.28571428571429
 30
17.142857142857146
 11
-81.65382378538992
 21
-47.142857142857146
 31
9.285714285714295
  0
LINE
  5
66
330
17
100
AcDbEntity
  8
0
100
AcDbLine
 10
-81.65382378538992
 20
-47.142857142857146
 30
9.285714285714295
 11
-86.60254037844386
 21
-50.000000000000014
 31
0.0
  0
LINE
  5
67
330
17
100
AcDbEntity
  8
0
100
AcDbLine
 10
-30.00000000000003
 20
-51.961524227066306
 30
35.0
 11
-32.85714285714288
 21
-56.91024082012023
 31
34.28571428571429
  0
LINE
  5
68
330
17
100
AcDbEntity
  8
0
100
AcDbLine
 10
-32.85714285714288
 20
-56.91024082012023
 30
34.28571428571429
 11
-35.714285714285744
 21
-61.858957413174174
 31
32.142857142857146
  0
LINE
  5
69
330
17
100
AcDbEntity
  8
0
100
AcDbLine
 10
-35.714285714285744
 20
-61.858957413174174
 30
32.142857142857146
 11
-38.571428571428605
 21
-66.8076740062281
 31
28.571428571428573
  0
LINE
  5
6A
330
17
100
AcDbEntity
  8
0
100
AcDbLine
 10
-38.571428571428605
 20
-66.8076740062281
 30
28.571428571428573
 11
-41.428571428571466
 21
-71.75639059928204
 31
23.571428571428566
  0
LINE
  5
6B
330
17
100
AcDbEntity
  8
0
100
AcDbLine
 10
-41.428571428571466
 20
-71.75639059928204
 30
23.571428571428566
 11
-44.28571428571433
 21
-76.70510719233597
 31
17.142857142857146
  0
LINE
  5
6C
330
17
100
AcDbEntity
  8
0
100
AcDbLine
 10
-44.28571428571433
 20
-76.70510719233597
 30
17.142857142857146
 11
-47.14285714285718
 21
-81.6538237853899
 31
9.285714285714295
  0
LINE
  5
6D
330
17
100
AcDbEntity
  8
0
100
AcDbLine
 10
-47.14285714285718
 20
-81.6538237853899
 30
9.285714285714295
 11
-50.00000000000004
 21
-86.60254037844383
 31
0.0
  0
LINE
  5
6E
330
17
100
AcDbEntity
  8
0
100
AcDbLine
 10
-1.1021821192326178e-14
 20
-60.0
 30
35.0
 11
-1.2071518448738194e-14
 21
-65.71428571428571
 31
34.28571428571429
  0
LINE
  5
6F
330
17
100
AcDbEntity
  8
0
100
AcDbLine
 10
-1.2071518448738194e-14
 20
-65.71428571428571
 30
34.28571428571429
 11
-1.3121215705150213e-14
 21
-71.42857142857143
 31
32.142857142857146
  0
LINE
  5
70
330
17
100
AcDbEntity
  8
0
100
AcDbLine
 10
-1.3121215705150213e-14
 20
-71.42857142857143
 30
32.142857142857146
 11
-1.4170912961562228e-14
 21
-77.14285714285714
 31
28.571428571428573
  0
LINE
  5
71
330
17
100
AcDbEntity
  8
0
100
AcDbLine
 10
-1.4170912961562228e-14
 20
-77.14285714285714
 30
28.571428571428573
 11
-1.5220610217974247e-14
 21
-82.85714285714286
 31
23.571428571428566
  0
LINE
  5
72
330
17
100
AcDbEntity
  8
0
100
AcDbLine
 10
-1.5220610217974247e-14
 20
-82.85714285714286
 30
23.571428571428566
 11
-1.6270307474386262e-14
 21
-88.57142857142857
 31
17.142857142857146
  0
LINE
  5
73
330
17
100
AcDbEntity
  8
0
100
AcDbLine
 10
-1.6270307474386262e-14
 20
-88.57142857142857
 30
17.142857142857146
 11
-1.732000473079828e-14
 21
-94.28571428571428
 31
9.285714285714295
  0
LINE
  5
74
330
17
100
AcDbEntity
  8
0
100
AcDbLine
 10
-1.732000473079828e-14
 20
-94.28571428571428
 30
9.285714285714295
 11
-1.8369701987210297e-14
 21
-100.0
 31
0.0
  0
LINE
  5
75
330
17
100
AcDbEntity
  8
0
100
AcDbLine
 10
30.000000000000007
 20
-51.96152422706631
 30
35.0
 11
32.85714285714286
 21
-56.910240820120244
 31
34.28571428571429
  0
LINE
  5
76
330
17
100
AcDbEntity
  8
0
100
AcDbLine
 10
32.85714285714286
 20
-56.910240820120244
 30
34.28571428571429
 11
35.71428571428572
 21
-61.85895741317419
 31
32.142857142857146
  0
LINE
  5
77
330
17
100
AcDbEntity
  8
0
100
AcDbLine
 10
35.71428571428572
 20
-61.85895741317419
 30
32.142857142857146
 11
38.57142857142858
 21
-66.80767400622811
 31
28.571428571428573
  0
LINE
  5
78
330
17
100
AcDbEntity
  8
0
100
AcDbLine
 10
38.57142857142858
 20
-66.80767400622811
 30
28.571428571428573
 11
41.42857142857144
 21
-71.75639059928206
 31
23.571428571428566
  0
LINE
  5
79
330
17
100
AcDbEntity
  8
0
100
AcDbLine
 10
41.42857142857144
 20
-71.75639059928206
 30
23.571428571428566
 11
44.28571428571429
 21
-76.70510719233599
 31
17.142857142857146
  0
LINE
  5
7A
330
17
100
AcDbEntity
  8
0
100
AcDbLine
 10
44.28571428571429
 20
-76.70510719233599
 30
17.142857142857146
 11
47.142857142857146
 21
-81.65382378538992
 31
9.285714285714295
  0
LINE
  5
7B
330
17
100
AcDbEntity
  8
0
100
AcDbLine
 10
47.142857142857146
 20
-81.65382378538992
 30
9.285714285714295
 11
50.000000000000014
 21
-86.60254037844386
 31
0.0
  0
LINE
  5
7C
330
17
100
AcDbEntity
  8
0
100
AcDbLine
 10
51.961524227066306
 20
-30.00000000000003
 30
35.0
 11
56.91024082012023
 21
-32.85714285714288
 31
34.28571428571429
  0
LINE
  5
7D
330
17
100
AcDbEntity
  8
0
100
AcDbLine
 10
56.91024082012023
 20
-32.85714285714288
 30
34.28571428571429
 11
61.858957413174174
 21
-35.714285714285744
 31
32.142857142857146
  0
LINE
  5
7E
330
17
100
AcDbEntity
  8
0
100
AcDbLine
 10
61.858957413174174
 20
-35.714285714285744
 30
32.142857142857146
 11
66.8076740062281
 21
-38.571428571428605
 31
28.571428571428573
  0
LINE
  5
7F
330
17
100
AcDbEntity
  8
0
100
AcDbLine
 10
66.8076740062281
 20
-38.571428571428605
 30
28.571428571428573
 11
71.75639059928204
 21
-41.428571428571466
 31
23.571428571428566
  0
LINE
  5
80
330
17
100
AcDbEntity
  8
0
100
AcDbLine
 10
71.75639059928204
 20
-41.428571428571466
 30
23.571428571428566
 11
76.70510719233597
 21
-44.28571428571433
 31
17.142857142857146
  0
LINE
  5
81
330
17
100
AcDbEntity
  8
0
100
AcDbLine
 10
76.70510719233597
 20
-44.28571428571433
 30
17.142857142857146
 11
81.6538237853899
 21
-47.14285714285718
 31
9.285714285714295
  0
LINE
  5
82
330
17
100
AcDbEntity
  8
0
100
AcDbLine
 10
81.6538237853899
 20
-47.14285714285718
 30
9.285714285714295
 11
86.60254037844383
 21
-50.00000000000004
 31
0.0
  0
LINE
  5
83
330
17
100
AcDbEntity
  8
0
100
AcDbLine
 10
60.0
 20
0.0
 30
35.0
 11
30.000000000000007
 21
51.96152422706631
 31
35.0
  0
LINE
  5
84
330
17
100
AcDbEntity
  8
0
100
AcDbLine
 10
30.000000000000007
 20
51.96152422706631
 30
35.0
 11
-29.99999999999999
 21
51.96152422706632
 31
35.0
  0
LINE
  5
85
330
17
100
AcDbEntity
  8
0
100
AcDbLine
 10
-29.99999999999999
 20
51.96152422706632
 30
35.0
 11
-60.0
 21
7.34788079488412e-15
 31
35.0
  0
LINE
  5
86
330
17
100
AcDbEntity
  8
0
100
AcDbLine
 10
-60.0
 20
7.34788079488412e-15
 30
35.0
 11
-30.00000000000003
 21
-51.961524227066306
 31
35.0
  0
LINE
  5
87
330
17
100
AcDbEntity
  8
0
100
AcDbLine
 10
-30.00000000000003
 20
-51.961524227066306
 30
35.0
 11
30.000000000000007
 21
-51.96152422706631
 31
35.0
  0
LINE
  5
88
330
17
100
AcDbEntity
  8
0
100
AcDbLine
 10
30.000000000000007
 20
-51.96152422706631
 30
35.0
 11
60.0
 21
0.0
 31
35.0
  0
LINE
  5
89
330
17
100
AcDbEntity
  8
0
100
AcDbLine
 10
66.66666666666667
 20
0.0
 30
34.52777777777778
 11
41.565986790582244
 21
52.12209883120199
 31
34.52777777777778
  0
LINE
  5
8A
330
17
100
AcDbEntity
  8
0
100
AcDbLine
 10
41.565986790582244
 20
52.12209883120199
 30
34.52777777777778
 11
-14.834728930420956
 21
64.99519414545492
 31
34.52777777777778
  0
LINE
  5
8B
330
17
100
AcDbEntity
  8
0
100
AcDbLine
 10
-14.834728930420956
 20
64.99519414545492
 30
34.52777777777778
 11
-60.06459119349461
 21
28.925582607837217
 31
34.52777777777778
  0
LINE
  5
8C
330
17
100
AcDbEntity
  8
0
100
AcDbLine
 10
-60.06459119349461
 20
28.925582607837217
 30
34.52777777777778
 11
-60.064591193494614
 21
-28.925582607837203
 31
34.52777777777778
  0
LINE
  5
8D
330
17
100
AcDbEntity
  8
0
100
AcDbLine
 10
-60.064591193494614
 20
-28.925582607837203
 30
34.52777777777778
 11
-14.834728930420974
 21
-64.99519414545492
 31
34.52777777777778
  0
LINE
  5
8E
330
17
100
AcDbEntity
  8
0
100
AcDbLine
 10
-14.834728930420974
 20
-64.99519414545492
 30
34.52777777777778
 11
41.56598679058223
 21
-52.122098831201995
 31
34.52777777777778
  0
LINE
  5
8F
330
17
100
AcDbEntity
  8
0
100
AcDbLine
 10
41.56598679058223
 20
-52.122098831201995
 30
34.52777777777778
 11
66.66666666666667
 21
0.0
 31
34.52777777777778
  0
LINE
  5
90
330
17
100
AcDbEntity
  8
0
100
AcDbLine
 10
73.33333333333333
 20
0.0
 30
32.111111111111114
 11
51.85449728701349
 21
51.85449728701348
 31
32.111111111111114
  0
LINE
  5
91
330
17
100
AcDbEntity
  8
0
100
AcDbLine
 10
51.85449728701349
 20
51.85449728701348
 30
32.111111111111114
 11
4.4903715968736284e-15
 21
73.33333333333333
 31
32.111111111111114
  0
LINE
  5
92
330
17
100
AcDbEntity
  8
0
100
AcDbLine
 10
4.4903715968736284e-15
 20
73.33333333333333
 30
32.111111111111114
 11
-51.85449728701348
 21
51.85449728701349
 31
32.111111111111114
  0
LINE
  5
93
330
17
100
AcDbEntity
  8
0
100
AcDbLine
 10
-51.85449728701348
 20
51.85449728701349
 30
32.111111111111114
 11
-73.33333333333333
 21
8.980743193747257e-15
 31
32.111111111111114
  0
LINE
  5
94
330
17
100
AcDbEntity
  8
0
100
AcDbLine
 10
-73.33333333333333
 20
8.980743193747257e-15
 30
32.111111111111114
 11
-51.854497287013494
 21
-51.85449728701348
 31
32.111111111111114
  0
LINE
  5
95
330
17
100
AcDbEntity
  8
0
100
AcDbLine
 10
-51.854497287013494
 20
-51.85449728701348
 30
32.111111111111114
 11
-1.3471114790620884e-14
 21
-73.33333333333333
 31
32.111111111111114
  0
LINE
  5
96
330
17
100
AcDbEntity
  8
0
100
AcDbLine
 10
-1.3471114790620884e-14
 20
-73.33333333333333
 30
32.111111111111114
 11
51.854497287013466
 21
-51.854497287013494
 31
32.111111111111114
  0
LINE
  5
97
330
17
100
AcDbEntity
  8
0
100
AcDbLine
 10
51.854497287013466
 20
-51.854497287013494
 30
32.111111111111114
 11
73.33333333333333
 21
0.0
 31
32.111111111111114
  0
LINE
  5
98
330
17
100
AcDbEntity
  8
0
100
AcDbLine
 10
80.0
 20
0.0
 30
27.75
 11
61.28355544951824
 21
51.42300877492314
 31
27.75
  0
LINE
  5
99
330
17
100
AcDbEntity
  8
0
100
AcDbLine
 10
61.28355544951824
 20
51.42300877492314
 30
27.75
 11
13.891854213354433
 21
78.78462024097664
 31
27.75
  0
LINE
  5
9A
330
17
100
AcDbEntity
  8
0
100
AcDbLine
 10
13.891854213354433
 20
78.78462024097664
 30
27.75
 11
-39.999999999999986
 21
69.2820323027551
 31
27.75
  0
LINE
  5
9B
330
17
100
AcDbEntity
  8
0
100
AcDbLine
 10
-39.999999999999986
 20
69.2820323027551
 30
27.75
 11
-75.17540966287267
 21
27.36161146605351
 31
27.75
  0
LINE
  5
9C
330
17
100
AcDbEntity
  8
0
100
AcDbLine
 10
-75.17540966287267
 20
27.36161146605351
 30
27.75
 11
-75.17540966287268
 21
-27.361611466053493
 31
27.75
  0
LINE
  5
9D
330
17
100
AcDbEntity
  8
0
100
AcDbLine
 10
-75.17540966287268
 20
-27.361611466053493
 30
27.75
 11
-40.000000000000036
 21
-69.28203230275507
 31
27.75
  0
LINE
  5
9E
330
17
100
AcDbEntity
  8
0
100
AcDbLine
 10
-40.000000000000036
 20
-69.28203230275507
 30
27.75
 11
13.891854213354398
 21
-78.78462024097665
 31
27.75
  0
LINE
  5
9F
330
17
100
AcDbEntity
  8
0
100
AcDbLine
 10
13.891854213354398
 20
-78.78462024097665
 30
27.75
 11
61.283555449518225
 21
-51.42300877492317
 31
27.75
  0
LINE
  5
A0
330
17
100
AcDbEntity
  8
0
100
AcDbLine
 10
61.283555449518225
 20
-51.42300877492317
 30
27.75
 11
80.0
 21
0.0
 31
27.75
  0
LINE
  5
A1
330
17
100
AcDbEntity
  8
0
100
AcDbLine
 10
86.66666666666666
 20
0.0
 30
21.444444444444457
 11
70.1148061791621
 21
50.94138853201434
 31
21.444444444444457
  0
LINE
  5
A2
330
17
100
AcDbEntity
  8
0
100
AcDbLine
 10
70.1148061791621
 20
50.94138853201434
 30
21.444444444444457
 11
26.781472845828777
 21
82.4248980789133
 31
21.444444444444457
  0
LINE
  5
A3
330
17
100
AcDbEntity
  8
0
100
AcDbLine
 10
26.781472845828777
 20
82.4248980789133
 30
21.444444444444457
 11
-26.781472845828766
 21
82.4248980789133
 31
21.444444444444457
  0
LINE
  5
A4
330
17
100
AcDbEntity
  8
0
100
AcDbLine
 10
-26.781472845828766
 20
82.4248980789133
 30
21.444444444444457
 11
-70.1148061791621
 21
50.941388532014344
 31
21.444444444444457
  0
LINE
  5
A5
330
17
100
AcDbEntity
  8
0
100
AcDbLine
 10
-70.1148061791621
 20
50.941388532014344
 30
21.444444444444457
 11
-86.66666666666666
 21
1.0613605592610394e-14
 31
21.444444444444457
  0
LINE
  5
A6
330
17
100
AcDbEntity
  8
0
100
AcDbLine
 10
-86.66666666666666
 20
1.0613605592610394e-14
 30
21.444444444444457
 11
-70.1148061791621
 21
-50.94138853201432
 31
21.444444444444457
  0
LINE
  5
A7
330
17
100
AcDbEntity
  8
0
100
AcDbLine
 10
-70.1148061791621
 20
-50.94138853201432
 30
21.444444444444457
 11
-26.781472845828787
 21
-82.4248980789133
 31
21.444444444444457
  0
LINE
  5
A8
330
17
100
AcDbEntity
  8
0
100
AcDbLine
 10
-26.781472845828787
 20
-82.4248980789133
 30
21.444444444444457
 11
26.781472845828755
 21
-82.4248980789133
 31
21.444444444444457
  0
LINE
  5
A9
330
17
100
AcDbEntity
  8
0
100
AcDbLine
 10
26.781472845828755
 20
-82.4248980789133
 30
21.444444444444457
 11
70.1148061791621
 21
-50.94138853201435
 31
21.444444444444457
  0
LINE
  5
AA
330
17
100
AcDbEntity
  8
0
100
AcDbLine
 10
70.1148061791621
 20
-50.94138853201435
 30
21.444444444444457
 11
86.66666666666666
 21
0.0
 31
21.444444444444457
  0
LINE
  5
AB
330
17
100
AcDbEntity
  8
0
100
AcDbLine
 10
93.33333333333334
 20
0.0
 30
13.19444444444443
 11
78.51699639757692
 21
50.45980962918911
 31
13.19444444444443
  0
LINE
  5
AC
330
17
100
AcDbEntity
  8
0
100
AcDbLine
 10
78.51699639757692
 20
50.45980962918911
 30
13.19444444444443
 11
38.772067880176074
 21
84.89898623308838
 31
13.19444444444443
  0
LINE
  5
AD
330
17
100
AcDbEntity
  8
0
100
AcDbLine
 10
38.772067880176074
 20
84.89898623308838
 30
13.19444444444443
 11
-13.282718238839935
 21
92.38333457555373
 31
13.19444444444443
  0
LINE
  5
AE
330
17
100
AcDbEntity
  8
0
100
AcDbLine
 10
-13.282718238839935
 20
92.38333457555373
 30
13.19444444444443
 11
-61.12033516822662
 21
70.53662693973078
 31
13.19444444444443
  0
LINE
  5
AF
330
17
100
AcDbEntity
  8
0
100
AcDbLine
 10
-61.12033516822662
 20
70.53662693973078
 30
13.19444444444443
 11
-89.55267753735309
 21
26.295038638533477
 31
13.19444444444443
  0
LINE
  5
B0
330
17
100
AcDbEntity
  8
0
100
AcDbLine
 10
-89.55267753735309
 20
26.295038638533477
 30
13.19444444444443
 11
-89.5526775373531
 21
-26.295038638533413
 31
13.19444444444443
  0
LINE
  5
B1
330
17
100
AcDbEntity
  8
0
100
AcDbLine
 10
-89.5526775373531
 20
-26.295038638533413
 30
13.19444444444443
 11
-61.120335168226624
 21
-70.53662693973077
 31
13.19444444444443
  0
LINE
  5
B2
330
17
100
AcDbEntity
  8
0
100
AcDbLine
 10
-61.120335168226624
 20
-70.53662693973077
 30
13.19444444444443
 11
-13.282718238839957
 21
-92.38333457555373
 31
13.19444444444443
  0
LINE
  5
B3
330
17
100
AcDbEntity
  8
0
100
AcDbLine
 10
-13.282718238839957
 20
-92.38333457555373
 30
13.19444444444443
 11
38.77206788017611
 21
-84.89898623308838
 31
13.19444444444443
  0
LINE
  5
B4
330
17
100
AcDbEntity
  8
0
100
AcDbLine
 10
38.77206788017611
 20
-84.89898623308838
 30
13.19444444444443
 11
78.51699639757688
 21
-50.459809629189174
 31
13.19444444444443
  0
LINE
  5
B5
330
17
100
AcDbEntity
  8
0
100
AcDbLine
 10
78.51699639757688
 20
-50.459809629189174
 30
13.19444444444443
 11
93.33333333333334
 21
0.0
 31
13.19444444444443
  0
LINE
  5
B6
330
17
100
AcDbEntity
  8
0
100
AcDbLine
 10
100.0
 20
0.0
 30
3.0
 11
86.60254037844388
 21
49.99999999999999
 31
3.0
  0
LINE
  5
B7
330
17
100
AcDbEntity
  8
0
100
AcDbLine
 10
86.60254037844388
 20
49.99999999999999
 30
3.0
 11
50.000000000000014
 21
86.60254037844386
 31
3.0
  0
LINE
  5
B8
330
17
100
AcDbEntity
  8
0
100
AcDbLine
 10
50.000000000000014
 20
86.60254037844386
 30
3.0
 11
6.123233995736766e-15
 21
100.0
 31
3.0
  0
LINE
  5
B9
330
17
100
AcDbEntity
  8
0
100
AcDbLine
 10
6.123233995736766e-15
 20
100.0
 30
3.0
 11
-49.999999999999986
 21
86.60254037844388
 31
3.0
  0
LINE
  5
BA
330
17
100
AcDbEntity
  8
0
100
AcDbLine
 10
-49.999999999999986
 20
86.60254037844388
 30
3.0
 11
-86.60254037844388
 21
49.99999999999999
 31
3.0
  0
LINE
  5
BB
330
17
100
AcDbEntity
  8
0
100
AcDbLine
 10
-86.60254037844388
 20
49.99999999999999
 30
3.0
 11
-100.0
 21
1.2246467991473532e-14
 31
3.0
  0
LINE
  5
BC
330
17
100
AcDbEntity
  8
0
100
AcDbLine
 10
-100.0
 20
1.2246467991473532e-14
 30
3.0
 11
-86.60254037844386
 21
-50.000000000000014
 31
3.0
  0
LINE
  5
BD
330
17
100
AcDbEntity
  8
0
100
AcDbLine
 10
-86.60254037844386
 20
-50.000000000000014
 30
3.0
 11
-50.00000000000004
 21
-86.60254037844383
 31
3.0
  0
LINE
  5
BE
330
17
100
AcDbEntity
  8
0
100
AcDbLine
 10
-50.00000000000004
 20
-86.60254037844383
 30
3.0
 11
-1.8369701987210297e-14
 21
-100.0
 31
3.0
  0
LINE
  5
BF
330
17
100
AcDbEntity
  8
0
100
AcDbLine
 10
-1.8369701987210297e-14
 20
-100.0
 30
3.0
 11
50.000000000000014
 21
-86.60254037844386
 31
3.0
  0
LINE
  5
C0
330
17
100
AcDbEntity
  8
0
100
AcDbLine
 10
50.000000000000014
 20
-86.60254037844386
 30
3.0
 11
86.60254037844383
 21
-50.00000000000004
 31
3.0
  0
LINE
  5
C1
330
17
100
AcDbEntity
  8
0
100
AcDbLine
 10
86.60254037844383
 20
-50.00000000000004
 30
3.0
 11
100.0
 21
0.0
 31
3.0
  0
LINE
  5
C2
330
17
100
AcDbEntity
  8
0
100
AcDbLine
 10
70.0
 20
0.0
 30
32.8125
 11
60.62177826491071
 21
34.99999999999999
 31
32.8125
  0
LINE
  5
C3
330
17
100
AcDbEntity
  8
0
100
AcDbLine
 10
80.0
 20
0.0
 30
26.25
 11
69.2820323027551
 21
39.99999999999999
 31
26.25
  0
LINE
  5
C4
330
17
100
AcDbEntity
  8
0
100
AcDbLine
 10
90.0
 20
0.0
 30
15.3125
 11
77.94228634059948
 21
44.99999999999999
 31
15.3125
  0
LINE
  5
C5
330
17
100
AcDbEntity
  8
0
100
AcDbLine
 10
60.62177826491071
 20
34.99999999999999
 30
32.8125
 11
35.00000000000001
 21
60.6217782649107
 31
32.8125
  0
LINE
  5
C6
330
17
100
AcDbEntity
  8
0
100
AcDbLine
 10
69.2820323027551
 20
39.99999999999999
 30
26.25
 11
40.00000000000001
 21
69.28203230275508
 31
26.25
  0
LINE
  5
C7
330
17
100
AcDbEntity
  8
0
100
AcDbLine
 10
77.94228634059948
 20
44.99999999999999
 30
15.3125
 11
45.00000000000001
 21
77.94228634059948
 31
15.3125
  0
LINE
  5
C8
330
17
100
AcDbEntity
  8
0
100
AcDbLine
 10
35.00000000000001
 20
60.6217782649107
 30
32.8125
 11
4.2862637970157365e-15
 21
70.0
 31
32.8125
  0
LINE
  5
C9
330
17
100
AcDbEntity
  8
0
100
AcDbLine
 10
40.00000000000001
 20
69.28203230275508
 30
26.25
 11
4.898587196589413e-15
 21
80.0
 31
26.25
  0
LINE
  5
CA
330
17
100
AcDbEntity
  8
0
100
AcDbLine
 10
45.00000000000001
 20
77.94228634059948
 30
15.3125
 11
5.5109105961630896e-15
 21
90.0
 31
15.3125
  0
LINE
  5
CB
330
17
100
AcDbEntity
  8
0
100
AcDbLine
 10
4.2862637970157365e-15
 20
70.0
 30
32.8125
 11
-34.999999999999986
 21
60.62177826491071
 31
32.8125
  0
LINE
  5
CC
330
17
100
AcDbEntity
  8
0
100
AcDbLine
 10
4.898587196589413e-15
 20
80.0
 30
26.25
 11
-39.999999999999986
 21
69.2820323027551
 31
26.25
  0
LINE
  5
CD
330
17
100
AcDbEntity
  8
0
100
AcDbLine
 10
5.5109105961630896e-15
 20
90.0
 30
15.3125
 11
-44.999999999999986
 21
77.94228634059948
 31
15.3125
  0
LINE
  5
CE
330
17
100
AcDbEntity
  8
0
100
AcDbLine
 10
-34.999999999999986
 20
60.62177826491071
 30
32.8125
 11
-60.62177826491071
 21
34.99999999999999
 31
32.8125
  0
LINE
  5
CF
330
17
100
AcDbEntity
  8
0
100
AcDbLine
 10
-39.999999999999986
 20
69.2820323027551
 30
26.25
 11
-69.2820323027551
 21
39.99999999999999
 31
26.25
  0
LINE
  5
D0
330
17
100
AcDbEntity
  8
0
100
AcDbLine
 10
-44.999999999999986
 20
77.94228634059948
 30
15.3125
 11
-77.94228634059948
 21
44.99999999999999
 31
15.3125
  0
LINE
  5
D1
330
17
100
AcDbEntity
  8
0
100
AcDbLine
 10
-60.62177826491071
 20
34.99999999999999
 30
32.8125
 11
-70.0
 21
8.572527594031473e-15
 31
32.8125
  0
LINE
  5
D2
330
17
100
AcDbEntity
  8
0
100
AcDbLine
 10
-69.2820323027551
 20
39.99999999999999
 30
26.25
 11
-80.0
 21
9.797174393178826e-15
 31
26.25
  0
LINE
  5
D3
330
17
100
AcDbEntity
  8
0
100
AcDbLine
 10
-77.94228634059948
 20
44.99999999999999
 30
15.3125
 11
-90.0
 21
1.1021821192326179e-14
 31
15.3125
  0
LINE
  5
D4
330
17
100
AcDbEntity
  8
0
100
AcDbLine
 10
-70.0
 20
8.572527594031473e-15
 30
32.8125
 11
-60.6217782649107
 21
-35.00000000000001
 31
32.8125
  0
LINE
  5
D5
330
17
100
AcDbEntity
  8
0
100
AcDbLine
 10
-80.0
 20
9.797174393178826e-15
 30
26.25
 11
-69.28203230275508
 21
-40.00000000000001
 31
26.25
  0
LINE
  5
D6
330
17
100
AcDbEntity
  8
0
100
AcDbLine
 10
-90.0
 20
1.1021821192326179e-14
 30
15.3125
 11
-77.94228634059948
 21
-45.00000000000001
 31
15.3125
  0
LINE
  5
D7
330
17
100
AcDbEntity
  8
0
100
AcDbLine
 10
-60.6217782649107
 20
-35.00000000000001
 30
32.8125
 11
-35.00000000000003
 21
-60.62177826491069
 31
32.8125
  0
LINE
  5
D8
330
17
100
AcDbEntity
  8
0
100
AcDbLine
 10
-69.28203230275508
 20
-40.00000000000001
 30
26.25
 11
-40.000000000000036
 21
-69.28203230275507
 31
26.25
  0
LINE
  5
D9
330
17
100
AcDbEntity
  8
0
100
AcDbLine
 10
-77.94228634059948
 20
-45.00000000000001
 30
15.3125
 11
-45.00000000000004
 21
-77.94228634059945
 31
15.3125
  0
LINE
  5
DA
330
17
100
AcDbEntity
  8
0
100
AcDbLine
 10
-35.00000000000003
 20
-60.62177826491069
 30
32.8125
 11
-1.2858791391047208e-14
 21
-70.0
 31
32.8125
  0
LINE
  5
DB
330
17
100
AcDbEntity
  8
0
100
AcDbLine
 10
-40.000000000000036
 20
-69.28203230275507
 30
26.25
 11
-1.4695761589768237e-14
 21
-80.0
 31
26.25
  0
LINE
  5
DC
330
17
100
AcDbEntity
  8
0
100
AcDbLine
 10
-45.00000000000004
 20
-77.94228634059945
 30
15.3125
 11
-1.6532731788489267e-14
 21
-90.0
 31
15.3125
  0
LINE
  5
DD
330
17
100
AcDbEntity
  8
0
100
AcDbLine
 10
-1.2858791391047208e-14
 20
-70.0
 30
32.8125
 11
35.00000000000001
 21
-60.6217782649107
 31
32.8125
  0
LINE
  5
DE
330
17
100
AcDbEntity
  8
0
100
AcDbLine
 10
-1.4695761589768237e-14
 20
-80.0
 30
26.25
 11
40.00000000000001
 21
-69.28203230275508
 31
26.25
  0
LINE
  5
DF
330
17
100
AcDbEntity
  8
0
100
AcDbLine
 10
-1.6532731788489267e-14
 20
-90.0
 30
15.3125
 11
45.00000000000001
 21
-77.94228634059948
 31
15.3125
  0
LINE
  5
E0
330
17
100
AcDbEntity
  8
0
100
AcDbLine
 10
35.00000000000001
 20
-60.6217782649107
 30
32.8125
 11
60.62177826491069
 21
-35.00000000000003
 31
32.8125
  0
LINE
  5
E1
330
17
100
AcDbEntity
  8
0
100
AcDbLine
 10
40.00000000000001
 20
-69.28203230275508
 30
26.25
 11
69.28203230275507
 21
-40.000000000000036
 31
26.25
  0
LINE
  5
E2
330
17
100
AcDbEntity
  8
0
100
AcDbLine
 10
45.00000000000001
 20
-77.94228634059948
 30
15.3125
 11
77.94228634059945
 21
-45.00000000000004
 31
15.3125
  0
LINE
  5
E3
330
17
100
AcDbEntity
  8
0
100
AcDbLine
 10
60.62177826491069
 20
-35.00000000000003
 30
32.8125
 11
70.0
 21
0.0
 31
32.8125
  0
LINE
  5
E4
330
17
100
AcDbEntity
  8
0
100
AcDbLine
 10
69.28203230275507
 20
-40.000000000000036
 30
26.25
 11
80.0
 21
0.0
 31
26.25
  0
LINE
  5
E5
330
17
100
AcDbEntity
  8
0
100
AcDbLine
 10
77.94228634059945
 20
-45.00000000000004
 30
15.3125
 11
90.0
 21
0.0
 31
15.3125
  0
POINT
  5
E6
330
17
100
AcDbEntity
  8
0
 62
3
100
AcDbPoint
 10
70.0
 20
0.0
 30
32.8125
  0
POINT
  5
E7
330
17
100
AcDbEntity
  8
0
 62
3
100
AcDbPoint
 10
60.62177826491071
 20
34.99999999999999
 30
32.8125
  0
POINT
  5
E8
330
17
100
AcDbEntity
  8
0
 62
3
100
AcDbPoint
 10
35.00000000000001
 20
60.6217782649107
 30
32.8125
  0
POINT
  5
E9
330
17
100
AcDbEntity
  8
0
 62
3
100
AcDbPoint
 10
4.2862637970157365e-15
 20
70.0
 30
32.8125
  0
POINT
  5
EA
330
17
100
AcDbEntity
  8
0
 62
3
100
AcDbPoint
 10
-34.999999999999986
 20
60.62177826491071
 30
32.8125
  0
POINT
  5
EB
330
17
100
AcDbEntity
  8
0
 62
3
100
AcDbPoint
 10
-60.62177826491071
 20
34.99999999999999
 30
32.8125
  0
POINT
  5
EC
330
17
100
AcDbEntity
  8
0
 62
3
100
AcDbPoint
 10
-70.0
 20
8.572527594031473e-15
 30
32.8125
  0
POINT
  5
ED
330
17
100
AcDbEntity
  8
0
 62
3
100
AcDbPoint
 10
-60.6217782649107
 20
-35.00000000000001
 30
32.8125
  0
POINT
  5
EE
330
17
100
AcDbEntity
  8
0
 62
3
100
AcDbPoint
 10
-35.00000000000003
 20
-60.62177826491069
 30
32.8125
  0
POINT
  5
EF
330
17
100
AcDbEntity
  8
0
 62
3
100
AcDbPoint
 10
-1.2858791391047208e-14
 20
-70.0
 30
32.8125
  0
POINT
  5
F0
330
17
100
AcDbEntity
  8
0
 62
3
100
AcDbPoint
 10
35.00000000000001
 20
-60.6217782649107
 30
32.8125
  0
POINT
  5
F1
330
17
100
AcDbEntity
  8
0
 62
3
100
AcDbPoint
 10
60.62177826491069
 20
-35.00000000000003
 30
32.8125
  0
POINT
  5
F2
330
17
100
AcDbEntity
  8
0
 62
4
100
AcDbPoint
 10
80.0
 20
0.0
 30
26.25
  0
POINT
  5
F3
330
17
100
AcDbEntity
  8
0
 62
4
100
AcDbPoint
 10
69.2820323027551
 20
39.99999999999999
 30
26.25
  0
POINT
  5
F4
330
17
100
AcDbEntity
  8
0
 62
4
100
AcDbPoint
 10
40.00000000000001
 20
69.28203230275508
 30
26.25
  0
POINT
  5
F5
330
17
100
AcDbEntity
  8
0
 62
4
100
AcDbPoint
 10
4.898587196589413e-15
 20
80.0
 30
26.25
  0
POINT
  5
F6
330
17
100
AcDbEntity
  8
0
 62
4
100
AcDbPoint
 10
-39.999999999999986
 20
69.2820323027551
 30
26.25
  0
POINT
  5
F7
330
17
100
AcDbEntity
  8
0
 62
4
100
AcDbPoint
 10
-69.2820323027551
 20
39.99999999999999
 30
26.25
  0
POINT
  5
F8
330
17
100
AcDbEntity
  8
0
 62
4
100
AcDbPoint
 10
-80.0
 20
9.797174393178826e-15
 30
26.25
  0
POINT
  5
F9
330
17
100
AcDbEntity
  8
0
 62
4
100
AcDbPoint
 10
-69.28203230275508
 20
-40.00000000000001
 30
26.25
  0
POINT
  5
FA
330
17
100
AcDbEntity
  8
0
 62
4
100
AcDbPoint
 10
-40.000000000000036
 20
-69.28203230275507
 30
26.25
  0
POINT
  5
FB
330
17
100
AcDbEntity
  8
0
 62
4
100
AcDbPoint
 10
-1.4695761589768237e-14
 20
-80.0
 30
26.25
  0
POINT
  5
FC
330
17
100
AcDbEntity
  8
0
 62
4
100
AcDbPoint
 10
40.00000000000001
 20
-69.28203230275508
 30
26.25
  0
POINT
  5
FD
330
17
100
AcDbEntity
  8
0
 62
4
100
AcDbPoint
 10
69.28203230275507
 20
-40.000000000000036
 30
26.25
  0
POINT
  5
FE
330
17
100
AcDbEntity
  8
0
 62
5
100
AcDbPoint
 10
90.0
 20
0.0
 30
15.3125
  0
POINT
  5
FF
330
17
100
AcDbEntity
  8
0
 62
5
100
AcDbPoint
 10
77.94228634059948
 20
44.99999999999999
 30
15.3125
  0
POINT
  5
100
330
17
100
AcDbEntity
  8
0
 62
5
100
AcDbPoint
 10
45.00000000000001
 20
77.94228634059948
 30
15.3125
  0
POINT
  5
101
330
17
100
AcDbEntity
  8
0
 62
5
100
AcDbPoint
 10
5.5109105961630896e-15
 20
90.0
 30
15.3125
  0
POINT
  5
102
330
17
100
AcDbEntity
  8
0
 62
5
100
AcDbPoint
 10
-44.999999999999986
 20
77.94228634059948
 30
15.3125
  0
POINT
  5
103
330
17
100
AcDbEntity
  8
0
 62
5
100
AcDbPoint
 10
-77.94228634059948
 20
44.99999999999999
 30
15.3125
  0
POINT
  5
104
330
17
100
AcDbEntity
  8
0
 62
5
100
AcDbPoint
 10
-90.0
 20
1.1021821192326179e-14
 30
15.3125
  0
POINT
  5
105
330
17
100
AcDbEntity
  8
0
 62
5
100
AcDbPoint
 10
-77.94228634059948
 20
-45.00000000000001
 30
15.3125
  0
POINT
  5
106
330
17
100
AcDbEntity
  8
0
 62
5
100
AcDbPoint
 10
-45.00000000000004
 20
-77.94228634059945
 30
15.3125
  0
POINT
  5
107
330
17
100
AcDbEntity
  8
0
 62
5
100
AcDbPoint
 10
-1.6532731788489267e-14
 20
-90.0
 30
15.3125
  0
POINT
  5
108
330
17
100
AcDbEntity
  8
0
 62
5
100
AcDbPoint
 10
45.00000000000001
 20
-77.94228634059948
 30
15.3125
  0
POINT
  5
109
330
17
100
AcDbEntity
  8
0
 62
5
100
AcDbPoint
 10
77.94228634059945
 20
-45.00000000000004
 30
15.3125
  0
LINE
  5
10A
330
17
100
AcDbEntity
  8
0
100
AcDbLine
 10
65.0
 20
0.0
 30
0.0
 11
65.0
 21
0.0
 31
32.0
  0
LINE
  5
10B
330
17
100
AcDbEntity
  8
0
100
AcDbLine
 10
3.980102097228898e-15
 20
65.0
 30
0.0
 11
3.980102097228898e-15
 21
65.0
 31
32.0
  0
LINE
  5
10C
330
17
100
AcDbEntity
  8
0
100
AcDbLine
 10
-65.0
 20
7.960204194457796e-15
 30
0.0
 11
-65.0
 21
7.960204194457796e-15
 31
32.0
  0
LINE
  5
10D
330
17
100
AcDbEntity
  8
0
100
AcDbLine
 10
-1.1940306291686693e-14
 20
-65.0
 30
0.0
 11
-1.1940306291686693e-14
 21
-65.0
 31
32.0
  0
ENDSEC
  0
SECTION
  2
OBJECTS
  0
DICTIONARY
  5
A
330
0
100
AcDbDictionary
281
1
  3
ACAD_COLOR
350
B
  3
ACAD_GROUP
350
C
  3
ACAD_LAYOUT
350
D
  3
ACAD_MATERIAL
350
E
  3
ACAD_MLEADERSTYLE
350
F
  3
ACAD_MLINESTYLE
350
10
  3
ACAD_PLOTSETTINGS
350
11
  3
ACAD_PLOTSTYLENAME
350
12
  3
ACAD_SCALELIST
350
14
  3
ACAD_TABLESTYLE
350
15
  3
ACAD_VISUALSTYLE
350
16
  3
EZDXF_META
350
2D
  0
DICTIONARY
  5
B
330
A
100
AcDbDictionary
281
1
  0
DICTIONARY
  5
C
330
A
100
AcDbDictionary
281
1
  0
DICTIONARY
  5
D
330
A
100
AcDbDictionary
281
1
  3
Model
350
1A
  3
Layout1
350
1E
  0
DICTIONARY
  5
E
330
A
100
AcDbDictionary
281
1
  3
ByBlock
350
1F
  3
ByLayer
350
20
  3
Global
350
21
  0
DICTIONARY
  5
F
330
A
100
AcDbDictionary
281
1
  3
Standard
350
2C
  0
DICTIONARY
  5
10
330
A
100
AcDbDictionary
281
1
  3
Standard
350
22
  0
DICTIONARY
  5
11
330
A
100
AcDbDictionary
281
1
  0
ACDBDICTIONARYWDFLT
  5
12
330
A
100
AcDbDictionary
281
1
  3
Normal
350
13
100
AcDbDictionaryWithDefault
340
13
  0
ACDBPLACEHOLDER
  5
13
330
12
  0
DICTIONARY
  5
14
330
A
100
AcDbDictionary
281
1
  0
DICTIONARY
  5
15
330
A
100
AcDbDictionary
281
1
  0
DICTIONARY
  5
16
330
A
100
AcDbDictionary
281
1
  0
LAYOUT
  5
1A
330
D
100
AcDbPlotSettings
  1

  4
A3
  6

 40
7.5
 41
20.0
 42
7.5
 43
20.0
 44
420.0
 45
297.0
 46
0.0
 47
0.0
 48
0.0
 49
0.0
140
0.0
141
0.0
142
1.0
143
1.0
 70
1024
 72
1
 73
0
 74
5
  7

 75
16
 76
0
 77
2
 78
300
147
1.0
148
0.0
149
0.0
100
AcDbLayout
  1
Model
 70
1
 71
0
 10
0.0
 20
0.0
 11
420.0
 21
297.0
 12
0.0
 22
0.0
 32
0.0
 14
1e+20
 24
1e+20
 34
1e+20
 15
-1e+20
 25
-1e+20
 35
-1e+20
146
0.0
 13
0.0
 23
0.0
 33
0.0
 16
1.0
 26
0.0
 36
0.0
 17
0.0
 27
1.0
 37
0.0
 76
1
330
17
  0
LAYOUT
  5
1E
330
D
100
AcDbPlotSettings
  1

  4
A3
  6

 40
7.5
 41
20.0
 42
7.5
 43
20.0
 44
420.0
 45
297.0
 46
0.0
 47
0.0
 48
0.0
 49
0.0
140
0.0
141
0.0
142
1.0
143
1.0
 70
0
 72
1
 73
0
 74
5
  7

 75
16
 76
0
 77
2
 78
300
147
1.0
148
0.0
149
0.0
100
AcDbLayout
  1
Layout1
 70
1
 71
1
 10
0.0
 20
0.0
 11
420.0
 21
297.0
 12
0.0
 22
0.0
 32
0.0
 14
1e+20
 24
1e+20
 34
1e+20
 15
-1e+20
 25
-1e+20
 35
-1e+20
146
0.0
 13
0.0
 23
0.0
 33
0.0
 16
1.0
 26
0.0
 36
0.0
 17
0.0
 27
1.0
 37
0.0
 76
1
330
1B
  0
MATERIAL
  5
1F
102
{ACAD_REACTORS
330
E
102
}
330
E
100
AcDbMaterial
  1
ByBlock
  2

 70
0
 40
1.0
 71
1
 41
1.0
 91
-1023410177
 42
1.0
 72
1
  3

 73
1
 74
1
 75
1
 44
0.5
 73
0
 45
1.0
 46
1.0
 77
1
  4

 78
1
 79
1
170
1
 48
1.0
171
1
  6

172
1
173
1
174
1
140
1.0
141
1.0
175
1
  7

176
1
177
1
178
1
143
1.0
179
1
  8

270
1
271
1
272
1
145
1.0
146
1.0
273
1
  9

274
1
275
1
276
1
 42
1.0
 72
1
  3

 73
1
 74
1
 75
1
 94
63
  0
MATERIAL
  5
20
102
{ACAD_REACTORS
330
E
102
}
330
E
100
AcDbMaterial
  1
ByLayer
  2

 70
0
 40
1.0
 71
1
 41
1.0
 91
-1023410177
 42
1.0
 72
1
  3

 73
1
 74
1
 75
1
 44
0.5
 73
0
 45
1.0
 46
1.0
 77
1
  4

 78
1
 79
1
170
1
 48
1.0
171
1
  6

172
1
173
1
174
1
140
1.0
141
1.0
175
1
  7

176
1
177
1
178
1
143
1.0
179
1
  8

270
1
271
1
272
1
145
1.0
146
1.0
273
1
  9

274
1
275
1
276
1
 42
1.0
 72
1
  3

 73
1
 74
1
 75
1
 94
63
  0
MATERIAL
  5
21
102
{ACAD_REACTORS
330
E
102
}
330
E
100
AcDbMaterial
  1
Global
  2

 70
0
 40
1.0
 71
1
 41
1.0
 91
-1023410177
 42
1.0
 72
1
  3

 73
1
 74
1
 75
1
 44
0.5
 73
0
 45
1.0
 46
1.0
 77
1
  4

 78
1
 79
1
170
1
 48
1.0
171
1
  6

172
1
173
1
174
1
140
1.0
141
1.0
175
1
  7

176
1
177
1
178
1
143
1.0
179
1
  8

270
1
271
1
272
1
145
1.0
146
1.0
273
1
  9

274
1
275
1
276
1
 42
1.0
 72
1
  3

 73
1
 74
1
 75
1
 94
63
  0
MLINESTYLE
  5
22
102
{ACAD_REACTORS
330
10
102
}
330
10
100
AcDbMlineStyle
  2
Standard
 70
0
  3

 62
256
 51
90.0
 52
90.0
 71
2
 49
0.5
 62
256
  6
BYLAYER
 49
-0.5
 62
256
  6
BYLAYER
  0
MLEADERSTYLE
  5
2C
102
{ACAD_REACTORS
330
F
102
}
330
F
100
AcDbMLeaderStyle
179
2
170
2
171
1
172
0
 90
2
 40
0.0
 41
0.0
173
1
 91
-1056964608
 92
-2
290
1
 42
2.0
291
1
 43
8.0
  3
Standard
 44
4.0
300

342
29
174
1
175
1
176
0
178
1
 93
-1056964608
 45
4.0
292
0
297
0
 46
4.0
 94
-1056964608
 47
1.0
 49
1.0
140
1.0
294
1
141
0.0
177
0
142
1.0
295
0
296
0
143
3.75
271
0
272
9
273
9
  0
DICTIONARY
  5
2D
330
A
100
AcDbDictionary
280
1
281
1
  3
CREATED_BY_EZDXF
350
2E
  3
WRITTEN_BY_EZDXF
350
110
  0
DICTIONARYVAR
  5
2E
330
2D
100
DictionaryVariables
280
0
  1
1.4.3 @ 2025-12-16T18:53:08.165696+00:00
  0
DICTIONARYVAR
  5
110
330
2D
100
DictionaryVariables
280
0
  1
1.4.3 @ 2025-12-16T18:53:08.168724+00:00
  0
ENDSEC
  0
EOF
