  0
SECTION
  2
HEADER
  9
$ACADVER
  1
AC1027
  9
$ACADMAINTVER
 70
105
  9
$DWGCODEPAGE
  3
ANSI_1252
  9
$LASTSAVEDBY
  1
ezdxf
  9
$REQUIREDVERSIONS
160
0
  9
$INSBASE
 10
0.0
 20
0.0
 30
0.0
  9
$EXTMIN
 10
1e+20
 20
1e+20
 30
1e+20
  9
$EXTMAX
 10
-1e+20
 20
-1e+20
 30
-1e+20
  9
$LIMMIN
 10
0.0
 20
0.0
  9
$LIMMAX
 10
420.0
 20
297.0
  9
$ORTHOMODE
 70
0
  9
$REGENMODE
 70
1
  9
$FILLMODE
 70
1
  9
$QTEXTMODE
 70
0
  9
$MIRRTEXT
 70
1
  9
$LTSCALE
 40
1.0
  9
$ATTMODE
 70
1
  9
$TEXTSIZE
 40
2.5
  9
$TRACEWID
 40
1.0
  9
$TEXTSTYLE
  7
Standard
  9
$CLAYER
  8
0
  9
$CELTYPE
  6
ByLayer
  9
$CECOLOR
 62
256
  9
$CELTSCALE
 40
1.0
  9
$DISPSILH
 70
0
  9
$DIMSCALE
 40
1.0
  9
$DIMASZ
 40
2.5
  9
$DIMEXO
 40
0.625
  9
$DIMDLI
 40
3.75
  9
$DIMRND
 40
0.0
  9
$DIMDLE
 40
0.0
  9
$DIMEXE
 40
1.25
  9
$DIMTP
 40
0.0
  9
$DIMTM
 40
0.0
  9
$DIMTXT
 40
2.5
  9
$DIMCEN
 40
2.5
  9
$DIMTSZ
 40
0.0
  9
$DIMTOL
 70
0
  9
$DIMLIM
 70
0
  9
$DIMTIH
 70
0
  9
$DIMTOH
 70
0
  9
$DIMSE1
 70
0
  9
$DIMSE2
 70
0
  9
$DIMTAD
 70
1
  9
$DIMZIN
 70
8
  9
$DIMBLK
  1

  9
$DIMASO
 70
1
  9
$DIMSHO
 70
1
  9
$DIMPOST
  1

  9
$DIMAPOST
  1

  9
$DIMALT
 70
0
  9
$DIMALTD
 70
3
  9
$DIMALTF
 40
0.03937007874
  9
$DIMLFAC
 40
1.0
  9
$DIMTOFL
 70
1
  9
$DIMTVP
 40
0.0
  9
$DIMTIX
 70
0
  9
$DIMSOXD
 70
0
  9
$DIMSAH
 70
0
  9
$DIMBLK1
  1

  9
$DIMBLK2
  1

  9
$DIMSTYLE
  2
ISO-25
  9
$DIMCLRD
 70
0
  9
$DIMCLRE
 70
0
  9
$DIMCLRT
 70
0
  9
$DIMTFAC
 40
1.0
  9
$DIMGAP
 40
0.625
  9
$DIMJUST
 70
0
  9
$DIMSD1
 70
0
  9
$DIMSD2
 70
0
  9
$DIMTOLJ
 70
0
  9
$DIMTZIN
 70
8
  9
$DIMALTZ
 70
0
  9
$DIMALTTZ
 70
0
  9
$DIMUPT
 70
0
  9
$DIMDEC
 70
2
  9
$DIMTDEC
 70
2
  9
$DIMALTU
 70
2
  9
$DIMALTTD
 70
3
  9
$DIMTXSTY
  7
Standard
  9
$DIMAUNIT
 70
0
  9
$DIMADEC
 70
0
  9
$DIMALTRND
 40
0.0
  9
$DIMAZIN
 70
0
  9
$DIMDSEP
 70
44
  9
$DIMATFIT
 70
3
  9
$DIMFRAC
 70
0
  9
$DIMLDRBLK
  1

  9
$DIMLUNIT
 70
2
  9
$DIMLWD
 70
-2
  9
$DIMLWE
 70
-2
  9
$DIMTMOVE
 70
0
  9
$DIMFXL
 40
1.0
  9
$DIMFXLON
 70
0
  9
$DIMJOGANG
 40
0.785398163397
  9
$DIMTFILL
 70
0
  9
$DIMTFILLCLR
 70
0
  9
$DIMARCSYM
 70
0
  9
$DIMLTYPE
  6

  9
$DIMLTEX1
  6

  9
$DIMLTEX2
  6

  9
$DIMTXTDIRECTION
 70
0
  9
$LUNITS
 70
2
  9
$LUPREC
 70
4
  9
$SKETCHINC
 40
1.0
  9
$FILLETRAD
 40
10.0
  9
$AUNITS
 70
0
  9
$AUPREC
 70
2
  9
$MENU
  1
.
  9
$ELEVATION
 40
0.0
  9
$PELEVATION
 40
0.0
  9
$THICKNESS
 40
0.0
  9
$LIMCHECK
 70
0
  9
$CHAMFERA
 40
0.0
  9
$CHAMFERB
 40
0.0
  9
$CHAMFERC
 40
0.0
  9
$CHAMFERD
 40
0.0
  9
$SKPOLY
 70
0
  9
$TDCREATE
 40
2461026.9547222224
  9
$TDUCREATE
 40
2458532.153996898
  9
$TDUPDATE
 40
2461026.9547222224
  9
$TDUUPDATE
 40
2458532.1544311
  9
$TDINDWG
 40
0.0
  9
$TDUSRTIMER
 40
0.0
  9
$USRTIMER
 70
1
  9
$ANGBASE
 50
0.0
  9
$ANGDIR
 70
0
  9
$PDMODE
 70
0
  9
$PDSIZE
 40
0.0
  9
$PLINEWID
 40
0.0
  9
$SPLFRAME
 70
0
  9
$SPLINETYPE
 70
6
  9
$SPLINESEGS
 70
8
  9
$HANDSEED
  5
F4
  9
$SURFTAB1
 70
6
  9
$SURFTAB2
 70
6
  9
$SURFTYPE
 70
6
  9
$SURFU
 70
6
  9
$SURFV
 70
6
  9
$UCSBASE
  2

  9
$UCSNAME
  2

  9
$UCSORG
 10
0.0
 20
0.0
 30
0.0
  9
$UCSXDIR
 10
1.0
 20
0.0
 30
0.0
  9
$UCSYDIR
 10
0.0
 20
1.0
 30
0.0
  9
$UCSORTHOREF
  2

  9
$UCSORTHOVIEW
 70
0
  9
$UCSORGTOP
 10
0.0
 20
0.0
 30
0.0
  9
$UCSORGBOTTOM
 10
0.0
 20
0.0
 30
0.0
  9
$UCSORGLEFT
 10
0.0
 20
0.0
 30
0.0
  9
$UCSORGRIGHT
 10
0.0
 20
0.0
 30
0.0
  9
$UCSORGFRONT
 10
0.0
 20
0.0
 30
0.0
  9
$UCSORGBACK
 10
0.0
 20
0.0
 30
0.0
  9
$PUCSBASE
  2

  9
$PUCSNAME
  2

  9
$PUCSORG
 10
0.0
 20
0.0
 30
0.0
  9
$PUCSXDIR
 10
1.0
 20
0.0
 30
0.0
  9
$PUCSYDIR
 10
0.0
 20
1.0
 30
0.0
  9
$PUCSORTHOREF
  2

  9
$PUCSORTHOVIEW
 70
0
  9
$PUCSORGTOP
 10
0.0
 20
0.0
 30
0.0
  9
$PUCSORGBOTTOM
 10
0.0
 20
0.0
 30
0.0
  9
$PUCSORGLEFT
 10
0.0
 20
0.0
 30
0.0
  9
$PUCSORGRIGHT
 10
0.0
 20
0.0
 30
0.0
  9
$PUCSORGFRONT
 10
0.0
 20
0.0
 30
0.0
  9
$PUCSORGBACK
 10
0.0
 20
0.0
 30
0.0
  9
$USERI1
 70
0
  9
$USERI2
 70
0
  9
$USERI3
 70
0
  9
$USERI4
 70
0
  9
$USERI5
 70
0
  9
$USERR1
 40
0.0
  9
$USERR2
 40
0.0
  9
$USERR3
 40
0.0
  9
$USERR4
 40
0.0
  9
$USERR5
 40
0.0
  9
$WORLDVIEW
 70
1
  9
$SHADEDGE
 70
3
  9
$SHADEDIF
 70
70
  9
$TILEMODE
 70
1
  9
$MAXACTVP
 70
64
  9
$PINSBASE
 10
0.0
 20
0.0
 30
0.0
  9
$PLIMCHECK
 70
0
  9
$PEXTMIN
 10
1e+20
 20
1e+20
 30
1e+20
  9
$PEXTMAX
 10
-1e+20
 20
-1e+20
 30
-1e+20
  9
$PLIMMIN
 10
0.0
 20
0.0
  9
$PLIMMAX
 10
420.0
 20
297.0
  9
$UNITMODE
 70
0
  9
$VISRETAIN
 70
1
  9
$PLINEGEN
 70
0
  9
$PSLTSCALE
 70
1
  9
$TREEDEPTH
 70
3020
  9
$CMLSTYLE
  2
Standard
  9
$CMLJUST
 70
0
  9
$CMLSCALE
 40
20.0
  9
$PROXYGRAPHICS
 70
1
  9
$MEASUREMENT
 70
1
  9
$CELWEIGHT
370
-1
  9
$ENDCAPS
280
0
  9
$JOINSTYLE
280
0
  9
$LWDISPLAY
290
0
  9
$INSUNITS
 70
6
  9
$HYPERLINKBASE
  1

  9
$STYLESHEET
  1

  9
$XEDIT
290
1
  9
$CEPSNTYPE
380
0
  9
$PSTYLEMODE
290
1
  9
$FINGERPRINTGUID
  2
{5B5DCD02-159E-4DF0-8ACF-6AB52D80EDD7}
  9
$VERSIONGUID
  2
{3226966F-0F6E-46F0-A2C2-1B37A5A51DC5}
  9
$EXTNAMES
290
1
  9
$PSVPSCALE
 40
0.0
  9
$OLESTARTUP
290
0
  9
$SORTENTS
280
127
  9
$INDEXCTL
280
0
  9
$HIDETEXT
280
1
  9
$XCLIPFRAME
280
1
  9
$HALOGAP
280
0
  9
$OBSCOLOR
 70
257
  9
$OBSLTYPE
280
0
  9
$INTERSECTIONDISPLAY
280
0
  9
$INTERSECTIONCOLOR
 70
257
  9
$DIMASSOC
280
2
  9
$PROJECTNAME
  1

  9
$CAMERADISPLAY
290
0
  9
$LENSLENGTH
 40
50.0
  9
$CAMERAHEIGHT
 40
0.0
  9
$STEPSPERSEC
 40
24.0
  9
$STEPSIZE
 40
100.0
  9
$3DDWFPREC
 40
2.0
  9
$PSOLWIDTH
 40
0.005
  9
$PSOLHEIGHT
 40
0.08
  9
$LOFTANG1
 40
1.570796326795
  9
$LOFTANG2
 40
1.570796326795
  9
$LOFTMAG1
 40
0.0
  9
$LOFTMAG2
 40
0.0
  9
$LOFTPARAM
 70
7
  9
$LOFTNORMALS
280
1
  9
$LATITUDE
 40
37.795
  9
$LONGITUDE
 40
-122.394
  9
$NORTHDIRECTION
 40
0.0
  9
$TIMEZONE
 70
-8000
  9
$LIGHTGLYPHDISPLAY
280
1
  9
$TILEMODELIGHTSYNCH
280
1
  9
$CMATERIAL
347
20
  9
$SOLIDHIST
280
0
  9
$SHOWHIST
280
1
  9
$DWFFRAME
280
2
  9
$DGNFRAME
280
2
  9
$REALWORLDSCALE
290
1
  9
$INTERFERECOLOR
 62
256
  9
$CSHADOW
280
0
  9
$SHADOWPLANELOCATION
 40
0.0
  0
ENDSEC
  0
SECTION
  2
CLASSES
  0
CLASS
  1
ACDBDICTIONARYWDFLT
  2
AcDbDictionaryWithDefault
  3
ObjectDBX Classes
 90
0
 91
0
280
0
281
0
  0
CLASS
  1
SUN
  2
AcDbSun
  3
SCENEOE
 90
1153
 91
0
280
0
281
0
  0
CLASS
  1
VISUALSTYLE
  2
AcDbVisualStyle
  3
ObjectDBX Classes
 90
4095
 91
0
280
0
281
0
  0
CLASS
  1
MATERIAL
  2
AcDbMaterial
  3
ObjectDBX Classes
 90
1153
 91
0
280
0
281
0
  0
CLASS
  1
SCALE
  2
AcDbScale
  3
ObjectDBX Classes
 90
1153
 91
0
280
0
281
0
  0
CLASS
  1
TABLESTYLE
  2
AcDbTableStyle
  3
ObjectDBX Classes
 90
4095
 91
0
280
0
281
0
  0
CLASS
  1
MLEADERSTYLE
  2
AcDbMLeaderStyle
  3
ACDB_MLEADERSTYLE_CLASS
 90
4095
 91
0
280
0
281
0
  0
CLASS
  1
DICTIONARYVAR
  2
AcDbDictionaryVar
  3
ObjectDBX Classes
 90
0
 91
0
280
0
281
0
  0
CLASS
  1
CELLSTYLEMAP
  2
AcDbCellStyleMap
  3
ObjectDBX Classes
 90
1152
 91
0
280
0
281
0
  0
CLASS
  1
MENTALRAYRENDERSETTINGS
  2
AcDbMentalRayRenderSettings
  3
SCENEOE
 90
1024
 91
0
280
0
281
0
  0
CLASS
  1
ACDBDETAILVIEWSTYLE
  2
AcDbDetailViewStyle
  3
ObjectDBX Classes
 90
1025
 91
0
280
0
281
0
  0
CLASS
  1
ACDBSECTIONVIEWSTYLE
  2
AcDbSectionViewStyle
  3
ObjectDBX Classes
 90
1025
 91
0
280
0
281
0
  0
CLASS
  1
RASTERVARIABLES
  2
AcDbRasterVariables
  3
ISM
 90
0
 91
0
280
0
281
0
  0
CLASS
  1
LAYOUT
  2
AcDbLayout
  3
ObjectDBX Classes
 90
0
 91
0
280
0
281
0
  0
CLASS
  1
ACDBPLACEHOLDER
  2
AcDbPlaceHolder
  3
ObjectDBX Classes
 90
0
 91
0
280
0
281
0
  0
ENDSEC
  0
SECTION
  2
TABLES
  0
TABLE
  2
VPORT
  5
8
330
0
100
AcDbSymbolTable
 70
1
  0
VPORT
  5
23
330
8
100
AcDbSymbolTableRecord
100
AcDbViewportTableRecord
  2
*Active
 70
0
 10
0.0
 20
0.0
 11
1.0
 21
1.0
 12
0.0
 22
0.0
 13
0.0
 23
0.0
 14
0.5
 24
0.5
 15
0.5
 25
0.5
 16
0.0
 26
0.0
 36
1.0
 17
0.0
 27
0.0
 37
0.0
 40
1000.0
 41
1.34
 42
50.0
 43
0.0
 44
0.0
 50
0.0
 51
0.0
 71
0
 72
1000
 73
1
 74
3
 75
0
 76
0
 77
0
 78
0
281
0
 65
0
146
0.0
  0
ENDTAB
  0
TABLE
  2
LTYPE
  5
2
330
0
100
AcDbSymbolTable
 70
3
  0
LTYPE
  5
24
330
2
100
AcDbSymbolTableRecord
100
AcDbLinetypeTableRecord
  2
ByBlock
 70
0
  3

 72
65
 73
0
 40
0.0
  0
LTYPE
  5
25
330
2
100
AcDbSymbolTableRecord
100
AcDbLinetypeTableRecord
  2
ByLayer
 70
0
  3

 72
65
 73
0
 40
0.0
  0
LTYPE
  5
26
330
2
100
AcDbSymbolTableRecord
100
AcDbLinetypeTableRecord
  2
Continuous
 70
0
  3

 72
65
 73
0
 40
0.0
  0
ENDTAB
  0
TABLE
  2
LAYER
  5
1
330
0
100
AcDbSymbolTable
 70
2
  0
LAYER
  5
27
330
1
100
AcDbSymbolTableRecord
100
AcDbLayerTableRecord
  2
0
 70
0
 62
7
  6
Continuous
370
-3
390
13
347
21
  0
LAYER
  5
28
330
1
100
AcDbSymbolTableRecord
100
AcDbLayerTableRecord
  2
Defpoints
 70
0
 62
7
  6
Continuous
290
0
370
-3
390
13
347
21
  0
ENDTAB
  0
TABLE
  2
STYLE
  5
5
330
0
100
AcDbSymbolTable
 70
1
  0
STYLE
  5
29
330
5
100
AcDbSymbolTableRecord
100
AcDbTextStyleTableRecord
  2
Standard
 70
0
 40
0.0
 41
1.0
 50
0.0
 71
0
 42
2.5
  3
txt
  4

  0
ENDTAB
  0
TABLE
  2
VIEW
  5
7
330
0
100
AcDbSymbolTable
 70
0
  0
ENDTAB
  0
TABLE
  2
UCS
  5
6
330
0
100
AcDbSymbolTable
 70
0
  0
ENDTAB
  0
TABLE
  2
APPID
  5
3
330
0
100
AcDbSymbolTable
 70
3
  0
APPID
  5
2A
330
3
100
AcDbSymbolTableRecord
100
AcDbRegAppTableRecord
  2
ACAD
 70
0
  0
APPID
  5
F1
330
3
100
AcDbSymbolTableRecord
100
AcDbRegAppTableRecord
  2
HATCHBACKGROUNDCOLOR
 70
0
  0
APPID
  5
F2
330
3
100
AcDbSymbolTableRecord
100
AcDbRegAppTableRecord
  2
EZDXF
 70
0
  0
ENDTAB
  0
TABLE
  2
DIMSTYLE
  5
4
330
0
100
AcDbSymbolTable
 70
1
100
AcDbDimStyleTable
  0
DIMSTYLE
105
2B
330
4
100
AcDbSymbolTableRecord
100
AcDbDimStyleTableRecord
  2
Standard
 70
0
 40
1.0
 41
2.5
 42
0.625
 43
3.75
 44
1.25
 45
0.0
 46
0.0
 47
0.0
 48
0.0
 49
2.5
140
2.5
141
2.5
142
0.0
143
0.03937007874
144
1.0
145
0.0
146
1.0
147
0.625
148
0.0
 69
0
 70
0
 71
0
 72
0
 73
0
 74
0
 75
0
 76
0
 77
1
 78
8
 79
3
170
0
171
3
172
1
173
0
174
0
175
0
176
0
177
0
178
0
179
2
271
2
272
2
273
2
274
3
275
0
276
0
277
2
278
44
279
0
280
0
281
0
282
0
283
0
284
8
285
0
286
0
288
0
289
3
290
0
371
-2
372
-2
  0
ENDTAB
  0
TABLE
  2
BLOCK_RECORD
  5
9
330
0
100
AcDbSymbolTable
 70
2
  0
BLOCK_RECORD
  5
17
330
9
100
AcDbSymbolTableRecord
100
AcDbBlockTableRecord
  2
*Model_Space
340
1A
 70
0
280
1
281
0
  0
BLOCK_RECORD
  5
1B
330
9
100
AcDbSymbolTableRecord
100
AcDbBlockTableRecord
  2
*Paper_Space
340
1E
 70
0
280
1
281
0
  0
ENDTAB
  0
ENDSEC
  0
SECTION
  2
BLOCKS
  0
BLOCK
  5
18
330
17
100
AcDbEntity
  8
0
100
AcDbBlockBegin
  2
*Model_Space
 70
0
 10
0.0
 20
0.0
 30
0.0
  3
*Model_Space
  1

  0
ENDBLK
  5
19
330
17
100
AcDbEntity
  8
0
100
AcDbBlockEnd
  0
BLOCK
  5
1C
330
1B
100
AcDbEntity
  8
0
100
AcDbBlockBegin
  2
*Paper_Space
 70
0
 10
0.0
 20
0.0
 30
0.0
  3
*Paper_Space
  1

  0
ENDBLK
  5
1D
330
1B
100
AcDbEntity
  8
0
100
AcDbBlockEnd
  0
ENDSEC
  0
SECTION
  2
ENTITIES
  0
LINE
  5
2F
330
17
100
AcDbEntity
  8
SPINE
 62
1
100
AcDbLine
 10
3.0
 20
0.0
 30
0.0
 11
2.4270509831248424
 21
1.7633557568774194
 31
0.5
  0
LINE
  5
30
330
17
100
AcDbEntity
  8
SPINE
 62
1
100
AcDbLine
 10
2.4270509831248424
 20
1.7633557568774194
 30
0.5
 11
0.9270509831248424
 21
2.8531695488854605
 31
1.0
  0
LINE
  5
31
330
17
100
AcDbEntity
  8
SPINE
 62
1
100
AcDbLine
 10
0.9270509831248424
 20
2.8531695488854605
 30
1.0
 11
-0.927050983124842
 21
2.853169548885461
 31
1.5
  0
LINE
  5
32
330
17
100
AcDbEntity
  8
SPINE
 62
1
100
AcDbLine
 10
-0.927050983124842
 20
2.853169548885461
 30
1.5
 11
-2.427050983124842
 21
1.7633557568774196
 31
2.0
  0
LINE
  5
33
330
17
100
AcDbEntity
  8
SPINE
 62
1
100
AcDbLine
 10
-2.427050983124842
 20
1.7633557568774196
 30
2.0
 11
-3.0
 21
3.6739403974420594e-16
 31
2.5
  0
LINE
  5
34
330
17
100
AcDbEntity
  8
SPINE
 62
1
100
AcDbLine
 10
-3.0
 20
3.6739403974420594e-16
 30
2.5
 11
-2.4270509831248424
 21
-1.7633557568774192
 31
3.0
  0
LINE
  5
35
330
17
100
AcDbEntity
  8
SPINE
 62
1
100
AcDbLine
 10
-2.4270509831248424
 20
-1.7633557568774192
 30
3.0
 11
-0.9270509831248427
 21
-2.8531695488854605
 31
3.5
  0
LINE
  5
36
330
17
100
AcDbEntity
  8
SPINE
 62
1
100
AcDbLine
 10
-0.9270509831248427
 20
-2.8531695488854605
 30
3.5
 11
0.9270509831248417
 21
-2.853169548885461
 31
4.0
  0
LINE
  5
37
330
17
100
AcDbEntity
  8
SPINE
 62
1
100
AcDbLine
 10
0.9270509831248417
 20
-2.853169548885461
 30
4.0
 11
2.427050983124842
 21
-1.76335575687742
 31
4.5
  0
LINE
  5
38
330
17
100
AcDbEntity
  8
SPINE
 62
1
100
AcDbLine
 10
2.427050983124842
 20
-1.76335575687742
 30
4.5
 11
3.0
 21
-7.347880794884119e-16
 31
5.0
  0
LINE
  5
39
330
17
100
AcDbEntity
  8
SPINE
 62
1
100
AcDbLine
 10
3.0
 20
-7.347880794884119e-16
 30
5.0
 11
2.427050983124841
 21
1.7633557568774207
 31
5.5
  0
LINE
  5
3A
330
17
100
AcDbEntity
  8
SPINE
 62
1
100
AcDbLine
 10
2.427050983124841
 20
1.7633557568774207
 30
5.5
 11
0.9270509831248432
 21
2.8531695488854605
 31
6.0
  0
LINE
  5
3B
330
17
100
AcDbEntity
  8
SPINE
 62
1
100
AcDbLine
 10
0.9270509831248432
 20
2.8531695488854605
 30
6.0
 11
-0.9270509831248414
 21
2.853169548885461
 31
6.5
  0
LINE
  5
3C
330
17
100
AcDbEntity
  8
SPINE
 62
1
100
AcDbLine
 10
-0.9270509831248414
 20
2.853169548885461
 30
6.5
 11
-2.4270509831248415
 21
1.76335575687742
 31
7.0
  0
LINE
  5
3D
330
17
100
AcDbEntity
  8
SPINE
 62
1
100
AcDbLine
 10
-2.4270509831248415
 20
1.76335575687742
 30
7.0
 11
-3.0
 21
1.102182119232618e-15
 31
7.5
  0
LINE
  5
3E
330
17
100
AcDbEntity
  8
SPINE
 62
1
100
AcDbLine
 10
-3.0
 20
1.102182119232618e-15
 30
7.5
 11
-2.4270509831248432
 21
-1.7633557568774183
 31
8.0
  0
LINE
  5
3F
330
17
100
AcDbEntity
  8
SPINE
 62
1
100
AcDbLine
 10
-2.4270509831248432
 20
-1.7633557568774183
 30
8.0
 11
-0.9270509831248435
 21
-2.85316954888546
 31
8.5
  0
LINE
  5
40
330
17
100
AcDbEntity
  8
SPINE
 62
1
100
AcDbLine
 10
-0.9270509831248435
 20
-2.85316954888546
 30
8.5
 11
0.927050983124841
 21
-2.8531695488854614
 31
9.0
  0
LINE
  5
41
330
17
100
AcDbEntity
  8
SPINE
 62
1
100
AcDbLine
 10
0.927050983124841
 20
-2.8531695488854614
 30
9.0
 11
2.4270509831248415
 21
-1.7633557568774205
 31
9.5
  0
LWPOLYLINE
  5
42
330
17
100
AcDbEntity
  8
TREADS
 62
3
100
AcDbPolyline
 90
9
 70
0
 10
2.5
 20
0.0
 10
2.498072590601807
 20
0.09814953939767153
 10
2.4922933343328197
 20
0.19614773931961235
 10
2.4826711423873156
 20
0.2938434936445941
 10
2.4692208514878446
 20
0.39108616260057716
 10
2.451963201008076
 20
0.4877258050403206
 10
2.4309248009941915
 20
0.5836134096397635
 10
2.4061380911341184
 20
0.6786011246626856
 10
2.3776412907378837
 20
0.7725424859373685
  0
LWPOLYLINE
  5
43
330
17
100
AcDbEntity
  8
TREADS
 62
3
100
AcDbPolyline
 90
9
 70
0
 10
3.5
 20
0.0
 10
3.49730162684253
 20
0.13740935515674013
 10
3.489210668065948
 20
0.2746068350474573
 10
3.475739599342242
 20
0.41138089110243176
 10
3.456909192082982
 20
0.547520627640808
 10
3.4327484814113065
 20
0.6828161270564489
 10
3.403294721391868
 20
0.8170587734956689
 10
3.3685933275877655
 20
0.95004157452776
 10
3.3286978070330373
 20
1.0815594803123159
  0
LINE
  5
44
330
17
100
AcDbEntity
  8
STRINGERS
 62
5
100
AcDbLine
 10
2.5
 20
0.0
 30
0.0
 11
3.5
 21
0.0
 31
0.0
  0
LINE
  5
45
330
17
100
AcDbEntity
  8
STRINGERS
 62
5
100
AcDbLine
 10
2.4922933343328197
 20
0.19614773931961235
 30
0.0
 11
3.489210668065948
 21
0.2746068350474573
 31
0.0
  0
LINE
  5
46
330
17
100
AcDbEntity
  8
STRINGERS
 62
5
100
AcDbLine
 10
2.4692208514878446
 20
0.39108616260057716
 30
0.0
 11
3.456909192082982
 21
0.547520627640808
 31
0.0
  0
LINE
  5
47
330
17
100
AcDbEntity
  8
STRINGERS
 62
5
100
AcDbLine
 10
2.4309248009941915
 20
0.5836134096397635
 30
0.0
 11
3.403294721391868
 21
0.8170587734956689
 31
0.0
  0
LWPOLYLINE
  5
48
330
17
100
AcDbEntity
  8
TREADS
 62
3
100
AcDbPolyline
 90
9
 70
0
 10
2.0225424859373686
 20
1.469463130731183
 40
0.5
 41
0.0
 10
1.9632923272018623
 20
1.5477348732745848
 40
0.5
 41
0.0
 10
1.9010149140000774
 20
1.6236201208254593
 40
0.5
 41
0.0
 10
1.8358062735892138
 20
1.6970018638323545
 40
0.5
 41
0.0
 10
1.7677669529663689
 20
1.7677669529663687
 40
0.5
 41
0.0
 10
1.6970018638323545
 20
1.8358062735892136
 40
0.5
 41
0.0
 10
1.6236201208254593
 20
1.9010149140000774
 40
0.5
 41
0.0
 10
1.5477348732745848
 20
1.9632923272018623
 40
0.5
 41
0.0
 10
1.469463130731183
 20
2.0225424859373686
 40
0.5
 41
0.0
  0
LWPOLYLINE
  5
49
330
17
100
AcDbEntity
  8
TREADS
 62
3
100
AcDbPolyline
 90
9
 70
0
 10
2.831559480312316
 20
2.057248383023656
 40
0.5
 41
0.0
 10
2.7486092580826074
 20
2.166828822584419
 40
0.5
 41
0.0
 10
2.6614208796001084
 20
2.2730681691556427
 40
0.5
 41
0.0
 10
2.5701287830248996
 20
2.375802609365296
 40
0.5
 41
0.0
 10
2.4748737341529163
 20
2.474873734152916
 40
0.5
 41
0.0
 10
2.375802609365296
 20
2.570128783024899
 40
0.5
 41
0.0
 10
2.2730681691556427
 20
2.6614208796001084
 40
0.5
 41
0.0
 10
2.166828822584419
 20
2.7486092580826074
 40
0.5
 41
0.0
 10
2.057248383023656
 20
2.831559480312316
 40
0.5
 41
0.0
  0
LINE
  5
4A
330
17
100
AcDbEntity
  8
STRINGERS
 62
5
100
AcDbLine
 10
2.0225424859373686
 20
1.469463130731183
 30
0.5
 11
2.831559480312316
 21
2.057248383023656
 31
0.5
  0
LINE
  5
4B
330
17
100
AcDbEntity
  8
STRINGERS
 62
5
100
AcDbLine
 10
1.9010149140000774
 20
1.6236201208254593
 30
0.5
 11
2.6614208796001084
 21
2.2730681691556427
 31
0.5
  0
LINE
  5
4C
330
17
100
AcDbEntity
  8
STRINGERS
 62
5
100
AcDbLine
 10
1.7677669529663689
 20
1.7677669529663687
 30
0.5
 11
2.4748737341529163
 21
2.474873734152916
 31
0.5
  0
LINE
  5
4D
330
17
100
AcDbEntity
  8
STRINGERS
 62
5
100
AcDbLine
 10
1.6236201208254593
 20
1.9010149140000774
 30
0.5
 11
2.2730681691556427
 21
2.6614208796001084
 31
0.5
  0
LWPOLYLINE
  5
4E
330
17
100
AcDbEntity
  8
TREADS
 62
3
100
AcDbPolyline
 90
9
 70
0
 10
0.7725424859373686
 20
2.3776412907378837
 40
1.0
 41
0.0
 10
0.6786011246626857
 20
2.4061380911341184
 40
1.0
 41
0.0
 10
0.5836134096397637
 20
2.4309248009941915
 40
1.0
 41
0.0
 10
0.4877258050403208
 20
2.451963201008076
 40
1.0
 41
0.0
 10
0.3910861626005773
 20
2.4692208514878446
 40
1.0
 41
0.0
 10
0.2938434936445943
 20
2.4826711423873156
 40
1.0
 41
0.0
 10
0.1961477393196125
 20
2.4922933343328197
 40
1.0
 41
0.0
 10
0.09814953939767167
 20
2.498072590601807
 40
1.0
 41
0.0
 10
1.5308084989341916e-16
 20
2.5
 40
1.0
 41
0.0
  0
LWPOLYLINE
  5
4F
330
17
100
AcDbEntity
  8
TREADS
 62
3
100
AcDbPolyline
 90
9
 70
0
 10
1.081559480312316
 20
3.3286978070330373
 40
1.0
 41
0.0
 10
0.9500415745277602
 20
3.3685933275877655
 40
1.0
 41
0.0
 10
0.8170587734956691
 20
3.403294721391868
 40
1.0
 41
0.0
 10
0.6828161270564491
 20
3.4327484814113065
 40
1.0
 41
0.0
 10
0.5475206276408082
 20
3.456909192082982
 40
1.0
 41
0.0
 10
0.4113808911024319
 20
3.475739599342242
 40
1.0
 41
0.0
 10
0.2746068350474575
 20
3.489210668065948
 40
1.0
 41
0.0
 10
0.13740935515674033
 20
3.49730162684253
 40
1.0
 41
0.0
 10
2.143131898507868e-16
 20
3.5
 40
1.0
 41
0.0
  0
LINE
  5
50
330
17
100
AcDbEntity
  8
STRINGERS
 62
5
100
AcDbLine
 10
0.7725424859373686
 20
2.3776412907378837
 30
1.0
 11
1.081559480312316
 21
3.3286978070330373
 31
1.0
  0
LINE
  5
51
330
17
100
AcDbEntity
  8
STRINGERS
 62
5
100
AcDbLine
 10
0.5836134096397637
 20
2.4309248009941915
 30
1.0
 11
0.8170587734956691
 21
3.403294721391868
 31
1.0
  0
LINE
  5
52
330
17
100
AcDbEntity
  8
STRINGERS
 62
5
100
AcDbLine
 10
0.3910861626005773
 20
2.4692208514878446
 30
1.0
 11
0.5475206276408082
 21
3.456909192082982
 31
1.0
  0
LINE
  5
53
330
17
100
AcDbEntity
  8
STRINGERS
 62
5
100
AcDbLine
 10
0.1961477393196125
 20
2.4922933343328197
 30
1.0
 11
0.2746068350474575
 21
3.489210668065948
 31
1.0
  0
LWPOLYLINE
  5
54
330
17
100
AcDbEntity
  8
TREADS
 62
3
100
AcDbPolyline
 90
9
 70
0
 10
-0.7725424859373684
 20
2.377641290737884
 40
1.5
 41
0.0
 10
-0.8652926426937323
 20
2.3454783398062102
 40
1.5
 41
0.0
 10
-0.9567085809127243
 20
2.309698831278217
 40
1.5
 41
0.0
 10
-1.0466493438435696
 20
2.270357934562704
 40
1.5
 41
0.0
 10
-1.1349762493488669
 20
2.2275163104709197
 40
1.5
 41
0.0
 10
-1.2215531037423877
 20
2.1812400176819926
 40
1.5
 41
0.0
 10
-1.306246411789872
 20
2.131600410885231
 40
1.5
 41
0.0
 10
-1.388925582549005
 20
2.078674030756363
 40
1.5
 41
0.0
 10
-1.4694631307311825
 20
2.0225424859373686
 40
1.5
 41
0.0
  0
LWPOLYLINE
  5
55
330
17
100
AcDbEntity
  8
TREADS
 62
3
100
AcDbPolyline
 90
9
 70
0
 10
-1.0815594803123156
 20
3.3286978070330377
 40
1.5
 41
0.0
 10
-1.2114096997712251
 20
3.2836696757286945
 40
1.5
 41
0.0
 10
-1.339392013277814
 20
3.2335783637895035
 40
1.5
 41
0.0
 10
-1.4653090813809972
 20
3.178501108387785
 40
1.5
 41
0.0
 10
-1.5889667490884136
 20
3.1185228346592875
 40
1.5
 41
0.0
 10
-1.7101743452393428
 20
3.0537360247547896
 40
1.5
 41
0.0
 10
-1.8287449765058208
 20
2.984240575239323
 40
1.5
 41
0.0
 10
-1.9444958155686067
 20
2.910143643058909
 40
1.5
 41
0.0
 10
-2.0572483830236554
 20
2.831559480312316
 40
1.5
 41
0.0
  0
LINE
  5
56
330
17
100
AcDbEntity
  8
STRINGERS
 62
5
100
AcDbLine
 10
-0.7725424859373684
 20
2.377641290737884
 30
1.5
 11
-1.0815594803123156
 21
3.3286978070330377
 31
1.5
  0
LINE
  5
57
330
17
100
AcDbEntity
  8
STRINGERS
 62
5
100
AcDbLine
 10
-0.9567085809127243
 20
2.309698831278217
 30
1.5
 11
-1.339392013277814
 21
3.2335783637895035
 31
1.5
  0
LINE
  5
58
330
17
100
AcDbEntity
  8
STRINGERS
 62
5
100
AcDbLine
 10
-1.1349762493488669
 20
2.2275163104709197
 30
1.5
 11
-1.5889667490884136
 21
3.1185228346592875
 31
1.5
  0
LINE
  5
59
330
17
100
AcDbEntity
  8
STRINGERS
 62
5
100
AcDbLine
 10
-1.306246411789872
 20
2.131600410885231
 30
1.5
 11
-1.8287449765058208
 21
2.984240575239323
 31
1.5
  0
LWPOLYLINE
  5
5A
330
17
100
AcDbEntity
  8
TREADS
 62
3
100
AcDbPolyline
 90
9
 70
0
 10
-2.022542485937368
 20
1.4694631307311832
 40
2.0
 41
0.0
 10
-2.078674030756363
 20
1.3889255825490054
 40
2.0
 41
0.0
 10
-2.1316004108852304
 20
1.3062464117898722
 40
2.0
 41
0.0
 10
-2.1812400176819926
 20
1.2215531037423881
 40
2.0
 41
0.0
 10
-2.2275163104709197
 20
1.134976249348867
 40
2.0
 41
0.0
 10
-2.2703579345627034
 20
1.04664934384357
 40
2.0
 41
0.0
 10
-2.309698831278217
 20
0.9567085809127247
 40
2.0
 41
0.0
 10
-2.3454783398062102
 20
0.8652926426937333
 40
2.0
 41
0.0
 10
-2.3776412907378837
 20
0.7725424859373687
 40
2.0
 41
0.0
  0
LWPOLYLINE
  5
5B
330
17
100
AcDbEntity
  8
TREADS
 62
3
100
AcDbPolyline
 90
9
 70
0
 10
-2.8315594803123156
 20
2.0572483830236563
 40
2.0
 41
0.0
 10
-2.910143643058909
 20
1.9444958155686076
 40
2.0
 41
0.0
 10
-2.9842405752393226
 20
1.8287449765058212
 40
2.0
 41
0.0
 10
-3.053736024754789
 20
1.7101743452393434
 40
2.0
 41
0.0
 10
-3.118522834659287
 20
1.588966749088414
 40
2.0
 41
0.0
 10
-3.1785011083877848
 20
1.465309081380998
 40
2.0
 41
0.0
 10
-3.2335783637895035
 20
1.3393920132778145
 40
2.0
 41
0.0
 10
-3.283669675728694
 20
1.2114096997712265
 40
2.0
 41
0.0
 10
-3.3286978070330373
 20
1.0815594803123163
 40
2.0
 41
0.0
  0
LINE
  5
5C
330
17
100
AcDbEntity
  8
STRINGERS
 62
5
100
AcDbLine
 10
-2.022542485937368
 20
1.4694631307311832
 30
2.0
 11
-2.8315594803123156
 21
2.0572483830236563
 31
2.0
  0
LINE
  5
5D
330
17
100
AcDbEntity
  8
STRINGERS
 62
5
100
AcDbLine
 10
-2.1316004108852304
 20
1.3062464117898722
 30
2.0
 11
-2.9842405752393226
 21
1.8287449765058212
 31
2.0
  0
LINE
  5
5E
330
17
100
AcDbEntity
  8
STRINGERS
 62
5
100
AcDbLine
 10
-2.2275163104709197
 20
1.134976249348867
 30
2.0
 11
-3.118522834659287
 21
1.588966749088414
 31
2.0
  0
LINE
  5
5F
330
17
100
AcDbEntity
  8
STRINGERS
 62
5
100
AcDbLine
 10
-2.309698831278217
 20
0.9567085809127247
 30
2.0
 11
-3.2335783637895035
 21
1.3393920132778145
 31
2.0
  0
LWPOLYLINE
  5
60
330
17
100
AcDbEntity
  8
TREADS
 62
3
100
AcDbPolyline
 90
9
 70
0
 10
-2.5
 20
3.061616997868383e-16
 40
2.5
 41
0.0
 10
-2.498072590601807
 20
-0.09814953939767176
 40
2.5
 41
0.0
 10
-2.4922933343328197
 20
-0.19614773931961205
 40
2.5
 41
0.0
 10
-2.4826711423873156
 20
-0.2938434936445932
 40
2.5
 41
0.0
 10
-2.4692208514878446
 20
-0.3910861626005768
 40
2.5
 41
0.0
 10
-2.451963201008076
 20
-0.4877258050403209
 40
2.5
 41
0.0
 10
-2.4309248009941915
 20
-0.5836134096397632
 40
2.5
 41
0.0
 10
-2.4061380911341184
 20
-0.6786011246626849
 40
2.5
 41
0.0
 10
-2.377641290737884
 20
-0.7725424859373682
 40
2.5
 41
0.0
  0
LWPOLYLINE
  5
61
330
17
100
AcDbEntity
  8
TREADS
 62
3
100
AcDbPolyline
 90
9
 70
0
 10
-3.5
 20
4.286263797015736e-16
 40
2.5
 41
0.0
 10
-3.49730162684253
 20
-0.13740935515674046
 40
2.5
 41
0.0
 10
-3.489210668065948
 20
-0.27460683504745687
 40
2.5
 41
0.0
 10
-3.475739599342242
 20
-0.41138089110243053
 40
2.5
 41
0.0
 10
-3.456909192082982
 20
-0.5475206276408076
 40
2.5
 41
0.0
 10
-3.4327484814113065
 20
-0.6828161270564492
 40
2.5
 41
0.0
 10
-3.4032947213918683
 20
-0.8170587734956685
 40
2.5
 41
0.0
 10
-3.368593327587766
 20
-0.9500415745277587
 40
2.5
 41
0.0
 10
-3.3286978070330377
 20
-1.0815594803123154
 40
2.5
 41
0.0
  0
LINE
  5
62
330
17
100
AcDbEntity
  8
STRINGERS
 62
5
100
AcDbLine
 10
-2.5
 20
3.061616997868383e-16
 30
2.5
 11
-3.5
 21
4.286263797015736e-16
 31
2.5
  0
LINE
  5
63
330
17
100
AcDbEntity
  8
STRINGERS
 62
5
100
AcDbLine
 10
-2.4922933343328197
 20
-0.19614773931961205
 30
2.5
 11
-3.489210668065948
 21
-0.27460683504745687
 31
2.5
  0
LINE
  5
64
330
17
100
AcDbEntity
  8
STRINGERS
 62
5
100
AcDbLine
 10
-2.4692208514878446
 20
-0.3910861626005768
 30
2.5
 11
-3.456909192082982
 21
-0.5475206276408076
 31
2.5
  0
LINE
  5
65
330
17
100
AcDbEntity
  8
STRINGERS
 62
5
100
AcDbLine
 10
-2.4309248009941915
 20
-0.5836134096397632
 30
2.5
 11
-3.4032947213918683
 21
-0.8170587734956685
 31
2.5
  0
LWPOLYLINE
  5
66
330
17
100
AcDbEntity
  8
TREADS
 62
3
100
AcDbPolyline
 90
9
 70
0
 10
-2.0225424859373686
 20
-1.4694631307311825
 40
3.0
 41
0.0
 10
-1.963292327201862
 20
-1.5477348732745853
 40
3.0
 41
0.0
 10
-1.9010149140000776
 20
-1.6236201208254588
 40
3.0
 41
0.0
 10
-1.8358062735892144
 20
-1.6970018638323536
 40
3.0
 41
0.0
 10
-1.7677669529663693
 20
-1.7677669529663687
 40
3.0
 41
0.0
 10
-1.6970018638323543
 20
-1.8358062735892138
 40
3.0
 41
0.0
 10
-1.6236201208254601
 20
-1.9010149140000765
 40
3.0
 41
0.0
 10
-1.5477348732745857
 20
-1.9632923272018619
 40
3.0
 41
0.0
 10
-1.4694631307311832
 20
-2.022542485937368
 40
3.0
 41
0.0
  0
LWPOLYLINE
  5
67
330
17
100
AcDbEntity
  8
TREADS
 62
3
100
AcDbPolyline
 90
9
 70
0
 10
-2.831559480312316
 20
-2.0572483830236554
 40
3.0
 41
0.0
 10
-2.748609258082607
 20
-2.1668288225844194
 40
3.0
 41
0.0
 10
-2.661420879600109
 20
-2.2730681691556422
 40
3.0
 41
0.0
 10
-2.5701287830249004
 20
-2.3758026093652953
 40
3.0
 41
0.0
 10
-2.474873734152917
 20
-2.474873734152916
 40
3.0
 41
0.0
 10
-2.3758026093652957
 20
-2.5701287830248996
 40
3.0
 41
0.0
 10
-2.2730681691556445
 20
-2.661420879600107
 40
3.0
 41
0.0
 10
-2.16682882258442
 20
-2.7486092580826065
 40
3.0
 41
0.0
 10
-2.0572483830236563
 20
-2.8315594803123156
 40
3.0
 41
0.0
  0
LINE
  5
68
330
17
100
AcDbEntity
  8
STRINGERS
 62
5
100
AcDbLine
 10
-2.0225424859373686
 20
-1.4694631307311825
 30
3.0
 11
-2.831559480312316
 21
-2.0572483830236554
 31
3.0
  0
LINE
  5
69
330
17
100
AcDbEntity
  8
STRINGERS
 62
5
100
AcDbLine
 10
-1.9010149140000776
 20
-1.6236201208254588
 30
3.0
 11
-2.661420879600109
 21
-2.2730681691556422
 31
3.0
  0
LINE
  5
6A
330
17
100
AcDbEntity
  8
STRINGERS
 62
5
100
AcDbLine
 10
-1.7677669529663693
 20
-1.7677669529663687
 30
3.0
 11
-2.474873734152917
 21
-2.474873734152916
 31
3.0
  0
LINE
  5
6B
330
17
100
AcDbEntity
  8
STRINGERS
 62
5
100
AcDbLine
 10
-1.6236201208254601
 20
-1.9010149140000765
 30
3.0
 11
-2.2730681691556445
 21
-2.661420879600107
 31
3.0
  0
LWPOLYLINE
  5
6C
330
17
100
AcDbEntity
  8
TREADS
 62
3
100
AcDbPolyline
 90
9
 70
0
 10
-0.7725424859373689
 20
-2.3776412907378837
 40
3.5
 41
0.0
 10
-0.6786011246626855
 20
-2.4061380911341184
 40
3.5
 41
0.0
 10
-0.5836134096397628
 20
-2.4309248009941915
 40
3.5
 41
0.0
 10
-0.48772580504032165
 20
-2.4519632010080756
 40
3.5
 41
0.0
 10
-0.3910861626005776
 20
-2.469220851487844
 40
3.5
 41
0.0
 10
-0.293843493644594
 20
-2.4826711423873156
 40
3.5
 41
0.0
 10
-0.19614773931961393
 20
-2.4922933343328197
 40
3.5
 41
0.0
 10
-0.09814953939767253
 20
-2.498072590601807
 40
3.5
 41
0.0
 10
-4.592425496802574e-16
 20
-2.5
 40
3.5
 41
0.0
  0
LWPOLYLINE
  5
6D
330
17
100
AcDbEntity
  8
TREADS
 62
3
100
AcDbPolyline
 90
9
 70
0
 10
-1.0815594803123165
 20
-3.3286978070330373
 40
3.5
 41
0.0
 10
-0.9500415745277597
 20
-3.3685933275877655
 40
3.5
 41
0.0
 10
-0.817058773495668
 20
-3.4032947213918683
 40
3.5
 41
0.0
 10
-0.6828161270564503
 20
-3.432748481411306
 40
3.5
 41
0.0
 10
-0.5475206276408087
 20
-3.456909192082982
 40
3.5
 41
0.0
 10
-0.4113808911024316
 20
-3.475739599342242
 40
3.5
 41
0.0
 10
-0.2746068350474595
 20
-3.489210668065948
 40
3.5
 41
0.0
 10
-0.13740935515674155
 20
-3.49730162684253
 40
3.5
 41
0.0
 10
-6.429395695523604e-16
 20
-3.5
 40
3.5
 41
0.0
  0
LINE
  5
6E
330
17
100
AcDbEntity
  8
STRINGERS
 62
5
100
AcDbLine
 10
-0.7725424859373689
 20
-2.3776412907378837
 30
3.5
 11
-1.0815594803123165
 21
-3.3286978070330373
 31
3.5
  0
LINE
  5
6F
330
17
100
AcDbEntity
  8
STRINGERS
 62
5
100
AcDbLine
 10
-0.5836134096397628
 20
-2.4309248009941915
 30
3.5
 11
-0.817058773495668
 21
-3.4032947213918683
 31
3.5
  0
LINE
  5
70
330
17
100
AcDbEntity
  8
STRINGERS
 62
5
100
AcDbLine
 10
-0.3910861626005776
 20
-2.469220851487844
 30
3.5
 11
-0.5475206276408087
 21
-3.456909192082982
 31
3.5
  0
LINE
  5
71
330
17
100
AcDbEntity
  8
STRINGERS
 62
5
100
AcDbLine
 10
-0.19614773931961393
 20
-2.4922933343328197
 30
3.5
 11
-0.2746068350474595
 21
-3.489210668065948
 31
3.5
  0
LWPOLYLINE
  5
72
330
17
100
AcDbEntity
  8
TREADS
 62
3
100
AcDbPolyline
 90
9
 70
0
 10
0.7725424859373681
 20
-2.377641290737884
 40
4.0
 41
0.0
 10
0.8652926426937325
 20
-2.3454783398062102
 40
4.0
 41
0.0
 10
0.956708580912725
 20
-2.3096988312782165
 40
4.0
 41
0.0
 10
1.0466493438435691
 20
-2.270357934562704
 40
4.0
 41
0.0
 10
1.1349762493488667
 20
-2.2275163104709197
 40
4.0
 41
0.0
 10
1.2215531037423875
 20
-2.1812400176819926
 40
4.0
 41
0.0
 10
1.3062464117898709
 20
-2.1316004108852313
 40
4.0
 41
0.0
 10
1.3889255825490046
 20
-2.0786740307563636
 40
4.0
 41
0.0
 10
1.4694631307311823
 20
-2.022542485937369
 40
4.0
 41
0.0
  0
LWPOLYLINE
  5
73
330
17
100
AcDbEntity
  8
TREADS
 62
3
100
AcDbPolyline
 90
9
 70
0
 10
1.0815594803123152
 20
-3.3286978070330377
 40
4.0
 41
0.0
 10
1.2114096997712256
 20
-3.2836696757286945
 40
4.0
 41
0.0
 10
1.339392013277815
 20
-3.233578363789503
 40
4.0
 41
0.0
 10
1.465309081380997
 20
-3.178501108387785
 40
4.0
 41
0.0
 10
1.5889667490884132
 20
-3.1185228346592875
 40
4.0
 41
0.0
 10
1.7101743452393423
 20
-3.0537360247547896
 40
4.0
 41
0.0
 10
1.8287449765058192
 20
-2.984240575239324
 40
4.0
 41
0.0
 10
1.9444958155686065
 20
-2.910143643058909
 40
4.0
 41
0.0
 10
2.057248383023655
 20
-2.8315594803123165
 40
4.0
 41
0.0
  0
LINE
  5
74
330
17
100
AcDbEntity
  8
STRINGERS
 62
5
100
AcDbLine
 10
0.7725424859373681
 20
-2.377641290737884
 30
4.0
 11
1.0815594803123152
 21
-3.3286978070330377
 31
4.0
  0
LINE
  5
75
330
17
100
AcDbEntity
  8
STRINGERS
 62
5
100
AcDbLine
 10
0.956708580912725
 20
-2.3096988312782165
 30
4.0
 11
1.339392013277815
 21
-3.233578363789503
 31
4.0
  0
LINE
  5
76
330
17
100
AcDbEntity
  8
STRINGERS
 62
5
100
AcDbLine
 10
1.1349762493488667
 20
-2.2275163104709197
 30
4.0
 11
1.5889667490884132
 21
-3.1185228346592875
 31
4.0
  0
LINE
  5
77
330
17
100
AcDbEntity
  8
STRINGERS
 62
5
100
AcDbLine
 10
1.3062464117898709
 20
-2.1316004108852313
 30
4.0
 11
1.8287449765058192
 21
-2.984240575239324
 31
4.0
  0
LWPOLYLINE
  5
78
330
17
100
AcDbEntity
  8
TREADS
 62
3
100
AcDbPolyline
 90
9
 70
0
 10
2.022542485937368
 20
-1.4694631307311834
 40
4.5
 41
0.0
 10
2.078674030756363
 20
-1.3889255825490054
 40
4.5
 41
0.0
 10
2.131600410885231
 20
-1.3062464117898718
 40
4.5
 41
0.0
 10
2.181240017681992
 20
-1.2215531037423883
 40
4.5
 41
0.0
 10
2.2275163104709197
 20
-1.1349762493488673
 40
4.5
 41
0.0
 10
2.270357934562703
 20
-1.0466493438435702
 40
4.5
 41
0.0
 10
2.309698831278216
 20
-0.956708580912726
 40
4.5
 41
0.0
 10
2.34547833980621
 20
-0.8652926426937335
 40
4.5
 41
0.0
 10
2.3776412907378837
 20
-0.7725424859373692
 40
4.5
 41
0.0
  0
LWPOLYLINE
  5
79
330
17
100
AcDbEntity
  8
TREADS
 62
3
100
AcDbPolyline
 90
9
 70
0
 10
2.8315594803123156
 20
-2.0572483830236568
 40
4.5
 41
0.0
 10
2.9101436430589085
 20
-1.9444958155686076
 40
4.5
 41
0.0
 10
2.984240575239323
 20
-1.8287449765058204
 40
4.5
 41
0.0
 10
3.053736024754789
 20
-1.7101743452393436
 40
4.5
 41
0.0
 10
3.118522834659287
 20
-1.5889667490884145
 40
4.5
 41
0.0
 10
3.1785011083877843
 20
-1.4653090813809984
 40
4.5
 41
0.0
 10
3.233578363789503
 20
-1.3393920132778163
 40
4.5
 41
0.0
 10
3.2836696757286936
 20
-1.211409699771227
 40
4.5
 41
0.0
 10
3.3286978070330373
 20
-1.081559480312317
 40
4.5
 41
0.0
  0
LINE
  5
7A
330
17
100
AcDbEntity
  8
STRINGERS
 62
5
100
AcDbLine
 10
2.022542485937368
 20
-1.4694631307311834
 30
4.5
 11
2.8315594803123156
 21
-2.0572483830236568
 31
4.5
  0
LINE
  5
7B
330
17
100
AcDbEntity
  8
STRINGERS
 62
5
100
AcDbLine
 10
2.131600410885231
 20
-1.3062464117898718
 30
4.5
 11
2.984240575239323
 21
-1.8287449765058204
 31
4.5
  0
LINE
  5
7C
330
17
100
AcDbEntity
  8
STRINGERS
 62
5
100
AcDbLine
 10
2.2275163104709197
 20
-1.1349762493488673
 30
4.5
 11
3.118522834659287
 21
-1.5889667490884145
 31
4.5
  0
LINE
  5
7D
330
17
100
AcDbEntity
  8
STRINGERS
 62
5
100
AcDbLine
 10
2.309698831278216
 20
-0.956708580912726
 30
4.5
 11
3.233578363789503
 21
-1.3393920132778163
 31
4.5
  0
LWPOLYLINE
  5
7E
330
17
100
AcDbEntity
  8
TREADS
 62
3
100
AcDbPolyline
 90
9
 70
0
 10
2.5
 20
-6.123233995736766e-16
 40
5.0
 41
0.0
 10
2.498072590601807
 20
0.09814953939767146
 40
5.0
 41
0.0
 10
2.4922933343328197
 20
0.19614773931961285
 40
5.0
 41
0.0
 10
2.482671142387316
 20
0.29384349364459295
 40
5.0
 41
0.0
 10
2.4692208514878446
 20
0.39108616260057655
 40
5.0
 41
0.0
 10
2.451963201008076
 20
0.4877258050403206
 40
5.0
 41
0.0
 10
2.430924800994192
 20
0.5836134096397618
 40
5.0
 41
0.0
 10
2.4061380911341184
 20
0.6786011246626845
 40
5.0
 41
0.0
 10
2.377641290737884
 20
0.772542485937368
 40
5.0
 41
0.0
  0
LWPOLYLINE
  5
7F
330
17
100
AcDbEntity
  8
TREADS
 62
3
100
AcDbPolyline
 90
9
 70
0
 10
3.5
 20
-8.572527594031472e-16
 40
5.0
 41
0.0
 10
3.49730162684253
 20
0.13740935515674005
 40
5.0
 41
0.0
 10
3.489210668065948
 20
0.274606835047458
 40
5.0
 41
0.0
 10
3.4757395993422424
 20
0.4113808911024301
 40
5.0
 41
0.0
 10
3.456909192082982
 20
0.5475206276408071
 40
5.0
 41
0.0
 10
3.4327484814113065
 20
0.6828161270564489
 40
5.0
 41
0.0
 10
3.4032947213918687
 20
0.8170587734956666
 40
5.0
 41
0.0
 10
3.368593327587766
 20
0.9500415745277584
 40
5.0
 41
0.0
 10
3.3286978070330377
 20
1.0815594803123152
 40
5.0
 41
0.0
  0
LINE
  5
80
330
17
100
AcDbEntity
  8
STRINGERS
 62
5
100
AcDbLine
 10
2.5
 20
-6.123233995736766e-16
 30
5.0
 11
3.5
 21
-8.572527594031472e-16
 31
5.0
  0
LINE
  5
81
330
17
100
AcDbEntity
  8
STRINGERS
 62
5
100
AcDbLine
 10
2.4922933343328197
 20
0.19614773931961285
 30
5.0
 11
3.489210668065948
 21
0.274606835047458
 31
5.0
  0
LINE
  5
82
330
17
100
AcDbEntity
  8
STRINGERS
 62
5
100
AcDbLine
 10
2.4692208514878446
 20
0.39108616260057655
 30
5.0
 11
3.456909192082982
 21
0.5475206276408071
 31
5.0
  0
LINE
  5
83
330
17
100
AcDbEntity
  8
STRINGERS
 62
5
100
AcDbLine
 10
2.430924800994192
 20
0.5836134096397618
 30
5.0
 11
3.4032947213918687
 21
0.8170587734956666
 31
5.0
  0
LWPOLYLINE
  5
84
330
17
100
AcDbEntity
  8
TREADS
 62
3
100
AcDbPolyline
 90
9
 70
0
 10
2.0225424859373673
 20
1.4694631307311838
 40
5.5
 41
0.0
 10
1.963292327201861
 20
1.5477348732745866
 40
5.5
 41
0.0
 10
1.901014914000077
 20
1.6236201208254595
 40
5.5
 41
0.0
 10
1.8358062735892131
 20
1.697001863832355
 40
5.5
 41
0.0
 10
1.7677669529663678
 20
1.7677669529663698
 40
5.5
 41
0.0
 10
1.6970018638323527
 20
1.8358062735892153
 40
5.5
 41
0.0
 10
1.6236201208254573
 20
1.901014914000079
 40
5.5
 41
0.0
 10
1.5477348732745841
 20
1.963292327201863
 40
5.5
 41
0.0
 10
1.4694631307311814
 20
2.0225424859373695
 40
5.5
 41
0.0
  0
LWPOLYLINE
  5
85
330
17
100
AcDbEntity
  8
TREADS
 62
3
100
AcDbPolyline
 90
9
 70
0
 10
2.8315594803123147
 20
2.0572483830236576
 40
5.5
 41
0.0
 10
2.748609258082605
 20
2.166828822584421
 40
5.5
 41
0.0
 10
2.661420879600108
 20
2.273068169155643
 40
5.5
 41
0.0
 10
2.5701287830248982
 20
2.375802609365297
 40
5.5
 41
0.0
 10
2.474873734152915
 20
2.4748737341529177
 40
5.5
 41
0.0
 10
2.375802609365294
 20
2.5701287830249013
 40
5.5
 41
0.0
 10
2.27306816915564
 20
2.6614208796001106
 40
5.5
 41
0.0
 10
2.1668288225844177
 20
2.7486092580826083
 40
5.5
 41
0.0
 10
2.057248383023654
 20
2.8315594803123174
 40
5.5
 41
0.0
  0
LINE
  5
86
330
17
100
AcDbEntity
  8
STRINGERS
 62
5
100
AcDbLine
 10
2.0225424859373673
 20
1.4694631307311838
 30
5.5
 11
2.8315594803123147
 21
2.0572483830236576
 31
5.5
  0
LINE
  5
87
330
17
100
AcDbEntity
  8
STRINGERS
 62
5
100
AcDbLine
 10
1.901014914000077
 20
1.6236201208254595
 30
5.5
 11
2.661420879600108
 21
2.273068169155643
 31
5.5
  0
LINE
  5
88
330
17
100
AcDbEntity
  8
STRINGERS
 62
5
100
AcDbLine
 10
1.7677669529663678
 20
1.7677669529663698
 30
5.5
 11
2.474873734152915
 21
2.4748737341529177
 31
5.5
  0
LINE
  5
89
330
17
100
AcDbEntity
  8
STRINGERS
 62
5
100
AcDbLine
 10
1.6236201208254573
 20
1.901014914000079
 30
5.5
 11
2.27306816915564
 21
2.6614208796001106
 31
5.5
  0
LWPOLYLINE
  5
8A
330
17
100
AcDbEntity
  8
TREADS
 62
3
100
AcDbPolyline
 90
9
 70
0
 10
0.7725424859373693
 20
2.3776412907378837
 40
6.0
 41
0.0
 10
0.6786011246626857
 20
2.4061380911341184
 40
6.0
 41
0.0
 10
0.5836134096397632
 20
2.4309248009941915
 40
6.0
 41
0.0
 10
0.4877258050403219
 20
2.4519632010080756
 40
6.0
 41
0.0
 10
0.39108616260057794
 20
2.469220851487844
 40
6.0
 41
0.0
 10
0.29384349364459433
 20
2.4826711423873156
 40
6.0
 41
0.0
 10
0.19614773931961424
 20
2.4922933343328197
 40
6.0
 41
0.0
 10
0.09814953939767285
 20
2.498072590601807
 40
6.0
 41
0.0
 10
7.654042494670958e-16
 20
2.5
 40
6.0
 41
0.0
  0
LWPOLYLINE
  5
8B
330
17
100
AcDbEntity
  8
TREADS
 62
3
100
AcDbPolyline
 90
9
 70
0
 10
1.081559480312317
 20
3.3286978070330373
 40
6.0
 41
0.0
 10
0.9500415745277602
 20
3.3685933275877655
 40
6.0
 41
0.0
 10
0.8170587734956685
 20
3.4032947213918683
 40
6.0
 41
0.0
 10
0.6828161270564507
 20
3.432748481411306
 40
6.0
 41
0.0
 10
0.5475206276408091
 20
3.456909192082982
 40
6.0
 41
0.0
 10
0.41138089110243203
 20
3.475739599342242
 40
6.0
 41
0.0
 10
0.2746068350474599
 20
3.489210668065948
 40
6.0
 41
0.0
 10
0.137409355156742
 20
3.49730162684253
 40
6.0
 41
0.0
 10
1.0715659492539341e-15
 20
3.5
 40
6.0
 41
0.0
  0
LINE
  5
8C
330
17
100
AcDbEntity
  8
STRINGERS
 62
5
100
AcDbLine
 10
0.7725424859373693
 20
2.3776412907378837
 30
6.0
 11
1.081559480312317
 21
3.3286978070330373
 31
6.0
  0
LINE
  5
8D
330
17
100
AcDbEntity
  8
STRINGERS
 62
5
100
AcDbLine
 10
0.5836134096397632
 20
2.4309248009941915
 30
6.0
 11
0.8170587734956685
 21
3.4032947213918683
 31
6.0
  0
LINE
  5
8E
330
17
100
AcDbEntity
  8
STRINGERS
 62
5
100
AcDbLine
 10
0.39108616260057794
 20
2.469220851487844
 30
6.0
 11
0.5475206276408091
 21
3.456909192082982
 31
6.0
  0
LINE
  5
8F
330
17
100
AcDbEntity
  8
STRINGERS
 62
5
100
AcDbLine
 10
0.19614773931961424
 20
2.4922933343328197
 30
6.0
 11
0.2746068350474599
 21
3.489210668065948
 31
6.0
  0
LWPOLYLINE
  5
90
330
17
100
AcDbEntity
  8
TREADS
 62
3
100
AcDbPolyline
 90
9
 70
0
 10
-0.7725424859373677
 20
2.377641290737884
 40
6.5
 41
0.0
 10
-0.8652926426937323
 20
2.3454783398062102
 40
6.5
 41
0.0
 10
-0.9567085809127247
 20
2.309698831278217
 40
6.5
 41
0.0
 10
-1.0466493438435711
 20
2.270357934562703
 40
6.5
 41
0.0
 10
-1.1349762493488682
 20
2.227516310470919
 40
6.5
 41
0.0
 10
-1.2215531037423852
 20
2.181240017681994
 40
6.5
 41
0.0
 10
-1.3062464117898707
 20
2.1316004108852313
 40
6.5
 41
0.0
 10
-1.3889255825490043
 20
2.078674030756364
 40
6.5
 41
0.0
 10
-1.4694631307311823
 20
2.022542485937369
 40
6.5
 41
0.0
  0
LWPOLYLINE
  5
91
330
17
100
AcDbEntity
  8
TREADS
 62
3
100
AcDbPolyline
 90
9
 70
0
 10
-1.081559480312315
 20
3.3286978070330377
 40
6.5
 41
0.0
 10
-1.2114096997712251
 20
3.2836696757286945
 40
6.5
 41
0.0
 10
-1.3393920132778145
 20
3.2335783637895035
 40
6.5
 41
0.0
 10
-1.4653090813809995
 20
3.178501108387784
 40
6.5
 41
0.0
 10
-1.5889667490884156
 20
3.1185228346592866
 40
6.5
 41
0.0
 10
-1.7101743452393392
 20
3.053736024754792
 40
6.5
 41
0.0
 10
-1.8287449765058188
 20
2.9842405752393244
 40
6.5
 41
0.0
 10
-1.944495815568606
 20
2.9101436430589094
 40
6.5
 41
0.0
 10
-2.057248383023655
 20
2.831559480312317
 40
6.5
 41
0.0
  0
LINE
  5
92
330
17
100
AcDbEntity
  8
STRINGERS
 62
5
100
AcDbLine
 10
-0.7725424859373677
 20
2.377641290737884
 30
6.5
 11
-1.081559480312315
 21
3.3286978070330377
 31
6.5
  0
LINE
  5
93
330
17
100
AcDbEntity
  8
STRINGERS
 62
5
100
AcDbLine
 10
-0.9567085809127247
 20
2.309698831278217
 30
6.5
 11
-1.3393920132778145
 21
3.2335783637895035
 31
6.5
  0
LINE
  5
94
330
17
100
AcDbEntity
  8
STRINGERS
 62
5
100
AcDbLine
 10
-1.1349762493488682
 20
2.227516310470919
 30
6.5
 11
-1.5889667490884156
 21
3.1185228346592866
 31
6.5
  0
LINE
  5
95
330
17
100
AcDbEntity
  8
STRINGERS
 62
5
100
AcDbLine
 10
-1.3062464117898707
 20
2.1316004108852313
 30
6.5
 11
-1.8287449765058188
 21
2.9842405752393244
 31
6.5
  0
LWPOLYLINE
  5
96
330
17
100
AcDbEntity
  8
TREADS
 62
3
100
AcDbPolyline
 90
9
 70
0
 10
-2.022542485937368
 20
1.4694631307311834
 40
7.0
 41
0.0
 10
-2.0786740307563627
 20
1.3889255825490057
 40
7.0
 41
0.0
 10
-2.131600410885231
 20
1.306246411789872
 40
7.0
 41
0.0
 10
-2.181240017681993
 20
1.2215531037423868
 40
7.0
 41
0.0
 10
-2.22751631047092
 20
1.1349762493488658
 40
7.0
 41
0.0
 10
-2.2703579345627025
 20
1.0466493438435727
 40
7.0
 41
0.0
 10
-2.309698831278216
 20
0.9567085809127263
 40
7.0
 41
0.0
 10
-2.34547833980621
 20
0.8652926426937337
 40
7.0
 41
0.0
 10
-2.3776412907378837
 20
0.7725424859373695
 40
7.0
 41
0.0
  0
LWPOLYLINE
  5
97
330
17
100
AcDbEntity
  8
TREADS
 62
3
100
AcDbPolyline
 90
9
 70
0
 10
-2.831559480312315
 20
2.0572483830236568
 40
7.0
 41
0.0
 10
-2.910143643058908
 20
1.944495815568608
 40
7.0
 41
0.0
 10
-2.984240575239323
 20
1.8287449765058208
 40
7.0
 41
0.0
 10
-3.0537360247547904
 20
1.7101743452393414
 40
7.0
 41
0.0
 10
-3.1185228346592884
 20
1.588966749088412
 40
7.0
 41
0.0
 10
-3.178501108387783
 20
1.4653090813810015
 40
7.0
 41
0.0
 10
-3.2335783637895026
 20
1.3393920132778168
 40
7.0
 41
0.0
 10
-3.2836696757286936
 20
1.2114096997712274
 40
7.0
 41
0.0
 10
-3.328697807033037
 20
1.0815594803123172
 40
7.0
 41
0.0
  0
LINE
  5
98
330
17
100
AcDbEntity
  8
STRINGERS
 62
5
100
AcDbLine
 10
-2.022542485937368
 20
1.4694631307311834
 30
7.0
 11
-2.831559480312315
 21
2.0572483830236568
 31
7.0
  0
LINE
  5
99
330
17
100
AcDbEntity
  8
STRINGERS
 62
5
100
AcDbLine
 10
-2.131600410885231
 20
1.306246411789872
 30
7.0
 11
-2.984240575239323
 21
1.8287449765058208
 31
7.0
  0
LINE
  5
9A
330
17
100
AcDbEntity
  8
STRINGERS
 62
5
100
AcDbLine
 10
-2.22751631047092
 20
1.1349762493488658
 30
7.0
 11
-3.1185228346592884
 21
1.588966749088412
 31
7.0
  0
LINE
  5
9B
330
17
100
AcDbEntity
  8
STRINGERS
 62
5
100
AcDbLine
 10
-2.309698831278216
 20
0.9567085809127263
 30
7.0
 11
-3.2335783637895026
 21
1.3393920132778168
 31
7.0
  0
LWPOLYLINE
  5
9C
330
17
100
AcDbEntity
  8
TREADS
 62
3
100
AcDbPolyline
 90
9
 70
0
 10
-2.5
 20
9.184850993605148e-16
 40
7.5
 41
0.0
 10
-2.498072590601807
 20
-0.09814953939767115
 40
7.5
 41
0.0
 10
-2.4922933343328197
 20
-0.19614773931961255
 40
7.5
 41
0.0
 10
-2.4826711423873156
 20
-0.29384349364459483
 40
7.5
 41
0.0
 10
-2.469220851487844
 20
-0.39108616260057844
 40
7.5
 41
0.0
 10
-2.4519632010080765
 20
-0.48772580504031815
 40
7.5
 41
0.0
 10
-2.430924800994192
 20
-0.5836134096397615
 40
7.5
 41
0.0
 10
-2.406138091134119
 20
-0.6786011246626842
 40
7.5
 41
0.0
 10
-2.377641290737884
 20
-0.7725424859373676
 40
7.5
 41
0.0
  0
LWPOLYLINE
  5
9D
330
17
100
AcDbEntity
  8
TREADS
 62
3
100
AcDbPolyline
 90
9
 70
0
 10
-3.5
 20
1.2858791391047208e-15
 40
7.5
 41
0.0
 10
-3.49730162684253
 20
-0.13740935515673963
 40
7.5
 41
0.0
 10
-3.489210668065948
 20
-0.27460683504745753
 40
7.5
 41
0.0
 10
-3.475739599342242
 20
-0.41138089110243276
 40
7.5
 41
0.0
 10
-3.456909192082982
 20
-0.5475206276408098
 40
7.5
 41
0.0
 10
-3.4327484814113074
 20
-0.6828161270564453
 40
7.5
 41
0.0
 10
-3.4032947213918687
 20
-0.8170587734956661
 40
7.5
 41
0.0
 10
-3.3685933275877664
 20
-0.9500415745277577
 40
7.5
 41
0.0
 10
-3.3286978070330377
 20
-1.0815594803123147
 40
7.5
 41
0.0
  0
LINE
  5
9E
330
17
100
AcDbEntity
  8
STRINGERS
 62
5
100
AcDbLine
 10
-2.5
 20
9.184850993605148e-16
 30
7.5
 11
-3.5
 21
1.2858791391047208e-15
 31
7.5
  0
LINE
  5
9F
330
17
100
AcDbEntity
  8
STRINGERS
 62
5
100
AcDbLine
 10
-2.4922933343328197
 20
-0.19614773931961255
 30
7.5
 11
-3.489210668065948
 21
-0.27460683504745753
 31
7.5
  0
LINE
  5
A0
330
17
100
AcDbEntity
  8
STRINGERS
 62
5
100
AcDbLine
 10
-2.469220851487844
 20
-0.39108616260057844
 30
7.5
 11
-3.456909192082982
 21
-0.5475206276408098
 31
7.5
  0
LINE
  5
A1
330
17
100
AcDbEntity
  8
STRINGERS
 62
5
100
AcDbLine
 10
-2.430924800994192
 20
-0.5836134096397615
 30
7.5
 11
-3.4032947213918687
 21
-0.8170587734956661
 31
7.5
  0
LWPOLYLINE
  5
A2
330
17
100
AcDbEntity
  8
TREADS
 62
3
100
AcDbPolyline
 90
9
 70
0
 10
-2.022542485937369
 20
-1.469463130731182
 40
8.0
 41
0.0
 10
-1.9632923272018625
 20
-1.5477348732745846
 40
8.0
 41
0.0
 10
-1.9010149140000774
 20
-1.6236201208254593
 40
8.0
 41
0.0
 10
-1.8358062735892133
 20
-1.6970018638323547
 40
8.0
 41
0.0
 10
-1.767766952966368
 20
-1.7677669529663698
 40
8.0
 41
0.0
 10
-1.6970018638323565
 20
-1.835806273589212
 40
8.0
 41
0.0
 10
-1.6236201208254608
 20
-1.901014914000076
 40
8.0
 41
0.0
 10
-1.5477348732745864
 20
-1.9632923272018612
 40
8.0
 41
0.0
 10
-1.4694631307311836
 20
-2.022542485937368
 40
8.0
 41
0.0
  0
LWPOLYLINE
  5
A3
330
17
100
AcDbEntity
  8
TREADS
 62
3
100
AcDbPolyline
 90
9
 70
0
 10
-2.831559480312317
 20
-2.057248383023655
 40
8.0
 41
0.0
 10
-2.748609258082608
 20
-2.1668288225844186
 40
8.0
 41
0.0
 10
-2.6614208796001084
 20
-2.2730681691556427
 40
8.0
 41
0.0
 10
-2.5701287830248987
 20
-2.3758026093652966
 40
8.0
 41
0.0
 10
-2.4748737341529154
 20
-2.4748737341529177
 40
8.0
 41
0.0
 10
-2.375802609365299
 20
-2.570128783024897
 40
8.0
 41
0.0
 10
-2.2730681691556454
 20
-2.661420879600106
 40
8.0
 41
0.0
 10
-2.1668288225844208
 20
-2.7486092580826056
 40
8.0
 41
0.0
 10
-2.057248383023657
 20
-2.831559480312315
 40
8.0
 41
0.0
  0
LINE
  5
A4
330
17
100
AcDbEntity
  8
STRINGERS
 62
5
100
AcDbLine
 10
-2.022542485937369
 20
-1.469463130731182
 30
8.0
 11
-2.831559480312317
 21
-2.057248383023655
 31
8.0
  0
LINE
  5
A5
330
17
100
AcDbEntity
  8
STRINGERS
 62
5
100
AcDbLine
 10
-1.9010149140000774
 20
-1.6236201208254593
 30
8.0
 11
-2.6614208796001084
 21
-2.2730681691556427
 31
8.0
  0
LINE
  5
A6
330
17
100
AcDbEntity
  8
STRINGERS
 62
5
100
AcDbLine
 10
-1.767766952966368
 20
-1.7677669529663698
 30
8.0
 11
-2.4748737341529154
 21
-2.4748737341529177
 31
8.0
  0
LINE
  5
A7
330
17
100
AcDbEntity
  8
STRINGERS
 62
5
100
AcDbLine
 10
-1.6236201208254608
 20
-1.901014914000076
 30
8.0
 11
-2.2730681691556454
 21
-2.661420879600106
 31
8.0
  0
LWPOLYLINE
  5
A8
330
17
100
AcDbEntity
  8
TREADS
 62
3
100
AcDbPolyline
 90
9
 70
0
 10
-0.7725424859373696
 20
-2.3776412907378837
 40
8.5
 41
0.0
 10
-0.6786011246626861
 20
-2.4061380911341184
 40
8.5
 41
0.0
 10
-0.5836134096397635
 20
-2.4309248009941915
 40
8.5
 41
0.0
 10
-0.48772580504032004
 20
-2.4519632010080765
 40
8.5
 41
0.0
 10
-0.391086162600576
 20
-2.4692208514878446
 40
8.5
 41
0.0
 10
-0.29384349364459683
 20
-2.4826711423873156
 40
8.5
 41
0.0
 10
-0.19614773931961454
 20
-2.4922933343328197
 40
8.5
 41
0.0
 10
-0.09814953939767314
 20
-2.498072590601807
 40
8.5
 41
0.0
 10
-1.0715659492539341e-15
 20
-2.5
 40
8.5
 41
0.0
  0
LWPOLYLINE
  5
A9
330
17
100
AcDbEntity
  8
TREADS
 62
3
100
AcDbPolyline
 90
9
 70
0
 10
-1.0815594803123174
 20
-3.328697807033037
 40
8.5
 41
0.0
 10
-0.9500415745277605
 20
-3.3685933275877655
 40
8.5
 41
0.0
 10
-0.8170587734956689
 20
-3.403294721391868
 40
8.5
 41
0.0
 10
-0.6828161270564481
 20
-3.432748481411307
 40
8.5
 41
0.0
 10
-0.5475206276408064
 20
-3.456909192082982
 40
8.5
 41
0.0
 10
-0.41138089110243553
 20
-3.4757395993422415
 40
8.5
 41
0.0
 10
-0.27460683504746036
 20
-3.4892106680659474
 40
8.5
 41
0.0
 10
-0.1374093551567424
 20
-3.49730162684253
 40
8.5
 41
0.0
 10
-1.5001923289555075e-15
 20
-3.5
 40
8.5
 41
0.0
  0
LINE
  5
AA
330
17
100
AcDbEntity
  8
STRINGERS
 62
5
100
AcDbLine
 10
-0.7725424859373696
 20
-2.3776412907378837
 30
8.5
 11
-1.0815594803123174
 21
-3.328697807033037
 31
8.5
  0
LINE
  5
AB
330
17
100
AcDbEntity
  8
STRINGERS
 62
5
100
AcDbLine
 10
-0.5836134096397635
 20
-2.4309248009941915
 30
8.5
 11
-0.8170587734956689
 21
-3.403294721391868
 31
8.5
  0
LINE
  5
AC
330
17
100
AcDbEntity
  8
STRINGERS
 62
5
100
AcDbLine
 10
-0.391086162600576
 20
-2.4692208514878446
 30
8.5
 11
-0.5475206276408064
 21
-3.456909192082982
 31
8.5
  0
LINE
  5
AD
330
17
100
AcDbEntity
  8
STRINGERS
 62
5
100
AcDbLine
 10
-0.19614773931961454
 20
-2.4922933343328197
 30
8.5
 11
-0.27460683504746036
 21
-3.4892106680659474
 31
8.5
  0
LWPOLYLINE
  5
AE
330
17
100
AcDbEntity
  8
TREADS
 62
3
100
AcDbPolyline
 90
9
 70
0
 10
0.7725424859373675
 20
-2.3776412907378845
 40
9.0
 41
0.0
 10
0.865292642693732
 20
-2.3454783398062102
 40
9.0
 41
0.0
 10
0.9567085809127245
 20
-2.309698831278217
 40
9.0
 41
0.0
 10
1.0466493438435707
 20
-2.270357934562703
 40
9.0
 41
0.0
 10
1.134976249348868
 20
-2.2275163104709192
 40
9.0
 41
0.0
 10
1.221553103742385
 20
-2.181240017681994
 40
9.0
 41
0.0
 10
1.3062464117898704
 20
-2.1316004108852318
 40
9.0
 41
0.0
 10
1.3889255825490041
 20
-2.078674030756364
 40
9.0
 41
0.0
 10
1.469463130731182
 20
-2.022542485937369
 40
9.0
 41
0.0
  0
LWPOLYLINE
  5
AF
330
17
100
AcDbEntity
  8
TREADS
 62
3
100
AcDbPolyline
 90
9
 70
0
 10
1.0815594803123145
 20
-3.328697807033038
 40
9.0
 41
0.0
 10
1.2114096997712247
 20
-3.2836696757286945
 40
9.0
 41
0.0
 10
1.3393920132778143
 20
-3.2335783637895035
 40
9.0
 41
0.0
 10
1.465309081380999
 20
-3.1785011083877843
 40
9.0
 41
0.0
 10
1.5889667490884152
 20
-3.118522834659287
 40
9.0
 41
0.0
 10
1.7101743452393388
 20
-3.053736024754792
 40
9.0
 41
0.0
 10
1.8287449765058184
 20
-2.9842405752393244
 40
9.0
 41
0.0
 10
1.9444958155686056
 20
-2.9101436430589094
 40
9.0
 41
0.0
 10
2.057248383023655
 20
-2.831559480312317
 40
9.0
 41
0.0
  0
LINE
  5
B0
330
17
100
AcDbEntity
  8
STRINGERS
 62
5
100
AcDbLine
 10
0.7725424859373675
 20
-2.3776412907378845
 30
9.0
 11
1.0815594803123145
 21
-3.328697807033038
 31
9.0
  0
LINE
  5
B1
330
17
100
AcDbEntity
  8
STRINGERS
 62
5
100
AcDbLine
 10
0.9567085809127245
 20
-2.309698831278217
 30
9.0
 11
1.3393920132778143
 21
-3.2335783637895035
 31
9.0
  0
LINE
  5
B2
330
17
100
AcDbEntity
  8
STRINGERS
 62
5
100
AcDbLine
 10
1.134976249348868
 20
-2.2275163104709192
 30
9.0
 11
1.5889667490884152
 21
-3.118522834659287
 31
9.0
  0
LINE
  5
B3
330
17
100
AcDbEntity
  8
STRINGERS
 62
5
100
AcDbLine
 10
1.3062464117898704
 20
-2.1316004108852318
 30
9.0
 11
1.8287449765058184
 21
-2.9842405752393244
 31
9.0
  0
LWPOLYLINE
  5
B4
330
17
100
AcDbEntity
  8
TREADS
 62
3
100
AcDbPolyline
 90
9
 70
0
 10
2.0225424859373677
 20
-1.4694631307311836
 40
9.5
 41
0.0
 10
2.0786740307563627
 20
-1.3889255825490059
 40
9.5
 41
0.0
 10
2.1316004108852304
 20
-1.3062464117898722
 40
9.5
 41
0.0
 10
2.181240017681993
 20
-1.221553103742387
 40
9.5
 41
0.0
 10
2.22751631047092
 20
-1.134976249348866
 40
9.5
 41
0.0
 10
2.270357934562702
 20
-1.0466493438435729
 40
9.5
 41
0.0
 10
2.309698831278216
 20
-0.9567085809127265
 40
9.5
 41
0.0
 10
2.34547833980621
 20
-0.8652926426937341
 40
9.5
 41
0.0
 10
2.3776412907378837
 20
-0.7725424859373697
 40
9.5
 41
0.0
  0
LWPOLYLINE
  5
B5
330
17
100
AcDbEntity
  8
TREADS
 62
3
100
AcDbPolyline
 90
9
 70
0
 10
2.8315594803123147
 20
-2.057248383023657
 40
9.5
 41
0.0
 10
2.910143643058908
 20
-1.9444958155686085
 40
9.5
 41
0.0
 10
2.9842405752393226
 20
-1.8287449765058212
 40
9.5
 41
0.0
 10
3.05373602475479
 20
-1.7101743452393419
 40
9.5
 41
0.0
 10
3.118522834659288
 20
-1.5889667490884125
 40
9.5
 41
0.0
 10
3.178501108387783
 20
-1.465309081381002
 40
9.5
 41
0.0
 10
3.2335783637895026
 20
-1.3393920132778172
 40
9.5
 41
0.0
 10
3.2836696757286936
 20
-1.2114096997712278
 40
9.5
 41
0.0
 10
3.328697807033037
 20
-1.0815594803123176
 40
9.5
 41
0.0
  0
LINE
  5
B6
330
17
100
AcDbEntity
  8
STRINGERS
 62
5
100
AcDbLine
 10
2.0225424859373677
 20
-1.4694631307311836
 30
9.5
 11
2.8315594803123147
 21
-2.057248383023657
 31
9.5
  0
LINE
  5
B7
330
17
100
AcDbEntity
  8
STRINGERS
 62
5
100
AcDbLine
 10
2.1316004108852304
 20
-1.3062464117898722
 30
9.5
 11
2.9842405752393226
 21
-1.8287449765058212
 31
9.5
  0
LINE
  5
B8
330
17
100
AcDbEntity
  8
STRINGERS
 62
5
100
AcDbLine
 10
2.22751631047092
 20
-1.134976249348866
 30
9.5
 11
3.118522834659288
 21
-1.5889667490884125
 31
9.5
  0
LINE
  5
B9
330
17
100
AcDbEntity
  8
STRINGERS
 62
5
100
AcDbLine
 10
2.309698831278216
 20
-0.9567085809127265
 30
9.5
 11
3.2335783637895026
 21
-1.3393920132778172
 31
9.5
  0
LINE
  5
BA
330
17
100
AcDbEntity
  8
HANDRAIL
 62
2
100
AcDbLine
 10
4.2
 20
0.0
 30
0.0
 11
3.3978713763747797
 21
2.4686980596283874
 31
0.5
  0
LINE
  5
BB
330
17
100
AcDbEntity
  8
HANDRAIL
 62
2
100
AcDbLine
 10
3.3978713763747797
 20
2.4686980596283874
 30
0.5
 11
1.2978713763747793
 21
3.994437368439645
 31
1.0
  0
LINE
  5
BC
330
17
100
AcDbEntity
  8
HANDRAIL
 62
2
100
AcDbLine
 10
1.2978713763747793
 20
3.994437368439645
 30
1.0
 11
-1.297871376374779
 21
3.9944373684396455
 31
1.5
  0
LINE
  5
BD
330
17
100
AcDbEntity
  8
HANDRAIL
 62
2
100
AcDbLine
 10
-1.297871376374779
 20
3.9944373684396455
 30
1.5
 11
-3.3978713763747788
 21
2.468698059628388
 31
2.0
  0
LINE
  5
BE
330
17
100
AcDbEntity
  8
HANDRAIL
 62
2
100
AcDbLine
 10
-3.3978713763747788
 20
2.468698059628388
 30
2.0
 11
-4.2
 21
5.143516556418884e-16
 31
2.5
  0
LINE
  5
BF
330
17
100
AcDbEntity
  8
HANDRAIL
 62
2
100
AcDbLine
 10
-4.2
 20
5.143516556418884e-16
 30
2.5
 11
-3.3978713763747797
 21
-2.468698059628387
 31
3.0
  0
LINE
  5
C0
330
17
100
AcDbEntity
  8
HANDRAIL
 62
2
100
AcDbLine
 10
-3.3978713763747797
 20
-2.468698059628387
 30
3.0
 11
-1.2978713763747798
 21
-3.994437368439645
 31
3.5
  0
LINE
  5
C1
330
17
100
AcDbEntity
  8
HANDRAIL
 62
2
100
AcDbLine
 10
-1.2978713763747798
 20
-3.994437368439645
 30
3.5
 11
1.2978713763747785
 21
-3.9944373684396455
 31
4.0
  0
LINE
  5
C2
330
17
100
AcDbEntity
  8
HANDRAIL
 62
2
100
AcDbLine
 10
1.2978713763747785
 20
-3.9944373684396455
 30
4.0
 11
3.3978713763747788
 21
-2.4686980596283883
 31
4.5
  0
LINE
  5
C3
330
17
100
AcDbEntity
  8
HANDRAIL
 62
2
100
AcDbLine
 10
3.3978713763747788
 20
-2.4686980596283883
 30
4.5
 11
4.2
 21
-1.0287033112837768e-15
 31
5.0
  0
LINE
  5
C4
330
17
100
AcDbEntity
  8
HANDRAIL
 62
2
100
AcDbLine
 10
4.2
 20
-1.0287033112837768e-15
 30
5.0
 11
3.3978713763747774
 21
2.468698059628389
 31
5.5
  0
LINE
  5
C5
330
17
100
AcDbEntity
  8
HANDRAIL
 62
2
100
AcDbLine
 10
3.3978713763747774
 20
2.468698059628389
 30
5.5
 11
1.2978713763747804
 21
3.994437368439645
 31
6.0
  0
LINE
  5
C6
330
17
100
AcDbEntity
  8
HANDRAIL
 62
2
100
AcDbLine
 10
1.2978713763747804
 20
3.994437368439645
 30
6.0
 11
-1.297871376374778
 21
3.9944373684396455
 31
6.5
  0
LINE
  5
C7
330
17
100
AcDbEntity
  8
HANDRAIL
 62
2
100
AcDbLine
 10
-1.297871376374778
 20
3.9944373684396455
 30
6.5
 11
-3.3978713763747783
 21
2.4686980596283883
 31
7.0
  0
LINE
  5
C8
330
17
100
AcDbEntity
  8
HANDRAIL
 62
2
100
AcDbLine
 10
-3.3978713763747783
 20
2.4686980596283883
 30
7.0
 11
-4.2
 21
1.543054966925665e-15
 31
7.5
  0
LINE
  5
C9
330
17
100
AcDbEntity
  8
HANDRAIL
 62
2
100
AcDbLine
 10
-4.2
 20
1.543054966925665e-15
 30
7.5
 11
-3.3978713763747805
 21
-2.468698059628386
 31
8.0
  0
LINE
  5
CA
330
17
100
AcDbEntity
  8
HANDRAIL
 62
2
100
AcDbLine
 10
-3.3978713763747805
 20
-2.468698059628386
 30
8.0
 11
-1.297871376374781
 21
-3.9944373684396446
 31
8.5
  0
LINE
  5
CB
330
17
100
AcDbEntity
  8
HANDRAIL
 62
2
100
AcDbLine
 10
-1.297871376374781
 20
-3.9944373684396446
 30
8.5
 11
1.2978713763747776
 21
-3.994437368439646
 31
9.0
  0
LINE
  5
CC
330
17
100
AcDbEntity
  8
HANDRAIL
 62
2
100
AcDbLine
 10
1.2978713763747776
 20
-3.994437368439646
 30
9.0
 11
3.397871376374778
 21
-2.4686980596283887
 31
9.5
  0
LINE
  5
CD
330
17
100
AcDbEntity
  8
COLUMN
 62
6
100
AcDbLine
 10
-0.3
 20
-0.3
 30
0.0
 11
-0.27
 21
-0.27
 31
1.0
  0
LINE
  5
CE
330
17
100
AcDbEntity
  8
COLUMN
 62
6
100
AcDbLine
 10
0.3
 20
-0.3
 30
0.0
 11
0.27
 21
-0.27
 31
1.0
  0
LINE
  5
CF
330
17
100
AcDbEntity
  8
COLUMN
 62
6
100
AcDbLine
 10
0.3
 20
0.3
 30
0.0
 11
0.27
 21
0.27
 31
1.0
  0
LINE
  5
D0
330
17
100
AcDbEntity
  8
COLUMN
 62
6
100
AcDbLine
 10
-0.3
 20
0.3
 30
0.0
 11
-0.27
 21
0.27
 31
1.0
  0
LINE
  5
D1
330
17
100
AcDbEntity
  8
COLUMN
 62
6
100
AcDbLine
 10
-0.27
 20
-0.27
 30
1.0
 11
-0.24
 21
-0.24
 31
2.0
  0
LINE
  5
D2
330
17
100
AcDbEntity
  8
COLUMN
 62
6
100
AcDbLine
 10
0.27
 20
-0.27
 30
1.0
 11
0.24
 21
-0.24
 31
2.0
  0
LINE
  5
D3
330
17
100
AcDbEntity
  8
COLUMN
 62
6
100
AcDbLine
 10
0.27
 20
0.27
 30
1.0
 11
0.24
 21
0.24
 31
2.0
  0
LINE
  5
D4
330
17
100
AcDbEntity
  8
COLUMN
 62
6
100
AcDbLine
 10
-0.27
 20
0.27
 30
1.0
 11
-0.24
 21
0.24
 31
2.0
  0
LINE
  5
D5
330
17
100
AcDbEntity
  8
COLUMN
 62
6
100
AcDbLine
 10
-0.24
 20
-0.24
 30
2.0
 11
-0.21
 21
-0.21
 31
3.0
  0
LINE
  5
D6
330
17
100
AcDbEntity
  8
COLUMN
 62
6
100
AcDbLine
 10
0.24
 20
-0.24
 30
2.0
 11
0.21
 21
-0.21
 31
3.0
  0
LINE
  5
D7
330
17
100
AcDbEntity
  8
COLUMN
 62
6
100
AcDbLine
 10
0.24
 20
0.24
 30
2.0
 11
0.21
 21
0.21
 31
3.0
  0
LINE
  5
D8
330
17
100
AcDbEntity
  8
COLUMN
 62
6
100
AcDbLine
 10
-0.24
 20
0.24
 30
2.0
 11
-0.21
 21
0.21
 31
3.0
  0
LINE
  5
D9
330
17
100
AcDbEntity
  8
COLUMN
 62
6
100
AcDbLine
 10
-0.21
 20
-0.21
 30
3.0
 11
-0.18
 21
-0.18
 31
4.0
  0
LINE
  5
DA
330
17
100
AcDbEntity
  8
COLUMN
 62
6
100
AcDbLine
 10
0.21
 20
-0.21
 30
3.0
 11
0.18
 21
-0.18
 31
4.0
  0
LINE
  5
DB
330
17
100
AcDbEntity
  8
COLUMN
 62
6
100
AcDbLine
 10
0.21
 20
0.21
 30
3.0
 11
0.18
 21
0.18
 31
4.0
  0
LINE
  5
DC
330
17
100
AcDbEntity
  8
COLUMN
 62
6
100
AcDbLine
 10
-0.21
 20
0.21
 30
3.0
 11
-0.18
 21
0.18
 31
4.0
  0
LINE
  5
DD
330
17
100
AcDbEntity
  8
COLUMN
 62
6
100
AcDbLine
 10
-0.18
 20
-0.18
 30
4.0
 11
-0.15
 21
-0.15
 31
5.0
  0
LINE
  5
DE
330
17
100
AcDbEntity
  8
COLUMN
 62
6
100
AcDbLine
 10
0.18
 20
-0.18
 30
4.0
 11
0.15
 21
-0.15
 31
5.0
  0
LINE
  5
DF
330
17
100
AcDbEntity
  8
COLUMN
 62
6
100
AcDbLine
 10
0.18
 20
0.18
 30
4.0
 11
0.15
 21
0.15
 31
5.0
  0
LINE
  5
E0
330
17
100
AcDbEntity
  8
COLUMN
 62
6
100
AcDbLine
 10
-0.18
 20
0.18
 30
4.0
 11
-0.15
 21
0.15
 31
5.0
  0
LINE
  5
E1
330
17
100
AcDbEntity
  8
COLUMN
 62
6
100
AcDbLine
 10
-0.15
 20
-0.15
 30
5.0
 11
-0.12
 21
-0.12
 31
6.0
  0
LINE
  5
E2
330
17
100
AcDbEntity
  8
COLUMN
 62
6
100
AcDbLine
 10
0.15
 20
-0.15
 30
5.0
 11
0.12
 21
-0.12
 31
6.0
  0
LINE
  5
E3
330
17
100
AcDbEntity
  8
COLUMN
 62
6
100
AcDbLine
 10
0.15
 20
0.15
 30
5.0
 11
0.12
 21
0.12
 31
6.0
  0
LINE
  5
E4
330
17
100
AcDbEntity
  8
COLUMN
 62
6
100
AcDbLine
 10
-0.15
 20
0.15
 30
5.0
 11
-0.12
 21
0.12
 31
6.0
  0
LINE
  5
E5
330
17
100
AcDbEntity
  8
COLUMN
 62
6
100
AcDbLine
 10
-0.12
 20
-0.12
 30
6.0
 11
-0.09000000000000001
 21
-0.09000000000000001
 31
7.0
  0
LINE
  5
E6
330
17
100
AcDbEntity
  8
COLUMN
 62
6
100
AcDbLine
 10
0.12
 20
-0.12
 30
6.0
 11
0.09000000000000001
 21
-0.09000000000000001
 31
7.0
  0
LINE
  5
E7
330
17
100
AcDbEntity
  8
COLUMN
 62
6
100
AcDbLine
 10
0.12
 20
0.12
 30
6.0
 11
0.09000000000000001
 21
0.09000000000000001
 31
7.0
  0
LINE
  5
E8
330
17
100
AcDbEntity
  8
COLUMN
 62
6
100
AcDbLine
 10
-0.12
 20
0.12
 30
6.0
 11
-0.09000000000000001
 21
0.09000000000000001
 31
7.0
  0
LINE
  5
E9
330
17
100
AcDbEntity
  8
COLUMN
 62
6
100
AcDbLine
 10
-0.09000000000000001
 20
-0.09000000000000001
 30
7.0
 11
-0.059999999999999984
 21
-0.059999999999999984
 31
8.0
  0
LINE
  5
EA
330
17
100
AcDbEntity
  8
COLUMN
 62
6
100
AcDbLine
 10
0.09000000000000001
 20
-0.09000000000000001
 30
7.0
 11
0.059999999999999984
 21
-0.059999999999999984
 31
8.0
  0
LINE
  5
EB
330
17
100
AcDbEntity
  8
COLUMN
 62
6
100
AcDbLine
 10
0.09000000000000001
 20
0.09000000000000001
 30
7.0
 11
0.059999999999999984
 21
0.059999999999999984
 31
8.0
  0
LINE
  5
EC
330
17
100
AcDbEntity
  8
COLUMN
 62
6
100
AcDbLine
 10
-0.09000000000000001
 20
0.09000000000000001
 30
7.0
 11
-0.059999999999999984
 21
0.059999999999999984
 31
8.0
  0
LINE
  5
ED
330
17
100
AcDbEntity
  8
COLUMN
 62
6
100
AcDbLine
 10
-0.059999999999999984
 20
-0.059999999999999984
 30
8.0
 11
-0.029999999999999992
 21
-0.029999999999999992
 31
9.0
  0
LINE
  5
EE
330
17
100
AcDbEntity
  8
COLUMN
 62
6
100
AcDbLine
 10
0.059999999999999984
 20
-0.059999999999999984
 30
8.0
 11
0.029999999999999992
 21
-0.029999999999999992
 31
9.0
  0
LINE
  5
EF
330
17
100
AcDbEntity
  8
COLUMN
 62
6
100
AcDbLine
 10
0.059999999999999984
 20
0.059999999999999984
 30
8.0
 11
0.029999999999999992
 21
0.029999999999999992
 31
9.0
  0
LINE
  5
F0
330
17
100
AcDbEntity
  8
COLUMN
 62
6
100
AcDbLine
 10
-0.059999999999999984
 20
0.059999999999999984
 30
8.0
 11
-0.029999999999999992
 21
0.029999999999999992
 31
9.0
  0
ENDSEC
  0
SECTION
  2
OBJECTS
  0
DICTIONARY
  5
A
330
0
100
AcDbDictionary
281
1
  3
ACAD_COLOR
350
B
  3
ACAD_GROUP
350
C
  3
ACAD_LAYOUT
350
D
  3
ACAD_MATERIAL
350
E
  3
ACAD_MLEADERSTYLE
350
F
  3
ACAD_MLINESTYLE
350
10
  3
ACAD_PLOTSETTINGS
350
11
  3
ACAD_PLOTSTYLENAME
350
12
  3
ACAD_SCALELIST
350
14
  3
ACAD_TABLESTYLE
350
15
  3
ACAD_VISUALSTYLE
350
16
  3
EZDXF_META
350
2D
  0
DICTIONARY
  5
B
330
A
100
AcDbDictionary
281
1
  0
DICTIONARY
  5
C
330
A
100
AcDbDictionary
281
1
  0
DICTIONARY
  5
D
330
A
100
AcDbDictionary
281
1
  3
Model
350
1A
  3
Layout1
350
1E
  0
DICTIONARY
  5
E
330
A
100
AcDbDictionary
281
1
  3
ByBlock
350
1F
  3
ByLayer
350
20
  3
Global
350
21
  0
DICTIONARY
  5
F
330
A
100
AcDbDictionary
281
1
  3
Standard
350
2C
  0
DICTIONARY
  5
10
330
A
100
AcDbDictionary
281
1
  3
Standard
350
22
  0
DICTIONARY
  5
11
330
A
100
AcDbDictionary
281
1
  0
ACDBDICTIONARYWDFLT
  5
12
330
A
100
AcDbDictionary
281
1
  3
Normal
350
13
100
AcDbDictionaryWithDefault
340
13
  0
ACDBPLACEHOLDER
  5
13
330
12
  0
DICTIONARY
  5
14
330
A
100
AcDbDictionary
281
1
  0
DICTIONARY
  5
15
330
A
100
AcDbDictionary
281
1
  0
DICTIONARY
  5
16
330
A
100
AcDbDictionary
281
1
  0
LAYOUT
  5
1A
330
D
100
AcDbPlotSettings
  1

  4
A3
  6

 40
7.5
 41
20.0
 42
7.5
 43
20.0
 44
420.0
 45
297.0
 46
0.0
 47
0.0
 48
0.0
 49
0.0
140
0.0
141
0.0
142
1.0
143
1.0
 70
1024
 72
1
 73
0
 74
5
  7

 75
16
 76
0
 77
2
 78
300
147
1.0
148
0.0
149
0.0
100
AcDbLayout
  1
Model
 70
1
 71
0
 10
0.0
 20
0.0
 11
420.0
 21
297.0
 12
0.0
 22
0.0
 32
0.0
 14
1e+20
 24
1e+20
 34
1e+20
 15
-1e+20
 25
-1e+20
 35
-1e+20
146
0.0
 13
0.0
 23
0.0
 33
0.0
 16
1.0
 26
0.0
 36
0.0
 17
0.0
 27
1.0
 37
0.0
 76
1
330
17
  0
LAYOUT
  5
1E
330
D
100
AcDbPlotSettings
  1

  4
A3
  6

 40
7.5
 41
20.0
 42
7.5
 43
20.0
 44
420.0
 45
297.0
 46
0.0
 47
0.0
 48
0.0
 49
0.0
140
0.0
141
0.0
142
1.0
143
1.0
 70
0
 72
1
 73
0
 74
5
  7

 75
16
 76
0
 77
2
 78
300
147
1.0
148
0.0
149
0.0
100
AcDbLayout
  1
Layout1
 70
1
 71
1
 10
0.0
 20
0.0
 11
420.0
 21
297.0
 12
0.0
 22
0.0
 32
0.0
 14
1e+20
 24
1e+20
 34
1e+20
 15
-1e+20
 25
-1e+20
 35
-1e+20
146
0.0
 13
0.0
 23
0.0
 33
0.0
 16
1.0
 26
0.0
 36
0.0
 17
0.0
 27
1.0
 37
0.0
 76
1
330
1B
  0
MATERIAL
  5
1F
102
{ACAD_REACTORS
330
E
102
}
330
E
100
AcDbMaterial
  1
ByBlock
  2

 70
0
 40
1.0
 71
1
 41
1.0
 91
-1023410177
 42
1.0
 72
1
  3

 73
1
 74
1
 75
1
 44
0.5
 73
0
 45
1.0
 46
1.0
 77
1
  4

 78
1
 79
1
170
1
 48
1.0
171
1
  6

172
1
173
1
174
1
140
1.0
141
1.0
175
1
  7

176
1
177
1
178
1
143
1.0
179
1
  8

270
1
271
1
272
1
145
1.0
146
1.0
273
1
  9

274
1
275
1
276
1
 42
1.0
 72
1
  3

 73
1
 74
1
 75
1
 94
63
  0
MATERIAL
  5
20
102
{ACAD_REACTORS
330
E
102
}
330
E
100
AcDbMaterial
  1
ByLayer
  2

 70
0
 40
1.0
 71
1
 41
1.0
 91
-1023410177
 42
1.0
 72
1
  3

 73
1
 74
1
 75
1
 44
0.5
 73
0
 45
1.0
 46
1.0
 77
1
  4

 78
1
 79
1
170
1
 48
1.0
171
1
  6

172
1
173
1
174
1
140
1.0
141
1.0
175
1
  7

176
1
177
1
178
1
143
1.0
179
1
  8

270
1
271
1
272
1
145
1.0
146
1.0
273
1
  9

274
1
275
1
276
1
 42
1.0
 72
1
  3

 73
1
 74
1
 75
1
 94
63
  0
MATERIAL
  5
21
102
{ACAD_REACTORS
330
E
102
}
330
E
100
AcDbMaterial
  1
Global
  2

 70
0
 40
1.0
 71
1
 41
1.0
 91
-1023410177
 42
1.0
 72
1
  3

 73
1
 74
1
 75
1
 44
0.5
 73
0
 45
1.0
 46
1.0
 77
1
  4

 78
1
 79
1
170
1
 48
1.0
171
1
  6

172
1
173
1
174
1
140
1.0
141
1.0
175
1
  7

176
1
177
1
178
1
143
1.0
179
1
  8

270
1
271
1
272
1
145
1.0
146
1.0
273
1
  9

274
1
275
1
276
1
 42
1.0
 72
1
  3

 73
1
 74
1
 75
1
 94
63
  0
MLINESTYLE
  5
22
102
{ACAD_REACTORS
330
10
102
}
330
10
100
AcDbMlineStyle
  2
Standard
 70
0
  3

 62
256
 51
90.0
 52
90.0
 71
2
 49
0.5
 62
256
  6
BYLAYER
 49
-0.5
 62
256
  6
BYLAYER
  0
MLEADERSTYLE
  5
2C
102
{ACAD_REACTORS
330
F
102
}
330
F
100
AcDbMLeaderStyle
179
2
170
2
171
1
172
0
 90
2
 40
0.0
 41
0.0
173
1
 91
-1056964608
 92
-2
290
1
 42
2.0
291
1
 43
8.0
  3
Standard
 44
4.0
300

342
29
174
1
175
1
176
0
178
1
 93
-1056964608
 45
4.0
292
0
297
0
 46
4.0
 94
-1056964608
 47
1.0
 49
1.0
140
1.0
294
1
141
0.0
177
0
142
1.0
295
0
296
0
143
3.75
271
0
272
9
273
9
  0
DICTIONARY
  5
2D
330
A
100
AcDbDictionary
280
1
281
1
  3
CREATED_BY_EZDXF
350
2E
  3
WRITTEN_BY_EZDXF
350
F3
  0
DICTIONARYVAR
  5
2E
330
2D
100
DictionaryVariables
280
0
  1
1.4.3 @ 2025-12-16T17:24:48.305384+00:00
  0
DICTIONARYVAR
  5
F3
330
2D
100
DictionaryVariables
280
0
  1
1.4.3 @ 2025-12-16T17:24:48.310014+00:00
  0
ENDSEC
  0
EOF
