  0
SECTION
  2
HEADER
  9
$ACADVER
  1
AC1015
  9
$ACADMAINTVER
 70
6
  9
$DWGCODEPAGE
  3
ANSI_1252
  9
$INSBASE
 10
0.0
 20
0.0
 30
0.0
  9
$EXTMIN
 10
1e+20
 20
1e+20
 30
1e+20
  9
$EXTMAX
 10
-1e+20
 20
-1e+20
 30
-1e+20
  9
$LIMMIN
 10
0.0
 20
0.0
  9
$LIMMAX
 10
420.0
 20
297.0
  9
$ORTHOMODE
 70
0
  9
$REGENMODE
 70
1
  9
$FILLMODE
 70
1
  9
$QTEXTMODE
 70
0
  9
$MIRRTEXT
 70
1
  9
$LTSCALE
 40
1.0
  9
$ATTMODE
 70
1
  9
$TEXTSIZE
 40
2.5
  9
$TRACEWID
 40
1.0
  9
$TEXTSTYLE
  7
Standard
  9
$CLAYER
  8
0
  9
$CELTYPE
  6
ByLayer
  9
$CECOLOR
 62
256
  9
$CELTSCALE
 40
1.0
  9
$DISPSILH
 70
0
  9
$DIMSCALE
 40
1.0
  9
$DIMASZ
 40
2.5
  9
$DIMEXO
 40
0.625
  9
$DIMDLI
 40
3.75
  9
$DIMRND
 40
0.0
  9
$DIMDLE
 40
0.0
  9
$DIMEXE
 40
1.25
  9
$DIMTP
 40
0.0
  9
$DIMTM
 40
0.0
  9
$DIMTXT
 40
2.5
  9
$DIMCEN
 40
2.5
  9
$DIMTSZ
 40
0.0
  9
$DIMTOL
 70
0
  9
$DIMLIM
 70
0
  9
$DIMTIH
 70
0
  9
$DIMTOH
 70
0
  9
$DIMSE1
 70
0
  9
$DIMSE2
 70
0
  9
$DIMTAD
 70
1
  9
$DIMZIN
 70
8
  9
$DIMBLK
  1

  9
$DIMASO
 70
1
  9
$DIMSHO
 70
1
  9
$DIMPOST
  1

  9
$DIMAPOST
  1

  9
$DIMALT
 70
0
  9
$DIMALTD
 70
3
  9
$DIMALTF
 40
0.03937007874
  9
$DIMLFAC
 40
1.0
  9
$DIMTOFL
 70
1
  9
$DIMTVP
 40
0.0
  9
$DIMTIX
 70
0
  9
$DIMSOXD
 70
0
  9
$DIMSAH
 70
0
  9
$DIMBLK1
  1

  9
$DIMBLK2
  1

  9
$DIMSTYLE
  2
ISO-25
  9
$DIMCLRD
 70
0
  9
$DIMCLRE
 70
0
  9
$DIMCLRT
 70
0
  9
$DIMTFAC
 40
1.0
  9
$DIMGAP
 40
0.625
  9
$DIMJUST
 70
0
  9
$DIMSD1
 70
0
  9
$DIMSD2
 70
0
  9
$DIMTOLJ
 70
0
  9
$DIMTZIN
 70
8
  9
$DIMALTZ
 70
0
  9
$DIMALTTZ
 70
0
  9
$DIMUPT
 70
0
  9
$DIMDEC
 70
2
  9
$DIMTDEC
 70
2
  9
$DIMALTU
 70
2
  9
$DIMALTTD
 70
3
  9
$DIMTXSTY
  7
Standard
  9
$DIMAUNIT
 70
0
  9
$DIMADEC
 70
0
  9
$DIMALTRND
 40
0.0
  9
$DIMAZIN
 70
0
  9
$DIMDSEP
 70
44
  9
$DIMATFIT
 70
3
  9
$DIMFRAC
 70
0
  9
$DIMLDRBLK
  1

  9
$DIMLUNIT
 70
2
  9
$DIMLWD
 70
-2
  9
$DIMLWE
 70
-2
  9
$DIMTMOVE
 70
0
  9
$LUNITS
 70
2
  9
$LUPREC
 70
4
  9
$SKETCHINC
 40
1.0
  9
$FILLETRAD
 40
10.0
  9
$AUNITS
 70
0
  9
$AUPREC
 70
2
  9
$MENU
  1
.
  9
$ELEVATION
 40
0.0
  9
$PELEVATION
 40
0.0
  9
$THICKNESS
 40
0.0
  9
$LIMCHECK
 70
0
  9
$CHAMFERA
 40
0.0
  9
$CHAMFERB
 40
0.0
  9
$CHAMFERC
 40
0.0
  9
$CHAMFERD
 40
0.0
  9
$SKPOLY
 70
0
  9
$TDCREATE
 40
2461026.962071759
  9
$TDUCREATE
 40
2458532.153996898
  9
$TDUPDATE
 40
2461026.962071759
  9
$TDUUPDATE
 40
2458532.1544311
  9
$TDINDWG
 40
0.0
  9
$TDUSRTIMER
 40
0.0
  9
$USRTIMER
 70
1
  9
$ANGBASE
 50
0.0
  9
$ANGDIR
 70
0
  9
$PDMODE
 70
0
  9
$PDSIZE
 40
0.0
  9
$PLINEWID
 40
0.0
  9
$SPLFRAME
 70
0
  9
$SPLINETYPE
 70
6
  9
$SPLINESEGS
 70
8
  9
$HANDSEED
  5
120
  9
$SURFTAB1
 70
6
  9
$SURFTAB2
 70
6
  9
$SURFTYPE
 70
6
  9
$SURFU
 70
6
  9
$SURFV
 70
6
  9
$UCSBASE
  2

  9
$UCSNAME
  2

  9
$UCSORG
 10
0.0
 20
0.0
 30
0.0
  9
$UCSXDIR
 10
1.0
 20
0.0
 30
0.0
  9
$UCSYDIR
 10
0.0
 20
1.0
 30
0.0
  9
$UCSORTHOREF
  2

  9
$UCSORTHOVIEW
 70
0
  9
$UCSORGTOP
 10
0.0
 20
0.0
 30
0.0
  9
$UCSORGBOTTOM
 10
0.0
 20
0.0
 30
0.0
  9
$UCSORGLEFT
 10
0.0
 20
0.0
 30
0.0
  9
$UCSORGRIGHT
 10
0.0
 20
0.0
 30
0.0
  9
$UCSORGFRONT
 10
0.0
 20
0.0
 30
0.0
  9
$UCSORGBACK
 10
0.0
 20
0.0
 30
0.0
  9
$PUCSBASE
  2

  9
$PUCSNAME
  2

  9
$PUCSORG
 10
0.0
 20
0.0
 30
0.0
  9
$PUCSXDIR
 10
1.0
 20
0.0
 30
0.0
  9
$PUCSYDIR
 10
0.0
 20
1.0
 30
0.0
  9
$PUCSORTHOREF
  2

  9
$PUCSORTHOVIEW
 70
0
  9
$PUCSORGTOP
 10
0.0
 20
0.0
 30
0.0
  9
$PUCSORGBOTTOM
 10
0.0
 20
0.0
 30
0.0
  9
$PUCSORGLEFT
 10
0.0
 20
0.0
 30
0.0
  9
$PUCSORGRIGHT
 10
0.0
 20
0.0
 30
0.0
  9
$PUCSORGFRONT
 10
0.0
 20
0.0
 30
0.0
  9
$PUCSORGBACK
 10
0.0
 20
0.0
 30
0.0
  9
$USERI1
 70
0
  9
$USERI2
 70
0
  9
$USERI3
 70
0
  9
$USERI4
 70
0
  9
$USERI5
 70
0
  9
$USERR1
 40
0.0
  9
$USERR2
 40
0.0
  9
$USERR3
 40
0.0
  9
$USERR4
 40
0.0
  9
$USERR5
 40
0.0
  9
$WORLDVIEW
 70
1
  9
$SHADEDGE
 70
3
  9
$SHADEDIF
 70
70
  9
$TILEMODE
 70
1
  9
$MAXACTVP
 70
64
  9
$PINSBASE
 10
0.0
 20
0.0
 30
0.0
  9
$PLIMCHECK
 70
0
  9
$PEXTMIN
 10
1e+20
 20
1e+20
 30
1e+20
  9
$PEXTMAX
 10
-1e+20
 20
-1e+20
 30
-1e+20
  9
$PLIMMIN
 10
0.0
 20
0.0
  9
$PLIMMAX
 10
420.0
 20
297.0
  9
$UNITMODE
 70
0
  9
$VISRETAIN
 70
1
  9
$PLINEGEN
 70
0
  9
$PSLTSCALE
 70
1
  9
$TREEDEPTH
 70
3020
  9
$CMLSTYLE
  2
Standard
  9
$CMLJUST
 70
0
  9
$CMLSCALE
 40
20.0
  9
$PROXYGRAPHICS
 70
1
  9
$MEASUREMENT
 70
1
  9
$CELWEIGHT
370
-1
  9
$ENDCAPS
280
0
  9
$JOINSTYLE
280
0
  9
$LWDISPLAY
290
0
  9
$INSUNITS
 70
6
  9
$HYPERLINKBASE
  1

  9
$STYLESHEET
  1

  9
$XEDIT
290
1
  9
$CEPSNTYPE
380
0
  9
$PSTYLEMODE
290
1
  9
$FINGERPRINTGUID
  2
{F1078F34-4B75-4D7C-912F-08E4816F1406}
  9
$VERSIONGUID
  2
{D2651A91-22CC-445D-8BFA-4D7F965D2F7E}
  9
$EXTNAMES
290
1
  9
$PSVPSCALE
 40
0.0
  9
$OLESTARTUP
290
0
  0
ENDSEC
  0
SECTION
  2
CLASSES
  0
CLASS
  1
ACDBDICTIONARYWDFLT
  2
AcDbDictionaryWithDefault
  3
ObjectDBX Classes
 90
0
280
0
281
0
  0
CLASS
  1
SUN
  2
AcDbSun
  3
SCENEOE
 90
1153
280
0
281
0
  0
CLASS
  1
VISUALSTYLE
  2
AcDbVisualStyle
  3
ObjectDBX Classes
 90
4095
280
0
281
0
  0
CLASS
  1
MATERIAL
  2
AcDbMaterial
  3
ObjectDBX Classes
 90
1153
280
0
281
0
  0
CLASS
  1
SCALE
  2
AcDbScale
  3
ObjectDBX Classes
 90
1153
280
0
281
0
  0
CLASS
  1
TABLESTYLE
  2
AcDbTableStyle
  3
ObjectDBX Classes
 90
4095
280
0
281
0
  0
CLASS
  1
MLEADERSTYLE
  2
AcDbMLeaderStyle
  3
ACDB_MLEADERSTYLE_CLASS
 90
4095
280
0
281
0
  0
CLASS
  1
DICTIONARYVAR
  2
AcDbDictionaryVar
  3
ObjectDBX Classes
 90
0
280
0
281
0
  0
CLASS
  1
CELLSTYLEMAP
  2
AcDbCellStyleMap
  3
ObjectDBX Classes
 90
1152
280
0
281
0
  0
CLASS
  1
MENTALRAYRENDERSETTINGS
  2
AcDbMentalRayRenderSettings
  3
SCENEOE
 90
1024
280
0
281
0
  0
CLASS
  1
ACDBDETAILVIEWSTYLE
  2
AcDbDetailViewStyle
  3
ObjectDBX Classes
 90
1025
280
0
281
0
  0
CLASS
  1
ACDBSECTIONVIEWSTYLE
  2
AcDbSectionViewStyle
  3
ObjectDBX Classes
 90
1025
280
0
281
0
  0
CLASS
  1
RASTERVARIABLES
  2
AcDbRasterVariables
  3
ISM
 90
0
280
0
281
0
  0
CLASS
  1
ACDBPLACEHOLDER
  2
AcDbPlaceHolder
  3
ObjectDBX Classes
 90
0
280
0
281
0
  0
CLASS
  1
LAYOUT
  2
AcDbLayout
  3
ObjectDBX Classes
 90
0
280
0
281
0
  0
ENDSEC
  0
SECTION
  2
TABLES
  0
TABLE
  2
VPORT
  5
8
330
0
100
AcDbSymbolTable
 70
1
  0
VPORT
  5
23
330
8
100
AcDbSymbolTableRecord
100
AcDbViewportTableRecord
  2
*Active
 70
0
 10
0.0
 20
0.0
 11
1.0
 21
1.0
 12
0.0
 22
0.0
 13
0.0
 23
0.0
 14
0.5
 24
0.5
 15
0.5
 25
0.5
 16
0.0
 26
0.0
 36
1.0
 17
0.0
 27
0.0
 37
0.0
 40
1000.0
 41
1.34
 42
50.0
 43
0.0
 44
0.0
 50
0.0
 51
0.0
 71
0
 72
1000
 73
1
 74
3
 75
0
 76
0
 77
0
 78
0
281
0
 65
0
146
0.0
  0
ENDTAB
  0
TABLE
  2
LTYPE
  5
2
330
0
100
AcDbSymbolTable
 70
3
  0
LTYPE
  5
24
330
2
100
AcDbSymbolTableRecord
100
AcDbLinetypeTableRecord
  2
ByBlock
 70
0
  3

 72
65
 73
0
 40
0.0
  0
LTYPE
  5
25
330
2
100
AcDbSymbolTableRecord
100
AcDbLinetypeTableRecord
  2
ByLayer
 70
0
  3

 72
65
 73
0
 40
0.0
  0
LTYPE
  5
26
330
2
100
AcDbSymbolTableRecord
100
AcDbLinetypeTableRecord
  2
Continuous
 70
0
  3

 72
65
 73
0
 40
0.0
  0
ENDTAB
  0
TABLE
  2
LAYER
  5
1
330
0
100
AcDbSymbolTable
 70
2
  0
LAYER
  5
27
330
1
100
AcDbSymbolTableRecord
100
AcDbLayerTableRecord
  2
0
 70
0
 62
7
  6
Continuous
370
-3
390
13
  0
LAYER
  5
28
330
1
100
AcDbSymbolTableRecord
100
AcDbLayerTableRecord
  2
Defpoints
 70
0
 62
7
  6
Continuous
290
0
370
-3
390
13
  0
ENDTAB
  0
TABLE
  2
STYLE
  5
5
330
0
100
AcDbSymbolTable
 70
1
  0
STYLE
  5
29
330
5
100
AcDbSymbolTableRecord
100
AcDbTextStyleTableRecord
  2
Standard
 70
0
 40
0.0
 41
1.0
 50
0.0
 71
0
 42
2.5
  3
txt
  4

  0
ENDTAB
  0
TABLE
  2
VIEW
  5
7
330
0
100
AcDbSymbolTable
 70
0
  0
ENDTAB
  0
TABLE
  2
UCS
  5
6
330
0
100
AcDbSymbolTable
 70
0
  0
ENDTAB
  0
TABLE
  2
APPID
  5
3
330
0
100
AcDbSymbolTable
 70
3
  0
APPID
  5
2A
330
3
100
AcDbSymbolTableRecord
100
AcDbRegAppTableRecord
  2
ACAD
 70
0
  0
APPID
  5
11D
330
3
100
AcDbSymbolTableRecord
100
AcDbRegAppTableRecord
  2
HATCHBACKGROUNDCOLOR
 70
0
  0
APPID
  5
11E
330
3
100
AcDbSymbolTableRecord
100
AcDbRegAppTableRecord
  2
EZDXF
 70
0
  0
ENDTAB
  0
TABLE
  2
DIMSTYLE
  5
4
330
0
100
AcDbSymbolTable
 70
1
100
AcDbDimStyleTable
  0
DIMSTYLE
105
2B
330
4
100
AcDbSymbolTableRecord
100
AcDbDimStyleTableRecord
  2
Standard
 70
0
  3

  4

 40
1.0
 41
2.5
 42
0.625
 43
3.75
 44
1.25
 45
0.0
 46
0.0
 47
0.0
 48
0.0
140
2.5
141
2.5
142
0.0
143
0.03937007874
144
1.0
145
0.0
146
1.0
147
0.625
148
0.0
 71
0
 72
0
 73
0
 74
0
 75
0
 76
0
 77
1
 78
8
 79
3
170
0
171
3
172
1
173
0
174
0
175
0
176
0
177
0
178
0
179
2
271
2
272
2
273
2
274
3
275
0
276
0
277
2
278
44
279
0
280
0
281
0
282
0
283
0
284
8
285
0
286
0
288
0
289
3
371
-2
372
-2
  0
ENDTAB
  0
TABLE
  2
BLOCK_RECORD
  5
9
330
0
100
AcDbSymbolTable
 70
2
  0
BLOCK_RECORD
  5
17
330
9
100
AcDbSymbolTableRecord
100
AcDbBlockTableRecord
  2
*Model_Space
340
1A
  0
BLOCK_RECORD
  5
1B
330
9
100
AcDbSymbolTableRecord
100
AcDbBlockTableRecord
  2
*Paper_Space
340
1E
  0
ENDTAB
  0
ENDSEC
  0
SECTION
  2
BLOCKS
  0
BLOCK
  5
18
330
17
100
AcDbEntity
  8
0
100
AcDbBlockBegin
  2
*Model_Space
 70
0
 10
0.0
 20
0.0
 30
0.0
  3
*Model_Space
  1

  0
ENDBLK
  5
19
330
17
100
AcDbEntity
  8
0
100
AcDbBlockEnd
  0
BLOCK
  5
1C
330
1B
100
AcDbEntity
  8
0
100
AcDbBlockBegin
  2
*Paper_Space
 70
0
 10
0.0
 20
0.0
 30
0.0
  3
*Paper_Space
  1

  0
ENDBLK
  5
1D
330
1B
100
AcDbEntity
  8
0
100
AcDbBlockEnd
  0
ENDSEC
  0
SECTION
  2
ENTITIES
  0
LINE
  5
2F
330
17
100
AcDbEntity
  8
0
100
AcDbLine
 10
0.0
 20
0.0
 30
0.0
 11
10.0
 21
0.0
 31
0.15
  0
LINE
  5
30
330
17
100
AcDbEntity
  8
0
100
AcDbLine
 10
10.0
 20
0.0
 30
0.15
 11
20.0
 21
0.0
 31
0.3
  0
LINE
  5
31
330
17
100
AcDbEntity
  8
0
100
AcDbLine
 10
20.0
 20
0.0
 30
0.3
 11
30.0
 21
0.0
 31
0.44999999999999996
  0
LINE
  5
32
330
17
100
AcDbEntity
  8
0
100
AcDbLine
 10
30.0
 20
0.0
 30
0.44999999999999996
 11
40.0
 21
0.0
 31
0.6
  0
LINE
  5
33
330
17
100
AcDbEntity
  8
0
100
AcDbLine
 10
40.0
 20
0.0
 30
0.6
 11
50.0
 21
0.0
 31
0.75
  0
LINE
  5
34
330
17
100
AcDbEntity
  8
0
100
AcDbLine
 10
50.0
 20
0.0
 30
0.75
 11
60.0
 21
0.0
 31
0.8
  0
LINE
  5
35
330
17
100
AcDbEntity
  8
0
100
AcDbLine
 10
60.0
 20
0.0
 30
0.8
 11
70.0
 21
0.0
 31
0.85
  0
LINE
  5
36
330
17
100
AcDbEntity
  8
0
100
AcDbLine
 10
70.0
 20
0.0
 30
0.85
 11
101.16797812147192
 21
0.6852326227131016
 31
0.9
  0
LINE
  5
37
330
17
100
AcDbEntity
  8
0
100
AcDbLine
 10
101.16797812147192
 20
0.6852326227131016
 30
0.9
 11
153.21723252011543
 21
6.155829702431106
 31
0.95
  0
LINE
  5
38
330
17
100
AcDbEntity
  8
0
100
AcDbLine
 10
153.21723252011543
 20
6.155829702431106
 30
0.95
 11
204.40952255126038
 21
17.037086855465816
 31
1.0
  0
LINE
  5
39
330
17
100
AcDbEntity
  8
0
100
AcDbLine
 10
204.40952255126038
 20
17.037086855465816
 30
1.0
 11
254.18397477265006
 21
33.209786751399065
 31
1.0499999999999998
  0
LINE
  5
3A
330
17
100
AcDbEntity
  8
0
100
AcDbLine
 10
254.18397477265006
 20
33.209786751399065
 30
1.0499999999999998
 11
301.9952498697734
 21
54.496737905816076
 31
1.1
  0
LINE
  5
3B
330
17
100
AcDbEntity
  8
0
100
AcDbLine
 10
301.9952498697734
 20
54.496737905816076
 30
1.1
 11
347.31951750751347
 21
80.66471602728797
 31
1.15
  0
LINE
  5
3C
330
17
100
AcDbEntity
  8
0
100
AcDbLine
 10
347.31951750751347
 20
80.66471602728797
 30
1.15
 11
389.6601955249188
 21
111.42701927151461
 31
1.2
  0
LINE
  5
3D
330
17
100
AcDbEntity
  8
0
100
AcDbLine
 10
389.6601955249188
 20
111.42701927151461
 30
1.2
 11
428.5533905932737
 21
146.44660940672622
 31
1.25
  0
LINE
  5
3E
330
17
100
AcDbEntity
  8
0
100
AcDbLine
 10
428.5533905932737
 20
146.44660940672622
 30
1.25
 11
463.5729807284854
 21
185.33980447508122
 31
1.3
  0
LINE
  5
3F
330
17
100
AcDbEntity
  8
0
100
AcDbLine
 10
463.5729807284854
 20
185.33980447508122
 30
1.3
 11
494.335283972712
 21
227.68048249248648
 31
1.35
  0
LINE
  5
40
330
17
100
AcDbEntity
  8
0
100
AcDbLine
 10
494.335283972712
 20
227.68048249248648
 30
1.35
 11
520.5032620941839
 21
273.00475013022657
 31
1.4
  0
LINE
  5
41
330
17
100
AcDbEntity
  8
0
100
AcDbLine
 10
520.5032620941839
 20
273.00475013022657
 30
1.4
 11
541.7902132486008
 21
320.8160252273499
 31
1.4500000000000002
  0
LINE
  5
42
330
17
100
AcDbEntity
  8
0
100
AcDbLine
 10
541.7902132486008
 20
320.8160252273499
 30
1.4500000000000002
 11
557.9629131445342
 21
370.59047744873965
 31
1.5
  0
LINE
  5
43
330
17
100
AcDbEntity
  8
0
100
AcDbLine
 10
557.9629131445342
 20
370.59047744873965
 30
1.5
 11
568.8441702975689
 21
421.78276747988457
 31
1.55
  0
LINE
  5
44
330
17
100
AcDbEntity
  8
0
100
AcDbLine
 10
568.8441702975689
 20
421.78276747988457
 30
1.55
 11
574.3147673772869
 21
473.8320218785279
 31
1.5999999999999999
  0
LINE
  5
45
330
17
100
AcDbEntity
  8
0
100
AcDbLine
 10
574.3147673772869
 20
473.8320218785279
 30
1.5999999999999999
 11
230.00000000000003
 21
500.0
 31
1.6500000000000001
  0
LINE
  5
46
330
17
100
AcDbEntity
  8
0
100
AcDbLine
 10
230.00000000000003
 20
500.0
 30
1.6500000000000001
 11
240.0
 21
500.0
 31
1.7000000000000002
  0
LINE
  5
47
330
17
100
AcDbEntity
  8
0
100
AcDbLine
 10
240.0
 20
500.0
 30
1.7000000000000002
 11
250.0
 21
500.0
 31
1.75
  0
LINE
  5
48
330
17
100
AcDbEntity
  8
0
100
AcDbLine
 10
250.0
 20
500.0
 30
1.75
 11
260.0
 21
500.0
 31
1.55
  0
LINE
  5
49
330
17
100
AcDbEntity
  8
0
100
AcDbLine
 10
260.0
 20
500.0
 30
1.55
 11
270.0
 21
500.0
 31
1.35
  0
LINE
  5
4A
330
17
100
AcDbEntity
  8
0
100
AcDbLine
 10
270.0
 20
500.0
 30
1.35
 11
280.0
 21
500.0
 31
1.15
  0
LINE
  5
4B
330
17
100
AcDbEntity
  8
0
100
AcDbLine
 10
280.0
 20
500.0
 30
1.15
 11
290.0
 21
500.0
 31
0.95
  0
LINE
  5
4C
330
17
100
AcDbEntity
  8
0
100
AcDbLine
 10
290.0
 20
500.0
 30
0.95
 11
300.0
 21
500.0
 31
0.75
  0
LINE
  5
4D
330
17
100
AcDbEntity
  8
0
100
AcDbLine
 10
0.5
 20
0.5
 30
3.0
 11
10.5
 21
0.5
 31
3.1718523992661942
  0
LINE
  5
4E
330
17
100
AcDbEntity
  8
0
100
AcDbLine
 10
10.5
 20
0.5
 30
3.1718523992661942
 11
20.5
 21
0.5
 31
3.386454542357399
  0
LINE
  5
4F
330
17
100
AcDbEntity
  8
0
100
AcDbLine
 10
20.5
 20
0.5
 30
3.386454542357399
 11
30.5
 21
0.5
 31
3.6409830056250527
  0
LINE
  5
50
330
17
100
AcDbEntity
  8
0
100
AcDbLine
 10
30.5
 20
0.5
 30
3.6409830056250527
 11
40.5
 21
0.5
 31
3.930869393641142
  0
LINE
  5
51
330
17
100
AcDbEntity
  8
0
100
AcDbLine
 10
40.5
 20
0.5
 30
3.930869393641142
 11
50.5
 21
0.5
 31
4.25
  0
LINE
  5
52
330
17
100
AcDbEntity
  8
0
100
AcDbLine
 10
50.5
 20
0.5
 30
4.25
 11
60.5
 21
0.5
 31
4.490983005625052
  0
LINE
  5
53
330
17
100
AcDbEntity
  8
0
100
AcDbLine
 10
60.5
 20
0.5
 30
4.490983005625052
 11
70.5
 21
0.5
 31
4.745471536732347
  0
LINE
  5
54
330
17
100
AcDbEntity
  8
0
100
AcDbLine
 10
70.5
 20
0.5
 30
4.745471536732347
 11
101.66797812147192
 21
1.1852326227131016
 31
5.004528463267654
  0
LINE
  5
55
330
17
100
AcDbEntity
  8
0
100
AcDbLine
 10
101.66797812147192
 20
1.1852326227131016
 30
5.004528463267654
 11
153.71723252011543
 21
6.655829702431106
 31
5.259016994374948
  0
LINE
  5
56
330
17
100
AcDbEntity
  8
0
100
AcDbLine
 10
153.71723252011543
 20
6.655829702431106
 30
5.259016994374948
 11
204.90952255126038
 21
17.537086855465816
 31
5.5
  0
LINE
  5
57
330
17
100
AcDbEntity
  8
0
100
AcDbLine
 10
204.90952255126038
 20
17.537086855465816
 30
5.5
 11
254.68397477265006
 21
33.709786751399065
 31
5.719130606358857
  0
LINE
  5
58
330
17
100
AcDbEntity
  8
0
100
AcDbLine
 10
254.68397477265006
 20
33.709786751399065
 30
5.719130606358857
 11
302.4952498697734
 21
54.996737905816076
 31
5.909016994374948
  0
LINE
  5
59
330
17
100
AcDbEntity
  8
0
100
AcDbLine
 10
302.4952498697734
 20
54.996737905816076
 30
5.909016994374948
 11
347.81951750751347
 21
81.16471602728797
 31
6.063545457642601
  0
LINE
  5
5A
330
17
100
AcDbEntity
  8
0
100
AcDbLine
 10
347.81951750751347
 20
81.16471602728797
 30
6.063545457642601
 11
390.1601955249188
 21
111.92701927151461
 31
6.178147600733806
  0
LINE
  5
5B
330
17
100
AcDbEntity
  8
0
100
AcDbLine
 10
390.1601955249188
 20
111.92701927151461
 30
6.178147600733806
 11
429.0533905932737
 21
146.94660940672622
 31
6.25
  0
LINE
  5
5C
330
17
100
AcDbEntity
  8
0
100
AcDbLine
 10
429.0533905932737
 20
146.94660940672622
 30
6.25
 11
464.0729807284854
 21
185.83980447508122
 31
6.2781476007338055
  0
LINE
  5
5D
330
17
100
AcDbEntity
  8
0
100
AcDbLine
 10
464.0729807284854
 20
185.83980447508122
 30
6.2781476007338055
 11
494.835283972712
 21
228.18048249248648
 31
6.263545457642602
  0
LINE
  5
5E
330
17
100
AcDbEntity
  8
0
100
AcDbLine
 10
494.835283972712
 20
228.18048249248648
 30
6.263545457642602
 11
521.0032620941839
 21
273.50475013022657
 31
6.209016994374947
  0
LINE
  5
5F
330
17
100
AcDbEntity
  8
0
100
AcDbLine
 10
521.0032620941839
 20
273.50475013022657
 30
6.209016994374947
 11
542.2902132486008
 21
321.3160252273499
 31
6.119130606358858
  0
LINE
  5
60
330
17
100
AcDbEntity
  8
0
100
AcDbLine
 10
542.2902132486008
 20
321.3160252273499
 30
6.119130606358858
 11
558.4629131445342
 21
371.09047744873965
 31
6.0
  0
LINE
  5
61
330
17
100
AcDbEntity
  8
0
100
AcDbLine
 10
558.4629131445342
 20
371.09047744873965
 30
6.0
 11
569.3441702975689
 21
422.28276747988457
 31
5.859016994374947
  0
LINE
  5
62
330
17
100
AcDbEntity
  8
0
100
AcDbLine
 10
569.3441702975689
 20
422.28276747988457
 30
5.859016994374947
 11
574.8147673772869
 21
474.3320218785279
 31
5.704528463267653
  0
LINE
  5
63
330
17
100
AcDbEntity
  8
0
100
AcDbLine
 10
574.8147673772869
 20
474.3320218785279
 30
5.704528463267653
 11
230.50000000000003
 21
500.5
 31
5.545471536732347
  0
LINE
  5
64
330
17
100
AcDbEntity
  8
0
100
AcDbLine
 10
230.50000000000003
 20
500.5
 30
5.545471536732347
 11
240.5
 21
500.5
 31
5.390983005625053
  0
LINE
  5
65
330
17
100
AcDbEntity
  8
0
100
AcDbLine
 10
240.5
 20
500.5
 30
5.390983005625053
 11
250.5
 21
500.5
 31
5.25
  0
LINE
  5
66
330
17
100
AcDbEntity
  8
0
100
AcDbLine
 10
250.5
 20
500.5
 30
5.25
 11
260.5
 21
500.5
 31
4.880869393641142
  0
LINE
  5
67
330
17
100
AcDbEntity
  8
0
100
AcDbLine
 10
260.5
 20
500.5
 30
4.880869393641142
 11
270.5
 21
500.5
 31
4.540983005625053
  0
LINE
  5
68
330
17
100
AcDbEntity
  8
0
100
AcDbLine
 10
270.5
 20
500.5
 30
4.540983005625053
 11
280.5
 21
500.5
 31
4.236454542357399
  0
LINE
  5
69
330
17
100
AcDbEntity
  8
0
100
AcDbLine
 10
280.5
 20
500.5
 30
4.236454542357399
 11
290.5
 21
500.5
 31
3.9718523992661945
  0
LINE
  5
6A
330
17
100
AcDbEntity
  8
0
100
AcDbLine
 10
290.5
 20
500.5
 30
3.9718523992661945
 11
300.5
 21
500.5
 31
3.75
  0
LINE
  5
6B
330
17
100
AcDbEntity
  8
0
100
AcDbLine
 10
0.0
 20
0.0
 30
0.0
 11
0.5
 21
0.5
 31
3.0
  0
LINE
  5
6C
330
17
100
AcDbEntity
  8
0
100
AcDbLine
 10
0.0
 20
0.0
 30
0.0
 11
10.5
 21
0.5
 31
3.1718523992661942
  0
LINE
  5
6D
330
17
100
AcDbEntity
  8
0
100
AcDbLine
 10
0.5
 20
0.5
 30
3.0
 11
10.0
 21
0.0
 31
0.15
  0
LINE
  5
6E
330
17
100
AcDbEntity
  8
0
100
AcDbLine
 10
10.0
 20
0.0
 30
0.15
 11
10.5
 21
0.5
 31
3.1718523992661942
  0
LINE
  5
6F
330
17
100
AcDbEntity
  8
0
100
AcDbLine
 10
10.0
 20
0.0
 30
0.15
 11
20.5
 21
0.5
 31
3.386454542357399
  0
LINE
  5
70
330
17
100
AcDbEntity
  8
0
100
AcDbLine
 10
10.5
 20
0.5
 30
3.1718523992661942
 11
20.0
 21
0.0
 31
0.3
  0
LINE
  5
71
330
17
100
AcDbEntity
  8
0
100
AcDbLine
 10
20.0
 20
0.0
 30
0.3
 11
20.5
 21
0.5
 31
3.386454542357399
  0
LINE
  5
72
330
17
100
AcDbEntity
  8
0
100
AcDbLine
 10
20.0
 20
0.0
 30
0.3
 11
30.5
 21
0.5
 31
3.6409830056250527
  0
LINE
  5
73
330
17
100
AcDbEntity
  8
0
100
AcDbLine
 10
20.5
 20
0.5
 30
3.386454542357399
 11
30.0
 21
0.0
 31
0.44999999999999996
  0
LINE
  5
74
330
17
100
AcDbEntity
  8
0
100
AcDbLine
 10
30.0
 20
0.0
 30
0.44999999999999996
 11
30.5
 21
0.5
 31
3.6409830056250527
  0
LINE
  5
75
330
17
100
AcDbEntity
  8
0
100
AcDbLine
 10
30.0
 20
0.0
 30
0.44999999999999996
 11
40.5
 21
0.5
 31
3.930869393641142
  0
LINE
  5
76
330
17
100
AcDbEntity
  8
0
100
AcDbLine
 10
30.5
 20
0.5
 30
3.6409830056250527
 11
40.0
 21
0.0
 31
0.6
  0
LINE
  5
77
330
17
100
AcDbEntity
  8
0
100
AcDbLine
 10
40.0
 20
0.0
 30
0.6
 11
40.5
 21
0.5
 31
3.930869393641142
  0
LINE
  5
78
330
17
100
AcDbEntity
  8
0
100
AcDbLine
 10
40.0
 20
0.0
 30
0.6
 11
50.5
 21
0.5
 31
4.25
  0
LINE
  5
79
330
17
100
AcDbEntity
  8
0
100
AcDbLine
 10
40.5
 20
0.5
 30
3.930869393641142
 11
50.0
 21
0.0
 31
0.75
  0
LINE
  5
7A
330
17
100
AcDbEntity
  8
0
100
AcDbLine
 10
50.0
 20
0.0
 30
0.75
 11
50.5
 21
0.5
 31
4.25
  0
LINE
  5
7B
330
17
100
AcDbEntity
  8
0
100
AcDbLine
 10
50.0
 20
0.0
 30
0.75
 11
60.5
 21
0.5
 31
4.490983005625052
  0
LINE
  5
7C
330
17
100
AcDbEntity
  8
0
100
AcDbLine
 10
50.5
 20
0.5
 30
4.25
 11
60.0
 21
0.0
 31
0.8
  0
LINE
  5
7D
330
17
100
AcDbEntity
  8
0
100
AcDbLine
 10
60.0
 20
0.0
 30
0.8
 11
60.5
 21
0.5
 31
4.490983005625052
  0
LINE
  5
7E
330
17
100
AcDbEntity
  8
0
100
AcDbLine
 10
60.0
 20
0.0
 30
0.8
 11
70.5
 21
0.5
 31
4.745471536732347
  0
LINE
  5
7F
330
17
100
AcDbEntity
  8
0
100
AcDbLine
 10
60.5
 20
0.5
 30
4.490983005625052
 11
70.0
 21
0.0
 31
0.85
  0
LINE
  5
80
330
17
100
AcDbEntity
  8
0
100
AcDbLine
 10
70.0
 20
0.0
 30
0.85
 11
70.5
 21
0.5
 31
4.745471536732347
  0
LINE
  5
81
330
17
100
AcDbEntity
  8
0
100
AcDbLine
 10
70.0
 20
0.0
 30
0.85
 11
101.66797812147192
 21
1.1852326227131016
 31
5.004528463267654
  0
LINE
  5
82
330
17
100
AcDbEntity
  8
0
100
AcDbLine
 10
70.5
 20
0.5
 30
4.745471536732347
 11
101.16797812147192
 21
0.6852326227131016
 31
0.9
  0
LINE
  5
83
330
17
100
AcDbEntity
  8
0
100
AcDbLine
 10
101.16797812147192
 20
0.6852326227131016
 30
0.9
 11
101.66797812147192
 21
1.1852326227131016
 31
5.004528463267654
  0
LINE
  5
84
330
17
100
AcDbEntity
  8
0
100
AcDbLine
 10
101.16797812147192
 20
0.6852326227131016
 30
0.9
 11
153.71723252011543
 21
6.655829702431106
 31
5.259016994374948
  0
LINE
  5
85
330
17
100
AcDbEntity
  8
0
100
AcDbLine
 10
101.66797812147192
 20
1.1852326227131016
 30
5.004528463267654
 11
153.21723252011543
 21
6.155829702431106
 31
0.95
  0
LINE
  5
86
330
17
100
AcDbEntity
  8
0
100
AcDbLine
 10
153.21723252011543
 20
6.155829702431106
 30
0.95
 11
153.71723252011543
 21
6.655829702431106
 31
5.259016994374948
  0
LINE
  5
87
330
17
100
AcDbEntity
  8
0
100
AcDbLine
 10
153.21723252011543
 20
6.155829702431106
 30
0.95
 11
204.90952255126038
 21
17.537086855465816
 31
5.5
  0
LINE
  5
88
330
17
100
AcDbEntity
  8
0
100
AcDbLine
 10
153.71723252011543
 20
6.655829702431106
 30
5.259016994374948
 11
204.40952255126038
 21
17.037086855465816
 31
1.0
  0
LINE
  5
89
330
17
100
AcDbEntity
  8
0
100
AcDbLine
 10
204.40952255126038
 20
17.037086855465816
 30
1.0
 11
204.90952255126038
 21
17.537086855465816
 31
5.5
  0
LINE
  5
8A
330
17
100
AcDbEntity
  8
0
100
AcDbLine
 10
204.40952255126038
 20
17.037086855465816
 30
1.0
 11
254.68397477265006
 21
33.709786751399065
 31
5.719130606358857
  0
LINE
  5
8B
330
17
100
AcDbEntity
  8
0
100
AcDbLine
 10
204.90952255126038
 20
17.537086855465816
 30
5.5
 11
254.18397477265006
 21
33.209786751399065
 31
1.0499999999999998
  0
LINE
  5
8C
330
17
100
AcDbEntity
  8
0
100
AcDbLine
 10
254.18397477265006
 20
33.209786751399065
 30
1.0499999999999998
 11
254.68397477265006
 21
33.709786751399065
 31
5.719130606358857
  0
LINE
  5
8D
330
17
100
AcDbEntity
  8
0
100
AcDbLine
 10
254.18397477265006
 20
33.209786751399065
 30
1.0499999999999998
 11
302.4952498697734
 21
54.996737905816076
 31
5.909016994374948
  0
LINE
  5
8E
330
17
100
AcDbEntity
  8
0
100
AcDbLine
 10
254.68397477265006
 20
33.709786751399065
 30
5.719130606358857
 11
301.9952498697734
 21
54.496737905816076
 31
1.1
  0
LINE
  5
8F
330
17
100
AcDbEntity
  8
0
100
AcDbLine
 10
301.9952498697734
 20
54.496737905816076
 30
1.1
 11
302.4952498697734
 21
54.996737905816076
 31
5.909016994374948
  0
LINE
  5
90
330
17
100
AcDbEntity
  8
0
100
AcDbLine
 10
301.9952498697734
 20
54.496737905816076
 30
1.1
 11
347.81951750751347
 21
81.16471602728797
 31
6.063545457642601
  0
LINE
  5
91
330
17
100
AcDbEntity
  8
0
100
AcDbLine
 10
302.4952498697734
 20
54.996737905816076
 30
5.909016994374948
 11
347.31951750751347
 21
80.66471602728797
 31
1.15
  0
LINE
  5
92
330
17
100
AcDbEntity
  8
0
100
AcDbLine
 10
347.31951750751347
 20
80.66471602728797
 30
1.15
 11
347.81951750751347
 21
81.16471602728797
 31
6.063545457642601
  0
LINE
  5
93
330
17
100
AcDbEntity
  8
0
100
AcDbLine
 10
347.31951750751347
 20
80.66471602728797
 30
1.15
 11
390.1601955249188
 21
111.92701927151461
 31
6.178147600733806
  0
LINE
  5
94
330
17
100
AcDbEntity
  8
0
100
AcDbLine
 10
347.81951750751347
 20
81.16471602728797
 30
6.063545457642601
 11
389.6601955249188
 21
111.42701927151461
 31
1.2
  0
LINE
  5
95
330
17
100
AcDbEntity
  8
0
100
AcDbLine
 10
389.6601955249188
 20
111.42701927151461
 30
1.2
 11
390.1601955249188
 21
111.92701927151461
 31
6.178147600733806
  0
LINE
  5
96
330
17
100
AcDbEntity
  8
0
100
AcDbLine
 10
389.6601955249188
 20
111.42701927151461
 30
1.2
 11
429.0533905932737
 21
146.94660940672622
 31
6.25
  0
LINE
  5
97
330
17
100
AcDbEntity
  8
0
100
AcDbLine
 10
390.1601955249188
 20
111.92701927151461
 30
6.178147600733806
 11
428.5533905932737
 21
146.44660940672622
 31
1.25
  0
LINE
  5
98
330
17
100
AcDbEntity
  8
0
100
AcDbLine
 10
428.5533905932737
 20
146.44660940672622
 30
1.25
 11
429.0533905932737
 21
146.94660940672622
 31
6.25
  0
LINE
  5
99
330
17
100
AcDbEntity
  8
0
100
AcDbLine
 10
428.5533905932737
 20
146.44660940672622
 30
1.25
 11
464.0729807284854
 21
185.83980447508122
 31
6.2781476007338055
  0
LINE
  5
9A
330
17
100
AcDbEntity
  8
0
100
AcDbLine
 10
429.0533905932737
 20
146.94660940672622
 30
6.25
 11
463.5729807284854
 21
185.33980447508122
 31
1.3
  0
LINE
  5
9B
330
17
100
AcDbEntity
  8
0
100
AcDbLine
 10
463.5729807284854
 20
185.33980447508122
 30
1.3
 11
464.0729807284854
 21
185.83980447508122
 31
6.2781476007338055
  0
LINE
  5
9C
330
17
100
AcDbEntity
  8
0
100
AcDbLine
 10
463.5729807284854
 20
185.33980447508122
 30
1.3
 11
494.835283972712
 21
228.18048249248648
 31
6.263545457642602
  0
LINE
  5
9D
330
17
100
AcDbEntity
  8
0
100
AcDbLine
 10
464.0729807284854
 20
185.83980447508122
 30
6.2781476007338055
 11
494.335283972712
 21
227.68048249248648
 31
1.35
  0
LINE
  5
9E
330
17
100
AcDbEntity
  8
0
100
AcDbLine
 10
494.335283972712
 20
227.68048249248648
 30
1.35
 11
494.835283972712
 21
228.18048249248648
 31
6.263545457642602
  0
LINE
  5
9F
330
17
100
AcDbEntity
  8
0
100
AcDbLine
 10
494.335283972712
 20
227.68048249248648
 30
1.35
 11
521.0032620941839
 21
273.50475013022657
 31
6.209016994374947
  0
LINE
  5
A0
330
17
100
AcDbEntity
  8
0
100
AcDbLine
 10
494.835283972712
 20
228.18048249248648
 30
6.263545457642602
 11
520.5032620941839
 21
273.00475013022657
 31
1.4
  0
LINE
  5
A1
330
17
100
AcDbEntity
  8
0
100
AcDbLine
 10
520.5032620941839
 20
273.00475013022657
 30
1.4
 11
521.0032620941839
 21
273.50475013022657
 31
6.209016994374947
  0
LINE
  5
A2
330
17
100
AcDbEntity
  8
0
100
AcDbLine
 10
520.5032620941839
 20
273.00475013022657
 30
1.4
 11
542.2902132486008
 21
321.3160252273499
 31
6.119130606358858
  0
LINE
  5
A3
330
17
100
AcDbEntity
  8
0
100
AcDbLine
 10
521.0032620941839
 20
273.50475013022657
 30
6.209016994374947
 11
541.7902132486008
 21
320.8160252273499
 31
1.4500000000000002
  0
LINE
  5
A4
330
17
100
AcDbEntity
  8
0
100
AcDbLine
 10
541.7902132486008
 20
320.8160252273499
 30
1.4500000000000002
 11
542.2902132486008
 21
321.3160252273499
 31
6.119130606358858
  0
LINE
  5
A5
330
17
100
AcDbEntity
  8
0
100
AcDbLine
 10
541.7902132486008
 20
320.8160252273499
 30
1.4500000000000002
 11
558.4629131445342
 21
371.09047744873965
 31
6.0
  0
LINE
  5
A6
330
17
100
AcDbEntity
  8
0
100
AcDbLine
 10
542.2902132486008
 20
321.3160252273499
 30
6.119130606358858
 11
557.9629131445342
 21
370.59047744873965
 31
1.5
  0
LINE
  5
A7
330
17
100
AcDbEntity
  8
0
100
AcDbLine
 10
557.9629131445342
 20
370.59047744873965
 30
1.5
 11
558.4629131445342
 21
371.09047744873965
 31
6.0
  0
LINE
  5
A8
330
17
100
AcDbEntity
  8
0
100
AcDbLine
 10
557.9629131445342
 20
370.59047744873965
 30
1.5
 11
569.3441702975689
 21
422.28276747988457
 31
5.859016994374947
  0
LINE
  5
A9
330
17
100
AcDbEntity
  8
0
100
AcDbLine
 10
558.4629131445342
 20
371.09047744873965
 30
6.0
 11
568.8441702975689
 21
421.78276747988457
 31
1.55
  0
LINE
  5
AA
330
17
100
AcDbEntity
  8
0
100
AcDbLine
 10
568.8441702975689
 20
421.78276747988457
 30
1.55
 11
569.3441702975689
 21
422.28276747988457
 31
5.859016994374947
  0
LINE
  5
AB
330
17
100
AcDbEntity
  8
0
100
AcDbLine
 10
568.8441702975689
 20
421.78276747988457
 30
1.55
 11
574.8147673772869
 21
474.3320218785279
 31
5.704528463267653
  0
LINE
  5
AC
330
17
100
AcDbEntity
  8
0
100
AcDbLine
 10
569.3441702975689
 20
422.28276747988457
 30
5.859016994374947
 11
574.3147673772869
 21
473.8320218785279
 31
1.5999999999999999
  0
LINE
  5
AD
330
17
100
AcDbEntity
  8
0
100
AcDbLine
 10
574.3147673772869
 20
473.8320218785279
 30
1.5999999999999999
 11
574.8147673772869
 21
474.3320218785279
 31
5.704528463267653
  0
LINE
  5
AE
330
17
100
AcDbEntity
  8
0
100
AcDbLine
 10
574.3147673772869
 20
473.8320218785279
 30
1.5999999999999999
 11
230.50000000000003
 21
500.5
 31
5.545471536732347
  0
LINE
  5
AF
330
17
100
AcDbEntity
  8
0
100
AcDbLine
 10
574.8147673772869
 20
474.3320218785279
 30
5.704528463267653
 11
230.00000000000003
 21
500.0
 31
1.6500000000000001
  0
LINE
  5
B0
330
17
100
AcDbEntity
  8
0
100
AcDbLine
 10
230.00000000000003
 20
500.0
 30
1.6500000000000001
 11
230.50000000000003
 21
500.5
 31
5.545471536732347
  0
LINE
  5
B1
330
17
100
AcDbEntity
  8
0
100
AcDbLine
 10
230.00000000000003
 20
500.0
 30
1.6500000000000001
 11
240.5
 21
500.5
 31
5.390983005625053
  0
LINE
  5
B2
330
17
100
AcDbEntity
  8
0
100
AcDbLine
 10
230.50000000000003
 20
500.5
 30
5.545471536732347
 11
240.0
 21
500.0
 31
1.7000000000000002
  0
LINE
  5
B3
330
17
100
AcDbEntity
  8
0
100
AcDbLine
 10
240.0
 20
500.0
 30
1.7000000000000002
 11
240.5
 21
500.5
 31
5.390983005625053
  0
LINE
  5
B4
330
17
100
AcDbEntity
  8
0
100
AcDbLine
 10
240.0
 20
500.0
 30
1.7000000000000002
 11
250.5
 21
500.5
 31
5.25
  0
LINE
  5
B5
330
17
100
AcDbEntity
  8
0
100
AcDbLine
 10
240.5
 20
500.5
 30
5.390983005625053
 11
250.0
 21
500.0
 31
1.75
  0
LINE
  5
B6
330
17
100
AcDbEntity
  8
0
100
AcDbLine
 10
250.0
 20
500.0
 30
1.75
 11
250.5
 21
500.5
 31
5.25
  0
LINE
  5
B7
330
17
100
AcDbEntity
  8
0
100
AcDbLine
 10
250.0
 20
500.0
 30
1.75
 11
260.5
 21
500.5
 31
4.880869393641142
  0
LINE
  5
B8
330
17
100
AcDbEntity
  8
0
100
AcDbLine
 10
250.5
 20
500.5
 30
5.25
 11
260.0
 21
500.0
 31
1.55
  0
LINE
  5
B9
330
17
100
AcDbEntity
  8
0
100
AcDbLine
 10
260.0
 20
500.0
 30
1.55
 11
260.5
 21
500.5
 31
4.880869393641142
  0
LINE
  5
BA
330
17
100
AcDbEntity
  8
0
100
AcDbLine
 10
260.0
 20
500.0
 30
1.55
 11
270.5
 21
500.5
 31
4.540983005625053
  0
LINE
  5
BB
330
17
100
AcDbEntity
  8
0
100
AcDbLine
 10
260.5
 20
500.5
 30
4.880869393641142
 11
270.0
 21
500.0
 31
1.35
  0
LINE
  5
BC
330
17
100
AcDbEntity
  8
0
100
AcDbLine
 10
270.0
 20
500.0
 30
1.35
 11
270.5
 21
500.5
 31
4.540983005625053
  0
LINE
  5
BD
330
17
100
AcDbEntity
  8
0
100
AcDbLine
 10
270.0
 20
500.0
 30
1.35
 11
280.5
 21
500.5
 31
4.236454542357399
  0
LINE
  5
BE
330
17
100
AcDbEntity
  8
0
100
AcDbLine
 10
270.5
 20
500.5
 30
4.540983005625053
 11
280.0
 21
500.0
 31
1.15
  0
LINE
  5
BF
330
17
100
AcDbEntity
  8
0
100
AcDbLine
 10
280.0
 20
500.0
 30
1.15
 11
280.5
 21
500.5
 31
4.236454542357399
  0
LINE
  5
C0
330
17
100
AcDbEntity
  8
0
100
AcDbLine
 10
280.0
 20
500.0
 30
1.15
 11
290.5
 21
500.5
 31
3.9718523992661945
  0
LINE
  5
C1
330
17
100
AcDbEntity
  8
0
100
AcDbLine
 10
280.5
 20
500.5
 30
4.236454542357399
 11
290.0
 21
500.0
 31
0.95
  0
LINE
  5
C2
330
17
100
AcDbEntity
  8
0
100
AcDbLine
 10
290.0
 20
500.0
 30
0.95
 11
290.5
 21
500.5
 31
3.9718523992661945
  0
LINE
  5
C3
330
17
100
AcDbEntity
  8
0
100
AcDbLine
 10
290.0
 20
500.0
 30
0.95
 11
300.5
 21
500.5
 31
3.75
  0
LINE
  5
C4
330
17
100
AcDbEntity
  8
0
100
AcDbLine
 10
290.5
 20
500.5
 30
3.9718523992661945
 11
300.0
 21
500.0
 31
0.75
  0
LINE
  5
C5
330
17
100
AcDbEntity
  8
0
100
AcDbLine
 10
-2.0
 20
-2.0
 30
0.0
 11
-1.0
 21
-1.0
 31
1.5
  0
LINE
  5
C6
330
17
100
AcDbEntity
  8
0
100
AcDbLine
 10
-2.0
 20
-2.0
 30
3.0
 11
-1.0
 21
-1.0
 31
1.5
  0
LINE
  5
C7
330
17
100
AcDbEntity
  8
0
100
AcDbLine
 10
2.0
 20
2.0
 30
0.0
 11
1.0
 21
1.0
 31
1.5
  0
LINE
  5
C8
330
17
100
AcDbEntity
  8
0
100
AcDbLine
 10
2.0
 20
2.0
 30
3.0
 11
1.0
 21
1.0
 31
1.5
  0
LINE
  5
C9
330
17
100
AcDbEntity
  8
0
100
AcDbLine
 10
18.0
 20
-2.0
 30
0.3
 11
19.0
 21
-1.0
 31
1.8432272711786997
  0
LINE
  5
CA
330
17
100
AcDbEntity
  8
0
100
AcDbLine
 10
18.0
 20
-2.0
 30
3.386454542357399
 11
19.0
 21
-1.0
 31
1.8432272711786997
  0
LINE
  5
CB
330
17
100
AcDbEntity
  8
0
100
AcDbLine
 10
22.0
 20
2.0
 30
0.3
 11
21.0
 21
1.0
 31
1.8432272711786997
  0
LINE
  5
CC
330
17
100
AcDbEntity
  8
0
100
AcDbLine
 10
22.0
 20
2.0
 30
3.386454542357399
 11
21.0
 21
1.0
 31
1.8432272711786997
  0
LINE
  5
CD
330
17
100
AcDbEntity
  8
0
100
AcDbLine
 10
38.0
 20
-2.0
 30
0.6
 11
39.0
 21
-1.0
 31
2.265434696820571
  0
LINE
  5
CE
330
17
100
AcDbEntity
  8
0
100
AcDbLine
 10
38.0
 20
-2.0
 30
3.930869393641142
 11
39.0
 21
-1.0
 31
2.265434696820571
  0
LINE
  5
CF
330
17
100
AcDbEntity
  8
0
100
AcDbLine
 10
42.0
 20
2.0
 30
0.6
 11
41.0
 21
1.0
 31
2.265434696820571
  0
LINE
  5
D0
330
17
100
AcDbEntity
  8
0
100
AcDbLine
 10
42.0
 20
2.0
 30
3.930869393641142
 11
41.0
 21
1.0
 31
2.265434696820571
  0
LINE
  5
D1
330
17
100
AcDbEntity
  8
0
100
AcDbLine
 10
58.0
 20
-2.0
 30
0.8
 11
59.0
 21
-1.0
 31
2.6454915028125265
  0
LINE
  5
D2
330
17
100
AcDbEntity
  8
0
100
AcDbLine
 10
58.0
 20
-2.0
 30
4.490983005625052
 11
59.0
 21
-1.0
 31
2.6454915028125265
  0
LINE
  5
D3
330
17
100
AcDbEntity
  8
0
100
AcDbLine
 10
62.0
 20
2.0
 30
0.8
 11
61.0
 21
1.0
 31
2.6454915028125265
  0
LINE
  5
D4
330
17
100
AcDbEntity
  8
0
100
AcDbLine
 10
62.0
 20
2.0
 30
4.490983005625052
 11
61.0
 21
1.0
 31
2.6454915028125265
  0
LINE
  5
D5
330
17
100
AcDbEntity
  8
0
100
AcDbLine
 10
99.16797812147192
 20
-1.3147673772868984
 30
0.9
 11
100.16797812147192
 21
-0.3147673772868984
 31
2.952264231633827
  0
LINE
  5
D6
330
17
100
AcDbEntity
  8
0
100
AcDbLine
 10
99.16797812147192
 20
-1.3147673772868984
 30
5.004528463267654
 11
100.16797812147192
 21
-0.3147673772868984
 31
2.952264231633827
  0
LINE
  5
D7
330
17
100
AcDbEntity
  8
0
100
AcDbLine
 10
103.16797812147192
 20
2.6852326227131016
 30
0.9
 11
102.16797812147192
 21
1.6852326227131016
 31
2.952264231633827
  0
LINE
  5
D8
330
17
100
AcDbEntity
  8
0
100
AcDbLine
 10
103.16797812147192
 20
2.6852326227131016
 30
5.004528463267654
 11
102.16797812147192
 21
1.6852326227131016
 31
2.952264231633827
  0
LINE
  5
D9
330
17
100
AcDbEntity
  8
0
100
AcDbLine
 10
202.40952255126038
 20
15.037086855465816
 30
1.0
 11
203.40952255126038
 21
16.037086855465816
 31
3.25
  0
LINE
  5
DA
330
17
100
AcDbEntity
  8
0
100
AcDbLine
 10
202.40952255126038
 20
15.037086855465816
 30
5.5
 11
203.40952255126038
 21
16.037086855465816
 31
3.25
  0
LINE
  5
DB
330
17
100
AcDbEntity
  8
0
100
AcDbLine
 10
206.40952255126038
 20
19.037086855465816
 30
1.0
 11
205.40952255126038
 21
18.037086855465816
 31
3.25
  0
LINE
  5
DC
330
17
100
AcDbEntity
  8
0
100
AcDbLine
 10
206.40952255126038
 20
19.037086855465816
 30
5.5
 11
205.40952255126038
 21
18.037086855465816
 31
3.25
  0
LINE
  5
DD
330
17
100
AcDbEntity
  8
0
100
AcDbLine
 10
299.9952498697734
 20
52.496737905816076
 30
1.1
 11
300.9952498697734
 21
53.496737905816076
 31
3.504508497187474
  0
LINE
  5
DE
330
17
100
AcDbEntity
  8
0
100
AcDbLine
 10
299.9952498697734
 20
52.496737905816076
 30
5.909016994374948
 11
300.9952498697734
 21
53.496737905816076
 31
3.504508497187474
  0
LINE
  5
DF
330
17
100
AcDbEntity
  8
0
100
AcDbLine
 10
303.9952498697734
 20
56.496737905816076
 30
1.1
 11
302.9952498697734
 21
55.496737905816076
 31
3.504508497187474
  0
LINE
  5
E0
330
17
100
AcDbEntity
  8
0
100
AcDbLine
 10
303.9952498697734
 20
56.496737905816076
 30
5.909016994374948
 11
302.9952498697734
 21
55.496737905816076
 31
3.504508497187474
  0
LINE
  5
E1
330
17
100
AcDbEntity
  8
0
100
AcDbLine
 10
387.6601955249188
 20
109.42701927151461
 30
1.2
 11
388.6601955249188
 21
110.42701927151461
 31
3.689073800366903
  0
LINE
  5
E2
330
17
100
AcDbEntity
  8
0
100
AcDbLine
 10
387.6601955249188
 20
109.42701927151461
 30
6.178147600733806
 11
388.6601955249188
 21
110.42701927151461
 31
3.689073800366903
  0
LINE
  5
E3
330
17
100
AcDbEntity
  8
0
100
AcDbLine
 10
391.6601955249188
 20
113.42701927151461
 30
1.2
 11
390.6601955249188
 21
112.42701927151461
 31
3.689073800366903
  0
LINE
  5
E4
330
17
100
AcDbEntity
  8
0
100
AcDbLine
 10
391.6601955249188
 20
113.42701927151461
 30
6.178147600733806
 11
390.6601955249188
 21
112.42701927151461
 31
3.689073800366903
  0
LINE
  5
E5
330
17
100
AcDbEntity
  8
0
100
AcDbLine
 10
461.5729807284854
 20
183.33980447508122
 30
1.3
 11
462.5729807284854
 21
184.33980447508122
 31
3.7890738003669027
  0
LINE
  5
E6
330
17
100
AcDbEntity
  8
0
100
AcDbLine
 10
461.5729807284854
 20
183.33980447508122
 30
6.2781476007338055
 11
462.5729807284854
 21
184.33980447508122
 31
3.7890738003669027
  0
LINE
  5
E7
330
17
100
AcDbEntity
  8
0
100
AcDbLine
 10
465.5729807284854
 20
187.33980447508122
 30
1.3
 11
464.5729807284854
 21
186.33980447508122
 31
3.7890738003669027
  0
LINE
  5
E8
330
17
100
AcDbEntity
  8
0
100
AcDbLine
 10
465.5729807284854
 20
187.33980447508122
 30
6.2781476007338055
 11
464.5729807284854
 21
186.33980447508122
 31
3.7890738003669027
  0
LINE
  5
E9
330
17
100
AcDbEntity
  8
0
100
AcDbLine
 10
518.5032620941839
 20
271.00475013022657
 30
1.4
 11
519.5032620941839
 21
272.00475013022657
 31
3.8045084971874736
  0
LINE
  5
EA
330
17
100
AcDbEntity
  8
0
100
AcDbLine
 10
518.5032620941839
 20
271.00475013022657
 30
6.209016994374947
 11
519.5032620941839
 21
272.00475013022657
 31
3.8045084971874736
  0
LINE
  5
EB
330
17
100
AcDbEntity
  8
0
100
AcDbLine
 10
522.5032620941839
 20
275.00475013022657
 30
1.4
 11
521.5032620941839
 21
274.00475013022657
 31
3.8045084971874736
  0
LINE
  5
EC
330
17
100
AcDbEntity
  8
0
100
AcDbLine
 10
522.5032620941839
 20
275.00475013022657
 30
6.209016994374947
 11
521.5032620941839
 21
274.00475013022657
 31
3.8045084971874736
  0
LINE
  5
ED
330
17
100
AcDbEntity
  8
0
100
AcDbLine
 10
555.9629131445342
 20
368.59047744873965
 30
1.5
 11
556.9629131445342
 21
369.59047744873965
 31
3.75
  0
LINE
  5
EE
330
17
100
AcDbEntity
  8
0
100
AcDbLine
 10
555.9629131445342
 20
368.59047744873965
 30
6.0
 11
556.9629131445342
 21
369.59047744873965
 31
3.75
  0
LINE
  5
EF
330
17
100
AcDbEntity
  8
0
100
AcDbLine
 10
559.9629131445342
 20
372.59047744873965
 30
1.5
 11
558.9629131445342
 21
371.59047744873965
 31
3.75
  0
LINE
  5
F0
330
17
100
AcDbEntity
  8
0
100
AcDbLine
 10
559.9629131445342
 20
372.59047744873965
 30
6.0
 11
558.9629131445342
 21
371.59047744873965
 31
3.75
  0
LINE
  5
F1
330
17
100
AcDbEntity
  8
0
100
AcDbLine
 10
572.3147673772869
 20
471.8320218785279
 30
1.5999999999999999
 11
573.3147673772869
 21
472.8320218785279
 31
3.6522642316338265
  0
LINE
  5
F2
330
17
100
AcDbEntity
  8
0
100
AcDbLine
 10
572.3147673772869
 20
471.8320218785279
 30
5.704528463267653
 11
573.3147673772869
 21
472.8320218785279
 31
3.6522642316338265
  0
LINE
  5
F3
330
17
100
AcDbEntity
  8
0
100
AcDbLine
 10
576.3147673772869
 20
475.8320218785279
 30
1.5999999999999999
 11
575.3147673772869
 21
474.8320218785279
 31
3.6522642316338265
  0
LINE
  5
F4
330
17
100
AcDbEntity
  8
0
100
AcDbLine
 10
576.3147673772869
 20
475.8320218785279
 30
5.704528463267653
 11
575.3147673772869
 21
474.8320218785279
 31
3.6522642316338265
  0
LINE
  5
F5
330
17
100
AcDbEntity
  8
0
100
AcDbLine
 10
238.0
 20
498.0
 30
1.7000000000000002
 11
239.0
 21
499.0
 31
3.545491502812527
  0
LINE
  5
F6
330
17
100
AcDbEntity
  8
0
100
AcDbLine
 10
238.0
 20
498.0
 30
5.390983005625053
 11
239.0
 21
499.0
 31
3.545491502812527
  0
LINE
  5
F7
330
17
100
AcDbEntity
  8
0
100
AcDbLine
 10
242.0
 20
502.0
 30
1.7000000000000002
 11
241.0
 21
501.0
 31
3.545491502812527
  0
LINE
  5
F8
330
17
100
AcDbEntity
  8
0
100
AcDbLine
 10
242.0
 20
502.0
 30
5.390983005625053
 11
241.0
 21
501.0
 31
3.545491502812527
  0
LINE
  5
F9
330
17
100
AcDbEntity
  8
0
100
AcDbLine
 10
258.0
 20
498.0
 30
1.55
 11
259.0
 21
499.0
 31
3.215434696820571
  0
LINE
  5
FA
330
17
100
AcDbEntity
  8
0
100
AcDbLine
 10
258.0
 20
498.0
 30
4.880869393641142
 11
259.0
 21
499.0
 31
3.215434696820571
  0
LINE
  5
FB
330
17
100
AcDbEntity
  8
0
100
AcDbLine
 10
262.0
 20
502.0
 30
1.55
 11
261.0
 21
501.0
 31
3.215434696820571
  0
LINE
  5
FC
330
17
100
AcDbEntity
  8
0
100
AcDbLine
 10
262.0
 20
502.0
 30
4.880869393641142
 11
261.0
 21
501.0
 31
3.215434696820571
  0
LINE
  5
FD
330
17
100
AcDbEntity
  8
0
100
AcDbLine
 10
278.0
 20
498.0
 30
1.15
 11
279.0
 21
499.0
 31
2.6932272711786993
  0
LINE
  5
FE
330
17
100
AcDbEntity
  8
0
100
AcDbLine
 10
278.0
 20
498.0
 30
4.236454542357399
 11
279.0
 21
499.0
 31
2.6932272711786993
  0
LINE
  5
FF
330
17
100
AcDbEntity
  8
0
100
AcDbLine
 10
282.0
 20
502.0
 30
1.15
 11
281.0
 21
501.0
 31
2.6932272711786993
  0
LINE
  5
100
330
17
100
AcDbEntity
  8
0
100
AcDbLine
 10
282.0
 20
502.0
 30
4.236454542357399
 11
281.0
 21
501.0
 31
2.6932272711786993
  0
CIRCLE
  5
101
330
17
100
AcDbEntity
  8
0
 62
1
100
AcDbCircle
 10
0.0
 20
0.0
 30
0.0
 40
1.5
  0
CIRCLE
  5
102
330
17
100
AcDbEntity
  8
0
 62
1
100
AcDbCircle
 10
50.0
 20
0.0
 30
0.75
 40
1.5
  0
CIRCLE
  5
103
330
17
100
AcDbEntity
  8
0
 62
1
100
AcDbCircle
 10
204.40952255126038
 20
17.037086855465816
 30
1.0
 40
1.5
  0
CIRCLE
  5
104
330
17
100
AcDbEntity
  8
0
 62
1
100
AcDbCircle
 10
428.5533905932737
 20
146.44660940672622
 30
1.25
 40
1.5
  0
CIRCLE
  5
105
330
17
100
AcDbEntity
  8
0
 62
1
100
AcDbCircle
 10
557.9629131445342
 20
370.59047744873965
 30
1.5
 40
1.5
  0
CIRCLE
  5
106
330
17
100
AcDbEntity
  8
0
 62
1
100
AcDbCircle
 10
250.0
 20
500.0
 30
1.75
 40
1.5
  0
LWPOLYLINE
  5
107
330
17
100
AcDbEntity
  8
0
 62
3
100
AcDbPolyline
 90
4
 70
1
 10
-2.0
 20
-2.0
 10
2.0
 20
-2.0
 10
2.0
 20
2.0
 10
-2.0
 20
2.0
  0
LWPOLYLINE
  5
108
330
17
100
AcDbEntity
  8
0
 62
3
100
AcDbPolyline
 90
4
 70
1
 10
28.0
 20
-2.0
 40
0.44999999999999996
 41
0.0
 10
32.0
 20
-2.0
 40
0.44999999999999996
 41
0.0
 10
32.0
 20
2.0
 40
0.44999999999999996
 41
0.0
 10
28.0
 20
2.0
 40
0.44999999999999996
 41
0.0
  0
LWPOLYLINE
  5
109
330
17
100
AcDbEntity
  8
0
 62
3
100
AcDbPolyline
 90
4
 70
1
 10
58.0
 20
-2.0
 40
0.8
 41
0.0
 10
62.0
 20
-2.0
 40
0.8
 41
0.0
 10
62.0
 20
2.0
 40
0.8
 41
0.0
 10
58.0
 20
2.0
 40
0.8
 41
0.0
  0
LWPOLYLINE
  5
10A
330
17
100
AcDbEntity
  8
0
 62
3
100
AcDbPolyline
 90
4
 70
1
 10
151.21723252011543
 20
4.155829702431106
 40
0.95
 41
0.0
 10
155.21723252011543
 20
4.155829702431106
 40
0.95
 41
0.0
 10
155.21723252011543
 20
8.155829702431106
 40
0.95
 41
0.0
 10
151.21723252011543
 20
8.155829702431106
 40
0.95
 41
0.0
  0
LWPOLYLINE
  5
10B
330
17
100
AcDbEntity
  8
0
 62
3
100
AcDbPolyline
 90
4
 70
1
 10
299.9952498697734
 20
52.496737905816076
 40
1.1
 41
0.0
 10
303.9952498697734
 20
52.496737905816076
 40
1.1
 41
0.0
 10
303.9952498697734
 20
56.496737905816076
 40
1.1
 41
0.0
 10
299.9952498697734
 20
56.496737905816076
 40
1.1
 41
0.0
  0
LWPOLYLINE
  5
10C
330
17
100
AcDbEntity
  8
0
 62
3
100
AcDbPolyline
 90
4
 70
1
 10
426.5533905932737
 20
144.44660940672622
 40
1.25
 41
0.0
 10
430.5533905932737
 20
144.44660940672622
 40
1.25
 41
0.0
 10
430.5533905932737
 20
148.44660940672622
 40
1.25
 41
0.0
 10
426.5533905932737
 20
148.44660940672622
 40
1.25
 41
0.0
  0
LWPOLYLINE
  5
10D
330
17
100
AcDbEntity
  8
0
 62
3
100
AcDbPolyline
 90
4
 70
1
 10
518.5032620941839
 20
271.00475013022657
 40
1.4
 41
0.0
 10
522.5032620941839
 20
271.00475013022657
 40
1.4
 41
0.0
 10
522.5032620941839
 20
275.00475013022657
 40
1.4
 41
0.0
 10
518.5032620941839
 20
275.00475013022657
 40
1.4
 41
0.0
  0
LWPOLYLINE
  5
10E
330
17
100
AcDbEntity
  8
0
 62
3
100
AcDbPolyline
 90
4
 70
1
 10
566.8441702975689
 20
419.78276747988457
 40
1.55
 41
0.0
 10
570.8441702975689
 20
419.78276747988457
 40
1.55
 41
0.0
 10
570.8441702975689
 20
423.78276747988457
 40
1.55
 41
0.0
 10
566.8441702975689
 20
423.78276747988457
 40
1.55
 41
0.0
  0
LWPOLYLINE
  5
10F
330
17
100
AcDbEntity
  8
0
 62
3
100
AcDbPolyline
 90
4
 70
1
 10
238.0
 20
498.0
 40
1.7000000000000002
 41
0.0
 10
242.0
 20
498.0
 40
1.7000000000000002
 41
0.0
 10
242.0
 20
502.0
 40
1.7000000000000002
 41
0.0
 10
238.0
 20
502.0
 40
1.7000000000000002
 41
0.0
  0
LWPOLYLINE
  5
110
330
17
100
AcDbEntity
  8
0
 62
3
100
AcDbPolyline
 90
4
 70
1
 10
268.0
 20
498.0
 40
1.35
 41
0.0
 10
272.0
 20
498.0
 40
1.35
 41
0.0
 10
272.0
 20
502.0
 40
1.35
 41
0.0
 10
268.0
 20
502.0
 40
1.35
 41
0.0
  0
LINE
  5
111
330
17
100
AcDbEntity
  8
0
100
AcDbLine
 10
199.40952255126038
 20
12.037086855465816
 30
1.0
 11
199.40952255126038
 21
12.037086855465816
 31
31.0
  0
LINE
  5
112
330
17
100
AcDbEntity
  8
0
100
AcDbLine
 10
199.40952255126038
 20
22.037086855465816
 30
1.0
 11
199.40952255126038
 21
22.037086855465816
 31
31.0
  0
LINE
  5
113
330
17
100
AcDbEntity
  8
0
100
AcDbLine
 10
209.40952255126038
 20
12.037086855465816
 30
1.0
 11
209.40952255126038
 21
12.037086855465816
 31
31.0
  0
LINE
  5
114
330
17
100
AcDbEntity
  8
0
100
AcDbLine
 10
209.40952255126038
 20
22.037086855465816
 30
1.0
 11
209.40952255126038
 21
22.037086855465816
 31
31.0
  0
LINE
  5
115
330
17
100
AcDbEntity
  8
0
100
AcDbLine
 10
199.40952255126038
 20
12.037086855465816
 30
1.0
 11
209.40952255126038
 21
22.037086855465816
 31
31.0
  0
LINE
  5
116
330
17
100
AcDbEntity
  8
0
100
AcDbLine
 10
209.40952255126038
 20
12.037086855465816
 30
1.0
 11
199.40952255126038
 21
22.037086855465816
 31
31.0
  0
LINE
  5
117
330
17
100
AcDbEntity
  8
0
100
AcDbLine
 10
552.9629131445342
 20
365.59047744873965
 30
1.5
 11
552.9629131445342
 21
365.59047744873965
 31
31.5
  0
LINE
  5
118
330
17
100
AcDbEntity
  8
0
100
AcDbLine
 10
552.9629131445342
 20
375.59047744873965
 30
1.5
 11
552.9629131445342
 21
375.59047744873965
 31
31.5
  0
LINE
  5
119
330
17
100
AcDbEntity
  8
0
100
AcDbLine
 10
562.9629131445342
 20
365.59047744873965
 30
1.5
 11
562.9629131445342
 21
365.59047744873965
 31
31.5
  0
LINE
  5
11A
330
17
100
AcDbEntity
  8
0
100
AcDbLine
 10
562.9629131445342
 20
375.59047744873965
 30
1.5
 11
562.9629131445342
 21
375.59047744873965
 31
31.5
  0
LINE
  5
11B
330
17
100
AcDbEntity
  8
0
100
AcDbLine
 10
552.9629131445342
 20
365.59047744873965
 30
1.5
 11
562.9629131445342
 21
375.59047744873965
 31
31.5
  0
LINE
  5
11C
330
17
100
AcDbEntity
  8
0
100
AcDbLine
 10
562.9629131445342
 20
365.59047744873965
 30
1.5
 11
552.9629131445342
 21
375.59047744873965
 31
31.5
  0
ENDSEC
  0
SECTION
  2
OBJECTS
  0
DICTIONARY
  5
A
330
0
100
AcDbDictionary
281
1
  3
ACAD_COLOR
350
B
  3
ACAD_GROUP
350
C
  3
ACAD_LAYOUT
350
D
  3
ACAD_MATERIAL
350
E
  3
ACAD_MLEADERSTYLE
350
F
  3
ACAD_MLINESTYLE
350
10
  3
ACAD_PLOTSETTINGS
350
11
  3
ACAD_PLOTSTYLENAME
350
12
  3
ACAD_SCALELIST
350
14
  3
ACAD_TABLESTYLE
350
15
  3
ACAD_VISUALSTYLE
350
16
  3
EZDXF_META
350
2D
  0
DICTIONARY
  5
B
330
A
100
AcDbDictionary
281
1
  0
DICTIONARY
  5
C
330
A
100
AcDbDictionary
281
1
  0
DICTIONARY
  5
D
330
A
100
AcDbDictionary
281
1
  3
Model
350
1A
  3
Layout1
350
1E
  0
DICTIONARY
  5
E
330
A
100
AcDbDictionary
281
1
  3
ByBlock
350
1F
  3
ByLayer
350
20
  3
Global
350
21
  0
DICTIONARY
  5
F
330
A
100
AcDbDictionary
281
1
  3
Standard
350
2C
  0
DICTIONARY
  5
10
330
A
100
AcDbDictionary
281
1
  3
Standard
350
22
  0
DICTIONARY
  5
11
330
A
100
AcDbDictionary
281
1
  0
ACDBDICTIONARYWDFLT
  5
12
330
A
100
AcDbDictionary
281
1
  3
Normal
350
13
100
AcDbDictionaryWithDefault
340
13
  0
ACDBPLACEHOLDER
  5
13
330
12
  0
DICTIONARY
  5
14
330
A
100
AcDbDictionary
281
1
  0
DICTIONARY
  5
15
330
A
100
AcDbDictionary
281
1
  0
DICTIONARY
  5
16
330
A
100
AcDbDictionary
281
1
  0
LAYOUT
  5
1A
330
D
100
AcDbPlotSettings
  1

  4
A3
  6

 40
7.5
 41
20.0
 42
7.5
 43
20.0
 44
420.0
 45
297.0
 46
0.0
 47
0.0
 48
0.0
 49
0.0
140
0.0
141
0.0
142
1.0
143
1.0
 70
1024
 72
1
 73
0
 74
5
  7

 75
16
 76
0
 77
2
 78
300
147
1.0
148
0.0
149
0.0
100
AcDbLayout
  1
Model
 70
1
 71
0
 10
0.0
 20
0.0
 11
420.0
 21
297.0
 12
0.0
 22
0.0
 32
0.0
 14
1e+20
 24
1e+20
 34
1e+20
 15
-1e+20
 25
-1e+20
 35
-1e+20
146
0.0
 13
0.0
 23
0.0
 33
0.0
 16
1.0
 26
0.0
 36
0.0
 17
0.0
 27
1.0
 37
0.0
 76
1
330
17
  0
LAYOUT
  5
1E
330
D
100
AcDbPlotSettings
  1

  4
A3
  6

 40
7.5
 41
20.0
 42
7.5
 43
20.0
 44
420.0
 45
297.0
 46
0.0
 47
0.0
 48
0.0
 49
0.0
140
0.0
141
0.0
142
1.0
143
1.0
 70
0
 72
1
 73
0
 74
5
  7

 75
16
 76
0
 77
2
 78
300
147
1.0
148
0.0
149
0.0
100
AcDbLayout
  1
Layout1
 70
1
 71
1
 10
0.0
 20
0.0
 11
420.0
 21
297.0
 12
0.0
 22
0.0
 32
0.0
 14
1e+20
 24
1e+20
 34
1e+20
 15
-1e+20
 25
-1e+20
 35
-1e+20
146
0.0
 13
0.0
 23
0.0
 33
0.0
 16
1.0
 26
0.0
 36
0.0
 17
0.0
 27
1.0
 37
0.0
 76
1
330
1B
  0
MATERIAL
  5
1F
102
{ACAD_REACTORS
330
E
102
}
330
E
100
AcDbMaterial
  1
ByBlock
  2

 70
0
 40
1.0
 71
1
 41
1.0
 91
-1023410177
 42
1.0
 72
1
  3

 73
1
 74
1
 75
1
 44
0.5
 73
0
 45
1.0
 46
1.0
 77
1
  4

 78
1
 79
1
170
1
 48
1.0
171
1
  6

172
1
173
1
174
1
140
1.0
141
1.0
175
1
  7

176
1
177
1
178
1
143
1.0
179
1
  8

270
1
271
1
272
1
145
1.0
146
1.0
273
1
  9

274
1
275
1
276
1
 42
1.0
 72
1
  3

 73
1
 74
1
 75
1
 94
63
  0
MATERIAL
  5
20
102
{ACAD_REACTORS
330
E
102
}
330
E
100
AcDbMaterial
  1
ByLayer
  2

 70
0
 40
1.0
 71
1
 41
1.0
 91
-1023410177
 42
1.0
 72
1
  3

 73
1
 74
1
 75
1
 44
0.5
 73
0
 45
1.0
 46
1.0
 77
1
  4

 78
1
 79
1
170
1
 48
1.0
171
1
  6

172
1
173
1
174
1
140
1.0
141
1.0
175
1
  7

176
1
177
1
178
1
143
1.0
179
1
  8

270
1
271
1
272
1
145
1.0
146
1.0
273
1
  9

274
1
275
1
276
1
 42
1.0
 72
1
  3

 73
1
 74
1
 75
1
 94
63
  0
MATERIAL
  5
21
102
{ACAD_REACTORS
330
E
102
}
330
E
100
AcDbMaterial
  1
Global
  2

 70
0
 40
1.0
 71
1
 41
1.0
 91
-1023410177
 42
1.0
 72
1
  3

 73
1
 74
1
 75
1
 44
0.5
 73
0
 45
1.0
 46
1.0
 77
1
  4

 78
1
 79
1
170
1
 48
1.0
171
1
  6

172
1
173
1
174
1
140
1.0
141
1.0
175
1
  7

176
1
177
1
178
1
143
1.0
179
1
  8

270
1
271
1
272
1
145
1.0
146
1.0
273
1
  9

274
1
275
1
276
1
 42
1.0
 72
1
  3

 73
1
 74
1
 75
1
 94
63
  0
MLINESTYLE
  5
22
102
{ACAD_REACTORS
330
10
102
}
330
10
100
AcDbMlineStyle
  2
Standard
 70
0
  3

 62
256
 51
90.0
 52
90.0
 71
2
 49
0.5
 62
256
  6
BYLAYER
 49
-0.5
 62
256
  6
BYLAYER
  0
MLEADERSTYLE
  5
2C
102
{ACAD_REACTORS
330
F
102
}
330
F
100
AcDbMLeaderStyle
179
2
170
2
171
1
172
0
 90
2
 40
0.0
 41
0.0
173
1
 91
-1056964608
 92
-2
290
1
 42
2.0
291
1
 43
8.0
  3
Standard
 44
4.0
300

342
29
174
1
175
1
176
0
178
1
 93
-1056964608
 45
4.0
292
0
297
0
 46
4.0
 94
-1056964608
 47
1.0
 49
1.0
140
1.0
294
1
141
0.0
177
0
142
1.0
295
0
296
0
143
3.75
271
0
272
9
273
9
  0
DICTIONARY
  5
2D
330
A
100
AcDbDictionary
280
1
281
1
  3
CREATED_BY_EZDXF
350
2E
  3
WRITTEN_BY_EZDXF
350
11F
  0
DICTIONARYVAR
  5
2E
330
2D
100
DictionaryVariables
280
0
  1
1.4.3 @ 2025-12-16T17:35:23.237121+00:00
  0
DICTIONARYVAR
  5
11F
330
2D
100
DictionaryVariables
280
0
  1
1.4.3 @ 2025-12-16T17:35:23.240264+00:00
  0
ENDSEC
  0
EOF
