  0
SECTION
  2
HEADER
  9
$ACADVER
  1
AC1015
  9
$ACADMAINTVER
 70
6
  9
$DWGCODEPAGE
  3
ANSI_1252
  9
$INSBASE
 10
0.0
 20
0.0
 30
0.0
  9
$EXTMIN
 10
1e+20
 20
1e+20
 30
1e+20
  9
$EXTMAX
 10
-1e+20
 20
-1e+20
 30
-1e+20
  9
$LIMMIN
 10
0.0
 20
0.0
  9
$LIMMAX
 10
420.0
 20
297.0
  9
$ORTHOMODE
 70
0
  9
$REGENMODE
 70
1
  9
$FILLMODE
 70
1
  9
$QTEXTMODE
 70
0
  9
$MIRRTEXT
 70
1
  9
$LTSCALE
 40
1.0
  9
$ATTMODE
 70
1
  9
$TEXTSIZE
 40
2.5
  9
$TRACEWID
 40
1.0
  9
$TEXTSTYLE
  7
Standard
  9
$CLAYER
  8
0
  9
$CELTYPE
  6
ByLayer
  9
$CECOLOR
 62
256
  9
$CELTSCALE
 40
1.0
  9
$DISPSILH
 70
0
  9
$DIMSCALE
 40
1.0
  9
$DIMASZ
 40
2.5
  9
$DIMEXO
 40
0.625
  9
$DIMDLI
 40
3.75
  9
$DIMRND
 40
0.0
  9
$DIMDLE
 40
0.0
  9
$DIMEXE
 40
1.25
  9
$DIMTP
 40
0.0
  9
$DIMTM
 40
0.0
  9
$DIMTXT
 40
2.5
  9
$DIMCEN
 40
2.5
  9
$DIMTSZ
 40
0.0
  9
$DIMTOL
 70
0
  9
$DIMLIM
 70
0
  9
$DIMTIH
 70
0
  9
$DIMTOH
 70
0
  9
$DIMSE1
 70
0
  9
$DIMSE2
 70
0
  9
$DIMTAD
 70
1
  9
$DIMZIN
 70
8
  9
$DIMBLK
  1

  9
$DIMASO
 70
1
  9
$DIMSHO
 70
1
  9
$DIMPOST
  1

  9
$DIMAPOST
  1

  9
$DIMALT
 70
0
  9
$DIMALTD
 70
3
  9
$DIMALTF
 40
0.03937007874
  9
$DIMLFAC
 40
1.0
  9
$DIMTOFL
 70
1
  9
$DIMTVP
 40
0.0
  9
$DIMTIX
 70
0
  9
$DIMSOXD
 70
0
  9
$DIMSAH
 70
0
  9
$DIMBLK1
  1

  9
$DIMBLK2
  1

  9
$DIMSTYLE
  2
ISO-25
  9
$DIMCLRD
 70
0
  9
$DIMCLRE
 70
0
  9
$DIMCLRT
 70
0
  9
$DIMTFAC
 40
1.0
  9
$DIMGAP
 40
0.625
  9
$DIMJUST
 70
0
  9
$DIMSD1
 70
0
  9
$DIMSD2
 70
0
  9
$DIMTOLJ
 70
0
  9
$DIMTZIN
 70
8
  9
$DIMALTZ
 70
0
  9
$DIMALTTZ
 70
0
  9
$DIMUPT
 70
0
  9
$DIMDEC
 70
2
  9
$DIMTDEC
 70
2
  9
$DIMALTU
 70
2
  9
$DIMALTTD
 70
3
  9
$DIMTXSTY
  7
Standard
  9
$DIMAUNIT
 70
0
  9
$DIMADEC
 70
0
  9
$DIMALTRND
 40
0.0
  9
$DIMAZIN
 70
0
  9
$DIMDSEP
 70
44
  9
$DIMATFIT
 70
3
  9
$DIMFRAC
 70
0
  9
$DIMLDRBLK
  1

  9
$DIMLUNIT
 70
2
  9
$DIMLWD
 70
-2
  9
$DIMLWE
 70
-2
  9
$DIMTMOVE
 70
0
  9
$LUNITS
 70
2
  9
$LUPREC
 70
4
  9
$SKETCHINC
 40
1.0
  9
$FILLETRAD
 40
10.0
  9
$AUNITS
 70
0
  9
$AUPREC
 70
2
  9
$MENU
  1
.
  9
$ELEVATION
 40
0.0
  9
$PELEVATION
 40
0.0
  9
$THICKNESS
 40
0.0
  9
$LIMCHECK
 70
0
  9
$CHAMFERA
 40
0.0
  9
$CHAMFERB
 40
0.0
  9
$CHAMFERC
 40
0.0
  9
$CHAMFERD
 40
0.0
  9
$SKPOLY
 70
0
  9
$TDCREATE
 40
2461027.0246180557
  9
$TDUCREATE
 40
2458532.153996898
  9
$TDUPDATE
 40
2461027.0246180557
  9
$TDUUPDATE
 40
2458532.1544311
  9
$TDINDWG
 40
0.0
  9
$TDUSRTIMER
 40
0.0
  9
$USRTIMER
 70
1
  9
$ANGBASE
 50
0.0
  9
$ANGDIR
 70
0
  9
$PDMODE
 70
0
  9
$PDSIZE
 40
0.0
  9
$PLINEWID
 40
0.0
  9
$SPLFRAME
 70
0
  9
$SPLINETYPE
 70
6
  9
$SPLINESEGS
 70
8
  9
$HANDSEED
  5
1CA
  9
$SURFTAB1
 70
6
  9
$SURFTAB2
 70
6
  9
$SURFTYPE
 70
6
  9
$SURFU
 70
6
  9
$SURFV
 70
6
  9
$UCSBASE
  2

  9
$UCSNAME
  2

  9
$UCSORG
 10
0.0
 20
0.0
 30
0.0
  9
$UCSXDIR
 10
1.0
 20
0.0
 30
0.0
  9
$UCSYDIR
 10
0.0
 20
1.0
 30
0.0
  9
$UCSORTHOREF
  2

  9
$UCSORTHOVIEW
 70
0
  9
$UCSORGTOP
 10
0.0
 20
0.0
 30
0.0
  9
$UCSORGBOTTOM
 10
0.0
 20
0.0
 30
0.0
  9
$UCSORGLEFT
 10
0.0
 20
0.0
 30
0.0
  9
$UCSORGRIGHT
 10
0.0
 20
0.0
 30
0.0
  9
$UCSORGFRONT
 10
0.0
 20
0.0
 30
0.0
  9
$UCSORGBACK
 10
0.0
 20
0.0
 30
0.0
  9
$PUCSBASE
  2

  9
$PUCSNAME
  2

  9
$PUCSORG
 10
0.0
 20
0.0
 30
0.0
  9
$PUCSXDIR
 10
1.0
 20
0.0
 30
0.0
  9
$PUCSYDIR
 10
0.0
 20
1.0
 30
0.0
  9
$PUCSORTHOREF
  2

  9
$PUCSORTHOVIEW
 70
0
  9
$PUCSORGTOP
 10
0.0
 20
0.0
 30
0.0
  9
$PUCSORGBOTTOM
 10
0.0
 20
0.0
 30
0.0
  9
$PUCSORGLEFT
 10
0.0
 20
0.0
 30
0.0
  9
$PUCSORGRIGHT
 10
0.0
 20
0.0
 30
0.0
  9
$PUCSORGFRONT
 10
0.0
 20
0.0
 30
0.0
  9
$PUCSORGBACK
 10
0.0
 20
0.0
 30
0.0
  9
$USERI1
 70
0
  9
$USERI2
 70
0
  9
$USERI3
 70
0
  9
$USERI4
 70
0
  9
$USERI5
 70
0
  9
$USERR1
 40
0.0
  9
$USERR2
 40
0.0
  9
$USERR3
 40
0.0
  9
$USERR4
 40
0.0
  9
$USERR5
 40
0.0
  9
$WORLDVIEW
 70
1
  9
$SHADEDGE
 70
3
  9
$SHADEDIF
 70
70
  9
$TILEMODE
 70
1
  9
$MAXACTVP
 70
64
  9
$PINSBASE
 10
0.0
 20
0.0
 30
0.0
  9
$PLIMCHECK
 70
0
  9
$PEXTMIN
 10
1e+20
 20
1e+20
 30
1e+20
  9
$PEXTMAX
 10
-1e+20
 20
-1e+20
 30
-1e+20
  9
$PLIMMIN
 10
0.0
 20
0.0
  9
$PLIMMAX
 10
420.0
 20
297.0
  9
$UNITMODE
 70
0
  9
$VISRETAIN
 70
1
  9
$PLINEGEN
 70
0
  9
$PSLTSCALE
 70
1
  9
$TREEDEPTH
 70
3020
  9
$CMLSTYLE
  2
Standard
  9
$CMLJUST
 70
0
  9
$CMLSCALE
 40
20.0
  9
$PROXYGRAPHICS
 70
1
  9
$MEASUREMENT
 70
1
  9
$CELWEIGHT
370
-1
  9
$ENDCAPS
280
0
  9
$JOINSTYLE
280
0
  9
$LWDISPLAY
290
0
  9
$INSUNITS
 70
6
  9
$HYPERLINKBASE
  1

  9
$STYLESHEET
  1

  9
$XEDIT
290
1
  9
$CEPSNTYPE
380
0
  9
$PSTYLEMODE
290
1
  9
$FINGERPRINTGUID
  2
{825D9760-0F5E-4A17-B647-9E324CB0574A}
  9
$VERSIONGUID
  2
{2D9632CA-C194-4682-8B93-6FE09423F19E}
  9
$EXTNAMES
290
1
  9
$PSVPSCALE
 40
0.0
  9
$OLESTARTUP
290
0
  0
ENDSEC
  0
SECTION
  2
CLASSES
  0
CLASS
  1
ACDBDICTIONARYWDFLT
  2
AcDbDictionaryWithDefault
  3
ObjectDBX Classes
 90
0
280
0
281
0
  0
CLASS
  1
SUN
  2
AcDbSun
  3
SCENEOE
 90
1153
280
0
281
0
  0
CLASS
  1
VISUALSTYLE
  2
AcDbVisualStyle
  3
ObjectDBX Classes
 90
4095
280
0
281
0
  0
CLASS
  1
MATERIAL
  2
AcDbMaterial
  3
ObjectDBX Classes
 90
1153
280
0
281
0
  0
CLASS
  1
SCALE
  2
AcDbScale
  3
ObjectDBX Classes
 90
1153
280
0
281
0
  0
CLASS
  1
TABLESTYLE
  2
AcDbTableStyle
  3
ObjectDBX Classes
 90
4095
280
0
281
0
  0
CLASS
  1
MLEADERSTYLE
  2
AcDbMLeaderStyle
  3
ACDB_MLEADERSTYLE_CLASS
 90
4095
280
0
281
0
  0
CLASS
  1
DICTIONARYVAR
  2
AcDbDictionaryVar
  3
ObjectDBX Classes
 90
0
280
0
281
0
  0
CLASS
  1
CELLSTYLEMAP
  2
AcDbCellStyleMap
  3
ObjectDBX Classes
 90
1152
280
0
281
0
  0
CLASS
  1
MENTALRAYRENDERSETTINGS
  2
AcDbMentalRayRenderSettings
  3
SCENEOE
 90
1024
280
0
281
0
  0
CLASS
  1
ACDBDETAILVIEWSTYLE
  2
AcDbDetailViewStyle
  3
ObjectDBX Classes
 90
1025
280
0
281
0
  0
CLASS
  1
ACDBSECTIONVIEWSTYLE
  2
AcDbSectionViewStyle
  3
ObjectDBX Classes
 90
1025
280
0
281
0
  0
CLASS
  1
RASTERVARIABLES
  2
AcDbRasterVariables
  3
ISM
 90
0
280
0
281
0
  0
CLASS
  1
ACDBPLACEHOLDER
  2
AcDbPlaceHolder
  3
ObjectDBX Classes
 90
0
280
0
281
0
  0
CLASS
  1
LAYOUT
  2
AcDbLayout
  3
ObjectDBX Classes
 90
0
280
0
281
0
  0
ENDSEC
  0
SECTION
  2
TABLES
  0
TABLE
  2
VPORT
  5
8
330
0
100
AcDbSymbolTable
 70
1
  0
VPORT
  5
23
330
8
100
AcDbSymbolTableRecord
100
AcDbViewportTableRecord
  2
*Active
 70
0
 10
0.0
 20
0.0
 11
1.0
 21
1.0
 12
0.0
 22
0.0
 13
0.0
 23
0.0
 14
0.5
 24
0.5
 15
0.5
 25
0.5
 16
0.0
 26
0.0
 36
1.0
 17
0.0
 27
0.0
 37
0.0
 40
1000.0
 41
1.34
 42
50.0
 43
0.0
 44
0.0
 50
0.0
 51
0.0
 71
0
 72
1000
 73
1
 74
3
 75
0
 76
0
 77
0
 78
0
281
0
 65
0
146
0.0
  0
ENDTAB
  0
TABLE
  2
LTYPE
  5
2
330
0
100
AcDbSymbolTable
 70
3
  0
LTYPE
  5
24
330
2
100
AcDbSymbolTableRecord
100
AcDbLinetypeTableRecord
  2
ByBlock
 70
0
  3

 72
65
 73
0
 40
0.0
  0
LTYPE
  5
25
330
2
100
AcDbSymbolTableRecord
100
AcDbLinetypeTableRecord
  2
ByLayer
 70
0
  3

 72
65
 73
0
 40
0.0
  0
LTYPE
  5
26
330
2
100
AcDbSymbolTableRecord
100
AcDbLinetypeTableRecord
  2
Continuous
 70
0
  3

 72
65
 73
0
 40
0.0
  0
ENDTAB
  0
TABLE
  2
LAYER
  5
1
330
0
100
AcDbSymbolTable
 70
8
  0
LAYER
  5
27
330
1
100
AcDbSymbolTableRecord
100
AcDbLayerTableRecord
  2
0
 70
0
 62
7
  6
Continuous
370
-3
390
13
  0
LAYER
  5
28
330
1
100
AcDbSymbolTableRecord
100
AcDbLayerTableRecord
  2
Defpoints
 70
0
 62
7
  6
Continuous
290
0
370
-3
390
13
  0
LAYER
  5
2F
330
1
100
AcDbSymbolTableRecord
100
AcDbLayerTableRecord
  2
COLUMNS
 70
0
 62
7
  6
Continuous
370
-3
390
13
  0
LAYER
  5
30
330
1
100
AcDbSymbolTableRecord
100
AcDbLayerTableRecord
  2
BEAMS
 70
0
 62
7
  6
Continuous
370
-3
390
13
  0
LAYER
  5
31
330
1
100
AcDbSymbolTableRecord
100
AcDbLayerTableRecord
  2
BRACING
 70
0
 62
7
  6
Continuous
370
-3
390
13
  0
LAYER
  5
32
330
1
100
AcDbSymbolTableRecord
100
AcDbLayerTableRecord
  2
RIBS
 70
0
 62
7
  6
Continuous
370
-3
390
13
  0
LAYER
  5
33
330
1
100
AcDbSymbolTableRecord
100
AcDbLayerTableRecord
  2
GRIDS
 70
0
 62
7
  6
Continuous
370
-3
390
13
  0
LAYER
  5
34
330
1
100
AcDbSymbolTableRecord
100
AcDbLayerTableRecord
  2
MARKERS
 70
0
 62
7
  6
Continuous
370
-3
390
13
  0
ENDTAB
  0
TABLE
  2
STYLE
  5
5
330
0
100
AcDbSymbolTable
 70
1
  0
STYLE
  5
29
330
5
100
AcDbSymbolTableRecord
100
AcDbTextStyleTableRecord
  2
Standard
 70
0
 40
0.0
 41
1.0
 50
0.0
 71
0
 42
2.5
  3
txt
  4

  0
ENDTAB
  0
TABLE
  2
VIEW
  5
7
330
0
100
AcDbSymbolTable
 70
0
  0
ENDTAB
  0
TABLE
  2
UCS
  5
6
330
0
100
AcDbSymbolTable
 70
0
  0
ENDTAB
  0
TABLE
  2
APPID
  5
3
330
0
100
AcDbSymbolTable
 70
3
  0
APPID
  5
2A
330
3
100
AcDbSymbolTableRecord
100
AcDbRegAppTableRecord
  2
ACAD
 70
0
  0
APPID
  5
1C7
330
3
100
AcDbSymbolTableRecord
100
AcDbRegAppTableRecord
  2
HATCHBACKGROUNDCOLOR
 70
0
  0
APPID
  5
1C8
330
3
100
AcDbSymbolTableRecord
100
AcDbRegAppTableRecord
  2
EZDXF
 70
0
  0
ENDTAB
  0
TABLE
  2
DIMSTYLE
  5
4
330
0
100
AcDbSymbolTable
 70
1
100
AcDbDimStyleTable
  0
DIMSTYLE
105
2B
330
4
100
AcDbSymbolTableRecord
100
AcDbDimStyleTableRecord
  2
Standard
 70
0
  3

  4

 40
1.0
 41
2.5
 42
0.625
 43
3.75
 44
1.25
 45
0.0
 46
0.0
 47
0.0
 48
0.0
140
2.5
141
2.5
142
0.0
143
0.03937007874
144
1.0
145
0.0
146
1.0
147
0.625
148
0.0
 71
0
 72
0
 73
0
 74
0
 75
0
 76
0
 77
1
 78
8
 79
3
170
0
171
3
172
1
173
0
174
0
175
0
176
0
177
0
178
0
179
2
271
2
272
2
273
2
274
3
275
0
276
0
277
2
278
44
279
0
280
0
281
0
282
0
283
0
284
8
285
0
286
0
288
0
289
3
371
-2
372
-2
  0
ENDTAB
  0
TABLE
  2
BLOCK_RECORD
  5
9
330
0
100
AcDbSymbolTable
 70
2
  0
BLOCK_RECORD
  5
17
330
9
100
AcDbSymbolTableRecord
100
AcDbBlockTableRecord
  2
*Model_Space
340
1A
  0
BLOCK_RECORD
  5
1B
330
9
100
AcDbSymbolTableRecord
100
AcDbBlockTableRecord
  2
*Paper_Space
340
1E
  0
ENDTAB
  0
ENDSEC
  0
SECTION
  2
BLOCKS
  0
BLOCK
  5
18
330
17
100
AcDbEntity
  8
0
100
AcDbBlockBegin
  2
*Model_Space
 70
0
 10
0.0
 20
0.0
 30
0.0
  3
*Model_Space
  1

  0
ENDBLK
  5
19
330
17
100
AcDbEntity
  8
0
100
AcDbBlockEnd
  0
BLOCK
  5
1C
330
1B
100
AcDbEntity
  8
0
100
AcDbBlockBegin
  2
*Paper_Space
 70
0
 10
0.0
 20
0.0
 30
0.0
  3
*Paper_Space
  1

  0
ENDBLK
  5
1D
330
1B
100
AcDbEntity
  8
0
100
AcDbBlockEnd
  0
ENDSEC
  0
SECTION
  2
ENTITIES
  0
LINE
  5
35
330
17
100
AcDbEntity
  8
COLUMNS
100
AcDbLine
 10
12000.0
 20
12000.0
 30
0.0
 11
12000.0
 21
12000.0
 31
192500.0
  0
LINE
  5
36
330
17
100
AcDbEntity
  8
COLUMNS
100
AcDbLine
 10
-12000.0
 20
12000.0
 30
0.0
 11
-12000.0
 21
12000.0
 31
192500.0
  0
LINE
  5
37
330
17
100
AcDbEntity
  8
COLUMNS
100
AcDbLine
 10
-12000.0
 20
-12000.0
 30
0.0
 11
-12000.0
 21
-12000.0
 31
192500.0
  0
LINE
  5
38
330
17
100
AcDbEntity
  8
COLUMNS
100
AcDbLine
 10
12000.0
 20
-12000.0
 30
0.0
 11
12000.0
 21
-12000.0
 31
192500.0
  0
LINE
  5
39
330
17
100
AcDbEntity
  8
COLUMNS
100
AcDbLine
 10
24000.0
 20
0.0
 30
0.0
 11
24000.0
 21
0.0
 31
192500.0
  0
LINE
  5
3A
330
17
100
AcDbEntity
  8
COLUMNS
100
AcDbLine
 10
16970.562748477143
 20
16970.56274847714
 30
0.0
 11
16970.562748477143
 21
16970.56274847714
 31
192500.0
  0
LINE
  5
3B
330
17
100
AcDbEntity
  8
COLUMNS
100
AcDbLine
 10
1.4695761589768238e-12
 20
24000.0
 30
0.0
 11
1.4695761589768238e-12
 21
24000.0
 31
192500.0
  0
LINE
  5
3C
330
17
100
AcDbEntity
  8
COLUMNS
100
AcDbLine
 10
-16970.56274847714
 20
16970.562748477143
 30
0.0
 11
-16970.56274847714
 21
16970.562748477143
 31
192500.0
  0
LINE
  5
3D
330
17
100
AcDbEntity
  8
COLUMNS
100
AcDbLine
 10
-24000.0
 20
2.9391523179536476e-12
 30
0.0
 11
-24000.0
 21
2.9391523179536476e-12
 31
192500.0
  0
LINE
  5
3E
330
17
100
AcDbEntity
  8
COLUMNS
100
AcDbLine
 10
-16970.562748477143
 20
-16970.56274847714
 30
0.0
 11
-16970.562748477143
 21
-16970.56274847714
 31
192500.0
  0
LINE
  5
3F
330
17
100
AcDbEntity
  8
COLUMNS
100
AcDbLine
 10
-4.408728476930471e-12
 20
-24000.0
 30
0.0
 11
-4.408728476930471e-12
 21
-24000.0
 31
192500.0
  0
LINE
  5
40
330
17
100
AcDbEntity
  8
COLUMNS
100
AcDbLine
 10
16970.562748477136
 20
-16970.562748477143
 30
0.0
 11
16970.562748477136
 21
-16970.562748477143
 31
192500.0
  0
LINE
  5
41
330
17
100
AcDbEntity
  8
RIBS
100
AcDbLine
 10
22800.0
 20
0.0
 30
0.0
 11
23081.847902443766
 21
1614.0400375828956
 31
11000.0
  0
LINE
  5
42
330
17
100
AcDbEntity
  8
RIBS
100
AcDbLine
 10
19745.3792062852
 20
11399.999999999998
 30
0.0
 11
19182.446631013416
 21
12938.72362649386
 31
11000.0
  0
LINE
  5
43
330
17
100
AcDbEntity
  8
RIBS
100
AcDbLine
 10
11400.000000000002
 20
19745.3792062852
 30
0.0
 11
10143.124275949907
 21
20796.486668596306
 31
11000.0
  0
LINE
  5
44
330
17
100
AcDbEntity
  8
RIBS
100
AcDbLine
 10
1.3960973510279827e-12
 20
22800.0
 30
0.0
 11
-1614.0400375828963
 21
23081.847902443766
 31
11000.0
  0
LINE
  5
45
330
17
100
AcDbEntity
  8
RIBS
100
AcDbLine
 10
-11399.999999999996
 20
19745.3792062852
 30
0.0
 11
-12938.723626493857
 21
19182.446631013416
 31
11000.0
  0
LINE
  5
46
330
17
100
AcDbEntity
  8
RIBS
100
AcDbLine
 10
-19745.3792062852
 20
11399.999999999998
 30
0.0
 11
-20796.48666859631
 21
10143.124275949902
 31
11000.0
  0
LINE
  5
47
330
17
100
AcDbEntity
  8
RIBS
100
AcDbLine
 10
-22800.0
 20
2.7921947020559654e-12
 30
0.0
 11
-23081.847902443766
 21
-1614.040037582895
 31
11000.0
  0
LINE
  5
48
330
17
100
AcDbEntity
  8
RIBS
100
AcDbLine
 10
-19745.379206285204
 20
-11399.999999999995
 30
0.0
 11
-19182.446631013416
 21
-12938.723626493857
 31
11000.0
  0
LINE
  5
49
330
17
100
AcDbEntity
  8
RIBS
100
AcDbLine
 10
-11400.000000000011
 20
-19745.379206285194
 30
0.0
 11
-10143.124275949913
 21
-20796.486668596306
 31
11000.0
  0
LINE
  5
4A
330
17
100
AcDbEntity
  8
RIBS
100
AcDbLine
 10
-4.1882920530839475e-12
 20
-22800.0
 30
0.0
 11
1614.0400375828935
 21
-23081.84790244377
 31
11000.0
  0
LINE
  5
4B
330
17
100
AcDbEntity
  8
RIBS
100
AcDbLine
 10
11400.000000000002
 20
-19745.3792062852
 30
0.0
 11
12938.723626493866
 21
-19182.446631013412
 31
11000.0
  0
LINE
  5
4C
330
17
100
AcDbEntity
  8
RIBS
100
AcDbLine
 10
19745.379206285194
 20
-11400.000000000011
 30
0.0
 11
20796.486668596306
 21
-10143.124275949915
 31
11000.0
  0
LINE
  5
4D
330
17
100
AcDbEntity
  8
RIBS
100
AcDbLine
 10
23081.847902443766
 20
1614.0400375828956
 30
11000.0
 11
23220.79698967446
 21
3263.4701913836275
 31
22000.0
  0
LINE
  5
4E
330
17
100
AcDbEntity
  8
RIBS
100
AcDbLine
 10
19182.446631013416
 20
12938.72362649386
 30
11000.0
 11
18478.06499348749
 21
14436.646585068713
 31
22000.0
  0
LINE
  5
4F
330
17
100
AcDbEntity
  8
RIBS
100
AcDbLine
 10
10143.124275949907
 20
20796.486668596306
 30
11000.0
 11
8784.150404605749
 21
21741.535184871114
 31
22000.0
  0
LINE
  5
50
330
17
100
AcDbEntity
  8
RIBS
100
AcDbLine
 10
-1614.0400375828963
 20
23081.847902443766
 30
11000.0
 11
-3263.470191383625
 21
23220.79698967446
 31
22000.0
  0
LINE
  5
51
330
17
100
AcDbEntity
  8
RIBS
100
AcDbLine
 10
-12938.723626493857
 20
19182.446631013416
 30
11000.0
 11
-14436.646585068716
 21
18478.06499348749
 31
22000.0
  0
LINE
  5
52
330
17
100
AcDbEntity
  8
RIBS
100
AcDbLine
 10
-20796.48666859631
 20
10143.124275949902
 30
11000.0
 11
-21741.53518487112
 21
8784.15040460574
 31
22000.0
  0
LINE
  5
53
330
17
100
AcDbEntity
  8
RIBS
100
AcDbLine
 10
-23081.847902443766
 20
-1614.040037582895
 30
11000.0
 11
-23220.79698967446
 21
-3263.4701913836293
 31
22000.0
  0
LINE
  5
54
330
17
100
AcDbEntity
  8
RIBS
100
AcDbLine
 10
-19182.446631013416
 20
-12938.723626493857
 30
11000.0
 11
-18478.06499348749
 21
-14436.646585068713
 31
22000.0
  0
LINE
  5
55
330
17
100
AcDbEntity
  8
RIBS
100
AcDbLine
 10
-10143.124275949913
 20
-20796.486668596306
 30
11000.0
 11
-8784.15040460575
 21
-21741.535184871114
 31
22000.0
  0
LINE
  5
56
330
17
100
AcDbEntity
  8
RIBS
100
AcDbLine
 10
1614.0400375828935
 20
-23081.84790244377
 30
11000.0
 11
3263.470191383628
 21
-23220.79698967446
 31
22000.0
  0
LINE
  5
57
330
17
100
AcDbEntity
  8
RIBS
100
AcDbLine
 10
12938.723626493866
 20
-19182.446631013412
 30
11000.0
 11
14436.646585068722
 21
-18478.064993487485
 31
22000.0
  0
LINE
  5
58
330
17
100
AcDbEntity
  8
RIBS
100
AcDbLine
 10
20796.486668596306
 20
-10143.124275949915
 30
11000.0
 11
21741.535184871114
 21
-8784.150404605753
 31
22000.0
  0
LINE
  5
59
330
17
100
AcDbEntity
  8
RIBS
100
AcDbLine
 10
23220.79698967446
 20
3263.4701913836275
 30
22000.0
 11
23189.111884289337
 21
4928.997890305989
 31
33000.0
  0
LINE
  5
5A
330
17
100
AcDbEntity
  8
RIBS
100
AcDbLine
 10
18478.06499348749
 20
14436.646585068713
 30
22000.0
 11
17617.861037841205
 21
15863.193330349557
 31
33000.0
  0
LINE
  5
5B
330
17
100
AcDbEntity
  8
RIBS
100
AcDbLine
 10
8784.150404605749
 20
21741.535184871114
 30
22000.0
 11
7325.918553939778
 21
22546.85892814719
 31
33000.0
  0
LINE
  5
5C
330
17
100
AcDbEntity
  8
RIBS
100
AcDbLine
 10
-3263.470191383625
 20
23220.79698967446
 30
22000.0
 11
-4928.997890305989
 21
23189.111884289337
 31
33000.0
  0
LINE
  5
5D
330
17
100
AcDbEntity
  8
RIBS
100
AcDbLine
 10
-14436.646585068716
 20
18478.06499348749
 30
22000.0
 11
-15863.193330349552
 21
17617.86103784121
 31
33000.0
  0
LINE
  5
5E
330
17
100
AcDbEntity
  8
RIBS
100
AcDbLine
 10
-21741.53518487112
 20
8784.15040460574
 30
22000.0
 11
-22546.85892814719
 21
7325.9185539397795
 31
33000.0
  0
LINE
  5
5F
330
17
100
AcDbEntity
  8
RIBS
100
AcDbLine
 10
-23220.79698967446
 20
-3263.4701913836293
 30
22000.0
 11
-23189.111884289337
 21
-4928.997890305983
 31
33000.0
  0
LINE
  5
60
330
17
100
AcDbEntity
  8
RIBS
100
AcDbLine
 10
-18478.06499348749
 20
-14436.646585068713
 30
22000.0
 11
-17617.86103784121
 21
-15863.193330349552
 31
33000.0
  0
LINE
  5
61
330
17
100
AcDbEntity
  8
RIBS
100
AcDbLine
 10
-8784.15040460575
 20
-21741.535184871114
 30
22000.0
 11
-7325.91855393978
 21
-22546.85892814719
 31
33000.0
  0
LINE
  5
62
330
17
100
AcDbEntity
  8
RIBS
100
AcDbLine
 10
3263.470191383628
 20
-23220.79698967446
 30
22000.0
 11
4928.997890305992
 21
-23189.111884289334
 31
33000.0
  0
LINE
  5
63
330
17
100
AcDbEntity
  8
RIBS
100
AcDbLine
 10
14436.646585068722
 20
-18478.064993487485
 30
22000.0
 11
15863.193330349564
 21
-17617.861037841198
 31
33000.0
  0
LINE
  5
64
330
17
100
AcDbEntity
  8
RIBS
100
AcDbLine
 10
21741.535184871114
 20
-8784.150404605753
 30
22000.0
 11
22546.85892814719
 21
-7325.918553939783
 31
33000.0
  0
LINE
  5
65
330
17
100
AcDbEntity
  8
RIBS
100
AcDbLine
 10
23189.111884289337
 20
4928.997890305989
 30
33000.0
 11
22966.26016695046
 21
6585.469131009353
 31
44000.0
  0
LINE
  5
66
330
17
100
AcDbEntity
  8
RIBS
100
AcDbLine
 10
17617.861037841205
 20
15863.193330349557
 30
33000.0
 11
16596.63016899706
 21
17186.313646767558
 31
44000.0
  0
LINE
  5
67
330
17
100
AcDbEntity
  8
RIBS
100
AcDbLine
 10
7325.918553939778
 20
22546.85892814719
 30
33000.0
 11
5779.946520182901
 21
23182.099300006415
 31
44000.0
  0
LINE
  5
68
330
17
100
AcDbEntity
  8
RIBS
100
AcDbLine
 10
-4928.997890305989
 20
23189.111884289337
 30
33000.0
 11
-6585.46913100935
 21
22966.26016695046
 31
44000.0
  0
LINE
  5
69
330
17
100
AcDbEntity
  8
RIBS
100
AcDbLine
 10
-15863.193330349552
 20
17617.86103784121
 30
33000.0
 11
-17186.313646767558
 21
16596.630168997068
 31
44000.0
  0
LINE
  5
6A
330
17
100
AcDbEntity
  8
RIBS
100
AcDbLine
 10
-22546.85892814719
 20
7325.9185539397795
 30
33000.0
 11
-23182.099300006415
 21
5779.946520182897
 31
44000.0
  0
LINE
  5
6B
330
17
100
AcDbEntity
  8
RIBS
100
AcDbLine
 10
-23189.111884289337
 20
-4928.997890305983
 30
33000.0
 11
-22966.26016695046
 21
-6585.469131009349
 31
44000.0
  0
LINE
  5
6C
330
17
100
AcDbEntity
  8
RIBS
100
AcDbLine
 10
-17617.86103784121
 20
-15863.193330349552
 30
33000.0
 11
-16596.630168997068
 21
-17186.313646767554
 31
44000.0
  0
LINE
  5
6D
330
17
100
AcDbEntity
  8
RIBS
100
AcDbLine
 10
-7325.91855393978
 20
-22546.85892814719
 30
33000.0
 11
-5779.946520182898
 21
-23182.099300006415
 31
44000.0
  0
LINE
  5
6E
330
17
100
AcDbEntity
  8
RIBS
100
AcDbLine
 10
4928.997890305992
 20
-23189.111884289334
 30
33000.0
 11
6585.4691310093585
 21
-22966.260166950455
 31
44000.0
  0
LINE
  5
6F
330
17
100
AcDbEntity
  8
RIBS
100
AcDbLine
 10
15863.193330349564
 20
-17617.861037841198
 30
33000.0
 11
17186.31364676757
 21
-16596.630168997053
 31
44000.0
  0
LINE
  5
70
330
17
100
AcDbEntity
  8
RIBS
100
AcDbLine
 10
22546.85892814719
 20
-7325.918553939783
 30
33000.0
 11
23182.099300006415
 21
-5779.946520182901
 31
44000.0
  0
LINE
  5
71
330
17
100
AcDbEntity
  8
RIBS
100
AcDbLine
 10
22966.26016695046
 20
6585.469131009353
 30
44000.0
 11
22541.237293310896
 21
8204.339418296424
 31
55000.0
  0
LINE
  5
72
330
17
100
AcDbEntity
  8
RIBS
100
AcDbLine
 10
16596.63016899706
 20
17186.313646767558
 30
44000.0
 11
15419.114419592206
 21
18375.785004170193
 31
55000.0
  0
LINE
  5
73
330
17
100
AcDbEntity
  8
RIBS
100
AcDbLine
 10
5779.946520182901
 20
23182.099300006415
 30
44000.0
 11
4165.452289140702
 21
23623.453837888625
 31
55000.0
  0
LINE
  5
74
330
17
100
AcDbEntity
  8
RIBS
100
AcDbLine
 10
-6585.46913100935
 20
22966.26016695046
 30
44000.0
 11
-8204.339418296424
 21
22541.237293310896
 31
55000.0
  0
LINE
  5
75
330
17
100
AcDbEntity
  8
RIBS
100
AcDbLine
 10
-17186.313646767558
 20
16596.630168997068
 30
44000.0
 11
-18375.785004170193
 21
15419.114419592206
 31
55000.0
  0
LINE
  5
76
330
17
100
AcDbEntity
  8
RIBS
100
AcDbLine
 10
-23182.099300006415
 20
5779.946520182897
 30
44000.0
 11
-23623.453837888625
 21
4165.452289140699
 31
55000.0
  0
LINE
  5
77
330
17
100
AcDbEntity
  8
RIBS
100
AcDbLine
 10
-22966.26016695046
 20
-6585.469131009349
 30
44000.0
 11
-22541.237293310896
 21
-8204.339418296422
 31
55000.0
  0
LINE
  5
78
330
17
100
AcDbEntity
  8
RIBS
100
AcDbLine
 10
-16596.630168997068
 20
-17186.313646767554
 30
44000.0
 11
-15419.114419592206
 21
-18375.785004170193
 31
55000.0
  0
LINE
  5
79
330
17
100
AcDbEntity
  8
RIBS
100
AcDbLine
 10
-5779.946520182898
 20
-23182.099300006415
 30
44000.0
 11
-4165.452289140721
 21
-23623.453837888625
 31
55000.0
  0
LINE
  5
7A
330
17
100
AcDbEntity
  8
RIBS
100
AcDbLine
 10
6585.4691310093585
 20
-22966.260166950455
 30
44000.0
 11
8204.33941829641
 21
-22541.2372933109
 31
55000.0
  0
LINE
  5
7B
330
17
100
AcDbEntity
  8
RIBS
100
AcDbLine
 10
17186.31364676757
 20
-16596.630168997053
 30
44000.0
 11
18375.78500417019
 21
-15419.11441959221
 31
55000.0
  0
LINE
  5
7C
330
17
100
AcDbEntity
  8
RIBS
100
AcDbLine
 10
23182.099300006415
 20
-5779.946520182901
 30
44000.0
 11
23623.453837888625
 21
-4165.452289140723
 31
55000.0
  0
LINE
  5
7D
330
17
100
AcDbEntity
  8
RIBS
100
AcDbLine
 10
22541.237293310896
 20
8204.339418296424
 30
55000.0
 11
21913.82482898339
 21
9756.663418689832
 31
66000.0
  0
LINE
  5
7E
330
17
100
AcDbEntity
  8
RIBS
100
AcDbLine
 10
15419.114419592206
 20
18375.785004170193
 30
55000.0
 11
14099.597286636881
 21
19406.43079125142
 31
66000.0
  0
LINE
  5
7F
330
17
100
AcDbEntity
  8
RIBS
100
AcDbLine
 10
4165.452289140702
 20
23623.453837888625
 30
55000.0
 11
2507.394037731977
 21
23856.260705326713
 31
66000.0
  0
LINE
  5
80
330
17
100
AcDbEntity
  8
RIBS
100
AcDbLine
 10
-8204.339418296424
 20
22541.237293310896
 30
55000.0
 11
-9756.663418689834
 21
21913.82482898339
 31
66000.0
  0
LINE
  5
81
330
17
100
AcDbEntity
  8
RIBS
100
AcDbLine
 10
-18375.785004170193
 20
15419.114419592206
 30
55000.0
 11
-19406.430791251416
 21
14099.597286636885
 31
66000.0
  0
LINE
  5
82
330
17
100
AcDbEntity
  8
RIBS
100
AcDbLine
 10
-23623.453837888625
 20
4165.452289140699
 30
55000.0
 11
-23856.260705326717
 21
2507.3940377319673
 31
66000.0
  0
LINE
  5
83
330
17
100
AcDbEntity
  8
RIBS
100
AcDbLine
 10
-22541.237293310896
 20
-8204.339418296422
 30
55000.0
 11
-21913.82482898339
 21
-9756.663418689832
 31
66000.0
  0
LINE
  5
84
330
17
100
AcDbEntity
  8
RIBS
100
AcDbLine
 10
-15419.114419592206
 20
-18375.785004170193
 30
55000.0
 11
-14099.597286636885
 21
-19406.430791251416
 31
66000.0
  0
LINE
  5
85
330
17
100
AcDbEntity
  8
RIBS
100
AcDbLine
 10
-4165.452289140721
 20
-23623.453837888625
 30
55000.0
 11
-2507.39403773199
 21
-23856.260705326713
 31
66000.0
  0
LINE
  5
86
330
17
100
AcDbEntity
  8
RIBS
100
AcDbLine
 10
8204.33941829641
 20
-22541.2372933109
 30
55000.0
 11
9756.66341868982
 21
-21913.824828983394
 31
66000.0
  0
LINE
  5
87
330
17
100
AcDbEntity
  8
RIBS
100
AcDbLine
 10
18375.78500417019
 20
-15419.11441959221
 30
55000.0
 11
19406.430791251416
 21
-14099.597286636887
 31
66000.0
  0
LINE
  5
88
330
17
100
AcDbEntity
  8
RIBS
100
AcDbLine
 10
23623.453837888625
 20
-4165.452289140723
 30
55000.0
 11
23856.260705326713
 21
-2507.3940377319914
 31
66000.0
  0
LINE
  5
89
330
17
100
AcDbEntity
  8
RIBS
100
AcDbLine
 10
21913.82482898339
 20
9756.663418689832
 30
66000.0
 11
21094.6394862338
 21
11216.21877232916
 31
77000.0
  0
LINE
  5
8A
330
17
100
AcDbEntity
  8
RIBS
100
AcDbLine
 10
14099.597286636881
 20
19406.43079125142
 30
66000.0
 11
12660.384292588205
 21
20260.85013435786
 31
77000.0
  0
LINE
  5
8B
330
17
100
AcDbEntity
  8
RIBS
100
AcDbLine
 10
2507.394037731977
 20
23856.260705326713
 30
66000.0
 11
833.7893518759394
 21
23876.603064917366
 31
77000.0
  0
LINE
  5
8C
330
17
100
AcDbEntity
  8
RIBS
100
AcDbLine
 10
-9756.663418689834
 20
21913.82482898339
 30
66000.0
 11
-11216.218772329154
 21
21094.6394862338
 31
77000.0
  0
LINE
  5
8D
330
17
100
AcDbEntity
  8
RIBS
100
AcDbLine
 10
-19406.430791251416
 20
14099.597286636885
 30
66000.0
 11
-20260.85013435786
 21
12660.384292588209
 31
77000.0
  0
LINE
  5
8E
330
17
100
AcDbEntity
  8
RIBS
100
AcDbLine
 10
-23856.260705326717
 20
2507.3940377319673
 30
66000.0
 11
-23876.603064917366
 21
833.7893518759303
 31
77000.0
  0
LINE
  5
8F
330
17
100
AcDbEntity
  8
RIBS
100
AcDbLine
 10
-21913.82482898339
 20
-9756.663418689832
 30
66000.0
 11
-21094.6394862338
 21
-11216.218772329154
 31
77000.0
  0
LINE
  5
90
330
17
100
AcDbEntity
  8
RIBS
100
AcDbLine
 10
-14099.597286636885
 20
-19406.430791251416
 30
66000.0
 11
-12660.384292588209
 21
-20260.85013435786
 31
77000.0
  0
LINE
  5
91
330
17
100
AcDbEntity
  8
RIBS
100
AcDbLine
 10
-2507.39403773199
 20
-23856.260705326713
 30
66000.0
 11
-833.7893518759529
 21
-23876.603064917366
 31
77000.0
  0
LINE
  5
92
330
17
100
AcDbEntity
  8
RIBS
100
AcDbLine
 10
9756.66341868982
 20
-21913.824828983394
 30
66000.0
 11
11216.218772329152
 21
-21094.6394862338
 31
77000.0
  0
LINE
  5
93
330
17
100
AcDbEntity
  8
RIBS
100
AcDbLine
 10
19406.430791251416
 20
-14099.597286636887
 30
66000.0
 11
20260.850134357857
 21
-12660.384292588209
 31
77000.0
  0
LINE
  5
94
330
17
100
AcDbEntity
  8
RIBS
100
AcDbLine
 10
23856.260705326713
 20
-2507.3940377319914
 30
66000.0
 11
23876.603064917366
 21
-833.7893518759544
 31
77000.0
  0
LINE
  5
95
330
17
100
AcDbEntity
  8
RIBS
100
AcDbLine
 10
21094.6394862338
 20
11216.21877232916
 30
77000.0
 11
20103.977789863242
 21
12562.359572351357
 31
88000.0
  0
LINE
  5
96
330
17
100
AcDbEntity
  8
RIBS
100
AcDbLine
 10
12660.384292588205
 20
20260.85013435786
 30
77000.0
 11
11129.375696964024
 21
20931.311416062512
 31
88000.0
  0
LINE
  5
97
330
17
100
AcDbEntity
  8
RIBS
100
AcDbLine
 10
833.7893518759394
 20
23876.603064917366
 30
77000.0
 11
-827.3336261992719
 21
23691.73526931538
 31
88000.0
  0
LINE
  5
98
330
17
100
AcDbEntity
  8
RIBS
100
AcDbLine
 10
-11216.218772329154
 20
21094.6394862338
 30
77000.0
 11
-12562.359572351355
 21
20103.977789863246
 31
88000.0
  0
LINE
  5
99
330
17
100
AcDbEntity
  8
RIBS
100
AcDbLine
 10
-20260.85013435786
 20
12660.384292588209
 30
77000.0
 11
-20931.311416062512
 21
11129.375696964029
 31
88000.0
  0
LINE
  5
9A
330
17
100
AcDbEntity
  8
RIBS
100
AcDbLine
 10
-23876.603064917366
 20
833.7893518759303
 30
77000.0
 11
-23691.73526931538
 21
-827.3336261992705
 31
88000.0
  0
LINE
  5
9B
330
17
100
AcDbEntity
  8
RIBS
100
AcDbLine
 10
-21094.6394862338
 20
-11216.218772329154
 30
77000.0
 11
-20103.977789863246
 21
-12562.359572351355
 31
88000.0
  0
LINE
  5
9C
330
17
100
AcDbEntity
  8
RIBS
100
AcDbLine
 10
-12660.384292588209
 20
-20260.85013435786
 30
77000.0
 11
-11129.375696964022
 21
-20931.311416062515
 31
88000.0
  0
LINE
  5
9D
330
17
100
AcDbEntity
  8
RIBS
100
AcDbLine
 10
-833.7893518759529
 20
-23876.603064917366
 30
77000.0
 11
827.3336261992586
 21
-23691.73526931538
 31
88000.0
  0
LINE
  5
9E
330
17
100
AcDbEntity
  8
RIBS
100
AcDbLine
 10
11216.218772329152
 20
-21094.6394862338
 30
77000.0
 11
12562.359572351352
 21
-20103.97778986325
 31
88000.0
  0
LINE
  5
9F
330
17
100
AcDbEntity
  8
RIBS
100
AcDbLine
 10
20260.850134357857
 20
-12660.384292588209
 30
77000.0
 11
20931.311416062515
 21
-11129.375696964022
 31
88000.0
  0
LINE
  5
A0
330
17
100
AcDbEntity
  8
RIBS
100
AcDbLine
 10
23876.603064917366
 20
-833.7893518759544
 30
77000.0
 11
23691.73526931538
 21
827.3336261992571
 31
88000.0
  0
LINE
  5
A1
330
17
100
AcDbEntity
  8
RIBS
100
AcDbLine
 10
20103.977789863242
 20
12562.359572351357
 30
88000.0
 11
18969.60737249158
 21
13782.226495679166
 31
99000.0
  0
LINE
  5
A2
330
17
100
AcDbEntity
  8
RIBS
100
AcDbLine
 10
11129.375696964024
 20
20931.311416062512
 30
88000.0
 11
9537.048636554708
 21
21420.561952214925
 31
99000.0
  0
LINE
  5
A3
330
17
100
AcDbEntity
  8
RIBS
100
AcDbLine
 10
-827.3336261992719
 20
23691.73526931538
 30
88000.0
 11
-2450.9545797233436
 21
23319.27513223387
 31
99000.0
  0
LINE
  5
A4
330
17
100
AcDbEntity
  8
RIBS
100
AcDbLine
 10
-12562.359572351355
 20
20103.977789863246
 30
88000.0
 11
-13782.226495679162
 21
18969.60737249158
 31
99000.0
  0
LINE
  5
A5
330
17
100
AcDbEntity
  8
RIBS
100
AcDbLine
 10
-20931.311416062512
 20
11129.375696964029
 30
88000.0
 11
-21420.561952214925
 21
9537.04863655471
 31
99000.0
  0
LINE
  5
A6
330
17
100
AcDbEntity
  8
RIBS
100
AcDbLine
 10
-23691.73526931538
 20
-827.3336261992705
 30
88000.0
 11
-23319.275132233866
 21
-2450.9545797233477
 31
99000.0
  0
LINE
  5
A7
330
17
100
AcDbEntity
  8
RIBS
100
AcDbLine
 10
-20103.977789863246
 20
-12562.359572351355
 30
88000.0
 11
-18969.60737249158
 21
-13782.226495679162
 31
99000.0
  0
LINE
  5
A8
330
17
100
AcDbEntity
  8
RIBS
100
AcDbLine
 10
-11129.375696964022
 20
-20931.311416062515
 30
88000.0
 11
-9537.04863655472
 21
-21420.56195221492
 31
99000.0
  0
LINE
  5
A9
330
17
100
AcDbEntity
  8
RIBS
100
AcDbLine
 10
827.3336261992586
 20
-23691.73526931538
 30
88000.0
 11
2450.954579723336
 21
-23319.27513223387
 31
99000.0
  0
LINE
  5
AA
330
17
100
AcDbEntity
  8
RIBS
100
AcDbLine
 10
12562.359572351352
 20
-20103.97778986325
 30
88000.0
 11
13782.22649567916
 21
-18969.607372491584
 31
99000.0
  0
LINE
  5
AB
330
17
100
AcDbEntity
  8
RIBS
100
AcDbLine
 10
20931.311416062515
 20
-11129.375696964022
 30
88000.0
 11
21420.561952214928
 21
-9537.048636554702
 31
99000.0
  0
LINE
  5
AC
330
17
100
AcDbEntity
  8
RIBS
100
AcDbLine
 10
23691.73526931538
 20
827.3336261992571
 30
88000.0
 11
23319.27513223387
 21
2450.9545797233345
 31
99000.0
  0
LINE
  5
AD
330
17
100
AcDbEntity
  8
RIBS
100
AcDbLine
 10
18969.60737249158
 20
13782.226495679166
 30
99000.0
 11
17723.782813601243
 21
14872.019621959016
 31
110000.0
  0
LINE
  5
AE
330
17
100
AcDbEntity
  8
RIBS
100
AcDbLine
 10
9537.048636554708
 20
21420.561952214925
 30
99000.0
 11
7913.236356757205
 21
21741.438204997772
 31
110000.0
  0
LINE
  5
AF
330
17
100
AcDbEntity
  8
RIBS
100
AcDbLine
 10
-2450.9545797233436
 20
23319.27513223387
 30
99000.0
 11
-4017.655391396525
 21
22785.25597871622
 31
110000.0
  0
LINE
  5
B0
330
17
100
AcDbEntity
  8
RIBS
100
AcDbLine
 10
-13782.226495679162
 20
18969.60737249158
 30
99000.0
 11
-14872.01962195902
 21
17723.782813601243
 31
110000.0
  0
LINE
  5
B1
330
17
100
AcDbEntity
  8
RIBS
100
AcDbLine
 10
-21420.561952214925
 20
9537.04863655471
 30
99000.0
 11
-21741.438204997772
 21
7913.236356757206
 31
110000.0
  0
LINE
  5
B2
330
17
100
AcDbEntity
  8
RIBS
100
AcDbLine
 10
-23319.275132233866
 20
-2450.9545797233477
 30
99000.0
 11
-22785.25597871622
 21
-4017.655391396534
 31
110000.0
  0
LINE
  5
B3
330
17
100
AcDbEntity
  8
RIBS
100
AcDbLine
 10
-18969.60737249158
 20
-13782.226495679162
 30
99000.0
 11
-17723.782813601243
 21
-14872.019621959016
 31
110000.0
  0
LINE
  5
B4
330
17
100
AcDbEntity
  8
RIBS
100
AcDbLine
 10
-9537.04863655472
 20
-21420.56195221492
 30
99000.0
 11
-7913.236356757217
 21
-21741.438204997772
 31
110000.0
  0
LINE
  5
B5
330
17
100
AcDbEntity
  8
RIBS
100
AcDbLine
 10
2450.954579723336
 20
-23319.27513223387
 30
99000.0
 11
4017.6553913965226
 21
-22785.25597871622
 31
110000.0
  0
LINE
  5
B6
330
17
100
AcDbEntity
  8
RIBS
100
AcDbLine
 10
13782.22649567916
 20
-18969.607372491584
 30
99000.0
 11
14872.019621959016
 21
-17723.782813601247
 31
110000.0
  0
LINE
  5
B7
330
17
100
AcDbEntity
  8
RIBS
100
AcDbLine
 10
21420.561952214928
 20
-9537.048636554702
 30
99000.0
 11
21741.438204997776
 21
-7913.236356757199
 31
110000.0
  0
LINE
  5
B8
330
17
100
AcDbEntity
  8
RIBS
100
AcDbLine
 10
23319.27513223387
 20
2450.9545797233345
 30
99000.0
 11
22785.25597871622
 21
4017.6553913965213
 31
110000.0
  0
LINE
  5
B9
330
17
100
AcDbEntity
  8
RIBS
100
AcDbLine
 10
17723.782813601243
 20
14872.019621959016
 30
110000.0
 11
16399.855931063597
 21
15837.15678108133
 31
121000.0
  0
LINE
  5
BA
330
17
100
AcDbEntity
  8
RIBS
100
AcDbLine
 10
7913.236356757205
 20
21741.438204997772
 30
110000.0
 11
6284.113464165306
 21
21915.30806166522
 31
121000.0
  0
LINE
  5
BB
330
17
100
AcDbEntity
  8
RIBS
100
AcDbLine
 10
-4017.655391396525
 20
22785.25597871622
 30
110000.0
 11
-5515.452130601619
 21
22121.270245246636
 31
121000.0
  0
LINE
  5
BC
330
17
100
AcDbEntity
  8
RIBS
100
AcDbLine
 10
-14872.01962195902
 20
17723.782813601243
 30
110000.0
 11
-15837.156781081334
 21
16399.855931063594
 31
121000.0
  0
LINE
  5
BD
330
17
100
AcDbEntity
  8
RIBS
100
AcDbLine
 10
-21741.438204997772
 20
7913.236356757206
 30
110000.0
 11
-21915.308061665215
 21
6284.113464165318
 31
121000.0
  0
LINE
  5
BE
330
17
100
AcDbEntity
  8
RIBS
100
AcDbLine
 10
-22785.25597871622
 20
-4017.655391396534
 30
110000.0
 11
-22121.270245246636
 21
-5515.452130601618
 31
121000.0
  0
LINE
  5
BF
330
17
100
AcDbEntity
  8
RIBS
100
AcDbLine
 10
-17723.782813601243
 20
-14872.019621959016
 30
110000.0
 11
-16399.855931063594
 21
-15837.156781081334
 31
121000.0
  0
LINE
  5
C0
330
17
100
AcDbEntity
  8
RIBS
100
AcDbLine
 10
-7913.236356757217
 20
-21741.438204997772
 30
110000.0
 11
-6284.113464165319
 21
-21915.308061665215
 31
121000.0
  0
LINE
  5
C1
330
17
100
AcDbEntity
  8
RIBS
100
AcDbLine
 10
4017.6553913965226
 20
-22785.25597871622
 30
110000.0
 11
5515.452130601616
 21
-22121.27024524664
 31
121000.0
  0
LINE
  5
C2
330
17
100
AcDbEntity
  8
RIBS
100
AcDbLine
 10
14872.019621959016
 20
-17723.782813601247
 30
110000.0
 11
15837.15678108133
 21
-16399.855931063597
 31
121000.0
  0
LINE
  5
C3
330
17
100
AcDbEntity
  8
RIBS
100
AcDbLine
 10
21741.438204997776
 20
-7913.236356757199
 30
110000.0
 11
21915.30806166522
 21
-6284.113464165302
 31
121000.0
  0
LINE
  5
C4
330
17
100
AcDbEntity
  8
RIBS
100
AcDbLine
 10
22785.25597871622
 20
4017.6553913965213
 30
110000.0
 11
22121.27024524664
 21
5515.452130601614
 31
121000.0
  0
LINE
  5
C5
330
17
100
AcDbEntity
  8
RIBS
100
AcDbLine
 10
16399.855931063597
 20
15837.15678108133
 30
121000.0
 11
15028.896222651387
 21
16691.280228945812
 31
132000.0
  0
LINE
  5
C6
330
17
100
AcDbEntity
  8
RIBS
100
AcDbLine
 10
6284.113464165306
 20
21915.30806166522
 30
121000.0
 11
4669.765805183182
 21
21969.52081127771
 31
132000.0
  0
LINE
  5
C7
330
17
100
AcDbEntity
  8
RIBS
100
AcDbLine
 10
-5515.452130601619
 20
22121.270245246636
 30
121000.0
 11
-6940.6245886263205
 21
21361.046034128998
 31
132000.0
  0
LINE
  5
C8
330
17
100
AcDbEntity
  8
RIBS
100
AcDbLine
 10
-15837.156781081334
 20
16399.855931063594
 30
121000.0
 11
-16691.280228945816
 21
15028.896222651381
 31
132000.0
  0
LINE
  5
C9
330
17
100
AcDbEntity
  8
RIBS
100
AcDbLine
 10
-21915.308061665215
 20
6284.113464165318
 30
121000.0
 11
-21969.520811277707
 21
4669.765805183194
 31
132000.0
  0
LINE
  5
CA
330
17
100
AcDbEntity
  8
RIBS
100
AcDbLine
 10
-22121.270245246636
 20
-5515.452130601618
 30
121000.0
 11
-21361.046034128998
 21
-6940.62458862632
 31
132000.0
  0
LINE
  5
CB
330
17
100
AcDbEntity
  8
RIBS
100
AcDbLine
 10
-16399.855931063594
 20
-15837.156781081334
 30
121000.0
 11
-15028.896222651385
 21
-16691.280228945816
 31
132000.0
  0
LINE
  5
CC
330
17
100
AcDbEntity
  8
RIBS
100
AcDbLine
 10
-6284.113464165319
 20
-21915.308061665215
 30
121000.0
 11
-4669.765805183195
 21
-21969.520811277707
 31
132000.0
  0
LINE
  5
CD
330
17
100
AcDbEntity
  8
RIBS
100
AcDbLine
 10
5515.452130601616
 20
-22121.27024524664
 30
121000.0
 11
6940.624588626318
 21
-21361.046034128998
 31
132000.0
  0
LINE
  5
CE
330
17
100
AcDbEntity
  8
RIBS
100
AcDbLine
 10
15837.15678108133
 20
-16399.855931063597
 30
121000.0
 11
16691.280228945816
 21
-15028.896222651385
 31
132000.0
  0
LINE
  5
CF
330
17
100
AcDbEntity
  8
RIBS
100
AcDbLine
 10
21915.30806166522
 20
-6284.113464165302
 30
121000.0
 11
21969.52081127771
 21
-4669.765805183177
 31
132000.0
  0
LINE
  5
D0
330
17
100
AcDbEntity
  8
RIBS
100
AcDbLine
 10
22121.27024524664
 20
5515.452130601614
 30
121000.0
 11
21361.046034128998
 21
6940.624588626317
 31
132000.0
  0
LINE
  5
D1
330
17
100
AcDbEntity
  8
RIBS
100
AcDbLine
 10
15028.896222651387
 20
16691.280228945812
 30
132000.0
 11
13636.731229215426
 21
17454.22002730032
 31
143000.0
  0
LINE
  5
D2
330
17
100
AcDbEntity
  8
RIBS
100
AcDbLine
 10
4669.765805183182
 20
21969.52081127771
 30
132000.0
 11
3082.645655430993
 21
21934.16356149291
 31
143000.0
  0
LINE
  5
D3
330
17
100
AcDbEntity
  8
RIBS
100
AcDbLine
 10
-6940.6245886263205
 20
21361.046034128998
 30
132000.0
 11
-8297.432332277484
 21
20536.865682731313
 31
143000.0
  0
LINE
  5
D4
330
17
100
AcDbEntity
  8
RIBS
100
AcDbLine
 10
-16691.280228945816
 20
15028.896222651381
 30
132000.0
 11
-17454.220027300318
 21
13636.731229215427
 31
143000.0
  0
LINE
  5
D5
330
17
100
AcDbEntity
  8
RIBS
100
AcDbLine
 10
-21969.520811277707
 20
4669.765805183194
 30
132000.0
 11
-21934.163561492907
 21
3082.6456554309993
 31
143000.0
  0
LINE
  5
D6
330
17
100
AcDbEntity
  8
RIBS
100
AcDbLine
 10
-21361.046034128998
 20
-6940.62458862632
 30
132000.0
 11
-20536.865682731313
 21
-8297.432332277484
 31
143000.0
  0
LINE
  5
D7
330
17
100
AcDbEntity
  8
RIBS
100
AcDbLine
 10
-15028.896222651385
 20
-16691.280228945816
 30
132000.0
 11
-13636.73122921542
 21
-17454.220027300325
 31
143000.0
  0
LINE
  5
D8
330
17
100
AcDbEntity
  8
RIBS
100
AcDbLine
 10
-4669.765805183195
 20
-21969.520811277707
 30
132000.0
 11
-3082.645655431001
 21
-21934.163561492907
 31
143000.0
  0
LINE
  5
D9
330
17
100
AcDbEntity
  8
RIBS
100
AcDbLine
 10
6940.624588626318
 20
-21361.046034128998
 30
132000.0
 11
8297.432332277482
 21
-20536.865682731313
 31
143000.0
  0
LINE
  5
DA
330
17
100
AcDbEntity
  8
RIBS
100
AcDbLine
 10
16691.280228945816
 20
-15028.896222651385
 30
132000.0
 11
17454.220027300325
 21
-13636.731229215422
 31
143000.0
  0
LINE
  5
DB
330
17
100
AcDbEntity
  8
RIBS
100
AcDbLine
 10
21969.52081127771
 20
-4669.765805183177
 30
132000.0
 11
21934.16356149291
 21
-3082.6456554309825
 31
143000.0
  0
LINE
  5
DC
330
17
100
AcDbEntity
  8
RIBS
100
AcDbLine
 10
21361.046034128998
 20
6940.624588626317
 30
132000.0
 11
20536.865682731313
 21
8297.43233227748
 31
143000.0
  0
LINE
  5
DD
330
17
100
AcDbEntity
  8
RIBS
100
AcDbLine
 10
13636.731229215426
 20
17454.22002730032
 30
143000.0
 11
12241.75989748685
 21
18149.15540991853
 31
154000.0
  0
LINE
  5
DE
330
17
100
AcDbEntity
  8
RIBS
100
AcDbLine
 10
3082.645655430993
 20
21934.16356149291
 30
143000.0
 11
1527.097353293937
 21
21838.509590964648
 31
154000.0
  0
LINE
  5
DF
330
17
100
AcDbEntity
  8
RIBS
100
AcDbLine
 10
-8297.432332277484
 20
20536.865682731313
 30
143000.0
 11
-9596.749693477801
 21
19676.252763212462
 31
154000.0
  0
LINE
  5
E0
330
17
100
AcDbEntity
  8
RIBS
100
AcDbLine
 10
-17454.220027300318
 20
13636.731229215427
 30
143000.0
 11
-18149.155409918527
 21
12241.759897486852
 31
154000.0
  0
LINE
  5
E1
330
17
100
AcDbEntity
  8
RIBS
100
AcDbLine
 10
-21934.163561492907
 20
3082.6456554309993
 30
143000.0
 11
-21838.509590964648
 21
1527.0973532939383
 31
154000.0
  0
LINE
  5
E2
330
17
100
AcDbEntity
  8
RIBS
100
AcDbLine
 10
-20536.865682731313
 20
-8297.432332277484
 30
143000.0
 11
-19676.252763212462
 21
-9596.7496934778
 31
154000.0
  0
LINE
  5
E3
330
17
100
AcDbEntity
  8
RIBS
100
AcDbLine
 10
-13636.73122921542
 20
-17454.220027300325
 30
143000.0
 11
-12241.75989748686
 21
-18149.155409918523
 31
154000.0
  0
LINE
  5
E4
330
17
100
AcDbEntity
  8
RIBS
100
AcDbLine
 10
-3082.645655431001
 20
-21934.163561492907
 30
143000.0
 11
-1527.0973532939397
 21
-21838.509590964648
 31
154000.0
  0
LINE
  5
E5
330
17
100
AcDbEntity
  8
RIBS
100
AcDbLine
 10
8297.432332277482
 20
-20536.865682731313
 30
143000.0
 11
9596.749693477797
 21
-19676.252763212466
 31
154000.0
  0
LINE
  5
E6
330
17
100
AcDbEntity
  8
RIBS
100
AcDbLine
 10
17454.220027300325
 20
-13636.731229215422
 30
143000.0
 11
18149.15540991852
 21
-12241.759897486862
 31
154000.0
  0
LINE
  5
E7
330
17
100
AcDbEntity
  8
RIBS
100
AcDbLine
 10
21934.16356149291
 20
-3082.6456554309825
 30
143000.0
 11
21838.50959096465
 21
-1527.0973532939217
 31
154000.0
  0
LINE
  5
E8
330
17
100
AcDbEntity
  8
RIBS
100
AcDbLine
 10
20536.865682731313
 20
8297.43233227748
 30
143000.0
 11
19676.252763212466
 21
9596.749693477797
 31
154000.0
  0
LINE
  5
E9
330
17
100
AcDbEntity
  8
RIBS
100
AcDbLine
 10
12241.75989748685
 20
18149.15540991853
 30
154000.0
 11
10853.791833413532
 21
18799.31891024839
 31
165000.0
  0
LINE
  5
EA
330
17
100
AcDbEntity
  8
RIBS
100
AcDbLine
 10
1527.097353293937
 20
21838.509590964648
 30
154000.0
 11
1.3292061427401562e-12
 21
21707.58366682706
 31
165000.0
  0
LINE
  5
EB
330
17
100
AcDbEntity
  8
RIBS
100
AcDbLine
 10
-9596.749693477801
 20
19676.252763212462
 30
154000.0
 11
-10853.791833413527
 21
18799.318910248392
 31
165000.0
  0
LINE
  5
EC
330
17
100
AcDbEntity
  8
RIBS
100
AcDbLine
 10
-18149.155409918527
 20
12241.759897486852
 30
154000.0
 11
-18799.31891024839
 21
10853.791833413537
 31
165000.0
  0
LINE
  5
ED
330
17
100
AcDbEntity
  8
RIBS
100
AcDbLine
 10
-21838.509590964648
 20
1527.0973532939383
 30
154000.0
 11
-21707.58366682706
 21
2.6584122854803124e-12
 31
165000.0
  0
LINE
  5
EE
330
17
100
AcDbEntity
  8
RIBS
100
AcDbLine
 10
-19676.252763212462
 20
-9596.7496934778
 30
154000.0
 11
-18799.31891024839
 21
-10853.791833413532
 31
165000.0
  0
LINE
  5
EF
330
17
100
AcDbEntity
  8
RIBS
100
AcDbLine
 10
-12241.75989748686
 20
-18149.155409918523
 30
154000.0
 11
-10853.79183341354
 21
-18799.318910248385
 31
165000.0
  0
LINE
  5
F0
330
17
100
AcDbEntity
  8
RIBS
100
AcDbLine
 10
-1527.0973532939397
 20
-21838.509590964648
 30
154000.0
 11
-3.9876184282204684e-12
 21
-21707.58366682706
 31
165000.0
  0
LINE
  5
F1
330
17
100
AcDbEntity
  8
RIBS
100
AcDbLine
 10
9596.749693477797
 20
-19676.252763212466
 30
154000.0
 11
10853.791833413516
 21
-18799.3189102484
 31
165000.0
  0
LINE
  5
F2
330
17
100
AcDbEntity
  8
RIBS
100
AcDbLine
 10
18149.15540991852
 20
-12241.759897486862
 30
154000.0
 11
18799.318910248385
 21
-10853.79183341354
 31
165000.0
  0
LINE
  5
F3
330
17
100
AcDbEntity
  8
RIBS
100
AcDbLine
 10
21838.50959096465
 20
-1527.0973532939217
 30
154000.0
 11
21707.58366682706
 21
-5.316824570960625e-12
 31
165000.0
  0
LINE
  5
F4
330
17
100
AcDbEntity
  8
RIBS
100
AcDbLine
 10
19676.252763212466
 20
9596.749693477797
 30
154000.0
 11
18799.3189102484
 21
10853.791833413514
 31
165000.0
  0
LINE
  5
F5
330
17
100
AcDbEntity
  8
RIBS
100
AcDbLine
 10
10853.791833413532
 20
18799.31891024839
 30
165000.0
 11
9474.03434061002
 21
19424.649003806895
 31
176000.0
  0
LINE
  5
F6
330
17
100
AcDbEntity
  8
RIBS
100
AcDbLine
 10
1.3292061427401562e-12
 20
21707.58366682706
 30
165000.0
 11
-1507.5700866090192
 21
21559.256667197868
 31
176000.0
  0
LINE
  5
F7
330
17
100
AcDbEntity
  8
RIBS
100
AcDbLine
 10
-10853.791833413527
 20
18799.318910248392
 30
165000.0
 11
-12085.222326587847
 21
17917.07891719788
 31
176000.0
  0
LINE
  5
F8
330
17
100
AcDbEntity
  8
RIBS
100
AcDbLine
 10
-18799.31891024839
 20
10853.791833413537
 30
165000.0
 11
-19424.64900380689
 21
9474.034340610024
 31
176000.0
  0
LINE
  5
F9
330
17
100
AcDbEntity
  8
RIBS
100
AcDbLine
 10
-21707.58366682706
 20
2.6584122854803124e-12
 30
165000.0
 11
-21559.256667197868
 21
-1507.570086609018
 31
176000.0
  0
LINE
  5
FA
330
17
100
AcDbEntity
  8
RIBS
100
AcDbLine
 10
-18799.31891024839
 20
-10853.791833413532
 30
165000.0
 11
-17917.078917197872
 21
-12085.222326587855
 31
176000.0
  0
LINE
  5
FB
330
17
100
AcDbEntity
  8
RIBS
100
AcDbLine
 10
-10853.79183341354
 20
-18799.318910248385
 30
165000.0
 11
-9474.034340610026
 21
-19424.64900380689
 31
176000.0
  0
LINE
  5
FC
330
17
100
AcDbEntity
  8
RIBS
100
AcDbLine
 10
-3.9876184282204684e-12
 20
-21707.58366682706
 30
165000.0
 11
1507.5700866090167
 21
-21559.25666719787
 31
176000.0
  0
LINE
  5
FD
330
17
100
AcDbEntity
  8
RIBS
100
AcDbLine
 10
10853.791833413516
 20
-18799.3189102484
 30
165000.0
 11
12085.222326587838
 21
-17917.078917197887
 31
176000.0
  0
LINE
  5
FE
330
17
100
AcDbEntity
  8
RIBS
100
AcDbLine
 10
18799.318910248385
 20
-10853.79183341354
 30
165000.0
 11
19424.64900380689
 21
-9474.034340610027
 31
176000.0
  0
LINE
  5
FF
330
17
100
AcDbEntity
  8
RIBS
100
AcDbLine
 10
21707.58366682706
 20
-5.316824570960625e-12
 30
165000.0
 11
21559.25666719787
 21
1507.5700866090153
 31
176000.0
  0
LINE
  5
100
330
17
100
AcDbEntity
  8
RIBS
100
AcDbLine
 10
18799.3189102484
 20
10853.791833413514
 30
165000.0
 11
17917.078917197887
 21
12085.222326587838
 31
176000.0
  0
LINE
  5
101
330
17
100
AcDbEntity
  8
RIBS
100
AcDbLine
 10
9474.03434061002
 20
19424.649003806895
 30
176000.0
 11
8096.203832942465
 21
20038.807669494523
 31
187000.0
  0
LINE
  5
102
330
17
100
AcDbEntity
  8
RIBS
100
AcDbLine
 10
-1507.5700866090192
 20
21559.256667197868
 30
176000.0
 11
-3007.885641202145
 21
21402.218419803932
 31
187000.0
  0
LINE
  5
103
330
17
100
AcDbEntity
  8
RIBS
100
AcDbLine
 10
-12085.222326587847
 20
17917.07891719788
 30
176000.0
 11
-13306.014586861467
 21
17030.92202829238
 31
187000.0
  0
LINE
  5
104
330
17
100
AcDbEntity
  8
RIBS
100
AcDbLine
 10
-19424.64900380689
 20
9474.034340610024
 30
176000.0
 11
-20038.807669494523
 21
8096.203832942471
 31
187000.0
  0
LINE
  5
105
330
17
100
AcDbEntity
  8
RIBS
100
AcDbLine
 10
-21559.256667197868
 20
-1507.570086609018
 30
176000.0
 11
-21402.218419803932
 21
-3007.885641202144
 31
187000.0
  0
LINE
  5
106
330
17
100
AcDbEntity
  8
RIBS
100
AcDbLine
 10
-17917.078917197872
 20
-12085.222326587855
 30
176000.0
 11
-17030.922028292378
 21
-13306.014586861473
 31
187000.0
  0
LINE
  5
107
330
17
100
AcDbEntity
  8
RIBS
100
AcDbLine
 10
-9474.034340610026
 20
-19424.64900380689
 30
176000.0
 11
-8096.203832942472
 21
-20038.807669494523
 31
187000.0
  0
LINE
  5
108
330
17
100
AcDbEntity
  8
RIBS
100
AcDbLine
 10
1507.5700866090167
 20
-21559.25666719787
 30
176000.0
 11
3007.885641202143
 21
-21402.218419803936
 31
187000.0
  0
LINE
  5
109
330
17
100
AcDbEntity
  8
RIBS
100
AcDbLine
 10
12085.222326587838
 20
-17917.078917197887
 30
176000.0
 11
13306.014586861458
 21
-17030.92202829239
 31
187000.0
  0
LINE
  5
10A
330
17
100
AcDbEntity
  8
RIBS
100
AcDbLine
 10
19424.64900380689
 20
-9474.034340610027
 30
176000.0
 11
20038.807669494523
 21
-8096.203832942474
 31
187000.0
  0
LINE
  5
10B
330
17
100
AcDbEntity
  8
RIBS
100
AcDbLine
 10
21559.25666719787
 20
1507.5700866090153
 30
176000.0
 11
21402.218419803936
 21
3007.885641202141
 31
187000.0
  0
LINE
  5
10C
330
17
100
AcDbEntity
  8
RIBS
100
AcDbLine
 10
17917.078917197887
 20
12085.222326587838
 30
176000.0
 11
17030.92202829239
 21
13306.014586861456
 31
187000.0
  0
LINE
  5
10D
330
17
100
AcDbEntity
  8
RIBS
100
AcDbLine
 10
8096.203832942465
 20
20038.807669494523
 30
187000.0
 11
6708.596842457955
 21
20646.938059578733
 31
192500.0
  0
LINE
  5
10E
330
17
100
AcDbEntity
  8
RIBS
100
AcDbLine
 10
-3007.885641202145
 20
21402.218419803932
 30
187000.0
 11
-4513.653740472702
 21
21235.071291187945
 31
192500.0
  0
LINE
  5
10F
330
17
100
AcDbEntity
  8
RIBS
100
AcDbLine
 10
-13306.014586861467
 20
17030.92202829238
 30
187000.0
 11
-14526.474448729983
 21
16133.284319106033
 31
192500.0
  0
LINE
  5
110
330
17
100
AcDbEntity
  8
RIBS
100
AcDbLine
 10
-20038.807669494523
 20
8096.203832942471
 30
187000.0
 11
-20646.938059578733
 21
6708.596842457957
 31
192500.0
  0
LINE
  5
111
330
17
100
AcDbEntity
  8
RIBS
100
AcDbLine
 10
-21402.218419803932
 20
-3007.885641202144
 30
187000.0
 11
-21235.071291187945
 21
-4513.653740472701
 31
192500.0
  0
LINE
  5
112
330
17
100
AcDbEntity
  8
RIBS
100
AcDbLine
 10
-17030.922028292378
 20
-13306.014586861473
 30
187000.0
 11
-16133.284319106027
 21
-14526.47444872999
 31
192500.0
  0
LINE
  5
113
330
17
100
AcDbEntity
  8
RIBS
100
AcDbLine
 10
-8096.203832942472
 20
-20038.807669494523
 30
187000.0
 11
-6708.596842457958
 21
-20646.938059578733
 31
192500.0
  0
LINE
  5
114
330
17
100
AcDbEntity
  8
RIBS
100
AcDbLine
 10
3007.885641202143
 20
-21402.218419803936
 30
187000.0
 11
4513.6537404726905
 21
-21235.07129118795
 31
192500.0
  0
LINE
  5
115
330
17
100
AcDbEntity
  8
RIBS
100
AcDbLine
 10
13306.014586861458
 20
-17030.92202829239
 30
187000.0
 11
14526.474448729981
 21
-16133.284319106035
 31
192500.0
  0
LINE
  5
116
330
17
100
AcDbEntity
  8
RIBS
100
AcDbLine
 10
20038.807669494523
 20
-8096.203832942474
 30
187000.0
 11
20646.938059578733
 21
-6708.5968424579605
 31
192500.0
  0
LINE
  5
117
330
17
100
AcDbEntity
  8
RIBS
100
AcDbLine
 10
21402.218419803936
 20
3007.885641202141
 30
187000.0
 11
21235.071291187945
 21
4513.653740472708
 31
192500.0
  0
LINE
  5
118
330
17
100
AcDbEntity
  8
RIBS
100
AcDbLine
 10
17030.92202829239
 20
13306.014586861456
 30
187000.0
 11
16133.284319106035
 21
14526.474448729981
 31
192500.0
  0
LINE
  5
119
330
17
100
AcDbEntity
  8
BEAMS
100
AcDbLine
 10
24000.0
 20
24000.0
 30
0.0
 11
-24000.0
 21
24000.0
 31
0.0
  0
LINE
  5
11A
330
17
100
AcDbEntity
  8
BEAMS
100
AcDbLine
 10
-24000.0
 20
24000.0
 30
0.0
 11
-24000.0
 21
-24000.0
 31
0.0
  0
LINE
  5
11B
330
17
100
AcDbEntity
  8
BEAMS
100
AcDbLine
 10
-24000.0
 20
-24000.0
 30
0.0
 11
24000.0
 21
-24000.0
 31
0.0
  0
LINE
  5
11C
330
17
100
AcDbEntity
  8
BEAMS
100
AcDbLine
 10
24000.0
 20
-24000.0
 30
0.0
 11
24000.0
 21
24000.0
 31
0.0
  0
LINE
  5
11D
330
17
100
AcDbEntity
  8
BEAMS
100
AcDbLine
 10
19467.829808286664
 20
27802.942336299322
 30
27500.0
 11
-27802.942336299322
 21
19467.829808286664
 31
27500.0
  0
LINE
  5
11E
330
17
100
AcDbEntity
  8
BEAMS
100
AcDbLine
 10
-27802.942336299322
 20
19467.829808286664
 30
27500.0
 11
-19467.829808286664
 21
-27802.942336299322
 31
27500.0
  0
LINE
  5
11F
330
17
100
AcDbEntity
  8
BEAMS
100
AcDbLine
 10
-19467.829808286664
 20
-27802.942336299322
 30
27500.0
 11
27802.942336299322
 21
-19467.829808286664
 31
27500.0
  0
LINE
  5
120
330
17
100
AcDbEntity
  8
BEAMS
100
AcDbLine
 10
27802.942336299322
 20
-19467.829808286664
 30
27500.0
 11
19467.829808286664
 21
27802.942336299322
 31
27500.0
  0
LINE
  5
121
330
17
100
AcDbEntity
  8
BEAMS
100
AcDbLine
 10
14344.139459045753
 20
30761.10633867785
 30
55000.0
 11
-30761.10633867785
 21
14344.139459045753
 31
55000.0
  0
LINE
  5
122
330
17
100
AcDbEntity
  8
BEAMS
100
AcDbLine
 10
-30761.10633867785
 20
14344.139459045753
 30
55000.0
 11
-14344.139459045753
 21
-30761.10633867785
 31
55000.0
  0
LINE
  5
123
330
17
100
AcDbEntity
  8
BEAMS
100
AcDbLine
 10
-14344.139459045753
 20
-30761.10633867785
 30
55000.0
 11
30761.10633867785
 21
-14344.139459045753
 31
55000.0
  0
LINE
  5
124
330
17
100
AcDbEntity
  8
BEAMS
100
AcDbLine
 10
30761.10633867785
 20
-14344.139459045753
 30
55000.0
 11
14344.139459045753
 21
30761.10633867785
 31
55000.0
  0
LINE
  5
125
330
17
100
AcDbEntity
  8
BEAMS
100
AcDbLine
 10
8784.60969082653
 20
32784.609690826524
 30
82500.0
 11
-32784.609690826524
 21
8784.60969082653
 31
82500.0
  0
LINE
  5
126
330
17
100
AcDbEntity
  8
BEAMS
100
AcDbLine
 10
-32784.609690826524
 20
8784.60969082653
 30
82500.0
 11
-8784.60969082653
 21
-32784.609690826524
 31
82500.0
  0
LINE
  5
127
330
17
100
AcDbEntity
  8
BEAMS
100
AcDbLine
 10
-8784.60969082653
 20
-32784.609690826524
 30
82500.0
 11
32784.609690826524
 21
-8784.60969082653
 31
82500.0
  0
LINE
  5
128
330
17
100
AcDbEntity
  8
BEAMS
100
AcDbLine
 10
32784.609690826524
 20
-8784.60969082653
 30
82500.0
 11
8784.60969082653
 21
32784.609690826524
 31
82500.0
  0
LINE
  5
129
330
17
100
AcDbEntity
  8
BEAMS
100
AcDbLine
 10
2958.164002378531
 20
33811.96926733242
 30
110000.0
 11
-33811.96926733242
 21
2958.164002378531
 31
110000.0
  0
LINE
  5
12A
330
17
100
AcDbEntity
  8
BEAMS
100
AcDbLine
 10
-33811.96926733242
 20
2958.164002378531
 30
110000.0
 11
-2958.164002378531
 21
-33811.96926733242
 31
110000.0
  0
LINE
  5
12B
330
17
100
AcDbEntity
  8
BEAMS
100
AcDbLine
 10
-2958.164002378531
 20
-33811.96926733242
 30
110000.0
 11
33811.96926733242
 21
-2958.164002378531
 31
110000.0
  0
LINE
  5
12C
330
17
100
AcDbEntity
  8
BEAMS
100
AcDbLine
 10
33811.96926733242
 20
-2958.164002378531
 30
110000.0
 11
2958.164002378531
 21
33811.96926733242
 31
110000.0
  0
LINE
  5
12D
330
17
100
AcDbEntity
  8
BEAMS
100
AcDbLine
 10
-2958.1640023785294
 20
33811.96926733242
 30
137500.0
 11
-33811.96926733242
 21
-2958.1640023785294
 31
137500.0
  0
LINE
  5
12E
330
17
100
AcDbEntity
  8
BEAMS
100
AcDbLine
 10
-33811.96926733242
 20
-2958.1640023785294
 30
137500.0
 11
2958.1640023785294
 21
-33811.96926733242
 31
137500.0
  0
LINE
  5
12F
330
17
100
AcDbEntity
  8
BEAMS
100
AcDbLine
 10
2958.1640023785294
 20
-33811.96926733242
 30
137500.0
 11
33811.96926733242
 21
2958.1640023785294
 31
137500.0
  0
LINE
  5
130
330
17
100
AcDbEntity
  8
BEAMS
100
AcDbLine
 10
33811.96926733242
 20
2958.1640023785294
 30
137500.0
 11
-2958.1640023785294
 21
33811.96926733242
 31
137500.0
  0
LINE
  5
131
330
17
100
AcDbEntity
  8
BEAMS
100
AcDbLine
 10
-8784.609690826526
 20
32784.60969082653
 30
165000.0
 11
-32784.60969082653
 21
-8784.609690826526
 31
165000.0
  0
LINE
  5
132
330
17
100
AcDbEntity
  8
BEAMS
100
AcDbLine
 10
-32784.60969082653
 20
-8784.609690826526
 30
165000.0
 11
8784.609690826526
 21
-32784.60969082653
 31
165000.0
  0
LINE
  5
133
330
17
100
AcDbEntity
  8
BEAMS
100
AcDbLine
 10
8784.609690826526
 20
-32784.60969082653
 30
165000.0
 11
32784.60969082653
 21
8784.609690826526
 31
165000.0
  0
LINE
  5
134
330
17
100
AcDbEntity
  8
BEAMS
100
AcDbLine
 10
32784.60969082653
 20
8784.609690826526
 30
165000.0
 11
-8784.609690826526
 21
32784.60969082653
 31
165000.0
  0
LINE
  5
135
330
17
100
AcDbEntity
  8
BRACING
100
AcDbLine
 10
-23520.0
 20
23520.0
 30
0.0
 11
23520.0
 21
23520.0
 31
27500.0
  0
LINE
  5
136
330
17
100
AcDbEntity
  8
BRACING
100
AcDbLine
 10
23520.0
 20
23520.0
 30
0.0
 11
-23520.0
 21
23520.0
 31
27500.0
  0
LINE
  5
137
330
17
100
AcDbEntity
  8
BRACING
100
AcDbLine
 10
-23520.0
 20
-23520.0
 30
0.0
 11
23520.0
 21
-23520.0
 31
27500.0
  0
LINE
  5
138
330
17
100
AcDbEntity
  8
BRACING
100
AcDbLine
 10
23520.0
 20
-23520.0
 30
0.0
 11
-23520.0
 21
-23520.0
 31
27500.0
  0
LINE
  5
139
330
17
100
AcDbEntity
  8
BRACING
100
AcDbLine
 10
-23520.0
 20
23520.0
 30
27500.0
 11
23520.0
 21
23520.0
 31
55000.0
  0
LINE
  5
13A
330
17
100
AcDbEntity
  8
BRACING
100
AcDbLine
 10
23520.0
 20
23520.0
 30
27500.0
 11
-23520.0
 21
23520.0
 31
55000.0
  0
LINE
  5
13B
330
17
100
AcDbEntity
  8
BRACING
100
AcDbLine
 10
-23520.0
 20
-23520.0
 30
27500.0
 11
23520.0
 21
-23520.0
 31
55000.0
  0
LINE
  5
13C
330
17
100
AcDbEntity
  8
BRACING
100
AcDbLine
 10
23520.0
 20
-23520.0
 30
27500.0
 11
-23520.0
 21
-23520.0
 31
55000.0
  0
LINE
  5
13D
330
17
100
AcDbEntity
  8
BRACING
100
AcDbLine
 10
-23520.0
 20
23520.0
 30
55000.0
 11
23520.0
 21
23520.0
 31
82500.0
  0
LINE
  5
13E
330
17
100
AcDbEntity
  8
BRACING
100
AcDbLine
 10
23520.0
 20
23520.0
 30
55000.0
 11
-23520.0
 21
23520.0
 31
82500.0
  0
LINE
  5
13F
330
17
100
AcDbEntity
  8
BRACING
100
AcDbLine
 10
-23520.0
 20
-23520.0
 30
55000.0
 11
23520.0
 21
-23520.0
 31
82500.0
  0
LINE
  5
140
330
17
100
AcDbEntity
  8
BRACING
100
AcDbLine
 10
23520.0
 20
-23520.0
 30
55000.0
 11
-23520.0
 21
-23520.0
 31
82500.0
  0
LINE
  5
141
330
17
100
AcDbEntity
  8
BRACING
100
AcDbLine
 10
-23520.0
 20
23520.0
 30
82500.0
 11
23520.0
 21
23520.0
 31
110000.0
  0
LINE
  5
142
330
17
100
AcDbEntity
  8
BRACING
100
AcDbLine
 10
23520.0
 20
23520.0
 30
82500.0
 11
-23520.0
 21
23520.0
 31
110000.0
  0
LINE
  5
143
330
17
100
AcDbEntity
  8
BRACING
100
AcDbLine
 10
-23520.0
 20
-23520.0
 30
82500.0
 11
23520.0
 21
-23520.0
 31
110000.0
  0
LINE
  5
144
330
17
100
AcDbEntity
  8
BRACING
100
AcDbLine
 10
23520.0
 20
-23520.0
 30
82500.0
 11
-23520.0
 21
-23520.0
 31
110000.0
  0
LINE
  5
145
330
17
100
AcDbEntity
  8
BRACING
100
AcDbLine
 10
-23520.0
 20
23520.0
 30
110000.0
 11
23520.0
 21
23520.0
 31
137500.0
  0
LINE
  5
146
330
17
100
AcDbEntity
  8
BRACING
100
AcDbLine
 10
23520.0
 20
23520.0
 30
110000.0
 11
-23520.0
 21
23520.0
 31
137500.0
  0
LINE
  5
147
330
17
100
AcDbEntity
  8
BRACING
100
AcDbLine
 10
-23520.0
 20
-23520.0
 30
110000.0
 11
23520.0
 21
-23520.0
 31
137500.0
  0
LINE
  5
148
330
17
100
AcDbEntity
  8
BRACING
100
AcDbLine
 10
23520.0
 20
-23520.0
 30
110000.0
 11
-23520.0
 21
-23520.0
 31
137500.0
  0
LINE
  5
149
330
17
100
AcDbEntity
  8
BRACING
100
AcDbLine
 10
-23520.0
 20
23520.0
 30
137500.0
 11
23520.0
 21
23520.0
 31
165000.0
  0
LINE
  5
14A
330
17
100
AcDbEntity
  8
BRACING
100
AcDbLine
 10
23520.0
 20
23520.0
 30
137500.0
 11
-23520.0
 21
23520.0
 31
165000.0
  0
LINE
  5
14B
330
17
100
AcDbEntity
  8
BRACING
100
AcDbLine
 10
-23520.0
 20
-23520.0
 30
137500.0
 11
23520.0
 21
-23520.0
 31
165000.0
  0
LINE
  5
14C
330
17
100
AcDbEntity
  8
BRACING
100
AcDbLine
 10
23520.0
 20
-23520.0
 30
137500.0
 11
-23520.0
 21
-23520.0
 31
165000.0
  0
LINE
  5
14D
330
17
100
AcDbEntity
  8
BEAMS
100
AcDbLine
 10
35000.0
 20
0.0
 30
0.0
 11
34866.8144332111
 21
3050.450996168036
 31
222.2222222222222
  0
LINE
  5
14E
330
17
100
AcDbEntity
  8
BEAMS
100
AcDbLine
 10
34866.8144332111
 20
3050.450996168036
 30
222.2222222222222
 11
34468.27135542728
 21
6077.686218342562
 31
444.4444444444444
  0
LINE
  5
14F
330
17
100
AcDbEntity
  8
BEAMS
100
AcDbLine
 10
34468.27135542728
 20
6077.686218342562
 30
444.4444444444444
 11
33807.40392011739
 21
9058.666578588225
 31
666.6666666666666
  0
LINE
  5
150
330
17
100
AcDbEntity
  8
BEAMS
100
AcDbLine
 10
33807.40392011739
 20
9058.666578588225
 30
666.6666666666666
 11
32889.24172750679
 21
11970.705016398406
 31
888.8888888888888
  0
LINE
  5
151
330
17
100
AcDbEntity
  8
BEAMS
100
AcDbLine
 10
32889.24172750679
 20
11970.705016398406
 30
888.8888888888888
 11
31720.772546282747
 21
14791.63916092448
 31
1111.111111111111
  0
LINE
  5
152
330
17
100
AcDbEntity
  8
BEAMS
100
AcDbLine
 10
31720.772546282747
 20
14791.63916092448
 30
1111.111111111111
 11
30310.889132455355
 21
17499.999999999996
 31
1333.3333333333333
  0
LINE
  5
153
330
17
100
AcDbEntity
  8
BEAMS
100
AcDbLine
 10
30310.889132455355
 20
17499.999999999996
 30
1333.3333333333333
 11
28670.321550114713
 21
20075.17527228661
 31
1555.5555555555557
  0
LINE
  5
154
330
17
100
AcDbEntity
  8
BEAMS
100
AcDbLine
 10
28670.321550114713
 20
20075.17527228661
 30
1555.5555555555557
 11
26811.55550916423
 21
22497.566339028876
 31
1777.7777777777776
  0
LINE
  5
155
330
17
100
AcDbEntity
  8
BEAMS
100
AcDbLine
 10
26811.55550916423
 20
22497.566339028876
 30
1777.7777777777776
 11
24748.737341529166
 21
24748.737341529162
 31
2000.0
  0
LINE
  5
156
330
17
100
AcDbEntity
  8
BEAMS
100
AcDbLine
 10
24748.737341529166
 20
24748.737341529162
 30
2000.0
 11
22497.56633902888
 21
26811.55550916423
 31
2222.222222222222
  0
LINE
  5
157
330
17
100
AcDbEntity
  8
BEAMS
100
AcDbLine
 10
22497.56633902888
 20
26811.55550916423
 30
2222.222222222222
 11
20075.17527228661
 21
28670.321550114713
 31
2444.444444444445
  0
LINE
  5
158
330
17
100
AcDbEntity
  8
BEAMS
100
AcDbLine
 10
20075.17527228661
 20
28670.321550114713
 30
2444.444444444445
 11
17500.000000000004
 21
30310.88913245535
 31
2666.6666666666665
  0
LINE
  5
159
330
17
100
AcDbEntity
  8
BEAMS
100
AcDbLine
 10
17500.000000000004
 20
30310.88913245535
 30
2666.6666666666665
 11
14791.63916092448
 21
31720.772546282747
 31
2888.8888888888887
  0
LINE
  5
15A
330
17
100
AcDbEntity
  8
BEAMS
100
AcDbLine
 10
14791.63916092448
 20
31720.772546282747
 30
2888.8888888888887
 11
11970.70501639841
 21
32889.24172750679
 31
3111.1111111111113
  0
LINE
  5
15B
330
17
100
AcDbEntity
  8
BEAMS
100
AcDbLine
 10
11970.70501639841
 20
32889.24172750679
 30
3111.1111111111113
 11
9058.666578588225
 21
33807.40392011739
 31
3333.3333333333335
  0
LINE
  5
15C
330
17
100
AcDbEntity
  8
BEAMS
100
AcDbLine
 10
9058.666578588225
 20
33807.40392011739
 30
3333.3333333333335
 11
6077.686218342565
 21
34468.27135542728
 31
3555.555555555555
  0
LINE
  5
15D
330
17
100
AcDbEntity
  8
BEAMS
100
AcDbLine
 10
6077.686218342565
 20
34468.27135542728
 30
3555.555555555555
 11
3050.450996168043
 21
34866.8144332111
 31
3777.777777777778
  0
LINE
  5
15E
330
17
100
AcDbEntity
  8
BEAMS
100
AcDbLine
 10
3050.450996168043
 20
34866.8144332111
 30
3777.777777777778
 11
2.1431318985078682e-12
 21
35000.0
 31
4000.0
  0
LINE
  5
15F
330
17
100
AcDbEntity
  8
BEAMS
100
AcDbLine
 10
2.1431318985078682e-12
 20
35000.0
 30
4000.0
 11
-3050.4509961680383
 21
34866.8144332111
 31
4222.222222222223
  0
LINE
  5
160
330
17
100
AcDbEntity
  8
BEAMS
100
AcDbLine
 10
-3050.4509961680383
 20
34866.8144332111
 30
4222.222222222223
 11
-6077.686218342561
 21
34468.27135542728
 31
4444.444444444444
  0
LINE
  5
161
330
17
100
AcDbEntity
  8
BEAMS
100
AcDbLine
 10
-6077.686218342561
 20
34468.27135542728
 30
4444.444444444444
 11
-9058.66657858823
 21
33807.40392011739
 31
4666.666666666667
  0
LINE
  5
162
330
17
100
AcDbEntity
  8
BEAMS
100
AcDbLine
 10
-9058.66657858823
 20
33807.40392011739
 30
4666.666666666667
 11
-11970.705016398406
 21
32889.24172750679
 31
4888.88888888889
  0
LINE
  5
163
330
17
100
AcDbEntity
  8
BEAMS
100
AcDbLine
 10
-11970.705016398406
 20
32889.24172750679
 30
4888.88888888889
 11
-14791.639160924477
 21
31720.77254628275
 31
5111.11111111111
  0
LINE
  5
164
330
17
100
AcDbEntity
  8
BEAMS
100
AcDbLine
 10
-14791.639160924477
 20
31720.77254628275
 30
5111.11111111111
 11
-17499.999999999993
 21
30310.889132455355
 31
5333.333333333333
  0
LINE
  5
165
330
17
100
AcDbEntity
  8
BEAMS
100
AcDbLine
 10
-17499.999999999993
 20
30310.889132455355
 30
5333.333333333333
 11
-20075.175272286604
 21
28670.32155011472
 31
5555.555555555556
  0
LINE
  5
166
330
17
100
AcDbEntity
  8
BEAMS
100
AcDbLine
 10
-20075.175272286604
 20
28670.32155011472
 30
5555.555555555556
 11
-22497.56633902888
 21
26811.55550916423
 31
5777.777777777777
  0
LINE
  5
167
330
17
100
AcDbEntity
  8
BEAMS
100
AcDbLine
 10
-22497.56633902888
 20
26811.55550916423
 30
5777.777777777777
 11
-24748.737341529162
 21
24748.737341529166
 31
6000.0
  0
LINE
  5
168
330
17
100
AcDbEntity
  8
BEAMS
100
AcDbLine
 10
-24748.737341529162
 20
24748.737341529166
 30
6000.0
 11
-26811.555509164227
 21
22497.566339028883
 31
6222.222222222223
  0
LINE
  5
169
330
17
100
AcDbEntity
  8
BEAMS
100
AcDbLine
 10
-26811.555509164227
 20
22497.566339028883
 30
6222.222222222223
 11
-28670.321550114717
 21
20075.175272286608
 31
6444.444444444444
  0
LINE
  5
16A
330
17
100
AcDbEntity
  8
BEAMS
100
AcDbLine
 10
-28670.321550114717
 20
20075.175272286608
 30
6444.444444444444
 11
-30310.889132455355
 21
17499.999999999996
 31
6666.666666666667
  0
LINE
  5
16B
330
17
100
AcDbEntity
  8
BEAMS
100
AcDbLine
 10
-30310.889132455355
 20
17499.999999999996
 30
6666.666666666667
 11
-31720.772546282747
 21
14791.639160924482
 31
6888.88888888889
  0
LINE
  5
16C
330
17
100
AcDbEntity
  8
BEAMS
100
AcDbLine
 10
-31720.772546282747
 20
14791.639160924482
 30
6888.88888888889
 11
-32889.24172750679
 21
11970.705016398411
 31
7111.11111111111
  0
LINE
  5
16D
330
17
100
AcDbEntity
  8
BEAMS
100
AcDbLine
 10
-32889.24172750679
 20
11970.705016398411
 30
7111.11111111111
 11
-33807.40392011739
 21
9058.666578588236
 31
7333.333333333333
  0
LINE
  5
16E
330
17
100
AcDbEntity
  8
BEAMS
100
AcDbLine
 10
-33807.40392011739
 20
9058.666578588236
 30
7333.333333333333
 11
-34468.27135542728
 21
6077.686218342576
 31
7555.555555555556
  0
LINE
  5
16F
330
17
100
AcDbEntity
  8
BEAMS
100
AcDbLine
 10
-34468.27135542728
 20
6077.686218342576
 30
7555.555555555556
 11
-34866.8144332111
 21
3050.450996168037
 31
7777.777777777777
  0
LINE
  5
170
330
17
100
AcDbEntity
  8
BEAMS
100
AcDbLine
 10
-34866.8144332111
 20
3050.450996168037
 30
7777.777777777777
 11
-35000.0
 21
4.2862637970157364e-12
 31
8000.0
  0
LINE
  5
171
330
17
100
AcDbEntity
  8
BEAMS
100
AcDbLine
 10
35000.0
 20
0.0
 30
8000.0
 11
34866.8144332111
 21
3050.450996168036
 31
8222.222222222223
  0
LINE
  5
172
330
17
100
AcDbEntity
  8
BEAMS
100
AcDbLine
 10
34866.8144332111
 20
3050.450996168036
 30
8222.222222222223
 11
34468.27135542728
 21
6077.686218342562
 31
8444.444444444445
  0
LINE
  5
173
330
17
100
AcDbEntity
  8
BEAMS
100
AcDbLine
 10
34468.27135542728
 20
6077.686218342562
 30
8444.444444444445
 11
33807.40392011739
 21
9058.666578588225
 31
8666.666666666666
  0
LINE
  5
174
330
17
100
AcDbEntity
  8
BEAMS
100
AcDbLine
 10
33807.40392011739
 20
9058.666578588225
 30
8666.666666666666
 11
32889.24172750679
 21
11970.705016398406
 31
8888.888888888889
  0
LINE
  5
175
330
17
100
AcDbEntity
  8
BEAMS
100
AcDbLine
 10
32889.24172750679
 20
11970.705016398406
 30
8888.888888888889
 11
31720.772546282747
 21
14791.63916092448
 31
9111.111111111111
  0
LINE
  5
176
330
17
100
AcDbEntity
  8
BEAMS
100
AcDbLine
 10
31720.772546282747
 20
14791.63916092448
 30
9111.111111111111
 11
30310.889132455355
 21
17499.999999999996
 31
9333.333333333334
  0
LINE
  5
177
330
17
100
AcDbEntity
  8
BEAMS
100
AcDbLine
 10
30310.889132455355
 20
17499.999999999996
 30
9333.333333333334
 11
28670.321550114713
 21
20075.17527228661
 31
9555.555555555555
  0
LINE
  5
178
330
17
100
AcDbEntity
  8
BEAMS
100
AcDbLine
 10
28670.321550114713
 20
20075.17527228661
 30
9555.555555555555
 11
26811.55550916423
 21
22497.566339028876
 31
9777.777777777777
  0
LINE
  5
179
330
17
100
AcDbEntity
  8
BEAMS
100
AcDbLine
 10
26811.55550916423
 20
22497.566339028876
 30
9777.777777777777
 11
24748.737341529166
 21
24748.737341529162
 31
10000.0
  0
LINE
  5
17A
330
17
100
AcDbEntity
  8
BEAMS
100
AcDbLine
 10
24748.737341529166
 20
24748.737341529162
 30
10000.0
 11
22497.56633902888
 21
26811.55550916423
 31
10222.222222222223
  0
LINE
  5
17B
330
17
100
AcDbEntity
  8
BEAMS
100
AcDbLine
 10
22497.56633902888
 20
26811.55550916423
 30
10222.222222222223
 11
20075.17527228661
 21
28670.321550114713
 31
10444.444444444445
  0
LINE
  5
17C
330
17
100
AcDbEntity
  8
BEAMS
100
AcDbLine
 10
20075.17527228661
 20
28670.321550114713
 30
10444.444444444445
 11
17500.000000000004
 21
30310.88913245535
 31
10666.666666666666
  0
LINE
  5
17D
330
17
100
AcDbEntity
  8
BEAMS
100
AcDbLine
 10
17500.000000000004
 20
30310.88913245535
 30
10666.666666666666
 11
14791.63916092448
 21
31720.772546282747
 31
10888.888888888889
  0
LINE
  5
17E
330
17
100
AcDbEntity
  8
BEAMS
100
AcDbLine
 10
14791.63916092448
 20
31720.772546282747
 30
10888.888888888889
 11
11970.70501639841
 21
32889.24172750679
 31
11111.111111111111
  0
LINE
  5
17F
330
17
100
AcDbEntity
  8
BEAMS
100
AcDbLine
 10
11970.70501639841
 20
32889.24172750679
 30
11111.111111111111
 11
9058.666578588225
 21
33807.40392011739
 31
11333.333333333334
  0
LINE
  5
180
330
17
100
AcDbEntity
  8
BEAMS
100
AcDbLine
 10
9058.666578588225
 20
33807.40392011739
 30
11333.333333333334
 11
6077.686218342565
 21
34468.27135542728
 31
11555.555555555555
  0
LINE
  5
181
330
17
100
AcDbEntity
  8
BEAMS
100
AcDbLine
 10
6077.686218342565
 20
34468.27135542728
 30
11555.555555555555
 11
3050.450996168043
 21
34866.8144332111
 31
11777.777777777777
  0
LINE
  5
182
330
17
100
AcDbEntity
  8
BEAMS
100
AcDbLine
 10
3050.450996168043
 20
34866.8144332111
 30
11777.777777777777
 11
2.1431318985078682e-12
 21
35000.0
 31
12000.0
  0
LINE
  5
183
330
17
100
AcDbEntity
  8
BEAMS
100
AcDbLine
 10
2.1431318985078682e-12
 20
35000.0
 30
12000.0
 11
-3050.4509961680383
 21
34866.8144332111
 31
12222.222222222223
  0
LINE
  5
184
330
17
100
AcDbEntity
  8
BEAMS
100
AcDbLine
 10
-3050.4509961680383
 20
34866.8144332111
 30
12222.222222222223
 11
-6077.686218342561
 21
34468.27135542728
 31
12444.444444444445
  0
LINE
  5
185
330
17
100
AcDbEntity
  8
BEAMS
100
AcDbLine
 10
-6077.686218342561
 20
34468.27135542728
 30
12444.444444444445
 11
-9058.66657858823
 21
33807.40392011739
 31
12666.666666666668
  0
LINE
  5
186
330
17
100
AcDbEntity
  8
BEAMS
100
AcDbLine
 10
-9058.66657858823
 20
33807.40392011739
 30
12666.666666666668
 11
-11970.705016398406
 21
32889.24172750679
 31
12888.88888888889
  0
LINE
  5
187
330
17
100
AcDbEntity
  8
BEAMS
100
AcDbLine
 10
-11970.705016398406
 20
32889.24172750679
 30
12888.88888888889
 11
-14791.639160924477
 21
31720.77254628275
 31
13111.11111111111
  0
LINE
  5
188
330
17
100
AcDbEntity
  8
BEAMS
100
AcDbLine
 10
-14791.639160924477
 20
31720.77254628275
 30
13111.11111111111
 11
-17499.999999999993
 21
30310.889132455355
 31
13333.333333333332
  0
LINE
  5
189
330
17
100
AcDbEntity
  8
BEAMS
100
AcDbLine
 10
-17499.999999999993
 20
30310.889132455355
 30
13333.333333333332
 11
-20075.175272286604
 21
28670.32155011472
 31
13555.555555555555
  0
LINE
  5
18A
330
17
100
AcDbEntity
  8
BEAMS
100
AcDbLine
 10
-20075.175272286604
 20
28670.32155011472
 30
13555.555555555555
 11
-22497.56633902888
 21
26811.55550916423
 31
13777.777777777777
  0
LINE
  5
18B
330
17
100
AcDbEntity
  8
BEAMS
100
AcDbLine
 10
-22497.56633902888
 20
26811.55550916423
 30
13777.777777777777
 11
-24748.737341529162
 21
24748.737341529166
 31
14000.0
  0
LINE
  5
18C
330
17
100
AcDbEntity
  8
BEAMS
100
AcDbLine
 10
-24748.737341529162
 20
24748.737341529166
 30
14000.0
 11
-26811.555509164227
 21
22497.566339028883
 31
14222.222222222223
  0
LINE
  5
18D
330
17
100
AcDbEntity
  8
BEAMS
100
AcDbLine
 10
-26811.555509164227
 20
22497.566339028883
 30
14222.222222222223
 11
-28670.321550114717
 21
20075.175272286608
 31
14444.444444444445
  0
LINE
  5
18E
330
17
100
AcDbEntity
  8
BEAMS
100
AcDbLine
 10
-28670.321550114717
 20
20075.175272286608
 30
14444.444444444445
 11
-30310.889132455355
 21
17499.999999999996
 31
14666.666666666668
  0
LINE
  5
18F
330
17
100
AcDbEntity
  8
BEAMS
100
AcDbLine
 10
-30310.889132455355
 20
17499.999999999996
 30
14666.666666666668
 11
-31720.772546282747
 21
14791.639160924482
 31
14888.88888888889
  0
LINE
  5
190
330
17
100
AcDbEntity
  8
BEAMS
100
AcDbLine
 10
-31720.772546282747
 20
14791.639160924482
 30
14888.88888888889
 11
-32889.24172750679
 21
11970.705016398411
 31
15111.11111111111
  0
LINE
  5
191
330
17
100
AcDbEntity
  8
BEAMS
100
AcDbLine
 10
-32889.24172750679
 20
11970.705016398411
 30
15111.11111111111
 11
-33807.40392011739
 21
9058.666578588236
 31
15333.333333333332
  0
LINE
  5
192
330
17
100
AcDbEntity
  8
BEAMS
100
AcDbLine
 10
-33807.40392011739
 20
9058.666578588236
 30
15333.333333333332
 11
-34468.27135542728
 21
6077.686218342576
 31
15555.555555555555
  0
LINE
  5
193
330
17
100
AcDbEntity
  8
BEAMS
100
AcDbLine
 10
-34468.27135542728
 20
6077.686218342576
 30
15555.555555555555
 11
-34866.8144332111
 21
3050.450996168037
 31
15777.777777777777
  0
LINE
  5
194
330
17
100
AcDbEntity
  8
BEAMS
100
AcDbLine
 10
-34866.8144332111
 20
3050.450996168037
 30
15777.777777777777
 11
-35000.0
 21
4.2862637970157364e-12
 31
16000.0
  0
LINE
  5
195
330
17
100
AcDbEntity
  8
GRIDS
100
AcDbLine
 10
-120000.0
 20
-120000.0
 30
0.0
 11
-120000.0
 21
120000.0
 31
0.0
  0
LINE
  5
196
330
17
100
AcDbEntity
  8
GRIDS
100
AcDbLine
 10
-100000.0
 20
-120000.0
 30
0.0
 11
-100000.0
 21
120000.0
 31
0.0
  0
LINE
  5
197
330
17
100
AcDbEntity
  8
GRIDS
100
AcDbLine
 10
-80000.0
 20
-120000.0
 30
0.0
 11
-80000.0
 21
120000.0
 31
0.0
  0
LINE
  5
198
330
17
100
AcDbEntity
  8
GRIDS
100
AcDbLine
 10
-60000.0
 20
-120000.0
 30
0.0
 11
-60000.0
 21
120000.0
 31
0.0
  0
LINE
  5
199
330
17
100
AcDbEntity
  8
GRIDS
100
AcDbLine
 10
-40000.0
 20
-120000.0
 30
0.0
 11
-40000.0
 21
120000.0
 31
0.0
  0
LINE
  5
19A
330
17
100
AcDbEntity
  8
GRIDS
100
AcDbLine
 10
-20000.0
 20
-120000.0
 30
0.0
 11
-20000.0
 21
120000.0
 31
0.0
  0
LINE
  5
19B
330
17
100
AcDbEntity
  8
GRIDS
100
AcDbLine
 10
0.0
 20
-120000.0
 30
0.0
 11
0.0
 21
120000.0
 31
0.0
  0
LINE
  5
19C
330
17
100
AcDbEntity
  8
GRIDS
100
AcDbLine
 10
20000.0
 20
-120000.0
 30
0.0
 11
20000.0
 21
120000.0
 31
0.0
  0
LINE
  5
19D
330
17
100
AcDbEntity
  8
GRIDS
100
AcDbLine
 10
40000.0
 20
-120000.0
 30
0.0
 11
40000.0
 21
120000.0
 31
0.0
  0
LINE
  5
19E
330
17
100
AcDbEntity
  8
GRIDS
100
AcDbLine
 10
60000.0
 20
-120000.0
 30
0.0
 11
60000.0
 21
120000.0
 31
0.0
  0
LINE
  5
19F
330
17
100
AcDbEntity
  8
GRIDS
100
AcDbLine
 10
80000.0
 20
-120000.0
 30
0.0
 11
80000.0
 21
120000.0
 31
0.0
  0
LINE
  5
1A0
330
17
100
AcDbEntity
  8
GRIDS
100
AcDbLine
 10
100000.0
 20
-120000.0
 30
0.0
 11
100000.0
 21
120000.0
 31
0.0
  0
LINE
  5
1A1
330
17
100
AcDbEntity
  8
GRIDS
100
AcDbLine
 10
120000.0
 20
-120000.0
 30
0.0
 11
120000.0
 21
120000.0
 31
0.0
  0
LINE
  5
1A2
330
17
100
AcDbEntity
  8
GRIDS
100
AcDbLine
 10
-120000.0
 20
-120000.0
 30
0.0
 11
120000.0
 21
-120000.0
 31
0.0
  0
LINE
  5
1A3
330
17
100
AcDbEntity
  8
GRIDS
100
AcDbLine
 10
-120000.0
 20
-100000.0
 30
0.0
 11
120000.0
 21
-100000.0
 31
0.0
  0
LINE
  5
1A4
330
17
100
AcDbEntity
  8
GRIDS
100
AcDbLine
 10
-120000.0
 20
-80000.0
 30
0.0
 11
120000.0
 21
-80000.0
 31
0.0
  0
LINE
  5
1A5
330
17
100
AcDbEntity
  8
GRIDS
100
AcDbLine
 10
-120000.0
 20
-60000.0
 30
0.0
 11
120000.0
 21
-60000.0
 31
0.0
  0
LINE
  5
1A6
330
17
100
AcDbEntity
  8
GRIDS
100
AcDbLine
 10
-120000.0
 20
-40000.0
 30
0.0
 11
120000.0
 21
-40000.0
 31
0.0
  0
LINE
  5
1A7
330
17
100
AcDbEntity
  8
GRIDS
100
AcDbLine
 10
-120000.0
 20
-20000.0
 30
0.0
 11
120000.0
 21
-20000.0
 31
0.0
  0
LINE
  5
1A8
330
17
100
AcDbEntity
  8
GRIDS
100
AcDbLine
 10
-120000.0
 20
0.0
 30
0.0
 11
120000.0
 21
0.0
 31
0.0
  0
LINE
  5
1A9
330
17
100
AcDbEntity
  8
GRIDS
100
AcDbLine
 10
-120000.0
 20
20000.0
 30
0.0
 11
120000.0
 21
20000.0
 31
0.0
  0
LINE
  5
1AA
330
17
100
AcDbEntity
  8
GRIDS
100
AcDbLine
 10
-120000.0
 20
40000.0
 30
0.0
 11
120000.0
 21
40000.0
 31
0.0
  0
LINE
  5
1AB
330
17
100
AcDbEntity
  8
GRIDS
100
AcDbLine
 10
-120000.0
 20
60000.0
 30
0.0
 11
120000.0
 21
60000.0
 31
0.0
  0
LINE
  5
1AC
330
17
100
AcDbEntity
  8
GRIDS
100
AcDbLine
 10
-120000.0
 20
80000.0
 30
0.0
 11
120000.0
 21
80000.0
 31
0.0
  0
LINE
  5
1AD
330
17
100
AcDbEntity
  8
GRIDS
100
AcDbLine
 10
-120000.0
 20
100000.0
 30
0.0
 11
120000.0
 21
100000.0
 31
0.0
  0
LINE
  5
1AE
330
17
100
AcDbEntity
  8
GRIDS
100
AcDbLine
 10
-120000.0
 20
120000.0
 30
0.0
 11
120000.0
 21
120000.0
 31
0.0
  0
CIRCLE
  5
1AF
330
17
100
AcDbEntity
  8
MARKERS
 62
2
100
AcDbCircle
 10
24000.0
 20
0.0
 30
0.0
 40
600.0
  0
CIRCLE
  5
1B0
330
17
100
AcDbEntity
  8
MARKERS
 62
2
100
AcDbCircle
 10
24000.0
 20
0.0
 30
192500.0
 40
600.0
  0
CIRCLE
  5
1B1
330
17
100
AcDbEntity
  8
MARKERS
 62
2
100
AcDbCircle
 10
16970.562748477143
 20
16970.56274847714
 30
0.0
 40
600.0
  0
CIRCLE
  5
1B2
330
17
100
AcDbEntity
  8
MARKERS
 62
2
100
AcDbCircle
 10
16970.562748477143
 20
16970.56274847714
 30
192500.0
 40
600.0
  0
CIRCLE
  5
1B3
330
17
100
AcDbEntity
  8
MARKERS
 62
2
100
AcDbCircle
 10
1.4695761589768238e-12
 20
24000.0
 30
0.0
 40
600.0
  0
CIRCLE
  5
1B4
330
17
100
AcDbEntity
  8
MARKERS
 62
2
100
AcDbCircle
 10
1.4695761589768238e-12
 20
24000.0
 30
192500.0
 40
600.0
  0
CIRCLE
  5
1B5
330
17
100
AcDbEntity
  8
MARKERS
 62
2
100
AcDbCircle
 10
-16970.56274847714
 20
16970.562748477143
 30
0.0
 40
600.0
  0
CIRCLE
  5
1B6
330
17
100
AcDbEntity
  8
MARKERS
 62
2
100
AcDbCircle
 10
-16970.56274847714
 20
16970.562748477143
 30
192500.0
 40
600.0
  0
CIRCLE
  5
1B7
330
17
100
AcDbEntity
  8
MARKERS
 62
2
100
AcDbCircle
 10
-24000.0
 20
2.9391523179536476e-12
 30
0.0
 40
600.0
  0
CIRCLE
  5
1B8
330
17
100
AcDbEntity
  8
MARKERS
 62
2
100
AcDbCircle
 10
-24000.0
 20
2.9391523179536476e-12
 30
192500.0
 40
600.0
  0
CIRCLE
  5
1B9
330
17
100
AcDbEntity
  8
MARKERS
 62
2
100
AcDbCircle
 10
-16970.562748477143
 20
-16970.56274847714
 30
0.0
 40
600.0
  0
CIRCLE
  5
1BA
330
17
100
AcDbEntity
  8
MARKERS
 62
2
100
AcDbCircle
 10
-16970.562748477143
 20
-16970.56274847714
 30
192500.0
 40
600.0
  0
CIRCLE
  5
1BB
330
17
100
AcDbEntity
  8
MARKERS
 62
2
100
AcDbCircle
 10
-4.408728476930471e-12
 20
-24000.0
 30
0.0
 40
600.0
  0
CIRCLE
  5
1BC
330
17
100
AcDbEntity
  8
MARKERS
 62
2
100
AcDbCircle
 10
-4.408728476930471e-12
 20
-24000.0
 30
192500.0
 40
600.0
  0
CIRCLE
  5
1BD
330
17
100
AcDbEntity
  8
MARKERS
 62
2
100
AcDbCircle
 10
16970.562748477136
 20
-16970.562748477143
 30
0.0
 40
600.0
  0
CIRCLE
  5
1BE
330
17
100
AcDbEntity
  8
MARKERS
 62
2
100
AcDbCircle
 10
16970.562748477136
 20
-16970.562748477143
 30
192500.0
 40
600.0
  0
CIRCLE
  5
1BF
330
17
100
AcDbEntity
  8
MARKERS
 62
2
100
AcDbCircle
 10
12000.0
 20
12000.0
 30
0.0
 40
600.0
  0
CIRCLE
  5
1C0
330
17
100
AcDbEntity
  8
MARKERS
 62
2
100
AcDbCircle
 10
12000.0
 20
12000.0
 30
192500.0
 40
600.0
  0
CIRCLE
  5
1C1
330
17
100
AcDbEntity
  8
MARKERS
 62
2
100
AcDbCircle
 10
-12000.0
 20
12000.0
 30
0.0
 40
600.0
  0
CIRCLE
  5
1C2
330
17
100
AcDbEntity
  8
MARKERS
 62
2
100
AcDbCircle
 10
-12000.0
 20
12000.0
 30
192500.0
 40
600.0
  0
CIRCLE
  5
1C3
330
17
100
AcDbEntity
  8
MARKERS
 62
2
100
AcDbCircle
 10
-12000.0
 20
-12000.0
 30
0.0
 40
600.0
  0
CIRCLE
  5
1C4
330
17
100
AcDbEntity
  8
MARKERS
 62
2
100
AcDbCircle
 10
-12000.0
 20
-12000.0
 30
192500.0
 40
600.0
  0
CIRCLE
  5
1C5
330
17
100
AcDbEntity
  8
MARKERS
 62
2
100
AcDbCircle
 10
12000.0
 20
-12000.0
 30
0.0
 40
600.0
  0
CIRCLE
  5
1C6
330
17
100
AcDbEntity
  8
MARKERS
 62
2
100
AcDbCircle
 10
12000.0
 20
-12000.0
 30
192500.0
 40
600.0
  0
ENDSEC
  0
SECTION
  2
OBJECTS
  0
DICTIONARY
  5
A
330
0
100
AcDbDictionary
281
1
  3
ACAD_COLOR
350
B
  3
ACAD_GROUP
350
C
  3
ACAD_LAYOUT
350
D
  3
ACAD_MATERIAL
350
E
  3
ACAD_MLEADERSTYLE
350
F
  3
ACAD_MLINESTYLE
350
10
  3
ACAD_PLOTSETTINGS
350
11
  3
ACAD_PLOTSTYLENAME
350
12
  3
ACAD_SCALELIST
350
14
  3
ACAD_TABLESTYLE
350
15
  3
ACAD_VISUALSTYLE
350
16
  3
EZDXF_META
350
2D
  0
DICTIONARY
  5
B
330
A
100
AcDbDictionary
281
1
  0
DICTIONARY
  5
C
330
A
100
AcDbDictionary
281
1
  0
DICTIONARY
  5
D
330
A
100
AcDbDictionary
281
1
  3
Model
350
1A
  3
Layout1
350
1E
  0
DICTIONARY
  5
E
330
A
100
AcDbDictionary
281
1
  3
ByBlock
350
1F
  3
ByLayer
350
20
  3
Global
350
21
  0
DICTIONARY
  5
F
330
A
100
AcDbDictionary
281
1
  3
Standard
350
2C
  0
DICTIONARY
  5
10
330
A
100
AcDbDictionary
281
1
  3
Standard
350
22
  0
DICTIONARY
  5
11
330
A
100
AcDbDictionary
281
1
  0
ACDBDICTIONARYWDFLT
  5
12
330
A
100
AcDbDictionary
281
1
  3
Normal
350
13
100
AcDbDictionaryWithDefault
340
13
  0
ACDBPLACEHOLDER
  5
13
330
12
  0
DICTIONARY
  5
14
330
A
100
AcDbDictionary
281
1
  0
DICTIONARY
  5
15
330
A
100
AcDbDictionary
281
1
  0
DICTIONARY
  5
16
330
A
100
AcDbDictionary
281
1
  0
LAYOUT
  5
1A
330
D
100
AcDbPlotSettings
  1

  4
A3
  6

 40
7.5
 41
20.0
 42
7.5
 43
20.0
 44
420.0
 45
297.0
 46
0.0
 47
0.0
 48
0.0
 49
0.0
140
0.0
141
0.0
142
1.0
143
1.0
 70
1024
 72
1
 73
0
 74
5
  7

 75
16
 76
0
 77
2
 78
300
147
1.0
148
0.0
149
0.0
100
AcDbLayout
  1
Model
 70
1
 71
0
 10
0.0
 20
0.0
 11
420.0
 21
297.0
 12
0.0
 22
0.0
 32
0.0
 14
1e+20
 24
1e+20
 34
1e+20
 15
-1e+20
 25
-1e+20
 35
-1e+20
146
0.0
 13
0.0
 23
0.0
 33
0.0
 16
1.0
 26
0.0
 36
0.0
 17
0.0
 27
1.0
 37
0.0
 76
1
330
17
  0
LAYOUT
  5
1E
330
D
100
AcDbPlotSettings
  1

  4
A3
  6

 40
7.5
 41
20.0
 42
7.5
 43
20.0
 44
420.0
 45
297.0
 46
0.0
 47
0.0
 48
0.0
 49
0.0
140
0.0
141
0.0
142
1.0
143
1.0
 70
0
 72
1
 73
0
 74
5
  7

 75
16
 76
0
 77
2
 78
300
147
1.0
148
0.0
149
0.0
100
AcDbLayout
  1
Layout1
 70
1
 71
1
 10
0.0
 20
0.0
 11
420.0
 21
297.0
 12
0.0
 22
0.0
 32
0.0
 14
1e+20
 24
1e+20
 34
1e+20
 15
-1e+20
 25
-1e+20
 35
-1e+20
146
0.0
 13
0.0
 23
0.0
 33
0.0
 16
1.0
 26
0.0
 36
0.0
 17
0.0
 27
1.0
 37
0.0
 76
1
330
1B
  0
MATERIAL
  5
1F
102
{ACAD_REACTORS
330
E
102
}
330
E
100
AcDbMaterial
  1
ByBlock
  2

 70
0
 40
1.0
 71
1
 41
1.0
 91
-1023410177
 42
1.0
 72
1
  3

 73
1
 74
1
 75
1
 44
0.5
 73
0
 45
1.0
 46
1.0
 77
1
  4

 78
1
 79
1
170
1
 48
1.0
171
1
  6

172
1
173
1
174
1
140
1.0
141
1.0
175
1
  7

176
1
177
1
178
1
143
1.0
179
1
  8

270
1
271
1
272
1
145
1.0
146
1.0
273
1
  9

274
1
275
1
276
1
 42
1.0
 72
1
  3

 73
1
 74
1
 75
1
 94
63
  0
MATERIAL
  5
20
102
{ACAD_REACTORS
330
E
102
}
330
E
100
AcDbMaterial
  1
ByLayer
  2

 70
0
 40
1.0
 71
1
 41
1.0
 91
-1023410177
 42
1.0
 72
1
  3

 73
1
 74
1
 75
1
 44
0.5
 73
0
 45
1.0
 46
1.0
 77
1
  4

 78
1
 79
1
170
1
 48
1.0
171
1
  6

172
1
173
1
174
1
140
1.0
141
1.0
175
1
  7

176
1
177
1
178
1
143
1.0
179
1
  8

270
1
271
1
272
1
145
1.0
146
1.0
273
1
  9

274
1
275
1
276
1
 42
1.0
 72
1
  3

 73
1
 74
1
 75
1
 94
63
  0
MATERIAL
  5
21
102
{ACAD_REACTORS
330
E
102
}
330
E
100
AcDbMaterial
  1
Global
  2

 70
0
 40
1.0
 71
1
 41
1.0
 91
-1023410177
 42
1.0
 72
1
  3

 73
1
 74
1
 75
1
 44
0.5
 73
0
 45
1.0
 46
1.0
 77
1
  4

 78
1
 79
1
170
1
 48
1.0
171
1
  6

172
1
173
1
174
1
140
1.0
141
1.0
175
1
  7

176
1
177
1
178
1
143
1.0
179
1
  8

270
1
271
1
272
1
145
1.0
146
1.0
273
1
  9

274
1
275
1
276
1
 42
1.0
 72
1
  3

 73
1
 74
1
 75
1
 94
63
  0
MLINESTYLE
  5
22
102
{ACAD_REACTORS
330
10
102
}
330
10
100
AcDbMlineStyle
  2
Standard
 70
0
  3

 62
256
 51
90.0
 52
90.0
 71
2
 49
0.5
 62
256
  6
BYLAYER
 49
-0.5
 62
256
  6
BYLAYER
  0
MLEADERSTYLE
  5
2C
102
{ACAD_REACTORS
330
F
102
}
330
F
100
AcDbMLeaderStyle
179
2
170
2
171
1
172
0
 90
2
 40
0.0
 41
0.0
173
1
 91
-1056964608
 92
-2
290
1
 42
2.0
291
1
 43
8.0
  3
Standard
 44
4.0
300

342
29
174
1
175
1
176
0
178
1
 93
-1056964608
 45
4.0
292
0
297
0
 46
4.0
 94
-1056964608
 47
1.0
 49
1.0
140
1.0
294
1
141
0.0
177
0
142
1.0
295
0
296
0
143
3.75
271
0
272
9
273
9
  0
DICTIONARY
  5
2D
330
A
100
AcDbDictionary
280
1
281
1
  3
CREATED_BY_EZDXF
350
2E
  3
WRITTEN_BY_EZDXF
350
1C9
  0
DICTIONARYVAR
  5
2E
330
2D
100
DictionaryVariables
280
0
  1
1.4.3 @ 2025-12-16T19:05:27.483375+00:00
  0
DICTIONARYVAR
  5
1C9
330
2D
100
DictionaryVariables
280
0
  1
1.4.3 @ 2025-12-16T19:05:27.491321+00:00
  0
ENDSEC
  0
EOF
