  0
SECTION
  2
HEADER
  9
$ACADVER
  1
AC1015
  9
$ACADMAINTVER
 70
6
  9
$DWGCODEPAGE
  3
ANSI_1252
  9
$INSBASE
 10
0.0
 20
0.0
 30
0.0
  9
$EXTMIN
 10
1e+20
 20
1e+20
 30
1e+20
  9
$EXTMAX
 10
-1e+20
 20
-1e+20
 30
-1e+20
  9
$LIMMIN
 10
0.0
 20
0.0
  9
$LIMMAX
 10
420.0
 20
297.0
  9
$ORTHOMODE
 70
0
  9
$REGENMODE
 70
1
  9
$FILLMODE
 70
1
  9
$QTEXTMODE
 70
0
  9
$MIRRTEXT
 70
1
  9
$LTSCALE
 40
1.0
  9
$ATTMODE
 70
1
  9
$TEXTSIZE
 40
2.5
  9
$TRACEWID
 40
1.0
  9
$TEXTSTYLE
  7
Standard
  9
$CLAYER
  8
0
  9
$CELTYPE
  6
ByLayer
  9
$CECOLOR
 62
256
  9
$CELTSCALE
 40
1.0
  9
$DISPSILH
 70
0
  9
$DIMSCALE
 40
1.0
  9
$DIMASZ
 40
2.5
  9
$DIMEXO
 40
0.625
  9
$DIMDLI
 40
3.75
  9
$DIMRND
 40
0.0
  9
$DIMDLE
 40
0.0
  9
$DIMEXE
 40
1.25
  9
$DIMTP
 40
0.0
  9
$DIMTM
 40
0.0
  9
$DIMTXT
 40
2.5
  9
$DIMCEN
 40
2.5
  9
$DIMTSZ
 40
0.0
  9
$DIMTOL
 70
0
  9
$DIMLIM
 70
0
  9
$DIMTIH
 70
0
  9
$DIMTOH
 70
0
  9
$DIMSE1
 70
0
  9
$DIMSE2
 70
0
  9
$DIMTAD
 70
1
  9
$DIMZIN
 70
8
  9
$DIMBLK
  1

  9
$DIMASO
 70
1
  9
$DIMSHO
 70
1
  9
$DIMPOST
  1

  9
$DIMAPOST
  1

  9
$DIMALT
 70
0
  9
$DIMALTD
 70
3
  9
$DIMALTF
 40
0.03937007874
  9
$DIMLFAC
 40
1.0
  9
$DIMTOFL
 70
1
  9
$DIMTVP
 40
0.0
  9
$DIMTIX
 70
0
  9
$DIMSOXD
 70
0
  9
$DIMSAH
 70
0
  9
$DIMBLK1
  1

  9
$DIMBLK2
  1

  9
$DIMSTYLE
  2
ISO-25
  9
$DIMCLRD
 70
0
  9
$DIMCLRE
 70
0
  9
$DIMCLRT
 70
0
  9
$DIMTFAC
 40
1.0
  9
$DIMGAP
 40
0.625
  9
$DIMJUST
 70
0
  9
$DIMSD1
 70
0
  9
$DIMSD2
 70
0
  9
$DIMTOLJ
 70
0
  9
$DIMTZIN
 70
8
  9
$DIMALTZ
 70
0
  9
$DIMALTTZ
 70
0
  9
$DIMUPT
 70
0
  9
$DIMDEC
 70
2
  9
$DIMTDEC
 70
2
  9
$DIMALTU
 70
2
  9
$DIMALTTD
 70
3
  9
$DIMTXSTY
  7
Standard
  9
$DIMAUNIT
 70
0
  9
$DIMADEC
 70
0
  9
$DIMALTRND
 40
0.0
  9
$DIMAZIN
 70
0
  9
$DIMDSEP
 70
44
  9
$DIMATFIT
 70
3
  9
$DIMFRAC
 70
0
  9
$DIMLDRBLK
  1

  9
$DIMLUNIT
 70
2
  9
$DIMLWD
 70
-2
  9
$DIMLWE
 70
-2
  9
$DIMTMOVE
 70
0
  9
$LUNITS
 70
2
  9
$LUPREC
 70
4
  9
$SKETCHINC
 40
1.0
  9
$FILLETRAD
 40
10.0
  9
$AUNITS
 70
0
  9
$AUPREC
 70
2
  9
$MENU
  1
.
  9
$ELEVATION
 40
0.0
  9
$PELEVATION
 40
0.0
  9
$THICKNESS
 40
0.0
  9
$LIMCHECK
 70
0
  9
$CHAMFERA
 40
0.0
  9
$CHAMFERB
 40
0.0
  9
$CHAMFERC
 40
0.0
  9
$CHAMFERD
 40
0.0
  9
$SKPOLY
 70
0
  9
$TDCREATE
 40
2461026.9872800927
  9
$TDUCREATE
 40
2458532.153996898
  9
$TDUPDATE
 40
2461026.9872800927
  9
$TDUUPDATE
 40
2458532.1544311
  9
$TDINDWG
 40
0.0
  9
$TDUSRTIMER
 40
0.0
  9
$USRTIMER
 70
1
  9
$ANGBASE
 50
0.0
  9
$ANGDIR
 70
0
  9
$PDMODE
 70
0
  9
$PDSIZE
 40
0.0
  9
$PLINEWID
 40
0.0
  9
$SPLFRAME
 70
0
  9
$SPLINETYPE
 70
6
  9
$SPLINESEGS
 70
8
  9
$HANDSEED
  5
120
  9
$SURFTAB1
 70
6
  9
$SURFTAB2
 70
6
  9
$SURFTYPE
 70
6
  9
$SURFU
 70
6
  9
$SURFV
 70
6
  9
$UCSBASE
  2

  9
$UCSNAME
  2

  9
$UCSORG
 10
0.0
 20
0.0
 30
0.0
  9
$UCSXDIR
 10
1.0
 20
0.0
 30
0.0
  9
$UCSYDIR
 10
0.0
 20
1.0
 30
0.0
  9
$UCSORTHOREF
  2

  9
$UCSORTHOVIEW
 70
0
  9
$UCSORGTOP
 10
0.0
 20
0.0
 30
0.0
  9
$UCSORGBOTTOM
 10
0.0
 20
0.0
 30
0.0
  9
$UCSORGLEFT
 10
0.0
 20
0.0
 30
0.0
  9
$UCSORGRIGHT
 10
0.0
 20
0.0
 30
0.0
  9
$UCSORGFRONT
 10
0.0
 20
0.0
 30
0.0
  9
$UCSORGBACK
 10
0.0
 20
0.0
 30
0.0
  9
$PUCSBASE
  2

  9
$PUCSNAME
  2

  9
$PUCSORG
 10
0.0
 20
0.0
 30
0.0
  9
$PUCSXDIR
 10
1.0
 20
0.0
 30
0.0
  9
$PUCSYDIR
 10
0.0
 20
1.0
 30
0.0
  9
$PUCSORTHOREF
  2

  9
$PUCSORTHOVIEW
 70
0
  9
$PUCSORGTOP
 10
0.0
 20
0.0
 30
0.0
  9
$PUCSORGBOTTOM
 10
0.0
 20
0.0
 30
0.0
  9
$PUCSORGLEFT
 10
0.0
 20
0.0
 30
0.0
  9
$PUCSORGRIGHT
 10
0.0
 20
0.0
 30
0.0
  9
$PUCSORGFRONT
 10
0.0
 20
0.0
 30
0.0
  9
$PUCSORGBACK
 10
0.0
 20
0.0
 30
0.0
  9
$USERI1
 70
0
  9
$USERI2
 70
0
  9
$USERI3
 70
0
  9
$USERI4
 70
0
  9
$USERI5
 70
0
  9
$USERR1
 40
0.0
  9
$USERR2
 40
0.0
  9
$USERR3
 40
0.0
  9
$USERR4
 40
0.0
  9
$USERR5
 40
0.0
  9
$WORLDVIEW
 70
1
  9
$SHADEDGE
 70
3
  9
$SHADEDIF
 70
70
  9
$TILEMODE
 70
1
  9
$MAXACTVP
 70
64
  9
$PINSBASE
 10
0.0
 20
0.0
 30
0.0
  9
$PLIMCHECK
 70
0
  9
$PEXTMIN
 10
1e+20
 20
1e+20
 30
1e+20
  9
$PEXTMAX
 10
-1e+20
 20
-1e+20
 30
-1e+20
  9
$PLIMMIN
 10
0.0
 20
0.0
  9
$PLIMMAX
 10
420.0
 20
297.0
  9
$UNITMODE
 70
0
  9
$VISRETAIN
 70
1
  9
$PLINEGEN
 70
0
  9
$PSLTSCALE
 70
1
  9
$TREEDEPTH
 70
3020
  9
$CMLSTYLE
  2
Standard
  9
$CMLJUST
 70
0
  9
$CMLSCALE
 40
20.0
  9
$PROXYGRAPHICS
 70
1
  9
$MEASUREMENT
 70
1
  9
$CELWEIGHT
370
-1
  9
$ENDCAPS
280
0
  9
$JOINSTYLE
280
0
  9
$LWDISPLAY
290
0
  9
$INSUNITS
 70
6
  9
$HYPERLINKBASE
  1

  9
$STYLESHEET
  1

  9
$XEDIT
290
1
  9
$CEPSNTYPE
380
0
  9
$PSTYLEMODE
290
1
  9
$FINGERPRINTGUID
  2
{56388F39-FC1B-4E2E-8545-C950E13C1C4F}
  9
$VERSIONGUID
  2
{844D5B8A-4835-487B-B5B0-80A1F039A619}
  9
$EXTNAMES
290
1
  9
$PSVPSCALE
 40
0.0
  9
$OLESTARTUP
290
0
  0
ENDSEC
  0
SECTION
  2
CLASSES
  0
CLASS
  1
ACDBDICTIONARYWDFLT
  2
AcDbDictionaryWithDefault
  3
ObjectDBX Classes
 90
0
280
0
281
0
  0
CLASS
  1
SUN
  2
AcDbSun
  3
SCENEOE
 90
1153
280
0
281
0
  0
CLASS
  1
VISUALSTYLE
  2
AcDbVisualStyle
  3
ObjectDBX Classes
 90
4095
280
0
281
0
  0
CLASS
  1
MATERIAL
  2
AcDbMaterial
  3
ObjectDBX Classes
 90
1153
280
0
281
0
  0
CLASS
  1
SCALE
  2
AcDbScale
  3
ObjectDBX Classes
 90
1153
280
0
281
0
  0
CLASS
  1
TABLESTYLE
  2
AcDbTableStyle
  3
ObjectDBX Classes
 90
4095
280
0
281
0
  0
CLASS
  1
MLEADERSTYLE
  2
AcDbMLeaderStyle
  3
ACDB_MLEADERSTYLE_CLASS
 90
4095
280
0
281
0
  0
CLASS
  1
DICTIONARYVAR
  2
AcDbDictionaryVar
  3
ObjectDBX Classes
 90
0
280
0
281
0
  0
CLASS
  1
CELLSTYLEMAP
  2
AcDbCellStyleMap
  3
ObjectDBX Classes
 90
1152
280
0
281
0
  0
CLASS
  1
MENTALRAYRENDERSETTINGS
  2
AcDbMentalRayRenderSettings
  3
SCENEOE
 90
1024
280
0
281
0
  0
CLASS
  1
ACDBDETAILVIEWSTYLE
  2
AcDbDetailViewStyle
  3
ObjectDBX Classes
 90
1025
280
0
281
0
  0
CLASS
  1
ACDBSECTIONVIEWSTYLE
  2
AcDbSectionViewStyle
  3
ObjectDBX Classes
 90
1025
280
0
281
0
  0
CLASS
  1
RASTERVARIABLES
  2
AcDbRasterVariables
  3
ISM
 90
0
280
0
281
0
  0
CLASS
  1
ACDBPLACEHOLDER
  2
AcDbPlaceHolder
  3
ObjectDBX Classes
 90
0
280
0
281
0
  0
CLASS
  1
LAYOUT
  2
AcDbLayout
  3
ObjectDBX Classes
 90
0
280
0
281
0
  0
ENDSEC
  0
SECTION
  2
TABLES
  0
TABLE
  2
VPORT
  5
8
330
0
100
AcDbSymbolTable
 70
1
  0
VPORT
  5
23
330
8
100
AcDbSymbolTableRecord
100
AcDbViewportTableRecord
  2
*Active
 70
0
 10
0.0
 20
0.0
 11
1.0
 21
1.0
 12
0.0
 22
0.0
 13
0.0
 23
0.0
 14
0.5
 24
0.5
 15
0.5
 25
0.5
 16
0.0
 26
0.0
 36
1.0
 17
0.0
 27
0.0
 37
0.0
 40
1000.0
 41
1.34
 42
50.0
 43
0.0
 44
0.0
 50
0.0
 51
0.0
 71
0
 72
1000
 73
1
 74
3
 75
0
 76
0
 77
0
 78
0
281
0
 65
0
146
0.0
  0
ENDTAB
  0
TABLE
  2
LTYPE
  5
2
330
0
100
AcDbSymbolTable
 70
3
  0
LTYPE
  5
24
330
2
100
AcDbSymbolTableRecord
100
AcDbLinetypeTableRecord
  2
ByBlock
 70
0
  3

 72
65
 73
0
 40
0.0
  0
LTYPE
  5
25
330
2
100
AcDbSymbolTableRecord
100
AcDbLinetypeTableRecord
  2
ByLayer
 70
0
  3

 72
65
 73
0
 40
0.0
  0
LTYPE
  5
26
330
2
100
AcDbSymbolTableRecord
100
AcDbLinetypeTableRecord
  2
Continuous
 70
0
  3

 72
65
 73
0
 40
0.0
  0
ENDTAB
  0
TABLE
  2
LAYER
  5
1
330
0
100
AcDbSymbolTable
 70
2
  0
LAYER
  5
27
330
1
100
AcDbSymbolTableRecord
100
AcDbLayerTableRecord
  2
0
 70
0
 62
7
  6
Continuous
370
-3
390
13
  0
LAYER
  5
28
330
1
100
AcDbSymbolTableRecord
100
AcDbLayerTableRecord
  2
Defpoints
 70
0
 62
7
  6
Continuous
290
0
370
-3
390
13
  0
ENDTAB
  0
TABLE
  2
STYLE
  5
5
330
0
100
AcDbSymbolTable
 70
1
  0
STYLE
  5
29
330
5
100
AcDbSymbolTableRecord
100
AcDbTextStyleTableRecord
  2
Standard
 70
0
 40
0.0
 41
1.0
 50
0.0
 71
0
 42
2.5
  3
txt
  4

  0
ENDTAB
  0
TABLE
  2
VIEW
  5
7
330
0
100
AcDbSymbolTable
 70
0
  0
ENDTAB
  0
TABLE
  2
UCS
  5
6
330
0
100
AcDbSymbolTable
 70
0
  0
ENDTAB
  0
TABLE
  2
APPID
  5
3
330
0
100
AcDbSymbolTable
 70
3
  0
APPID
  5
2A
330
3
100
AcDbSymbolTableRecord
100
AcDbRegAppTableRecord
  2
ACAD
 70
0
  0
APPID
  5
11D
330
3
100
AcDbSymbolTableRecord
100
AcDbRegAppTableRecord
  2
HATCHBACKGROUNDCOLOR
 70
0
  0
APPID
  5
11E
330
3
100
AcDbSymbolTableRecord
100
AcDbRegAppTableRecord
  2
EZDXF
 70
0
  0
ENDTAB
  0
TABLE
  2
DIMSTYLE
  5
4
330
0
100
AcDbSymbolTable
 70
1
100
AcDbDimStyleTable
  0
DIMSTYLE
105
2B
330
4
100
AcDbSymbolTableRecord
100
AcDbDimStyleTableRecord
  2
Standard
 70
0
  3

  4

 40
1.0
 41
2.5
 42
0.625
 43
3.75
 44
1.25
 45
0.0
 46
0.0
 47
0.0
 48
0.0
140
2.5
141
2.5
142
0.0
143
0.03937007874
144
1.0
145
0.0
146
1.0
147
0.625
148
0.0
 71
0
 72
0
 73
0
 74
0
 75
0
 76
0
 77
1
 78
8
 79
3
170
0
171
3
172
1
173
0
174
0
175
0
176
0
177
0
178
0
179
2
271
2
272
2
273
2
274
3
275
0
276
0
277
2
278
44
279
0
280
0
281
0
282
0
283
0
284
8
285
0
286
0
288
0
289
3
371
-2
372
-2
  0
ENDTAB
  0
TABLE
  2
BLOCK_RECORD
  5
9
330
0
100
AcDbSymbolTable
 70
2
  0
BLOCK_RECORD
  5
17
330
9
100
AcDbSymbolTableRecord
100
AcDbBlockTableRecord
  2
*Model_Space
340
1A
  0
BLOCK_RECORD
  5
1B
330
9
100
AcDbSymbolTableRecord
100
AcDbBlockTableRecord
  2
*Paper_Space
340
1E
  0
ENDTAB
  0
ENDSEC
  0
SECTION
  2
BLOCKS
  0
BLOCK
  5
18
330
17
100
AcDbEntity
  8
0
100
AcDbBlockBegin
  2
*Model_Space
 70
0
 10
0.0
 20
0.0
 30
0.0
  3
*Model_Space
  1

  0
ENDBLK
  5
19
330
17
100
AcDbEntity
  8
0
100
AcDbBlockEnd
  0
BLOCK
  5
1C
330
1B
100
AcDbEntity
  8
0
100
AcDbBlockBegin
  2
*Paper_Space
 70
0
 10
0.0
 20
0.0
 30
0.0
  3
*Paper_Space
  1

  0
ENDBLK
  5
1D
330
1B
100
AcDbEntity
  8
0
100
AcDbBlockEnd
  0
ENDSEC
  0
SECTION
  2
ENTITIES
  0
LINE
  5
2F
330
17
100
AcDbEntity
  8
0
100
AcDbLine
 10
0.0
 20
0.0
 30
0.0
 11
10000.0
 21
0.0
 31
150.0
  0
LINE
  5
30
330
17
100
AcDbEntity
  8
0
100
AcDbLine
 10
10000.0
 20
0.0
 30
150.0
 11
20000.0
 21
0.0
 31
300.0
  0
LINE
  5
31
330
17
100
AcDbEntity
  8
0
100
AcDbLine
 10
20000.0
 20
0.0
 30
300.0
 11
30000.0
 21
0.0
 31
449.99999999999994
  0
LINE
  5
32
330
17
100
AcDbEntity
  8
0
100
AcDbLine
 10
30000.0
 20
0.0
 30
449.99999999999994
 11
40000.0
 21
0.0
 31
600.0
  0
LINE
  5
33
330
17
100
AcDbEntity
  8
0
100
AcDbLine
 10
40000.0
 20
0.0
 30
600.0
 11
50000.0
 21
0.0
 31
750.0
  0
LINE
  5
34
330
17
100
AcDbEntity
  8
0
100
AcDbLine
 10
50000.0
 20
0.0
 30
750.0
 11
60000.0
 21
0.0
 31
800.0
  0
LINE
  5
35
330
17
100
AcDbEntity
  8
0
100
AcDbLine
 10
60000.0
 20
0.0
 30
800.0
 11
70000.0
 21
0.0
 31
850.0
  0
LINE
  5
36
330
17
100
AcDbEntity
  8
0
100
AcDbLine
 10
70000.0
 20
0.0
 30
850.0
 11
101167.97812147191
 21
685.2326227130834
 31
900.0
  0
LINE
  5
37
330
17
100
AcDbEntity
  8
0
100
AcDbLine
 10
101167.97812147191
 20
685.2326227130834
 30
900.0
 11
153217.23252011545
 21
6155.829702431103
 31
950.0
  0
LINE
  5
38
330
17
100
AcDbEntity
  8
0
100
AcDbLine
 10
153217.23252011545
 20
6155.829702431103
 30
950.0
 11
204409.52255126036
 21
17037.086855465837
 31
1000.0
  0
LINE
  5
39
330
17
100
AcDbEntity
  8
0
100
AcDbLine
 10
204409.52255126036
 20
17037.086855465837
 30
1000.0
 11
254183.97477265005
 21
33209.78675139905
 31
1049.9999999999998
  0
LINE
  5
3A
330
17
100
AcDbEntity
  8
0
100
AcDbLine
 10
254183.97477265005
 20
33209.78675139905
 30
1049.9999999999998
 11
301995.2498697734
 21
54496.73790581606
 31
1100.0
  0
LINE
  5
3B
330
17
100
AcDbEntity
  8
0
100
AcDbLine
 10
301995.2498697734
 20
54496.73790581606
 30
1100.0
 11
347319.51750751346
 21
80664.716027288
 31
1150.0
  0
LINE
  5
3C
330
17
100
AcDbEntity
  8
0
100
AcDbLine
 10
347319.51750751346
 20
80664.716027288
 30
1150.0
 11
389660.19552491873
 21
111427.01927151461
 31
1200.0
  0
LINE
  5
3D
330
17
100
AcDbEntity
  8
0
100
AcDbLine
 10
389660.19552491873
 20
111427.01927151461
 30
1200.0
 11
428553.39059327374
 21
146446.6094067262
 31
1250.0
  0
LINE
  5
3E
330
17
100
AcDbEntity
  8
0
100
AcDbLine
 10
428553.39059327374
 20
146446.6094067262
 30
1250.0
 11
463572.9807284854
 21
185339.80447508127
 31
1300.0
  0
LINE
  5
3F
330
17
100
AcDbEntity
  8
0
100
AcDbLine
 10
463572.9807284854
 20
185339.80447508127
 30
1300.0
 11
494335.28397271194
 21
227680.48249248648
 31
1350.0
  0
LINE
  5
40
330
17
100
AcDbEntity
  8
0
100
AcDbLine
 10
494335.28397271194
 20
227680.48249248648
 30
1350.0
 11
520503.26209418394
 21
273004.7501302266
 31
1400.0
  0
LINE
  5
41
330
17
100
AcDbEntity
  8
0
100
AcDbLine
 10
520503.26209418394
 20
273004.7501302266
 30
1400.0
 11
541790.213248601
 21
320816.02522734995
 31
1450.0000000000002
  0
LINE
  5
42
330
17
100
AcDbEntity
  8
0
100
AcDbLine
 10
541790.213248601
 20
320816.02522734995
 30
1450.0000000000002
 11
557962.9131445342
 21
370590.47744873964
 31
1500.0
  0
LINE
  5
43
330
17
100
AcDbEntity
  8
0
100
AcDbLine
 10
557962.9131445342
 20
370590.47744873964
 30
1500.0
 11
568844.1702975689
 21
421782.76747988455
 31
1550.0
  0
LINE
  5
44
330
17
100
AcDbEntity
  8
0
100
AcDbLine
 10
568844.1702975689
 20
421782.76747988455
 30
1550.0
 11
574314.7673772869
 21
473832.0218785279
 31
1599.9999999999998
  0
LINE
  5
45
330
17
100
AcDbEntity
  8
0
100
AcDbLine
 10
574314.7673772869
 20
473832.0218785279
 30
1599.9999999999998
 11
230000.00000000003
 21
500000.0
 31
1650.0000000000002
  0
LINE
  5
46
330
17
100
AcDbEntity
  8
0
100
AcDbLine
 10
230000.00000000003
 20
500000.0
 30
1650.0000000000002
 11
240000.0
 21
500000.0
 31
1700.0000000000002
  0
LINE
  5
47
330
17
100
AcDbEntity
  8
0
100
AcDbLine
 10
240000.0
 20
500000.0
 30
1700.0000000000002
 11
250000.0
 21
500000.0
 31
1750.0
  0
LINE
  5
48
330
17
100
AcDbEntity
  8
0
100
AcDbLine
 10
250000.0
 20
500000.0
 30
1750.0
 11
260000.0
 21
500000.0
 31
1550.0
  0
LINE
  5
49
330
17
100
AcDbEntity
  8
0
100
AcDbLine
 10
260000.0
 20
500000.0
 30
1550.0
 11
270000.0
 21
500000.0
 31
1350.0
  0
LINE
  5
4A
330
17
100
AcDbEntity
  8
0
100
AcDbLine
 10
270000.0
 20
500000.0
 30
1350.0
 11
280000.0
 21
500000.0
 31
1150.0
  0
LINE
  5
4B
330
17
100
AcDbEntity
  8
0
100
AcDbLine
 10
280000.0
 20
500000.0
 30
1150.0
 11
290000.0
 21
500000.0
 31
950.0
  0
LINE
  5
4C
330
17
100
AcDbEntity
  8
0
100
AcDbLine
 10
290000.0
 20
500000.0
 30
950.0
 11
300000.0
 21
500000.0
 31
750.0
  0
LINE
  5
4D
330
17
100
AcDbEntity
  8
0
100
AcDbLine
 10
500.0
 20
500.0
 30
3000.0
 11
10500.0
 21
500.0
 31
3171.8523992661944
  0
LINE
  5
4E
330
17
100
AcDbEntity
  8
0
100
AcDbLine
 10
10500.0
 20
500.0
 30
3171.8523992661944
 11
20500.0
 21
500.0
 31
3386.454542357399
  0
LINE
  5
4F
330
17
100
AcDbEntity
  8
0
100
AcDbLine
 10
20500.0
 20
500.0
 30
3386.454542357399
 11
30500.0
 21
500.0
 31
3640.9830056250526
  0
LINE
  5
50
330
17
100
AcDbEntity
  8
0
100
AcDbLine
 10
30500.0
 20
500.0
 30
3640.9830056250526
 11
40500.0
 21
500.0
 31
3930.869393641142
  0
LINE
  5
51
330
17
100
AcDbEntity
  8
0
100
AcDbLine
 10
40500.0
 20
500.0
 30
3930.869393641142
 11
50500.0
 21
500.0
 31
4250.0
  0
LINE
  5
52
330
17
100
AcDbEntity
  8
0
100
AcDbLine
 10
50500.0
 20
500.0
 30
4250.0
 11
60500.0
 21
500.0
 31
4490.983005625052
  0
LINE
  5
53
330
17
100
AcDbEntity
  8
0
100
AcDbLine
 10
60500.0
 20
500.0
 30
4490.983005625052
 11
70500.0
 21
500.0
 31
4745.471536732346
  0
LINE
  5
54
330
17
100
AcDbEntity
  8
0
100
AcDbLine
 10
70500.0
 20
500.0
 30
4745.471536732346
 11
101667.97812147191
 21
1185.2326227130834
 31
5004.528463267654
  0
LINE
  5
55
330
17
100
AcDbEntity
  8
0
100
AcDbLine
 10
101667.97812147191
 20
1185.2326227130834
 30
5004.528463267654
 11
153717.23252011545
 21
6655.829702431103
 31
5259.016994374948
  0
LINE
  5
56
330
17
100
AcDbEntity
  8
0
100
AcDbLine
 10
153717.23252011545
 20
6655.829702431103
 30
5259.016994374948
 11
204909.52255126036
 21
17537.086855465837
 31
5500.0
  0
LINE
  5
57
330
17
100
AcDbEntity
  8
0
100
AcDbLine
 10
204909.52255126036
 20
17537.086855465837
 30
5500.0
 11
254683.97477265005
 21
33709.78675139905
 31
5719.130606358857
  0
LINE
  5
58
330
17
100
AcDbEntity
  8
0
100
AcDbLine
 10
254683.97477265005
 20
33709.78675139905
 30
5719.130606358857
 11
302495.2498697734
 21
54996.73790581606
 31
5909.016994374948
  0
LINE
  5
59
330
17
100
AcDbEntity
  8
0
100
AcDbLine
 10
302495.2498697734
 20
54996.73790581606
 30
5909.016994374948
 11
347819.51750751346
 21
81164.716027288
 31
6063.545457642601
  0
LINE
  5
5A
330
17
100
AcDbEntity
  8
0
100
AcDbLine
 10
347819.51750751346
 20
81164.716027288
 30
6063.545457642601
 11
390160.19552491873
 21
111927.01927151461
 31
6178.147600733806
  0
LINE
  5
5B
330
17
100
AcDbEntity
  8
0
100
AcDbLine
 10
390160.19552491873
 20
111927.01927151461
 30
6178.147600733806
 11
429053.39059327374
 21
146946.6094067262
 31
6250.0
  0
LINE
  5
5C
330
17
100
AcDbEntity
  8
0
100
AcDbLine
 10
429053.39059327374
 20
146946.6094067262
 30
6250.0
 11
464072.9807284854
 21
185839.80447508127
 31
6278.147600733806
  0
LINE
  5
5D
330
17
100
AcDbEntity
  8
0
100
AcDbLine
 10
464072.9807284854
 20
185839.80447508127
 30
6278.147600733806
 11
494835.28397271194
 21
228180.48249248648
 31
6263.545457642601
  0
LINE
  5
5E
330
17
100
AcDbEntity
  8
0
100
AcDbLine
 10
494835.28397271194
 20
228180.48249248648
 30
6263.545457642601
 11
521003.26209418394
 21
273504.7501302266
 31
6209.016994374948
  0
LINE
  5
5F
330
17
100
AcDbEntity
  8
0
100
AcDbLine
 10
521003.26209418394
 20
273504.7501302266
 30
6209.016994374948
 11
542290.213248601
 21
321316.02522734995
 31
6119.130606358858
  0
LINE
  5
60
330
17
100
AcDbEntity
  8
0
100
AcDbLine
 10
542290.213248601
 20
321316.02522734995
 30
6119.130606358858
 11
558462.9131445342
 21
371090.47744873964
 31
6000.0
  0
LINE
  5
61
330
17
100
AcDbEntity
  8
0
100
AcDbLine
 10
558462.9131445342
 20
371090.47744873964
 30
6000.0
 11
569344.1702975689
 21
422282.76747988455
 31
5859.016994374948
  0
LINE
  5
62
330
17
100
AcDbEntity
  8
0
100
AcDbLine
 10
569344.1702975689
 20
422282.76747988455
 30
5859.016994374948
 11
574814.7673772869
 21
474332.0218785279
 31
5704.528463267654
  0
LINE
  5
63
330
17
100
AcDbEntity
  8
0
100
AcDbLine
 10
574814.7673772869
 20
474332.0218785279
 30
5704.528463267654
 11
230500.00000000003
 21
500500.0
 31
5545.471536732346
  0
LINE
  5
64
330
17
100
AcDbEntity
  8
0
100
AcDbLine
 10
230500.00000000003
 20
500500.0
 30
5545.471536732346
 11
240500.0
 21
500500.0
 31
5390.983005625053
  0
LINE
  5
65
330
17
100
AcDbEntity
  8
0
100
AcDbLine
 10
240500.0
 20
500500.0
 30
5390.983005625053
 11
250500.0
 21
500500.0
 31
5250.0
  0
LINE
  5
66
330
17
100
AcDbEntity
  8
0
100
AcDbLine
 10
250500.0
 20
500500.0
 30
5250.0
 11
260500.0
 21
500500.0
 31
4880.869393641142
  0
LINE
  5
67
330
17
100
AcDbEntity
  8
0
100
AcDbLine
 10
260500.0
 20
500500.0
 30
4880.869393641142
 11
270500.0
 21
500500.0
 31
4540.983005625052
  0
LINE
  5
68
330
17
100
AcDbEntity
  8
0
100
AcDbLine
 10
270500.0
 20
500500.0
 30
4540.983005625052
 11
280500.0
 21
500500.0
 31
4236.454542357399
  0
LINE
  5
69
330
17
100
AcDbEntity
  8
0
100
AcDbLine
 10
280500.0
 20
500500.0
 30
4236.454542357399
 11
290500.0
 21
500500.0
 31
3971.8523992661944
  0
LINE
  5
6A
330
17
100
AcDbEntity
  8
0
100
AcDbLine
 10
290500.0
 20
500500.0
 30
3971.8523992661944
 11
300500.0
 21
500500.0
 31
3750.0
  0
LINE
  5
6B
330
17
100
AcDbEntity
  8
0
100
AcDbLine
 10
0.0
 20
0.0
 30
0.0
 11
500.0
 21
500.0
 31
3000.0
  0
LINE
  5
6C
330
17
100
AcDbEntity
  8
0
100
AcDbLine
 10
0.0
 20
0.0
 30
0.0
 11
10500.0
 21
500.0
 31
3171.8523992661944
  0
LINE
  5
6D
330
17
100
AcDbEntity
  8
0
100
AcDbLine
 10
500.0
 20
500.0
 30
3000.0
 11
10000.0
 21
0.0
 31
150.0
  0
LINE
  5
6E
330
17
100
AcDbEntity
  8
0
100
AcDbLine
 10
10000.0
 20
0.0
 30
150.0
 11
10500.0
 21
500.0
 31
3171.8523992661944
  0
LINE
  5
6F
330
17
100
AcDbEntity
  8
0
100
AcDbLine
 10
10000.0
 20
0.0
 30
150.0
 11
20500.0
 21
500.0
 31
3386.454542357399
  0
LINE
  5
70
330
17
100
AcDbEntity
  8
0
100
AcDbLine
 10
10500.0
 20
500.0
 30
3171.8523992661944
 11
20000.0
 21
0.0
 31
300.0
  0
LINE
  5
71
330
17
100
AcDbEntity
  8
0
100
AcDbLine
 10
20000.0
 20
0.0
 30
300.0
 11
20500.0
 21
500.0
 31
3386.454542357399
  0
LINE
  5
72
330
17
100
AcDbEntity
  8
0
100
AcDbLine
 10
20000.0
 20
0.0
 30
300.0
 11
30500.0
 21
500.0
 31
3640.9830056250526
  0
LINE
  5
73
330
17
100
AcDbEntity
  8
0
100
AcDbLine
 10
20500.0
 20
500.0
 30
3386.454542357399
 11
30000.0
 21
0.0
 31
449.99999999999994
  0
LINE
  5
74
330
17
100
AcDbEntity
  8
0
100
AcDbLine
 10
30000.0
 20
0.0
 30
449.99999999999994
 11
30500.0
 21
500.0
 31
3640.9830056250526
  0
LINE
  5
75
330
17
100
AcDbEntity
  8
0
100
AcDbLine
 10
30000.0
 20
0.0
 30
449.99999999999994
 11
40500.0
 21
500.0
 31
3930.869393641142
  0
LINE
  5
76
330
17
100
AcDbEntity
  8
0
100
AcDbLine
 10
30500.0
 20
500.0
 30
3640.9830056250526
 11
40000.0
 21
0.0
 31
600.0
  0
LINE
  5
77
330
17
100
AcDbEntity
  8
0
100
AcDbLine
 10
40000.0
 20
0.0
 30
600.0
 11
40500.0
 21
500.0
 31
3930.869393641142
  0
LINE
  5
78
330
17
100
AcDbEntity
  8
0
100
AcDbLine
 10
40000.0
 20
0.0
 30
600.0
 11
50500.0
 21
500.0
 31
4250.0
  0
LINE
  5
79
330
17
100
AcDbEntity
  8
0
100
AcDbLine
 10
40500.0
 20
500.0
 30
3930.869393641142
 11
50000.0
 21
0.0
 31
750.0
  0
LINE
  5
7A
330
17
100
AcDbEntity
  8
0
100
AcDbLine
 10
50000.0
 20
0.0
 30
750.0
 11
50500.0
 21
500.0
 31
4250.0
  0
LINE
  5
7B
330
17
100
AcDbEntity
  8
0
100
AcDbLine
 10
50000.0
 20
0.0
 30
750.0
 11
60500.0
 21
500.0
 31
4490.983005625052
  0
LINE
  5
7C
330
17
100
AcDbEntity
  8
0
100
AcDbLine
 10
50500.0
 20
500.0
 30
4250.0
 11
60000.0
 21
0.0
 31
800.0
  0
LINE
  5
7D
330
17
100
AcDbEntity
  8
0
100
AcDbLine
 10
60000.0
 20
0.0
 30
800.0
 11
60500.0
 21
500.0
 31
4490.983005625052
  0
LINE
  5
7E
330
17
100
AcDbEntity
  8
0
100
AcDbLine
 10
60000.0
 20
0.0
 30
800.0
 11
70500.0
 21
500.0
 31
4745.471536732346
  0
LINE
  5
7F
330
17
100
AcDbEntity
  8
0
100
AcDbLine
 10
60500.0
 20
500.0
 30
4490.983005625052
 11
70000.0
 21
0.0
 31
850.0
  0
LINE
  5
80
330
17
100
AcDbEntity
  8
0
100
AcDbLine
 10
70000.0
 20
0.0
 30
850.0
 11
70500.0
 21
500.0
 31
4745.471536732346
  0
LINE
  5
81
330
17
100
AcDbEntity
  8
0
100
AcDbLine
 10
70000.0
 20
0.0
 30
850.0
 11
101667.97812147191
 21
1185.2326227130834
 31
5004.528463267654
  0
LINE
  5
82
330
17
100
AcDbEntity
  8
0
100
AcDbLine
 10
70500.0
 20
500.0
 30
4745.471536732346
 11
101167.97812147191
 21
685.2326227130834
 31
900.0
  0
LINE
  5
83
330
17
100
AcDbEntity
  8
0
100
AcDbLine
 10
101167.97812147191
 20
685.2326227130834
 30
900.0
 11
101667.97812147191
 21
1185.2326227130834
 31
5004.528463267654
  0
LINE
  5
84
330
17
100
AcDbEntity
  8
0
100
AcDbLine
 10
101167.97812147191
 20
685.2326227130834
 30
900.0
 11
153717.23252011545
 21
6655.829702431103
 31
5259.016994374948
  0
LINE
  5
85
330
17
100
AcDbEntity
  8
0
100
AcDbLine
 10
101667.97812147191
 20
1185.2326227130834
 30
5004.528463267654
 11
153217.23252011545
 21
6155.829702431103
 31
950.0
  0
LINE
  5
86
330
17
100
AcDbEntity
  8
0
100
AcDbLine
 10
153217.23252011545
 20
6155.829702431103
 30
950.0
 11
153717.23252011545
 21
6655.829702431103
 31
5259.016994374948
  0
LINE
  5
87
330
17
100
AcDbEntity
  8
0
100
AcDbLine
 10
153217.23252011545
 20
6155.829702431103
 30
950.0
 11
204909.52255126036
 21
17537.086855465837
 31
5500.0
  0
LINE
  5
88
330
17
100
AcDbEntity
  8
0
100
AcDbLine
 10
153717.23252011545
 20
6655.829702431103
 30
5259.016994374948
 11
204409.52255126036
 21
17037.086855465837
 31
1000.0
  0
LINE
  5
89
330
17
100
AcDbEntity
  8
0
100
AcDbLine
 10
204409.52255126036
 20
17037.086855465837
 30
1000.0
 11
204909.52255126036
 21
17537.086855465837
 31
5500.0
  0
LINE
  5
8A
330
17
100
AcDbEntity
  8
0
100
AcDbLine
 10
204409.52255126036
 20
17037.086855465837
 30
1000.0
 11
254683.97477265005
 21
33709.78675139905
 31
5719.130606358857
  0
LINE
  5
8B
330
17
100
AcDbEntity
  8
0
100
AcDbLine
 10
204909.52255126036
 20
17537.086855465837
 30
5500.0
 11
254183.97477265005
 21
33209.78675139905
 31
1049.9999999999998
  0
LINE
  5
8C
330
17
100
AcDbEntity
  8
0
100
AcDbLine
 10
254183.97477265005
 20
33209.78675139905
 30
1049.9999999999998
 11
254683.97477265005
 21
33709.78675139905
 31
5719.130606358857
  0
LINE
  5
8D
330
17
100
AcDbEntity
  8
0
100
AcDbLine
 10
254183.97477265005
 20
33209.78675139905
 30
1049.9999999999998
 11
302495.2498697734
 21
54996.73790581606
 31
5909.016994374948
  0
LINE
  5
8E
330
17
100
AcDbEntity
  8
0
100
AcDbLine
 10
254683.97477265005
 20
33709.78675139905
 30
5719.130606358857
 11
301995.2498697734
 21
54496.73790581606
 31
1100.0
  0
LINE
  5
8F
330
17
100
AcDbEntity
  8
0
100
AcDbLine
 10
301995.2498697734
 20
54496.73790581606
 30
1100.0
 11
302495.2498697734
 21
54996.73790581606
 31
5909.016994374948
  0
LINE
  5
90
330
17
100
AcDbEntity
  8
0
100
AcDbLine
 10
301995.2498697734
 20
54496.73790581606
 30
1100.0
 11
347819.51750751346
 21
81164.716027288
 31
6063.545457642601
  0
LINE
  5
91
330
17
100
AcDbEntity
  8
0
100
AcDbLine
 10
302495.2498697734
 20
54996.73790581606
 30
5909.016994374948
 11
347319.51750751346
 21
80664.716027288
 31
1150.0
  0
LINE
  5
92
330
17
100
AcDbEntity
  8
0
100
AcDbLine
 10
347319.51750751346
 20
80664.716027288
 30
1150.0
 11
347819.51750751346
 21
81164.716027288
 31
6063.545457642601
  0
LINE
  5
93
330
17
100
AcDbEntity
  8
0
100
AcDbLine
 10
347319.51750751346
 20
80664.716027288
 30
1150.0
 11
390160.19552491873
 21
111927.01927151461
 31
6178.147600733806
  0
LINE
  5
94
330
17
100
AcDbEntity
  8
0
100
AcDbLine
 10
347819.51750751346
 20
81164.716027288
 30
6063.545457642601
 11
389660.19552491873
 21
111427.01927151461
 31
1200.0
  0
LINE
  5
95
330
17
100
AcDbEntity
  8
0
100
AcDbLine
 10
389660.19552491873
 20
111427.01927151461
 30
1200.0
 11
390160.19552491873
 21
111927.01927151461
 31
6178.147600733806
  0
LINE
  5
96
330
17
100
AcDbEntity
  8
0
100
AcDbLine
 10
389660.19552491873
 20
111427.01927151461
 30
1200.0
 11
429053.39059327374
 21
146946.6094067262
 31
6250.0
  0
LINE
  5
97
330
17
100
AcDbEntity
  8
0
100
AcDbLine
 10
390160.19552491873
 20
111927.01927151461
 30
6178.147600733806
 11
428553.39059327374
 21
146446.6094067262
 31
1250.0
  0
LINE
  5
98
330
17
100
AcDbEntity
  8
0
100
AcDbLine
 10
428553.39059327374
 20
146446.6094067262
 30
1250.0
 11
429053.39059327374
 21
146946.6094067262
 31
6250.0
  0
LINE
  5
99
330
17
100
AcDbEntity
  8
0
100
AcDbLine
 10
428553.39059327374
 20
146446.6094067262
 30
1250.0
 11
464072.9807284854
 21
185839.80447508127
 31
6278.147600733806
  0
LINE
  5
9A
330
17
100
AcDbEntity
  8
0
100
AcDbLine
 10
429053.39059327374
 20
146946.6094067262
 30
6250.0
 11
463572.9807284854
 21
185339.80447508127
 31
1300.0
  0
LINE
  5
9B
330
17
100
AcDbEntity
  8
0
100
AcDbLine
 10
463572.9807284854
 20
185339.80447508127
 30
1300.0
 11
464072.9807284854
 21
185839.80447508127
 31
6278.147600733806
  0
LINE
  5
9C
330
17
100
AcDbEntity
  8
0
100
AcDbLine
 10
463572.9807284854
 20
185339.80447508127
 30
1300.0
 11
494835.28397271194
 21
228180.48249248648
 31
6263.545457642601
  0
LINE
  5
9D
330
17
100
AcDbEntity
  8
0
100
AcDbLine
 10
464072.9807284854
 20
185839.80447508127
 30
6278.147600733806
 11
494335.28397271194
 21
227680.48249248648
 31
1350.0
  0
LINE
  5
9E
330
17
100
AcDbEntity
  8
0
100
AcDbLine
 10
494335.28397271194
 20
227680.48249248648
 30
1350.0
 11
494835.28397271194
 21
228180.48249248648
 31
6263.545457642601
  0
LINE
  5
9F
330
17
100
AcDbEntity
  8
0
100
AcDbLine
 10
494335.28397271194
 20
227680.48249248648
 30
1350.0
 11
521003.26209418394
 21
273504.7501302266
 31
6209.016994374948
  0
LINE
  5
A0
330
17
100
AcDbEntity
  8
0
100
AcDbLine
 10
494835.28397271194
 20
228180.48249248648
 30
6263.545457642601
 11
520503.26209418394
 21
273004.7501302266
 31
1400.0
  0
LINE
  5
A1
330
17
100
AcDbEntity
  8
0
100
AcDbLine
 10
520503.26209418394
 20
273004.7501302266
 30
1400.0
 11
521003.26209418394
 21
273504.7501302266
 31
6209.016994374948
  0
LINE
  5
A2
330
17
100
AcDbEntity
  8
0
100
AcDbLine
 10
520503.26209418394
 20
273004.7501302266
 30
1400.0
 11
542290.213248601
 21
321316.02522734995
 31
6119.130606358858
  0
LINE
  5
A3
330
17
100
AcDbEntity
  8
0
100
AcDbLine
 10
521003.26209418394
 20
273504.7501302266
 30
6209.016994374948
 11
541790.213248601
 21
320816.02522734995
 31
1450.0000000000002
  0
LINE
  5
A4
330
17
100
AcDbEntity
  8
0
100
AcDbLine
 10
541790.213248601
 20
320816.02522734995
 30
1450.0000000000002
 11
542290.213248601
 21
321316.02522734995
 31
6119.130606358858
  0
LINE
  5
A5
330
17
100
AcDbEntity
  8
0
100
AcDbLine
 10
541790.213248601
 20
320816.02522734995
 30
1450.0000000000002
 11
558462.9131445342
 21
371090.47744873964
 31
6000.0
  0
LINE
  5
A6
330
17
100
AcDbEntity
  8
0
100
AcDbLine
 10
542290.213248601
 20
321316.02522734995
 30
6119.130606358858
 11
557962.9131445342
 21
370590.47744873964
 31
1500.0
  0
LINE
  5
A7
330
17
100
AcDbEntity
  8
0
100
AcDbLine
 10
557962.9131445342
 20
370590.47744873964
 30
1500.0
 11
558462.9131445342
 21
371090.47744873964
 31
6000.0
  0
LINE
  5
A8
330
17
100
AcDbEntity
  8
0
100
AcDbLine
 10
557962.9131445342
 20
370590.47744873964
 30
1500.0
 11
569344.1702975689
 21
422282.76747988455
 31
5859.016994374948
  0
LINE
  5
A9
330
17
100
AcDbEntity
  8
0
100
AcDbLine
 10
558462.9131445342
 20
371090.47744873964
 30
6000.0
 11
568844.1702975689
 21
421782.76747988455
 31
1550.0
  0
LINE
  5
AA
330
17
100
AcDbEntity
  8
0
100
AcDbLine
 10
568844.1702975689
 20
421782.76747988455
 30
1550.0
 11
569344.1702975689
 21
422282.76747988455
 31
5859.016994374948
  0
LINE
  5
AB
330
17
100
AcDbEntity
  8
0
100
AcDbLine
 10
568844.1702975689
 20
421782.76747988455
 30
1550.0
 11
574814.7673772869
 21
474332.0218785279
 31
5704.528463267654
  0
LINE
  5
AC
330
17
100
AcDbEntity
  8
0
100
AcDbLine
 10
569344.1702975689
 20
422282.76747988455
 30
5859.016994374948
 11
574314.7673772869
 21
473832.0218785279
 31
1599.9999999999998
  0
LINE
  5
AD
330
17
100
AcDbEntity
  8
0
100
AcDbLine
 10
574314.7673772869
 20
473832.0218785279
 30
1599.9999999999998
 11
574814.7673772869
 21
474332.0218785279
 31
5704.528463267654
  0
LINE
  5
AE
330
17
100
AcDbEntity
  8
0
100
AcDbLine
 10
574314.7673772869
 20
473832.0218785279
 30
1599.9999999999998
 11
230500.00000000003
 21
500500.0
 31
5545.471536732346
  0
LINE
  5
AF
330
17
100
AcDbEntity
  8
0
100
AcDbLine
 10
574814.7673772869
 20
474332.0218785279
 30
5704.528463267654
 11
230000.00000000003
 21
500000.0
 31
1650.0000000000002
  0
LINE
  5
B0
330
17
100
AcDbEntity
  8
0
100
AcDbLine
 10
230000.00000000003
 20
500000.0
 30
1650.0000000000002
 11
230500.00000000003
 21
500500.0
 31
5545.471536732346
  0
LINE
  5
B1
330
17
100
AcDbEntity
  8
0
100
AcDbLine
 10
230000.00000000003
 20
500000.0
 30
1650.0000000000002
 11
240500.0
 21
500500.0
 31
5390.983005625053
  0
LINE
  5
B2
330
17
100
AcDbEntity
  8
0
100
AcDbLine
 10
230500.00000000003
 20
500500.0
 30
5545.471536732346
 11
240000.0
 21
500000.0
 31
1700.0000000000002
  0
LINE
  5
B3
330
17
100
AcDbEntity
  8
0
100
AcDbLine
 10
240000.0
 20
500000.0
 30
1700.0000000000002
 11
240500.0
 21
500500.0
 31
5390.983005625053
  0
LINE
  5
B4
330
17
100
AcDbEntity
  8
0
100
AcDbLine
 10
240000.0
 20
500000.0
 30
1700.0000000000002
 11
250500.0
 21
500500.0
 31
5250.0
  0
LINE
  5
B5
330
17
100
AcDbEntity
  8
0
100
AcDbLine
 10
240500.0
 20
500500.0
 30
5390.983005625053
 11
250000.0
 21
500000.0
 31
1750.0
  0
LINE
  5
B6
330
17
100
AcDbEntity
  8
0
100
AcDbLine
 10
250000.0
 20
500000.0
 30
1750.0
 11
250500.0
 21
500500.0
 31
5250.0
  0
LINE
  5
B7
330
17
100
AcDbEntity
  8
0
100
AcDbLine
 10
250000.0
 20
500000.0
 30
1750.0
 11
260500.0
 21
500500.0
 31
4880.869393641142
  0
LINE
  5
B8
330
17
100
AcDbEntity
  8
0
100
AcDbLine
 10
250500.0
 20
500500.0
 30
5250.0
 11
260000.0
 21
500000.0
 31
1550.0
  0
LINE
  5
B9
330
17
100
AcDbEntity
  8
0
100
AcDbLine
 10
260000.0
 20
500000.0
 30
1550.0
 11
260500.0
 21
500500.0
 31
4880.869393641142
  0
LINE
  5
BA
330
17
100
AcDbEntity
  8
0
100
AcDbLine
 10
260000.0
 20
500000.0
 30
1550.0
 11
270500.0
 21
500500.0
 31
4540.983005625052
  0
LINE
  5
BB
330
17
100
AcDbEntity
  8
0
100
AcDbLine
 10
260500.0
 20
500500.0
 30
4880.869393641142
 11
270000.0
 21
500000.0
 31
1350.0
  0
LINE
  5
BC
330
17
100
AcDbEntity
  8
0
100
AcDbLine
 10
270000.0
 20
500000.0
 30
1350.0
 11
270500.0
 21
500500.0
 31
4540.983005625052
  0
LINE
  5
BD
330
17
100
AcDbEntity
  8
0
100
AcDbLine
 10
270000.0
 20
500000.0
 30
1350.0
 11
280500.0
 21
500500.0
 31
4236.454542357399
  0
LINE
  5
BE
330
17
100
AcDbEntity
  8
0
100
AcDbLine
 10
270500.0
 20
500500.0
 30
4540.983005625052
 11
280000.0
 21
500000.0
 31
1150.0
  0
LINE
  5
BF
330
17
100
AcDbEntity
  8
0
100
AcDbLine
 10
280000.0
 20
500000.0
 30
1150.0
 11
280500.0
 21
500500.0
 31
4236.454542357399
  0
LINE
  5
C0
330
17
100
AcDbEntity
  8
0
100
AcDbLine
 10
280000.0
 20
500000.0
 30
1150.0
 11
290500.0
 21
500500.0
 31
3971.8523992661944
  0
LINE
  5
C1
330
17
100
AcDbEntity
  8
0
100
AcDbLine
 10
280500.0
 20
500500.0
 30
4236.454542357399
 11
290000.0
 21
500000.0
 31
950.0
  0
LINE
  5
C2
330
17
100
AcDbEntity
  8
0
100
AcDbLine
 10
290000.0
 20
500000.0
 30
950.0
 11
290500.0
 21
500500.0
 31
3971.8523992661944
  0
LINE
  5
C3
330
17
100
AcDbEntity
  8
0
100
AcDbLine
 10
290000.0
 20
500000.0
 30
950.0
 11
300500.0
 21
500500.0
 31
3750.0
  0
LINE
  5
C4
330
17
100
AcDbEntity
  8
0
100
AcDbLine
 10
290500.0
 20
500500.0
 30
3971.8523992661944
 11
300000.0
 21
500000.0
 31
750.0
  0
LINE
  5
C5
330
17
100
AcDbEntity
  8
0
100
AcDbLine
 10
-2.0
 20
-2.0
 30
0.0
 11
-1.0
 21
-1.0
 31
1.5
  0
LINE
  5
C6
330
17
100
AcDbEntity
  8
0
100
AcDbLine
 10
-2.0
 20
-2.0
 30
3.0
 11
-1.0
 21
-1.0
 31
1.5
  0
LINE
  5
C7
330
17
100
AcDbEntity
  8
0
100
AcDbLine
 10
2.0
 20
2.0
 30
0.0
 11
1.0
 21
1.0
 31
1.5
  0
LINE
  5
C8
330
17
100
AcDbEntity
  8
0
100
AcDbLine
 10
2.0
 20
2.0
 30
3.0
 11
1.0
 21
1.0
 31
1.5
  0
LINE
  5
C9
330
17
100
AcDbEntity
  8
0
100
AcDbLine
 10
19998.0
 20
-2.0
 30
300.0
 11
19999.0
 21
-1.0
 31
301.5432272711787
  0
LINE
  5
CA
330
17
100
AcDbEntity
  8
0
100
AcDbLine
 10
19998.0
 20
-2.0
 30
303.0864545423574
 11
19999.0
 21
-1.0
 31
301.5432272711787
  0
LINE
  5
CB
330
17
100
AcDbEntity
  8
0
100
AcDbLine
 10
20002.0
 20
2.0
 30
300.0
 11
20001.0
 21
1.0
 31
301.5432272711787
  0
LINE
  5
CC
330
17
100
AcDbEntity
  8
0
100
AcDbLine
 10
20002.0
 20
2.0
 30
303.0864545423574
 11
20001.0
 21
1.0
 31
301.5432272711787
  0
LINE
  5
CD
330
17
100
AcDbEntity
  8
0
100
AcDbLine
 10
39998.0
 20
-2.0
 30
600.0
 11
39999.0
 21
-1.0
 31
601.6654346968206
  0
LINE
  5
CE
330
17
100
AcDbEntity
  8
0
100
AcDbLine
 10
39998.0
 20
-2.0
 30
603.3308693936411
 11
39999.0
 21
-1.0
 31
601.6654346968206
  0
LINE
  5
CF
330
17
100
AcDbEntity
  8
0
100
AcDbLine
 10
40002.0
 20
2.0
 30
600.0
 11
40001.0
 21
1.0
 31
601.6654346968206
  0
LINE
  5
D0
330
17
100
AcDbEntity
  8
0
100
AcDbLine
 10
40002.0
 20
2.0
 30
603.3308693936411
 11
40001.0
 21
1.0
 31
601.6654346968206
  0
LINE
  5
D1
330
17
100
AcDbEntity
  8
0
100
AcDbLine
 10
59998.0
 20
-2.0
 30
800.0
 11
59999.0
 21
-1.0
 31
801.8454915028125
  0
LINE
  5
D2
330
17
100
AcDbEntity
  8
0
100
AcDbLine
 10
59998.0
 20
-2.0
 30
803.6909830056251
 11
59999.0
 21
-1.0
 31
801.8454915028125
  0
LINE
  5
D3
330
17
100
AcDbEntity
  8
0
100
AcDbLine
 10
60002.0
 20
2.0
 30
800.0
 11
60001.0
 21
1.0
 31
801.8454915028125
  0
LINE
  5
D4
330
17
100
AcDbEntity
  8
0
100
AcDbLine
 10
60002.0
 20
2.0
 30
803.6909830056251
 11
60001.0
 21
1.0
 31
801.8454915028125
  0
LINE
  5
D5
330
17
100
AcDbEntity
  8
0
100
AcDbLine
 10
101165.97812147191
 20
683.2326227130834
 30
900.0
 11
101166.97812147191
 21
684.2326227130834
 31
902.0522642316338
  0
LINE
  5
D6
330
17
100
AcDbEntity
  8
0
100
AcDbLine
 10
101165.97812147191
 20
683.2326227130834
 30
904.1045284632677
 11
101166.97812147191
 21
684.2326227130834
 31
902.0522642316338
  0
LINE
  5
D7
330
17
100
AcDbEntity
  8
0
100
AcDbLine
 10
101169.97812147191
 20
687.2326227130834
 30
900.0
 11
101168.97812147191
 21
686.2326227130834
 31
902.0522642316338
  0
LINE
  5
D8
330
17
100
AcDbEntity
  8
0
100
AcDbLine
 10
101169.97812147191
 20
687.2326227130834
 30
904.1045284632677
 11
101168.97812147191
 21
686.2326227130834
 31
902.0522642316338
  0
LINE
  5
D9
330
17
100
AcDbEntity
  8
0
100
AcDbLine
 10
204407.52255126036
 20
17035.086855465837
 30
1000.0
 11
204408.52255126036
 21
17036.086855465837
 31
1002.25
  0
LINE
  5
DA
330
17
100
AcDbEntity
  8
0
100
AcDbLine
 10
204407.52255126036
 20
17035.086855465837
 30
1004.5
 11
204408.52255126036
 21
17036.086855465837
 31
1002.25
  0
LINE
  5
DB
330
17
100
AcDbEntity
  8
0
100
AcDbLine
 10
204411.52255126036
 20
17039.086855465837
 30
1000.0
 11
204410.52255126036
 21
17038.086855465837
 31
1002.25
  0
LINE
  5
DC
330
17
100
AcDbEntity
  8
0
100
AcDbLine
 10
204411.52255126036
 20
17039.086855465837
 30
1004.5
 11
204410.52255126036
 21
17038.086855465837
 31
1002.25
  0
LINE
  5
DD
330
17
100
AcDbEntity
  8
0
100
AcDbLine
 10
301993.2498697734
 20
54494.73790581606
 30
1100.0
 11
301994.2498697734
 21
54495.73790581606
 31
1102.4045084971874
  0
LINE
  5
DE
330
17
100
AcDbEntity
  8
0
100
AcDbLine
 10
301993.2498697734
 20
54494.73790581606
 30
1104.809016994375
 11
301994.2498697734
 21
54495.73790581606
 31
1102.4045084971874
  0
LINE
  5
DF
330
17
100
AcDbEntity
  8
0
100
AcDbLine
 10
301997.2498697734
 20
54498.73790581606
 30
1100.0
 11
301996.2498697734
 21
54497.73790581606
 31
1102.4045084971874
  0
LINE
  5
E0
330
17
100
AcDbEntity
  8
0
100
AcDbLine
 10
301997.2498697734
 20
54498.73790581606
 30
1104.809016994375
 11
301996.2498697734
 21
54497.73790581606
 31
1102.4045084971874
  0
LINE
  5
E1
330
17
100
AcDbEntity
  8
0
100
AcDbLine
 10
389658.19552491873
 20
111425.01927151461
 30
1200.0
 11
389659.19552491873
 21
111426.01927151461
 31
1202.489073800367
  0
LINE
  5
E2
330
17
100
AcDbEntity
  8
0
100
AcDbLine
 10
389658.19552491873
 20
111425.01927151461
 30
1204.9781476007338
 11
389659.19552491873
 21
111426.01927151461
 31
1202.489073800367
  0
LINE
  5
E3
330
17
100
AcDbEntity
  8
0
100
AcDbLine
 10
389662.19552491873
 20
111429.01927151461
 30
1200.0
 11
389661.19552491873
 21
111428.01927151461
 31
1202.489073800367
  0
LINE
  5
E4
330
17
100
AcDbEntity
  8
0
100
AcDbLine
 10
389662.19552491873
 20
111429.01927151461
 30
1204.9781476007338
 11
389661.19552491873
 21
111428.01927151461
 31
1202.489073800367
  0
LINE
  5
E5
330
17
100
AcDbEntity
  8
0
100
AcDbLine
 10
463570.9807284854
 20
185337.80447508127
 30
1300.0
 11
463571.9807284854
 21
185338.80447508127
 31
1302.489073800367
  0
LINE
  5
E6
330
17
100
AcDbEntity
  8
0
100
AcDbLine
 10
463570.9807284854
 20
185337.80447508127
 30
1304.9781476007338
 11
463571.9807284854
 21
185338.80447508127
 31
1302.489073800367
  0
LINE
  5
E7
330
17
100
AcDbEntity
  8
0
100
AcDbLine
 10
463574.9807284854
 20
185341.80447508127
 30
1300.0
 11
463573.9807284854
 21
185340.80447508127
 31
1302.489073800367
  0
LINE
  5
E8
330
17
100
AcDbEntity
  8
0
100
AcDbLine
 10
463574.9807284854
 20
185341.80447508127
 30
1304.9781476007338
 11
463573.9807284854
 21
185340.80447508127
 31
1302.489073800367
  0
LINE
  5
E9
330
17
100
AcDbEntity
  8
0
100
AcDbLine
 10
520501.26209418394
 20
273002.7501302266
 30
1400.0
 11
520502.26209418394
 21
273003.7501302266
 31
1402.4045084971874
  0
LINE
  5
EA
330
17
100
AcDbEntity
  8
0
100
AcDbLine
 10
520501.26209418394
 20
273002.7501302266
 30
1404.809016994375
 11
520502.26209418394
 21
273003.7501302266
 31
1402.4045084971874
  0
LINE
  5
EB
330
17
100
AcDbEntity
  8
0
100
AcDbLine
 10
520505.26209418394
 20
273006.7501302266
 30
1400.0
 11
520504.26209418394
 21
273005.7501302266
 31
1402.4045084971874
  0
LINE
  5
EC
330
17
100
AcDbEntity
  8
0
100
AcDbLine
 10
520505.26209418394
 20
273006.7501302266
 30
1404.809016994375
 11
520504.26209418394
 21
273005.7501302266
 31
1402.4045084971874
  0
LINE
  5
ED
330
17
100
AcDbEntity
  8
0
100
AcDbLine
 10
557960.9131445342
 20
370588.47744873964
 30
1500.0
 11
557961.9131445342
 21
370589.47744873964
 31
1502.25
  0
LINE
  5
EE
330
17
100
AcDbEntity
  8
0
100
AcDbLine
 10
557960.9131445342
 20
370588.47744873964
 30
1504.5
 11
557961.9131445342
 21
370589.47744873964
 31
1502.25
  0
LINE
  5
EF
330
17
100
AcDbEntity
  8
0
100
AcDbLine
 10
557964.9131445342
 20
370592.47744873964
 30
1500.0
 11
557963.9131445342
 21
370591.47744873964
 31
1502.25
  0
LINE
  5
F0
330
17
100
AcDbEntity
  8
0
100
AcDbLine
 10
557964.9131445342
 20
370592.47744873964
 30
1504.5
 11
557963.9131445342
 21
370591.47744873964
 31
1502.25
  0
LINE
  5
F1
330
17
100
AcDbEntity
  8
0
100
AcDbLine
 10
574312.7673772869
 20
473830.0218785279
 30
1599.9999999999998
 11
574313.7673772869
 21
473831.0218785279
 31
1602.0522642316337
  0
LINE
  5
F2
330
17
100
AcDbEntity
  8
0
100
AcDbLine
 10
574312.7673772869
 20
473830.0218785279
 30
1604.1045284632673
 11
574313.7673772869
 21
473831.0218785279
 31
1602.0522642316337
  0
LINE
  5
F3
330
17
100
AcDbEntity
  8
0
100
AcDbLine
 10
574316.7673772869
 20
473834.0218785279
 30
1599.9999999999998
 11
574315.7673772869
 21
473833.0218785279
 31
1602.0522642316337
  0
LINE
  5
F4
330
17
100
AcDbEntity
  8
0
100
AcDbLine
 10
574316.7673772869
 20
473834.0218785279
 30
1604.1045284632673
 11
574315.7673772869
 21
473833.0218785279
 31
1602.0522642316337
  0
LINE
  5
F5
330
17
100
AcDbEntity
  8
0
100
AcDbLine
 10
239998.0
 20
499998.0
 30
1700.0000000000002
 11
239999.0
 21
499999.0
 31
1701.8454915028128
  0
LINE
  5
F6
330
17
100
AcDbEntity
  8
0
100
AcDbLine
 10
239998.0
 20
499998.0
 30
1703.6909830056252
 11
239999.0
 21
499999.0
 31
1701.8454915028128
  0
LINE
  5
F7
330
17
100
AcDbEntity
  8
0
100
AcDbLine
 10
240002.0
 20
500002.0
 30
1700.0000000000002
 11
240001.0
 21
500001.0
 31
1701.8454915028128
  0
LINE
  5
F8
330
17
100
AcDbEntity
  8
0
100
AcDbLine
 10
240002.0
 20
500002.0
 30
1703.6909830056252
 11
240001.0
 21
500001.0
 31
1701.8454915028128
  0
LINE
  5
F9
330
17
100
AcDbEntity
  8
0
100
AcDbLine
 10
259998.0
 20
499998.0
 30
1550.0
 11
259999.0
 21
499999.0
 31
1551.6654346968205
  0
LINE
  5
FA
330
17
100
AcDbEntity
  8
0
100
AcDbLine
 10
259998.0
 20
499998.0
 30
1553.3308693936413
 11
259999.0
 21
499999.0
 31
1551.6654346968205
  0
LINE
  5
FB
330
17
100
AcDbEntity
  8
0
100
AcDbLine
 10
260002.0
 20
500002.0
 30
1550.0
 11
260001.0
 21
500001.0
 31
1551.6654346968205
  0
LINE
  5
FC
330
17
100
AcDbEntity
  8
0
100
AcDbLine
 10
260002.0
 20
500002.0
 30
1553.3308693936413
 11
260001.0
 21
500001.0
 31
1551.6654346968205
  0
LINE
  5
FD
330
17
100
AcDbEntity
  8
0
100
AcDbLine
 10
279998.0
 20
499998.0
 30
1150.0
 11
279999.0
 21
499999.0
 31
1151.5432272711787
  0
LINE
  5
FE
330
17
100
AcDbEntity
  8
0
100
AcDbLine
 10
279998.0
 20
499998.0
 30
1153.0864545423574
 11
279999.0
 21
499999.0
 31
1151.5432272711787
  0
LINE
  5
FF
330
17
100
AcDbEntity
  8
0
100
AcDbLine
 10
280002.0
 20
500002.0
 30
1150.0
 11
280001.0
 21
500001.0
 31
1151.5432272711787
  0
LINE
  5
100
330
17
100
AcDbEntity
  8
0
100
AcDbLine
 10
280002.0
 20
500002.0
 30
1153.0864545423574
 11
280001.0
 21
500001.0
 31
1151.5432272711787
  0
CIRCLE
  5
101
330
17
100
AcDbEntity
  8
0
 62
1
100
AcDbCircle
 10
0.0
 20
0.0
 30
0.0
 40
1.5
  0
CIRCLE
  5
102
330
17
100
AcDbEntity
  8
0
 62
1
100
AcDbCircle
 10
50000.0
 20
0.0
 30
750.0
 40
1.5
  0
CIRCLE
  5
103
330
17
100
AcDbEntity
  8
0
 62
1
100
AcDbCircle
 10
204409.52255126036
 20
17037.086855465837
 30
1000.0
 40
1.5
  0
CIRCLE
  5
104
330
17
100
AcDbEntity
  8
0
 62
1
100
AcDbCircle
 10
428553.39059327374
 20
146446.6094067262
 30
1250.0
 40
1.5
  0
CIRCLE
  5
105
330
17
100
AcDbEntity
  8
0
 62
1
100
AcDbCircle
 10
557962.9131445342
 20
370590.47744873964
 30
1500.0
 40
1.5
  0
CIRCLE
  5
106
330
17
100
AcDbEntity
  8
0
 62
1
100
AcDbCircle
 10
250000.0
 20
500000.0
 30
1750.0
 40
1.5
  0
LWPOLYLINE
  5
107
330
17
100
AcDbEntity
  8
0
 62
3
100
AcDbPolyline
 90
4
 70
1
 10
-2.0
 20
-2.0
 10
2.0
 20
-2.0
 10
2.0
 20
2.0
 10
-2.0
 20
2.0
  0
LWPOLYLINE
  5
108
330
17
100
AcDbEntity
  8
0
 62
3
100
AcDbPolyline
 90
4
 70
1
 10
29998.0
 20
-2.0
 40
449.99999999999994
 41
0.0
 10
30002.0
 20
-2.0
 40
449.99999999999994
 41
0.0
 10
30002.0
 20
2.0
 40
449.99999999999994
 41
0.0
 10
29998.0
 20
2.0
 40
449.99999999999994
 41
0.0
  0
LWPOLYLINE
  5
109
330
17
100
AcDbEntity
  8
0
 62
3
100
AcDbPolyline
 90
4
 70
1
 10
59998.0
 20
-2.0
 40
800.0
 41
0.0
 10
60002.0
 20
-2.0
 40
800.0
 41
0.0
 10
60002.0
 20
2.0
 40
800.0
 41
0.0
 10
59998.0
 20
2.0
 40
800.0
 41
0.0
  0
LWPOLYLINE
  5
10A
330
17
100
AcDbEntity
  8
0
 62
3
100
AcDbPolyline
 90
4
 70
1
 10
153215.23252011545
 20
6153.829702431103
 40
950.0
 41
0.0
 10
153219.23252011545
 20
6153.829702431103
 40
950.0
 41
0.0
 10
153219.23252011545
 20
6157.829702431103
 40
950.0
 41
0.0
 10
153215.23252011545
 20
6157.829702431103
 40
950.0
 41
0.0
  0
LWPOLYLINE
  5
10B
330
17
100
AcDbEntity
  8
0
 62
3
100
AcDbPolyline
 90
4
 70
1
 10
301993.2498697734
 20
54494.73790581606
 40
1100.0
 41
0.0
 10
301997.2498697734
 20
54494.73790581606
 40
1100.0
 41
0.0
 10
301997.2498697734
 20
54498.73790581606
 40
1100.0
 41
0.0
 10
301993.2498697734
 20
54498.73790581606
 40
1100.0
 41
0.0
  0
LWPOLYLINE
  5
10C
330
17
100
AcDbEntity
  8
0
 62
3
100
AcDbPolyline
 90
4
 70
1
 10
428551.39059327374
 20
146444.6094067262
 40
1250.0
 41
0.0
 10
428555.39059327374
 20
146444.6094067262
 40
1250.0
 41
0.0
 10
428555.39059327374
 20
146448.6094067262
 40
1250.0
 41
0.0
 10
428551.39059327374
 20
146448.6094067262
 40
1250.0
 41
0.0
  0
LWPOLYLINE
  5
10D
330
17
100
AcDbEntity
  8
0
 62
3
100
AcDbPolyline
 90
4
 70
1
 10
520501.26209418394
 20
273002.7501302266
 40
1400.0
 41
0.0
 10
520505.26209418394
 20
273002.7501302266
 40
1400.0
 41
0.0
 10
520505.26209418394
 20
273006.7501302266
 40
1400.0
 41
0.0
 10
520501.26209418394
 20
273006.7501302266
 40
1400.0
 41
0.0
  0
LWPOLYLINE
  5
10E
330
17
100
AcDbEntity
  8
0
 62
3
100
AcDbPolyline
 90
4
 70
1
 10
568842.1702975689
 20
421780.76747988455
 40
1550.0
 41
0.0
 10
568846.1702975689
 20
421780.76747988455
 40
1550.0
 41
0.0
 10
568846.1702975689
 20
421784.76747988455
 40
1550.0
 41
0.0
 10
568842.1702975689
 20
421784.76747988455
 40
1550.0
 41
0.0
  0
LWPOLYLINE
  5
10F
330
17
100
AcDbEntity
  8
0
 62
3
100
AcDbPolyline
 90
4
 70
1
 10
239998.0
 20
499998.0
 40
1700.0000000000002
 41
0.0
 10
240002.0
 20
499998.0
 40
1700.0000000000002
 41
0.0
 10
240002.0
 20
500002.0
 40
1700.0000000000002
 41
0.0
 10
239998.0
 20
500002.0
 40
1700.0000000000002
 41
0.0
  0
LWPOLYLINE
  5
110
330
17
100
AcDbEntity
  8
0
 62
3
100
AcDbPolyline
 90
4
 70
1
 10
269998.0
 20
499998.0
 40
1350.0
 41
0.0
 10
270002.0
 20
499998.0
 40
1350.0
 41
0.0
 10
270002.0
 20
500002.0
 40
1350.0
 41
0.0
 10
269998.0
 20
500002.0
 40
1350.0
 41
0.0
  0
LINE
  5
111
330
17
100
AcDbEntity
  8
0
100
AcDbLine
 10
204404.52255126036
 20
17032.086855465837
 30
1000.0
 11
204404.52255126036
 21
17032.086855465837
 31
1030.0
  0
LINE
  5
112
330
17
100
AcDbEntity
  8
0
100
AcDbLine
 10
204404.52255126036
 20
17042.086855465837
 30
1000.0
 11
204404.52255126036
 21
17042.086855465837
 31
1030.0
  0
LINE
  5
113
330
17
100
AcDbEntity
  8
0
100
AcDbLine
 10
204414.52255126036
 20
17032.086855465837
 30
1000.0
 11
204414.52255126036
 21
17032.086855465837
 31
1030.0
  0
LINE
  5
114
330
17
100
AcDbEntity
  8
0
100
AcDbLine
 10
204414.52255126036
 20
17042.086855465837
 30
1000.0
 11
204414.52255126036
 21
17042.086855465837
 31
1030.0
  0
LINE
  5
115
330
17
100
AcDbEntity
  8
0
100
AcDbLine
 10
204404.52255126036
 20
17032.086855465837
 30
1000.0
 11
204414.52255126036
 21
17042.086855465837
 31
1030.0
  0
LINE
  5
116
330
17
100
AcDbEntity
  8
0
100
AcDbLine
 10
204414.52255126036
 20
17032.086855465837
 30
1000.0
 11
204404.52255126036
 21
17042.086855465837
 31
1030.0
  0
LINE
  5
117
330
17
100
AcDbEntity
  8
0
100
AcDbLine
 10
557957.9131445342
 20
370585.47744873964
 30
1500.0
 11
557957.9131445342
 21
370585.47744873964
 31
1530.0
  0
LINE
  5
118
330
17
100
AcDbEntity
  8
0
100
AcDbLine
 10
557957.9131445342
 20
370595.47744873964
 30
1500.0
 11
557957.9131445342
 21
370595.47744873964
 31
1530.0
  0
LINE
  5
119
330
17
100
AcDbEntity
  8
0
100
AcDbLine
 10
557967.9131445342
 20
370585.47744873964
 30
1500.0
 11
557967.9131445342
 21
370585.47744873964
 31
1530.0
  0
LINE
  5
11A
330
17
100
AcDbEntity
  8
0
100
AcDbLine
 10
557967.9131445342
 20
370595.47744873964
 30
1500.0
 11
557967.9131445342
 21
370595.47744873964
 31
1530.0
  0
LINE
  5
11B
330
17
100
AcDbEntity
  8
0
100
AcDbLine
 10
557957.9131445342
 20
370585.47744873964
 30
1500.0
 11
557967.9131445342
 21
370595.47744873964
 31
1530.0
  0
LINE
  5
11C
330
17
100
AcDbEntity
  8
0
100
AcDbLine
 10
557967.9131445342
 20
370585.47744873964
 30
1500.0
 11
557957.9131445342
 21
370595.47744873964
 31
1530.0
  0
ENDSEC
  0
SECTION
  2
OBJECTS
  0
DICTIONARY
  5
A
330
0
100
AcDbDictionary
281
1
  3
ACAD_COLOR
350
B
  3
ACAD_GROUP
350
C
  3
ACAD_LAYOUT
350
D
  3
ACAD_MATERIAL
350
E
  3
ACAD_MLEADERSTYLE
350
F
  3
ACAD_MLINESTYLE
350
10
  3
ACAD_PLOTSETTINGS
350
11
  3
ACAD_PLOTSTYLENAME
350
12
  3
ACAD_SCALELIST
350
14
  3
ACAD_TABLESTYLE
350
15
  3
ACAD_VISUALSTYLE
350
16
  3
EZDXF_META
350
2D
  0
DICTIONARY
  5
B
330
A
100
AcDbDictionary
281
1
  0
DICTIONARY
  5
C
330
A
100
AcDbDictionary
281
1
  0
DICTIONARY
  5
D
330
A
100
AcDbDictionary
281
1
  3
Model
350
1A
  3
Layout1
350
1E
  0
DICTIONARY
  5
E
330
A
100
AcDbDictionary
281
1
  3
ByBlock
350
1F
  3
ByLayer
350
20
  3
Global
350
21
  0
DICTIONARY
  5
F
330
A
100
AcDbDictionary
281
1
  3
Standard
350
2C
  0
DICTIONARY
  5
10
330
A
100
AcDbDictionary
281
1
  3
Standard
350
22
  0
DICTIONARY
  5
11
330
A
100
AcDbDictionary
281
1
  0
ACDBDICTIONARYWDFLT
  5
12
330
A
100
AcDbDictionary
281
1
  3
Normal
350
13
100
AcDbDictionaryWithDefault
340
13
  0
ACDBPLACEHOLDER
  5
13
330
12
  0
DICTIONARY
  5
14
330
A
100
AcDbDictionary
281
1
  0
DICTIONARY
  5
15
330
A
100
AcDbDictionary
281
1
  0
DICTIONARY
  5
16
330
A
100
AcDbDictionary
281
1
  0
LAYOUT
  5
1A
330
D
100
AcDbPlotSettings
  1

  4
A3
  6

 40
7.5
 41
20.0
 42
7.5
 43
20.0
 44
420.0
 45
297.0
 46
0.0
 47
0.0
 48
0.0
 49
0.0
140
0.0
141
0.0
142
1.0
143
1.0
 70
1024
 72
1
 73
0
 74
5
  7

 75
16
 76
0
 77
2
 78
300
147
1.0
148
0.0
149
0.0
100
AcDbLayout
  1
Model
 70
1
 71
0
 10
0.0
 20
0.0
 11
420.0
 21
297.0
 12
0.0
 22
0.0
 32
0.0
 14
1e+20
 24
1e+20
 34
1e+20
 15
-1e+20
 25
-1e+20
 35
-1e+20
146
0.0
 13
0.0
 23
0.0
 33
0.0
 16
1.0
 26
0.0
 36
0.0
 17
0.0
 27
1.0
 37
0.0
 76
1
330
17
  0
LAYOUT
  5
1E
330
D
100
AcDbPlotSettings
  1

  4
A3
  6

 40
7.5
 41
20.0
 42
7.5
 43
20.0
 44
420.0
 45
297.0
 46
0.0
 47
0.0
 48
0.0
 49
0.0
140
0.0
141
0.0
142
1.0
143
1.0
 70
0
 72
1
 73
0
 74
5
  7

 75
16
 76
0
 77
2
 78
300
147
1.0
148
0.0
149
0.0
100
AcDbLayout
  1
Layout1
 70
1
 71
1
 10
0.0
 20
0.0
 11
420.0
 21
297.0
 12
0.0
 22
0.0
 32
0.0
 14
1e+20
 24
1e+20
 34
1e+20
 15
-1e+20
 25
-1e+20
 35
-1e+20
146
0.0
 13
0.0
 23
0.0
 33
0.0
 16
1.0
 26
0.0
 36
0.0
 17
0.0
 27
1.0
 37
0.0
 76
1
330
1B
  0
MATERIAL
  5
1F
102
{ACAD_REACTORS
330
E
102
}
330
E
100
AcDbMaterial
  1
ByBlock
  2

 70
0
 40
1.0
 71
1
 41
1.0
 91
-1023410177
 42
1.0
 72
1
  3

 73
1
 74
1
 75
1
 44
0.5
 73
0
 45
1.0
 46
1.0
 77
1
  4

 78
1
 79
1
170
1
 48
1.0
171
1
  6

172
1
173
1
174
1
140
1.0
141
1.0
175
1
  7

176
1
177
1
178
1
143
1.0
179
1
  8

270
1
271
1
272
1
145
1.0
146
1.0
273
1
  9

274
1
275
1
276
1
 42
1.0
 72
1
  3

 73
1
 74
1
 75
1
 94
63
  0
MATERIAL
  5
20
102
{ACAD_REACTORS
330
E
102
}
330
E
100
AcDbMaterial
  1
ByLayer
  2

 70
0
 40
1.0
 71
1
 41
1.0
 91
-1023410177
 42
1.0
 72
1
  3

 73
1
 74
1
 75
1
 44
0.5
 73
0
 45
1.0
 46
1.0
 77
1
  4

 78
1
 79
1
170
1
 48
1.0
171
1
  6

172
1
173
1
174
1
140
1.0
141
1.0
175
1
  7

176
1
177
1
178
1
143
1.0
179
1
  8

270
1
271
1
272
1
145
1.0
146
1.0
273
1
  9

274
1
275
1
276
1
 42
1.0
 72
1
  3

 73
1
 74
1
 75
1
 94
63
  0
MATERIAL
  5
21
102
{ACAD_REACTORS
330
E
102
}
330
E
100
AcDbMaterial
  1
Global
  2

 70
0
 40
1.0
 71
1
 41
1.0
 91
-1023410177
 42
1.0
 72
1
  3

 73
1
 74
1
 75
1
 44
0.5
 73
0
 45
1.0
 46
1.0
 77
1
  4

 78
1
 79
1
170
1
 48
1.0
171
1
  6

172
1
173
1
174
1
140
1.0
141
1.0
175
1
  7

176
1
177
1
178
1
143
1.0
179
1
  8

270
1
271
1
272
1
145
1.0
146
1.0
273
1
  9

274
1
275
1
276
1
 42
1.0
 72
1
  3

 73
1
 74
1
 75
1
 94
63
  0
MLINESTYLE
  5
22
102
{ACAD_REACTORS
330
10
102
}
330
10
100
AcDbMlineStyle
  2
Standard
 70
0
  3

 62
256
 51
90.0
 52
90.0
 71
2
 49
0.5
 62
256
  6
BYLAYER
 49
-0.5
 62
256
  6
BYLAYER
  0
MLEADERSTYLE
  5
2C
102
{ACAD_REACTORS
330
F
102
}
330
F
100
AcDbMLeaderStyle
179
2
170
2
171
1
172
0
 90
2
 40
0.0
 41
0.0
173
1
 91
-1056964608
 92
-2
290
1
 42
2.0
291
1
 43
8.0
  3
Standard
 44
4.0
300

342
29
174
1
175
1
176
0
178
1
 93
-1056964608
 45
4.0
292
0
297
0
 46
4.0
 94
-1056964608
 47
1.0
 49
1.0
140
1.0
294
1
141
0.0
177
0
142
1.0
295
0
296
0
143
3.75
271
0
272
9
273
9
  0
DICTIONARY
  5
2D
330
A
100
AcDbDictionary
280
1
281
1
  3
CREATED_BY_EZDXF
350
2E
  3
WRITTEN_BY_EZDXF
350
11F
  0
DICTIONARYVAR
  5
2E
330
2D
100
DictionaryVariables
280
0
  1
1.4.3 @ 2025-12-16T18:11:41.988026+00:00
  0
DICTIONARYVAR
  5
11F
330
2D
100
DictionaryVariables
280
0
  1
1.4.3 @ 2025-12-16T18:11:41.991198+00:00
  0
ENDSEC
  0
EOF
