  0
SECTION
  2
HEADER
  9
$ACADVER
  1
AC1015
  9
$ACADMAINTVER
 70
6
  9
$DWGCODEPAGE
  3
ANSI_1252
  9
$INSBASE
 10
0.0
 20
0.0
 30
0.0
  9
$EXTMIN
 10
1e+20
 20
1e+20
 30
1e+20
  9
$EXTMAX
 10
-1e+20
 20
-1e+20
 30
-1e+20
  9
$LIMMIN
 10
0.0
 20
0.0
  9
$LIMMAX
 10
420.0
 20
297.0
  9
$ORTHOMODE
 70
0
  9
$REGENMODE
 70
1
  9
$FILLMODE
 70
1
  9
$QTEXTMODE
 70
0
  9
$MIRRTEXT
 70
1
  9
$LTSCALE
 40
1.0
  9
$ATTMODE
 70
1
  9
$TEXTSIZE
 40
2.5
  9
$TRACEWID
 40
1.0
  9
$TEXTSTYLE
  7
Standard
  9
$CLAYER
  8
0
  9
$CELTYPE
  6
ByLayer
  9
$CECOLOR
 62
256
  9
$CELTSCALE
 40
1.0
  9
$DISPSILH
 70
0
  9
$DIMSCALE
 40
1.0
  9
$DIMASZ
 40
2.5
  9
$DIMEXO
 40
0.625
  9
$DIMDLI
 40
3.75
  9
$DIMRND
 40
0.0
  9
$DIMDLE
 40
0.0
  9
$DIMEXE
 40
1.25
  9
$DIMTP
 40
0.0
  9
$DIMTM
 40
0.0
  9
$DIMTXT
 40
2.5
  9
$DIMCEN
 40
2.5
  9
$DIMTSZ
 40
0.0
  9
$DIMTOL
 70
0
  9
$DIMLIM
 70
0
  9
$DIMTIH
 70
0
  9
$DIMTOH
 70
0
  9
$DIMSE1
 70
0
  9
$DIMSE2
 70
0
  9
$DIMTAD
 70
1
  9
$DIMZIN
 70
8
  9
$DIMBLK
  1

  9
$DIMASO
 70
1
  9
$DIMSHO
 70
1
  9
$DIMPOST
  1

  9
$DIMAPOST
  1

  9
$DIMALT
 70
0
  9
$DIMALTD
 70
3
  9
$DIMALTF
 40
0.03937007874
  9
$DIMLFAC
 40
1.0
  9
$DIMTOFL
 70
1
  9
$DIMTVP
 40
0.0
  9
$DIMTIX
 70
0
  9
$DIMSOXD
 70
0
  9
$DIMSAH
 70
0
  9
$DIMBLK1
  1

  9
$DIMBLK2
  1

  9
$DIMSTYLE
  2
ISO-25
  9
$DIMCLRD
 70
0
  9
$DIMCLRE
 70
0
  9
$DIMCLRT
 70
0
  9
$DIMTFAC
 40
1.0
  9
$DIMGAP
 40
0.625
  9
$DIMJUST
 70
0
  9
$DIMSD1
 70
0
  9
$DIMSD2
 70
0
  9
$DIMTOLJ
 70
0
  9
$DIMTZIN
 70
8
  9
$DIMALTZ
 70
0
  9
$DIMALTTZ
 70
0
  9
$DIMUPT
 70
0
  9
$DIMDEC
 70
2
  9
$DIMTDEC
 70
2
  9
$DIMALTU
 70
2
  9
$DIMALTTD
 70
3
  9
$DIMTXSTY
  7
Standard
  9
$DIMAUNIT
 70
0
  9
$DIMADEC
 70
0
  9
$DIMALTRND
 40
0.0
  9
$DIMAZIN
 70
0
  9
$DIMDSEP
 70
44
  9
$DIMATFIT
 70
3
  9
$DIMFRAC
 70
0
  9
$DIMLDRBLK
  1

  9
$DIMLUNIT
 70
2
  9
$DIMLWD
 70
-2
  9
$DIMLWE
 70
-2
  9
$DIMTMOVE
 70
0
  9
$LUNITS
 70
2
  9
$LUPREC
 70
4
  9
$SKETCHINC
 40
1.0
  9
$FILLETRAD
 40
10.0
  9
$AUNITS
 70
0
  9
$AUPREC
 70
2
  9
$MENU
  1
.
  9
$ELEVATION
 40
0.0
  9
$PELEVATION
 40
0.0
  9
$THICKNESS
 40
0.0
  9
$LIMCHECK
 70
0
  9
$CHAMFERA
 40
0.0
  9
$CHAMFERB
 40
0.0
  9
$CHAMFERC
 40
0.0
  9
$CHAMFERD
 40
0.0
  9
$SKPOLY
 70
0
  9
$TDCREATE
 40
2461026.977951389
  9
$TDUCREATE
 40
2458532.153996898
  9
$TDUPDATE
 40
2461026.977951389
  9
$TDUUPDATE
 40
2458532.1544311
  9
$TDINDWG
 40
0.0
  9
$TDUSRTIMER
 40
0.0
  9
$USRTIMER
 70
1
  9
$ANGBASE
 50
0.0
  9
$ANGDIR
 70
0
  9
$PDMODE
 70
0
  9
$PDSIZE
 40
0.0
  9
$PLINEWID
 40
0.0
  9
$SPLFRAME
 70
0
  9
$SPLINETYPE
 70
6
  9
$SPLINESEGS
 70
8
  9
$HANDSEED
  5
3F2
  9
$SURFTAB1
 70
6
  9
$SURFTAB2
 70
6
  9
$SURFTYPE
 70
6
  9
$SURFU
 70
6
  9
$SURFV
 70
6
  9
$UCSBASE
  2

  9
$UCSNAME
  2

  9
$UCSORG
 10
0.0
 20
0.0
 30
0.0
  9
$UCSXDIR
 10
1.0
 20
0.0
 30
0.0
  9
$UCSYDIR
 10
0.0
 20
1.0
 30
0.0
  9
$UCSORTHOREF
  2

  9
$UCSORTHOVIEW
 70
0
  9
$UCSORGTOP
 10
0.0
 20
0.0
 30
0.0
  9
$UCSORGBOTTOM
 10
0.0
 20
0.0
 30
0.0
  9
$UCSORGLEFT
 10
0.0
 20
0.0
 30
0.0
  9
$UCSORGRIGHT
 10
0.0
 20
0.0
 30
0.0
  9
$UCSORGFRONT
 10
0.0
 20
0.0
 30
0.0
  9
$UCSORGBACK
 10
0.0
 20
0.0
 30
0.0
  9
$PUCSBASE
  2

  9
$PUCSNAME
  2

  9
$PUCSORG
 10
0.0
 20
0.0
 30
0.0
  9
$PUCSXDIR
 10
1.0
 20
0.0
 30
0.0
  9
$PUCSYDIR
 10
0.0
 20
1.0
 30
0.0
  9
$PUCSORTHOREF
  2

  9
$PUCSORTHOVIEW
 70
0
  9
$PUCSORGTOP
 10
0.0
 20
0.0
 30
0.0
  9
$PUCSORGBOTTOM
 10
0.0
 20
0.0
 30
0.0
  9
$PUCSORGLEFT
 10
0.0
 20
0.0
 30
0.0
  9
$PUCSORGRIGHT
 10
0.0
 20
0.0
 30
0.0
  9
$PUCSORGFRONT
 10
0.0
 20
0.0
 30
0.0
  9
$PUCSORGBACK
 10
0.0
 20
0.0
 30
0.0
  9
$USERI1
 70
0
  9
$USERI2
 70
0
  9
$USERI3
 70
0
  9
$USERI4
 70
0
  9
$USERI5
 70
0
  9
$USERR1
 40
0.0
  9
$USERR2
 40
0.0
  9
$USERR3
 40
0.0
  9
$USERR4
 40
0.0
  9
$USERR5
 40
0.0
  9
$WORLDVIEW
 70
1
  9
$SHADEDGE
 70
3
  9
$SHADEDIF
 70
70
  9
$TILEMODE
 70
1
  9
$MAXACTVP
 70
64
  9
$PINSBASE
 10
0.0
 20
0.0
 30
0.0
  9
$PLIMCHECK
 70
0
  9
$PEXTMIN
 10
1e+20
 20
1e+20
 30
1e+20
  9
$PEXTMAX
 10
-1e+20
 20
-1e+20
 30
-1e+20
  9
$PLIMMIN
 10
0.0
 20
0.0
  9
$PLIMMAX
 10
420.0
 20
297.0
  9
$UNITMODE
 70
0
  9
$VISRETAIN
 70
1
  9
$PLINEGEN
 70
0
  9
$PSLTSCALE
 70
1
  9
$TREEDEPTH
 70
3020
  9
$CMLSTYLE
  2
Standard
  9
$CMLJUST
 70
0
  9
$CMLSCALE
 40
20.0
  9
$PROXYGRAPHICS
 70
1
  9
$MEASUREMENT
 70
1
  9
$CELWEIGHT
370
-1
  9
$ENDCAPS
280
0
  9
$JOINSTYLE
280
0
  9
$LWDISPLAY
290
0
  9
$INSUNITS
 70
6
  9
$HYPERLINKBASE
  1

  9
$STYLESHEET
  1

  9
$XEDIT
290
1
  9
$CEPSNTYPE
380
0
  9
$PSTYLEMODE
290
1
  9
$FINGERPRINTGUID
  2
{F7CDC2DD-3975-42BD-8173-DB36D1FDC636}
  9
$VERSIONGUID
  2
{74DE8F11-4FAF-4ED8-9183-04115711CC17}
  9
$EXTNAMES
290
1
  9
$PSVPSCALE
 40
0.0
  9
$OLESTARTUP
290
0
  0
ENDSEC
  0
SECTION
  2
CLASSES
  0
CLASS
  1
ACDBDICTIONARYWDFLT
  2
AcDbDictionaryWithDefault
  3
ObjectDBX Classes
 90
0
280
0
281
0
  0
CLASS
  1
SUN
  2
AcDbSun
  3
SCENEOE
 90
1153
280
0
281
0
  0
CLASS
  1
VISUALSTYLE
  2
AcDbVisualStyle
  3
ObjectDBX Classes
 90
4095
280
0
281
0
  0
CLASS
  1
MATERIAL
  2
AcDbMaterial
  3
ObjectDBX Classes
 90
1153
280
0
281
0
  0
CLASS
  1
SCALE
  2
AcDbScale
  3
ObjectDBX Classes
 90
1153
280
0
281
0
  0
CLASS
  1
TABLESTYLE
  2
AcDbTableStyle
  3
ObjectDBX Classes
 90
4095
280
0
281
0
  0
CLASS
  1
MLEADERSTYLE
  2
AcDbMLeaderStyle
  3
ACDB_MLEADERSTYLE_CLASS
 90
4095
280
0
281
0
  0
CLASS
  1
DICTIONARYVAR
  2
AcDbDictionaryVar
  3
ObjectDBX Classes
 90
0
280
0
281
0
  0
CLASS
  1
CELLSTYLEMAP
  2
AcDbCellStyleMap
  3
ObjectDBX Classes
 90
1152
280
0
281
0
  0
CLASS
  1
MENTALRAYRENDERSETTINGS
  2
AcDbMentalRayRenderSettings
  3
SCENEOE
 90
1024
280
0
281
0
  0
CLASS
  1
ACDBDETAILVIEWSTYLE
  2
AcDbDetailViewStyle
  3
ObjectDBX Classes
 90
1025
280
0
281
0
  0
CLASS
  1
ACDBSECTIONVIEWSTYLE
  2
AcDbSectionViewStyle
  3
ObjectDBX Classes
 90
1025
280
0
281
0
  0
CLASS
  1
RASTERVARIABLES
  2
AcDbRasterVariables
  3
ISM
 90
0
280
0
281
0
  0
CLASS
  1
ACDBPLACEHOLDER
  2
AcDbPlaceHolder
  3
ObjectDBX Classes
 90
0
280
0
281
0
  0
CLASS
  1
LAYOUT
  2
AcDbLayout
  3
ObjectDBX Classes
 90
0
280
0
281
0
  0
ENDSEC
  0
SECTION
  2
TABLES
  0
TABLE
  2
VPORT
  5
8
330
0
100
AcDbSymbolTable
 70
1
  0
VPORT
  5
23
330
8
100
AcDbSymbolTableRecord
100
AcDbViewportTableRecord
  2
*Active
 70
0
 10
0.0
 20
0.0
 11
1.0
 21
1.0
 12
0.0
 22
0.0
 13
0.0
 23
0.0
 14
0.5
 24
0.5
 15
0.5
 25
0.5
 16
0.0
 26
0.0
 36
1.0
 17
0.0
 27
0.0
 37
0.0
 40
1000.0
 41
1.34
 42
50.0
 43
0.0
 44
0.0
 50
0.0
 51
0.0
 71
0
 72
1000
 73
1
 74
3
 75
0
 76
0
 77
0
 78
0
281
0
 65
0
146
0.0
  0
ENDTAB
  0
TABLE
  2
LTYPE
  5
2
330
0
100
AcDbSymbolTable
 70
3
  0
LTYPE
  5
24
330
2
100
AcDbSymbolTableRecord
100
AcDbLinetypeTableRecord
  2
ByBlock
 70
0
  3

 72
65
 73
0
 40
0.0
  0
LTYPE
  5
25
330
2
100
AcDbSymbolTableRecord
100
AcDbLinetypeTableRecord
  2
ByLayer
 70
0
  3

 72
65
 73
0
 40
0.0
  0
LTYPE
  5
26
330
2
100
AcDbSymbolTableRecord
100
AcDbLinetypeTableRecord
  2
Continuous
 70
0
  3

 72
65
 73
0
 40
0.0
  0
ENDTAB
  0
TABLE
  2
LAYER
  5
1
330
0
100
AcDbSymbolTable
 70
2
  0
LAYER
  5
27
330
1
100
AcDbSymbolTableRecord
100
AcDbLayerTableRecord
  2
0
 70
0
 62
7
  6
Continuous
370
-3
390
13
  0
LAYER
  5
28
330
1
100
AcDbSymbolTableRecord
100
AcDbLayerTableRecord
  2
Defpoints
 70
0
 62
7
  6
Continuous
290
0
370
-3
390
13
  0
ENDTAB
  0
TABLE
  2
STYLE
  5
5
330
0
100
AcDbSymbolTable
 70
1
  0
STYLE
  5
29
330
5
100
AcDbSymbolTableRecord
100
AcDbTextStyleTableRecord
  2
Standard
 70
0
 40
0.0
 41
1.0
 50
0.0
 71
0
 42
2.5
  3
txt
  4

  0
ENDTAB
  0
TABLE
  2
VIEW
  5
7
330
0
100
AcDbSymbolTable
 70
0
  0
ENDTAB
  0
TABLE
  2
UCS
  5
6
330
0
100
AcDbSymbolTable
 70
0
  0
ENDTAB
  0
TABLE
  2
APPID
  5
3
330
0
100
AcDbSymbolTable
 70
3
  0
APPID
  5
2A
330
3
100
AcDbSymbolTableRecord
100
AcDbRegAppTableRecord
  2
ACAD
 70
0
  0
APPID
  5
3EF
330
3
100
AcDbSymbolTableRecord
100
AcDbRegAppTableRecord
  2
HATCHBACKGROUNDCOLOR
 70
0
  0
APPID
  5
3F0
330
3
100
AcDbSymbolTableRecord
100
AcDbRegAppTableRecord
  2
EZDXF
 70
0
  0
ENDTAB
  0
TABLE
  2
DIMSTYLE
  5
4
330
0
100
AcDbSymbolTable
 70
1
100
AcDbDimStyleTable
  0
DIMSTYLE
105
2B
330
4
100
AcDbSymbolTableRecord
100
AcDbDimStyleTableRecord
  2
Standard
 70
0
  3

  4

 40
1.0
 41
2.5
 42
0.625
 43
3.75
 44
1.25
 45
0.0
 46
0.0
 47
0.0
 48
0.0
140
2.5
141
2.5
142
0.0
143
0.03937007874
144
1.0
145
0.0
146
1.0
147
0.625
148
0.0
 71
0
 72
0
 73
0
 74
0
 75
0
 76
0
 77
1
 78
8
 79
3
170
0
171
3
172
1
173
0
174
0
175
0
176
0
177
0
178
0
179
2
271
2
272
2
273
2
274
3
275
0
276
0
277
2
278
44
279
0
280
0
281
0
282
0
283
0
284
8
285
0
286
0
288
0
289
3
371
-2
372
-2
  0
ENDTAB
  0
TABLE
  2
BLOCK_RECORD
  5
9
330
0
100
AcDbSymbolTable
 70
2
  0
BLOCK_RECORD
  5
17
330
9
100
AcDbSymbolTableRecord
100
AcDbBlockTableRecord
  2
*Model_Space
340
1A
  0
BLOCK_RECORD
  5
1B
330
9
100
AcDbSymbolTableRecord
100
AcDbBlockTableRecord
  2
*Paper_Space
340
1E
  0
ENDTAB
  0
ENDSEC
  0
SECTION
  2
BLOCKS
  0
BLOCK
  5
18
330
17
100
AcDbEntity
  8
0
100
AcDbBlockBegin
  2
*Model_Space
 70
0
 10
0.0
 20
0.0
 30
0.0
  3
*Model_Space
  1

  0
ENDBLK
  5
19
330
17
100
AcDbEntity
  8
0
100
AcDbBlockEnd
  0
BLOCK
  5
1C
330
1B
100
AcDbEntity
  8
0
100
AcDbBlockBegin
  2
*Paper_Space
 70
0
 10
0.0
 20
0.0
 30
0.0
  3
*Paper_Space
  1

  0
ENDBLK
  5
1D
330
1B
100
AcDbEntity
  8
0
100
AcDbBlockEnd
  0
ENDSEC
  0
SECTION
  2
ENTITIES
  0
LINE
  5
2F
330
17
100
AcDbEntity
  8
0
 62
5
100
AcDbLine
 10
75000.0
 20
0.0
 30
0.0
 11
73875.0
 21
0.0
 31
11100.0
  0
LINE
  5
30
330
17
100
AcDbEntity
  8
0
 62
5
100
AcDbLine
 10
53033.00858899107
 20
53033.00858899106
 30
0.0
 11
52237.5134601562
 21
52237.513460156195
 31
11100.0
  0
LINE
  5
31
330
17
100
AcDbEntity
  8
0
 62
5
100
AcDbLine
 10
4.5924254968025744e-12
 20
75000.0
 30
0.0
 11
4.523539114350536e-12
 21
73875.0
 31
11100.0
  0
LINE
  5
32
330
17
100
AcDbEntity
  8
0
 62
5
100
AcDbLine
 10
-53033.00858899106
 20
53033.00858899107
 30
0.0
 11
-52237.513460156195
 21
52237.5134601562
 31
11100.0
  0
LINE
  5
33
330
17
100
AcDbEntity
  8
0
 62
5
100
AcDbLine
 10
-75000.0
 20
9.184850993605149e-12
 30
0.0
 11
-73875.0
 21
9.047078228701072e-12
 31
11100.0
  0
LINE
  5
34
330
17
100
AcDbEntity
  8
0
 62
5
100
AcDbLine
 10
-53033.00858899108
 20
-53033.00858899106
 30
0.0
 11
-52237.51346015621
 21
-52237.513460156195
 31
11100.0
  0
LINE
  5
35
330
17
100
AcDbEntity
  8
0
 62
5
100
AcDbLine
 10
-1.3777276490407722e-11
 20
-75000.0
 30
0.0
 11
-1.3570617343051608e-11
 21
-73875.0
 31
11100.0
  0
LINE
  5
36
330
17
100
AcDbEntity
  8
0
 62
5
100
AcDbLine
 10
53033.00858899105
 20
-53033.00858899108
 30
0.0
 11
52237.51346015619
 21
-52237.51346015621
 31
11100.0
  0
LINE
  5
37
330
17
100
AcDbEntity
  8
0
 62
5
100
AcDbLine
 10
73875.0
 20
0.0
 30
11100.0
 11
72750.0
 21
0.0
 31
22200.0
  0
LINE
  5
38
330
17
100
AcDbEntity
  8
0
 62
5
100
AcDbLine
 10
52237.5134601562
 20
52237.513460156195
 30
11100.0
 11
51442.018331321335
 21
51442.01833132133
 31
22200.0
  0
LINE
  5
39
330
17
100
AcDbEntity
  8
0
 62
5
100
AcDbLine
 10
4.523539114350536e-12
 20
73875.0
 30
11100.0
 11
4.454652731898497e-12
 21
72750.0
 31
22200.0
  0
LINE
  5
3A
330
17
100
AcDbEntity
  8
0
 62
5
100
AcDbLine
 10
-52237.513460156195
 20
52237.5134601562
 30
11100.0
 11
-51442.01833132133
 21
51442.018331321335
 31
22200.0
  0
LINE
  5
3B
330
17
100
AcDbEntity
  8
0
 62
5
100
AcDbLine
 10
-73875.0
 20
9.047078228701072e-12
 30
11100.0
 11
-72750.0
 21
8.909305463796994e-12
 31
22200.0
  0
LINE
  5
3C
330
17
100
AcDbEntity
  8
0
 62
5
100
AcDbLine
 10
-52237.51346015621
 20
-52237.513460156195
 30
11100.0
 11
-51442.01833132134
 21
-51442.01833132133
 31
22200.0
  0
LINE
  5
3D
330
17
100
AcDbEntity
  8
0
 62
5
100
AcDbLine
 10
-1.3570617343051608e-11
 20
-73875.0
 30
11100.0
 11
-1.3363958195695491e-11
 21
-72750.0
 31
22200.0
  0
LINE
  5
3E
330
17
100
AcDbEntity
  8
0
 62
5
100
AcDbLine
 10
52237.51346015619
 20
-52237.51346015621
 30
11100.0
 11
51442.01833132132
 21
-51442.01833132134
 31
22200.0
  0
LINE
  5
3F
330
17
100
AcDbEntity
  8
0
 62
5
100
AcDbLine
 10
72750.0
 20
0.0
 30
22200.0
 11
71625.0
 21
0.0
 31
33300.0
  0
LINE
  5
40
330
17
100
AcDbEntity
  8
0
 62
5
100
AcDbLine
 10
51442.018331321335
 20
51442.01833132133
 30
22200.0
 11
50646.52320248647
 21
50646.52320248646
 31
33300.0
  0
LINE
  5
41
330
17
100
AcDbEntity
  8
0
 62
5
100
AcDbLine
 10
4.454652731898497e-12
 20
72750.0
 30
22200.0
 11
4.385766349446459e-12
 21
71625.0
 31
33300.0
  0
LINE
  5
42
330
17
100
AcDbEntity
  8
0
 62
5
100
AcDbLine
 10
-51442.01833132133
 20
51442.018331321335
 30
22200.0
 11
-50646.52320248646
 21
50646.52320248647
 31
33300.0
  0
LINE
  5
43
330
17
100
AcDbEntity
  8
0
 62
5
100
AcDbLine
 10
-72750.0
 20
8.909305463796994e-12
 30
22200.0
 11
-71625.0
 21
8.771532698892918e-12
 31
33300.0
  0
LINE
  5
44
330
17
100
AcDbEntity
  8
0
 62
5
100
AcDbLine
 10
-51442.01833132134
 20
-51442.01833132133
 30
22200.0
 11
-50646.523202486474
 21
-50646.52320248646
 31
33300.0
  0
LINE
  5
45
330
17
100
AcDbEntity
  8
0
 62
5
100
AcDbLine
 10
-1.3363958195695491e-11
 20
-72750.0
 30
22200.0
 11
-1.3157299048339375e-11
 21
-71625.0
 31
33300.0
  0
LINE
  5
46
330
17
100
AcDbEntity
  8
0
 62
5
100
AcDbLine
 10
51442.01833132132
 20
-51442.01833132134
 30
22200.0
 11
50646.52320248645
 21
-50646.523202486474
 31
33300.0
  0
LINE
  5
47
330
17
100
AcDbEntity
  8
0
 62
5
100
AcDbLine
 10
71625.0
 20
0.0
 30
33300.0
 11
70500.0
 21
0.0
 31
44400.0
  0
LINE
  5
48
330
17
100
AcDbEntity
  8
0
 62
5
100
AcDbLine
 10
50646.52320248647
 20
50646.52320248646
 30
33300.0
 11
49851.02807365161
 21
49851.02807365159
 31
44400.0
  0
LINE
  5
49
330
17
100
AcDbEntity
  8
0
 62
5
100
AcDbLine
 10
4.385766349446459e-12
 20
71625.0
 30
33300.0
 11
4.31687996699442e-12
 21
70500.0
 31
44400.0
  0
LINE
  5
4A
330
17
100
AcDbEntity
  8
0
 62
5
100
AcDbLine
 10
-50646.52320248646
 20
50646.52320248647
 30
33300.0
 11
-49851.02807365159
 21
49851.02807365161
 31
44400.0
  0
LINE
  5
4B
330
17
100
AcDbEntity
  8
0
 62
5
100
AcDbLine
 10
-71625.0
 20
8.771532698892918e-12
 30
33300.0
 11
-70500.0
 21
8.63375993398884e-12
 31
44400.0
  0
LINE
  5
4C
330
17
100
AcDbEntity
  8
0
 62
5
100
AcDbLine
 10
-50646.523202486474
 20
-50646.52320248646
 30
33300.0
 11
-49851.028073651614
 21
-49851.02807365159
 31
44400.0
  0
LINE
  5
4D
330
17
100
AcDbEntity
  8
0
 62
5
100
AcDbLine
 10
-1.3157299048339375e-11
 20
-71625.0
 30
33300.0
 11
-1.295063990098326e-11
 21
-70500.0
 31
44400.0
  0
LINE
  5
4E
330
17
100
AcDbEntity
  8
0
 62
5
100
AcDbLine
 10
50646.52320248645
 20
-50646.523202486474
 30
33300.0
 11
49851.028073651585
 21
-49851.028073651614
 31
44400.0
  0
LINE
  5
4F
330
17
100
AcDbEntity
  8
0
 62
5
100
AcDbLine
 10
70500.0
 20
0.0
 30
44400.0
 11
69375.0
 21
0.0
 31
55500.0
  0
LINE
  5
50
330
17
100
AcDbEntity
  8
0
 62
5
100
AcDbLine
 10
49851.02807365161
 20
49851.02807365159
 30
44400.0
 11
49055.53294481674
 21
49055.53294481673
 31
55500.0
  0
LINE
  5
51
330
17
100
AcDbEntity
  8
0
 62
5
100
AcDbLine
 10
4.31687996699442e-12
 20
70500.0
 30
44400.0
 11
4.247993584542381e-12
 21
69375.0
 31
55500.0
  0
LINE
  5
52
330
17
100
AcDbEntity
  8
0
 62
5
100
AcDbLine
 10
-49851.02807365159
 20
49851.02807365161
 30
44400.0
 11
-49055.53294481673
 21
49055.53294481674
 31
55500.0
  0
LINE
  5
53
330
17
100
AcDbEntity
  8
0
 62
5
100
AcDbLine
 10
-70500.0
 20
8.63375993398884e-12
 30
44400.0
 11
-69375.0
 21
8.495987169084763e-12
 31
55500.0
  0
LINE
  5
54
330
17
100
AcDbEntity
  8
0
 62
5
100
AcDbLine
 10
-49851.028073651614
 20
-49851.02807365159
 30
44400.0
 11
-49055.53294481675
 21
-49055.53294481673
 31
55500.0
  0
LINE
  5
55
330
17
100
AcDbEntity
  8
0
 62
5
100
AcDbLine
 10
-1.295063990098326e-11
 20
-70500.0
 30
44400.0
 11
-1.2743980753627143e-11
 21
-69375.0
 31
55500.0
  0
LINE
  5
56
330
17
100
AcDbEntity
  8
0
 62
5
100
AcDbLine
 10
49851.028073651585
 20
-49851.028073651614
 30
44400.0
 11
49055.532944816725
 21
-49055.53294481675
 31
55500.0
  0
LINE
  5
57
330
17
100
AcDbEntity
  8
0
 62
5
100
AcDbLine
 10
69375.0
 20
0.0
 30
55500.0
 11
68250.0
 21
0.0
 31
66600.0
  0
LINE
  5
58
330
17
100
AcDbEntity
  8
0
 62
5
100
AcDbLine
 10
49055.53294481674
 20
49055.53294481673
 30
55500.0
 11
48260.03781598187
 21
48260.037815981865
 31
66600.0
  0
LINE
  5
59
330
17
100
AcDbEntity
  8
0
 62
5
100
AcDbLine
 10
4.247993584542381e-12
 20
69375.0
 30
55500.0
 11
4.179107202090343e-12
 21
68250.0
 31
66600.0
  0
LINE
  5
5A
330
17
100
AcDbEntity
  8
0
 62
5
100
AcDbLine
 10
-49055.53294481673
 20
49055.53294481674
 30
55500.0
 11
-48260.037815981865
 21
48260.03781598187
 31
66600.0
  0
LINE
  5
5B
330
17
100
AcDbEntity
  8
0
 62
5
100
AcDbLine
 10
-69375.0
 20
8.495987169084763e-12
 30
55500.0
 11
-68250.0
 21
8.358214404180686e-12
 31
66600.0
  0
LINE
  5
5C
330
17
100
AcDbEntity
  8
0
 62
5
100
AcDbLine
 10
-49055.53294481675
 20
-49055.53294481673
 30
55500.0
 11
-48260.03781598188
 21
-48260.037815981865
 31
66600.0
  0
LINE
  5
5D
330
17
100
AcDbEntity
  8
0
 62
5
100
AcDbLine
 10
-1.2743980753627143e-11
 20
-69375.0
 30
55500.0
 11
-1.2537321606271027e-11
 21
-68250.0
 31
66600.0
  0
LINE
  5
5E
330
17
100
AcDbEntity
  8
0
 62
5
100
AcDbLine
 10
49055.532944816725
 20
-49055.53294481675
 30
55500.0
 11
48260.03781598186
 21
-48260.03781598188
 31
66600.0
  0
LINE
  5
5F
330
17
100
AcDbEntity
  8
0
 62
5
100
AcDbLine
 10
68250.0
 20
0.0
 30
66600.0
 11
67125.0
 21
0.0
 31
77700.0
  0
LINE
  5
60
330
17
100
AcDbEntity
  8
0
 62
5
100
AcDbLine
 10
48260.03781598187
 20
48260.037815981865
 30
66600.0
 11
47464.542687147004
 21
47464.542687147
 31
77700.0
  0
LINE
  5
61
330
17
100
AcDbEntity
  8
0
 62
5
100
AcDbLine
 10
4.179107202090343e-12
 20
68250.0
 30
66600.0
 11
4.110220819638304e-12
 21
67125.0
 31
77700.0
  0
LINE
  5
62
330
17
100
AcDbEntity
  8
0
 62
5
100
AcDbLine
 10
-48260.037815981865
 20
48260.03781598187
 30
66600.0
 11
-47464.542687147
 21
47464.542687147004
 31
77700.0
  0
LINE
  5
63
330
17
100
AcDbEntity
  8
0
 62
5
100
AcDbLine
 10
-68250.0
 20
8.358214404180686e-12
 30
66600.0
 11
-67125.0
 21
8.220441639276608e-12
 31
77700.0
  0
LINE
  5
64
330
17
100
AcDbEntity
  8
0
 62
5
100
AcDbLine
 10
-48260.03781598188
 20
-48260.037815981865
 30
66600.0
 11
-47464.54268714701
 21
-47464.542687147
 31
77700.0
  0
LINE
  5
65
330
17
100
AcDbEntity
  8
0
 62
5
100
AcDbLine
 10
-1.2537321606271027e-11
 20
-68250.0
 30
66600.0
 11
-1.2330662458914912e-11
 21
-67125.0
 31
77700.0
  0
LINE
  5
66
330
17
100
AcDbEntity
  8
0
 62
5
100
AcDbLine
 10
48260.03781598186
 20
-48260.03781598188
 30
66600.0
 11
47464.54268714699
 21
-47464.54268714701
 31
77700.0
  0
LINE
  5
67
330
17
100
AcDbEntity
  8
0
 62
5
100
AcDbLine
 10
67125.0
 20
0.0
 30
77700.0
 11
66000.0
 21
0.0
 31
88800.0
  0
LINE
  5
68
330
17
100
AcDbEntity
  8
0
 62
5
100
AcDbLine
 10
47464.542687147004
 20
47464.542687147
 30
77700.0
 11
46669.04755831214
 21
46669.04755831213
 31
88800.0
  0
LINE
  5
69
330
17
100
AcDbEntity
  8
0
 62
5
100
AcDbLine
 10
4.110220819638304e-12
 20
67125.0
 30
77700.0
 11
4.041334437186266e-12
 21
66000.0
 31
88800.0
  0
LINE
  5
6A
330
17
100
AcDbEntity
  8
0
 62
5
100
AcDbLine
 10
-47464.542687147
 20
47464.542687147004
 30
77700.0
 11
-46669.04755831213
 21
46669.04755831214
 31
88800.0
  0
LINE
  5
6B
330
17
100
AcDbEntity
  8
0
 62
5
100
AcDbLine
 10
-67125.0
 20
8.220441639276608e-12
 30
77700.0
 11
-66000.0
 21
8.082668874372531e-12
 31
88800.0
  0
LINE
  5
6C
330
17
100
AcDbEntity
  8
0
 62
5
100
AcDbLine
 10
-47464.54268714701
 20
-47464.542687147
 30
77700.0
 11
-46669.047558312144
 21
-46669.04755831213
 31
88800.0
  0
LINE
  5
6D
330
17
100
AcDbEntity
  8
0
 62
5
100
AcDbLine
 10
-1.2330662458914912e-11
 20
-67125.0
 30
77700.0
 11
-1.2124003311558796e-11
 21
-66000.0
 31
88800.0
  0
LINE
  5
6E
330
17
100
AcDbEntity
  8
0
 62
5
100
AcDbLine
 10
47464.54268714699
 20
-47464.54268714701
 30
77700.0
 11
46669.04755831212
 21
-46669.047558312144
 31
88800.0
  0
LINE
  5
6F
330
17
100
AcDbEntity
  8
0
 62
5
100
AcDbLine
 10
66000.0
 20
0.0
 30
88800.0
 11
64875.0
 21
0.0
 31
99900.0
  0
LINE
  5
70
330
17
100
AcDbEntity
  8
0
 62
5
100
AcDbLine
 10
46669.04755831214
 20
46669.04755831213
 30
88800.0
 11
45873.55242947728
 21
45873.55242947727
 31
99900.0
  0
LINE
  5
71
330
17
100
AcDbEntity
  8
0
 62
5
100
AcDbLine
 10
4.041334437186266e-12
 20
66000.0
 30
88800.0
 11
3.972448054734227e-12
 21
64875.0
 31
99900.0
  0
LINE
  5
72
330
17
100
AcDbEntity
  8
0
 62
5
100
AcDbLine
 10
-46669.04755831213
 20
46669.04755831214
 30
88800.0
 11
-45873.55242947727
 21
45873.55242947728
 31
99900.0
  0
LINE
  5
73
330
17
100
AcDbEntity
  8
0
 62
5
100
AcDbLine
 10
-66000.0
 20
8.082668874372531e-12
 30
88800.0
 11
-64875.0
 21
7.944896109468453e-12
 31
99900.0
  0
LINE
  5
74
330
17
100
AcDbEntity
  8
0
 62
5
100
AcDbLine
 10
-46669.047558312144
 20
-46669.04755831213
 30
88800.0
 11
-45873.552429477284
 21
-45873.55242947727
 31
99900.0
  0
LINE
  5
75
330
17
100
AcDbEntity
  8
0
 62
5
100
AcDbLine
 10
-1.2124003311558796e-11
 20
-66000.0
 30
88800.0
 11
-1.191734416420268e-11
 21
-64875.0
 31
99900.0
  0
LINE
  5
76
330
17
100
AcDbEntity
  8
0
 62
5
100
AcDbLine
 10
46669.04755831212
 20
-46669.047558312144
 30
88800.0
 11
45873.55242947726
 21
-45873.552429477284
 31
99900.0
  0
LINE
  5
77
330
17
100
AcDbEntity
  8
0
 62
5
100
AcDbLine
 10
64875.0
 20
0.0
 30
99900.0
 11
63750.0
 21
0.0
 31
111000.0
  0
LINE
  5
78
330
17
100
AcDbEntity
  8
0
 62
5
100
AcDbLine
 10
45873.55242947728
 20
45873.55242947727
 30
99900.0
 11
45078.05730064241
 21
45078.0573006424
 31
111000.0
  0
LINE
  5
79
330
17
100
AcDbEntity
  8
0
 62
5
100
AcDbLine
 10
3.972448054734227e-12
 20
64875.0
 30
99900.0
 11
3.903561672282188e-12
 21
63750.0
 31
111000.0
  0
LINE
  5
7A
330
17
100
AcDbEntity
  8
0
 62
5
100
AcDbLine
 10
-45873.55242947727
 20
45873.55242947728
 30
99900.0
 11
-45078.0573006424
 21
45078.05730064241
 31
111000.0
  0
LINE
  5
7B
330
17
100
AcDbEntity
  8
0
 62
5
100
AcDbLine
 10
-64875.0
 20
7.944896109468453e-12
 30
99900.0
 11
-63750.0
 21
7.807123344564377e-12
 31
111000.0
  0
LINE
  5
7C
330
17
100
AcDbEntity
  8
0
 62
5
100
AcDbLine
 10
-45873.552429477284
 20
-45873.55242947727
 30
99900.0
 11
-45078.05730064242
 21
-45078.0573006424
 31
111000.0
  0
LINE
  5
7D
330
17
100
AcDbEntity
  8
0
 62
5
100
AcDbLine
 10
-1.191734416420268e-11
 20
-64875.0
 30
99900.0
 11
-1.1710685016846564e-11
 21
-63750.0
 31
111000.0
  0
LINE
  5
7E
330
17
100
AcDbEntity
  8
0
 62
5
100
AcDbLine
 10
45873.55242947726
 20
-45873.552429477284
 30
99900.0
 11
45078.057300642395
 21
-45078.05730064242
 31
111000.0
  0
LINE
  5
7F
330
17
100
AcDbEntity
  8
0
 62
5
100
AcDbLine
 10
63750.0
 20
0.0
 30
111000.0
 11
62625.0
 21
0.0
 31
122100.0
  0
LINE
  5
80
330
17
100
AcDbEntity
  8
0
 62
5
100
AcDbLine
 10
45078.05730064241
 20
45078.0573006424
 30
111000.0
 11
44282.56217180754
 21
44282.562171807534
 31
122100.0
  0
LINE
  5
81
330
17
100
AcDbEntity
  8
0
 62
5
100
AcDbLine
 10
3.903561672282188e-12
 20
63750.0
 30
111000.0
 11
3.83467528983015e-12
 21
62625.0
 31
122100.0
  0
LINE
  5
82
330
17
100
AcDbEntity
  8
0
 62
5
100
AcDbLine
 10
-45078.0573006424
 20
45078.05730064241
 30
111000.0
 11
-44282.562171807534
 21
44282.56217180754
 31
122100.0
  0
LINE
  5
83
330
17
100
AcDbEntity
  8
0
 62
5
100
AcDbLine
 10
-63750.0
 20
7.807123344564377e-12
 30
111000.0
 11
-62625.0
 21
7.6693505796603e-12
 31
122100.0
  0
LINE
  5
84
330
17
100
AcDbEntity
  8
0
 62
5
100
AcDbLine
 10
-45078.05730064242
 20
-45078.0573006424
 30
111000.0
 11
-44282.56217180755
 21
-44282.562171807534
 31
122100.0
  0
LINE
  5
85
330
17
100
AcDbEntity
  8
0
 62
5
100
AcDbLine
 10
-1.1710685016846564e-11
 20
-63750.0
 30
111000.0
 11
-1.1504025869490448e-11
 21
-62625.0
 31
122100.0
  0
LINE
  5
86
330
17
100
AcDbEntity
  8
0
 62
5
100
AcDbLine
 10
45078.057300642395
 20
-45078.05730064242
 30
111000.0
 11
44282.56217180753
 21
-44282.56217180755
 31
122100.0
  0
LINE
  5
87
330
17
100
AcDbEntity
  8
0
 62
5
100
AcDbLine
 10
62625.0
 20
0.0
 30
122100.0
 11
61500.00000000001
 21
0.0
 31
133200.0
  0
LINE
  5
88
330
17
100
AcDbEntity
  8
0
 62
5
100
AcDbLine
 10
44282.56217180754
 20
44282.562171807534
 30
122100.0
 11
43487.06704297268
 21
43487.067042972674
 31
133200.0
  0
LINE
  5
89
330
17
100
AcDbEntity
  8
0
 62
5
100
AcDbLine
 10
3.83467528983015e-12
 20
62625.0
 30
122100.0
 11
3.765788907378112e-12
 21
61500.00000000001
 31
133200.0
  0
LINE
  5
8A
330
17
100
AcDbEntity
  8
0
 62
5
100
AcDbLine
 10
-44282.562171807534
 20
44282.56217180754
 30
122100.0
 11
-43487.067042972674
 21
43487.06704297268
 31
133200.0
  0
LINE
  5
8B
330
17
100
AcDbEntity
  8
0
 62
5
100
AcDbLine
 10
-62625.0
 20
7.6693505796603e-12
 30
122100.0
 11
-61500.00000000001
 21
7.531577814756224e-12
 31
133200.0
  0
LINE
  5
8C
330
17
100
AcDbEntity
  8
0
 62
5
100
AcDbLine
 10
-44282.56217180755
 20
-44282.562171807534
 30
122100.0
 11
-43487.06704297269
 21
-43487.067042972674
 31
133200.0
  0
LINE
  5
8D
330
17
100
AcDbEntity
  8
0
 62
5
100
AcDbLine
 10
-1.1504025869490448e-11
 20
-62625.0
 30
122100.0
 11
-1.1297366722134335e-11
 21
-61500.00000000001
 31
133200.0
  0
LINE
  5
8E
330
17
100
AcDbEntity
  8
0
 62
5
100
AcDbLine
 10
44282.56217180753
 20
-44282.56217180755
 30
122100.0
 11
43487.06704297267
 21
-43487.06704297269
 31
133200.0
  0
LINE
  5
8F
330
17
100
AcDbEntity
  8
0
 62
5
100
AcDbLine
 10
61500.00000000001
 20
0.0
 30
133200.0
 11
60374.99999999999
 21
0.0
 31
144300.0
  0
LINE
  5
90
330
17
100
AcDbEntity
  8
0
 62
5
100
AcDbLine
 10
43487.06704297268
 20
43487.067042972674
 30
133200.0
 11
42691.57191413781
 21
42691.5719141378
 31
144300.0
  0
LINE
  5
91
330
17
100
AcDbEntity
  8
0
 62
5
100
AcDbLine
 10
3.765788907378112e-12
 20
61500.00000000001
 30
133200.0
 11
3.696902524926072e-12
 21
60374.99999999999
 31
144300.0
  0
LINE
  5
92
330
17
100
AcDbEntity
  8
0
 62
5
100
AcDbLine
 10
-43487.067042972674
 20
43487.06704297268
 30
133200.0
 11
-42691.5719141378
 21
42691.57191413781
 31
144300.0
  0
LINE
  5
93
330
17
100
AcDbEntity
  8
0
 62
5
100
AcDbLine
 10
-61500.00000000001
 20
7.531577814756224e-12
 30
133200.0
 11
-60374.99999999999
 21
7.393805049852144e-12
 31
144300.0
  0
LINE
  5
94
330
17
100
AcDbEntity
  8
0
 62
5
100
AcDbLine
 10
-43487.06704297269
 20
-43487.067042972674
 30
133200.0
 11
-42691.571914137814
 21
-42691.5719141378
 31
144300.0
  0
LINE
  5
95
330
17
100
AcDbEntity
  8
0
 62
5
100
AcDbLine
 10
-1.1297366722134335e-11
 20
-61500.00000000001
 30
133200.0
 11
-1.1090707574778215e-11
 21
-60374.99999999999
 31
144300.0
  0
LINE
  5
96
330
17
100
AcDbEntity
  8
0
 62
5
100
AcDbLine
 10
43487.06704297267
 20
-43487.06704297269
 30
133200.0
 11
42691.57191413779
 21
-42691.571914137814
 31
144300.0
  0
LINE
  5
97
330
17
100
AcDbEntity
  8
0
 62
5
100
AcDbLine
 10
60374.99999999999
 20
0.0
 30
144300.0
 11
59250.0
 21
0.0
 31
155400.0
  0
LINE
  5
98
330
17
100
AcDbEntity
  8
0
 62
5
100
AcDbLine
 10
42691.57191413781
 20
42691.5719141378
 30
144300.0
 11
41896.07678530295
 21
41896.07678530294
 31
155400.0
  0
LINE
  5
99
330
17
100
AcDbEntity
  8
0
 62
5
100
AcDbLine
 10
3.696902524926072e-12
 20
60374.99999999999
 30
144300.0
 11
3.628016142474034e-12
 21
59250.0
 31
155400.0
  0
LINE
  5
9A
330
17
100
AcDbEntity
  8
0
 62
5
100
AcDbLine
 10
-42691.5719141378
 20
42691.57191413781
 30
144300.0
 11
-41896.07678530294
 21
41896.07678530295
 31
155400.0
  0
LINE
  5
9B
330
17
100
AcDbEntity
  8
0
 62
5
100
AcDbLine
 10
-60374.99999999999
 20
7.393805049852144e-12
 30
144300.0
 11
-59250.0
 21
7.256032284948068e-12
 31
155400.0
  0
LINE
  5
9C
330
17
100
AcDbEntity
  8
0
 62
5
100
AcDbLine
 10
-42691.571914137814
 20
-42691.5719141378
 30
144300.0
 11
-41896.076785302954
 21
-41896.07678530294
 31
155400.0
  0
LINE
  5
9D
330
17
100
AcDbEntity
  8
0
 62
5
100
AcDbLine
 10
-1.1090707574778215e-11
 20
-60374.99999999999
 30
144300.0
 11
-1.08840484274221e-11
 21
-59250.0
 31
155400.0
  0
LINE
  5
9E
330
17
100
AcDbEntity
  8
0
 62
5
100
AcDbLine
 10
42691.57191413779
 20
-42691.571914137814
 30
144300.0
 11
41896.07678530293
 21
-41896.076785302954
 31
155400.0
  0
LINE
  5
9F
330
17
100
AcDbEntity
  8
0
 62
5
100
AcDbLine
 10
59250.0
 20
0.0
 30
155400.0
 11
58125.0
 21
0.0
 31
166500.0
  0
LINE
  5
A0
330
17
100
AcDbEntity
  8
0
 62
5
100
AcDbLine
 10
41896.07678530295
 20
41896.07678530294
 30
155400.0
 11
41100.58165646808
 21
41100.58165646807
 31
166500.0
  0
LINE
  5
A1
330
17
100
AcDbEntity
  8
0
 62
5
100
AcDbLine
 10
3.628016142474034e-12
 20
59250.0
 30
155400.0
 11
3.5591297600219954e-12
 21
58125.0
 31
166500.0
  0
LINE
  5
A2
330
17
100
AcDbEntity
  8
0
 62
5
100
AcDbLine
 10
-41896.07678530294
 20
41896.07678530295
 30
155400.0
 11
-41100.58165646807
 21
41100.58165646808
 31
166500.0
  0
LINE
  5
A3
330
17
100
AcDbEntity
  8
0
 62
5
100
AcDbLine
 10
-59250.0
 20
7.256032284948068e-12
 30
155400.0
 11
-58125.0
 21
7.118259520043991e-12
 31
166500.0
  0
LINE
  5
A4
330
17
100
AcDbEntity
  8
0
 62
5
100
AcDbLine
 10
-41896.076785302954
 20
-41896.07678530294
 30
155400.0
 11
-41100.581656468086
 21
-41100.58165646807
 31
166500.0
  0
LINE
  5
A5
330
17
100
AcDbEntity
  8
0
 62
5
100
AcDbLine
 10
-1.08840484274221e-11
 20
-59250.0
 30
155400.0
 11
-1.0677389280065985e-11
 21
-58125.0
 31
166500.0
  0
LINE
  5
A6
330
17
100
AcDbEntity
  8
0
 62
5
100
AcDbLine
 10
41896.07678530293
 20
-41896.076785302954
 30
155400.0
 11
41100.581656468064
 21
-41100.581656468086
 31
166500.0
  0
LINE
  5
A7
330
17
100
AcDbEntity
  8
0
 62
5
100
AcDbLine
 10
58125.0
 20
0.0
 30
166500.0
 11
57000.0
 21
0.0
 31
177600.0
  0
LINE
  5
A8
330
17
100
AcDbEntity
  8
0
 62
5
100
AcDbLine
 10
41100.58165646808
 20
41100.58165646807
 30
166500.0
 11
40305.08652763321
 21
40305.086527633204
 31
177600.0
  0
LINE
  5
A9
330
17
100
AcDbEntity
  8
0
 62
5
100
AcDbLine
 10
3.5591297600219954e-12
 20
58125.0
 30
166500.0
 11
3.4902433775699567e-12
 21
57000.0
 31
177600.0
  0
LINE
  5
AA
330
17
100
AcDbEntity
  8
0
 62
5
100
AcDbLine
 10
-41100.58165646807
 20
41100.58165646808
 30
166500.0
 11
-40305.086527633204
 21
40305.08652763321
 31
177600.0
  0
LINE
  5
AB
330
17
100
AcDbEntity
  8
0
 62
5
100
AcDbLine
 10
-58125.0
 20
7.118259520043991e-12
 30
166500.0
 11
-57000.0
 21
6.980486755139913e-12
 31
177600.0
  0
LINE
  5
AC
330
17
100
AcDbEntity
  8
0
 62
5
100
AcDbLine
 10
-41100.581656468086
 20
-41100.58165646807
 30
166500.0
 11
-40305.08652763322
 21
-40305.086527633204
 31
177600.0
  0
LINE
  5
AD
330
17
100
AcDbEntity
  8
0
 62
5
100
AcDbLine
 10
-1.0677389280065985e-11
 20
-58125.0
 30
166500.0
 11
-1.0470730132709869e-11
 21
-57000.0
 31
177600.0
  0
LINE
  5
AE
330
17
100
AcDbEntity
  8
0
 62
5
100
AcDbLine
 10
41100.581656468064
 20
-41100.581656468086
 30
166500.0
 11
40305.0865276332
 21
-40305.08652763322
 31
177600.0
  0
LINE
  5
AF
330
17
100
AcDbEntity
  8
0
 62
5
100
AcDbLine
 10
57000.0
 20
0.0
 30
177600.0
 11
55875.0
 21
0.0
 31
188700.0
  0
LINE
  5
B0
330
17
100
AcDbEntity
  8
0
 62
5
100
AcDbLine
 10
40305.08652763321
 20
40305.086527633204
 30
177600.0
 11
39509.591398798344
 21
39509.59139879834
 31
188700.0
  0
LINE
  5
B1
330
17
100
AcDbEntity
  8
0
 62
5
100
AcDbLine
 10
3.4902433775699567e-12
 20
57000.0
 30
177600.0
 11
3.421356995117918e-12
 21
55875.0
 31
188700.0
  0
LINE
  5
B2
330
17
100
AcDbEntity
  8
0
 62
5
100
AcDbLine
 10
-40305.086527633204
 20
40305.08652763321
 30
177600.0
 11
-39509.59139879834
 21
39509.591398798344
 31
188700.0
  0
LINE
  5
B3
330
17
100
AcDbEntity
  8
0
 62
5
100
AcDbLine
 10
-57000.0
 20
6.980486755139913e-12
 30
177600.0
 11
-55875.0
 21
6.842713990235836e-12
 31
188700.0
  0
LINE
  5
B4
330
17
100
AcDbEntity
  8
0
 62
5
100
AcDbLine
 10
-40305.08652763322
 20
-40305.086527633204
 30
177600.0
 11
-39509.59139879835
 21
-39509.59139879834
 31
188700.0
  0
LINE
  5
B5
330
17
100
AcDbEntity
  8
0
 62
5
100
AcDbLine
 10
-1.0470730132709869e-11
 20
-57000.0
 30
177600.0
 11
-1.0264070985353754e-11
 21
-55875.0
 31
188700.0
  0
LINE
  5
B6
330
17
100
AcDbEntity
  8
0
 62
5
100
AcDbLine
 10
40305.0865276332
 20
-40305.08652763322
 30
177600.0
 11
39509.59139879834
 21
-39509.59139879835
 31
188700.0
  0
LINE
  5
B7
330
17
100
AcDbEntity
  8
0
 62
5
100
AcDbLine
 10
55875.0
 20
0.0
 30
188700.0
 11
54750.0
 21
0.0
 31
199800.0
  0
LINE
  5
B8
330
17
100
AcDbEntity
  8
0
 62
5
100
AcDbLine
 10
39509.591398798344
 20
39509.59139879834
 30
188700.0
 11
38714.09626996348
 21
38714.09626996348
 31
199800.0
  0
LINE
  5
B9
330
17
100
AcDbEntity
  8
0
 62
5
100
AcDbLine
 10
3.421356995117918e-12
 20
55875.0
 30
188700.0
 11
3.3524706126658793e-12
 21
54750.0
 31
199800.0
  0
LINE
  5
BA
330
17
100
AcDbEntity
  8
0
 62
5
100
AcDbLine
 10
-39509.59139879834
 20
39509.591398798344
 30
188700.0
 11
-38714.09626996348
 21
38714.09626996348
 31
199800.0
  0
LINE
  5
BB
330
17
100
AcDbEntity
  8
0
 62
5
100
AcDbLine
 10
-55875.0
 20
6.842713990235836e-12
 30
188700.0
 11
-54750.0
 21
6.704941225331759e-12
 31
199800.0
  0
LINE
  5
BC
330
17
100
AcDbEntity
  8
0
 62
5
100
AcDbLine
 10
-39509.59139879835
 20
-39509.59139879834
 30
188700.0
 11
-38714.096269963484
 21
-38714.09626996348
 31
199800.0
  0
LINE
  5
BD
330
17
100
AcDbEntity
  8
0
 62
5
100
AcDbLine
 10
-1.0264070985353754e-11
 20
-55875.0
 30
188700.0
 11
-1.0057411837997637e-11
 21
-54750.0
 31
199800.0
  0
LINE
  5
BE
330
17
100
AcDbEntity
  8
0
 62
5
100
AcDbLine
 10
39509.59139879834
 20
-39509.59139879835
 30
188700.0
 11
38714.09626996347
 21
-38714.096269963484
 31
199800.0
  0
LINE
  5
BF
330
17
100
AcDbEntity
  8
0
 62
5
100
AcDbLine
 10
54750.0
 20
0.0
 30
199800.0
 11
53625.00000000001
 21
0.0
 31
210900.0
  0
LINE
  5
C0
330
17
100
AcDbEntity
  8
0
 62
5
100
AcDbLine
 10
38714.09626996348
 20
38714.09626996348
 30
199800.0
 11
37918.601141128616
 21
37918.601141128616
 31
210900.0
  0
LINE
  5
C1
330
17
100
AcDbEntity
  8
0
 62
5
100
AcDbLine
 10
3.3524706126658793e-12
 20
54750.0
 30
199800.0
 11
3.2835842302138414e-12
 21
53625.00000000001
 31
210900.0
  0
LINE
  5
C2
330
17
100
AcDbEntity
  8
0
 62
5
100
AcDbLine
 10
-38714.09626996348
 20
38714.09626996348
 30
199800.0
 11
-37918.601141128616
 21
37918.601141128616
 31
210900.0
  0
LINE
  5
C3
330
17
100
AcDbEntity
  8
0
 62
5
100
AcDbLine
 10
-54750.0
 20
6.704941225331759e-12
 30
199800.0
 11
-53625.00000000001
 21
6.567168460427683e-12
 31
210900.0
  0
LINE
  5
C4
330
17
100
AcDbEntity
  8
0
 62
5
100
AcDbLine
 10
-38714.096269963484
 20
-38714.09626996348
 30
199800.0
 11
-37918.60114112862
 21
-37918.601141128616
 31
210900.0
  0
LINE
  5
C5
330
17
100
AcDbEntity
  8
0
 62
5
100
AcDbLine
 10
-1.0057411837997637e-11
 20
-54750.0
 30
199800.0
 11
-9.850752690641523e-12
 21
-53625.00000000001
 31
210900.0
  0
LINE
  5
C6
330
17
100
AcDbEntity
  8
0
 62
5
100
AcDbLine
 10
38714.09626996347
 20
-38714.096269963484
 30
199800.0
 11
37918.60114112861
 21
-37918.60114112862
 31
210900.0
  0
LINE
  5
C7
330
17
100
AcDbEntity
  8
0
 62
5
100
AcDbLine
 10
53625.00000000001
 20
0.0
 30
210900.0
 11
52500.0
 21
0.0
 31
222000.0
  0
LINE
  5
C8
330
17
100
AcDbEntity
  8
0
 62
5
100
AcDbLine
 10
37918.601141128616
 20
37918.601141128616
 30
210900.0
 11
37123.10601229375
 21
37123.10601229374
 31
222000.0
  0
LINE
  5
C9
330
17
100
AcDbEntity
  8
0
 62
5
100
AcDbLine
 10
3.2835842302138414e-12
 20
53625.00000000001
 30
210900.0
 11
3.2146978477618023e-12
 21
52500.0
 31
222000.0
  0
LINE
  5
CA
330
17
100
AcDbEntity
  8
0
 62
5
100
AcDbLine
 10
-37918.601141128616
 20
37918.601141128616
 30
210900.0
 11
-37123.10601229374
 21
37123.10601229375
 31
222000.0
  0
LINE
  5
CB
330
17
100
AcDbEntity
  8
0
 62
5
100
AcDbLine
 10
-53625.00000000001
 20
6.567168460427683e-12
 30
210900.0
 11
-52500.0
 21
6.429395695523605e-12
 31
222000.0
  0
LINE
  5
CC
330
17
100
AcDbEntity
  8
0
 62
5
100
AcDbLine
 10
-37918.60114112862
 20
-37918.601141128616
 30
210900.0
 11
-37123.106012293756
 21
-37123.10601229374
 31
222000.0
  0
LINE
  5
CD
330
17
100
AcDbEntity
  8
0
 62
5
100
AcDbLine
 10
-9.850752690641523e-12
 20
-53625.00000000001
 30
210900.0
 11
-9.644093543285406e-12
 21
-52500.0
 31
222000.0
  0
LINE
  5
CE
330
17
100
AcDbEntity
  8
0
 62
5
100
AcDbLine
 10
37918.60114112861
 20
-37918.60114112862
 30
210900.0
 11
37123.106012293734
 21
-37123.106012293756
 31
222000.0
  0
LINE
  5
CF
330
17
100
AcDbEntity
  8
0
 62
5
100
AcDbLine
 10
52500.0
 20
0.0
 30
222000.0
 11
51375.00000000001
 21
0.0
 31
233100.0
  0
LINE
  5
D0
330
17
100
AcDbEntity
  8
0
 62
5
100
AcDbLine
 10
37123.10601229375
 20
37123.10601229374
 30
222000.0
 11
36327.61088345889
 21
36327.61088345888
 31
233100.0
  0
LINE
  5
D1
330
17
100
AcDbEntity
  8
0
 62
5
100
AcDbLine
 10
3.2146978477618023e-12
 20
52500.0
 30
222000.0
 11
3.145811465309764e-12
 21
51375.00000000001
 31
233100.0
  0
LINE
  5
D2
330
17
100
AcDbEntity
  8
0
 62
5
100
AcDbLine
 10
-37123.10601229374
 20
37123.10601229375
 30
222000.0
 11
-36327.61088345888
 21
36327.61088345889
 31
233100.0
  0
LINE
  5
D3
330
17
100
AcDbEntity
  8
0
 62
5
100
AcDbLine
 10
-52500.0
 20
6.429395695523605e-12
 30
222000.0
 11
-51375.00000000001
 21
6.291622930619528e-12
 31
233100.0
  0
LINE
  5
D4
330
17
100
AcDbEntity
  8
0
 62
5
100
AcDbLine
 10
-37123.106012293756
 20
-37123.10601229374
 30
222000.0
 11
-36327.610883458896
 21
-36327.61088345888
 31
233100.0
  0
LINE
  5
D5
330
17
100
AcDbEntity
  8
0
 62
5
100
AcDbLine
 10
-9.644093543285406e-12
 20
-52500.0
 30
222000.0
 11
-9.437434395929291e-12
 21
-51375.00000000001
 31
233100.0
  0
LINE
  5
D6
330
17
100
AcDbEntity
  8
0
 62
5
100
AcDbLine
 10
37123.106012293734
 20
-37123.106012293756
 30
222000.0
 11
36327.610883458874
 21
-36327.610883458896
 31
233100.0
  0
LINE
  5
D7
330
17
100
AcDbEntity
  8
0
 62
5
100
AcDbLine
 10
51375.00000000001
 20
0.0
 30
233100.0
 11
50249.99999999999
 21
0.0
 31
244200.0
  0
LINE
  5
D8
330
17
100
AcDbEntity
  8
0
 62
5
100
AcDbLine
 10
36327.61088345889
 20
36327.61088345888
 30
233100.0
 11
35532.115754624014
 21
35532.11575462401
 31
244200.0
  0
LINE
  5
D9
330
17
100
AcDbEntity
  8
0
 62
5
100
AcDbLine
 10
3.145811465309764e-12
 20
51375.00000000001
 30
233100.0
 11
3.0769250828577246e-12
 21
50249.99999999999
 31
244200.0
  0
LINE
  5
DA
330
17
100
AcDbEntity
  8
0
 62
5
100
AcDbLine
 10
-36327.61088345888
 20
36327.61088345889
 30
233100.0
 11
-35532.11575462401
 21
35532.115754624014
 31
244200.0
  0
LINE
  5
DB
330
17
100
AcDbEntity
  8
0
 62
5
100
AcDbLine
 10
-51375.00000000001
 20
6.291622930619528e-12
 30
233100.0
 11
-50249.99999999999
 21
6.153850165715449e-12
 31
244200.0
  0
LINE
  5
DC
330
17
100
AcDbEntity
  8
0
 62
5
100
AcDbLine
 10
-36327.610883458896
 20
-36327.61088345888
 30
233100.0
 11
-35532.115754624014
 21
-35532.11575462401
 31
244200.0
  0
LINE
  5
DD
330
17
100
AcDbEntity
  8
0
 62
5
100
AcDbLine
 10
-9.437434395929291e-12
 20
-51375.00000000001
 30
233100.0
 11
-9.230775248573173e-12
 21
-50249.99999999999
 31
244200.0
  0
LINE
  5
DE
330
17
100
AcDbEntity
  8
0
 62
5
100
AcDbLine
 10
36327.610883458874
 20
-36327.610883458896
 30
233100.0
 11
35532.115754624
 21
-35532.115754624014
 31
244200.0
  0
LINE
  5
DF
330
17
100
AcDbEntity
  8
0
 62
5
100
AcDbLine
 10
50249.99999999999
 20
0.0
 30
244200.0
 11
49125.0
 21
0.0
 31
255300.0
  0
LINE
  5
E0
330
17
100
AcDbEntity
  8
0
 62
5
100
AcDbLine
 10
35532.115754624014
 20
35532.11575462401
 30
244200.0
 11
34736.620625789146
 21
34736.620625789146
 31
255300.0
  0
LINE
  5
E1
330
17
100
AcDbEntity
  8
0
 62
5
100
AcDbLine
 10
3.0769250828577246e-12
 20
50249.99999999999
 30
244200.0
 11
3.0080387004056863e-12
 21
49125.0
 31
255300.0
  0
LINE
  5
E2
330
17
100
AcDbEntity
  8
0
 62
5
100
AcDbLine
 10
-35532.11575462401
 20
35532.115754624014
 30
244200.0
 11
-34736.620625789146
 21
34736.620625789146
 31
255300.0
  0
LINE
  5
E3
330
17
100
AcDbEntity
  8
0
 62
5
100
AcDbLine
 10
-50249.99999999999
 20
6.153850165715449e-12
 30
244200.0
 11
-49125.0
 21
6.0160774008113726e-12
 31
255300.0
  0
LINE
  5
E4
330
17
100
AcDbEntity
  8
0
 62
5
100
AcDbLine
 10
-35532.115754624014
 20
-35532.11575462401
 30
244200.0
 11
-34736.62062578915
 21
-34736.620625789146
 31
255300.0
  0
LINE
  5
E5
330
17
100
AcDbEntity
  8
0
 62
5
100
AcDbLine
 10
-9.230775248573173e-12
 20
-50249.99999999999
 30
244200.0
 11
-9.024116101217058e-12
 21
-49125.0
 31
255300.0
  0
LINE
  5
E6
330
17
100
AcDbEntity
  8
0
 62
5
100
AcDbLine
 10
35532.115754624
 20
-35532.115754624014
 30
244200.0
 11
34736.62062578914
 21
-34736.62062578915
 31
255300.0
  0
LINE
  5
E7
330
17
100
AcDbEntity
  8
0
 62
5
100
AcDbLine
 10
49125.0
 20
0.0
 30
255300.0
 11
48000.0
 21
0.0
 31
266400.0
  0
LINE
  5
E8
330
17
100
AcDbEntity
  8
0
 62
5
100
AcDbLine
 10
34736.620625789146
 20
34736.620625789146
 30
255300.0
 11
33941.125496954286
 21
33941.12549695428
 31
266400.0
  0
LINE
  5
E9
330
17
100
AcDbEntity
  8
0
 62
5
100
AcDbLine
 10
3.0080387004056863e-12
 20
49125.0
 30
255300.0
 11
2.9391523179536476e-12
 21
48000.0
 31
266400.0
  0
LINE
  5
EA
330
17
100
AcDbEntity
  8
0
 62
5
100
AcDbLine
 10
-34736.620625789146
 20
34736.620625789146
 30
255300.0
 11
-33941.12549695428
 21
33941.125496954286
 31
266400.0
  0
LINE
  5
EB
330
17
100
AcDbEntity
  8
0
 62
5
100
AcDbLine
 10
-49125.0
 20
6.0160774008113726e-12
 30
255300.0
 11
-48000.0
 21
5.878304635907295e-12
 31
266400.0
  0
LINE
  5
EC
330
17
100
AcDbEntity
  8
0
 62
5
100
AcDbLine
 10
-34736.62062578915
 20
-34736.620625789146
 30
255300.0
 11
-33941.125496954286
 21
-33941.12549695428
 31
266400.0
  0
LINE
  5
ED
330
17
100
AcDbEntity
  8
0
 62
5
100
AcDbLine
 10
-9.024116101217058e-12
 20
-49125.0
 30
255300.0
 11
-8.817456953860942e-12
 21
-48000.0
 31
266400.0
  0
LINE
  5
EE
330
17
100
AcDbEntity
  8
0
 62
5
100
AcDbLine
 10
34736.62062578914
 20
-34736.62062578915
 30
255300.0
 11
33941.12549695427
 21
-33941.125496954286
 31
266400.0
  0
LINE
  5
EF
330
17
100
AcDbEntity
  8
0
 62
5
100
AcDbLine
 10
48000.0
 20
0.0
 30
266400.0
 11
46875.0
 21
0.0
 31
277500.0
  0
LINE
  5
F0
330
17
100
AcDbEntity
  8
0
 62
5
100
AcDbLine
 10
33941.125496954286
 20
33941.12549695428
 30
266400.0
 11
33145.63036811942
 21
33145.63036811941
 31
277500.0
  0
LINE
  5
F1
330
17
100
AcDbEntity
  8
0
 62
5
100
AcDbLine
 10
2.9391523179536476e-12
 20
48000.0
 30
266400.0
 11
2.870265935501609e-12
 21
46875.0
 31
277500.0
  0
LINE
  5
F2
330
17
100
AcDbEntity
  8
0
 62
5
100
AcDbLine
 10
-33941.12549695428
 20
33941.125496954286
 30
266400.0
 11
-33145.63036811941
 21
33145.63036811942
 31
277500.0
  0
LINE
  5
F3
330
17
100
AcDbEntity
  8
0
 62
5
100
AcDbLine
 10
-48000.0
 20
5.878304635907295e-12
 30
266400.0
 11
-46875.0
 21
5.740531871003218e-12
 31
277500.0
  0
LINE
  5
F4
330
17
100
AcDbEntity
  8
0
 62
5
100
AcDbLine
 10
-33941.125496954286
 20
-33941.12549695428
 30
266400.0
 11
-33145.630368119426
 21
-33145.63036811941
 31
277500.0
  0
LINE
  5
F5
330
17
100
AcDbEntity
  8
0
 62
5
100
AcDbLine
 10
-8.817456953860942e-12
 20
-48000.0
 30
266400.0
 11
-8.610797806504827e-12
 21
-46875.0
 31
277500.0
  0
LINE
  5
F6
330
17
100
AcDbEntity
  8
0
 62
5
100
AcDbLine
 10
33941.12549695427
 20
-33941.125496954286
 30
266400.0
 11
33145.630368119404
 21
-33145.630368119426
 31
277500.0
  0
LINE
  5
F7
330
17
100
AcDbEntity
  8
0
 62
5
100
AcDbLine
 10
46875.0
 20
0.0
 30
277500.0
 11
45750.0
 21
0.0
 31
288600.0
  0
LINE
  5
F8
330
17
100
AcDbEntity
  8
0
 62
5
100
AcDbLine
 10
33145.63036811942
 20
33145.63036811941
 30
277500.0
 11
32350.13523928455
 21
32350.135239284547
 31
288600.0
  0
LINE
  5
F9
330
17
100
AcDbEntity
  8
0
 62
5
100
AcDbLine
 10
2.870265935501609e-12
 20
46875.0
 30
277500.0
 11
2.8013795530495706e-12
 21
45750.0
 31
288600.0
  0
LINE
  5
FA
330
17
100
AcDbEntity
  8
0
 62
5
100
AcDbLine
 10
-33145.63036811941
 20
33145.63036811942
 30
277500.0
 11
-32350.135239284547
 21
32350.13523928455
 31
288600.0
  0
LINE
  5
FB
330
17
100
AcDbEntity
  8
0
 62
5
100
AcDbLine
 10
-46875.0
 20
5.740531871003218e-12
 30
277500.0
 11
-45750.0
 21
5.602759106099141e-12
 31
288600.0
  0
LINE
  5
FC
330
17
100
AcDbEntity
  8
0
 62
5
100
AcDbLine
 10
-33145.630368119426
 20
-33145.63036811941
 30
277500.0
 11
-32350.13523928456
 21
-32350.135239284547
 31
288600.0
  0
LINE
  5
FD
330
17
100
AcDbEntity
  8
0
 62
5
100
AcDbLine
 10
-8.610797806504827e-12
 20
-46875.0
 30
277500.0
 11
-8.40413865914871e-12
 21
-45750.0
 31
288600.0
  0
LINE
  5
FE
330
17
100
AcDbEntity
  8
0
 62
5
100
AcDbLine
 10
33145.630368119404
 20
-33145.630368119426
 30
277500.0
 11
32350.13523928454
 21
-32350.13523928456
 31
288600.0
  0
LINE
  5
FF
330
17
100
AcDbEntity
  8
0
 62
5
100
AcDbLine
 10
45750.0
 20
0.0
 30
288600.0
 11
44625.0
 21
0.0
 31
299700.0
  0
LINE
  5
100
330
17
100
AcDbEntity
  8
0
 62
5
100
AcDbLine
 10
32350.13523928455
 20
32350.135239284547
 30
288600.0
 11
31554.640110449687
 21
31554.64011044968
 31
299700.0
  0
LINE
  5
101
330
17
100
AcDbEntity
  8
0
 62
5
100
AcDbLine
 10
2.8013795530495706e-12
 20
45750.0
 30
288600.0
 11
2.732493170597532e-12
 21
44625.0
 31
299700.0
  0
LINE
  5
102
330
17
100
AcDbEntity
  8
0
 62
5
100
AcDbLine
 10
-32350.135239284547
 20
32350.13523928455
 30
288600.0
 11
-31554.64011044968
 21
31554.640110449687
 31
299700.0
  0
LINE
  5
103
330
17
100
AcDbEntity
  8
0
 62
5
100
AcDbLine
 10
-45750.0
 20
5.602759106099141e-12
 30
288600.0
 11
-44625.0
 21
5.464986341195064e-12
 31
299700.0
  0
LINE
  5
104
330
17
100
AcDbEntity
  8
0
 62
5
100
AcDbLine
 10
-32350.13523928456
 20
-32350.135239284547
 30
288600.0
 11
-31554.64011044969
 21
-31554.64011044968
 31
299700.0
  0
LINE
  5
105
330
17
100
AcDbEntity
  8
0
 62
5
100
AcDbLine
 10
-8.40413865914871e-12
 20
-45750.0
 30
288600.0
 11
-8.197479511792594e-12
 21
-44625.0
 31
299700.0
  0
LINE
  5
106
330
17
100
AcDbEntity
  8
0
 62
5
100
AcDbLine
 10
32350.13523928454
 20
-32350.13523928456
 30
288600.0
 11
31554.640110449676
 21
-31554.64011044969
 31
299700.0
  0
LINE
  5
107
330
17
100
AcDbEntity
  8
0
 62
5
100
AcDbLine
 10
44625.0
 20
0.0
 30
299700.0
 11
43500.00000000001
 21
0.0
 31
310800.0
  0
LINE
  5
108
330
17
100
AcDbEntity
  8
0
 62
5
100
AcDbLine
 10
31554.640110449687
 20
31554.64011044968
 30
299700.0
 11
30759.144981614823
 21
30759.14498161482
 31
310800.0
  0
LINE
  5
109
330
17
100
AcDbEntity
  8
0
 62
5
100
AcDbLine
 10
2.732493170597532e-12
 20
44625.0
 30
299700.0
 11
2.6636067881454937e-12
 21
43500.00000000001
 31
310800.0
  0
LINE
  5
10A
330
17
100
AcDbEntity
  8
0
 62
5
100
AcDbLine
 10
-31554.64011044968
 20
31554.640110449687
 30
299700.0
 11
-30759.14498161482
 21
30759.144981614823
 31
310800.0
  0
LINE
  5
10B
330
17
100
AcDbEntity
  8
0
 62
5
100
AcDbLine
 10
-44625.0
 20
5.464986341195064e-12
 30
299700.0
 11
-43500.00000000001
 21
5.327213576290987e-12
 31
310800.0
  0
LINE
  5
10C
330
17
100
AcDbEntity
  8
0
 62
5
100
AcDbLine
 10
-31554.64011044969
 20
-31554.64011044968
 30
299700.0
 11
-30759.14498161483
 21
-30759.14498161482
 31
310800.0
  0
LINE
  5
10D
330
17
100
AcDbEntity
  8
0
 62
5
100
AcDbLine
 10
-8.197479511792594e-12
 20
-44625.0
 30
299700.0
 11
-7.990820364436481e-12
 21
-43500.00000000001
 31
310800.0
  0
LINE
  5
10E
330
17
100
AcDbEntity
  8
0
 62
5
100
AcDbLine
 10
31554.640110449676
 20
-31554.64011044969
 30
299700.0
 11
30759.144981614816
 21
-30759.14498161483
 31
310800.0
  0
LINE
  5
10F
330
17
100
AcDbEntity
  8
0
 62
5
100
AcDbLine
 10
43500.00000000001
 20
0.0
 30
310800.0
 11
42374.99999999999
 21
0.0
 31
321900.0
  0
LINE
  5
110
330
17
100
AcDbEntity
  8
0
 62
5
100
AcDbLine
 10
30759.144981614823
 20
30759.14498161482
 30
310800.0
 11
29963.64985277995
 21
29963.649852779945
 31
321900.0
  0
LINE
  5
111
330
17
100
AcDbEntity
  8
0
 62
5
100
AcDbLine
 10
2.6636067881454937e-12
 20
43500.00000000001
 30
310800.0
 11
2.594720405693454e-12
 21
42374.99999999999
 31
321900.0
  0
LINE
  5
112
330
17
100
AcDbEntity
  8
0
 62
5
100
AcDbLine
 10
-30759.14498161482
 20
30759.144981614823
 30
310800.0
 11
-29963.649852779945
 21
29963.64985277995
 31
321900.0
  0
LINE
  5
113
330
17
100
AcDbEntity
  8
0
 62
5
100
AcDbLine
 10
-43500.00000000001
 20
5.327213576290987e-12
 30
310800.0
 11
-42374.99999999999
 21
5.189440811386908e-12
 31
321900.0
  0
LINE
  5
114
330
17
100
AcDbEntity
  8
0
 62
5
100
AcDbLine
 10
-30759.14498161483
 20
-30759.14498161482
 30
310800.0
 11
-29963.649852779952
 21
-29963.649852779945
 31
321900.0
  0
LINE
  5
115
330
17
100
AcDbEntity
  8
0
 62
5
100
AcDbLine
 10
-7.990820364436481e-12
 20
-43500.00000000001
 30
310800.0
 11
-7.784161217080361e-12
 21
-42374.99999999999
 31
321900.0
  0
LINE
  5
116
330
17
100
AcDbEntity
  8
0
 62
5
100
AcDbLine
 10
30759.144981614816
 20
-30759.14498161483
 30
310800.0
 11
29963.649852779938
 21
-29963.649852779952
 31
321900.0
  0
LINE
  5
117
330
17
100
AcDbEntity
  8
0
 62
5
100
AcDbLine
 10
42374.99999999999
 20
0.0
 30
321900.0
 11
41250.0
 21
0.0
 31
333000.0
  0
LINE
  5
118
330
17
100
AcDbEntity
  8
0
 62
5
100
AcDbLine
 10
29963.64985277995
 20
29963.649852779945
 30
321900.0
 11
29168.15472394509
 21
29168.15472394508
 31
333000.0
  0
LINE
  5
119
330
17
100
AcDbEntity
  8
0
 62
5
100
AcDbLine
 10
2.594720405693454e-12
 20
42374.99999999999
 30
321900.0
 11
2.525834023241416e-12
 21
41250.0
 31
333000.0
  0
LINE
  5
11A
330
17
100
AcDbEntity
  8
0
 62
5
100
AcDbLine
 10
-29963.649852779945
 20
29963.64985277995
 30
321900.0
 11
-29168.15472394508
 21
29168.15472394509
 31
333000.0
  0
LINE
  5
11B
330
17
100
AcDbEntity
  8
0
 62
5
100
AcDbLine
 10
-42374.99999999999
 20
5.189440811386908e-12
 30
321900.0
 11
-41250.0
 21
5.051668046482832e-12
 31
333000.0
  0
LINE
  5
11C
330
17
100
AcDbEntity
  8
0
 62
5
100
AcDbLine
 10
-29963.649852779952
 20
-29963.649852779945
 30
321900.0
 11
-29168.154723945092
 21
-29168.15472394508
 31
333000.0
  0
LINE
  5
11D
330
17
100
AcDbEntity
  8
0
 62
5
100
AcDbLine
 10
-7.784161217080361e-12
 20
-42374.99999999999
 30
321900.0
 11
-7.577502069724248e-12
 21
-41250.0
 31
333000.0
  0
LINE
  5
11E
330
17
100
AcDbEntity
  8
0
 62
5
100
AcDbLine
 10
29963.649852779938
 20
-29963.649852779952
 30
321900.0
 11
29168.154723945077
 21
-29168.154723945092
 31
333000.0
  0
LINE
  5
11F
330
17
100
AcDbEntity
  8
0
 62
5
100
AcDbLine
 10
41250.0
 20
0.0
 30
333000.0
 11
40125.0
 21
0.0
 31
344100.0
  0
LINE
  5
120
330
17
100
AcDbEntity
  8
0
 62
5
100
AcDbLine
 10
29168.15472394509
 20
29168.15472394508
 30
333000.0
 11
28372.65959511022
 21
28372.659595110217
 31
344100.0
  0
LINE
  5
121
330
17
100
AcDbEntity
  8
0
 62
5
100
AcDbLine
 10
2.525834023241416e-12
 20
41250.0
 30
333000.0
 11
2.4569476407893772e-12
 21
40125.0
 31
344100.0
  0
LINE
  5
122
330
17
100
AcDbEntity
  8
0
 62
5
100
AcDbLine
 10
-29168.15472394508
 20
29168.15472394509
 30
333000.0
 11
-28372.659595110217
 21
28372.65959511022
 31
344100.0
  0
LINE
  5
123
330
17
100
AcDbEntity
  8
0
 62
5
100
AcDbLine
 10
-41250.0
 20
5.051668046482832e-12
 30
333000.0
 11
-40125.0
 21
4.9138952815787544e-12
 31
344100.0
  0
LINE
  5
124
330
17
100
AcDbEntity
  8
0
 62
5
100
AcDbLine
 10
-29168.154723945092
 20
-29168.15472394508
 30
333000.0
 11
-28372.659595110224
 21
-28372.659595110217
 31
344100.0
  0
LINE
  5
125
330
17
100
AcDbEntity
  8
0
 62
5
100
AcDbLine
 10
-7.577502069724248e-12
 20
-41250.0
 30
333000.0
 11
-7.370842922368132e-12
 21
-40125.0
 31
344100.0
  0
LINE
  5
126
330
17
100
AcDbEntity
  8
0
 62
5
100
AcDbLine
 10
29168.154723945077
 20
-29168.154723945092
 30
333000.0
 11
28372.659595110214
 21
-28372.659595110224
 31
344100.0
  0
LINE
  5
127
330
17
100
AcDbEntity
  8
0
 62
5
100
AcDbLine
 10
40125.0
 20
0.0
 30
344100.0
 11
39000.0
 21
0.0
 31
355200.0
  0
LINE
  5
128
330
17
100
AcDbEntity
  8
0
 62
5
100
AcDbLine
 10
28372.65959511022
 20
28372.659595110217
 30
344100.0
 11
27577.164466275357
 21
27577.16446627535
 31
355200.0
  0
LINE
  5
129
330
17
100
AcDbEntity
  8
0
 62
5
100
AcDbLine
 10
2.4569476407893772e-12
 20
40125.0
 30
344100.0
 11
2.388061258337339e-12
 21
39000.0
 31
355200.0
  0
LINE
  5
12A
330
17
100
AcDbEntity
  8
0
 62
5
100
AcDbLine
 10
-28372.659595110217
 20
28372.65959511022
 30
344100.0
 11
-27577.16446627535
 21
27577.164466275357
 31
355200.0
  0
LINE
  5
12B
330
17
100
AcDbEntity
  8
0
 62
5
100
AcDbLine
 10
-40125.0
 20
4.9138952815787544e-12
 30
344100.0
 11
-39000.0
 21
4.776122516674678e-12
 31
355200.0
  0
LINE
  5
12C
330
17
100
AcDbEntity
  8
0
 62
5
100
AcDbLine
 10
-28372.659595110224
 20
-28372.659595110217
 30
344100.0
 11
-27577.16446627536
 21
-27577.16446627535
 31
355200.0
  0
LINE
  5
12D
330
17
100
AcDbEntity
  8
0
 62
5
100
AcDbLine
 10
-7.370842922368132e-12
 20
-40125.0
 30
344100.0
 11
-7.164183775012016e-12
 21
-39000.0
 31
355200.0
  0
LINE
  5
12E
330
17
100
AcDbEntity
  8
0
 62
5
100
AcDbLine
 10
28372.659595110214
 20
-28372.659595110224
 30
344100.0
 11
27577.164466275346
 21
-27577.16446627536
 31
355200.0
  0
LINE
  5
12F
330
17
100
AcDbEntity
  8
0
 62
5
100
AcDbLine
 10
39000.0
 20
0.0
 30
355200.0
 11
37875.00000000001
 21
0.0
 31
366300.0
  0
LINE
  5
130
330
17
100
AcDbEntity
  8
0
 62
5
100
AcDbLine
 10
27577.164466275357
 20
27577.16446627535
 30
355200.0
 11
26781.669337440493
 21
26781.66933744049
 31
366300.0
  0
LINE
  5
131
330
17
100
AcDbEntity
  8
0
 62
5
100
AcDbLine
 10
2.388061258337339e-12
 20
39000.0
 30
355200.0
 11
2.3191748758853006e-12
 21
37875.00000000001
 31
366300.0
  0
LINE
  5
132
330
17
100
AcDbEntity
  8
0
 62
5
100
AcDbLine
 10
-27577.16446627535
 20
27577.164466275357
 30
355200.0
 11
-26781.66933744049
 21
26781.669337440493
 31
366300.0
  0
LINE
  5
133
330
17
100
AcDbEntity
  8
0
 62
5
100
AcDbLine
 10
-39000.0
 20
4.776122516674678e-12
 30
355200.0
 11
-37875.00000000001
 21
4.638349751770601e-12
 31
366300.0
  0
LINE
  5
134
330
17
100
AcDbEntity
  8
0
 62
5
100
AcDbLine
 10
-27577.16446627536
 20
-27577.16446627535
 30
355200.0
 11
-26781.6693374405
 21
-26781.66933744049
 31
366300.0
  0
LINE
  5
135
330
17
100
AcDbEntity
  8
0
 62
5
100
AcDbLine
 10
-7.164183775012016e-12
 20
-39000.0
 30
355200.0
 11
-6.957524627655901e-12
 21
-37875.00000000001
 31
366300.0
  0
LINE
  5
136
330
17
100
AcDbEntity
  8
0
 62
5
100
AcDbLine
 10
27577.164466275346
 20
-27577.16446627536
 30
355200.0
 11
26781.669337440486
 21
-26781.6693374405
 31
366300.0
  0
LINE
  5
137
330
17
100
AcDbEntity
  8
0
 62
5
100
AcDbLine
 10
37875.00000000001
 20
0.0
 30
366300.0
 11
36750.0
 21
0.0
 31
377400.0
  0
LINE
  5
138
330
17
100
AcDbEntity
  8
0
 62
5
100
AcDbLine
 10
26781.669337440493
 20
26781.66933744049
 30
366300.0
 11
25986.174208605622
 21
25986.17420860562
 31
377400.0
  0
LINE
  5
139
330
17
100
AcDbEntity
  8
0
 62
5
100
AcDbLine
 10
2.3191748758853006e-12
 20
37875.00000000001
 30
366300.0
 11
2.2502884934332616e-12
 21
36750.0
 31
377400.0
  0
LINE
  5
13A
330
17
100
AcDbEntity
  8
0
 62
5
100
AcDbLine
 10
-26781.66933744049
 20
26781.669337440493
 30
366300.0
 11
-25986.17420860562
 21
25986.174208605622
 31
377400.0
  0
LINE
  5
13B
330
17
100
AcDbEntity
  8
0
 62
5
100
AcDbLine
 10
-37875.00000000001
 20
4.638349751770601e-12
 30
366300.0
 11
-36750.0
 21
4.500576986866523e-12
 31
377400.0
  0
LINE
  5
13C
330
17
100
AcDbEntity
  8
0
 62
5
100
AcDbLine
 10
-26781.6693374405
 20
-26781.66933744049
 30
366300.0
 11
-25986.174208605626
 21
-25986.17420860562
 31
377400.0
  0
LINE
  5
13D
330
17
100
AcDbEntity
  8
0
 62
5
100
AcDbLine
 10
-6.957524627655901e-12
 20
-37875.00000000001
 30
366300.0
 11
-6.750865480299784e-12
 21
-36750.0
 31
377400.0
  0
LINE
  5
13E
330
17
100
AcDbEntity
  8
0
 62
5
100
AcDbLine
 10
26781.669337440486
 20
-26781.6693374405
 30
366300.0
 11
25986.174208605615
 21
-25986.174208605626
 31
377400.0
  0
LINE
  5
13F
330
17
100
AcDbEntity
  8
0
 62
5
100
AcDbLine
 10
36750.0
 20
0.0
 30
377400.0
 11
35625.0
 21
0.0
 31
388500.0
  0
LINE
  5
140
330
17
100
AcDbEntity
  8
0
 62
5
100
AcDbLine
 10
25986.174208605622
 20
25986.17420860562
 30
377400.0
 11
25190.679079770758
 21
25190.679079770754
 31
388500.0
  0
LINE
  5
141
330
17
100
AcDbEntity
  8
0
 62
5
100
AcDbLine
 10
2.2502884934332616e-12
 20
36750.0
 30
377400.0
 11
2.181402110981223e-12
 21
35625.0
 31
388500.0
  0
LINE
  5
142
330
17
100
AcDbEntity
  8
0
 62
5
100
AcDbLine
 10
-25986.17420860562
 20
25986.174208605622
 30
377400.0
 11
-25190.679079770754
 21
25190.679079770758
 31
388500.0
  0
LINE
  5
143
330
17
100
AcDbEntity
  8
0
 62
5
100
AcDbLine
 10
-36750.0
 20
4.500576986866523e-12
 30
377400.0
 11
-35625.0
 21
4.362804221962446e-12
 31
388500.0
  0
LINE
  5
144
330
17
100
AcDbEntity
  8
0
 62
5
100
AcDbLine
 10
-25986.174208605626
 20
-25986.17420860562
 30
377400.0
 11
-25190.67907977076
 21
-25190.679079770754
 31
388500.0
  0
LINE
  5
145
330
17
100
AcDbEntity
  8
0
 62
5
100
AcDbLine
 10
-6.750865480299784e-12
 20
-36750.0
 30
377400.0
 11
-6.544206332943668e-12
 21
-35625.0
 31
388500.0
  0
LINE
  5
146
330
17
100
AcDbEntity
  8
0
 62
5
100
AcDbLine
 10
25986.174208605615
 20
-25986.174208605626
 30
377400.0
 11
25190.67907977075
 21
-25190.67907977076
 31
388500.0
  0
LINE
  5
147
330
17
100
AcDbEntity
  8
0
 62
5
100
AcDbLine
 10
35625.0
 20
0.0
 30
388500.0
 11
34500.0
 21
0.0
 31
399600.0
  0
LINE
  5
148
330
17
100
AcDbEntity
  8
0
 62
5
100
AcDbLine
 10
25190.679079770758
 20
25190.679079770754
 30
388500.0
 11
24395.18395093589
 21
24395.183950935887
 31
399600.0
  0
LINE
  5
149
330
17
100
AcDbEntity
  8
0
 62
5
100
AcDbLine
 10
2.181402110981223e-12
 20
35625.0
 30
388500.0
 11
2.112515728529184e-12
 21
34500.0
 31
399600.0
  0
LINE
  5
14A
330
17
100
AcDbEntity
  8
0
 62
5
100
AcDbLine
 10
-25190.679079770754
 20
25190.679079770758
 30
388500.0
 11
-24395.183950935887
 21
24395.18395093589
 31
399600.0
  0
LINE
  5
14B
330
17
100
AcDbEntity
  8
0
 62
5
100
AcDbLine
 10
-35625.0
 20
4.362804221962446e-12
 30
388500.0
 11
-34500.0
 21
4.225031457058368e-12
 31
399600.0
  0
LINE
  5
14C
330
17
100
AcDbEntity
  8
0
 62
5
100
AcDbLine
 10
-25190.67907977076
 20
-25190.679079770754
 30
388500.0
 11
-24395.183950935894
 21
-24395.183950935887
 31
399600.0
  0
LINE
  5
14D
330
17
100
AcDbEntity
  8
0
 62
5
100
AcDbLine
 10
-6.544206332943668e-12
 20
-35625.0
 30
388500.0
 11
-6.3375471855875526e-12
 21
-34500.0
 31
399600.0
  0
LINE
  5
14E
330
17
100
AcDbEntity
  8
0
 62
5
100
AcDbLine
 10
25190.67907977075
 20
-25190.67907977076
 30
388500.0
 11
24395.183950935883
 21
-24395.183950935894
 31
399600.0
  0
LINE
  5
14F
330
17
100
AcDbEntity
  8
0
 62
5
100
AcDbLine
 10
34500.0
 20
0.0
 30
399600.0
 11
33374.99999999999
 21
0.0
 31
410700.0
  0
LINE
  5
150
330
17
100
AcDbEntity
  8
0
 62
5
100
AcDbLine
 10
24395.18395093589
 20
24395.183950935887
 30
399600.0
 11
23599.68882210102
 21
23599.688822101016
 31
410700.0
  0
LINE
  5
151
330
17
100
AcDbEntity
  8
0
 62
5
100
AcDbLine
 10
2.112515728529184e-12
 20
34500.0
 30
399600.0
 11
2.043629346077145e-12
 21
33374.99999999999
 31
410700.0
  0
LINE
  5
152
330
17
100
AcDbEntity
  8
0
 62
5
100
AcDbLine
 10
-24395.183950935887
 20
24395.18395093589
 30
399600.0
 11
-23599.688822101016
 21
23599.68882210102
 31
410700.0
  0
LINE
  5
153
330
17
100
AcDbEntity
  8
0
 62
5
100
AcDbLine
 10
-34500.0
 20
4.225031457058368e-12
 30
399600.0
 11
-33374.99999999999
 21
4.08725869215429e-12
 31
410700.0
  0
LINE
  5
154
330
17
100
AcDbEntity
  8
0
 62
5
100
AcDbLine
 10
-24395.183950935894
 20
-24395.183950935887
 30
399600.0
 11
-23599.688822101023
 21
-23599.688822101016
 31
410700.0
  0
LINE
  5
155
330
17
100
AcDbEntity
  8
0
 62
5
100
AcDbLine
 10
-6.3375471855875526e-12
 20
-34500.0
 30
399600.0
 11
-6.130888038231435e-12
 21
-33374.99999999999
 31
410700.0
  0
LINE
  5
156
330
17
100
AcDbEntity
  8
0
 62
5
100
AcDbLine
 10
24395.183950935883
 20
-24395.183950935894
 30
399600.0
 11
23599.688822101012
 21
-23599.688822101023
 31
410700.0
  0
LINE
  5
157
330
17
100
AcDbEntity
  8
0
 62
5
100
AcDbLine
 10
33374.99999999999
 20
0.0
 30
410700.0
 11
32250.000000000004
 21
0.0
 31
421800.0
  0
LINE
  5
158
330
17
100
AcDbEntity
  8
0
 62
5
100
AcDbLine
 10
23599.68882210102
 20
23599.688822101016
 30
410700.0
 11
22804.193693266163
 21
22804.19369326616
 31
421800.0
  0
LINE
  5
159
330
17
100
AcDbEntity
  8
0
 62
5
100
AcDbLine
 10
2.043629346077145e-12
 20
33374.99999999999
 30
410700.0
 11
1.9747429636251072e-12
 21
32250.000000000004
 31
421800.0
  0
LINE
  5
15A
330
17
100
AcDbEntity
  8
0
 62
5
100
AcDbLine
 10
-23599.688822101016
 20
23599.68882210102
 30
410700.0
 11
-22804.19369326616
 21
22804.193693266163
 31
421800.0
  0
LINE
  5
15B
330
17
100
AcDbEntity
  8
0
 62
5
100
AcDbLine
 10
-33374.99999999999
 20
4.08725869215429e-12
 30
410700.0
 11
-32250.000000000004
 21
3.9494859272502144e-12
 31
421800.0
  0
LINE
  5
15C
330
17
100
AcDbEntity
  8
0
 62
5
100
AcDbLine
 10
-23599.688822101023
 20
-23599.688822101016
 30
410700.0
 11
-22804.193693266167
 21
-22804.19369326616
 31
421800.0
  0
LINE
  5
15D
330
17
100
AcDbEntity
  8
0
 62
5
100
AcDbLine
 10
-6.130888038231435e-12
 20
-33374.99999999999
 30
410700.0
 11
-5.924228890875321e-12
 21
-32250.000000000004
 31
421800.0
  0
LINE
  5
15E
330
17
100
AcDbEntity
  8
0
 62
5
100
AcDbLine
 10
23599.688822101012
 20
-23599.688822101023
 30
410700.0
 11
22804.193693266156
 21
-22804.193693266167
 31
421800.0
  0
LINE
  5
15F
330
17
100
AcDbEntity
  8
0
 62
5
100
AcDbLine
 10
32250.000000000004
 20
0.0
 30
421800.0
 11
31125.000000000004
 21
0.0
 31
432900.0
  0
LINE
  5
160
330
17
100
AcDbEntity
  8
0
 62
5
100
AcDbLine
 10
22804.193693266163
 20
22804.19369326616
 30
421800.0
 11
22008.698564431295
 21
22008.69856443129
 31
432900.0
  0
LINE
  5
161
330
17
100
AcDbEntity
  8
0
 62
5
100
AcDbLine
 10
1.9747429636251072e-12
 20
32250.000000000004
 30
421800.0
 11
1.9058565811730685e-12
 21
31125.000000000004
 31
432900.0
  0
LINE
  5
162
330
17
100
AcDbEntity
  8
0
 62
5
100
AcDbLine
 10
-22804.19369326616
 20
22804.193693266163
 30
421800.0
 11
-22008.69856443129
 21
22008.698564431295
 31
432900.0
  0
LINE
  5
163
330
17
100
AcDbEntity
  8
0
 62
5
100
AcDbLine
 10
-32250.000000000004
 20
3.9494859272502144e-12
 30
421800.0
 11
-31125.000000000004
 21
3.811713162346137e-12
 31
432900.0
  0
LINE
  5
164
330
17
100
AcDbEntity
  8
0
 62
5
100
AcDbLine
 10
-22804.193693266167
 20
-22804.19369326616
 30
421800.0
 11
-22008.6985644313
 21
-22008.69856443129
 31
432900.0
  0
LINE
  5
165
330
17
100
AcDbEntity
  8
0
 62
5
100
AcDbLine
 10
-5.924228890875321e-12
 20
-32250.000000000004
 30
421800.0
 11
-5.717569743519206e-12
 21
-31125.000000000004
 31
432900.0
  0
LINE
  5
166
330
17
100
AcDbEntity
  8
0
 62
5
100
AcDbLine
 10
22804.193693266156
 20
-22804.193693266167
 30
421800.0
 11
22008.698564431288
 21
-22008.6985644313
 31
432900.0
  0
LINE
  5
167
330
17
100
AcDbEntity
  8
0
 62
5
100
AcDbLine
 10
31125.000000000004
 20
0.0
 30
432900.0
 11
30000.0
 21
0.0
 31
444000.0
  0
LINE
  5
168
330
17
100
AcDbEntity
  8
0
 62
5
100
AcDbLine
 10
22008.698564431295
 20
22008.69856443129
 30
432900.0
 11
21213.203435596428
 21
21213.203435596424
 31
444000.0
  0
LINE
  5
169
330
17
100
AcDbEntity
  8
0
 62
5
100
AcDbLine
 10
1.9058565811730685e-12
 20
31125.000000000004
 30
432900.0
 11
1.83697019872103e-12
 21
30000.0
 31
444000.0
  0
LINE
  5
16A
330
17
100
AcDbEntity
  8
0
 62
5
100
AcDbLine
 10
-22008.69856443129
 20
22008.698564431295
 30
432900.0
 11
-21213.203435596424
 21
21213.203435596428
 31
444000.0
  0
LINE
  5
16B
330
17
100
AcDbEntity
  8
0
 62
5
100
AcDbLine
 10
-31125.000000000004
 20
3.811713162346137e-12
 30
432900.0
 11
-30000.0
 21
3.67394039744206e-12
 31
444000.0
  0
LINE
  5
16C
330
17
100
AcDbEntity
  8
0
 62
5
100
AcDbLine
 10
-22008.6985644313
 20
-22008.69856443129
 30
432900.0
 11
-21213.20343559643
 21
-21213.203435596424
 31
444000.0
  0
LINE
  5
16D
330
17
100
AcDbEntity
  8
0
 62
5
100
AcDbLine
 10
-5.717569743519206e-12
 20
-31125.000000000004
 30
432900.0
 11
-5.510910596163089e-12
 21
-30000.0
 31
444000.0
  0
LINE
  5
16E
330
17
100
AcDbEntity
  8
0
 62
5
100
AcDbLine
 10
22008.698564431288
 20
-22008.6985644313
 30
432900.0
 11
21213.20343559642
 21
-21213.20343559643
 31
444000.0
  0
LINE
  5
16F
330
17
100
AcDbEntity
  8
0
 62
5
100
AcDbLine
 10
75000.0
 20
75000.0
 30
0.0
 11
75000.0
 21
75000.0
 31
14800.0
  0
LINE
  5
170
330
17
100
AcDbEntity
  8
0
 62
5
100
AcDbLine
 10
-75000.0
 20
75000.0
 30
0.0
 11
-75000.0
 21
75000.0
 31
14800.0
  0
LINE
  5
171
330
17
100
AcDbEntity
  8
0
 62
5
100
AcDbLine
 10
-75000.0
 20
-75000.0
 30
0.0
 11
-75000.0
 21
-75000.0
 31
14800.0
  0
LINE
  5
172
330
17
100
AcDbEntity
  8
0
 62
5
100
AcDbLine
 10
75000.0
 20
-75000.0
 30
0.0
 11
75000.0
 21
-75000.0
 31
14800.0
  0
LINE
  5
173
330
17
100
AcDbEntity
  8
0
 62
5
100
AcDbLine
 10
75000.0
 20
0.0
 30
0.0
 11
75000.0
 21
0.0
 31
14800.0
  0
LINE
  5
174
330
17
100
AcDbEntity
  8
0
 62
5
100
AcDbLine
 10
-75000.0
 20
0.0
 30
0.0
 11
-75000.0
 21
0.0
 31
14800.0
  0
LINE
  5
175
330
17
100
AcDbEntity
  8
0
 62
5
100
AcDbLine
 10
0.0
 20
75000.0
 30
0.0
 11
0.0
 21
75000.0
 31
14800.0
  0
LINE
  5
176
330
17
100
AcDbEntity
  8
0
 62
5
100
AcDbLine
 10
0.0
 20
-75000.0
 30
0.0
 11
0.0
 21
-75000.0
 31
14800.0
  0
LINE
  5
177
330
17
100
AcDbEntity
  8
0
 62
5
100
AcDbLine
 10
75000.0
 20
75000.0
 30
14800.0
 11
75000.0
 21
75000.0
 31
29600.0
  0
LINE
  5
178
330
17
100
AcDbEntity
  8
0
 62
5
100
AcDbLine
 10
-75000.0
 20
75000.0
 30
14800.0
 11
-75000.0
 21
75000.0
 31
29600.0
  0
LINE
  5
179
330
17
100
AcDbEntity
  8
0
 62
5
100
AcDbLine
 10
-75000.0
 20
-75000.0
 30
14800.0
 11
-75000.0
 21
-75000.0
 31
29600.0
  0
LINE
  5
17A
330
17
100
AcDbEntity
  8
0
 62
5
100
AcDbLine
 10
75000.0
 20
-75000.0
 30
14800.0
 11
75000.0
 21
-75000.0
 31
29600.0
  0
LINE
  5
17B
330
17
100
AcDbEntity
  8
0
 62
5
100
AcDbLine
 10
75000.0
 20
0.0
 30
14800.0
 11
75000.0
 21
0.0
 31
29600.0
  0
LINE
  5
17C
330
17
100
AcDbEntity
  8
0
 62
5
100
AcDbLine
 10
-75000.0
 20
0.0
 30
14800.0
 11
-75000.0
 21
0.0
 31
29600.0
  0
LINE
  5
17D
330
17
100
AcDbEntity
  8
0
 62
5
100
AcDbLine
 10
0.0
 20
75000.0
 30
14800.0
 11
0.0
 21
75000.0
 31
29600.0
  0
LINE
  5
17E
330
17
100
AcDbEntity
  8
0
 62
5
100
AcDbLine
 10
0.0
 20
-75000.0
 30
14800.0
 11
0.0
 21
-75000.0
 31
29600.0
  0
LINE
  5
17F
330
17
100
AcDbEntity
  8
0
 62
5
100
AcDbLine
 10
75000.0
 20
75000.0
 30
29600.0
 11
75000.0
 21
75000.0
 31
44400.0
  0
LINE
  5
180
330
17
100
AcDbEntity
  8
0
 62
5
100
AcDbLine
 10
-75000.0
 20
75000.0
 30
29600.0
 11
-75000.0
 21
75000.0
 31
44400.0
  0
LINE
  5
181
330
17
100
AcDbEntity
  8
0
 62
5
100
AcDbLine
 10
-75000.0
 20
-75000.0
 30
29600.0
 11
-75000.0
 21
-75000.0
 31
44400.0
  0
LINE
  5
182
330
17
100
AcDbEntity
  8
0
 62
5
100
AcDbLine
 10
75000.0
 20
-75000.0
 30
29600.0
 11
75000.0
 21
-75000.0
 31
44400.0
  0
LINE
  5
183
330
17
100
AcDbEntity
  8
0
 62
5
100
AcDbLine
 10
75000.0
 20
0.0
 30
29600.0
 11
75000.0
 21
0.0
 31
44400.0
  0
LINE
  5
184
330
17
100
AcDbEntity
  8
0
 62
5
100
AcDbLine
 10
-75000.0
 20
0.0
 30
29600.0
 11
-75000.0
 21
0.0
 31
44400.0
  0
LINE
  5
185
330
17
100
AcDbEntity
  8
0
 62
5
100
AcDbLine
 10
0.0
 20
75000.0
 30
29600.0
 11
0.0
 21
75000.0
 31
44400.0
  0
LINE
  5
186
330
17
100
AcDbEntity
  8
0
 62
5
100
AcDbLine
 10
0.0
 20
-75000.0
 30
29600.0
 11
0.0
 21
-75000.0
 31
44400.0
  0
LINE
  5
187
330
17
100
AcDbEntity
  8
0
 62
5
100
AcDbLine
 10
75000.0
 20
75000.0
 30
44400.0
 11
75000.0
 21
75000.0
 31
59200.0
  0
LINE
  5
188
330
17
100
AcDbEntity
  8
0
 62
5
100
AcDbLine
 10
-75000.0
 20
75000.0
 30
44400.0
 11
-75000.0
 21
75000.0
 31
59200.0
  0
LINE
  5
189
330
17
100
AcDbEntity
  8
0
 62
5
100
AcDbLine
 10
-75000.0
 20
-75000.0
 30
44400.0
 11
-75000.0
 21
-75000.0
 31
59200.0
  0
LINE
  5
18A
330
17
100
AcDbEntity
  8
0
 62
5
100
AcDbLine
 10
75000.0
 20
-75000.0
 30
44400.0
 11
75000.0
 21
-75000.0
 31
59200.0
  0
LINE
  5
18B
330
17
100
AcDbEntity
  8
0
 62
5
100
AcDbLine
 10
75000.0
 20
0.0
 30
44400.0
 11
75000.0
 21
0.0
 31
59200.0
  0
LINE
  5
18C
330
17
100
AcDbEntity
  8
0
 62
5
100
AcDbLine
 10
-75000.0
 20
0.0
 30
44400.0
 11
-75000.0
 21
0.0
 31
59200.0
  0
LINE
  5
18D
330
17
100
AcDbEntity
  8
0
 62
5
100
AcDbLine
 10
0.0
 20
75000.0
 30
44400.0
 11
0.0
 21
75000.0
 31
59200.0
  0
LINE
  5
18E
330
17
100
AcDbEntity
  8
0
 62
5
100
AcDbLine
 10
0.0
 20
-75000.0
 30
44400.0
 11
0.0
 21
-75000.0
 31
59200.0
  0
LINE
  5
18F
330
17
100
AcDbEntity
  8
0
 62
5
100
AcDbLine
 10
75000.0
 20
75000.0
 30
59200.0
 11
75000.0
 21
75000.0
 31
74000.0
  0
LINE
  5
190
330
17
100
AcDbEntity
  8
0
 62
5
100
AcDbLine
 10
-75000.0
 20
75000.0
 30
59200.0
 11
-75000.0
 21
75000.0
 31
74000.0
  0
LINE
  5
191
330
17
100
AcDbEntity
  8
0
 62
5
100
AcDbLine
 10
-75000.0
 20
-75000.0
 30
59200.0
 11
-75000.0
 21
-75000.0
 31
74000.0
  0
LINE
  5
192
330
17
100
AcDbEntity
  8
0
 62
5
100
AcDbLine
 10
75000.0
 20
-75000.0
 30
59200.0
 11
75000.0
 21
-75000.0
 31
74000.0
  0
LINE
  5
193
330
17
100
AcDbEntity
  8
0
 62
5
100
AcDbLine
 10
75000.0
 20
0.0
 30
59200.0
 11
75000.0
 21
0.0
 31
74000.0
  0
LINE
  5
194
330
17
100
AcDbEntity
  8
0
 62
5
100
AcDbLine
 10
-75000.0
 20
0.0
 30
59200.0
 11
-75000.0
 21
0.0
 31
74000.0
  0
LINE
  5
195
330
17
100
AcDbEntity
  8
0
 62
5
100
AcDbLine
 10
0.0
 20
75000.0
 30
59200.0
 11
0.0
 21
75000.0
 31
74000.0
  0
LINE
  5
196
330
17
100
AcDbEntity
  8
0
 62
5
100
AcDbLine
 10
0.0
 20
-75000.0
 30
59200.0
 11
0.0
 21
-75000.0
 31
74000.0
  0
LINE
  5
197
330
17
100
AcDbEntity
  8
0
 62
5
100
AcDbLine
 10
75000.0
 20
75000.0
 30
74000.0
 11
75000.0
 21
75000.0
 31
88800.0
  0
LINE
  5
198
330
17
100
AcDbEntity
  8
0
 62
5
100
AcDbLine
 10
-75000.0
 20
75000.0
 30
74000.0
 11
-75000.0
 21
75000.0
 31
88800.0
  0
LINE
  5
199
330
17
100
AcDbEntity
  8
0
 62
5
100
AcDbLine
 10
-75000.0
 20
-75000.0
 30
74000.0
 11
-75000.0
 21
-75000.0
 31
88800.0
  0
LINE
  5
19A
330
17
100
AcDbEntity
  8
0
 62
5
100
AcDbLine
 10
75000.0
 20
-75000.0
 30
74000.0
 11
75000.0
 21
-75000.0
 31
88800.0
  0
LINE
  5
19B
330
17
100
AcDbEntity
  8
0
 62
5
100
AcDbLine
 10
75000.0
 20
0.0
 30
74000.0
 11
75000.0
 21
0.0
 31
88800.0
  0
LINE
  5
19C
330
17
100
AcDbEntity
  8
0
 62
5
100
AcDbLine
 10
-75000.0
 20
0.0
 30
74000.0
 11
-75000.0
 21
0.0
 31
88800.0
  0
LINE
  5
19D
330
17
100
AcDbEntity
  8
0
 62
5
100
AcDbLine
 10
0.0
 20
75000.0
 30
74000.0
 11
0.0
 21
75000.0
 31
88800.0
  0
LINE
  5
19E
330
17
100
AcDbEntity
  8
0
 62
5
100
AcDbLine
 10
0.0
 20
-75000.0
 30
74000.0
 11
0.0
 21
-75000.0
 31
88800.0
  0
LINE
  5
19F
330
17
100
AcDbEntity
  8
0
 62
5
100
AcDbLine
 10
63750.0
 20
63750.0
 30
92500.0
 11
63750.0
 21
63750.0
 31
107300.0
  0
LINE
  5
1A0
330
17
100
AcDbEntity
  8
0
 62
5
100
AcDbLine
 10
-63750.0
 20
63750.0
 30
92500.0
 11
-63750.0
 21
63750.0
 31
107300.0
  0
LINE
  5
1A1
330
17
100
AcDbEntity
  8
0
 62
5
100
AcDbLine
 10
-63750.0
 20
-63750.0
 30
92500.0
 11
-63750.0
 21
-63750.0
 31
107300.0
  0
LINE
  5
1A2
330
17
100
AcDbEntity
  8
0
 62
5
100
AcDbLine
 10
63750.0
 20
-63750.0
 30
92500.0
 11
63750.0
 21
-63750.0
 31
107300.0
  0
LINE
  5
1A3
330
17
100
AcDbEntity
  8
0
 62
5
100
AcDbLine
 10
63750.0
 20
0.0
 30
92500.0
 11
63750.0
 21
0.0
 31
107300.0
  0
LINE
  5
1A4
330
17
100
AcDbEntity
  8
0
 62
5
100
AcDbLine
 10
-63750.0
 20
0.0
 30
92500.0
 11
-63750.0
 21
0.0
 31
107300.0
  0
LINE
  5
1A5
330
17
100
AcDbEntity
  8
0
 62
5
100
AcDbLine
 10
0.0
 20
63750.0
 30
92500.0
 11
0.0
 21
63750.0
 31
107300.0
  0
LINE
  5
1A6
330
17
100
AcDbEntity
  8
0
 62
5
100
AcDbLine
 10
0.0
 20
-63750.0
 30
92500.0
 11
0.0
 21
-63750.0
 31
107300.0
  0
LINE
  5
1A7
330
17
100
AcDbEntity
  8
0
 62
5
100
AcDbLine
 10
63750.0
 20
63750.0
 30
107300.0
 11
63750.0
 21
63750.0
 31
122100.0
  0
LINE
  5
1A8
330
17
100
AcDbEntity
  8
0
 62
5
100
AcDbLine
 10
-63750.0
 20
63750.0
 30
107300.0
 11
-63750.0
 21
63750.0
 31
122100.0
  0
LINE
  5
1A9
330
17
100
AcDbEntity
  8
0
 62
5
100
AcDbLine
 10
-63750.0
 20
-63750.0
 30
107300.0
 11
-63750.0
 21
-63750.0
 31
122100.0
  0
LINE
  5
1AA
330
17
100
AcDbEntity
  8
0
 62
5
100
AcDbLine
 10
63750.0
 20
-63750.0
 30
107300.0
 11
63750.0
 21
-63750.0
 31
122100.0
  0
LINE
  5
1AB
330
17
100
AcDbEntity
  8
0
 62
5
100
AcDbLine
 10
63750.0
 20
0.0
 30
107300.0
 11
63750.0
 21
0.0
 31
122100.0
  0
LINE
  5
1AC
330
17
100
AcDbEntity
  8
0
 62
5
100
AcDbLine
 10
-63750.0
 20
0.0
 30
107300.0
 11
-63750.0
 21
0.0
 31
122100.0
  0
LINE
  5
1AD
330
17
100
AcDbEntity
  8
0
 62
5
100
AcDbLine
 10
0.0
 20
63750.0
 30
107300.0
 11
0.0
 21
63750.0
 31
122100.0
  0
LINE
  5
1AE
330
17
100
AcDbEntity
  8
0
 62
5
100
AcDbLine
 10
0.0
 20
-63750.0
 30
107300.0
 11
0.0
 21
-63750.0
 31
122100.0
  0
LINE
  5
1AF
330
17
100
AcDbEntity
  8
0
 62
5
100
AcDbLine
 10
63750.0
 20
63750.0
 30
122100.0
 11
63750.0
 21
63750.0
 31
136900.0
  0
LINE
  5
1B0
330
17
100
AcDbEntity
  8
0
 62
5
100
AcDbLine
 10
-63750.0
 20
63750.0
 30
122100.0
 11
-63750.0
 21
63750.0
 31
136900.0
  0
LINE
  5
1B1
330
17
100
AcDbEntity
  8
0
 62
5
100
AcDbLine
 10
-63750.0
 20
-63750.0
 30
122100.0
 11
-63750.0
 21
-63750.0
 31
136900.0
  0
LINE
  5
1B2
330
17
100
AcDbEntity
  8
0
 62
5
100
AcDbLine
 10
63750.0
 20
-63750.0
 30
122100.0
 11
63750.0
 21
-63750.0
 31
136900.0
  0
LINE
  5
1B3
330
17
100
AcDbEntity
  8
0
 62
5
100
AcDbLine
 10
63750.0
 20
0.0
 30
122100.0
 11
63750.0
 21
0.0
 31
136900.0
  0
LINE
  5
1B4
330
17
100
AcDbEntity
  8
0
 62
5
100
AcDbLine
 10
-63750.0
 20
0.0
 30
122100.0
 11
-63750.0
 21
0.0
 31
136900.0
  0
LINE
  5
1B5
330
17
100
AcDbEntity
  8
0
 62
5
100
AcDbLine
 10
0.0
 20
63750.0
 30
122100.0
 11
0.0
 21
63750.0
 31
136900.0
  0
LINE
  5
1B6
330
17
100
AcDbEntity
  8
0
 62
5
100
AcDbLine
 10
0.0
 20
-63750.0
 30
122100.0
 11
0.0
 21
-63750.0
 31
136900.0
  0
LINE
  5
1B7
330
17
100
AcDbEntity
  8
0
 62
5
100
AcDbLine
 10
63750.0
 20
63750.0
 30
136900.0
 11
63750.0
 21
63750.0
 31
151700.0
  0
LINE
  5
1B8
330
17
100
AcDbEntity
  8
0
 62
5
100
AcDbLine
 10
-63750.0
 20
63750.0
 30
136900.0
 11
-63750.0
 21
63750.0
 31
151700.0
  0
LINE
  5
1B9
330
17
100
AcDbEntity
  8
0
 62
5
100
AcDbLine
 10
-63750.0
 20
-63750.0
 30
136900.0
 11
-63750.0
 21
-63750.0
 31
151700.0
  0
LINE
  5
1BA
330
17
100
AcDbEntity
  8
0
 62
5
100
AcDbLine
 10
63750.0
 20
-63750.0
 30
136900.0
 11
63750.0
 21
-63750.0
 31
151700.0
  0
LINE
  5
1BB
330
17
100
AcDbEntity
  8
0
 62
5
100
AcDbLine
 10
63750.0
 20
0.0
 30
136900.0
 11
63750.0
 21
0.0
 31
151700.0
  0
LINE
  5
1BC
330
17
100
AcDbEntity
  8
0
 62
5
100
AcDbLine
 10
-63750.0
 20
0.0
 30
136900.0
 11
-63750.0
 21
0.0
 31
151700.0
  0
LINE
  5
1BD
330
17
100
AcDbEntity
  8
0
 62
5
100
AcDbLine
 10
0.0
 20
63750.0
 30
136900.0
 11
0.0
 21
63750.0
 31
151700.0
  0
LINE
  5
1BE
330
17
100
AcDbEntity
  8
0
 62
5
100
AcDbLine
 10
0.0
 20
-63750.0
 30
136900.0
 11
0.0
 21
-63750.0
 31
151700.0
  0
LINE
  5
1BF
330
17
100
AcDbEntity
  8
0
 62
5
100
AcDbLine
 10
63750.0
 20
63750.0
 30
151700.0
 11
63750.0
 21
63750.0
 31
166500.0
  0
LINE
  5
1C0
330
17
100
AcDbEntity
  8
0
 62
5
100
AcDbLine
 10
-63750.0
 20
63750.0
 30
151700.0
 11
-63750.0
 21
63750.0
 31
166500.0
  0
LINE
  5
1C1
330
17
100
AcDbEntity
  8
0
 62
5
100
AcDbLine
 10
-63750.0
 20
-63750.0
 30
151700.0
 11
-63750.0
 21
-63750.0
 31
166500.0
  0
LINE
  5
1C2
330
17
100
AcDbEntity
  8
0
 62
5
100
AcDbLine
 10
63750.0
 20
-63750.0
 30
151700.0
 11
63750.0
 21
-63750.0
 31
166500.0
  0
LINE
  5
1C3
330
17
100
AcDbEntity
  8
0
 62
5
100
AcDbLine
 10
63750.0
 20
0.0
 30
151700.0
 11
63750.0
 21
0.0
 31
166500.0
  0
LINE
  5
1C4
330
17
100
AcDbEntity
  8
0
 62
5
100
AcDbLine
 10
-63750.0
 20
0.0
 30
151700.0
 11
-63750.0
 21
0.0
 31
166500.0
  0
LINE
  5
1C5
330
17
100
AcDbEntity
  8
0
 62
5
100
AcDbLine
 10
0.0
 20
63750.0
 30
151700.0
 11
0.0
 21
63750.0
 31
166500.0
  0
LINE
  5
1C6
330
17
100
AcDbEntity
  8
0
 62
5
100
AcDbLine
 10
0.0
 20
-63750.0
 30
151700.0
 11
0.0
 21
-63750.0
 31
166500.0
  0
LINE
  5
1C7
330
17
100
AcDbEntity
  8
0
 62
5
100
AcDbLine
 10
63750.0
 20
63750.0
 30
166500.0
 11
63750.0
 21
63750.0
 31
181300.0
  0
LINE
  5
1C8
330
17
100
AcDbEntity
  8
0
 62
5
100
AcDbLine
 10
-63750.0
 20
63750.0
 30
166500.0
 11
-63750.0
 21
63750.0
 31
181300.0
  0
LINE
  5
1C9
330
17
100
AcDbEntity
  8
0
 62
5
100
AcDbLine
 10
-63750.0
 20
-63750.0
 30
166500.0
 11
-63750.0
 21
-63750.0
 31
181300.0
  0
LINE
  5
1CA
330
17
100
AcDbEntity
  8
0
 62
5
100
AcDbLine
 10
63750.0
 20
-63750.0
 30
166500.0
 11
63750.0
 21
-63750.0
 31
181300.0
  0
LINE
  5
1CB
330
17
100
AcDbEntity
  8
0
 62
5
100
AcDbLine
 10
63750.0
 20
0.0
 30
166500.0
 11
63750.0
 21
0.0
 31
181300.0
  0
LINE
  5
1CC
330
17
100
AcDbEntity
  8
0
 62
5
100
AcDbLine
 10
-63750.0
 20
0.0
 30
166500.0
 11
-63750.0
 21
0.0
 31
181300.0
  0
LINE
  5
1CD
330
17
100
AcDbEntity
  8
0
 62
5
100
AcDbLine
 10
0.0
 20
63750.0
 30
166500.0
 11
0.0
 21
63750.0
 31
181300.0
  0
LINE
  5
1CE
330
17
100
AcDbEntity
  8
0
 62
5
100
AcDbLine
 10
0.0
 20
-63750.0
 30
166500.0
 11
0.0
 21
-63750.0
 31
181300.0
  0
LINE
  5
1CF
330
17
100
AcDbEntity
  8
0
 62
5
100
AcDbLine
 10
52500.0
 20
52500.0
 30
185000.0
 11
52500.0
 21
52500.0
 31
199800.0
  0
LINE
  5
1D0
330
17
100
AcDbEntity
  8
0
 62
5
100
AcDbLine
 10
-52500.0
 20
52500.0
 30
185000.0
 11
-52500.0
 21
52500.0
 31
199800.0
  0
LINE
  5
1D1
330
17
100
AcDbEntity
  8
0
 62
5
100
AcDbLine
 10
-52500.0
 20
-52500.0
 30
185000.0
 11
-52500.0
 21
-52500.0
 31
199800.0
  0
LINE
  5
1D2
330
17
100
AcDbEntity
  8
0
 62
5
100
AcDbLine
 10
52500.0
 20
-52500.0
 30
185000.0
 11
52500.0
 21
-52500.0
 31
199800.0
  0
LINE
  5
1D3
330
17
100
AcDbEntity
  8
0
 62
5
100
AcDbLine
 10
52500.0
 20
0.0
 30
185000.0
 11
52500.0
 21
0.0
 31
199800.0
  0
LINE
  5
1D4
330
17
100
AcDbEntity
  8
0
 62
5
100
AcDbLine
 10
-52500.0
 20
0.0
 30
185000.0
 11
-52500.0
 21
0.0
 31
199800.0
  0
LINE
  5
1D5
330
17
100
AcDbEntity
  8
0
 62
5
100
AcDbLine
 10
0.0
 20
52500.0
 30
185000.0
 11
0.0
 21
52500.0
 31
199800.0
  0
LINE
  5
1D6
330
17
100
AcDbEntity
  8
0
 62
5
100
AcDbLine
 10
0.0
 20
-52500.0
 30
185000.0
 11
0.0
 21
-52500.0
 31
199800.0
  0
LINE
  5
1D7
330
17
100
AcDbEntity
  8
0
 62
5
100
AcDbLine
 10
52500.0
 20
52500.0
 30
199800.0
 11
52500.0
 21
52500.0
 31
214600.0
  0
LINE
  5
1D8
330
17
100
AcDbEntity
  8
0
 62
5
100
AcDbLine
 10
-52500.0
 20
52500.0
 30
199800.0
 11
-52500.0
 21
52500.0
 31
214600.0
  0
LINE
  5
1D9
330
17
100
AcDbEntity
  8
0
 62
5
100
AcDbLine
 10
-52500.0
 20
-52500.0
 30
199800.0
 11
-52500.0
 21
-52500.0
 31
214600.0
  0
LINE
  5
1DA
330
17
100
AcDbEntity
  8
0
 62
5
100
AcDbLine
 10
52500.0
 20
-52500.0
 30
199800.0
 11
52500.0
 21
-52500.0
 31
214600.0
  0
LINE
  5
1DB
330
17
100
AcDbEntity
  8
0
 62
5
100
AcDbLine
 10
52500.0
 20
0.0
 30
199800.0
 11
52500.0
 21
0.0
 31
214600.0
  0
LINE
  5
1DC
330
17
100
AcDbEntity
  8
0
 62
5
100
AcDbLine
 10
-52500.0
 20
0.0
 30
199800.0
 11
-52500.0
 21
0.0
 31
214600.0
  0
LINE
  5
1DD
330
17
100
AcDbEntity
  8
0
 62
5
100
AcDbLine
 10
0.0
 20
52500.0
 30
199800.0
 11
0.0
 21
52500.0
 31
214600.0
  0
LINE
  5
1DE
330
17
100
AcDbEntity
  8
0
 62
5
100
AcDbLine
 10
0.0
 20
-52500.0
 30
199800.0
 11
0.0
 21
-52500.0
 31
214600.0
  0
LINE
  5
1DF
330
17
100
AcDbEntity
  8
0
 62
5
100
AcDbLine
 10
52500.0
 20
52500.0
 30
214600.0
 11
52500.0
 21
52500.0
 31
229400.0
  0
LINE
  5
1E0
330
17
100
AcDbEntity
  8
0
 62
5
100
AcDbLine
 10
-52500.0
 20
52500.0
 30
214600.0
 11
-52500.0
 21
52500.0
 31
229400.0
  0
LINE
  5
1E1
330
17
100
AcDbEntity
  8
0
 62
5
100
AcDbLine
 10
-52500.0
 20
-52500.0
 30
214600.0
 11
-52500.0
 21
-52500.0
 31
229400.0
  0
LINE
  5
1E2
330
17
100
AcDbEntity
  8
0
 62
5
100
AcDbLine
 10
52500.0
 20
-52500.0
 30
214600.0
 11
52500.0
 21
-52500.0
 31
229400.0
  0
LINE
  5
1E3
330
17
100
AcDbEntity
  8
0
 62
5
100
AcDbLine
 10
52500.0
 20
0.0
 30
214600.0
 11
52500.0
 21
0.0
 31
229400.0
  0
LINE
  5
1E4
330
17
100
AcDbEntity
  8
0
 62
5
100
AcDbLine
 10
-52500.0
 20
0.0
 30
214600.0
 11
-52500.0
 21
0.0
 31
229400.0
  0
LINE
  5
1E5
330
17
100
AcDbEntity
  8
0
 62
5
100
AcDbLine
 10
0.0
 20
52500.0
 30
214600.0
 11
0.0
 21
52500.0
 31
229400.0
  0
LINE
  5
1E6
330
17
100
AcDbEntity
  8
0
 62
5
100
AcDbLine
 10
0.0
 20
-52500.0
 30
214600.0
 11
0.0
 21
-52500.0
 31
229400.0
  0
LINE
  5
1E7
330
17
100
AcDbEntity
  8
0
 62
5
100
AcDbLine
 10
52500.0
 20
52500.0
 30
229400.0
 11
52500.0
 21
52500.0
 31
244200.0
  0
LINE
  5
1E8
330
17
100
AcDbEntity
  8
0
 62
5
100
AcDbLine
 10
-52500.0
 20
52500.0
 30
229400.0
 11
-52500.0
 21
52500.0
 31
244200.0
  0
LINE
  5
1E9
330
17
100
AcDbEntity
  8
0
 62
5
100
AcDbLine
 10
-52500.0
 20
-52500.0
 30
229400.0
 11
-52500.0
 21
-52500.0
 31
244200.0
  0
LINE
  5
1EA
330
17
100
AcDbEntity
  8
0
 62
5
100
AcDbLine
 10
52500.0
 20
-52500.0
 30
229400.0
 11
52500.0
 21
-52500.0
 31
244200.0
  0
LINE
  5
1EB
330
17
100
AcDbEntity
  8
0
 62
5
100
AcDbLine
 10
52500.0
 20
0.0
 30
229400.0
 11
52500.0
 21
0.0
 31
244200.0
  0
LINE
  5
1EC
330
17
100
AcDbEntity
  8
0
 62
5
100
AcDbLine
 10
-52500.0
 20
0.0
 30
229400.0
 11
-52500.0
 21
0.0
 31
244200.0
  0
LINE
  5
1ED
330
17
100
AcDbEntity
  8
0
 62
5
100
AcDbLine
 10
0.0
 20
52500.0
 30
229400.0
 11
0.0
 21
52500.0
 31
244200.0
  0
LINE
  5
1EE
330
17
100
AcDbEntity
  8
0
 62
5
100
AcDbLine
 10
0.0
 20
-52500.0
 30
229400.0
 11
0.0
 21
-52500.0
 31
244200.0
  0
LINE
  5
1EF
330
17
100
AcDbEntity
  8
0
 62
5
100
AcDbLine
 10
52500.0
 20
52500.0
 30
244200.0
 11
52500.0
 21
52500.0
 31
259000.0
  0
LINE
  5
1F0
330
17
100
AcDbEntity
  8
0
 62
5
100
AcDbLine
 10
-52500.0
 20
52500.0
 30
244200.0
 11
-52500.0
 21
52500.0
 31
259000.0
  0
LINE
  5
1F1
330
17
100
AcDbEntity
  8
0
 62
5
100
AcDbLine
 10
-52500.0
 20
-52500.0
 30
244200.0
 11
-52500.0
 21
-52500.0
 31
259000.0
  0
LINE
  5
1F2
330
17
100
AcDbEntity
  8
0
 62
5
100
AcDbLine
 10
52500.0
 20
-52500.0
 30
244200.0
 11
52500.0
 21
-52500.0
 31
259000.0
  0
LINE
  5
1F3
330
17
100
AcDbEntity
  8
0
 62
5
100
AcDbLine
 10
52500.0
 20
0.0
 30
244200.0
 11
52500.0
 21
0.0
 31
259000.0
  0
LINE
  5
1F4
330
17
100
AcDbEntity
  8
0
 62
5
100
AcDbLine
 10
-52500.0
 20
0.0
 30
244200.0
 11
-52500.0
 21
0.0
 31
259000.0
  0
LINE
  5
1F5
330
17
100
AcDbEntity
  8
0
 62
5
100
AcDbLine
 10
0.0
 20
52500.0
 30
244200.0
 11
0.0
 21
52500.0
 31
259000.0
  0
LINE
  5
1F6
330
17
100
AcDbEntity
  8
0
 62
5
100
AcDbLine
 10
0.0
 20
-52500.0
 30
244200.0
 11
0.0
 21
-52500.0
 31
259000.0
  0
LINE
  5
1F7
330
17
100
AcDbEntity
  8
0
 62
5
100
AcDbLine
 10
52500.0
 20
52500.0
 30
259000.0
 11
52500.0
 21
52500.0
 31
273800.0
  0
LINE
  5
1F8
330
17
100
AcDbEntity
  8
0
 62
5
100
AcDbLine
 10
-52500.0
 20
52500.0
 30
259000.0
 11
-52500.0
 21
52500.0
 31
273800.0
  0
LINE
  5
1F9
330
17
100
AcDbEntity
  8
0
 62
5
100
AcDbLine
 10
-52500.0
 20
-52500.0
 30
259000.0
 11
-52500.0
 21
-52500.0
 31
273800.0
  0
LINE
  5
1FA
330
17
100
AcDbEntity
  8
0
 62
5
100
AcDbLine
 10
52500.0
 20
-52500.0
 30
259000.0
 11
52500.0
 21
-52500.0
 31
273800.0
  0
LINE
  5
1FB
330
17
100
AcDbEntity
  8
0
 62
5
100
AcDbLine
 10
52500.0
 20
0.0
 30
259000.0
 11
52500.0
 21
0.0
 31
273800.0
  0
LINE
  5
1FC
330
17
100
AcDbEntity
  8
0
 62
5
100
AcDbLine
 10
-52500.0
 20
0.0
 30
259000.0
 11
-52500.0
 21
0.0
 31
273800.0
  0
LINE
  5
1FD
330
17
100
AcDbEntity
  8
0
 62
5
100
AcDbLine
 10
0.0
 20
52500.0
 30
259000.0
 11
0.0
 21
52500.0
 31
273800.0
  0
LINE
  5
1FE
330
17
100
AcDbEntity
  8
0
 62
5
100
AcDbLine
 10
0.0
 20
-52500.0
 30
259000.0
 11
0.0
 21
-52500.0
 31
273800.0
  0
LINE
  5
1FF
330
17
100
AcDbEntity
  8
0
 62
5
100
AcDbLine
 10
41250.0
 20
41250.0
 30
277500.0
 11
41250.0
 21
41250.0
 31
292300.0
  0
LINE
  5
200
330
17
100
AcDbEntity
  8
0
 62
5
100
AcDbLine
 10
-41250.0
 20
41250.0
 30
277500.0
 11
-41250.0
 21
41250.0
 31
292300.0
  0
LINE
  5
201
330
17
100
AcDbEntity
  8
0
 62
5
100
AcDbLine
 10
-41250.0
 20
-41250.0
 30
277500.0
 11
-41250.0
 21
-41250.0
 31
292300.0
  0
LINE
  5
202
330
17
100
AcDbEntity
  8
0
 62
5
100
AcDbLine
 10
41250.0
 20
-41250.0
 30
277500.0
 11
41250.0
 21
-41250.0
 31
292300.0
  0
LINE
  5
203
330
17
100
AcDbEntity
  8
0
 62
5
100
AcDbLine
 10
41250.0
 20
0.0
 30
277500.0
 11
41250.0
 21
0.0
 31
292300.0
  0
LINE
  5
204
330
17
100
AcDbEntity
  8
0
 62
5
100
AcDbLine
 10
-41250.0
 20
0.0
 30
277500.0
 11
-41250.0
 21
0.0
 31
292300.0
  0
LINE
  5
205
330
17
100
AcDbEntity
  8
0
 62
5
100
AcDbLine
 10
0.0
 20
41250.0
 30
277500.0
 11
0.0
 21
41250.0
 31
292300.0
  0
LINE
  5
206
330
17
100
AcDbEntity
  8
0
 62
5
100
AcDbLine
 10
0.0
 20
-41250.0
 30
277500.0
 11
0.0
 21
-41250.0
 31
292300.0
  0
LINE
  5
207
330
17
100
AcDbEntity
  8
0
 62
5
100
AcDbLine
 10
41250.0
 20
41250.0
 30
292300.0
 11
41250.0
 21
41250.0
 31
307100.0
  0
LINE
  5
208
330
17
100
AcDbEntity
  8
0
 62
5
100
AcDbLine
 10
-41250.0
 20
41250.0
 30
292300.0
 11
-41250.0
 21
41250.0
 31
307100.0
  0
LINE
  5
209
330
17
100
AcDbEntity
  8
0
 62
5
100
AcDbLine
 10
-41250.0
 20
-41250.0
 30
292300.0
 11
-41250.0
 21
-41250.0
 31
307100.0
  0
LINE
  5
20A
330
17
100
AcDbEntity
  8
0
 62
5
100
AcDbLine
 10
41250.0
 20
-41250.0
 30
292300.0
 11
41250.0
 21
-41250.0
 31
307100.0
  0
LINE
  5
20B
330
17
100
AcDbEntity
  8
0
 62
5
100
AcDbLine
 10
41250.0
 20
0.0
 30
292300.0
 11
41250.0
 21
0.0
 31
307100.0
  0
LINE
  5
20C
330
17
100
AcDbEntity
  8
0
 62
5
100
AcDbLine
 10
-41250.0
 20
0.0
 30
292300.0
 11
-41250.0
 21
0.0
 31
307100.0
  0
LINE
  5
20D
330
17
100
AcDbEntity
  8
0
 62
5
100
AcDbLine
 10
0.0
 20
41250.0
 30
292300.0
 11
0.0
 21
41250.0
 31
307100.0
  0
LINE
  5
20E
330
17
100
AcDbEntity
  8
0
 62
5
100
AcDbLine
 10
0.0
 20
-41250.0
 30
292300.0
 11
0.0
 21
-41250.0
 31
307100.0
  0
LINE
  5
20F
330
17
100
AcDbEntity
  8
0
 62
5
100
AcDbLine
 10
41250.0
 20
41250.0
 30
307100.0
 11
41250.0
 21
41250.0
 31
321900.0
  0
LINE
  5
210
330
17
100
AcDbEntity
  8
0
 62
5
100
AcDbLine
 10
-41250.0
 20
41250.0
 30
307100.0
 11
-41250.0
 21
41250.0
 31
321900.0
  0
LINE
  5
211
330
17
100
AcDbEntity
  8
0
 62
5
100
AcDbLine
 10
-41250.0
 20
-41250.0
 30
307100.0
 11
-41250.0
 21
-41250.0
 31
321900.0
  0
LINE
  5
212
330
17
100
AcDbEntity
  8
0
 62
5
100
AcDbLine
 10
41250.0
 20
-41250.0
 30
307100.0
 11
41250.0
 21
-41250.0
 31
321900.0
  0
LINE
  5
213
330
17
100
AcDbEntity
  8
0
 62
5
100
AcDbLine
 10
41250.0
 20
0.0
 30
307100.0
 11
41250.0
 21
0.0
 31
321900.0
  0
LINE
  5
214
330
17
100
AcDbEntity
  8
0
 62
5
100
AcDbLine
 10
-41250.0
 20
0.0
 30
307100.0
 11
-41250.0
 21
0.0
 31
321900.0
  0
LINE
  5
215
330
17
100
AcDbEntity
  8
0
 62
5
100
AcDbLine
 10
0.0
 20
41250.0
 30
307100.0
 11
0.0
 21
41250.0
 31
321900.0
  0
LINE
  5
216
330
17
100
AcDbEntity
  8
0
 62
5
100
AcDbLine
 10
0.0
 20
-41250.0
 30
307100.0
 11
0.0
 21
-41250.0
 31
321900.0
  0
LINE
  5
217
330
17
100
AcDbEntity
  8
0
 62
5
100
AcDbLine
 10
41250.0
 20
41250.0
 30
321900.0
 11
41250.0
 21
41250.0
 31
336700.0
  0
LINE
  5
218
330
17
100
AcDbEntity
  8
0
 62
5
100
AcDbLine
 10
-41250.0
 20
41250.0
 30
321900.0
 11
-41250.0
 21
41250.0
 31
336700.0
  0
LINE
  5
219
330
17
100
AcDbEntity
  8
0
 62
5
100
AcDbLine
 10
-41250.0
 20
-41250.0
 30
321900.0
 11
-41250.0
 21
-41250.0
 31
336700.0
  0
LINE
  5
21A
330
17
100
AcDbEntity
  8
0
 62
5
100
AcDbLine
 10
41250.0
 20
-41250.0
 30
321900.0
 11
41250.0
 21
-41250.0
 31
336700.0
  0
LINE
  5
21B
330
17
100
AcDbEntity
  8
0
 62
5
100
AcDbLine
 10
41250.0
 20
0.0
 30
321900.0
 11
41250.0
 21
0.0
 31
336700.0
  0
LINE
  5
21C
330
17
100
AcDbEntity
  8
0
 62
5
100
AcDbLine
 10
-41250.0
 20
0.0
 30
321900.0
 11
-41250.0
 21
0.0
 31
336700.0
  0
LINE
  5
21D
330
17
100
AcDbEntity
  8
0
 62
5
100
AcDbLine
 10
0.0
 20
41250.0
 30
321900.0
 11
0.0
 21
41250.0
 31
336700.0
  0
LINE
  5
21E
330
17
100
AcDbEntity
  8
0
 62
5
100
AcDbLine
 10
0.0
 20
-41250.0
 30
321900.0
 11
0.0
 21
-41250.0
 31
336700.0
  0
LINE
  5
21F
330
17
100
AcDbEntity
  8
0
 62
5
100
AcDbLine
 10
41250.0
 20
41250.0
 30
336700.0
 11
41250.0
 21
41250.0
 31
351500.0
  0
LINE
  5
220
330
17
100
AcDbEntity
  8
0
 62
5
100
AcDbLine
 10
-41250.0
 20
41250.0
 30
336700.0
 11
-41250.0
 21
41250.0
 31
351500.0
  0
LINE
  5
221
330
17
100
AcDbEntity
  8
0
 62
5
100
AcDbLine
 10
-41250.0
 20
-41250.0
 30
336700.0
 11
-41250.0
 21
-41250.0
 31
351500.0
  0
LINE
  5
222
330
17
100
AcDbEntity
  8
0
 62
5
100
AcDbLine
 10
41250.0
 20
-41250.0
 30
336700.0
 11
41250.0
 21
-41250.0
 31
351500.0
  0
LINE
  5
223
330
17
100
AcDbEntity
  8
0
 62
5
100
AcDbLine
 10
41250.0
 20
0.0
 30
336700.0
 11
41250.0
 21
0.0
 31
351500.0
  0
LINE
  5
224
330
17
100
AcDbEntity
  8
0
 62
5
100
AcDbLine
 10
-41250.0
 20
0.0
 30
336700.0
 11
-41250.0
 21
0.0
 31
351500.0
  0
LINE
  5
225
330
17
100
AcDbEntity
  8
0
 62
5
100
AcDbLine
 10
0.0
 20
41250.0
 30
336700.0
 11
0.0
 21
41250.0
 31
351500.0
  0
LINE
  5
226
330
17
100
AcDbEntity
  8
0
 62
5
100
AcDbLine
 10
0.0
 20
-41250.0
 30
336700.0
 11
0.0
 21
-41250.0
 31
351500.0
  0
LINE
  5
227
330
17
100
AcDbEntity
  8
0
 62
5
100
AcDbLine
 10
41250.0
 20
41250.0
 30
351500.0
 11
41250.0
 21
41250.0
 31
366300.0
  0
LINE
  5
228
330
17
100
AcDbEntity
  8
0
 62
5
100
AcDbLine
 10
-41250.0
 20
41250.0
 30
351500.0
 11
-41250.0
 21
41250.0
 31
366300.0
  0
LINE
  5
229
330
17
100
AcDbEntity
  8
0
 62
5
100
AcDbLine
 10
-41250.0
 20
-41250.0
 30
351500.0
 11
-41250.0
 21
-41250.0
 31
366300.0
  0
LINE
  5
22A
330
17
100
AcDbEntity
  8
0
 62
5
100
AcDbLine
 10
41250.0
 20
-41250.0
 30
351500.0
 11
41250.0
 21
-41250.0
 31
366300.0
  0
LINE
  5
22B
330
17
100
AcDbEntity
  8
0
 62
5
100
AcDbLine
 10
41250.0
 20
0.0
 30
351500.0
 11
41250.0
 21
0.0
 31
366300.0
  0
LINE
  5
22C
330
17
100
AcDbEntity
  8
0
 62
5
100
AcDbLine
 10
-41250.0
 20
0.0
 30
351500.0
 11
-41250.0
 21
0.0
 31
366300.0
  0
LINE
  5
22D
330
17
100
AcDbEntity
  8
0
 62
5
100
AcDbLine
 10
0.0
 20
41250.0
 30
351500.0
 11
0.0
 21
41250.0
 31
366300.0
  0
LINE
  5
22E
330
17
100
AcDbEntity
  8
0
 62
5
100
AcDbLine
 10
0.0
 20
-41250.0
 30
351500.0
 11
0.0
 21
-41250.0
 31
366300.0
  0
LINE
  5
22F
330
17
100
AcDbEntity
  8
0
 62
5
100
AcDbLine
 10
30000.0
 20
30000.0
 30
370000.0
 11
30000.0
 21
30000.0
 31
384800.0
  0
LINE
  5
230
330
17
100
AcDbEntity
  8
0
 62
5
100
AcDbLine
 10
-30000.0
 20
30000.0
 30
370000.0
 11
-30000.0
 21
30000.0
 31
384800.0
  0
LINE
  5
231
330
17
100
AcDbEntity
  8
0
 62
5
100
AcDbLine
 10
-30000.0
 20
-30000.0
 30
370000.0
 11
-30000.0
 21
-30000.0
 31
384800.0
  0
LINE
  5
232
330
17
100
AcDbEntity
  8
0
 62
5
100
AcDbLine
 10
30000.0
 20
-30000.0
 30
370000.0
 11
30000.0
 21
-30000.0
 31
384800.0
  0
LINE
  5
233
330
17
100
AcDbEntity
  8
0
 62
5
100
AcDbLine
 10
30000.0
 20
0.0
 30
370000.0
 11
30000.0
 21
0.0
 31
384800.0
  0
LINE
  5
234
330
17
100
AcDbEntity
  8
0
 62
5
100
AcDbLine
 10
-30000.0
 20
0.0
 30
370000.0
 11
-30000.0
 21
0.0
 31
384800.0
  0
LINE
  5
235
330
17
100
AcDbEntity
  8
0
 62
5
100
AcDbLine
 10
0.0
 20
30000.0
 30
370000.0
 11
0.0
 21
30000.0
 31
384800.0
  0
LINE
  5
236
330
17
100
AcDbEntity
  8
0
 62
5
100
AcDbLine
 10
0.0
 20
-30000.0
 30
370000.0
 11
0.0
 21
-30000.0
 31
384800.0
  0
LINE
  5
237
330
17
100
AcDbEntity
  8
0
 62
5
100
AcDbLine
 10
30000.0
 20
30000.0
 30
384800.0
 11
30000.0
 21
30000.0
 31
399600.0
  0
LINE
  5
238
330
17
100
AcDbEntity
  8
0
 62
5
100
AcDbLine
 10
-30000.0
 20
30000.0
 30
384800.0
 11
-30000.0
 21
30000.0
 31
399600.0
  0
LINE
  5
239
330
17
100
AcDbEntity
  8
0
 62
5
100
AcDbLine
 10
-30000.0
 20
-30000.0
 30
384800.0
 11
-30000.0
 21
-30000.0
 31
399600.0
  0
LINE
  5
23A
330
17
100
AcDbEntity
  8
0
 62
5
100
AcDbLine
 10
30000.0
 20
-30000.0
 30
384800.0
 11
30000.0
 21
-30000.0
 31
399600.0
  0
LINE
  5
23B
330
17
100
AcDbEntity
  8
0
 62
5
100
AcDbLine
 10
30000.0
 20
0.0
 30
384800.0
 11
30000.0
 21
0.0
 31
399600.0
  0
LINE
  5
23C
330
17
100
AcDbEntity
  8
0
 62
5
100
AcDbLine
 10
-30000.0
 20
0.0
 30
384800.0
 11
-30000.0
 21
0.0
 31
399600.0
  0
LINE
  5
23D
330
17
100
AcDbEntity
  8
0
 62
5
100
AcDbLine
 10
0.0
 20
30000.0
 30
384800.0
 11
0.0
 21
30000.0
 31
399600.0
  0
LINE
  5
23E
330
17
100
AcDbEntity
  8
0
 62
5
100
AcDbLine
 10
0.0
 20
-30000.0
 30
384800.0
 11
0.0
 21
-30000.0
 31
399600.0
  0
LINE
  5
23F
330
17
100
AcDbEntity
  8
0
 62
5
100
AcDbLine
 10
30000.0
 20
30000.0
 30
399600.0
 11
30000.0
 21
30000.0
 31
414400.0
  0
LINE
  5
240
330
17
100
AcDbEntity
  8
0
 62
5
100
AcDbLine
 10
-30000.0
 20
30000.0
 30
399600.0
 11
-30000.0
 21
30000.0
 31
414400.0
  0
LINE
  5
241
330
17
100
AcDbEntity
  8
0
 62
5
100
AcDbLine
 10
-30000.0
 20
-30000.0
 30
399600.0
 11
-30000.0
 21
-30000.0
 31
414400.0
  0
LINE
  5
242
330
17
100
AcDbEntity
  8
0
 62
5
100
AcDbLine
 10
30000.0
 20
-30000.0
 30
399600.0
 11
30000.0
 21
-30000.0
 31
414400.0
  0
LINE
  5
243
330
17
100
AcDbEntity
  8
0
 62
5
100
AcDbLine
 10
30000.0
 20
0.0
 30
399600.0
 11
30000.0
 21
0.0
 31
414400.0
  0
LINE
  5
244
330
17
100
AcDbEntity
  8
0
 62
5
100
AcDbLine
 10
-30000.0
 20
0.0
 30
399600.0
 11
-30000.0
 21
0.0
 31
414400.0
  0
LINE
  5
245
330
17
100
AcDbEntity
  8
0
 62
5
100
AcDbLine
 10
0.0
 20
30000.0
 30
399600.0
 11
0.0
 21
30000.0
 31
414400.0
  0
LINE
  5
246
330
17
100
AcDbEntity
  8
0
 62
5
100
AcDbLine
 10
0.0
 20
-30000.0
 30
399600.0
 11
0.0
 21
-30000.0
 31
414400.0
  0
LINE
  5
247
330
17
100
AcDbEntity
  8
0
 62
5
100
AcDbLine
 10
30000.0
 20
30000.0
 30
414400.0
 11
30000.0
 21
30000.0
 31
429200.0
  0
LINE
  5
248
330
17
100
AcDbEntity
  8
0
 62
5
100
AcDbLine
 10
-30000.0
 20
30000.0
 30
414400.0
 11
-30000.0
 21
30000.0
 31
429200.0
  0
LINE
  5
249
330
17
100
AcDbEntity
  8
0
 62
5
100
AcDbLine
 10
-30000.0
 20
-30000.0
 30
414400.0
 11
-30000.0
 21
-30000.0
 31
429200.0
  0
LINE
  5
24A
330
17
100
AcDbEntity
  8
0
 62
5
100
AcDbLine
 10
30000.0
 20
-30000.0
 30
414400.0
 11
30000.0
 21
-30000.0
 31
429200.0
  0
LINE
  5
24B
330
17
100
AcDbEntity
  8
0
 62
5
100
AcDbLine
 10
30000.0
 20
0.0
 30
414400.0
 11
30000.0
 21
0.0
 31
429200.0
  0
LINE
  5
24C
330
17
100
AcDbEntity
  8
0
 62
5
100
AcDbLine
 10
-30000.0
 20
0.0
 30
414400.0
 11
-30000.0
 21
0.0
 31
429200.0
  0
LINE
  5
24D
330
17
100
AcDbEntity
  8
0
 62
5
100
AcDbLine
 10
0.0
 20
30000.0
 30
414400.0
 11
0.0
 21
30000.0
 31
429200.0
  0
LINE
  5
24E
330
17
100
AcDbEntity
  8
0
 62
5
100
AcDbLine
 10
0.0
 20
-30000.0
 30
414400.0
 11
0.0
 21
-30000.0
 31
429200.0
  0
LINE
  5
24F
330
17
100
AcDbEntity
  8
0
 62
5
100
AcDbLine
 10
30000.0
 20
30000.0
 30
429200.0
 11
30000.0
 21
30000.0
 31
444000.0
  0
LINE
  5
250
330
17
100
AcDbEntity
  8
0
 62
5
100
AcDbLine
 10
-30000.0
 20
30000.0
 30
429200.0
 11
-30000.0
 21
30000.0
 31
444000.0
  0
LINE
  5
251
330
17
100
AcDbEntity
  8
0
 62
5
100
AcDbLine
 10
-30000.0
 20
-30000.0
 30
429200.0
 11
-30000.0
 21
-30000.0
 31
444000.0
  0
LINE
  5
252
330
17
100
AcDbEntity
  8
0
 62
5
100
AcDbLine
 10
30000.0
 20
-30000.0
 30
429200.0
 11
30000.0
 21
-30000.0
 31
444000.0
  0
LINE
  5
253
330
17
100
AcDbEntity
  8
0
 62
5
100
AcDbLine
 10
30000.0
 20
0.0
 30
429200.0
 11
30000.0
 21
0.0
 31
444000.0
  0
LINE
  5
254
330
17
100
AcDbEntity
  8
0
 62
5
100
AcDbLine
 10
-30000.0
 20
0.0
 30
429200.0
 11
-30000.0
 21
0.0
 31
444000.0
  0
LINE
  5
255
330
17
100
AcDbEntity
  8
0
 62
5
100
AcDbLine
 10
0.0
 20
30000.0
 30
429200.0
 11
0.0
 21
30000.0
 31
444000.0
  0
LINE
  5
256
330
17
100
AcDbEntity
  8
0
 62
5
100
AcDbLine
 10
0.0
 20
-30000.0
 30
429200.0
 11
0.0
 21
-30000.0
 31
444000.0
  0
LINE
  5
257
330
17
100
AcDbEntity
  8
0
 62
1
100
AcDbLine
 10
36562.5
 20
0.0
 30
18500.0
 11
73125.0
 21
0.0
 31
18500.0
  0
LINE
  5
258
330
17
100
AcDbEntity
  8
0
 62
1
100
AcDbLine
 10
31664.05382586854
 20
18281.249999999996
 30
18500.0
 11
63328.10765173708
 21
36562.49999999999
 31
18500.0
  0
LINE
  5
259
330
17
100
AcDbEntity
  8
0
 62
1
100
AcDbLine
 10
18281.250000000004
 20
31664.053825868537
 30
18500.0
 11
36562.50000000001
 21
63328.107651737075
 31
18500.0
  0
LINE
  5
25A
330
17
100
AcDbEntity
  8
0
 62
1
100
AcDbLine
 10
2.238807429691255e-12
 20
36562.5
 30
18500.0
 11
4.47761485938251e-12
 21
73125.0
 31
18500.0
  0
LINE
  5
25B
330
17
100
AcDbEntity
  8
0
 62
1
100
AcDbLine
 10
-18281.249999999993
 20
31664.05382586854
 30
18500.0
 11
-36562.499999999985
 21
63328.10765173708
 31
18500.0
  0
LINE
  5
25C
330
17
100
AcDbEntity
  8
0
 62
1
100
AcDbLine
 10
-31664.05382586854
 20
18281.249999999996
 30
18500.0
 11
-63328.10765173708
 21
36562.49999999999
 31
18500.0
  0
LINE
  5
25D
330
17
100
AcDbEntity
  8
0
 62
1
100
AcDbLine
 10
-36562.5
 20
4.47761485938251e-12
 30
18500.0
 11
-73125.0
 21
8.95522971876502e-12
 31
18500.0
  0
LINE
  5
25E
330
17
100
AcDbEntity
  8
0
 62
1
100
AcDbLine
 10
-31664.053825868545
 20
-18281.249999999993
 30
18500.0
 11
-63328.10765173709
 21
-36562.499999999985
 31
18500.0
  0
LINE
  5
25F
330
17
100
AcDbEntity
  8
0
 62
1
100
AcDbLine
 10
-18281.250000000015
 20
-31664.053825868526
 30
18500.0
 11
-36562.50000000003
 21
-63328.10765173705
 31
18500.0
  0
LINE
  5
260
330
17
100
AcDbEntity
  8
0
 62
1
100
AcDbLine
 10
-6.716422289073765e-12
 20
-36562.5
 30
18500.0
 11
-1.343284457814753e-11
 21
-73125.0
 31
18500.0
  0
LINE
  5
261
330
17
100
AcDbEntity
  8
0
 62
1
100
AcDbLine
 10
18281.250000000004
 20
-31664.053825868537
 30
18500.0
 11
36562.50000000001
 21
-63328.107651737075
 31
18500.0
  0
LINE
  5
262
330
17
100
AcDbEntity
  8
0
 62
1
100
AcDbLine
 10
31664.053825868526
 20
-18281.250000000015
 30
18500.0
 11
63328.10765173705
 21
-36562.50000000003
 31
18500.0
  0
LINE
  5
263
330
17
100
AcDbEntity
  8
0
 62
1
100
AcDbLine
 10
35437.5
 20
0.0
 30
40700.0
 11
70875.0
 21
0.0
 31
40700.0
  0
LINE
  5
264
330
17
100
AcDbEntity
  8
0
 62
1
100
AcDbLine
 10
30689.775246611047
 20
17718.749999999996
 30
40700.0
 11
61379.550493222094
 21
35437.49999999999
 31
40700.0
  0
LINE
  5
265
330
17
100
AcDbEntity
  8
0
 62
1
100
AcDbLine
 10
17718.750000000004
 20
30689.775246611043
 30
40700.0
 11
35437.50000000001
 21
61379.55049322209
 31
40700.0
  0
LINE
  5
266
330
17
100
AcDbEntity
  8
0
 62
1
100
AcDbLine
 10
2.1699210472392164e-12
 20
35437.5
 30
40700.0
 11
4.339842094478433e-12
 21
70875.0
 31
40700.0
  0
LINE
  5
267
330
17
100
AcDbEntity
  8
0
 62
1
100
AcDbLine
 10
-17718.749999999993
 20
30689.775246611047
 30
40700.0
 11
-35437.499999999985
 21
61379.550493222094
 31
40700.0
  0
LINE
  5
268
330
17
100
AcDbEntity
  8
0
 62
1
100
AcDbLine
 10
-30689.775246611047
 20
17718.749999999996
 30
40700.0
 11
-61379.550493222094
 21
35437.49999999999
 31
40700.0
  0
LINE
  5
269
330
17
100
AcDbEntity
  8
0
 62
1
100
AcDbLine
 10
-35437.5
 20
4.339842094478433e-12
 30
40700.0
 11
-70875.0
 21
8.679684188956865e-12
 31
40700.0
  0
LINE
  5
26A
330
17
100
AcDbEntity
  8
0
 62
1
100
AcDbLine
 10
-30689.77524661105
 20
-17718.749999999993
 30
40700.0
 11
-61379.5504932221
 21
-35437.499999999985
 31
40700.0
  0
LINE
  5
26B
330
17
100
AcDbEntity
  8
0
 62
1
100
AcDbLine
 10
-17718.750000000015
 20
-30689.775246611036
 30
40700.0
 11
-35437.50000000003
 21
-61379.55049322207
 31
40700.0
  0
LINE
  5
26C
330
17
100
AcDbEntity
  8
0
 62
1
100
AcDbLine
 10
-6.509763141717649e-12
 20
-35437.5
 30
40700.0
 11
-1.3019526283435298e-11
 21
-70875.0
 31
40700.0
  0
LINE
  5
26D
330
17
100
AcDbEntity
  8
0
 62
1
100
AcDbLine
 10
17718.750000000004
 20
-30689.775246611043
 30
40700.0
 11
35437.50000000001
 21
-61379.55049322209
 31
40700.0
  0
LINE
  5
26E
330
17
100
AcDbEntity
  8
0
 62
1
100
AcDbLine
 10
30689.775246611036
 20
-17718.750000000015
 30
40700.0
 11
61379.55049322207
 21
-35437.50000000003
 31
40700.0
  0
LINE
  5
26F
330
17
100
AcDbEntity
  8
0
 62
1
100
AcDbLine
 10
34312.5
 20
0.0
 30
62900.0
 11
68625.0
 21
0.0
 31
62900.0
  0
LINE
  5
270
330
17
100
AcDbEntity
  8
0
 62
1
100
AcDbLine
 10
29715.496667353553
 20
17156.249999999996
 30
62900.0
 11
59430.993334707106
 21
34312.49999999999
 31
62900.0
  0
LINE
  5
271
330
17
100
AcDbEntity
  8
0
 62
1
100
AcDbLine
 10
17156.250000000004
 20
29715.49666735355
 30
62900.0
 11
34312.50000000001
 21
59430.9933347071
 31
62900.0
  0
LINE
  5
272
330
17
100
AcDbEntity
  8
0
 62
1
100
AcDbLine
 10
2.1010346647871777e-12
 20
34312.5
 30
62900.0
 11
4.202069329574355e-12
 21
68625.0
 31
62900.0
  0
LINE
  5
273
330
17
100
AcDbEntity
  8
0
 62
1
100
AcDbLine
 10
-17156.249999999993
 20
29715.496667353553
 30
62900.0
 11
-34312.499999999985
 21
59430.993334707106
 31
62900.0
  0
LINE
  5
274
330
17
100
AcDbEntity
  8
0
 62
1
100
AcDbLine
 10
-29715.496667353553
 20
17156.249999999996
 30
62900.0
 11
-59430.993334707106
 21
34312.49999999999
 31
62900.0
  0
LINE
  5
275
330
17
100
AcDbEntity
  8
0
 62
1
100
AcDbLine
 10
-34312.5
 20
4.202069329574355e-12
 30
62900.0
 11
-68625.0
 21
8.40413865914871e-12
 31
62900.0
  0
LINE
  5
276
330
17
100
AcDbEntity
  8
0
 62
1
100
AcDbLine
 10
-29715.496667353556
 20
-17156.249999999993
 30
62900.0
 11
-59430.99333470711
 21
-34312.499999999985
 31
62900.0
  0
LINE
  5
277
330
17
100
AcDbEntity
  8
0
 62
1
100
AcDbLine
 10
-17156.250000000015
 20
-29715.496667353542
 30
62900.0
 11
-34312.50000000003
 21
-59430.993334707084
 31
62900.0
  0
LINE
  5
278
330
17
100
AcDbEntity
  8
0
 62
1
100
AcDbLine
 10
-6.3031039943615334e-12
 20
-34312.5
 30
62900.0
 11
-1.2606207988723067e-11
 21
-68625.0
 31
62900.0
  0
LINE
  5
279
330
17
100
AcDbEntity
  8
0
 62
1
100
AcDbLine
 10
17156.250000000004
 20
-29715.49666735355
 30
62900.0
 11
34312.50000000001
 21
-59430.9933347071
 31
62900.0
  0
LINE
  5
27A
330
17
100
AcDbEntity
  8
0
 62
1
100
AcDbLine
 10
29715.496667353542
 20
-17156.250000000015
 30
62900.0
 11
59430.993334707084
 21
-34312.50000000003
 31
62900.0
  0
LINE
  5
27B
330
17
100
AcDbEntity
  8
0
 62
1
100
AcDbLine
 10
33187.5
 20
0.0
 30
85100.0
 11
66375.0
 21
0.0
 31
85100.0
  0
LINE
  5
27C
330
17
100
AcDbEntity
  8
0
 62
1
100
AcDbLine
 10
28741.21808809606
 20
16593.749999999996
 30
85100.0
 11
57482.43617619212
 21
33187.49999999999
 31
85100.0
  0
LINE
  5
27D
330
17
100
AcDbEntity
  8
0
 62
1
100
AcDbLine
 10
16593.750000000004
 20
28741.218088096055
 30
85100.0
 11
33187.50000000001
 21
57482.43617619211
 31
85100.0
  0
LINE
  5
27E
330
17
100
AcDbEntity
  8
0
 62
1
100
AcDbLine
 10
2.0321482823351394e-12
 20
33187.5
 30
85100.0
 11
4.064296564670279e-12
 21
66375.0
 31
85100.0
  0
LINE
  5
27F
330
17
100
AcDbEntity
  8
0
 62
1
100
AcDbLine
 10
-16593.749999999993
 20
28741.21808809606
 30
85100.0
 11
-33187.499999999985
 21
57482.43617619212
 31
85100.0
  0
LINE
  5
280
330
17
100
AcDbEntity
  8
0
 62
1
100
AcDbLine
 10
-28741.21808809606
 20
16593.749999999996
 30
85100.0
 11
-57482.43617619212
 21
33187.49999999999
 31
85100.0
  0
LINE
  5
281
330
17
100
AcDbEntity
  8
0
 62
1
100
AcDbLine
 10
-33187.5
 20
4.064296564670279e-12
 30
85100.0
 11
-66375.0
 21
8.128593129340558e-12
 31
85100.0
  0
LINE
  5
282
330
17
100
AcDbEntity
  8
0
 62
1
100
AcDbLine
 10
-28741.218088096062
 20
-16593.749999999993
 30
85100.0
 11
-57482.436176192125
 21
-33187.499999999985
 31
85100.0
  0
LINE
  5
283
330
17
100
AcDbEntity
  8
0
 62
1
100
AcDbLine
 10
-16593.750000000015
 20
-28741.218088096048
 30
85100.0
 11
-33187.50000000003
 21
-57482.436176192095
 31
85100.0
  0
LINE
  5
284
330
17
100
AcDbEntity
  8
0
 62
1
100
AcDbLine
 10
-6.096444847005417e-12
 20
-33187.5
 30
85100.0
 11
-1.2192889694010834e-11
 21
-66375.0
 31
85100.0
  0
LINE
  5
285
330
17
100
AcDbEntity
  8
0
 62
1
100
AcDbLine
 10
16593.750000000004
 20
-28741.218088096055
 30
85100.0
 11
33187.50000000001
 21
-57482.43617619211
 31
85100.0
  0
LINE
  5
286
330
17
100
AcDbEntity
  8
0
 62
1
100
AcDbLine
 10
28741.218088096048
 20
-16593.750000000015
 30
85100.0
 11
57482.436176192095
 21
-33187.50000000003
 31
85100.0
  0
LINE
  5
287
330
17
100
AcDbEntity
  8
0
 62
1
100
AcDbLine
 10
32062.5
 20
0.0
 30
107300.0
 11
64125.0
 21
0.0
 31
107300.0
  0
LINE
  5
288
330
17
100
AcDbEntity
  8
0
 62
1
100
AcDbLine
 10
27766.939508838565
 20
16031.249999999998
 30
107300.0
 11
55533.87901767713
 21
32062.499999999996
 31
107300.0
  0
LINE
  5
289
330
17
100
AcDbEntity
  8
0
 62
1
100
AcDbLine
 10
16031.250000000004
 20
27766.93950883856
 30
107300.0
 11
32062.500000000007
 21
55533.87901767712
 31
107300.0
  0
LINE
  5
28A
330
17
100
AcDbEntity
  8
0
 62
1
100
AcDbLine
 10
1.9632618998831007e-12
 20
32062.5
 30
107300.0
 11
3.9265237997662014e-12
 21
64125.0
 31
107300.0
  0
LINE
  5
28B
330
17
100
AcDbEntity
  8
0
 62
1
100
AcDbLine
 10
-16031.249999999995
 20
27766.939508838565
 30
107300.0
 11
-32062.49999999999
 21
55533.87901767713
 31
107300.0
  0
LINE
  5
28C
330
17
100
AcDbEntity
  8
0
 62
1
100
AcDbLine
 10
-27766.939508838565
 20
16031.249999999998
 30
107300.0
 11
-55533.87901767713
 21
32062.499999999996
 31
107300.0
  0
LINE
  5
28D
330
17
100
AcDbEntity
  8
0
 62
1
100
AcDbLine
 10
-32062.5
 20
3.9265237997662014e-12
 30
107300.0
 11
-64125.0
 21
7.853047599532403e-12
 31
107300.0
  0
LINE
  5
28E
330
17
100
AcDbEntity
  8
0
 62
1
100
AcDbLine
 10
-27766.939508838568
 20
-16031.249999999993
 30
107300.0
 11
-55533.879017677136
 21
-32062.499999999985
 31
107300.0
  0
LINE
  5
28F
330
17
100
AcDbEntity
  8
0
 62
1
100
AcDbLine
 10
-16031.250000000015
 20
-27766.939508838554
 30
107300.0
 11
-32062.50000000003
 21
-55533.87901767711
 31
107300.0
  0
LINE
  5
290
330
17
100
AcDbEntity
  8
0
 62
1
100
AcDbLine
 10
-5.889785699649301e-12
 20
-32062.5
 30
107300.0
 11
-1.1779571399298603e-11
 21
-64125.0
 31
107300.0
  0
LINE
  5
291
330
17
100
AcDbEntity
  8
0
 62
1
100
AcDbLine
 10
16031.250000000004
 20
-27766.93950883856
 30
107300.0
 11
32062.500000000007
 21
-55533.87901767712
 31
107300.0
  0
LINE
  5
292
330
17
100
AcDbEntity
  8
0
 62
1
100
AcDbLine
 10
27766.939508838554
 20
-16031.250000000015
 30
107300.0
 11
55533.87901767711
 21
-32062.50000000003
 31
107300.0
  0
LINE
  5
293
330
17
100
AcDbEntity
  8
0
 62
1
100
AcDbLine
 10
30937.5
 20
0.0
 30
129500.0
 11
61875.0
 21
0.0
 31
129500.0
  0
LINE
  5
294
330
17
100
AcDbEntity
  8
0
 62
1
100
AcDbLine
 10
26792.660929581074
 20
15468.749999999998
 30
129500.0
 11
53585.32185916215
 21
30937.499999999996
 31
129500.0
  0
LINE
  5
295
330
17
100
AcDbEntity
  8
0
 62
1
100
AcDbLine
 10
15468.750000000004
 20
26792.66092958107
 30
129500.0
 11
30937.500000000007
 21
53585.32185916214
 31
129500.0
  0
LINE
  5
296
330
17
100
AcDbEntity
  8
0
 62
1
100
AcDbLine
 10
1.894375517431062e-12
 20
30937.5
 30
129500.0
 11
3.788751034862124e-12
 21
61875.0
 31
129500.0
  0
LINE
  5
297
330
17
100
AcDbEntity
  8
0
 62
1
100
AcDbLine
 10
-15468.749999999995
 20
26792.660929581074
 30
129500.0
 11
-30937.49999999999
 21
53585.32185916215
 31
129500.0
  0
LINE
  5
298
330
17
100
AcDbEntity
  8
0
 62
1
100
AcDbLine
 10
-26792.660929581074
 20
15468.749999999998
 30
129500.0
 11
-53585.32185916215
 21
30937.499999999996
 31
129500.0
  0
LINE
  5
299
330
17
100
AcDbEntity
  8
0
 62
1
100
AcDbLine
 10
-30937.5
 20
3.788751034862124e-12
 30
129500.0
 11
-61875.0
 21
7.577502069724248e-12
 31
129500.0
  0
LINE
  5
29A
330
17
100
AcDbEntity
  8
0
 62
1
100
AcDbLine
 10
-26792.660929581078
 20
-15468.749999999993
 30
129500.0
 11
-53585.321859162155
 21
-30937.499999999985
 31
129500.0
  0
LINE
  5
29B
330
17
100
AcDbEntity
  8
0
 62
1
100
AcDbLine
 10
-15468.750000000015
 20
-26792.660929581063
 30
129500.0
 11
-30937.50000000003
 21
-53585.321859162126
 31
129500.0
  0
LINE
  5
29C
330
17
100
AcDbEntity
  8
0
 62
1
100
AcDbLine
 10
-5.683126552293186e-12
 20
-30937.5
 30
129500.0
 11
-1.1366253104586371e-11
 21
-61875.0
 31
129500.0
  0
LINE
  5
29D
330
17
100
AcDbEntity
  8
0
 62
1
100
AcDbLine
 10
15468.750000000004
 20
-26792.66092958107
 30
129500.0
 11
30937.500000000007
 21
-53585.32185916214
 31
129500.0
  0
LINE
  5
29E
330
17
100
AcDbEntity
  8
0
 62
1
100
AcDbLine
 10
26792.660929581063
 20
-15468.750000000015
 30
129500.0
 11
53585.321859162126
 21
-30937.50000000003
 31
129500.0
  0
LINE
  5
29F
330
17
100
AcDbEntity
  8
0
 62
1
100
AcDbLine
 10
29812.5
 20
0.0
 30
151700.0
 11
59625.0
 21
0.0
 31
151700.0
  0
LINE
  5
2A0
330
17
100
AcDbEntity
  8
0
 62
1
100
AcDbLine
 10
25818.38235032358
 20
14906.249999999998
 30
151700.0
 11
51636.76470064716
 21
29812.499999999996
 31
151700.0
  0
LINE
  5
2A1
330
17
100
AcDbEntity
  8
0
 62
1
100
AcDbLine
 10
14906.250000000004
 20
25818.382350323576
 30
151700.0
 11
29812.500000000007
 21
51636.76470064715
 31
151700.0
  0
LINE
  5
2A2
330
17
100
AcDbEntity
  8
0
 62
1
100
AcDbLine
 10
1.8254891349790233e-12
 20
29812.5
 30
151700.0
 11
3.650978269958047e-12
 21
59625.0
 31
151700.0
  0
LINE
  5
2A3
330
17
100
AcDbEntity
  8
0
 62
1
100
AcDbLine
 10
-14906.249999999995
 20
25818.38235032358
 30
151700.0
 11
-29812.49999999999
 21
51636.76470064716
 31
151700.0
  0
LINE
  5
2A4
330
17
100
AcDbEntity
  8
0
 62
1
100
AcDbLine
 10
-25818.38235032358
 20
14906.249999999998
 30
151700.0
 11
-51636.76470064716
 21
29812.499999999996
 31
151700.0
  0
LINE
  5
2A5
330
17
100
AcDbEntity
  8
0
 62
1
100
AcDbLine
 10
-29812.5
 20
3.650978269958047e-12
 30
151700.0
 11
-59625.0
 21
7.301956539916093e-12
 31
151700.0
  0
LINE
  5
2A6
330
17
100
AcDbEntity
  8
0
 62
1
100
AcDbLine
 10
-25818.382350323584
 20
-14906.249999999993
 30
151700.0
 11
-51636.76470064717
 21
-29812.499999999985
 31
151700.0
  0
LINE
  5
2A7
330
17
100
AcDbEntity
  8
0
 62
1
100
AcDbLine
 10
-14906.250000000013
 20
-25818.38235032357
 30
151700.0
 11
-29812.500000000025
 21
-51636.76470064714
 31
151700.0
  0
LINE
  5
2A8
330
17
100
AcDbEntity
  8
0
 62
1
100
AcDbLine
 10
-5.47646740493707e-12
 20
-29812.5
 30
151700.0
 11
-1.095293480987414e-11
 21
-59625.0
 31
151700.0
  0
LINE
  5
2A9
330
17
100
AcDbEntity
  8
0
 62
1
100
AcDbLine
 10
14906.250000000004
 20
-25818.382350323576
 30
151700.0
 11
29812.500000000007
 21
-51636.76470064715
 31
151700.0
  0
LINE
  5
2AA
330
17
100
AcDbEntity
  8
0
 62
1
100
AcDbLine
 10
25818.38235032357
 20
-14906.250000000013
 30
151700.0
 11
51636.76470064714
 21
-29812.500000000025
 31
151700.0
  0
LINE
  5
2AB
330
17
100
AcDbEntity
  8
0
 62
1
100
AcDbLine
 10
28687.5
 20
0.0
 30
173900.0
 11
57375.0
 21
0.0
 31
173900.0
  0
LINE
  5
2AC
330
17
100
AcDbEntity
  8
0
 62
1
100
AcDbLine
 10
24844.103771066086
 20
14343.749999999998
 30
173900.0
 11
49688.20754213217
 21
28687.499999999996
 31
173900.0
  0
LINE
  5
2AD
330
17
100
AcDbEntity
  8
0
 62
1
100
AcDbLine
 10
14343.750000000004
 20
24844.103771066082
 30
173900.0
 11
28687.500000000007
 21
49688.207542132164
 31
173900.0
  0
LINE
  5
2AE
330
17
100
AcDbEntity
  8
0
 62
1
100
AcDbLine
 10
1.7566027525269848e-12
 20
28687.5
 30
173900.0
 11
3.5132055050539697e-12
 21
57375.0
 31
173900.0
  0
LINE
  5
2AF
330
17
100
AcDbEntity
  8
0
 62
1
100
AcDbLine
 10
-14343.749999999995
 20
24844.103771066086
 30
173900.0
 11
-28687.49999999999
 21
49688.20754213217
 31
173900.0
  0
LINE
  5
2B0
330
17
100
AcDbEntity
  8
0
 62
1
100
AcDbLine
 10
-24844.103771066086
 20
14343.749999999998
 30
173900.0
 11
-49688.20754213217
 21
28687.499999999996
 31
173900.0
  0
LINE
  5
2B1
330
17
100
AcDbEntity
  8
0
 62
1
100
AcDbLine
 10
-28687.5
 20
3.5132055050539697e-12
 30
173900.0
 11
-57375.0
 21
7.026411010107939e-12
 31
173900.0
  0
LINE
  5
2B2
330
17
100
AcDbEntity
  8
0
 62
1
100
AcDbLine
 10
-24844.10377106609
 20
-14343.749999999993
 30
173900.0
 11
-49688.20754213218
 21
-28687.499999999985
 31
173900.0
  0
LINE
  5
2B3
330
17
100
AcDbEntity
  8
0
 62
1
100
AcDbLine
 10
-14343.750000000013
 20
-24844.103771066075
 30
173900.0
 11
-28687.500000000025
 21
-49688.20754213215
 31
173900.0
  0
LINE
  5
2B4
330
17
100
AcDbEntity
  8
0
 62
1
100
AcDbLine
 10
-5.2698082575809535e-12
 20
-28687.5
 30
173900.0
 11
-1.0539616515161907e-11
 21
-57375.0
 31
173900.0
  0
LINE
  5
2B5
330
17
100
AcDbEntity
  8
0
 62
1
100
AcDbLine
 10
14343.750000000004
 20
-24844.103771066082
 30
173900.0
 11
28687.500000000007
 21
-49688.207542132164
 31
173900.0
  0
LINE
  5
2B6
330
17
100
AcDbEntity
  8
0
 62
1
100
AcDbLine
 10
24844.103771066075
 20
-14343.750000000013
 30
173900.0
 11
49688.20754213215
 21
-28687.500000000025
 31
173900.0
  0
LINE
  5
2B7
330
17
100
AcDbEntity
  8
0
 62
1
100
AcDbLine
 10
27562.500000000004
 20
0.0
 30
196100.0
 11
55125.00000000001
 21
0.0
 31
196100.0
  0
LINE
  5
2B8
330
17
100
AcDbEntity
  8
0
 62
1
100
AcDbLine
 10
23869.825191808595
 20
13781.25
 30
196100.0
 11
47739.65038361719
 21
27562.5
 31
196100.0
  0
LINE
  5
2B9
330
17
100
AcDbEntity
  8
0
 62
1
100
AcDbLine
 10
13781.250000000005
 20
23869.82519180859
 30
196100.0
 11
27562.50000000001
 21
47739.65038361718
 31
196100.0
  0
LINE
  5
2BA
330
17
100
AcDbEntity
  8
0
 62
1
100
AcDbLine
 10
1.6877163700749464e-12
 20
27562.500000000004
 30
196100.0
 11
3.3754327401498927e-12
 21
55125.00000000001
 31
196100.0
  0
LINE
  5
2BB
330
17
100
AcDbEntity
  8
0
 62
1
100
AcDbLine
 10
-13781.249999999996
 20
23869.825191808595
 30
196100.0
 11
-27562.499999999993
 21
47739.65038361719
 31
196100.0
  0
LINE
  5
2BC
330
17
100
AcDbEntity
  8
0
 62
1
100
AcDbLine
 10
-23869.825191808595
 20
13781.25
 30
196100.0
 11
-47739.65038361719
 21
27562.5
 31
196100.0
  0
LINE
  5
2BD
330
17
100
AcDbEntity
  8
0
 62
1
100
AcDbLine
 10
-27562.500000000004
 20
3.3754327401498927e-12
 30
196100.0
 11
-55125.00000000001
 21
6.7508654802997855e-12
 31
196100.0
  0
LINE
  5
2BE
330
17
100
AcDbEntity
  8
0
 62
1
100
AcDbLine
 10
-23869.8251918086
 20
-13781.249999999996
 30
196100.0
 11
-47739.6503836172
 21
-27562.499999999993
 31
196100.0
  0
LINE
  5
2BF
330
17
100
AcDbEntity
  8
0
 62
1
100
AcDbLine
 10
-13781.250000000015
 20
-23869.825191808584
 30
196100.0
 11
-27562.50000000003
 21
-47739.65038361717
 31
196100.0
  0
LINE
  5
2C0
330
17
100
AcDbEntity
  8
0
 62
1
100
AcDbLine
 10
-5.063149110224839e-12
 20
-27562.500000000004
 30
196100.0
 11
-1.0126298220449677e-11
 21
-55125.00000000001
 31
196100.0
  0
LINE
  5
2C1
330
17
100
AcDbEntity
  8
0
 62
1
100
AcDbLine
 10
13781.250000000005
 20
-23869.82519180859
 30
196100.0
 11
27562.50000000001
 21
-47739.65038361718
 31
196100.0
  0
LINE
  5
2C2
330
17
100
AcDbEntity
  8
0
 62
1
100
AcDbLine
 10
23869.825191808584
 20
-13781.250000000015
 30
196100.0
 11
47739.65038361717
 21
-27562.50000000003
 31
196100.0
  0
LINE
  5
2C3
330
17
100
AcDbEntity
  8
0
 62
1
100
AcDbLine
 10
26437.500000000004
 20
0.0
 30
218300.0
 11
52875.00000000001
 21
0.0
 31
218300.0
  0
LINE
  5
2C4
330
17
100
AcDbEntity
  8
0
 62
1
100
AcDbLine
 10
22895.5466125511
 20
13218.75
 30
218300.0
 11
45791.0932251022
 21
26437.5
 31
218300.0
  0
LINE
  5
2C5
330
17
100
AcDbEntity
  8
0
 62
1
100
AcDbLine
 10
13218.750000000005
 20
22895.546612551097
 30
218300.0
 11
26437.50000000001
 21
45791.093225102195
 31
218300.0
  0
LINE
  5
2C6
330
17
100
AcDbEntity
  8
0
 62
1
100
AcDbLine
 10
1.6188299876229077e-12
 20
26437.500000000004
 30
218300.0
 11
3.2376599752458154e-12
 21
52875.00000000001
 31
218300.0
  0
LINE
  5
2C7
330
17
100
AcDbEntity
  8
0
 62
1
100
AcDbLine
 10
-13218.749999999998
 20
22895.5466125511
 30
218300.0
 11
-26437.499999999996
 21
45791.0932251022
 31
218300.0
  0
LINE
  5
2C8
330
17
100
AcDbEntity
  8
0
 62
1
100
AcDbLine
 10
-22895.5466125511
 20
13218.75
 30
218300.0
 11
-45791.0932251022
 21
26437.5
 31
218300.0
  0
LINE
  5
2C9
330
17
100
AcDbEntity
  8
0
 62
1
100
AcDbLine
 10
-26437.500000000004
 20
3.2376599752458154e-12
 30
218300.0
 11
-52875.00000000001
 21
6.475319950491631e-12
 31
218300.0
  0
LINE
  5
2CA
330
17
100
AcDbEntity
  8
0
 62
1
100
AcDbLine
 10
-22895.546612551105
 20
-13218.749999999996
 30
218300.0
 11
-45791.09322510221
 21
-26437.499999999993
 31
218300.0
  0
LINE
  5
2CB
330
17
100
AcDbEntity
  8
0
 62
1
100
AcDbLine
 10
-13218.750000000013
 20
-22895.546612551094
 30
218300.0
 11
-26437.500000000025
 21
-45791.09322510219
 31
218300.0
  0
LINE
  5
2CC
330
17
100
AcDbEntity
  8
0
 62
1
100
AcDbLine
 10
-4.856489962868723e-12
 20
-26437.500000000004
 30
218300.0
 11
-9.712979925737446e-12
 21
-52875.00000000001
 31
218300.0
  0
LINE
  5
2CD
330
17
100
AcDbEntity
  8
0
 62
1
100
AcDbLine
 10
13218.750000000005
 20
-22895.546612551097
 30
218300.0
 11
26437.50000000001
 21
-45791.093225102195
 31
218300.0
  0
LINE
  5
2CE
330
17
100
AcDbEntity
  8
0
 62
1
100
AcDbLine
 10
22895.546612551094
 20
-13218.750000000013
 30
218300.0
 11
45791.09322510219
 21
-26437.500000000025
 31
218300.0
  0
LINE
  5
2CF
330
17
100
AcDbEntity
  8
0
 62
1
100
AcDbLine
 10
25312.5
 20
0.0
 30
240500.0
 11
50625.0
 21
0.0
 31
240500.0
  0
LINE
  5
2D0
330
17
100
AcDbEntity
  8
0
 62
1
100
AcDbLine
 10
21921.268033293603
 20
12656.249999999998
 30
240500.0
 11
43842.53606658721
 21
25312.499999999996
 31
240500.0
  0
LINE
  5
2D1
330
17
100
AcDbEntity
  8
0
 62
1
100
AcDbLine
 10
12656.250000000004
 20
21921.268033293603
 30
240500.0
 11
25312.500000000007
 21
43842.53606658721
 31
240500.0
  0
LINE
  5
2D2
330
17
100
AcDbEntity
  8
0
 62
1
100
AcDbLine
 10
1.549943605170869e-12
 20
25312.5
 30
240500.0
 11
3.099887210341738e-12
 21
50625.0
 31
240500.0
  0
LINE
  5
2D3
330
17
100
AcDbEntity
  8
0
 62
1
100
AcDbLine
 10
-12656.249999999996
 20
21921.268033293603
 30
240500.0
 11
-25312.499999999993
 21
43842.53606658721
 31
240500.0
  0
LINE
  5
2D4
330
17
100
AcDbEntity
  8
0
 62
1
100
AcDbLine
 10
-21921.268033293603
 20
12656.249999999998
 30
240500.0
 11
-43842.53606658721
 21
25312.499999999996
 31
240500.0
  0
LINE
  5
2D5
330
17
100
AcDbEntity
  8
0
 62
1
100
AcDbLine
 10
-25312.5
 20
3.099887210341738e-12
 30
240500.0
 11
-50625.0
 21
6.199774420683476e-12
 31
240500.0
  0
LINE
  5
2D6
330
17
100
AcDbEntity
  8
0
 62
1
100
AcDbLine
 10
-21921.268033293607
 20
-12656.249999999995
 30
240500.0
 11
-43842.536066587214
 21
-25312.49999999999
 31
240500.0
  0
LINE
  5
2D7
330
17
100
AcDbEntity
  8
0
 62
1
100
AcDbLine
 10
-12656.250000000011
 20
-21921.268033293596
 30
240500.0
 11
-25312.500000000022
 21
-43842.53606658719
 31
240500.0
  0
LINE
  5
2D8
330
17
100
AcDbEntity
  8
0
 62
1
100
AcDbLine
 10
-4.6498308155126066e-12
 20
-25312.5
 30
240500.0
 11
-9.299661631025213e-12
 21
-50625.0
 31
240500.0
  0
LINE
  5
2D9
330
17
100
AcDbEntity
  8
0
 62
1
100
AcDbLine
 10
12656.250000000004
 20
-21921.268033293603
 30
240500.0
 11
25312.500000000007
 21
-43842.53606658721
 31
240500.0
  0
LINE
  5
2DA
330
17
100
AcDbEntity
  8
0
 62
1
100
AcDbLine
 10
21921.268033293596
 20
-12656.250000000011
 30
240500.0
 11
43842.53606658719
 21
-25312.500000000022
 31
240500.0
  0
LINE
  5
2DB
330
17
100
AcDbEntity
  8
0
 62
1
100
AcDbLine
 10
24187.5
 20
0.0
 30
262700.0
 11
48375.0
 21
0.0
 31
262700.0
  0
LINE
  5
2DC
330
17
100
AcDbEntity
  8
0
 62
1
100
AcDbLine
 10
20946.989454036113
 20
12093.749999999998
 30
262700.0
 11
41893.978908072226
 21
24187.499999999996
 31
262700.0
  0
LINE
  5
2DD
330
17
100
AcDbEntity
  8
0
 62
1
100
AcDbLine
 10
12093.750000000002
 20
20946.98945403611
 30
262700.0
 11
24187.500000000004
 21
41893.97890807222
 31
262700.0
  0
LINE
  5
2DE
330
17
100
AcDbEntity
  8
0
 62
1
100
AcDbLine
 10
1.4810572227188303e-12
 20
24187.5
 30
262700.0
 11
2.9621144454376606e-12
 21
48375.0
 31
262700.0
  0
LINE
  5
2DF
330
17
100
AcDbEntity
  8
0
 62
1
100
AcDbLine
 10
-12093.749999999996
 20
20946.989454036113
 30
262700.0
 11
-24187.499999999993
 21
41893.978908072226
 31
262700.0
  0
LINE
  5
2E0
330
17
100
AcDbEntity
  8
0
 62
1
100
AcDbLine
 10
-20946.989454036113
 20
12093.749999999998
 30
262700.0
 11
-41893.978908072226
 21
24187.499999999996
 31
262700.0
  0
LINE
  5
2E1
330
17
100
AcDbEntity
  8
0
 62
1
100
AcDbLine
 10
-24187.5
 20
2.9621144454376606e-12
 30
262700.0
 11
-48375.0
 21
5.924228890875321e-12
 31
262700.0
  0
LINE
  5
2E2
330
17
100
AcDbEntity
  8
0
 62
1
100
AcDbLine
 10
-20946.989454036113
 20
-12093.749999999995
 30
262700.0
 11
-41893.978908072226
 21
-24187.49999999999
 31
262700.0
  0
LINE
  5
2E3
330
17
100
AcDbEntity
  8
0
 62
1
100
AcDbLine
 10
-12093.750000000011
 20
-20946.989454036102
 30
262700.0
 11
-24187.500000000022
 21
-41893.978908072204
 31
262700.0
  0
LINE
  5
2E4
330
17
100
AcDbEntity
  8
0
 62
1
100
AcDbLine
 10
-4.443171668156491e-12
 20
-24187.5
 30
262700.0
 11
-8.886343336312982e-12
 21
-48375.0
 31
262700.0
  0
LINE
  5
2E5
330
17
100
AcDbEntity
  8
0
 62
1
100
AcDbLine
 10
12093.750000000002
 20
-20946.98945403611
 30
262700.0
 11
24187.500000000004
 21
-41893.97890807222
 31
262700.0
  0
LINE
  5
2E6
330
17
100
AcDbEntity
  8
0
 62
1
100
AcDbLine
 10
20946.989454036102
 20
-12093.750000000011
 30
262700.0
 11
41893.978908072204
 21
-24187.500000000022
 31
262700.0
  0
LINE
  5
2E7
330
17
100
AcDbEntity
  8
0
 62
1
100
AcDbLine
 10
23062.5
 20
0.0
 30
284900.0
 11
46125.0
 21
0.0
 31
284900.0
  0
LINE
  5
2E8
330
17
100
AcDbEntity
  8
0
 62
1
100
AcDbLine
 10
19972.71087477862
 20
11531.249999999998
 30
284900.0
 11
39945.42174955724
 21
23062.499999999996
 31
284900.0
  0
LINE
  5
2E9
330
17
100
AcDbEntity
  8
0
 62
1
100
AcDbLine
 10
11531.250000000002
 20
19972.710874778615
 30
284900.0
 11
23062.500000000004
 21
39945.42174955723
 31
284900.0
  0
LINE
  5
2EA
330
17
100
AcDbEntity
  8
0
 62
1
100
AcDbLine
 10
1.4121708402667916e-12
 20
23062.5
 30
284900.0
 11
2.8243416805335833e-12
 21
46125.0
 31
284900.0
  0
LINE
  5
2EB
330
17
100
AcDbEntity
  8
0
 62
1
100
AcDbLine
 10
-11531.249999999996
 20
19972.71087477862
 30
284900.0
 11
-23062.499999999993
 21
39945.42174955724
 31
284900.0
  0
LINE
  5
2EC
330
17
100
AcDbEntity
  8
0
 62
1
100
AcDbLine
 10
-19972.71087477862
 20
11531.249999999998
 30
284900.0
 11
-39945.42174955724
 21
23062.499999999996
 31
284900.0
  0
LINE
  5
2ED
330
17
100
AcDbEntity
  8
0
 62
1
100
AcDbLine
 10
-23062.5
 20
2.8243416805335833e-12
 30
284900.0
 11
-46125.0
 21
5.6486833610671665e-12
 31
284900.0
  0
LINE
  5
2EE
330
17
100
AcDbEntity
  8
0
 62
1
100
AcDbLine
 10
-19972.71087477862
 20
-11531.249999999995
 30
284900.0
 11
-39945.42174955724
 21
-23062.49999999999
 31
284900.0
  0
LINE
  5
2EF
330
17
100
AcDbEntity
  8
0
 62
1
100
AcDbLine
 10
-11531.250000000011
 20
-19972.71087477861
 30
284900.0
 11
-23062.500000000022
 21
-39945.42174955722
 31
284900.0
  0
LINE
  5
2F0
330
17
100
AcDbEntity
  8
0
 62
1
100
AcDbLine
 10
-4.2365125208003745e-12
 20
-23062.5
 30
284900.0
 11
-8.473025041600749e-12
 21
-46125.0
 31
284900.0
  0
LINE
  5
2F1
330
17
100
AcDbEntity
  8
0
 62
1
100
AcDbLine
 10
11531.250000000002
 20
-19972.710874778615
 30
284900.0
 11
23062.500000000004
 21
-39945.42174955723
 31
284900.0
  0
LINE
  5
2F2
330
17
100
AcDbEntity
  8
0
 62
1
100
AcDbLine
 10
19972.71087477861
 20
-11531.250000000011
 30
284900.0
 11
39945.42174955722
 21
-23062.500000000022
 31
284900.0
  0
LINE
  5
2F3
330
17
100
AcDbEntity
  8
0
 62
1
100
AcDbLine
 10
21937.5
 20
0.0
 30
307100.0
 11
43875.0
 21
0.0
 31
307100.0
  0
LINE
  5
2F4
330
17
100
AcDbEntity
  8
0
 62
1
100
AcDbLine
 10
18998.432295521125
 20
10968.749999999998
 30
307100.0
 11
37996.86459104225
 21
21937.499999999996
 31
307100.0
  0
LINE
  5
2F5
330
17
100
AcDbEntity
  8
0
 62
1
100
AcDbLine
 10
10968.750000000002
 20
18998.43229552112
 30
307100.0
 11
21937.500000000004
 21
37996.86459104224
 31
307100.0
  0
LINE
  5
2F6
330
17
100
AcDbEntity
  8
0
 62
1
100
AcDbLine
 10
1.3432844578147531e-12
 20
21937.5
 30
307100.0
 11
2.6865689156295063e-12
 21
43875.0
 31
307100.0
  0
LINE
  5
2F7
330
17
100
AcDbEntity
  8
0
 62
1
100
AcDbLine
 10
-10968.749999999996
 20
18998.432295521125
 30
307100.0
 11
-21937.499999999993
 21
37996.86459104225
 31
307100.0
  0
LINE
  5
2F8
330
17
100
AcDbEntity
  8
0
 62
1
100
AcDbLine
 10
-18998.432295521125
 20
10968.749999999998
 30
307100.0
 11
-37996.86459104225
 21
21937.499999999996
 31
307100.0
  0
LINE
  5
2F9
330
17
100
AcDbEntity
  8
0
 62
1
100
AcDbLine
 10
-21937.5
 20
2.6865689156295063e-12
 30
307100.0
 11
-43875.0
 21
5.3731378312590126e-12
 31
307100.0
  0
LINE
  5
2FA
330
17
100
AcDbEntity
  8
0
 62
1
100
AcDbLine
 10
-18998.43229552113
 20
-10968.749999999995
 30
307100.0
 11
-37996.86459104226
 21
-21937.49999999999
 31
307100.0
  0
LINE
  5
2FB
330
17
100
AcDbEntity
  8
0
 62
1
100
AcDbLine
 10
-10968.75000000001
 20
-18998.432295521117
 30
307100.0
 11
-21937.50000000002
 21
-37996.864591042235
 31
307100.0
  0
LINE
  5
2FC
330
17
100
AcDbEntity
  8
0
 62
1
100
AcDbLine
 10
-4.029853373444259e-12
 20
-21937.5
 30
307100.0
 11
-8.059706746888518e-12
 21
-43875.0
 31
307100.0
  0
LINE
  5
2FD
330
17
100
AcDbEntity
  8
0
 62
1
100
AcDbLine
 10
10968.750000000002
 20
-18998.43229552112
 30
307100.0
 11
21937.500000000004
 21
-37996.86459104224
 31
307100.0
  0
LINE
  5
2FE
330
17
100
AcDbEntity
  8
0
 62
1
100
AcDbLine
 10
18998.432295521117
 20
-10968.75000000001
 30
307100.0
 11
37996.864591042235
 21
-21937.50000000002
 31
307100.0
  0
LINE
  5
2FF
330
17
100
AcDbEntity
  8
0
 62
1
100
AcDbLine
 10
20812.499999999996
 20
0.0
 30
329300.0
 11
41624.99999999999
 21
0.0
 31
329300.0
  0
LINE
  5
300
330
17
100
AcDbEntity
  8
0
 62
1
100
AcDbLine
 10
18024.153716263627
 20
10406.249999999996
 30
329300.0
 11
36048.307432527254
 21
20812.499999999993
 31
329300.0
  0
LINE
  5
301
330
17
100
AcDbEntity
  8
0
 62
1
100
AcDbLine
 10
10406.25
 20
18024.153716263627
 30
329300.0
 11
20812.5
 21
36048.307432527254
 31
329300.0
  0
LINE
  5
302
330
17
100
AcDbEntity
  8
0
 62
1
100
AcDbLine
 10
1.2743980753627143e-12
 20
20812.499999999996
 30
329300.0
 11
2.5487961507254285e-12
 21
41624.99999999999
 31
329300.0
  0
LINE
  5
303
330
17
100
AcDbEntity
  8
0
 62
1
100
AcDbLine
 10
-10406.249999999995
 20
18024.153716263627
 30
329300.0
 11
-20812.49999999999
 21
36048.307432527254
 31
329300.0
  0
LINE
  5
304
330
17
100
AcDbEntity
  8
0
 62
1
100
AcDbLine
 10
-18024.153716263627
 20
10406.249999999996
 30
329300.0
 11
-36048.307432527254
 21
20812.499999999993
 31
329300.0
  0
LINE
  5
305
330
17
100
AcDbEntity
  8
0
 62
1
100
AcDbLine
 10
-20812.499999999996
 20
2.5487961507254285e-12
 30
329300.0
 11
-41624.99999999999
 21
5.097592301450857e-12
 31
329300.0
  0
LINE
  5
306
330
17
100
AcDbEntity
  8
0
 62
1
100
AcDbLine
 10
-18024.15371626363
 20
-10406.249999999993
 30
329300.0
 11
-36048.30743252726
 21
-20812.499999999985
 31
329300.0
  0
LINE
  5
307
330
17
100
AcDbEntity
  8
0
 62
1
100
AcDbLine
 10
-10406.250000000007
 20
-18024.15371626362
 30
329300.0
 11
-20812.500000000015
 21
-36048.30743252724
 31
329300.0
  0
LINE
  5
308
330
17
100
AcDbEntity
  8
0
 62
1
100
AcDbLine
 10
-3.823194226088142e-12
 20
-20812.499999999996
 30
329300.0
 11
-7.646388452176285e-12
 21
-41624.99999999999
 31
329300.0
  0
LINE
  5
309
330
17
100
AcDbEntity
  8
0
 62
1
100
AcDbLine
 10
10406.25
 20
-18024.153716263627
 30
329300.0
 11
20812.5
 21
-36048.307432527254
 31
329300.0
  0
LINE
  5
30A
330
17
100
AcDbEntity
  8
0
 62
1
100
AcDbLine
 10
18024.15371626362
 20
-10406.250000000007
 30
329300.0
 11
36048.30743252724
 21
-20812.500000000015
 31
329300.0
  0
LINE
  5
30B
330
17
100
AcDbEntity
  8
0
 62
1
100
AcDbLine
 10
19687.5
 20
0.0
 30
351500.0
 11
39375.0
 21
0.0
 31
351500.0
  0
LINE
  5
30C
330
17
100
AcDbEntity
  8
0
 62
1
100
AcDbLine
 10
17049.875137006136
 20
9843.749999999998
 30
351500.0
 11
34099.75027401227
 21
19687.499999999996
 31
351500.0
  0
LINE
  5
30D
330
17
100
AcDbEntity
  8
0
 62
1
100
AcDbLine
 10
9843.750000000002
 20
17049.875137006136
 30
351500.0
 11
19687.500000000004
 21
34099.75027401227
 31
351500.0
  0
LINE
  5
30E
330
17
100
AcDbEntity
  8
0
 62
1
100
AcDbLine
 10
1.2055116929106758e-12
 20
19687.5
 30
351500.0
 11
2.4110233858213515e-12
 21
39375.0
 31
351500.0
  0
LINE
  5
30F
330
17
100
AcDbEntity
  8
0
 62
1
100
AcDbLine
 10
-9843.749999999996
 20
17049.875137006136
 30
351500.0
 11
-19687.499999999993
 21
34099.75027401227
 31
351500.0
  0
LINE
  5
310
330
17
100
AcDbEntity
  8
0
 62
1
100
AcDbLine
 10
-17049.875137006136
 20
9843.749999999998
 30
351500.0
 11
-34099.75027401227
 21
19687.499999999996
 31
351500.0
  0
LINE
  5
311
330
17
100
AcDbEntity
  8
0
 62
1
100
AcDbLine
 10
-19687.5
 20
2.4110233858213515e-12
 30
351500.0
 11
-39375.0
 21
4.822046771642703e-12
 31
351500.0
  0
LINE
  5
312
330
17
100
AcDbEntity
  8
0
 62
1
100
AcDbLine
 10
-17049.87513700614
 20
-9843.749999999996
 30
351500.0
 11
-34099.75027401228
 21
-19687.499999999993
 31
351500.0
  0
LINE
  5
313
330
17
100
AcDbEntity
  8
0
 62
1
100
AcDbLine
 10
-9843.75000000001
 20
-17049.87513700613
 30
351500.0
 11
-19687.50000000002
 21
-34099.75027401226
 31
351500.0
  0
LINE
  5
314
330
17
100
AcDbEntity
  8
0
 62
1
100
AcDbLine
 10
-3.616535078732027e-12
 20
-19687.5
 30
351500.0
 11
-7.233070157464054e-12
 21
-39375.0
 31
351500.0
  0
LINE
  5
315
330
17
100
AcDbEntity
  8
0
 62
1
100
AcDbLine
 10
9843.750000000002
 20
-17049.875137006136
 30
351500.0
 11
19687.500000000004
 21
-34099.75027401227
 31
351500.0
  0
LINE
  5
316
330
17
100
AcDbEntity
  8
0
 62
1
100
AcDbLine
 10
17049.87513700613
 20
-9843.75000000001
 30
351500.0
 11
34099.75027401226
 21
-19687.50000000002
 31
351500.0
  0
LINE
  5
317
330
17
100
AcDbEntity
  8
0
 62
1
100
AcDbLine
 10
18562.5
 20
0.0
 30
373700.0
 11
37125.0
 21
0.0
 31
373700.0
  0
LINE
  5
318
330
17
100
AcDbEntity
  8
0
 62
1
100
AcDbLine
 10
16075.596557748644
 20
9281.249999999998
 30
373700.0
 11
32151.193115497288
 21
18562.499999999996
 31
373700.0
  0
LINE
  5
319
330
17
100
AcDbEntity
  8
0
 62
1
100
AcDbLine
 10
9281.250000000002
 20
16075.596557748642
 30
373700.0
 11
18562.500000000004
 21
32151.193115497284
 31
373700.0
  0
LINE
  5
31A
330
17
100
AcDbEntity
  8
0
 62
1
100
AcDbLine
 10
1.1366253104586373e-12
 20
18562.5
 30
373700.0
 11
2.2732506209172746e-12
 21
37125.0
 31
373700.0
  0
LINE
  5
31B
330
17
100
AcDbEntity
  8
0
 62
1
100
AcDbLine
 10
-9281.249999999996
 20
16075.596557748644
 30
373700.0
 11
-18562.499999999993
 21
32151.193115497288
 31
373700.0
  0
LINE
  5
31C
330
17
100
AcDbEntity
  8
0
 62
1
100
AcDbLine
 10
-16075.596557748644
 20
9281.249999999998
 30
373700.0
 11
-32151.193115497288
 21
18562.499999999996
 31
373700.0
  0
LINE
  5
31D
330
17
100
AcDbEntity
  8
0
 62
1
100
AcDbLine
 10
-18562.5
 20
2.2732506209172746e-12
 30
373700.0
 11
-37125.0
 21
4.546501241834549e-12
 31
373700.0
  0
LINE
  5
31E
330
17
100
AcDbEntity
  8
0
 62
1
100
AcDbLine
 10
-16075.596557748646
 20
-9281.249999999996
 30
373700.0
 11
-32151.19311549729
 21
-18562.499999999993
 31
373700.0
  0
LINE
  5
31F
330
17
100
AcDbEntity
  8
0
 62
1
100
AcDbLine
 10
-9281.25000000001
 20
-16075.596557748637
 30
373700.0
 11
-18562.50000000002
 21
-32151.193115497274
 31
373700.0
  0
LINE
  5
320
330
17
100
AcDbEntity
  8
0
 62
1
100
AcDbLine
 10
-3.4098759313759115e-12
 20
-18562.5
 30
373700.0
 11
-6.819751862751823e-12
 21
-37125.0
 31
373700.0
  0
LINE
  5
321
330
17
100
AcDbEntity
  8
0
 62
1
100
AcDbLine
 10
9281.250000000002
 20
-16075.596557748642
 30
373700.0
 11
18562.500000000004
 21
-32151.193115497284
 31
373700.0
  0
LINE
  5
322
330
17
100
AcDbEntity
  8
0
 62
1
100
AcDbLine
 10
16075.596557748637
 20
-9281.25000000001
 30
373700.0
 11
32151.193115497274
 21
-18562.50000000002
 31
373700.0
  0
LINE
  5
323
330
17
100
AcDbEntity
  8
0
 62
1
100
AcDbLine
 10
17437.5
 20
0.0
 30
395900.0
 11
34875.0
 21
0.0
 31
395900.0
  0
LINE
  5
324
330
17
100
AcDbEntity
  8
0
 62
1
100
AcDbLine
 10
15101.31797849115
 20
8718.749999999998
 30
395900.0
 11
30202.6359569823
 21
17437.499999999996
 31
395900.0
  0
LINE
  5
325
330
17
100
AcDbEntity
  8
0
 62
1
100
AcDbLine
 10
8718.750000000002
 20
15101.317978491148
 30
395900.0
 11
17437.500000000004
 21
30202.635956982296
 31
395900.0
  0
LINE
  5
326
330
17
100
AcDbEntity
  8
0
 62
1
100
AcDbLine
 10
1.0677389280065986e-12
 20
17437.5
 30
395900.0
 11
2.1354778560131972e-12
 21
34875.0
 31
395900.0
  0
LINE
  5
327
330
17
100
AcDbEntity
  8
0
 62
1
100
AcDbLine
 10
-8718.749999999996
 20
15101.31797849115
 30
395900.0
 11
-17437.499999999993
 21
30202.6359569823
 31
395900.0
  0
LINE
  5
328
330
17
100
AcDbEntity
  8
0
 62
1
100
AcDbLine
 10
-15101.31797849115
 20
8718.749999999998
 30
395900.0
 11
-30202.6359569823
 21
17437.499999999996
 31
395900.0
  0
LINE
  5
329
330
17
100
AcDbEntity
  8
0
 62
1
100
AcDbLine
 10
-17437.5
 20
2.1354778560131972e-12
 30
395900.0
 11
-34875.0
 21
4.2709557120263944e-12
 31
395900.0
  0
LINE
  5
32A
330
17
100
AcDbEntity
  8
0
 62
1
100
AcDbLine
 10
-15101.317978491152
 20
-8718.749999999996
 30
395900.0
 11
-30202.635956982303
 21
-17437.499999999993
 31
395900.0
  0
LINE
  5
32B
330
17
100
AcDbEntity
  8
0
 62
1
100
AcDbLine
 10
-8718.750000000007
 20
-15101.317978491144
 30
395900.0
 11
-17437.500000000015
 21
-30202.63595698229
 31
395900.0
  0
LINE
  5
32C
330
17
100
AcDbEntity
  8
0
 62
1
100
AcDbLine
 10
-3.2032167840197954e-12
 20
-17437.5
 30
395900.0
 11
-6.406433568039591e-12
 21
-34875.0
 31
395900.0
  0
LINE
  5
32D
330
17
100
AcDbEntity
  8
0
 62
1
100
AcDbLine
 10
8718.750000000002
 20
-15101.317978491148
 30
395900.0
 11
17437.500000000004
 21
-30202.635956982296
 31
395900.0
  0
LINE
  5
32E
330
17
100
AcDbEntity
  8
0
 62
1
100
AcDbLine
 10
15101.317978491144
 20
-8718.750000000007
 30
395900.0
 11
30202.63595698229
 21
-17437.500000000015
 31
395900.0
  0
LINE
  5
32F
330
17
100
AcDbEntity
  8
0
 62
1
100
AcDbLine
 10
16312.500000000002
 20
0.0
 30
418100.0
 11
32625.000000000004
 21
0.0
 31
418100.0
  0
LINE
  5
330
330
17
100
AcDbEntity
  8
0
 62
1
100
AcDbLine
 10
14127.039399233658
 20
8156.25
 30
418100.0
 11
28254.078798467315
 21
16312.5
 31
418100.0
  0
LINE
  5
331
330
17
100
AcDbEntity
  8
0
 62
1
100
AcDbLine
 10
8156.250000000003
 20
14127.039399233656
 30
418100.0
 11
16312.500000000005
 21
28254.07879846731
 31
418100.0
  0
LINE
  5
332
330
17
100
AcDbEntity
  8
0
 62
1
100
AcDbLine
 10
9.988525455545601e-13
 20
16312.500000000002
 30
418100.0
 11
1.9977050911091202e-12
 21
32625.000000000004
 31
418100.0
  0
LINE
  5
333
330
17
100
AcDbEntity
  8
0
 62
1
100
AcDbLine
 10
-8156.249999999998
 20
14127.039399233658
 30
418100.0
 11
-16312.499999999996
 21
28254.078798467315
 31
418100.0
  0
LINE
  5
334
330
17
100
AcDbEntity
  8
0
 62
1
100
AcDbLine
 10
-14127.039399233658
 20
8156.25
 30
418100.0
 11
-28254.078798467315
 21
16312.5
 31
418100.0
  0
LINE
  5
335
330
17
100
AcDbEntity
  8
0
 62
1
100
AcDbLine
 10
-16312.500000000002
 20
1.9977050911091202e-12
 30
418100.0
 11
-32625.000000000004
 21
3.9954101822182405e-12
 31
418100.0
  0
LINE
  5
336
330
17
100
AcDbEntity
  8
0
 62
1
100
AcDbLine
 10
-14127.03939923366
 20
-8156.249999999997
 30
418100.0
 11
-28254.07879846732
 21
-16312.499999999995
 31
418100.0
  0
LINE
  5
337
330
17
100
AcDbEntity
  8
0
 62
1
100
AcDbLine
 10
-8156.250000000008
 20
-14127.039399233652
 30
418100.0
 11
-16312.500000000016
 21
-28254.078798467304
 31
418100.0
  0
LINE
  5
338
330
17
100
AcDbEntity
  8
0
 62
1
100
AcDbLine
 10
-2.99655763666368e-12
 20
-16312.500000000002
 30
418100.0
 11
-5.99311527332736e-12
 21
-32625.000000000004
 31
418100.0
  0
LINE
  5
339
330
17
100
AcDbEntity
  8
0
 62
1
100
AcDbLine
 10
8156.250000000003
 20
-14127.039399233656
 30
418100.0
 11
16312.500000000005
 21
-28254.07879846731
 31
418100.0
  0
LINE
  5
33A
330
17
100
AcDbEntity
  8
0
 62
1
100
AcDbLine
 10
14127.039399233652
 20
-8156.250000000008
 30
418100.0
 11
28254.078798467304
 21
-16312.500000000016
 31
418100.0
  0
LINE
  5
33B
330
17
100
AcDbEntity
  8
0
 62
1
100
AcDbLine
 10
15187.500000000002
 20
0.0
 30
440300.0
 11
30375.000000000004
 21
0.0
 31
440300.0
  0
LINE
  5
33C
330
17
100
AcDbEntity
  8
0
 62
1
100
AcDbLine
 10
13152.760819976165
 20
7593.75
 30
440300.0
 11
26305.52163995233
 21
15187.5
 31
440300.0
  0
LINE
  5
33D
330
17
100
AcDbEntity
  8
0
 62
1
100
AcDbLine
 10
7593.750000000003
 20
13152.760819976163
 30
440300.0
 11
15187.500000000005
 21
26305.521639952327
 31
440300.0
  0
LINE
  5
33E
330
17
100
AcDbEntity
  8
0
 62
1
100
AcDbLine
 10
9.299661631025214e-13
 20
15187.500000000002
 30
440300.0
 11
1.859932326205043e-12
 21
30375.000000000004
 31
440300.0
  0
LINE
  5
33F
330
17
100
AcDbEntity
  8
0
 62
1
100
AcDbLine
 10
-7593.749999999998
 20
13152.760819976165
 30
440300.0
 11
-15187.499999999996
 21
26305.52163995233
 31
440300.0
  0
LINE
  5
340
330
17
100
AcDbEntity
  8
0
 62
1
100
AcDbLine
 10
-13152.760819976165
 20
7593.75
 30
440300.0
 11
-26305.52163995233
 21
15187.5
 31
440300.0
  0
LINE
  5
341
330
17
100
AcDbEntity
  8
0
 62
1
100
AcDbLine
 10
-15187.500000000002
 20
1.859932326205043e-12
 30
440300.0
 11
-30375.000000000004
 21
3.719864652410086e-12
 31
440300.0
  0
LINE
  5
342
330
17
100
AcDbEntity
  8
0
 62
1
100
AcDbLine
 10
-13152.760819976165
 20
-7593.749999999997
 30
440300.0
 11
-26305.52163995233
 21
-15187.499999999995
 31
440300.0
  0
LINE
  5
343
330
17
100
AcDbEntity
  8
0
 62
1
100
AcDbLine
 10
-7593.750000000007
 20
-13152.76081997616
 30
440300.0
 11
-15187.500000000015
 21
-26305.52163995232
 31
440300.0
  0
LINE
  5
344
330
17
100
AcDbEntity
  8
0
 62
1
100
AcDbLine
 10
-2.789898489307564e-12
 20
-15187.500000000002
 30
440300.0
 11
-5.579796978615128e-12
 21
-30375.000000000004
 31
440300.0
  0
LINE
  5
345
330
17
100
AcDbEntity
  8
0
 62
1
100
AcDbLine
 10
7593.750000000003
 20
-13152.760819976163
 30
440300.0
 11
15187.500000000005
 21
-26305.521639952327
 31
440300.0
  0
LINE
  5
346
330
17
100
AcDbEntity
  8
0
 62
1
100
AcDbLine
 10
13152.76081997616
 20
-7593.750000000007
 30
440300.0
 11
26305.52163995232
 21
-15187.500000000015
 31
440300.0
  0
LINE
  5
347
330
17
100
AcDbEntity
  8
0
 62
6
100
AcDbLine
 10
35625.0
 20
0.0
 30
37000.0
 11
69375.0
 21
0.0
 31
55500.0
  0
LINE
  5
348
330
17
100
AcDbEntity
  8
0
 62
6
100
AcDbLine
 10
34687.5
 20
0.0
 30
55500.0
 11
69375.0
 21
0.0
 31
37000.0
  0
LINE
  5
349
330
17
100
AcDbEntity
  8
0
 62
6
100
AcDbLine
 10
2.181402110981223e-12
 20
35625.0
 30
37000.0
 11
4.247993584542381e-12
 21
69375.0
 31
55500.0
  0
LINE
  5
34A
330
17
100
AcDbEntity
  8
0
 62
6
100
AcDbLine
 10
2.1239967922711907e-12
 20
34687.5
 30
55500.0
 11
4.247993584542381e-12
 21
69375.0
 31
37000.0
  0
LINE
  5
34B
330
17
100
AcDbEntity
  8
0
 62
6
100
AcDbLine
 10
-35625.0
 20
4.362804221962446e-12
 30
37000.0
 11
-69375.0
 21
8.495987169084763e-12
 31
55500.0
  0
LINE
  5
34C
330
17
100
AcDbEntity
  8
0
 62
6
100
AcDbLine
 10
-34687.5
 20
4.247993584542381e-12
 30
55500.0
 11
-69375.0
 21
8.495987169084763e-12
 31
37000.0
  0
LINE
  5
34D
330
17
100
AcDbEntity
  8
0
 62
6
100
AcDbLine
 10
-6.544206332943668e-12
 20
-35625.0
 30
37000.0
 11
-1.2743980753627143e-11
 21
-69375.0
 31
55500.0
  0
LINE
  5
34E
330
17
100
AcDbEntity
  8
0
 62
6
100
AcDbLine
 10
-6.371990376813572e-12
 20
-34687.5
 30
55500.0
 11
-1.2743980753627143e-11
 21
-69375.0
 31
37000.0
  0
LINE
  5
34F
330
17
100
AcDbEntity
  8
0
 62
6
100
AcDbLine
 10
33750.0
 20
0.0
 30
74000.0
 11
65625.0
 21
0.0
 31
92500.0
  0
LINE
  5
350
330
17
100
AcDbEntity
  8
0
 62
6
100
AcDbLine
 10
32812.5
 20
0.0
 30
92500.0
 11
65625.0
 21
0.0
 31
74000.0
  0
LINE
  5
351
330
17
100
AcDbEntity
  8
0
 62
6
100
AcDbLine
 10
2.0665914735611585e-12
 20
33750.0
 30
74000.0
 11
4.018372309702253e-12
 21
65625.0
 31
92500.0
  0
LINE
  5
352
330
17
100
AcDbEntity
  8
0
 62
6
100
AcDbLine
 10
2.0091861548511264e-12
 20
32812.5
 30
92500.0
 11
4.018372309702253e-12
 21
65625.0
 31
74000.0
  0
LINE
  5
353
330
17
100
AcDbEntity
  8
0
 62
6
100
AcDbLine
 10
-33750.0
 20
4.133182947122317e-12
 30
74000.0
 11
-65625.0
 21
8.036744619404505e-12
 31
92500.0
  0
LINE
  5
354
330
17
100
AcDbEntity
  8
0
 62
6
100
AcDbLine
 10
-32812.5
 20
4.018372309702253e-12
 30
92500.0
 11
-65625.0
 21
8.036744619404505e-12
 31
74000.0
  0
LINE
  5
355
330
17
100
AcDbEntity
  8
0
 62
6
100
AcDbLine
 10
-6.199774420683475e-12
 20
-33750.0
 30
74000.0
 11
-1.2055116929106757e-11
 21
-65625.0
 31
92500.0
  0
LINE
  5
356
330
17
100
AcDbEntity
  8
0
 62
6
100
AcDbLine
 10
-6.027558464553379e-12
 20
-32812.5
 30
92500.0
 11
-1.2055116929106757e-11
 21
-65625.0
 31
74000.0
  0
LINE
  5
357
330
17
100
AcDbEntity
  8
0
 62
6
100
AcDbLine
 10
31875.0
 20
0.0
 30
111000.0
 11
61875.0
 21
0.0
 31
129500.0
  0
LINE
  5
358
330
17
100
AcDbEntity
  8
0
 62
6
100
AcDbLine
 10
30937.5
 20
0.0
 30
129500.0
 11
61875.0
 21
0.0
 31
111000.0
  0
LINE
  5
359
330
17
100
AcDbEntity
  8
0
 62
6
100
AcDbLine
 10
1.951780836141094e-12
 20
31875.0
 30
111000.0
 11
3.788751034862124e-12
 21
61875.0
 31
129500.0
  0
LINE
  5
35A
330
17
100
AcDbEntity
  8
0
 62
6
100
AcDbLine
 10
1.894375517431062e-12
 20
30937.5
 30
129500.0
 11
3.788751034862124e-12
 21
61875.0
 31
111000.0
  0
LINE
  5
35B
330
17
100
AcDbEntity
  8
0
 62
6
100
AcDbLine
 10
-31875.0
 20
3.903561672282188e-12
 30
111000.0
 11
-61875.0
 21
7.577502069724248e-12
 31
129500.0
  0
LINE
  5
35C
330
17
100
AcDbEntity
  8
0
 62
6
100
AcDbLine
 10
-30937.5
 20
3.788751034862124e-12
 30
129500.0
 11
-61875.0
 21
7.577502069724248e-12
 31
111000.0
  0
LINE
  5
35D
330
17
100
AcDbEntity
  8
0
 62
6
100
AcDbLine
 10
-5.855342508423282e-12
 20
-31875.0
 30
111000.0
 11
-1.1366253104586371e-11
 21
-61875.0
 31
129500.0
  0
LINE
  5
35E
330
17
100
AcDbEntity
  8
0
 62
6
100
AcDbLine
 10
-5.683126552293186e-12
 20
-30937.5
 30
129500.0
 11
-1.1366253104586371e-11
 21
-61875.0
 31
111000.0
  0
LINE
  5
35F
330
17
100
AcDbEntity
  8
0
 62
6
100
AcDbLine
 10
30000.0
 20
0.0
 30
148000.0
 11
58125.0
 21
0.0
 31
166500.0
  0
LINE
  5
360
330
17
100
AcDbEntity
  8
0
 62
6
100
AcDbLine
 10
29062.5
 20
0.0
 30
166500.0
 11
58125.0
 21
0.0
 31
148000.0
  0
LINE
  5
361
330
17
100
AcDbEntity
  8
0
 62
6
100
AcDbLine
 10
1.83697019872103e-12
 20
30000.0
 30
148000.0
 11
3.5591297600219954e-12
 21
58125.0
 31
166500.0
  0
LINE
  5
362
330
17
100
AcDbEntity
  8
0
 62
6
100
AcDbLine
 10
1.7795648800109977e-12
 20
29062.5
 30
166500.0
 11
3.5591297600219954e-12
 21
58125.0
 31
148000.0
  0
LINE
  5
363
330
17
100
AcDbEntity
  8
0
 62
6
100
AcDbLine
 10
-30000.0
 20
3.67394039744206e-12
 30
148000.0
 11
-58125.0
 21
7.118259520043991e-12
 31
166500.0
  0
LINE
  5
364
330
17
100
AcDbEntity
  8
0
 62
6
100
AcDbLine
 10
-29062.5
 20
3.5591297600219954e-12
 30
166500.0
 11
-58125.0
 21
7.118259520043991e-12
 31
148000.0
  0
LINE
  5
365
330
17
100
AcDbEntity
  8
0
 62
6
100
AcDbLine
 10
-5.510910596163089e-12
 20
-30000.0
 30
148000.0
 11
-1.0677389280065985e-11
 21
-58125.0
 31
166500.0
  0
LINE
  5
366
330
17
100
AcDbEntity
  8
0
 62
6
100
AcDbLine
 10
-5.338694640032993e-12
 20
-29062.5
 30
166500.0
 11
-1.0677389280065985e-11
 21
-58125.0
 31
148000.0
  0
LINE
  5
367
330
17
100
AcDbEntity
  8
0
 62
6
100
AcDbLine
 10
28125.0
 20
0.0
 30
185000.0
 11
54375.00000000001
 21
0.0
 31
203500.0
  0
LINE
  5
368
330
17
100
AcDbEntity
  8
0
 62
6
100
AcDbLine
 10
27187.500000000004
 20
0.0
 30
203500.0
 11
54375.00000000001
 21
0.0
 31
185000.0
  0
LINE
  5
369
330
17
100
AcDbEntity
  8
0
 62
6
100
AcDbLine
 10
1.7221595613009655e-12
 20
28125.0
 30
185000.0
 11
3.329508485181867e-12
 21
54375.00000000001
 31
203500.0
  0
LINE
  5
36A
330
17
100
AcDbEntity
  8
0
 62
6
100
AcDbLine
 10
1.6647542425909335e-12
 20
27187.500000000004
 30
203500.0
 11
3.329508485181867e-12
 21
54375.00000000001
 31
185000.0
  0
LINE
  5
36B
330
17
100
AcDbEntity
  8
0
 62
6
100
AcDbLine
 10
-28125.0
 20
3.444319122601931e-12
 30
185000.0
 11
-54375.00000000001
 21
6.659016970363734e-12
 31
203500.0
  0
LINE
  5
36C
330
17
100
AcDbEntity
  8
0
 62
6
100
AcDbLine
 10
-27187.500000000004
 20
3.329508485181867e-12
 30
203500.0
 11
-54375.00000000001
 21
6.659016970363734e-12
 31
185000.0
  0
LINE
  5
36D
330
17
100
AcDbEntity
  8
0
 62
6
100
AcDbLine
 10
-5.166478683902896e-12
 20
-28125.0
 30
185000.0
 11
-9.988525455545601e-12
 21
-54375.00000000001
 31
203500.0
  0
LINE
  5
36E
330
17
100
AcDbEntity
  8
0
 62
6
100
AcDbLine
 10
-4.9942627277728004e-12
 20
-27187.500000000004
 30
203500.0
 11
-9.988525455545601e-12
 21
-54375.00000000001
 31
185000.0
  0
LINE
  5
36F
330
17
100
AcDbEntity
  8
0
 62
6
100
AcDbLine
 10
26250.0
 20
0.0
 30
222000.0
 11
50625.0
 21
0.0
 31
240500.0
  0
LINE
  5
370
330
17
100
AcDbEntity
  8
0
 62
6
100
AcDbLine
 10
25312.5
 20
0.0
 30
240500.0
 11
50625.0
 21
0.0
 31
222000.0
  0
LINE
  5
371
330
17
100
AcDbEntity
  8
0
 62
6
100
AcDbLine
 10
1.6073489238809012e-12
 20
26250.0
 30
222000.0
 11
3.099887210341738e-12
 21
50625.0
 31
240500.0
  0
LINE
  5
372
330
17
100
AcDbEntity
  8
0
 62
6
100
AcDbLine
 10
1.549943605170869e-12
 20
25312.5
 30
240500.0
 11
3.099887210341738e-12
 21
50625.0
 31
222000.0
  0
LINE
  5
373
330
17
100
AcDbEntity
  8
0
 62
6
100
AcDbLine
 10
-26250.0
 20
3.2146978477618023e-12
 30
222000.0
 11
-50625.0
 21
6.199774420683476e-12
 31
240500.0
  0
LINE
  5
374
330
17
100
AcDbEntity
  8
0
 62
6
100
AcDbLine
 10
-25312.5
 20
3.099887210341738e-12
 30
240500.0
 11
-50625.0
 21
6.199774420683476e-12
 31
222000.0
  0
LINE
  5
375
330
17
100
AcDbEntity
  8
0
 62
6
100
AcDbLine
 10
-4.822046771642703e-12
 20
-26250.0
 30
222000.0
 11
-9.299661631025213e-12
 21
-50625.0
 31
240500.0
  0
LINE
  5
376
330
17
100
AcDbEntity
  8
0
 62
6
100
AcDbLine
 10
-4.6498308155126066e-12
 20
-25312.5
 30
240500.0
 11
-9.299661631025213e-12
 21
-50625.0
 31
222000.0
  0
LINE
  5
377
330
17
100
AcDbEntity
  8
0
 62
6
100
AcDbLine
 10
24374.999999999996
 20
0.0
 30
259000.0
 11
46875.0
 21
0.0
 31
277500.0
  0
LINE
  5
378
330
17
100
AcDbEntity
  8
0
 62
6
100
AcDbLine
 10
23437.5
 20
0.0
 30
277500.0
 11
46875.0
 21
0.0
 31
259000.0
  0
LINE
  5
379
330
17
100
AcDbEntity
  8
0
 62
6
100
AcDbLine
 10
1.4925382864608364e-12
 20
24374.999999999996
 30
259000.0
 11
2.870265935501609e-12
 21
46875.0
 31
277500.0
  0
LINE
  5
37A
330
17
100
AcDbEntity
  8
0
 62
6
100
AcDbLine
 10
1.4351329677508045e-12
 20
23437.5
 30
277500.0
 11
2.870265935501609e-12
 21
46875.0
 31
259000.0
  0
LINE
  5
37B
330
17
100
AcDbEntity
  8
0
 62
6
100
AcDbLine
 10
-24374.999999999996
 20
2.985076572921673e-12
 30
259000.0
 11
-46875.0
 21
5.740531871003218e-12
 31
277500.0
  0
LINE
  5
37C
330
17
100
AcDbEntity
  8
0
 62
6
100
AcDbLine
 10
-23437.5
 20
2.870265935501609e-12
 30
277500.0
 11
-46875.0
 21
5.740531871003218e-12
 31
259000.0
  0
LINE
  5
37D
330
17
100
AcDbEntity
  8
0
 62
6
100
AcDbLine
 10
-4.477614859382509e-12
 20
-24374.999999999996
 30
259000.0
 11
-8.610797806504827e-12
 21
-46875.0
 31
277500.0
  0
LINE
  5
37E
330
17
100
AcDbEntity
  8
0
 62
6
100
AcDbLine
 10
-4.3053989032524136e-12
 20
-23437.5
 30
277500.0
 11
-8.610797806504827e-12
 21
-46875.0
 31
259000.0
  0
LINE
  5
37F
330
17
100
AcDbEntity
  8
0
 62
6
100
AcDbLine
 10
22500.000000000004
 20
0.0
 30
296000.0
 11
43125.0
 21
0.0
 31
314500.0
  0
LINE
  5
380
330
17
100
AcDbEntity
  8
0
 62
6
100
AcDbLine
 10
21562.5
 20
0.0
 30
314500.0
 11
43125.0
 21
0.0
 31
296000.0
  0
LINE
  5
381
330
17
100
AcDbEntity
  8
0
 62
6
100
AcDbLine
 10
1.3777276490407725e-12
 20
22500.000000000004
 30
296000.0
 11
2.6406446606614802e-12
 21
43125.0
 31
314500.0
  0
LINE
  5
382
330
17
100
AcDbEntity
  8
0
 62
6
100
AcDbLine
 10
1.3203223303307401e-12
 20
21562.5
 30
314500.0
 11
2.6406446606614802e-12
 21
43125.0
 31
296000.0
  0
LINE
  5
383
330
17
100
AcDbEntity
  8
0
 62
6
100
AcDbLine
 10
-22500.000000000004
 20
2.755455298081545e-12
 30
296000.0
 11
-43125.0
 21
5.2812893213229605e-12
 31
314500.0
  0
LINE
  5
384
330
17
100
AcDbEntity
  8
0
 62
6
100
AcDbLine
 10
-21562.5
 20
2.6406446606614802e-12
 30
314500.0
 11
-43125.0
 21
5.2812893213229605e-12
 31
296000.0
  0
LINE
  5
385
330
17
100
AcDbEntity
  8
0
 62
6
100
AcDbLine
 10
-4.133182947122318e-12
 20
-22500.000000000004
 30
296000.0
 11
-7.921933981984441e-12
 21
-43125.0
 31
314500.0
  0
LINE
  5
386
330
17
100
AcDbEntity
  8
0
 62
6
100
AcDbLine
 10
-3.9609669909922205e-12
 20
-21562.5
 30
314500.0
 11
-7.921933981984441e-12
 21
-43125.0
 31
296000.0
  0
LINE
  5
387
330
17
100
AcDbEntity
  8
0
 62
6
100
AcDbLine
 10
20625.0
 20
0.0
 30
333000.0
 11
39375.0
 21
0.0
 31
351500.0
  0
LINE
  5
388
330
17
100
AcDbEntity
  8
0
 62
6
100
AcDbLine
 10
19687.5
 20
0.0
 30
351500.0
 11
39375.0
 21
0.0
 31
333000.0
  0
LINE
  5
389
330
17
100
AcDbEntity
  8
0
 62
6
100
AcDbLine
 10
1.262917011620708e-12
 20
20625.0
 30
333000.0
 11
2.4110233858213515e-12
 21
39375.0
 31
351500.0
  0
LINE
  5
38A
330
17
100
AcDbEntity
  8
0
 62
6
100
AcDbLine
 10
1.2055116929106758e-12
 20
19687.5
 30
351500.0
 11
2.4110233858213515e-12
 21
39375.0
 31
333000.0
  0
LINE
  5
38B
330
17
100
AcDbEntity
  8
0
 62
6
100
AcDbLine
 10
-20625.0
 20
2.525834023241416e-12
 30
333000.0
 11
-39375.0
 21
4.822046771642703e-12
 31
351500.0
  0
LINE
  5
38C
330
17
100
AcDbEntity
  8
0
 62
6
100
AcDbLine
 10
-19687.5
 20
2.4110233858213515e-12
 30
351500.0
 11
-39375.0
 21
4.822046771642703e-12
 31
333000.0
  0
LINE
  5
38D
330
17
100
AcDbEntity
  8
0
 62
6
100
AcDbLine
 10
-3.788751034862124e-12
 20
-20625.0
 30
333000.0
 11
-7.233070157464054e-12
 21
-39375.0
 31
351500.0
  0
LINE
  5
38E
330
17
100
AcDbEntity
  8
0
 62
6
100
AcDbLine
 10
-3.616535078732027e-12
 20
-19687.5
 30
351500.0
 11
-7.233070157464054e-12
 21
-39375.0
 31
333000.0
  0
LINE
  5
38F
330
17
100
AcDbEntity
  8
0
 62
6
100
AcDbLine
 10
18750.0
 20
0.0
 30
370000.0
 11
35625.0
 21
0.0
 31
388500.0
  0
LINE
  5
390
330
17
100
AcDbEntity
  8
0
 62
6
100
AcDbLine
 10
17812.5
 20
0.0
 30
388500.0
 11
35625.0
 21
0.0
 31
370000.0
  0
LINE
  5
391
330
17
100
AcDbEntity
  8
0
 62
6
100
AcDbLine
 10
1.1481063742006436e-12
 20
18750.0
 30
370000.0
 11
2.181402110981223e-12
 21
35625.0
 31
388500.0
  0
LINE
  5
392
330
17
100
AcDbEntity
  8
0
 62
6
100
AcDbLine
 10
1.0907010554906114e-12
 20
17812.5
 30
388500.0
 11
2.181402110981223e-12
 21
35625.0
 31
370000.0
  0
LINE
  5
393
330
17
100
AcDbEntity
  8
0
 62
6
100
AcDbLine
 10
-18750.0
 20
2.2962127484012872e-12
 30
370000.0
 11
-35625.0
 21
4.362804221962446e-12
 31
388500.0
  0
LINE
  5
394
330
17
100
AcDbEntity
  8
0
 62
6
100
AcDbLine
 10
-17812.5
 20
2.181402110981223e-12
 30
388500.0
 11
-35625.0
 21
4.362804221962446e-12
 31
370000.0
  0
LINE
  5
395
330
17
100
AcDbEntity
  8
0
 62
6
100
AcDbLine
 10
-3.4443191226019306e-12
 20
-18750.0
 30
370000.0
 11
-6.544206332943668e-12
 21
-35625.0
 31
388500.0
  0
LINE
  5
396
330
17
100
AcDbEntity
  8
0
 62
6
100
AcDbLine
 10
-3.272103166471834e-12
 20
-17812.5
 30
388500.0
 11
-6.544206332943668e-12
 21
-35625.0
 31
370000.0
  0
LINE
  5
397
330
17
100
AcDbEntity
  8
0
 62
6
100
AcDbLine
 10
16875.000000000004
 20
0.0
 30
407000.0
 11
31875.000000000004
 21
0.0
 31
425500.0
  0
LINE
  5
398
330
17
100
AcDbEntity
  8
0
 62
6
100
AcDbLine
 10
15937.500000000002
 20
0.0
 30
425500.0
 11
31875.000000000004
 21
0.0
 31
407000.0
  0
LINE
  5
399
330
17
100
AcDbEntity
  8
0
 62
6
100
AcDbLine
 10
1.0332957367805795e-12
 20
16875.000000000004
 30
407000.0
 11
1.9517808361410946e-12
 21
31875.000000000004
 31
425500.0
  0
LINE
  5
39A
330
17
100
AcDbEntity
  8
0
 62
6
100
AcDbLine
 10
9.758904180705473e-13
 20
15937.500000000002
 30
425500.0
 11
1.9517808361410946e-12
 21
31875.000000000004
 31
407000.0
  0
LINE
  5
39B
330
17
100
AcDbEntity
  8
0
 62
6
100
AcDbLine
 10
-16875.000000000004
 20
2.066591473561159e-12
 30
407000.0
 11
-31875.000000000004
 21
3.903561672282189e-12
 31
425500.0
  0
LINE
  5
39C
330
17
100
AcDbEntity
  8
0
 62
6
100
AcDbLine
 10
-15937.500000000002
 20
1.9517808361410946e-12
 30
425500.0
 11
-31875.000000000004
 21
3.903561672282189e-12
 31
407000.0
  0
LINE
  5
39D
330
17
100
AcDbEntity
  8
0
 62
6
100
AcDbLine
 10
-3.0998872103417384e-12
 20
-16875.000000000004
 30
407000.0
 11
-5.855342508423283e-12
 21
-31875.000000000004
 31
425500.0
  0
LINE
  5
39E
330
17
100
AcDbEntity
  8
0
 62
6
100
AcDbLine
 10
-2.9276712542116415e-12
 20
-15937.500000000002
 30
425500.0
 11
-5.855342508423283e-12
 21
-31875.000000000004
 31
407000.0
  0
LINE
  5
39F
330
17
100
AcDbEntity
  8
0
 62
4
100
AcDbLine
 10
10000.0
 20
0.0
 30
828000.0
 11
9500.0
 21
0.0
 31
832000.0
  0
LINE
  5
3A0
330
17
100
AcDbEntity
  8
0
 62
4
100
AcDbLine
 10
6.123233995736766e-13
 20
10000.0
 30
828000.0
 11
5.817072295949928e-13
 21
9500.0
 31
832000.0
  0
LINE
  5
3A1
330
17
100
AcDbEntity
  8
0
 62
4
100
AcDbLine
 10
-10000.0
 20
1.2246467991473533e-12
 30
828000.0
 11
-9500.0
 21
1.1634144591899856e-12
 31
832000.0
  0
LINE
  5
3A2
330
17
100
AcDbEntity
  8
0
 62
4
100
AcDbLine
 10
-1.83697019872103e-12
 20
-10000.0
 30
828000.0
 11
-1.7451216887849781e-12
 21
-9500.0
 31
832000.0
  0
LINE
  5
3A3
330
17
100
AcDbEntity
  8
0
 62
4
100
AcDbLine
 10
9500.0
 20
0.0
 30
832000.0
 11
9000.0
 21
0.0
 31
836000.0
  0
LINE
  5
3A4
330
17
100
AcDbEntity
  8
0
 62
4
100
AcDbLine
 10
5.817072295949928e-13
 20
9500.0
 30
832000.0
 11
5.51091059616309e-13
 21
9000.0
 31
836000.0
  0
LINE
  5
3A5
330
17
100
AcDbEntity
  8
0
 62
4
100
AcDbLine
 10
-9500.0
 20
1.1634144591899856e-12
 30
832000.0
 11
-9000.0
 21
1.102182119232618e-12
 31
836000.0
  0
LINE
  5
3A6
330
17
100
AcDbEntity
  8
0
 62
4
100
AcDbLine
 10
-1.7451216887849781e-12
 20
-9500.0
 30
832000.0
 11
-1.6532731788489266e-12
 21
-9000.0
 31
836000.0
  0
LINE
  5
3A7
330
17
100
AcDbEntity
  8
0
 62
4
100
AcDbLine
 10
9000.0
 20
0.0
 30
836000.0
 11
8500.0
 21
0.0
 31
840000.0
  0
LINE
  5
3A8
330
17
100
AcDbEntity
  8
0
 62
4
100
AcDbLine
 10
5.51091059616309e-13
 20
9000.0
 30
836000.0
 11
5.204748896376251e-13
 21
8500.0
 31
840000.0
  0
LINE
  5
3A9
330
17
100
AcDbEntity
  8
0
 62
4
100
AcDbLine
 10
-9000.0
 20
1.102182119232618e-12
 30
836000.0
 11
-8500.0
 21
1.0409497792752503e-12
 31
840000.0
  0
LINE
  5
3AA
330
17
100
AcDbEntity
  8
0
 62
4
100
AcDbLine
 10
-1.6532731788489266e-12
 20
-9000.0
 30
836000.0
 11
-1.5614246689128753e-12
 21
-8500.0
 31
840000.0
  0
LINE
  5
3AB
330
17
100
AcDbEntity
  8
0
 62
4
100
AcDbLine
 10
8500.0
 20
0.0
 30
840000.0
 11
8000.0
 21
0.0
 31
844000.0
  0
LINE
  5
3AC
330
17
100
AcDbEntity
  8
0
 62
4
100
AcDbLine
 10
5.204748896376251e-13
 20
8500.0
 30
840000.0
 11
4.898587196589413e-13
 21
8000.0
 31
844000.0
  0
LINE
  5
3AD
330
17
100
AcDbEntity
  8
0
 62
4
100
AcDbLine
 10
-8500.0
 20
1.0409497792752503e-12
 30
840000.0
 11
-8000.0
 21
9.797174393178826e-13
 31
844000.0
  0
LINE
  5
3AE
330
17
100
AcDbEntity
  8
0
 62
4
100
AcDbLine
 10
-1.5614246689128753e-12
 20
-8500.0
 30
840000.0
 11
-1.4695761589768238e-12
 21
-8000.0
 31
844000.0
  0
LINE
  5
3AF
330
17
100
AcDbEntity
  8
0
 62
4
100
AcDbLine
 10
8000.0
 20
0.0
 30
844000.0
 11
7500.0
 21
0.0
 31
848000.0
  0
LINE
  5
3B0
330
17
100
AcDbEntity
  8
0
 62
4
100
AcDbLine
 10
4.898587196589413e-13
 20
8000.0
 30
844000.0
 11
4.592425496802575e-13
 21
7500.0
 31
848000.0
  0
LINE
  5
3B1
330
17
100
AcDbEntity
  8
0
 62
4
100
AcDbLine
 10
-8000.0
 20
9.797174393178826e-13
 30
844000.0
 11
-7500.0
 21
9.18485099360515e-13
 31
848000.0
  0
LINE
  5
3B2
330
17
100
AcDbEntity
  8
0
 62
4
100
AcDbLine
 10
-1.4695761589768238e-12
 20
-8000.0
 30
844000.0
 11
-1.3777276490407723e-12
 21
-7500.0
 31
848000.0
  0
LINE
  5
3B3
330
17
100
AcDbEntity
  8
0
 62
4
100
AcDbLine
 10
7500.0
 20
0.0
 30
848000.0
 11
7000.0
 21
0.0
 31
852000.0
  0
LINE
  5
3B4
330
17
100
AcDbEntity
  8
0
 62
4
100
AcDbLine
 10
4.592425496802575e-13
 20
7500.0
 30
848000.0
 11
4.286263797015736e-13
 21
7000.0
 31
852000.0
  0
LINE
  5
3B5
330
17
100
AcDbEntity
  8
0
 62
4
100
AcDbLine
 10
-7500.0
 20
9.18485099360515e-13
 30
848000.0
 11
-7000.0
 21
8.572527594031472e-13
 31
852000.0
  0
LINE
  5
3B6
330
17
100
AcDbEntity
  8
0
 62
4
100
AcDbLine
 10
-1.3777276490407723e-12
 20
-7500.0
 30
848000.0
 11
-1.2858791391047208e-12
 21
-7000.0
 31
852000.0
  0
LINE
  5
3B7
330
17
100
AcDbEntity
  8
0
 62
4
100
AcDbLine
 10
7000.0
 20
0.0
 30
852000.0
 11
6500.0
 21
0.0
 31
856000.0
  0
LINE
  5
3B8
330
17
100
AcDbEntity
  8
0
 62
4
100
AcDbLine
 10
4.286263797015736e-13
 20
7000.0
 30
852000.0
 11
3.980102097228898e-13
 21
6500.0
 31
856000.0
  0
LINE
  5
3B9
330
17
100
AcDbEntity
  8
0
 62
4
100
AcDbLine
 10
-7000.0
 20
8.572527594031472e-13
 30
852000.0
 11
-6500.0
 21
7.960204194457796e-13
 31
856000.0
  0
LINE
  5
3BA
330
17
100
AcDbEntity
  8
0
 62
4
100
AcDbLine
 10
-1.2858791391047208e-12
 20
-7000.0
 30
852000.0
 11
-1.1940306291686693e-12
 21
-6500.0
 31
856000.0
  0
LINE
  5
3BB
330
17
100
AcDbEntity
  8
0
 62
4
100
AcDbLine
 10
6500.0
 20
0.0
 30
856000.0
 11
6000.000000000001
 21
0.0
 31
860000.0
  0
LINE
  5
3BC
330
17
100
AcDbEntity
  8
0
 62
4
100
AcDbLine
 10
3.980102097228898e-13
 20
6500.0
 30
856000.0
 11
3.67394039744206e-13
 21
6000.000000000001
 31
860000.0
  0
LINE
  5
3BD
330
17
100
AcDbEntity
  8
0
 62
4
100
AcDbLine
 10
-6500.0
 20
7.960204194457796e-13
 30
856000.0
 11
-6000.000000000001
 21
7.34788079488412e-13
 31
860000.0
  0
LINE
  5
3BE
330
17
100
AcDbEntity
  8
0
 62
4
100
AcDbLine
 10
-1.1940306291686693e-12
 20
-6500.0
 30
856000.0
 11
-1.102182119232618e-12
 21
-6000.000000000001
 31
860000.0
  0
LINE
  5
3BF
330
17
100
AcDbEntity
  8
0
 62
4
100
AcDbLine
 10
6000.0
 20
0.0
 30
860000.0
 11
5500.0
 21
0.0
 31
864000.0
  0
LINE
  5
3C0
330
17
100
AcDbEntity
  8
0
 62
4
100
AcDbLine
 10
3.6739403974420595e-13
 20
6000.0
 30
860000.0
 11
3.367778697655221e-13
 21
5500.0
 31
864000.0
  0
LINE
  5
3C1
330
17
100
AcDbEntity
  8
0
 62
4
100
AcDbLine
 10
-6000.0
 20
7.347880794884119e-13
 30
860000.0
 11
-5500.0
 21
6.735557395310442e-13
 31
864000.0
  0
LINE
  5
3C2
330
17
100
AcDbEntity
  8
0
 62
4
100
AcDbLine
 10
-1.1021821192326177e-12
 20
-6000.0
 30
860000.0
 11
-1.0103336092965662e-12
 21
-5500.0
 31
864000.0
  0
LINE
  5
3C3
330
17
100
AcDbEntity
  8
0
 62
4
100
AcDbLine
 10
5500.0
 20
0.0
 30
864000.0
 11
5000.0
 21
0.0
 31
868000.0
  0
LINE
  5
3C4
330
17
100
AcDbEntity
  8
0
 62
4
100
AcDbLine
 10
3.367778697655221e-13
 20
5500.0
 30
864000.0
 11
3.061616997868383e-13
 21
5000.0
 31
868000.0
  0
LINE
  5
3C5
330
17
100
AcDbEntity
  8
0
 62
4
100
AcDbLine
 10
-5500.0
 20
6.735557395310442e-13
 30
864000.0
 11
-5000.0
 21
6.123233995736766e-13
 31
868000.0
  0
LINE
  5
3C6
330
17
100
AcDbEntity
  8
0
 62
4
100
AcDbLine
 10
-1.0103336092965662e-12
 20
-5500.0
 30
864000.0
 11
-9.18485099360515e-13
 21
-5000.0
 31
868000.0
  0
LINE
  5
3C7
330
17
100
AcDbEntity
  8
0
 62
4
100
AcDbLine
 10
5000.0
 20
0.0
 30
868000.0
 11
4500.0
 21
0.0
 31
872000.0
  0
LINE
  5
3C8
330
17
100
AcDbEntity
  8
0
 62
4
100
AcDbLine
 10
3.061616997868383e-13
 20
5000.0
 30
868000.0
 11
2.755455298081545e-13
 21
4500.0
 31
872000.0
  0
LINE
  5
3C9
330
17
100
AcDbEntity
  8
0
 62
4
100
AcDbLine
 10
-5000.0
 20
6.123233995736766e-13
 30
868000.0
 11
-4500.0
 21
5.51091059616309e-13
 31
872000.0
  0
LINE
  5
3CA
330
17
100
AcDbEntity
  8
0
 62
4
100
AcDbLine
 10
-9.18485099360515e-13
 20
-5000.0
 30
868000.0
 11
-8.266365894244633e-13
 21
-4500.0
 31
872000.0
  0
LINE
  5
3CB
330
17
100
AcDbEntity
  8
0
 62
4
100
AcDbLine
 10
4500.0
 20
0.0
 30
872000.0
 11
3999.999999999999
 21
0.0
 31
876000.0
  0
LINE
  5
3CC
330
17
100
AcDbEntity
  8
0
 62
4
100
AcDbLine
 10
2.755455298081545e-13
 20
4500.0
 30
872000.0
 11
2.449293598294706e-13
 21
3999.999999999999
 31
876000.0
  0
LINE
  5
3CD
330
17
100
AcDbEntity
  8
0
 62
4
100
AcDbLine
 10
-4500.0
 20
5.51091059616309e-13
 30
872000.0
 11
-3999.999999999999
 21
4.898587196589412e-13
 31
876000.0
  0
LINE
  5
3CE
330
17
100
AcDbEntity
  8
0
 62
4
100
AcDbLine
 10
-8.266365894244633e-13
 20
-4500.0
 30
872000.0
 11
-7.347880794884117e-13
 21
-3999.999999999999
 31
876000.0
  0
LINE
  5
3CF
330
17
100
AcDbEntity
  8
0
 62
4
100
AcDbLine
 10
4000.0
 20
0.0
 30
876000.0
 11
3500.0
 21
0.0
 31
880000.0
  0
LINE
  5
3D0
330
17
100
AcDbEntity
  8
0
 62
4
100
AcDbLine
 10
2.4492935982947065e-13
 20
4000.0
 30
876000.0
 11
2.143131898507868e-13
 21
3500.0
 31
880000.0
  0
LINE
  5
3D1
330
17
100
AcDbEntity
  8
0
 62
4
100
AcDbLine
 10
-4000.0
 20
4.898587196589413e-13
 30
876000.0
 11
-3500.0
 21
4.286263797015736e-13
 31
880000.0
  0
LINE
  5
3D2
330
17
100
AcDbEntity
  8
0
 62
4
100
AcDbLine
 10
-7.347880794884119e-13
 20
-4000.0
 30
876000.0
 11
-6.429395695523604e-13
 21
-3500.0
 31
880000.0
  0
LINE
  5
3D3
330
17
100
AcDbEntity
  8
0
 62
4
100
AcDbLine
 10
3500.0
 20
0.0
 30
880000.0
 11
2999.9999999999995
 21
0.0
 31
884000.0
  0
LINE
  5
3D4
330
17
100
AcDbEntity
  8
0
 62
4
100
AcDbLine
 10
2.143131898507868e-13
 20
3500.0
 30
880000.0
 11
1.8369701987210295e-13
 21
2999.9999999999995
 31
884000.0
  0
LINE
  5
3D5
330
17
100
AcDbEntity
  8
0
 62
4
100
AcDbLine
 10
-3500.0
 20
4.286263797015736e-13
 30
880000.0
 11
-2999.9999999999995
 21
3.673940397442059e-13
 31
884000.0
  0
LINE
  5
3D6
330
17
100
AcDbEntity
  8
0
 62
4
100
AcDbLine
 10
-6.429395695523604e-13
 20
-3500.0
 30
880000.0
 11
-5.510910596163088e-13
 21
-2999.9999999999995
 31
884000.0
  0
LINE
  5
3D7
330
17
100
AcDbEntity
  8
0
 62
4
100
AcDbLine
 10
3000.0000000000005
 20
0.0
 30
884000.0
 11
2500.0
 21
0.0
 31
888000.0
  0
LINE
  5
3D8
330
17
100
AcDbEntity
  8
0
 62
4
100
AcDbLine
 10
1.83697019872103e-13
 20
3000.0000000000005
 30
884000.0
 11
1.5308084989341916e-13
 21
2500.0
 31
888000.0
  0
LINE
  5
3D9
330
17
100
AcDbEntity
  8
0
 62
4
100
AcDbLine
 10
-3000.0000000000005
 20
3.67394039744206e-13
 30
884000.0
 11
-2500.0
 21
3.061616997868383e-13
 31
888000.0
  0
LINE
  5
3DA
330
17
100
AcDbEntity
  8
0
 62
4
100
AcDbLine
 10
-5.51091059616309e-13
 20
-3000.0000000000005
 30
884000.0
 11
-4.592425496802575e-13
 21
-2500.0
 31
888000.0
  0
LINE
  5
3DB
330
17
100
AcDbEntity
  8
0
 62
4
100
AcDbLine
 10
2500.0
 20
0.0
 30
888000.0
 11
1999.9999999999995
 21
0.0
 31
892000.0
  0
LINE
  5
3DC
330
17
100
AcDbEntity
  8
0
 62
4
100
AcDbLine
 10
1.5308084989341916e-13
 20
2500.0
 30
888000.0
 11
1.224646799147353e-13
 21
1999.9999999999995
 31
892000.0
  0
LINE
  5
3DD
330
17
100
AcDbEntity
  8
0
 62
4
100
AcDbLine
 10
-2500.0
 20
3.061616997868383e-13
 30
888000.0
 11
-1999.9999999999995
 21
2.449293598294706e-13
 31
892000.0
  0
LINE
  5
3DE
330
17
100
AcDbEntity
  8
0
 62
4
100
AcDbLine
 10
-4.592425496802575e-13
 20
-2500.0
 30
888000.0
 11
-3.6739403974420585e-13
 21
-1999.9999999999995
 31
892000.0
  0
LINE
  5
3DF
330
17
100
AcDbEntity
  8
0
 62
4
100
AcDbLine
 10
1999.9999999999995
 20
0.0
 30
892000.0
 11
1499.999999999999
 21
0.0
 31
896000.0
  0
LINE
  5
3E0
330
17
100
AcDbEntity
  8
0
 62
4
100
AcDbLine
 10
1.224646799147353e-13
 20
1999.9999999999995
 30
892000.0
 11
9.184850993605144e-14
 21
1499.999999999999
 31
896000.0
  0
LINE
  5
3E1
330
17
100
AcDbEntity
  8
0
 62
4
100
AcDbLine
 10
-1999.9999999999995
 20
2.449293598294706e-13
 30
892000.0
 11
-1499.999999999999
 21
1.8369701987210287e-13
 31
896000.0
  0
LINE
  5
3E2
330
17
100
AcDbEntity
  8
0
 62
4
100
AcDbLine
 10
-3.6739403974420585e-13
 20
-1999.9999999999995
 30
892000.0
 11
-2.755455298081543e-13
 21
-1499.999999999999
 31
896000.0
  0
LINE
  5
3E3
330
17
100
AcDbEntity
  8
0
 62
4
100
AcDbLine
 10
1500.0000000000002
 20
0.0
 30
896000.0
 11
999.9999999999998
 21
0.0
 31
900000.0
  0
LINE
  5
3E4
330
17
100
AcDbEntity
  8
0
 62
4
100
AcDbLine
 10
9.18485099360515e-14
 20
1500.0000000000002
 30
896000.0
 11
6.123233995736765e-14
 21
999.9999999999998
 31
900000.0
  0
LINE
  5
3E5
330
17
100
AcDbEntity
  8
0
 62
4
100
AcDbLine
 10
-1500.0000000000002
 20
1.83697019872103e-13
 30
896000.0
 11
-999.9999999999998
 21
1.224646799147353e-13
 31
900000.0
  0
LINE
  5
3E6
330
17
100
AcDbEntity
  8
0
 62
4
100
AcDbLine
 10
-2.755455298081545e-13
 20
-1500.0000000000002
 30
896000.0
 11
-1.8369701987210292e-13
 21
-999.9999999999998
 31
900000.0
  0
LINE
  5
3E7
330
17
100
AcDbEntity
  8
0
 62
4
100
AcDbLine
 10
999.9999999999998
 20
0.0
 30
900000.0
 11
499.9999999999993
 21
0.0
 31
904000.0
  0
LINE
  5
3E8
330
17
100
AcDbEntity
  8
0
 62
4
100
AcDbLine
 10
6.123233995736765e-14
 20
999.9999999999998
 30
900000.0
 11
3.061616997868379e-14
 21
499.9999999999993
 31
904000.0
  0
LINE
  5
3E9
330
17
100
AcDbEntity
  8
0
 62
4
100
AcDbLine
 10
-999.9999999999998
 20
1.224646799147353e-13
 30
900000.0
 11
-499.9999999999993
 21
6.123233995736757e-14
 31
904000.0
  0
LINE
  5
3EA
330
17
100
AcDbEntity
  8
0
 62
4
100
AcDbLine
 10
-1.8369701987210292e-13
 20
-999.9999999999998
 30
900000.0
 11
-9.184850993605136e-14
 21
-499.9999999999993
 31
904000.0
  0
LINE
  5
3EB
330
17
100
AcDbEntity
  8
0
 62
4
100
AcDbLine
 10
500.00000000000045
 20
0.0
 30
904000.0
 11
0.0
 21
0.0
 31
908000.0
  0
LINE
  5
3EC
330
17
100
AcDbEntity
  8
0
 62
4
100
AcDbLine
 10
3.0616169978683856e-14
 20
500.00000000000045
 30
904000.0
 11
0.0
 21
0.0
 31
908000.0
  0
LINE
  5
3ED
330
17
100
AcDbEntity
  8
0
 62
4
100
AcDbLine
 10
-500.00000000000045
 20
6.123233995736771e-14
 30
904000.0
 11
-0.0
 21
0.0
 31
908000.0
  0
LINE
  5
3EE
330
17
100
AcDbEntity
  8
0
 62
4
100
AcDbLine
 10
-9.184850993605156e-14
 20
-500.00000000000045
 30
904000.0
 11
-0.0
 21
-0.0
 31
908000.0
  0
ENDSEC
  0
SECTION
  2
OBJECTS
  0
DICTIONARY
  5
A
330
0
100
AcDbDictionary
281
1
  3
ACAD_COLOR
350
B
  3
ACAD_GROUP
350
C
  3
ACAD_LAYOUT
350
D
  3
ACAD_MATERIAL
350
E
  3
ACAD_MLEADERSTYLE
350
F
  3
ACAD_MLINESTYLE
350
10
  3
ACAD_PLOTSETTINGS
350
11
  3
ACAD_PLOTSTYLENAME
350
12
  3
ACAD_SCALELIST
350
14
  3
ACAD_TABLESTYLE
350
15
  3
ACAD_VISUALSTYLE
350
16
  3
EZDXF_META
350
2D
  0
DICTIONARY
  5
B
330
A
100
AcDbDictionary
281
1
  0
DICTIONARY
  5
C
330
A
100
AcDbDictionary
281
1
  0
DICTIONARY
  5
D
330
A
100
AcDbDictionary
281
1
  3
Model
350
1A
  3
Layout1
350
1E
  0
DICTIONARY
  5
E
330
A
100
AcDbDictionary
281
1
  3
ByBlock
350
1F
  3
ByLayer
350
20
  3
Global
350
21
  0
DICTIONARY
  5
F
330
A
100
AcDbDictionary
281
1
  3
Standard
350
2C
  0
DICTIONARY
  5
10
330
A
100
AcDbDictionary
281
1
  3
Standard
350
22
  0
DICTIONARY
  5
11
330
A
100
AcDbDictionary
281
1
  0
ACDBDICTIONARYWDFLT
  5
12
330
A
100
AcDbDictionary
281
1
  3
Normal
350
13
100
AcDbDictionaryWithDefault
340
13
  0
ACDBPLACEHOLDER
  5
13
330
12
  0
DICTIONARY
  5
14
330
A
100
AcDbDictionary
281
1
  0
DICTIONARY
  5
15
330
A
100
AcDbDictionary
281
1
  0
DICTIONARY
  5
16
330
A
100
AcDbDictionary
281
1
  0
LAYOUT
  5
1A
330
D
100
AcDbPlotSettings
  1

  4
A3
  6

 40
7.5
 41
20.0
 42
7.5
 43
20.0
 44
420.0
 45
297.0
 46
0.0
 47
0.0
 48
0.0
 49
0.0
140
0.0
141
0.0
142
1.0
143
1.0
 70
1024
 72
1
 73
0
 74
5
  7

 75
16
 76
0
 77
2
 78
300
147
1.0
148
0.0
149
0.0
100
AcDbLayout
  1
Model
 70
1
 71
0
 10
0.0
 20
0.0
 11
420.0
 21
297.0
 12
0.0
 22
0.0
 32
0.0
 14
1e+20
 24
1e+20
 34
1e+20
 15
-1e+20
 25
-1e+20
 35
-1e+20
146
0.0
 13
0.0
 23
0.0
 33
0.0
 16
1.0
 26
0.0
 36
0.0
 17
0.0
 27
1.0
 37
0.0
 76
1
330
17
  0
LAYOUT
  5
1E
330
D
100
AcDbPlotSettings
  1

  4
A3
  6

 40
7.5
 41
20.0
 42
7.5
 43
20.0
 44
420.0
 45
297.0
 46
0.0
 47
0.0
 48
0.0
 49
0.0
140
0.0
141
0.0
142
1.0
143
1.0
 70
0
 72
1
 73
0
 74
5
  7

 75
16
 76
0
 77
2
 78
300
147
1.0
148
0.0
149
0.0
100
AcDbLayout
  1
Layout1
 70
1
 71
1
 10
0.0
 20
0.0
 11
420.0
 21
297.0
 12
0.0
 22
0.0
 32
0.0
 14
1e+20
 24
1e+20
 34
1e+20
 15
-1e+20
 25
-1e+20
 35
-1e+20
146
0.0
 13
0.0
 23
0.0
 33
0.0
 16
1.0
 26
0.0
 36
0.0
 17
0.0
 27
1.0
 37
0.0
 76
1
330
1B
  0
MATERIAL
  5
1F
102
{ACAD_REACTORS
330
E
102
}
330
E
100
AcDbMaterial
  1
ByBlock
  2

 70
0
 40
1.0
 71
1
 41
1.0
 91
-1023410177
 42
1.0
 72
1
  3

 73
1
 74
1
 75
1
 44
0.5
 73
0
 45
1.0
 46
1.0
 77
1
  4

 78
1
 79
1
170
1
 48
1.0
171
1
  6

172
1
173
1
174
1
140
1.0
141
1.0
175
1
  7

176
1
177
1
178
1
143
1.0
179
1
  8

270
1
271
1
272
1
145
1.0
146
1.0
273
1
  9

274
1
275
1
276
1
 42
1.0
 72
1
  3

 73
1
 74
1
 75
1
 94
63
  0
MATERIAL
  5
20
102
{ACAD_REACTORS
330
E
102
}
330
E
100
AcDbMaterial
  1
ByLayer
  2

 70
0
 40
1.0
 71
1
 41
1.0
 91
-1023410177
 42
1.0
 72
1
  3

 73
1
 74
1
 75
1
 44
0.5
 73
0
 45
1.0
 46
1.0
 77
1
  4

 78
1
 79
1
170
1
 48
1.0
171
1
  6

172
1
173
1
174
1
140
1.0
141
1.0
175
1
  7

176
1
177
1
178
1
143
1.0
179
1
  8

270
1
271
1
272
1
145
1.0
146
1.0
273
1
  9

274
1
275
1
276
1
 42
1.0
 72
1
  3

 73
1
 74
1
 75
1
 94
63
  0
MATERIAL
  5
21
102
{ACAD_REACTORS
330
E
102
}
330
E
100
AcDbMaterial
  1
Global
  2

 70
0
 40
1.0
 71
1
 41
1.0
 91
-1023410177
 42
1.0
 72
1
  3

 73
1
 74
1
 75
1
 44
0.5
 73
0
 45
1.0
 46
1.0
 77
1
  4

 78
1
 79
1
170
1
 48
1.0
171
1
  6

172
1
173
1
174
1
140
1.0
141
1.0
175
1
  7

176
1
177
1
178
1
143
1.0
179
1
  8

270
1
271
1
272
1
145
1.0
146
1.0
273
1
  9

274
1
275
1
276
1
 42
1.0
 72
1
  3

 73
1
 74
1
 75
1
 94
63
  0
MLINESTYLE
  5
22
102
{ACAD_REACTORS
330
10
102
}
330
10
100
AcDbMlineStyle
  2
Standard
 70
0
  3

 62
256
 51
90.0
 52
90.0
 71
2
 49
0.5
 62
256
  6
BYLAYER
 49
-0.5
 62
256
  6
BYLAYER
  0
MLEADERSTYLE
  5
2C
102
{ACAD_REACTORS
330
F
102
}
330
F
100
AcDbMLeaderStyle
179
2
170
2
171
1
172
0
 90
2
 40
0.0
 41
0.0
173
1
 91
-1056964608
 92
-2
290
1
 42
2.0
291
1
 43
8.0
  3
Standard
 44
4.0
300

342
29
174
1
175
1
176
0
178
1
 93
-1056964608
 45
4.0
292
0
297
0
 46
4.0
 94
-1056964608
 47
1.0
 49
1.0
140
1.0
294
1
141
0.0
177
0
142
1.0
295
0
296
0
143
3.75
271
0
272
9
273
9
  0
DICTIONARY
  5
2D
330
A
100
AcDbDictionary
280
1
281
1
  3
CREATED_BY_EZDXF
350
2E
  3
WRITTEN_BY_EZDXF
350
3F1
  0
DICTIONARYVAR
  5
2E
330
2D
100
DictionaryVariables
280
0
  1
1.4.3 @ 2025-12-16T17:58:15.863504+00:00
  0
DICTIONARYVAR
  5
3F1
330
2D
100
DictionaryVariables
280
0
  1
1.4.3 @ 2025-12-16T17:58:15.873866+00:00
  0
ENDSEC
  0
EOF
