  0
SECTION
  2
HEADER
  9
$ACADVER
  1
AC1015
  9
$INSUNITS
 70
6
  9
$MEASUREMENT
 70
1
  9
$LUNITS
 70
2
  9
$LUPREC
 70
4
  9
$AUNITS
 70
0
  9
$AUPREC
 70
2
  9
$LIMMIN
 10
-300000
 20
-300000
  9
$LIMMAX
 10
700000
 20
700000
  9
$EXTMIN
 10
-300000
 20
-300000
 30
0
  9
$EXTMAX
 10
700000
 20
700000
 30
80000
  9
$TEXTSIZE
 40
2000.0
  9
$DIMSCALE
 40
1.0
  9
$DIMASZ
 40
2500.0
  9
$DIMTXT
 40
2000.0
  9
$DIMDEC
 70
0
  9
$DIMLUNIT
 70
2
  0
ENDSEC
  0
SECTION
  2
TABLES
  0
TABLE
  2
LTYPE
 70
4
  0
LTYPE
  2
CONTINUOUS
 70
0
  3
Solid line
 72
65
 73
0
 40
0.0
  0
LTYPE
  2
DASHED
 70
0
  3
Dashed
 72
65
 73
0
 40
0.0
  0
LTYPE
  2
CENTER
 70
0
  3
Center
 72
65
 73
0
 40
0.0
  0
LTYPE
  2
PHANTOM
 70
0
  3
Phantom
 72
65
 73
0
 40
0.0
  0
ENDTAB
  0
TABLE
  2
LAYER
 70
30
  0
LAYER
  2
TITLE_BLOCK
 70
0
 62
7
  6
CONTINUOUS
  0
LAYER
  2
BORDER
 70
0
 62
7
  6
CONTINUOUS
  0
LAYER
  2
NOTES
 70
0
 62
7
  6
CONTINUOUS
  0
LAYER
  2
GRID_LINES
 70
0
 62
8
  6
CENTER
  0
LAYER
  2
GRID_BUBBLES
 70
0
 62
3
  6
CONTINUOUS
  0
LAYER
  2
GRID_LABELS
 70
0
 62
3
  6
CONTINUOUS
  0
LAYER
  2
COLUMNS
 70
0
 62
1
  6
CONTINUOUS
  0
LAYER
  2
COLUMNS_HIDDEN
 70
0
 62
1
  6
DASHED
  0
LAYER
  2
BEAMS_OUTER
 70
0
 62
2
  6
CONTINUOUS
  0
LAYER
  2
BEAMS_INNER
 70
0
 62
2
  6
CONTINUOUS
  0
LAYER
  2
BEAMS_RADIAL
 70
0
 62
2
  6
CONTINUOUS
  0
LAYER
  2
BRACING
 70
0
 62
4
  6
CONTINUOUS
  0
LAYER
  2
LATTICE
 70
0
 62
6
  6
CONTINUOUS
  0
LAYER
  2
LEVELS
 70
0
 62
5
  6
CONTINUOUS
  0
LAYER
  2
LEVELS_DIM
 70
0
 62
5
  6
CONTINUOUS
  0
LAYER
  2
SECTION_PROFILES
 70
0
 62
3
  6
CONTINUOUS
  0
LAYER
  2
SECTION_LABELS
 70
0
 62
3
  6
CONTINUOUS
  0
LAYER
  2
CONNECTIONS
 70
0
 62
1
  6
CONTINUOUS
  0
LAYER
  2
CONNECTIONS_BOLTS
 70
0
 62
2
  6
CONTINUOUS
  0
LAYER
  2
CONNECTIONS_WELDS
 70
0
 62
4
  6
CONTINUOUS
  0
LAYER
  2
MEMBER_SCHEDULE
 70
0
 62
7
  6
CONTINUOUS
  0
LAYER
  2
DIMENSIONS
 70
0
 62
3
  6
CONTINUOUS
  0
LAYER
  2
DIMENSIONS_DIM
 70
0
 62
3
  6
CONTINUOUS
  0
LAYER
  2
MATERIAL_NOTES
 70
0
 62
7
  6
CONTINUOUS
  0
LAYER
  2
WELD_SYMBOLS
 70
0
 62
4
  6
CONTINUOUS
  0
LAYER
  2
MARKERS_BASE
 70
0
 62
2
  6
CONTINUOUS
  0
LAYER
  2
MARKERS_TOP
 70
0
 62
3
  6
CONTINUOUS
  0
LAYER
  2
MARKERS_INNER
 70
0
 62
4
  6
CONTINUOUS
  0
LAYER
  2
CENTERLINES
 70
0
 62
8
  6
CENTER
  0
ENDTAB
  0
TABLE
  2
STYLE
 70
2
  0
STYLE
  2
Standard
 70
0
 40
0.0
 41
1.0
 50
0.0
 71
0
 42
2.5
  3
txt
  4

  0
STYLE
  2
BOLD
 70
0
 40
0.0
 41
1.0
 50
0.0
 71
0
 42
3.0
  3
txt
  4

  0
ENDTAB
  0
ENDSEC
  0
SECTION
  2
BLOCKS
  0
BLOCK
  8
0
  2
*Model_Space
 70
0
 10
0.0
 20
0.0
 30
0.0
  3
*Model_Space
  1

  0
ENDBLK
  8
0
  0
ENDSEC
  0
SECTION
  2
ENTITIES
  0
LINE
  8
BORDER
 62
7
 10
0.0000
 20
-750000.0000
 30
0.0000
 11
750000.0000
 21
-750000.0000
 31
0.0000
  0
LINE
  8
BORDER
 62
7
 10
750000.0000
 20
-750000.0000
 30
0.0000
 11
750000.0000
 21
-650000.0000
 31
0.0000
  0
LINE
  8
BORDER
 62
7
 10
750000.0000
 20
-650000.0000
 30
0.0000
 11
0.0000
 21
-650000.0000
 31
0.0000
  0
LINE
  8
BORDER
 62
7
 10
0.0000
 20
-650000.0000
 30
0.0000
 11
0.0000
 21
-750000.0000
 31
0.0000
  0
LINE
  8
BORDER
 62
8
 10
150000.0000
 20
-750000.0000
 30
0.0000
 11
150000.0000
 21
-650000.0000
 31
0.0000
  0
LINE
  8
BORDER
 62
8
 10
300000.0000
 20
-750000.0000
 30
0.0000
 11
300000.0000
 21
-650000.0000
 31
0.0000
  0
LINE
  8
BORDER
 62
8
 10
450000.0000
 20
-750000.0000
 30
0.0000
 11
450000.0000
 21
-650000.0000
 31
0.0000
  0
LINE
  8
BORDER
 62
8
 10
600000.0000
 20
-750000.0000
 30
0.0000
 11
600000.0000
 21
-650000.0000
 31
0.0000
  0
LINE
  8
BORDER
 62
8
 10
0.0000
 20
-710000.0000
 30
0.0000
 11
750000.0000
 21
-710000.0000
 31
0.0000
  0
TEXT
  8
TITLE_BLOCK
 62
7
 10
5000.0000
 20
-695000.0000
 30
0.0000
 40
6000.0000
  1
PROJECT: CIRCULAR STEEL DOME STRUCTURE
 72
1
 11
5000.0000
 21
-695000.0000
 31
0.0000
  0
TEXT
  8
TITLE_BLOCK
 62
7
 10
5000.0000
 20
-678000.0000
 30
0.0000
 40
4000.0000
  1
CLIENT: [CLIENT NAME]
 72
1
 11
5000.0000
 21
-678000.0000
 31
0.0000
  0
TEXT
  8
TITLE_BLOCK
 62
7
 10
5000.0000
 20
-665000.0000
 30
0.0000
 40
4000.0000
  1
PROJECT NO: 2026-001
 72
1
 11
5000.0000
 21
-665000.0000
 31
0.0000
  0
TEXT
  8
TITLE_BLOCK
 62
7
 10
155000.0000
 20
-695000.0000
 30
0.0000
 40
6000.0000
  1
DRAWING TITLE:
 72
1
 11
155000.0000
 21
-695000.0000
 31
0.0000
  0
TEXT
  8
TITLE_BLOCK
 62
7
 10
155000.0000
 20
-678000.0000
 30
0.0000
 40
5000.0000
  1
GENERAL ARRANGEMENT - STEEL STRUCTURE
 72
1
 11
155000.0000
 21
-678000.0000
 31
0.0000
  0
TEXT
  8
TITLE_BLOCK
 62
7
 10
155000.0000
 20
-665000.0000
 30
0.0000
 40
4000.0000
  1
PLAN, ELEVATIONS & SECTIONS
 72
1
 11
155000.0000
 21
-665000.0000
 31
0.0000
  0
TEXT
  8
TITLE_BLOCK
 62
7
 10
305000.0000
 20
-695000.0000
 30
0.0000
 40
4000.0000
  1
DWG NO: S-GA-001
 72
1
 11
305000.0000
 21
-695000.0000
 31
0.0000
  0
TEXT
  8
TITLE_BLOCK
 62
7
 10
305000.0000
 20
-682000.0000
 30
0.0000
 40
4000.0000
  1
REV: A
 72
1
 11
305000.0000
 21
-682000.0000
 31
0.0000
  0
TEXT
  8
TITLE_BLOCK
 62
7
 10
305000.0000
 20
-668000.0000
 30
0.0000
 40
4000.0000
  1
SCALE: 1:500
 72
1
 11
305000.0000
 21
-668000.0000
 31
0.0000
  0
TEXT
  8
TITLE_BLOCK
 62
7
 10
455000.0000
 20
-695000.0000
 30
0.0000
 40
4000.0000
  1
DATE: 2026-03-01
 72
1
 11
455000.0000
 21
-695000.0000
 31
0.0000
  0
TEXT
  8
TITLE_BLOCK
 62
7
 10
455000.0000
 20
-682000.0000
 30
0.0000
 40
4000.0000
  1
DRAWN: [DRAFTER]
 72
1
 11
455000.0000
 21
-682000.0000
 31
0.0000
  0
TEXT
  8
TITLE_BLOCK
 62
7
 10
455000.0000
 20
-668000.0000
 30
0.0000
 40
4000.0000
  1
CHECKED: [ENGINEER]
 72
1
 11
455000.0000
 21
-668000.0000
 31
0.0000
  0
TEXT
  8
TITLE_BLOCK
 62
7
 10
605000.0000
 20
-695000.0000
 30
0.0000
 40
4000.0000
  1
STEEL GRADE: S355
 72
1
 11
605000.0000
 21
-695000.0000
 31
0.0000
  0
TEXT
  8
TITLE_BLOCK
 62
7
 10
605000.0000
 20
-682000.0000
 30
0.0000
 40
4000.0000
  1
BOLTS: M20/M24 Gr.8.8
 72
1
 11
605000.0000
 21
-682000.0000
 31
0.0000
  0
TEXT
  8
TITLE_BLOCK
 62
7
 10
605000.0000
 20
-668000.0000
 30
0.0000
 40
4000.0000
  1
WELD: E70XX FULL PEN
 72
1
 11
605000.0000
 21
-668000.0000
 31
0.0000
  0
TEXT
  8
TITLE_BLOCK
 62
7
 10
5000.0000
 20
-735000.0000
 30
0.0000
 40
4000.0000
  1
NOTES:
 72
1
 11
5000.0000
 21
-735000.0000
 31
0.0000
  0
TEXT
  8
TITLE_BLOCK
 62
7
 10
5000.0000
 20
-745000.0000
 30
0.0000
 40
3000.0000
  1
1. ALL DIMS IN MM UNLESS NOTED  2. REFER TO STRUCT ENG CALCS  3. DO NOT SCALE DRAWING
 72
1
 11
5000.0000
 21
-745000.0000
 31
0.0000
  0
TEXT
  8
SECTION_LABELS
 62
3
 10
-165000.0000
 20
180000.0000
 30
0.0000
 40
8000.0000
  1
PLAN VIEW - BASE LEVEL (EL. ±0.000)
 72
1
 11
-165000.0000
 21
180000.0000
 31
0.0000
  0
TEXT
  8
SECTION_LABELS
 62
3
 10
-165000.0000
 20
170000.0000
 30
0.0000
 40
5000.0000
  1
(LOOKING DOWN - COLUMNS & BEAM GRID)
 72
1
 11
-165000.0000
 21
170000.0000
 31
0.0000
  0
LINE
  8
GRID_LINES
 62
8
 10
20000.0000
 20
0.0000
 30
0.0000
 11
185000.0000
 21
0.0000
 31
0.0000
  0
LINE
  8
GRID_LINES
 62
8
 10
18477.5907
 20
7653.6686
 30
0.0000
 11
170917.7135
 21
70796.4350
 31
0.0000
  0
LINE
  8
GRID_LINES
 62
8
 10
14142.1356
 20
14142.1356
 30
0.0000
 11
130814.7545
 21
130814.7545
 31
0.0000
  0
LINE
  8
GRID_LINES
 62
8
 10
7653.6686
 20
18477.5907
 30
0.0000
 11
70796.4350
 21
170917.7135
 31
0.0000
  0
LINE
  8
GRID_LINES
 62
8
 10
0.0000
 20
20000.0000
 30
0.0000
 11
0.0000
 21
185000.0000
 31
0.0000
  0
LINE
  8
GRID_LINES
 62
8
 10
-7653.6686
 20
18477.5907
 30
0.0000
 11
-70796.4350
 21
170917.7135
 31
0.0000
  0
LINE
  8
GRID_LINES
 62
8
 10
-14142.1356
 20
14142.1356
 30
0.0000
 11
-130814.7545
 21
130814.7545
 31
0.0000
  0
LINE
  8
GRID_LINES
 62
8
 10
-18477.5907
 20
7653.6686
 30
0.0000
 11
-170917.7135
 21
70796.4350
 31
0.0000
  0
LINE
  8
GRID_LINES
 62
8
 10
-20000.0000
 20
0.0000
 30
0.0000
 11
-185000.0000
 21
0.0000
 31
0.0000
  0
LINE
  8
GRID_LINES
 62
8
 10
-18477.5907
 20
-7653.6686
 30
0.0000
 11
-170917.7135
 21
-70796.4350
 31
0.0000
  0
LINE
  8
GRID_LINES
 62
8
 10
-14142.1356
 20
-14142.1356
 30
0.0000
 11
-130814.7545
 21
-130814.7545
 31
0.0000
  0
LINE
  8
GRID_LINES
 62
8
 10
-7653.6686
 20
-18477.5907
 30
0.0000
 11
-70796.4350
 21
-170917.7135
 31
0.0000
  0
LINE
  8
GRID_LINES
 62
8
 10
-0.0000
 20
-20000.0000
 30
0.0000
 11
-0.0000
 21
-185000.0000
 31
0.0000
  0
LINE
  8
GRID_LINES
 62
8
 10
7653.6686
 20
-18477.5907
 30
0.0000
 11
70796.4350
 21
-170917.7135
 31
0.0000
  0
LINE
  8
GRID_LINES
 62
8
 10
14142.1356
 20
-14142.1356
 30
0.0000
 11
130814.7545
 21
-130814.7545
 31
0.0000
  0
LINE
  8
GRID_LINES
 62
8
 10
18477.5907
 20
-7653.6686
 30
0.0000
 11
170917.7135
 21
-70796.4350
 31
0.0000
  0
CIRCLE
  8
GRID_LINES
 62
8
 10
0.0000
 20
0.0000
 30
0.0000
 40
65000.0000
  0
CIRCLE
  8
GRID_LINES
 62
8
 10
0.0000
 20
0.0000
 30
0.0000
 40
100000.0000
  0
CIRCLE
  8
GRID_LINES
 62
8
 10
0.0000
 20
0.0000
 30
0.0000
 40
165000.0000
  0
CIRCLE
  8
GRID_BUBBLES
 62
3
 10
193000.0000
 20
0.0000
 30
0.0000
 40
5000.0000
  0
TEXT
  8
GRID_LABELS
 62
3
 10
190500.0000
 20
-2000.0000
 30
0.0000
 40
4000.0000
  1
1
 72
1
 11
190500.0000
 21
-2000.0000
 31
0.0000
  0
CIRCLE
  8
GRID_BUBBLES
 62
3
 10
178308.7498
 20
73857.9024
 30
0.0000
 40
5000.0000
  0
TEXT
  8
GRID_LABELS
 62
3
 10
175808.7498
 20
71857.9024
 30
0.0000
 40
4000.0000
  1
2
 72
1
 11
175808.7498
 21
71857.9024
 31
0.0000
  0
CIRCLE
  8
GRID_BUBBLES
 62
3
 10
136471.6088
 20
136471.6088
 30
0.0000
 40
5000.0000
  0
TEXT
  8
GRID_LABELS
 62
3
 10
133971.6088
 20
134471.6088
 30
0.0000
 40
4000.0000
  1
3
 72
1
 11
133971.6088
 21
134471.6088
 31
0.0000
  0
CIRCLE
  8
GRID_BUBBLES
 62
3
 10
73857.9024
 20
178308.7498
 30
0.0000
 40
5000.0000
  0
TEXT
  8
GRID_LABELS
 62
3
 10
71357.9024
 20
176308.7498
 30
0.0000
 40
4000.0000
  1
4
 72
1
 11
71357.9024
 21
176308.7498
 31
0.0000
  0
CIRCLE
  8
GRID_BUBBLES
 62
3
 10
0.0000
 20
193000.0000
 30
0.0000
 40
5000.0000
  0
TEXT
  8
GRID_LABELS
 62
3
 10
-2500.0000
 20
191000.0000
 30
0.0000
 40
4000.0000
  1
5
 72
1
 11
-2500.0000
 21
191000.0000
 31
0.0000
  0
CIRCLE
  8
GRID_BUBBLES
 62
3
 10
-73857.9024
 20
178308.7498
 30
0.0000
 40
5000.0000
  0
TEXT
  8
GRID_LABELS
 62
3
 10
-76357.9024
 20
176308.7498
 30
0.0000
 40
4000.0000
  1
6
 72
1
 11
-76357.9024
 21
176308.7498
 31
0.0000
  0
CIRCLE
  8
GRID_BUBBLES
 62
3
 10
-136471.6088
 20
136471.6088
 30
0.0000
 40
5000.0000
  0
TEXT
  8
GRID_LABELS
 62
3
 10
-138971.6088
 20
134471.6088
 30
0.0000
 40
4000.0000
  1
7
 72
1
 11
-138971.6088
 21
134471.6088
 31
0.0000
  0
CIRCLE
  8
GRID_BUBBLES
 62
3
 10
-178308.7498
 20
73857.9024
 30
0.0000
 40
5000.0000
  0
TEXT
  8
GRID_LABELS
 62
3
 10
-180808.7498
 20
71857.9024
 30
0.0000
 40
4000.0000
  1
8
 72
1
 11
-180808.7498
 21
71857.9024
 31
0.0000
  0
CIRCLE
  8
GRID_BUBBLES
 62
3
 10
-193000.0000
 20
0.0000
 30
0.0000
 40
5000.0000
  0
TEXT
  8
GRID_LABELS
 62
3
 10
-195500.0000
 20
-2000.0000
 30
0.0000
 40
4000.0000
  1
9
 72
1
 11
-195500.0000
 21
-2000.0000
 31
0.0000
  0
CIRCLE
  8
GRID_BUBBLES
 62
3
 10
-178308.7498
 20
-73857.9024
 30
0.0000
 40
5000.0000
  0
TEXT
  8
GRID_LABELS
 62
3
 10
-180808.7498
 20
-75857.9024
 30
0.0000
 40
4000.0000
  1
10
 72
1
 11
-180808.7498
 21
-75857.9024
 31
0.0000
  0
CIRCLE
  8
GRID_BUBBLES
 62
3
 10
-136471.6088
 20
-136471.6088
 30
0.0000
 40
5000.0000
  0
TEXT
  8
GRID_LABELS
 62
3
 10
-138971.6088
 20
-138471.6088
 30
0.0000
 40
4000.0000
  1
11
 72
1
 11
-138971.6088
 21
-138471.6088
 31
0.0000
  0
CIRCLE
  8
GRID_BUBBLES
 62
3
 10
-73857.9024
 20
-178308.7498
 30
0.0000
 40
5000.0000
  0
TEXT
  8
GRID_LABELS
 62
3
 10
-76357.9024
 20
-180308.7498
 30
0.0000
 40
4000.0000
  1
12
 72
1
 11
-76357.9024
 21
-180308.7498
 31
0.0000
  0
CIRCLE
  8
GRID_BUBBLES
 62
3
 10
-0.0000
 20
-193000.0000
 30
0.0000
 40
5000.0000
  0
TEXT
  8
GRID_LABELS
 62
3
 10
-2500.0000
 20
-195000.0000
 30
0.0000
 40
4000.0000
  1
13
 72
1
 11
-2500.0000
 21
-195000.0000
 31
0.0000
  0
CIRCLE
  8
GRID_BUBBLES
 62
3
 10
73857.9024
 20
-178308.7498
 30
0.0000
 40
5000.0000
  0
TEXT
  8
GRID_LABELS
 62
3
 10
71357.9024
 20
-180308.7498
 30
0.0000
 40
4000.0000
  1
14
 72
1
 11
71357.9024
 21
-180308.7498
 31
0.0000
  0
CIRCLE
  8
GRID_BUBBLES
 62
3
 10
136471.6088
 20
-136471.6088
 30
0.0000
 40
5000.0000
  0
TEXT
  8
GRID_LABELS
 62
3
 10
133971.6088
 20
-138471.6088
 30
0.0000
 40
4000.0000
  1
15
 72
1
 11
133971.6088
 21
-138471.6088
 31
0.0000
  0
CIRCLE
  8
GRID_BUBBLES
 62
3
 10
178308.7498
 20
-73857.9024
 30
0.0000
 40
5000.0000
  0
TEXT
  8
GRID_LABELS
 62
3
 10
175808.7498
 20
-75857.9024
 30
0.0000
 40
4000.0000
  1
16
 72
1
 11
175808.7498
 21
-75857.9024
 31
0.0000
  0
LINE
  8
COLUMNS
 62
1
 10
162000.0000
 20
-3000.0000
 30
0.0000
 11
168000.0000
 21
-3000.0000
 31
0.0000
  0
LINE
  8
COLUMNS
 62
1
 10
168000.0000
 20
-3000.0000
 30
0.0000
 11
168000.0000
 21
3000.0000
 31
0.0000
  0
LINE
  8
COLUMNS
 62
1
 10
168000.0000
 20
3000.0000
 30
0.0000
 11
162000.0000
 21
3000.0000
 31
0.0000
  0
LINE
  8
COLUMNS
 62
1
 10
162000.0000
 20
3000.0000
 30
0.0000
 11
162000.0000
 21
-3000.0000
 31
0.0000
  0
LINE
  8
COLUMNS
 62
1
 10
162000.0000
 20
-3000.0000
 30
0.0000
 11
168000.0000
 21
3000.0000
 31
0.0000
  0
LINE
  8
COLUMNS
 62
1
 10
168000.0000
 20
-3000.0000
 30
0.0000
 11
162000.0000
 21
3000.0000
 31
0.0000
  0
TEXT
  8
COLUMNS
 62
1
 10
168500.0000
 20
3500.0000
 30
0.0000
 40
3500.0000
  1
C-O01
 72
1
 11
168500.0000
 21
3500.0000
 31
0.0000
  0
LINE
  8
COLUMNS
 62
1
 10
158829.5713
 20
29189.9031
 30
0.0000
 11
164829.5713
 21
29189.9031
 31
0.0000
  0
LINE
  8
COLUMNS
 62
1
 10
164829.5713
 20
29189.9031
 30
0.0000
 11
164829.5713
 21
35189.9031
 31
0.0000
  0
LINE
  8
COLUMNS
 62
1
 10
164829.5713
 20
35189.9031
 30
0.0000
 11
158829.5713
 21
35189.9031
 31
0.0000
  0
LINE
  8
COLUMNS
 62
1
 10
158829.5713
 20
35189.9031
 30
0.0000
 11
158829.5713
 21
29189.9031
 31
0.0000
  0
LINE
  8
COLUMNS
 62
1
 10
158829.5713
 20
29189.9031
 30
0.0000
 11
164829.5713
 21
35189.9031
 31
0.0000
  0
LINE
  8
COLUMNS
 62
1
 10
164829.5713
 20
29189.9031
 30
0.0000
 11
158829.5713
 21
35189.9031
 31
0.0000
  0
LINE
  8
COLUMNS
 62
1
 10
149440.1229
 20
60142.7663
 30
0.0000
 11
155440.1229
 21
60142.7663
 31
0.0000
  0
LINE
  8
COLUMNS
 62
1
 10
155440.1229
 20
60142.7663
 30
0.0000
 11
155440.1229
 21
66142.7663
 31
0.0000
  0
LINE
  8
COLUMNS
 62
1
 10
155440.1229
 20
66142.7663
 30
0.0000
 11
149440.1229
 21
66142.7663
 31
0.0000
  0
LINE
  8
COLUMNS
 62
1
 10
149440.1229
 20
66142.7663
 30
0.0000
 11
149440.1229
 21
60142.7663
 31
0.0000
  0
LINE
  8
COLUMNS
 62
1
 10
149440.1229
 20
60142.7663
 30
0.0000
 11
155440.1229
 21
66142.7663
 31
0.0000
  0
LINE
  8
COLUMNS
 62
1
 10
155440.1229
 20
60142.7663
 30
0.0000
 11
149440.1229
 21
66142.7663
 31
0.0000
  0
LINE
  8
COLUMNS
 62
1
 10
134192.4860
 20
88669.0884
 30
0.0000
 11
140192.4860
 21
88669.0884
 31
0.0000
  0
LINE
  8
COLUMNS
 62
1
 10
140192.4860
 20
88669.0884
 30
0.0000
 11
140192.4860
 21
94669.0884
 31
0.0000
  0
LINE
  8
COLUMNS
 62
1
 10
140192.4860
 20
94669.0884
 30
0.0000
 11
134192.4860
 21
94669.0884
 31
0.0000
  0
LINE
  8
COLUMNS
 62
1
 10
134192.4860
 20
94669.0884
 30
0.0000
 11
134192.4860
 21
88669.0884
 31
0.0000
  0
LINE
  8
COLUMNS
 62
1
 10
134192.4860
 20
88669.0884
 30
0.0000
 11
140192.4860
 21
94669.0884
 31
0.0000
  0
LINE
  8
COLUMNS
 62
1
 10
140192.4860
 20
88669.0884
 30
0.0000
 11
134192.4860
 21
94669.0884
 31
0.0000
  0
LINE
  8
COLUMNS
 62
1
 10
113672.6189
 20
113672.6189
 30
0.0000
 11
119672.6189
 21
113672.6189
 31
0.0000
  0
LINE
  8
COLUMNS
 62
1
 10
119672.6189
 20
113672.6189
 30
0.0000
 11
119672.6189
 21
119672.6189
 31
0.0000
  0
LINE
  8
COLUMNS
 62
1
 10
119672.6189
 20
119672.6189
 30
0.0000
 11
113672.6189
 21
119672.6189
 31
0.0000
  0
LINE
  8
COLUMNS
 62
1
 10
113672.6189
 20
119672.6189
 30
0.0000
 11
113672.6189
 21
113672.6189
 31
0.0000
  0
LINE
  8
COLUMNS
 62
1
 10
113672.6189
 20
113672.6189
 30
0.0000
 11
119672.6189
 21
119672.6189
 31
0.0000
  0
LINE
  8
COLUMNS
 62
1
 10
119672.6189
 20
113672.6189
 30
0.0000
 11
113672.6189
 21
119672.6189
 31
0.0000
  0
TEXT
  8
COLUMNS
 62
1
 10
120172.6189
 20
120172.6189
 30
0.0000
 40
3500.0000
  1
C-O05
 72
1
 11
120172.6189
 21
120172.6189
 31
0.0000
  0
LINE
  8
COLUMNS
 62
1
 10
88669.0884
 20
134192.4860
 30
0.0000
 11
94669.0884
 21
134192.4860
 31
0.0000
  0
LINE
  8
COLUMNS
 62
1
 10
94669.0884
 20
134192.4860
 30
0.0000
 11
94669.0884
 21
140192.4860
 31
0.0000
  0
LINE
  8
COLUMNS
 62
1
 10
94669.0884
 20
140192.4860
 30
0.0000
 11
88669.0884
 21
140192.4860
 31
0.0000
  0
LINE
  8
COLUMNS
 62
1
 10
88669.0884
 20
140192.4860
 30
0.0000
 11
88669.0884
 21
134192.4860
 31
0.0000
  0
LINE
  8
COLUMNS
 62
1
 10
88669.0884
 20
134192.4860
 30
0.0000
 11
94669.0884
 21
140192.4860
 31
0.0000
  0
LINE
  8
COLUMNS
 62
1
 10
94669.0884
 20
134192.4860
 30
0.0000
 11
88669.0884
 21
140192.4860
 31
0.0000
  0
LINE
  8
COLUMNS
 62
1
 10
60142.7663
 20
149440.1229
 30
0.0000
 11
66142.7663
 21
149440.1229
 31
0.0000
  0
LINE
  8
COLUMNS
 62
1
 10
66142.7663
 20
149440.1229
 30
0.0000
 11
66142.7663
 21
155440.1229
 31
0.0000
  0
LINE
  8
COLUMNS
 62
1
 10
66142.7663
 20
155440.1229
 30
0.0000
 11
60142.7663
 21
155440.1229
 31
0.0000
  0
LINE
  8
COLUMNS
 62
1
 10
60142.7663
 20
155440.1229
 30
0.0000
 11
60142.7663
 21
149440.1229
 31
0.0000
  0
LINE
  8
COLUMNS
 62
1
 10
60142.7663
 20
149440.1229
 30
0.0000
 11
66142.7663
 21
155440.1229
 31
0.0000
  0
LINE
  8
COLUMNS
 62
1
 10
66142.7663
 20
149440.1229
 30
0.0000
 11
60142.7663
 21
155440.1229
 31
0.0000
  0
LINE
  8
COLUMNS
 62
1
 10
29189.9031
 20
158829.5713
 30
0.0000
 11
35189.9031
 21
158829.5713
 31
0.0000
  0
LINE
  8
COLUMNS
 62
1
 10
35189.9031
 20
158829.5713
 30
0.0000
 11
35189.9031
 21
164829.5713
 31
0.0000
  0
LINE
  8
COLUMNS
 62
1
 10
35189.9031
 20
164829.5713
 30
0.0000
 11
29189.9031
 21
164829.5713
 31
0.0000
  0
LINE
  8
COLUMNS
 62
1
 10
29189.9031
 20
164829.5713
 30
0.0000
 11
29189.9031
 21
158829.5713
 31
0.0000
  0
LINE
  8
COLUMNS
 62
1
 10
29189.9031
 20
158829.5713
 30
0.0000
 11
35189.9031
 21
164829.5713
 31
0.0000
  0
LINE
  8
COLUMNS
 62
1
 10
35189.9031
 20
158829.5713
 30
0.0000
 11
29189.9031
 21
164829.5713
 31
0.0000
  0
LINE
  8
COLUMNS
 62
1
 10
-3000.0000
 20
162000.0000
 30
0.0000
 11
3000.0000
 21
162000.0000
 31
0.0000
  0
LINE
  8
COLUMNS
 62
1
 10
3000.0000
 20
162000.0000
 30
0.0000
 11
3000.0000
 21
168000.0000
 31
0.0000
  0
LINE
  8
COLUMNS
 62
1
 10
3000.0000
 20
168000.0000
 30
0.0000
 11
-3000.0000
 21
168000.0000
 31
0.0000
  0
LINE
  8
COLUMNS
 62
1
 10
-3000.0000
 20
168000.0000
 30
0.0000
 11
-3000.0000
 21
162000.0000
 31
0.0000
  0
LINE
  8
COLUMNS
 62
1
 10
-3000.0000
 20
162000.0000
 30
0.0000
 11
3000.0000
 21
168000.0000
 31
0.0000
  0
LINE
  8
COLUMNS
 62
1
 10
3000.0000
 20
162000.0000
 30
0.0000
 11
-3000.0000
 21
168000.0000
 31
0.0000
  0
TEXT
  8
COLUMNS
 62
1
 10
3500.0000
 20
168500.0000
 30
0.0000
 40
3500.0000
  1
C-O09
 72
1
 11
3500.0000
 21
168500.0000
 31
0.0000
  0
LINE
  8
COLUMNS
 62
1
 10
-35189.9031
 20
158829.5713
 30
0.0000
 11
-29189.9031
 21
158829.5713
 31
0.0000
  0
LINE
  8
COLUMNS
 62
1
 10
-29189.9031
 20
158829.5713
 30
0.0000
 11
-29189.9031
 21
164829.5713
 31
0.0000
  0
LINE
  8
COLUMNS
 62
1
 10
-29189.9031
 20
164829.5713
 30
0.0000
 11
-35189.9031
 21
164829.5713
 31
0.0000
  0
LINE
  8
COLUMNS
 62
1
 10
-35189.9031
 20
164829.5713
 30
0.0000
 11
-35189.9031
 21
158829.5713
 31
0.0000
  0
LINE
  8
COLUMNS
 62
1
 10
-35189.9031
 20
158829.5713
 30
0.0000
 11
-29189.9031
 21
164829.5713
 31
0.0000
  0
LINE
  8
COLUMNS
 62
1
 10
-29189.9031
 20
158829.5713
 30
0.0000
 11
-35189.9031
 21
164829.5713
 31
0.0000
  0
LINE
  8
COLUMNS
 62
1
 10
-66142.7663
 20
149440.1229
 30
0.0000
 11
-60142.7663
 21
149440.1229
 31
0.0000
  0
LINE
  8
COLUMNS
 62
1
 10
-60142.7663
 20
149440.1229
 30
0.0000
 11
-60142.7663
 21
155440.1229
 31
0.0000
  0
LINE
  8
COLUMNS
 62
1
 10
-60142.7663
 20
155440.1229
 30
0.0000
 11
-66142.7663
 21
155440.1229
 31
0.0000
  0
LINE
  8
COLUMNS
 62
1
 10
-66142.7663
 20
155440.1229
 30
0.0000
 11
-66142.7663
 21
149440.1229
 31
0.0000
  0
LINE
  8
COLUMNS
 62
1
 10
-66142.7663
 20
149440.1229
 30
0.0000
 11
-60142.7663
 21
155440.1229
 31
0.0000
  0
LINE
  8
COLUMNS
 62
1
 10
-60142.7663
 20
149440.1229
 30
0.0000
 11
-66142.7663
 21
155440.1229
 31
0.0000
  0
LINE
  8
COLUMNS
 62
1
 10
-94669.0884
 20
134192.4860
 30
0.0000
 11
-88669.0884
 21
134192.4860
 31
0.0000
  0
LINE
  8
COLUMNS
 62
1
 10
-88669.0884
 20
134192.4860
 30
0.0000
 11
-88669.0884
 21
140192.4860
 31
0.0000
  0
LINE
  8
COLUMNS
 62
1
 10
-88669.0884
 20
140192.4860
 30
0.0000
 11
-94669.0884
 21
140192.4860
 31
0.0000
  0
LINE
  8
COLUMNS
 62
1
 10
-94669.0884
 20
140192.4860
 30
0.0000
 11
-94669.0884
 21
134192.4860
 31
0.0000
  0
LINE
  8
COLUMNS
 62
1
 10
-94669.0884
 20
134192.4860
 30
0.0000
 11
-88669.0884
 21
140192.4860
 31
0.0000
  0
LINE
  8
COLUMNS
 62
1
 10
-88669.0884
 20
134192.4860
 30
0.0000
 11
-94669.0884
 21
140192.4860
 31
0.0000
  0
LINE
  8
COLUMNS
 62
1
 10
-119672.6189
 20
113672.6189
 30
0.0000
 11
-113672.6189
 21
113672.6189
 31
0.0000
  0
LINE
  8
COLUMNS
 62
1
 10
-113672.6189
 20
113672.6189
 30
0.0000
 11
-113672.6189
 21
119672.6189
 31
0.0000
  0
LINE
  8
COLUMNS
 62
1
 10
-113672.6189
 20
119672.6189
 30
0.0000
 11
-119672.6189
 21
119672.6189
 31
0.0000
  0
LINE
  8
COLUMNS
 62
1
 10
-119672.6189
 20
119672.6189
 30
0.0000
 11
-119672.6189
 21
113672.6189
 31
0.0000
  0
LINE
  8
COLUMNS
 62
1
 10
-119672.6189
 20
113672.6189
 30
0.0000
 11
-113672.6189
 21
119672.6189
 31
0.0000
  0
LINE
  8
COLUMNS
 62
1
 10
-113672.6189
 20
113672.6189
 30
0.0000
 11
-119672.6189
 21
119672.6189
 31
0.0000
  0
TEXT
  8
COLUMNS
 62
1
 10
-113172.6189
 20
120172.6189
 30
0.0000
 40
3500.0000
  1
C-O13
 72
1
 11
-113172.6189
 21
120172.6189
 31
0.0000
  0
LINE
  8
COLUMNS
 62
1
 10
-140192.4860
 20
88669.0884
 30
0.0000
 11
-134192.4860
 21
88669.0884
 31
0.0000
  0
LINE
  8
COLUMNS
 62
1
 10
-134192.4860
 20
88669.0884
 30
0.0000
 11
-134192.4860
 21
94669.0884
 31
0.0000
  0
LINE
  8
COLUMNS
 62
1
 10
-134192.4860
 20
94669.0884
 30
0.0000
 11
-140192.4860
 21
94669.0884
 31
0.0000
  0
LINE
  8
COLUMNS
 62
1
 10
-140192.4860
 20
94669.0884
 30
0.0000
 11
-140192.4860
 21
88669.0884
 31
0.0000
  0
LINE
  8
COLUMNS
 62
1
 10
-140192.4860
 20
88669.0884
 30
0.0000
 11
-134192.4860
 21
94669.0884
 31
0.0000
  0
LINE
  8
COLUMNS
 62
1
 10
-134192.4860
 20
88669.0884
 30
0.0000
 11
-140192.4860
 21
94669.0884
 31
0.0000
  0
LINE
  8
COLUMNS
 62
1
 10
-155440.1229
 20
60142.7663
 30
0.0000
 11
-149440.1229
 21
60142.7663
 31
0.0000
  0
LINE
  8
COLUMNS
 62
1
 10
-149440.1229
 20
60142.7663
 30
0.0000
 11
-149440.1229
 21
66142.7663
 31
0.0000
  0
LINE
  8
COLUMNS
 62
1
 10
-149440.1229
 20
66142.7663
 30
0.0000
 11
-155440.1229
 21
66142.7663
 31
0.0000
  0
LINE
  8
COLUMNS
 62
1
 10
-155440.1229
 20
66142.7663
 30
0.0000
 11
-155440.1229
 21
60142.7663
 31
0.0000
  0
LINE
  8
COLUMNS
 62
1
 10
-155440.1229
 20
60142.7663
 30
0.0000
 11
-149440.1229
 21
66142.7663
 31
0.0000
  0
LINE
  8
COLUMNS
 62
1
 10
-149440.1229
 20
60142.7663
 30
0.0000
 11
-155440.1229
 21
66142.7663
 31
0.0000
  0
LINE
  8
COLUMNS
 62
1
 10
-164829.5713
 20
29189.9031
 30
0.0000
 11
-158829.5713
 21
29189.9031
 31
0.0000
  0
LINE
  8
COLUMNS
 62
1
 10
-158829.5713
 20
29189.9031
 30
0.0000
 11
-158829.5713
 21
35189.9031
 31
0.0000
  0
LINE
  8
COLUMNS
 62
1
 10
-158829.5713
 20
35189.9031
 30
0.0000
 11
-164829.5713
 21
35189.9031
 31
0.0000
  0
LINE
  8
COLUMNS
 62
1
 10
-164829.5713
 20
35189.9031
 30
0.0000
 11
-164829.5713
 21
29189.9031
 31
0.0000
  0
LINE
  8
COLUMNS
 62
1
 10
-164829.5713
 20
29189.9031
 30
0.0000
 11
-158829.5713
 21
35189.9031
 31
0.0000
  0
LINE
  8
COLUMNS
 62
1
 10
-158829.5713
 20
29189.9031
 30
0.0000
 11
-164829.5713
 21
35189.9031
 31
0.0000
  0
LINE
  8
COLUMNS
 62
1
 10
-168000.0000
 20
-3000.0000
 30
0.0000
 11
-162000.0000
 21
-3000.0000
 31
0.0000
  0
LINE
  8
COLUMNS
 62
1
 10
-162000.0000
 20
-3000.0000
 30
0.0000
 11
-162000.0000
 21
3000.0000
 31
0.0000
  0
LINE
  8
COLUMNS
 62
1
 10
-162000.0000
 20
3000.0000
 30
0.0000
 11
-168000.0000
 21
3000.0000
 31
0.0000
  0
LINE
  8
COLUMNS
 62
1
 10
-168000.0000
 20
3000.0000
 30
0.0000
 11
-168000.0000
 21
-3000.0000
 31
0.0000
  0
LINE
  8
COLUMNS
 62
1
 10
-168000.0000
 20
-3000.0000
 30
0.0000
 11
-162000.0000
 21
3000.0000
 31
0.0000
  0
LINE
  8
COLUMNS
 62
1
 10
-162000.0000
 20
-3000.0000
 30
0.0000
 11
-168000.0000
 21
3000.0000
 31
0.0000
  0
TEXT
  8
COLUMNS
 62
1
 10
-161500.0000
 20
3500.0000
 30
0.0000
 40
3500.0000
  1
C-O17
 72
1
 11
-161500.0000
 21
3500.0000
 31
0.0000
  0
LINE
  8
COLUMNS
 62
1
 10
-164829.5713
 20
-35189.9031
 30
0.0000
 11
-158829.5713
 21
-35189.9031
 31
0.0000
  0
LINE
  8
COLUMNS
 62
1
 10
-158829.5713
 20
-35189.9031
 30
0.0000
 11
-158829.5713
 21
-29189.9031
 31
0.0000
  0
LINE
  8
COLUMNS
 62
1
 10
-158829.5713
 20
-29189.9031
 30
0.0000
 11
-164829.5713
 21
-29189.9031
 31
0.0000
  0
LINE
  8
COLUMNS
 62
1
 10
-164829.5713
 20
-29189.9031
 30
0.0000
 11
-164829.5713
 21
-35189.9031
 31
0.0000
  0
LINE
  8
COLUMNS
 62
1
 10
-164829.5713
 20
-35189.9031
 30
0.0000
 11
-158829.5713
 21
-29189.9031
 31
0.0000
  0
LINE
  8
COLUMNS
 62
1
 10
-158829.5713
 20
-35189.9031
 30
0.0000
 11
-164829.5713
 21
-29189.9031
 31
0.0000
  0
LINE
  8
COLUMNS
 62
1
 10
-155440.1229
 20
-66142.7663
 30
0.0000
 11
-149440.1229
 21
-66142.7663
 31
0.0000
  0
LINE
  8
COLUMNS
 62
1
 10
-149440.1229
 20
-66142.7663
 30
0.0000
 11
-149440.1229
 21
-60142.7663
 31
0.0000
  0
LINE
  8
COLUMNS
 62
1
 10
-149440.1229
 20
-60142.7663
 30
0.0000
 11
-155440.1229
 21
-60142.7663
 31
0.0000
  0
LINE
  8
COLUMNS
 62
1
 10
-155440.1229
 20
-60142.7663
 30
0.0000
 11
-155440.1229
 21
-66142.7663
 31
0.0000
  0
LINE
  8
COLUMNS
 62
1
 10
-155440.1229
 20
-66142.7663
 30
0.0000
 11
-149440.1229
 21
-60142.7663
 31
0.0000
  0
LINE
  8
COLUMNS
 62
1
 10
-149440.1229
 20
-66142.7663
 30
0.0000
 11
-155440.1229
 21
-60142.7663
 31
0.0000
  0
LINE
  8
COLUMNS
 62
1
 10
-140192.4860
 20
-94669.0884
 30
0.0000
 11
-134192.4860
 21
-94669.0884
 31
0.0000
  0
LINE
  8
COLUMNS
 62
1
 10
-134192.4860
 20
-94669.0884
 30
0.0000
 11
-134192.4860
 21
-88669.0884
 31
0.0000
  0
LINE
  8
COLUMNS
 62
1
 10
-134192.4860
 20
-88669.0884
 30
0.0000
 11
-140192.4860
 21
-88669.0884
 31
0.0000
  0
LINE
  8
COLUMNS
 62
1
 10
-140192.4860
 20
-88669.0884
 30
0.0000
 11
-140192.4860
 21
-94669.0884
 31
0.0000
  0
LINE
  8
COLUMNS
 62
1
 10
-140192.4860
 20
-94669.0884
 30
0.0000
 11
-134192.4860
 21
-88669.0884
 31
0.0000
  0
LINE
  8
COLUMNS
 62
1
 10
-134192.4860
 20
-94669.0884
 30
0.0000
 11
-140192.4860
 21
-88669.0884
 31
0.0000
  0
LINE
  8
COLUMNS
 62
1
 10
-119672.6189
 20
-119672.6189
 30
0.0000
 11
-113672.6189
 21
-119672.6189
 31
0.0000
  0
LINE
  8
COLUMNS
 62
1
 10
-113672.6189
 20
-119672.6189
 30
0.0000
 11
-113672.6189
 21
-113672.6189
 31
0.0000
  0
LINE
  8
COLUMNS
 62
1
 10
-113672.6189
 20
-113672.6189
 30
0.0000
 11
-119672.6189
 21
-113672.6189
 31
0.0000
  0
LINE
  8
COLUMNS
 62
1
 10
-119672.6189
 20
-113672.6189
 30
0.0000
 11
-119672.6189
 21
-119672.6189
 31
0.0000
  0
LINE
  8
COLUMNS
 62
1
 10
-119672.6189
 20
-119672.6189
 30
0.0000
 11
-113672.6189
 21
-113672.6189
 31
0.0000
  0
LINE
  8
COLUMNS
 62
1
 10
-113672.6189
 20
-119672.6189
 30
0.0000
 11
-119672.6189
 21
-113672.6189
 31
0.0000
  0
TEXT
  8
COLUMNS
 62
1
 10
-113172.6189
 20
-113172.6189
 30
0.0000
 40
3500.0000
  1
C-O21
 72
1
 11
-113172.6189
 21
-113172.6189
 31
0.0000
  0
LINE
  8
COLUMNS
 62
1
 10
-94669.0884
 20
-140192.4860
 30
0.0000
 11
-88669.0884
 21
-140192.4860
 31
0.0000
  0
LINE
  8
COLUMNS
 62
1
 10
-88669.0884
 20
-140192.4860
 30
0.0000
 11
-88669.0884
 21
-134192.4860
 31
0.0000
  0
LINE
  8
COLUMNS
 62
1
 10
-88669.0884
 20
-134192.4860
 30
0.0000
 11
-94669.0884
 21
-134192.4860
 31
0.0000
  0
LINE
  8
COLUMNS
 62
1
 10
-94669.0884
 20
-134192.4860
 30
0.0000
 11
-94669.0884
 21
-140192.4860
 31
0.0000
  0
LINE
  8
COLUMNS
 62
1
 10
-94669.0884
 20
-140192.4860
 30
0.0000
 11
-88669.0884
 21
-134192.4860
 31
0.0000
  0
LINE
  8
COLUMNS
 62
1
 10
-88669.0884
 20
-140192.4860
 30
0.0000
 11
-94669.0884
 21
-134192.4860
 31
0.0000
  0
LINE
  8
COLUMNS
 62
1
 10
-66142.7663
 20
-155440.1229
 30
0.0000
 11
-60142.7663
 21
-155440.1229
 31
0.0000
  0
LINE
  8
COLUMNS
 62
1
 10
-60142.7663
 20
-155440.1229
 30
0.0000
 11
-60142.7663
 21
-149440.1229
 31
0.0000
  0
LINE
  8
COLUMNS
 62
1
 10
-60142.7663
 20
-149440.1229
 30
0.0000
 11
-66142.7663
 21
-149440.1229
 31
0.0000
  0
LINE
  8
COLUMNS
 62
1
 10
-66142.7663
 20
-149440.1229
 30
0.0000
 11
-66142.7663
 21
-155440.1229
 31
0.0000
  0
LINE
  8
COLUMNS
 62
1
 10
-66142.7663
 20
-155440.1229
 30
0.0000
 11
-60142.7663
 21
-149440.1229
 31
0.0000
  0
LINE
  8
COLUMNS
 62
1
 10
-60142.7663
 20
-155440.1229
 30
0.0000
 11
-66142.7663
 21
-149440.1229
 31
0.0000
  0
LINE
  8
COLUMNS
 62
1
 10
-35189.9031
 20
-164829.5713
 30
0.0000
 11
-29189.9031
 21
-164829.5713
 31
0.0000
  0
LINE
  8
COLUMNS
 62
1
 10
-29189.9031
 20
-164829.5713
 30
0.0000
 11
-29189.9031
 21
-158829.5713
 31
0.0000
  0
LINE
  8
COLUMNS
 62
1
 10
-29189.9031
 20
-158829.5713
 30
0.0000
 11
-35189.9031
 21
-158829.5713
 31
0.0000
  0
LINE
  8
COLUMNS
 62
1
 10
-35189.9031
 20
-158829.5713
 30
0.0000
 11
-35189.9031
 21
-164829.5713
 31
0.0000
  0
LINE
  8
COLUMNS
 62
1
 10
-35189.9031
 20
-164829.5713
 30
0.0000
 11
-29189.9031
 21
-158829.5713
 31
0.0000
  0
LINE
  8
COLUMNS
 62
1
 10
-29189.9031
 20
-164829.5713
 30
0.0000
 11
-35189.9031
 21
-158829.5713
 31
0.0000
  0
LINE
  8
COLUMNS
 62
1
 10
-3000.0000
 20
-168000.0000
 30
0.0000
 11
3000.0000
 21
-168000.0000
 31
0.0000
  0
LINE
  8
COLUMNS
 62
1
 10
3000.0000
 20
-168000.0000
 30
0.0000
 11
3000.0000
 21
-162000.0000
 31
0.0000
  0
LINE
  8
COLUMNS
 62
1
 10
3000.0000
 20
-162000.0000
 30
0.0000
 11
-3000.0000
 21
-162000.0000
 31
0.0000
  0
LINE
  8
COLUMNS
 62
1
 10
-3000.0000
 20
-162000.0000
 30
0.0000
 11
-3000.0000
 21
-168000.0000
 31
0.0000
  0
LINE
  8
COLUMNS
 62
1
 10
-3000.0000
 20
-168000.0000
 30
0.0000
 11
3000.0000
 21
-162000.0000
 31
0.0000
  0
LINE
  8
COLUMNS
 62
1
 10
3000.0000
 20
-168000.0000
 30
0.0000
 11
-3000.0000
 21
-162000.0000
 31
0.0000
  0
TEXT
  8
COLUMNS
 62
1
 10
3500.0000
 20
-161500.0000
 30
0.0000
 40
3500.0000
  1
C-O25
 72
1
 11
3500.0000
 21
-161500.0000
 31
0.0000
  0
LINE
  8
COLUMNS
 62
1
 10
29189.9031
 20
-164829.5713
 30
0.0000
 11
35189.9031
 21
-164829.5713
 31
0.0000
  0
LINE
  8
COLUMNS
 62
1
 10
35189.9031
 20
-164829.5713
 30
0.0000
 11
35189.9031
 21
-158829.5713
 31
0.0000
  0
LINE
  8
COLUMNS
 62
1
 10
35189.9031
 20
-158829.5713
 30
0.0000
 11
29189.9031
 21
-158829.5713
 31
0.0000
  0
LINE
  8
COLUMNS
 62
1
 10
29189.9031
 20
-158829.5713
 30
0.0000
 11
29189.9031
 21
-164829.5713
 31
0.0000
  0
LINE
  8
COLUMNS
 62
1
 10
29189.9031
 20
-164829.5713
 30
0.0000
 11
35189.9031
 21
-158829.5713
 31
0.0000
  0
LINE
  8
COLUMNS
 62
1
 10
35189.9031
 20
-164829.5713
 30
0.0000
 11
29189.9031
 21
-158829.5713
 31
0.0000
  0
LINE
  8
COLUMNS
 62
1
 10
60142.7663
 20
-155440.1229
 30
0.0000
 11
66142.7663
 21
-155440.1229
 31
0.0000
  0
LINE
  8
COLUMNS
 62
1
 10
66142.7663
 20
-155440.1229
 30
0.0000
 11
66142.7663
 21
-149440.1229
 31
0.0000
  0
LINE
  8
COLUMNS
 62
1
 10
66142.7663
 20
-149440.1229
 30
0.0000
 11
60142.7663
 21
-149440.1229
 31
0.0000
  0
LINE
  8
COLUMNS
 62
1
 10
60142.7663
 20
-149440.1229
 30
0.0000
 11
60142.7663
 21
-155440.1229
 31
0.0000
  0
LINE
  8
COLUMNS
 62
1
 10
60142.7663
 20
-155440.1229
 30
0.0000
 11
66142.7663
 21
-149440.1229
 31
0.0000
  0
LINE
  8
COLUMNS
 62
1
 10
66142.7663
 20
-155440.1229
 30
0.0000
 11
60142.7663
 21
-149440.1229
 31
0.0000
  0
LINE
  8
COLUMNS
 62
1
 10
88669.0884
 20
-140192.4860
 30
0.0000
 11
94669.0884
 21
-140192.4860
 31
0.0000
  0
LINE
  8
COLUMNS
 62
1
 10
94669.0884
 20
-140192.4860
 30
0.0000
 11
94669.0884
 21
-134192.4860
 31
0.0000
  0
LINE
  8
COLUMNS
 62
1
 10
94669.0884
 20
-134192.4860
 30
0.0000
 11
88669.0884
 21
-134192.4860
 31
0.0000
  0
LINE
  8
COLUMNS
 62
1
 10
88669.0884
 20
-134192.4860
 30
0.0000
 11
88669.0884
 21
-140192.4860
 31
0.0000
  0
LINE
  8
COLUMNS
 62
1
 10
88669.0884
 20
-140192.4860
 30
0.0000
 11
94669.0884
 21
-134192.4860
 31
0.0000
  0
LINE
  8
COLUMNS
 62
1
 10
94669.0884
 20
-140192.4860
 30
0.0000
 11
88669.0884
 21
-134192.4860
 31
0.0000
  0
LINE
  8
COLUMNS
 62
1
 10
113672.6189
 20
-119672.6189
 30
0.0000
 11
119672.6189
 21
-119672.6189
 31
0.0000
  0
LINE
  8
COLUMNS
 62
1
 10
119672.6189
 20
-119672.6189
 30
0.0000
 11
119672.6189
 21
-113672.6189
 31
0.0000
  0
LINE
  8
COLUMNS
 62
1
 10
119672.6189
 20
-113672.6189
 30
0.0000
 11
113672.6189
 21
-113672.6189
 31
0.0000
  0
LINE
  8
COLUMNS
 62
1
 10
113672.6189
 20
-113672.6189
 30
0.0000
 11
113672.6189
 21
-119672.6189
 31
0.0000
  0
LINE
  8
COLUMNS
 62
1
 10
113672.6189
 20
-119672.6189
 30
0.0000
 11
119672.6189
 21
-113672.6189
 31
0.0000
  0
LINE
  8
COLUMNS
 62
1
 10
119672.6189
 20
-119672.6189
 30
0.0000
 11
113672.6189
 21
-113672.6189
 31
0.0000
  0
TEXT
  8
COLUMNS
 62
1
 10
120172.6189
 20
-113172.6189
 30
0.0000
 40
3500.0000
  1
C-O29
 72
1
 11
120172.6189
 21
-113172.6189
 31
0.0000
  0
LINE
  8
COLUMNS
 62
1
 10
134192.4860
 20
-94669.0884
 30
0.0000
 11
140192.4860
 21
-94669.0884
 31
0.0000
  0
LINE
  8
COLUMNS
 62
1
 10
140192.4860
 20
-94669.0884
 30
0.0000
 11
140192.4860
 21
-88669.0884
 31
0.0000
  0
LINE
  8
COLUMNS
 62
1
 10
140192.4860
 20
-88669.0884
 30
0.0000
 11
134192.4860
 21
-88669.0884
 31
0.0000
  0
LINE
  8
COLUMNS
 62
1
 10
134192.4860
 20
-88669.0884
 30
0.0000
 11
134192.4860
 21
-94669.0884
 31
0.0000
  0
LINE
  8
COLUMNS
 62
1
 10
134192.4860
 20
-94669.0884
 30
0.0000
 11
140192.4860
 21
-88669.0884
 31
0.0000
  0
LINE
  8
COLUMNS
 62
1
 10
140192.4860
 20
-94669.0884
 30
0.0000
 11
134192.4860
 21
-88669.0884
 31
0.0000
  0
LINE
  8
COLUMNS
 62
1
 10
149440.1229
 20
-66142.7663
 30
0.0000
 11
155440.1229
 21
-66142.7663
 31
0.0000
  0
LINE
  8
COLUMNS
 62
1
 10
155440.1229
 20
-66142.7663
 30
0.0000
 11
155440.1229
 21
-60142.7663
 31
0.0000
  0
LINE
  8
COLUMNS
 62
1
 10
155440.1229
 20
-60142.7663
 30
0.0000
 11
149440.1229
 21
-60142.7663
 31
0.0000
  0
LINE
  8
COLUMNS
 62
1
 10
149440.1229
 20
-60142.7663
 30
0.0000
 11
149440.1229
 21
-66142.7663
 31
0.0000
  0
LINE
  8
COLUMNS
 62
1
 10
149440.1229
 20
-66142.7663
 30
0.0000
 11
155440.1229
 21
-60142.7663
 31
0.0000
  0
LINE
  8
COLUMNS
 62
1
 10
155440.1229
 20
-66142.7663
 30
0.0000
 11
149440.1229
 21
-60142.7663
 31
0.0000
  0
LINE
  8
COLUMNS
 62
1
 10
158829.5713
 20
-35189.9031
 30
0.0000
 11
164829.5713
 21
-35189.9031
 31
0.0000
  0
LINE
  8
COLUMNS
 62
1
 10
164829.5713
 20
-35189.9031
 30
0.0000
 11
164829.5713
 21
-29189.9031
 31
0.0000
  0
LINE
  8
COLUMNS
 62
1
 10
164829.5713
 20
-29189.9031
 30
0.0000
 11
158829.5713
 21
-29189.9031
 31
0.0000
  0
LINE
  8
COLUMNS
 62
1
 10
158829.5713
 20
-29189.9031
 30
0.0000
 11
158829.5713
 21
-35189.9031
 31
0.0000
  0
LINE
  8
COLUMNS
 62
1
 10
158829.5713
 20
-35189.9031
 30
0.0000
 11
164829.5713
 21
-29189.9031
 31
0.0000
  0
LINE
  8
COLUMNS
 62
1
 10
164829.5713
 20
-35189.9031
 30
0.0000
 11
158829.5713
 21
-29189.9031
 31
0.0000
  0
LINE
  8
COLUMNS
 62
1
 10
97500.0000
 20
-2500.0000
 30
0.0000
 11
102500.0000
 21
-2500.0000
 31
0.0000
  0
LINE
  8
COLUMNS
 62
1
 10
102500.0000
 20
-2500.0000
 30
0.0000
 11
102500.0000
 21
2500.0000
 31
0.0000
  0
LINE
  8
COLUMNS
 62
1
 10
102500.0000
 20
2500.0000
 30
0.0000
 11
97500.0000
 21
2500.0000
 31
0.0000
  0
LINE
  8
COLUMNS
 62
1
 10
97500.0000
 20
2500.0000
 30
0.0000
 11
97500.0000
 21
-2500.0000
 31
0.0000
  0
LINE
  8
COLUMNS
 62
1
 10
97500.0000
 20
-2500.0000
 30
0.0000
 11
102500.0000
 21
2500.0000
 31
0.0000
  0
LINE
  8
COLUMNS
 62
1
 10
102500.0000
 20
-2500.0000
 30
0.0000
 11
97500.0000
 21
2500.0000
 31
0.0000
  0
TEXT
  8
COLUMNS
 62
1
 10
103000.0000
 20
3000.0000
 30
0.0000
 40
3000.0000
  1
C-I01
 72
1
 11
103000.0000
 21
3000.0000
 31
0.0000
  0
LINE
  8
COLUMNS
 62
1
 10
89887.9533
 20
35768.3432
 30
0.0000
 11
94887.9533
 21
35768.3432
 31
0.0000
  0
LINE
  8
COLUMNS
 62
1
 10
94887.9533
 20
35768.3432
 30
0.0000
 11
94887.9533
 21
40768.3432
 31
0.0000
  0
LINE
  8
COLUMNS
 62
1
 10
94887.9533
 20
40768.3432
 30
0.0000
 11
89887.9533
 21
40768.3432
 31
0.0000
  0
LINE
  8
COLUMNS
 62
1
 10
89887.9533
 20
40768.3432
 30
0.0000
 11
89887.9533
 21
35768.3432
 31
0.0000
  0
LINE
  8
COLUMNS
 62
1
 10
89887.9533
 20
35768.3432
 30
0.0000
 11
94887.9533
 21
40768.3432
 31
0.0000
  0
LINE
  8
COLUMNS
 62
1
 10
94887.9533
 20
35768.3432
 30
0.0000
 11
89887.9533
 21
40768.3432
 31
0.0000
  0
TEXT
  8
COLUMNS
 62
1
 10
95387.9533
 20
41268.3432
 30
0.0000
 40
3000.0000
  1
C-I02
 72
1
 11
95387.9533
 21
41268.3432
 31
0.0000
  0
LINE
  8
COLUMNS
 62
1
 10
68210.6781
 20
68210.6781
 30
0.0000
 11
73210.6781
 21
68210.6781
 31
0.0000
  0
LINE
  8
COLUMNS
 62
1
 10
73210.6781
 20
68210.6781
 30
0.0000
 11
73210.6781
 21
73210.6781
 31
0.0000
  0
LINE
  8
COLUMNS
 62
1
 10
73210.6781
 20
73210.6781
 30
0.0000
 11
68210.6781
 21
73210.6781
 31
0.0000
  0
LINE
  8
COLUMNS
 62
1
 10
68210.6781
 20
73210.6781
 30
0.0000
 11
68210.6781
 21
68210.6781
 31
0.0000
  0
LINE
  8
COLUMNS
 62
1
 10
68210.6781
 20
68210.6781
 30
0.0000
 11
73210.6781
 21
73210.6781
 31
0.0000
  0
LINE
  8
COLUMNS
 62
1
 10
73210.6781
 20
68210.6781
 30
0.0000
 11
68210.6781
 21
73210.6781
 31
0.0000
  0
TEXT
  8
COLUMNS
 62
1
 10
73710.6781
 20
73710.6781
 30
0.0000
 40
3000.0000
  1
C-I03
 72
1
 11
73710.6781
 21
73710.6781
 31
0.0000
  0
LINE
  8
COLUMNS
 62
1
 10
35768.3432
 20
89887.9533
 30
0.0000
 11
40768.3432
 21
89887.9533
 31
0.0000
  0
LINE
  8
COLUMNS
 62
1
 10
40768.3432
 20
89887.9533
 30
0.0000
 11
40768.3432
 21
94887.9533
 31
0.0000
  0
LINE
  8
COLUMNS
 62
1
 10
40768.3432
 20
94887.9533
 30
0.0000
 11
35768.3432
 21
94887.9533
 31
0.0000
  0
LINE
  8
COLUMNS
 62
1
 10
35768.3432
 20
94887.9533
 30
0.0000
 11
35768.3432
 21
89887.9533
 31
0.0000
  0
LINE
  8
COLUMNS
 62
1
 10
35768.3432
 20
89887.9533
 30
0.0000
 11
40768.3432
 21
94887.9533
 31
0.0000
  0
LINE
  8
COLUMNS
 62
1
 10
40768.3432
 20
89887.9533
 30
0.0000
 11
35768.3432
 21
94887.9533
 31
0.0000
  0
TEXT
  8
COLUMNS
 62
1
 10
41268.3432
 20
95387.9533
 30
0.0000
 40
3000.0000
  1
C-I04
 72
1
 11
41268.3432
 21
95387.9533
 31
0.0000
  0
LINE
  8
COLUMNS
 62
1
 10
-2500.0000
 20
97500.0000
 30
0.0000
 11
2500.0000
 21
97500.0000
 31
0.0000
  0
LINE
  8
COLUMNS
 62
1
 10
2500.0000
 20
97500.0000
 30
0.0000
 11
2500.0000
 21
102500.0000
 31
0.0000
  0
LINE
  8
COLUMNS
 62
1
 10
2500.0000
 20
102500.0000
 30
0.0000
 11
-2500.0000
 21
102500.0000
 31
0.0000
  0
LINE
  8
COLUMNS
 62
1
 10
-2500.0000
 20
102500.0000
 30
0.0000
 11
-2500.0000
 21
97500.0000
 31
0.0000
  0
LINE
  8
COLUMNS
 62
1
 10
-2500.0000
 20
97500.0000
 30
0.0000
 11
2500.0000
 21
102500.0000
 31
0.0000
  0
LINE
  8
COLUMNS
 62
1
 10
2500.0000
 20
97500.0000
 30
0.0000
 11
-2500.0000
 21
102500.0000
 31
0.0000
  0
TEXT
  8
COLUMNS
 62
1
 10
3000.0000
 20
103000.0000
 30
0.0000
 40
3000.0000
  1
C-I05
 72
1
 11
3000.0000
 21
103000.0000
 31
0.0000
  0
LINE
  8
COLUMNS
 62
1
 10
-40768.3432
 20
89887.9533
 30
0.0000
 11
-35768.3432
 21
89887.9533
 31
0.0000
  0
LINE
  8
COLUMNS
 62
1
 10
-35768.3432
 20
89887.9533
 30
0.0000
 11
-35768.3432
 21
94887.9533
 31
0.0000
  0
LINE
  8
COLUMNS
 62
1
 10
-35768.3432
 20
94887.9533
 30
0.0000
 11
-40768.3432
 21
94887.9533
 31
0.0000
  0
LINE
  8
COLUMNS
 62
1
 10
-40768.3432
 20
94887.9533
 30
0.0000
 11
-40768.3432
 21
89887.9533
 31
0.0000
  0
LINE
  8
COLUMNS
 62
1
 10
-40768.3432
 20
89887.9533
 30
0.0000
 11
-35768.3432
 21
94887.9533
 31
0.0000
  0
LINE
  8
COLUMNS
 62
1
 10
-35768.3432
 20
89887.9533
 30
0.0000
 11
-40768.3432
 21
94887.9533
 31
0.0000
  0
TEXT
  8
COLUMNS
 62
1
 10
-35268.3432
 20
95387.9533
 30
0.0000
 40
3000.0000
  1
C-I06
 72
1
 11
-35268.3432
 21
95387.9533
 31
0.0000
  0
LINE
  8
COLUMNS
 62
1
 10
-73210.6781
 20
68210.6781
 30
0.0000
 11
-68210.6781
 21
68210.6781
 31
0.0000
  0
LINE
  8
COLUMNS
 62
1
 10
-68210.6781
 20
68210.6781
 30
0.0000
 11
-68210.6781
 21
73210.6781
 31
0.0000
  0
LINE
  8
COLUMNS
 62
1
 10
-68210.6781
 20
73210.6781
 30
0.0000
 11
-73210.6781
 21
73210.6781
 31
0.0000
  0
LINE
  8
COLUMNS
 62
1
 10
-73210.6781
 20
73210.6781
 30
0.0000
 11
-73210.6781
 21
68210.6781
 31
0.0000
  0
LINE
  8
COLUMNS
 62
1
 10
-73210.6781
 20
68210.6781
 30
0.0000
 11
-68210.6781
 21
73210.6781
 31
0.0000
  0
LINE
  8
COLUMNS
 62
1
 10
-68210.6781
 20
68210.6781
 30
0.0000
 11
-73210.6781
 21
73210.6781
 31
0.0000
  0
TEXT
  8
COLUMNS
 62
1
 10
-67710.6781
 20
73710.6781
 30
0.0000
 40
3000.0000
  1
C-I07
 72
1
 11
-67710.6781
 21
73710.6781
 31
0.0000
  0
LINE
  8
COLUMNS
 62
1
 10
-94887.9533
 20
35768.3432
 30
0.0000
 11
-89887.9533
 21
35768.3432
 31
0.0000
  0
LINE
  8
COLUMNS
 62
1
 10
-89887.9533
 20
35768.3432
 30
0.0000
 11
-89887.9533
 21
40768.3432
 31
0.0000
  0
LINE
  8
COLUMNS
 62
1
 10
-89887.9533
 20
40768.3432
 30
0.0000
 11
-94887.9533
 21
40768.3432
 31
0.0000
  0
LINE
  8
COLUMNS
 62
1
 10
-94887.9533
 20
40768.3432
 30
0.0000
 11
-94887.9533
 21
35768.3432
 31
0.0000
  0
LINE
  8
COLUMNS
 62
1
 10
-94887.9533
 20
35768.3432
 30
0.0000
 11
-89887.9533
 21
40768.3432
 31
0.0000
  0
LINE
  8
COLUMNS
 62
1
 10
-89887.9533
 20
35768.3432
 30
0.0000
 11
-94887.9533
 21
40768.3432
 31
0.0000
  0
TEXT
  8
COLUMNS
 62
1
 10
-89387.9533
 20
41268.3432
 30
0.0000
 40
3000.0000
  1
C-I08
 72
1
 11
-89387.9533
 21
41268.3432
 31
0.0000
  0
LINE
  8
COLUMNS
 62
1
 10
-102500.0000
 20
-2500.0000
 30
0.0000
 11
-97500.0000
 21
-2500.0000
 31
0.0000
  0
LINE
  8
COLUMNS
 62
1
 10
-97500.0000
 20
-2500.0000
 30
0.0000
 11
-97500.0000
 21
2500.0000
 31
0.0000
  0
LINE
  8
COLUMNS
 62
1
 10
-97500.0000
 20
2500.0000
 30
0.0000
 11
-102500.0000
 21
2500.0000
 31
0.0000
  0
LINE
  8
COLUMNS
 62
1
 10
-102500.0000
 20
2500.0000
 30
0.0000
 11
-102500.0000
 21
-2500.0000
 31
0.0000
  0
LINE
  8
COLUMNS
 62
1
 10
-102500.0000
 20
-2500.0000
 30
0.0000
 11
-97500.0000
 21
2500.0000
 31
0.0000
  0
LINE
  8
COLUMNS
 62
1
 10
-97500.0000
 20
-2500.0000
 30
0.0000
 11
-102500.0000
 21
2500.0000
 31
0.0000
  0
TEXT
  8
COLUMNS
 62
1
 10
-97000.0000
 20
3000.0000
 30
0.0000
 40
3000.0000
  1
C-I09
 72
1
 11
-97000.0000
 21
3000.0000
 31
0.0000
  0
LINE
  8
COLUMNS
 62
1
 10
-94887.9533
 20
-40768.3432
 30
0.0000
 11
-89887.9533
 21
-40768.3432
 31
0.0000
  0
LINE
  8
COLUMNS
 62
1
 10
-89887.9533
 20
-40768.3432
 30
0.0000
 11
-89887.9533
 21
-35768.3432
 31
0.0000
  0
LINE
  8
COLUMNS
 62
1
 10
-89887.9533
 20
-35768.3432
 30
0.0000
 11
-94887.9533
 21
-35768.3432
 31
0.0000
  0
LINE
  8
COLUMNS
 62
1
 10
-94887.9533
 20
-35768.3432
 30
0.0000
 11
-94887.9533
 21
-40768.3432
 31
0.0000
  0
LINE
  8
COLUMNS
 62
1
 10
-94887.9533
 20
-40768.3432
 30
0.0000
 11
-89887.9533
 21
-35768.3432
 31
0.0000
  0
LINE
  8
COLUMNS
 62
1
 10
-89887.9533
 20
-40768.3432
 30
0.0000
 11
-94887.9533
 21
-35768.3432
 31
0.0000
  0
TEXT
  8
COLUMNS
 62
1
 10
-89387.9533
 20
-35268.3432
 30
0.0000
 40
3000.0000
  1
C-I10
 72
1
 11
-89387.9533
 21
-35268.3432
 31
0.0000
  0
LINE
  8
COLUMNS
 62
1
 10
-73210.6781
 20
-73210.6781
 30
0.0000
 11
-68210.6781
 21
-73210.6781
 31
0.0000
  0
LINE
  8
COLUMNS
 62
1
 10
-68210.6781
 20
-73210.6781
 30
0.0000
 11
-68210.6781
 21
-68210.6781
 31
0.0000
  0
LINE
  8
COLUMNS
 62
1
 10
-68210.6781
 20
-68210.6781
 30
0.0000
 11
-73210.6781
 21
-68210.6781
 31
0.0000
  0
LINE
  8
COLUMNS
 62
1
 10
-73210.6781
 20
-68210.6781
 30
0.0000
 11
-73210.6781
 21
-73210.6781
 31
0.0000
  0
LINE
  8
COLUMNS
 62
1
 10
-73210.6781
 20
-73210.6781
 30
0.0000
 11
-68210.6781
 21
-68210.6781
 31
0.0000
  0
LINE
  8
COLUMNS
 62
1
 10
-68210.6781
 20
-73210.6781
 30
0.0000
 11
-73210.6781
 21
-68210.6781
 31
0.0000
  0
TEXT
  8
COLUMNS
 62
1
 10
-67710.6781
 20
-67710.6781
 30
0.0000
 40
3000.0000
  1
C-I11
 72
1
 11
-67710.6781
 21
-67710.6781
 31
0.0000
  0
LINE
  8
COLUMNS
 62
1
 10
-40768.3432
 20
-94887.9533
 30
0.0000
 11
-35768.3432
 21
-94887.9533
 31
0.0000
  0
LINE
  8
COLUMNS
 62
1
 10
-35768.3432
 20
-94887.9533
 30
0.0000
 11
-35768.3432
 21
-89887.9533
 31
0.0000
  0
LINE
  8
COLUMNS
 62
1
 10
-35768.3432
 20
-89887.9533
 30
0.0000
 11
-40768.3432
 21
-89887.9533
 31
0.0000
  0
LINE
  8
COLUMNS
 62
1
 10
-40768.3432
 20
-89887.9533
 30
0.0000
 11
-40768.3432
 21
-94887.9533
 31
0.0000
  0
LINE
  8
COLUMNS
 62
1
 10
-40768.3432
 20
-94887.9533
 30
0.0000
 11
-35768.3432
 21
-89887.9533
 31
0.0000
  0
LINE
  8
COLUMNS
 62
1
 10
-35768.3432
 20
-94887.9533
 30
0.0000
 11
-40768.3432
 21
-89887.9533
 31
0.0000
  0
TEXT
  8
COLUMNS
 62
1
 10
-35268.3432
 20
-89387.9533
 30
0.0000
 40
3000.0000
  1
C-I12
 72
1
 11
-35268.3432
 21
-89387.9533
 31
0.0000
  0
LINE
  8
COLUMNS
 62
1
 10
-2500.0000
 20
-102500.0000
 30
0.0000
 11
2500.0000
 21
-102500.0000
 31
0.0000
  0
LINE
  8
COLUMNS
 62
1
 10
2500.0000
 20
-102500.0000
 30
0.0000
 11
2500.0000
 21
-97500.0000
 31
0.0000
  0
LINE
  8
COLUMNS
 62
1
 10
2500.0000
 20
-97500.0000
 30
0.0000
 11
-2500.0000
 21
-97500.0000
 31
0.0000
  0
LINE
  8
COLUMNS
 62
1
 10
-2500.0000
 20
-97500.0000
 30
0.0000
 11
-2500.0000
 21
-102500.0000
 31
0.0000
  0
LINE
  8
COLUMNS
 62
1
 10
-2500.0000
 20
-102500.0000
 30
0.0000
 11
2500.0000
 21
-97500.0000
 31
0.0000
  0
LINE
  8
COLUMNS
 62
1
 10
2500.0000
 20
-102500.0000
 30
0.0000
 11
-2500.0000
 21
-97500.0000
 31
0.0000
  0
TEXT
  8
COLUMNS
 62
1
 10
3000.0000
 20
-97000.0000
 30
0.0000
 40
3000.0000
  1
C-I13
 72
1
 11
3000.0000
 21
-97000.0000
 31
0.0000
  0
LINE
  8
COLUMNS
 62
1
 10
35768.3432
 20
-94887.9533
 30
0.0000
 11
40768.3432
 21
-94887.9533
 31
0.0000
  0
LINE
  8
COLUMNS
 62
1
 10
40768.3432
 20
-94887.9533
 30
0.0000
 11
40768.3432
 21
-89887.9533
 31
0.0000
  0
LINE
  8
COLUMNS
 62
1
 10
40768.3432
 20
-89887.9533
 30
0.0000
 11
35768.3432
 21
-89887.9533
 31
0.0000
  0
LINE
  8
COLUMNS
 62
1
 10
35768.3432
 20
-89887.9533
 30
0.0000
 11
35768.3432
 21
-94887.9533
 31
0.0000
  0
LINE
  8
COLUMNS
 62
1
 10
35768.3432
 20
-94887.9533
 30
0.0000
 11
40768.3432
 21
-89887.9533
 31
0.0000
  0
LINE
  8
COLUMNS
 62
1
 10
40768.3432
 20
-94887.9533
 30
0.0000
 11
35768.3432
 21
-89887.9533
 31
0.0000
  0
TEXT
  8
COLUMNS
 62
1
 10
41268.3432
 20
-89387.9533
 30
0.0000
 40
3000.0000
  1
C-I14
 72
1
 11
41268.3432
 21
-89387.9533
 31
0.0000
  0
LINE
  8
COLUMNS
 62
1
 10
68210.6781
 20
-73210.6781
 30
0.0000
 11
73210.6781
 21
-73210.6781
 31
0.0000
  0
LINE
  8
COLUMNS
 62
1
 10
73210.6781
 20
-73210.6781
 30
0.0000
 11
73210.6781
 21
-68210.6781
 31
0.0000
  0
LINE
  8
COLUMNS
 62
1
 10
73210.6781
 20
-68210.6781
 30
0.0000
 11
68210.6781
 21
-68210.6781
 31
0.0000
  0
LINE
  8
COLUMNS
 62
1
 10
68210.6781
 20
-68210.6781
 30
0.0000
 11
68210.6781
 21
-73210.6781
 31
0.0000
  0
LINE
  8
COLUMNS
 62
1
 10
68210.6781
 20
-73210.6781
 30
0.0000
 11
73210.6781
 21
-68210.6781
 31
0.0000
  0
LINE
  8
COLUMNS
 62
1
 10
73210.6781
 20
-73210.6781
 30
0.0000
 11
68210.6781
 21
-68210.6781
 31
0.0000
  0
TEXT
  8
COLUMNS
 62
1
 10
73710.6781
 20
-67710.6781
 30
0.0000
 40
3000.0000
  1
C-I15
 72
1
 11
73710.6781
 21
-67710.6781
 31
0.0000
  0
LINE
  8
COLUMNS
 62
1
 10
89887.9533
 20
-40768.3432
 30
0.0000
 11
94887.9533
 21
-40768.3432
 31
0.0000
  0
LINE
  8
COLUMNS
 62
1
 10
94887.9533
 20
-40768.3432
 30
0.0000
 11
94887.9533
 21
-35768.3432
 31
0.0000
  0
LINE
  8
COLUMNS
 62
1
 10
94887.9533
 20
-35768.3432
 30
0.0000
 11
89887.9533
 21
-35768.3432
 31
0.0000
  0
LINE
  8
COLUMNS
 62
1
 10
89887.9533
 20
-35768.3432
 30
0.0000
 11
89887.9533
 21
-40768.3432
 31
0.0000
  0
LINE
  8
COLUMNS
 62
1
 10
89887.9533
 20
-40768.3432
 30
0.0000
 11
94887.9533
 21
-35768.3432
 31
0.0000
  0
LINE
  8
COLUMNS
 62
1
 10
94887.9533
 20
-40768.3432
 30
0.0000
 11
89887.9533
 21
-35768.3432
 31
0.0000
  0
TEXT
  8
COLUMNS
 62
1
 10
95387.9533
 20
-35268.3432
 30
0.0000
 40
3000.0000
  1
C-I16
 72
1
 11
95387.9533
 21
-35268.3432
 31
0.0000
  0
LINE
  8
BEAMS_OUTER
 62
2
 10
165000.0000
 20
0.0000
 30
0.0000
 11
161829.5713
 21
32189.9031
 31
0.0000
  0
LINE
  8
BEAMS_OUTER
 62
2
 10
161829.5713
 20
32189.9031
 30
0.0000
 11
152440.1229
 21
63142.7663
 31
0.0000
  0
LINE
  8
BEAMS_OUTER
 62
2
 10
152440.1229
 20
63142.7663
 30
0.0000
 11
137192.4860
 21
91669.0884
 31
0.0000
  0
LINE
  8
BEAMS_OUTER
 62
2
 10
137192.4860
 20
91669.0884
 30
0.0000
 11
116672.6189
 21
116672.6189
 31
0.0000
  0
LINE
  8
BEAMS_OUTER
 62
2
 10
116672.6189
 20
116672.6189
 30
0.0000
 11
91669.0884
 21
137192.4860
 31
0.0000
  0
LINE
  8
BEAMS_OUTER
 62
2
 10
91669.0884
 20
137192.4860
 30
0.0000
 11
63142.7663
 21
152440.1229
 31
0.0000
  0
LINE
  8
BEAMS_OUTER
 62
2
 10
63142.7663
 20
152440.1229
 30
0.0000
 11
32189.9031
 21
161829.5713
 31
0.0000
  0
LINE
  8
BEAMS_OUTER
 62
2
 10
32189.9031
 20
161829.5713
 30
0.0000
 11
0.0000
 21
165000.0000
 31
0.0000
  0
LINE
  8
BEAMS_OUTER
 62
2
 10
0.0000
 20
165000.0000
 30
0.0000
 11
-32189.9031
 21
161829.5713
 31
0.0000
  0
LINE
  8
BEAMS_OUTER
 62
2
 10
-32189.9031
 20
161829.5713
 30
0.0000
 11
-63142.7663
 21
152440.1229
 31
0.0000
  0
LINE
  8
BEAMS_OUTER
 62
2
 10
-63142.7663
 20
152440.1229
 30
0.0000
 11
-91669.0884
 21
137192.4860
 31
0.0000
  0
LINE
  8
BEAMS_OUTER
 62
2
 10
-91669.0884
 20
137192.4860
 30
0.0000
 11
-116672.6189
 21
116672.6189
 31
0.0000
  0
LINE
  8
BEAMS_OUTER
 62
2
 10
-116672.6189
 20
116672.6189
 30
0.0000
 11
-137192.4860
 21
91669.0884
 31
0.0000
  0
LINE
  8
BEAMS_OUTER
 62
2
 10
-137192.4860
 20
91669.0884
 30
0.0000
 11
-152440.1229
 21
63142.7663
 31
0.0000
  0
LINE
  8
BEAMS_OUTER
 62
2
 10
-152440.1229
 20
63142.7663
 30
0.0000
 11
-161829.5713
 21
32189.9031
 31
0.0000
  0
LINE
  8
BEAMS_OUTER
 62
2
 10
-161829.5713
 20
32189.9031
 30
0.0000
 11
-165000.0000
 21
0.0000
 31
0.0000
  0
LINE
  8
BEAMS_OUTER
 62
2
 10
-165000.0000
 20
0.0000
 30
0.0000
 11
-161829.5713
 21
-32189.9031
 31
0.0000
  0
LINE
  8
BEAMS_OUTER
 62
2
 10
-161829.5713
 20
-32189.9031
 30
0.0000
 11
-152440.1229
 21
-63142.7663
 31
0.0000
  0
LINE
  8
BEAMS_OUTER
 62
2
 10
-152440.1229
 20
-63142.7663
 30
0.0000
 11
-137192.4860
 21
-91669.0884
 31
0.0000
  0
LINE
  8
BEAMS_OUTER
 62
2
 10
-137192.4860
 20
-91669.0884
 30
0.0000
 11
-116672.6189
 21
-116672.6189
 31
0.0000
  0
LINE
  8
BEAMS_OUTER
 62
2
 10
-116672.6189
 20
-116672.6189
 30
0.0000
 11
-91669.0884
 21
-137192.4860
 31
0.0000
  0
LINE
  8
BEAMS_OUTER
 62
2
 10
-91669.0884
 20
-137192.4860
 30
0.0000
 11
-63142.7663
 21
-152440.1229
 31
0.0000
  0
LINE
  8
BEAMS_OUTER
 62
2
 10
-63142.7663
 20
-152440.1229
 30
0.0000
 11
-32189.9031
 21
-161829.5713
 31
0.0000
  0
LINE
  8
BEAMS_OUTER
 62
2
 10
-32189.9031
 20
-161829.5713
 30
0.0000
 11
-0.0000
 21
-165000.0000
 31
0.0000
  0
LINE
  8
BEAMS_OUTER
 62
2
 10
-0.0000
 20
-165000.0000
 30
0.0000
 11
32189.9031
 21
-161829.5713
 31
0.0000
  0
LINE
  8
BEAMS_OUTER
 62
2
 10
32189.9031
 20
-161829.5713
 30
0.0000
 11
63142.7663
 21
-152440.1229
 31
0.0000
  0
LINE
  8
BEAMS_OUTER
 62
2
 10
63142.7663
 20
-152440.1229
 30
0.0000
 11
91669.0884
 21
-137192.4860
 31
0.0000
  0
LINE
  8
BEAMS_OUTER
 62
2
 10
91669.0884
 20
-137192.4860
 30
0.0000
 11
116672.6189
 21
-116672.6189
 31
0.0000
  0
LINE
  8
BEAMS_OUTER
 62
2
 10
116672.6189
 20
-116672.6189
 30
0.0000
 11
137192.4860
 21
-91669.0884
 31
0.0000
  0
LINE
  8
BEAMS_OUTER
 62
2
 10
137192.4860
 20
-91669.0884
 30
0.0000
 11
152440.1229
 21
-63142.7663
 31
0.0000
  0
LINE
  8
BEAMS_OUTER
 62
2
 10
152440.1229
 20
-63142.7663
 30
0.0000
 11
161829.5713
 21
-32189.9031
 31
0.0000
  0
LINE
  8
BEAMS_OUTER
 62
2
 10
161829.5713
 20
-32189.9031
 30
0.0000
 11
165000.0000
 21
-0.0000
 31
0.0000
  0
LINE
  8
BEAMS_INNER
 62
2
 10
100000.0000
 20
0.0000
 30
0.0000
 11
92387.9533
 21
38268.3432
 31
0.0000
  0
LINE
  8
BEAMS_INNER
 62
2
 10
92387.9533
 20
38268.3432
 30
0.0000
 11
70710.6781
 21
70710.6781
 31
0.0000
  0
LINE
  8
BEAMS_INNER
 62
2
 10
70710.6781
 20
70710.6781
 30
0.0000
 11
38268.3432
 21
92387.9533
 31
0.0000
  0
LINE
  8
BEAMS_INNER
 62
2
 10
38268.3432
 20
92387.9533
 30
0.0000
 11
0.0000
 21
100000.0000
 31
0.0000
  0
LINE
  8
BEAMS_INNER
 62
2
 10
0.0000
 20
100000.0000
 30
0.0000
 11
-38268.3432
 21
92387.9533
 31
0.0000
  0
LINE
  8
BEAMS_INNER
 62
2
 10
-38268.3432
 20
92387.9533
 30
0.0000
 11
-70710.6781
 21
70710.6781
 31
0.0000
  0
LINE
  8
BEAMS_INNER
 62
2
 10
-70710.6781
 20
70710.6781
 30
0.0000
 11
-92387.9533
 21
38268.3432
 31
0.0000
  0
LINE
  8
BEAMS_INNER
 62
2
 10
-92387.9533
 20
38268.3432
 30
0.0000
 11
-100000.0000
 21
0.0000
 31
0.0000
  0
LINE
  8
BEAMS_INNER
 62
2
 10
-100000.0000
 20
0.0000
 30
0.0000
 11
-92387.9533
 21
-38268.3432
 31
0.0000
  0
LINE
  8
BEAMS_INNER
 62
2
 10
-92387.9533
 20
-38268.3432
 30
0.0000
 11
-70710.6781
 21
-70710.6781
 31
0.0000
  0
LINE
  8
BEAMS_INNER
 62
2
 10
-70710.6781
 20
-70710.6781
 30
0.0000
 11
-38268.3432
 21
-92387.9533
 31
0.0000
  0
LINE
  8
BEAMS_INNER
 62
2
 10
-38268.3432
 20
-92387.9533
 30
0.0000
 11
-0.0000
 21
-100000.0000
 31
0.0000
  0
LINE
  8
BEAMS_INNER
 62
2
 10
-0.0000
 20
-100000.0000
 30
0.0000
 11
38268.3432
 21
-92387.9533
 31
0.0000
  0
LINE
  8
BEAMS_INNER
 62
2
 10
38268.3432
 20
-92387.9533
 30
0.0000
 11
70710.6781
 21
-70710.6781
 31
0.0000
  0
LINE
  8
BEAMS_INNER
 62
2
 10
70710.6781
 20
-70710.6781
 30
0.0000
 11
92387.9533
 21
-38268.3432
 31
0.0000
  0
LINE
  8
BEAMS_INNER
 62
2
 10
92387.9533
 20
-38268.3432
 30
0.0000
 11
100000.0000
 21
-0.0000
 31
0.0000
  0
LINE
  8
BEAMS_RADIAL
 62
2
 10
100000.0000
 20
0.0000
 30
0.0000
 11
165000.0000
 21
0.0000
 31
0.0000
  0
LINE
  8
BEAMS_RADIAL
 62
2
 10
92387.9533
 20
38268.3432
 30
0.0000
 11
152440.1229
 21
63142.7663
 31
0.0000
  0
LINE
  8
BEAMS_RADIAL
 62
2
 10
70710.6781
 20
70710.6781
 30
0.0000
 11
116672.6189
 21
116672.6189
 31
0.0000
  0
LINE
  8
BEAMS_RADIAL
 62
2
 10
38268.3432
 20
92387.9533
 30
0.0000
 11
63142.7663
 21
152440.1229
 31
0.0000
  0
LINE
  8
BEAMS_RADIAL
 62
2
 10
0.0000
 20
100000.0000
 30
0.0000
 11
0.0000
 21
165000.0000
 31
0.0000
  0
LINE
  8
BEAMS_RADIAL
 62
2
 10
-38268.3432
 20
92387.9533
 30
0.0000
 11
-63142.7663
 21
152440.1229
 31
0.0000
  0
LINE
  8
BEAMS_RADIAL
 62
2
 10
-70710.6781
 20
70710.6781
 30
0.0000
 11
-116672.6189
 21
116672.6189
 31
0.0000
  0
LINE
  8
BEAMS_RADIAL
 62
2
 10
-92387.9533
 20
38268.3432
 30
0.0000
 11
-152440.1229
 21
63142.7663
 31
0.0000
  0
LINE
  8
BEAMS_RADIAL
 62
2
 10
-100000.0000
 20
0.0000
 30
0.0000
 11
-165000.0000
 21
0.0000
 31
0.0000
  0
LINE
  8
BEAMS_RADIAL
 62
2
 10
-92387.9533
 20
-38268.3432
 30
0.0000
 11
-152440.1229
 21
-63142.7663
 31
0.0000
  0
LINE
  8
BEAMS_RADIAL
 62
2
 10
-70710.6781
 20
-70710.6781
 30
0.0000
 11
-116672.6189
 21
-116672.6189
 31
0.0000
  0
LINE
  8
BEAMS_RADIAL
 62
2
 10
-38268.3432
 20
-92387.9533
 30
0.0000
 11
-63142.7663
 21
-152440.1229
 31
0.0000
  0
LINE
  8
BEAMS_RADIAL
 62
2
 10
-0.0000
 20
-100000.0000
 30
0.0000
 11
-0.0000
 21
-165000.0000
 31
0.0000
  0
LINE
  8
BEAMS_RADIAL
 62
2
 10
38268.3432
 20
-92387.9533
 30
0.0000
 11
63142.7663
 21
-152440.1229
 31
0.0000
  0
LINE
  8
BEAMS_RADIAL
 62
2
 10
70710.6781
 20
-70710.6781
 30
0.0000
 11
116672.6189
 21
-116672.6189
 31
0.0000
  0
LINE
  8
BEAMS_RADIAL
 62
2
 10
92387.9533
 20
-38268.3432
 30
0.0000
 11
152440.1229
 21
-63142.7663
 31
0.0000
  0
LINE
  8
BRACING
 62
4
 10
100000.0000
 20
0.0000
 30
0.0000
 11
152440.1229
 21
63142.7663
 31
0.0000
  0
LINE
  8
BRACING
 62
4
 10
70710.6781
 20
70710.6781
 30
0.0000
 11
63142.7663
 21
152440.1229
 31
0.0000
  0
LINE
  8
BRACING
 62
4
 10
0.0000
 20
100000.0000
 30
0.0000
 11
-63142.7663
 21
152440.1229
 31
0.0000
  0
LINE
  8
BRACING
 62
4
 10
-70710.6781
 20
70710.6781
 30
0.0000
 11
-152440.1229
 21
63142.7663
 31
0.0000
  0
LINE
  8
BRACING
 62
4
 10
-100000.0000
 20
0.0000
 30
0.0000
 11
-152440.1229
 21
-63142.7663
 31
0.0000
  0
LINE
  8
BRACING
 62
4
 10
-70710.6781
 20
-70710.6781
 30
0.0000
 11
-63142.7663
 21
-152440.1229
 31
0.0000
  0
LINE
  8
BRACING
 62
4
 10
-0.0000
 20
-100000.0000
 30
0.0000
 11
63142.7663
 21
-152440.1229
 31
0.0000
  0
LINE
  8
BRACING
 62
4
 10
70710.6781
 20
-70710.6781
 30
0.0000
 11
152440.1229
 21
-63142.7663
 31
0.0000
  0
CIRCLE
  8
MARKERS_BASE
 62
7
 10
0.0000
 20
0.0000
 30
0.0000
 40
5000.0000
  0
CIRCLE
  8
MARKERS_BASE
 62
7
 10
0.0000
 20
0.0000
 30
0.0000
 40
1000.0000
  0
TEXT
  8
MARKERS_BASE
 62
7
 10
6000.0000
 20
6000.0000
 30
0.0000
 40
4000.0000
  1
STRUCT. CL
 72
1
 11
6000.0000
 21
6000.0000
 31
0.0000
  0
LINE
  8
DIMENSIONS
 62
3
 10
0.0000
 20
0.0000
 30
0.0000
 11
165000.0000
 21
0.0000
 31
0.0000
  0
TEXT
  8
DIMENSIONS
 62
3
 10
82500.0000
 20
-8000.0000
 30
0.0000
 40
4000.0000
  1
R=165000
 72
1
 11
82500.0000
 21
-8000.0000
 31
0.0000
  0
LINE
  8
DIMENSIONS
 62
3
 10
0.0000
 20
0.0000
 30
0.0000
 11
0.0000
 21
100000.0000
 31
0.0000
  0
TEXT
  8
DIMENSIONS
 62
3
 10
2000.0000
 20
50000.0000
 30
0.0000
 40
4000.0000
  1
R=100000
 72
1
 11
2000.0000
 21
50000.0000
 31
0.0000
  0
LINE
  8
DIMENSIONS
 62
1
 10
-180000.0000
 20
0.0000
 30
0.0000
 11
180000.0000
 21
0.0000
 31
0.0000
  0
TEXT
  8
DIMENSIONS
 62
1
 10
182000.0000
 20
-3000.0000
 30
0.0000
 40
6000.0000
  1
A
 72
1
 11
182000.0000
 21
-3000.0000
 31
0.0000
  0
TEXT
  8
DIMENSIONS
 62
1
 10
-190000.0000
 20
-3000.0000
 30
0.0000
 40
6000.0000
  1
A
 72
1
 11
-190000.0000
 21
-3000.0000
 31
0.0000
  0
TEXT
  8
SECTION_LABELS
 62
3
 10
215000.0000
 20
80000.0000
 30
0.0000
 40
8000.0000
  1
ELEVATION - NORTH FACE
 72
1
 11
215000.0000
 21
80000.0000
 31
0.0000
  0
TEXT
  8
SECTION_LABELS
 62
3
 10
215000.0000
 20
70000.0000
 30
0.0000
 40
5000.0000
  1
(LOOKING SOUTH)
 72
1
 11
215000.0000
 21
70000.0000
 31
0.0000
  0
LINE
  8
LEVELS
 62
8
 10
215000.0000
 20
0.0000
 30
0.0000
 11
565000.0000
 21
0.0000
 31
0.0000
  0
TEXT
  8
LEVELS
 62
5
 10
567000.0000
 20
-1500.0000
 30
0.0000
 40
3500.0000
  1
EL.±0.000
 72
1
 11
567000.0000
 21
-1500.0000
 31
0.0000
  0
LINE
  8
LEVELS
 62
8
 10
215000.0000
 20
5000.0000
 30
0.0000
 11
565000.0000
 21
5000.0000
 31
0.0000
  0
TEXT
  8
LEVELS
 62
5
 10
567000.0000
 20
3500.0000
 30
0.0000
 40
3500.0000
  1
EL.+5.000
 72
1
 11
567000.0000
 21
3500.0000
 31
0.0000
  0
LINE
  8
LEVELS_DIM
 62
5
 10
212000.0000
 20
3000.0000
 30
0.0000
 11
215000.0000
 21
5000.0000
 31
0.0000
  0
LINE
  8
LEVELS_DIM
 62
5
 10
212000.0000
 20
7000.0000
 30
0.0000
 11
215000.0000
 21
5000.0000
 31
0.0000
  0
LINE
  8
LEVELS
 62
8
 10
215000.0000
 20
35000.0000
 30
0.0000
 11
565000.0000
 21
35000.0000
 31
0.0000
  0
TEXT
  8
LEVELS
 62
5
 10
567000.0000
 20
33500.0000
 30
0.0000
 40
3500.0000
  1
EL.+35.000
 72
1
 11
567000.0000
 21
33500.0000
 31
0.0000
  0
LINE
  8
LEVELS_DIM
 62
5
 10
212000.0000
 20
33000.0000
 30
0.0000
 11
215000.0000
 21
35000.0000
 31
0.0000
  0
LINE
  8
LEVELS_DIM
 62
5
 10
212000.0000
 20
37000.0000
 30
0.0000
 11
215000.0000
 21
35000.0000
 31
0.0000
  0
LINE
  8
LEVELS
 62
8
 10
215000.0000
 20
52500.0000
 30
0.0000
 11
565000.0000
 21
52500.0000
 31
0.0000
  0
TEXT
  8
LEVELS
 62
5
 10
567000.0000
 20
51000.0000
 30
0.0000
 40
3500.0000
  1
EL.+52.500
 72
1
 11
567000.0000
 21
51000.0000
 31
0.0000
  0
LINE
  8
LEVELS_DIM
 62
5
 10
212000.0000
 20
50500.0000
 30
0.0000
 11
215000.0000
 21
52500.0000
 31
0.0000
  0
LINE
  8
LEVELS_DIM
 62
5
 10
212000.0000
 20
54500.0000
 30
0.0000
 11
215000.0000
 21
52500.0000
 31
0.0000
  0
LINE
  8
LEVELS
 62
8
 10
215000.0000
 20
70000.0000
 30
0.0000
 11
565000.0000
 21
70000.0000
 31
0.0000
  0
TEXT
  8
LEVELS
 62
5
 10
567000.0000
 20
68500.0000
 30
0.0000
 40
3500.0000
  1
EL.+70.000
 72
1
 11
567000.0000
 21
68500.0000
 31
0.0000
  0
LINE
  8
LEVELS_DIM
 62
5
 10
212000.0000
 20
68000.0000
 30
0.0000
 11
215000.0000
 21
70000.0000
 31
0.0000
  0
LINE
  8
LEVELS_DIM
 62
5
 10
212000.0000
 20
72000.0000
 30
0.0000
 11
215000.0000
 21
70000.0000
 31
0.0000
  0
LINE
  8
COLUMNS
 62
1
 10
555000.0000
 20
0.0000
 30
0.0000
 11
555000.0000
 21
37500.0000
 31
0.0000
  0
LINE
  8
COLUMNS
 62
1
 10
551829.5713
 20
0.0000
 30
0.0000
 11
551829.5713
 21
49937.2116
 31
0.0000
  0
LINE
  8
COLUMNS
 62
1
 10
542440.1229
 20
0.0000
 30
0.0000
 11
542440.1229
 21
60480.9704
 31
0.0000
  0
LINE
  8
COLUMNS
 62
1
 10
527192.4860
 20
0.0000
 30
0.0000
 11
527192.4860
 21
67526.0848
 31
0.0000
  0
LINE
  8
COLUMNS
 62
1
 10
506672.6189
 20
0.0000
 30
0.0000
 11
506672.6189
 21
70000.0000
 31
0.0000
  0
LINE
  8
COLUMNS
 62
1
 10
481669.0884
 20
0.0000
 30
0.0000
 11
481669.0884
 21
67526.0848
 31
0.0000
  0
LINE
  8
COLUMNS
 62
1
 10
453142.7663
 20
0.0000
 30
0.0000
 11
453142.7663
 21
60480.9704
 31
0.0000
  0
LINE
  8
COLUMNS
 62
1
 10
422189.9031
 20
0.0000
 30
0.0000
 11
422189.9031
 21
49937.2116
 31
0.0000
  0
LINE
  8
COLUMNS
 62
1
 10
390000.0000
 20
0.0000
 30
0.0000
 11
390000.0000
 21
37500.0000
 31
0.0000
  0
LINE
  8
COLUMNS
 62
1
 10
357810.0969
 20
0.0000
 30
0.0000
 11
357810.0969
 21
25062.7884
 31
0.0000
  0
LINE
  8
COLUMNS
 62
1
 10
326857.2337
 20
0.0000
 30
0.0000
 11
326857.2337
 21
14519.0296
 31
0.0000
  0
LINE
  8
COLUMNS
 62
1
 10
298330.9116
 20
0.0000
 30
0.0000
 11
298330.9116
 21
7473.9152
 31
0.0000
  0
LINE
  8
COLUMNS
 62
1
 10
273327.3811
 20
0.0000
 30
0.0000
 11
273327.3811
 21
5000.0000
 31
0.0000
  0
LINE
  8
COLUMNS
 62
1
 10
252807.5140
 20
0.0000
 30
0.0000
 11
252807.5140
 21
7473.9152
 31
0.0000
  0
LINE
  8
COLUMNS
 62
1
 10
237559.8771
 20
0.0000
 30
0.0000
 11
237559.8771
 21
14519.0296
 31
0.0000
  0
LINE
  8
COLUMNS
 62
1
 10
228170.4287
 20
0.0000
 30
0.0000
 11
228170.4287
 21
25062.7884
 31
0.0000
  0
LINE
  8
COLUMNS
 62
1
 10
225000.0000
 20
0.0000
 30
0.0000
 11
225000.0000
 21
37500.0000
 31
0.0000
  0
LINE
  8
COLUMNS
 62
1
 10
228170.4287
 20
0.0000
 30
0.0000
 11
228170.4287
 21
49937.2116
 31
0.0000
  0
LINE
  8
COLUMNS
 62
1
 10
237559.8771
 20
0.0000
 30
0.0000
 11
237559.8771
 21
60480.9704
 31
0.0000
  0
LINE
  8
COLUMNS
 62
1
 10
252807.5140
 20
0.0000
 30
0.0000
 11
252807.5140
 21
67526.0848
 31
0.0000
  0
LINE
  8
COLUMNS
 62
1
 10
273327.3811
 20
0.0000
 30
0.0000
 11
273327.3811
 21
70000.0000
 31
0.0000
  0
LINE
  8
COLUMNS
 62
1
 10
298330.9116
 20
0.0000
 30
0.0000
 11
298330.9116
 21
67526.0848
 31
0.0000
  0
LINE
  8
COLUMNS
 62
1
 10
326857.2337
 20
0.0000
 30
0.0000
 11
326857.2337
 21
60480.9704
 31
0.0000
  0
LINE
  8
COLUMNS
 62
1
 10
357810.0969
 20
0.0000
 30
0.0000
 11
357810.0969
 21
49937.2116
 31
0.0000
  0
LINE
  8
COLUMNS
 62
1
 10
390000.0000
 20
0.0000
 30
0.0000
 11
390000.0000
 21
37500.0000
 31
0.0000
  0
LINE
  8
COLUMNS
 62
1
 10
422189.9031
 20
0.0000
 30
0.0000
 11
422189.9031
 21
25062.7884
 31
0.0000
  0
LINE
  8
COLUMNS
 62
1
 10
453142.7663
 20
0.0000
 30
0.0000
 11
453142.7663
 21
14519.0296
 31
0.0000
  0
LINE
  8
COLUMNS
 62
1
 10
481669.0884
 20
0.0000
 30
0.0000
 11
481669.0884
 21
7473.9152
 31
0.0000
  0
LINE
  8
COLUMNS
 62
1
 10
506672.6189
 20
0.0000
 30
0.0000
 11
506672.6189
 21
5000.0000
 31
0.0000
  0
LINE
  8
COLUMNS
 62
1
 10
527192.4860
 20
0.0000
 30
0.0000
 11
527192.4860
 21
7473.9152
 31
0.0000
  0
LINE
  8
COLUMNS
 62
1
 10
542440.1229
 20
0.0000
 30
0.0000
 11
542440.1229
 21
14519.0296
 31
0.0000
  0
LINE
  8
COLUMNS
 62
1
 10
551829.5713
 20
0.0000
 30
0.0000
 11
551829.5713
 21
25062.7884
 31
0.0000
  0
LINE
  8
BEAMS_OUTER
 62
2
 10
555000.0000
 20
37500.0000
 30
0.0000
 11
551829.5713
 21
49937.2116
 31
0.0000
  0
LINE
  8
BEAMS_OUTER
 62
2
 10
551829.5713
 20
49937.2116
 30
0.0000
 11
542440.1229
 21
60480.9704
 31
0.0000
  0
LINE
  8
BEAMS_OUTER
 62
2
 10
542440.1229
 20
60480.9704
 30
0.0000
 11
527192.4860
 21
67526.0848
 31
0.0000
  0
LINE
  8
BEAMS_OUTER
 62
2
 10
527192.4860
 20
67526.0848
 30
0.0000
 11
506672.6189
 21
70000.0000
 31
0.0000
  0
LINE
  8
BEAMS_OUTER
 62
2
 10
506672.6189
 20
70000.0000
 30
0.0000
 11
481669.0884
 21
67526.0848
 31
0.0000
  0
LINE
  8
BEAMS_OUTER
 62
2
 10
481669.0884
 20
67526.0848
 30
0.0000
 11
453142.7663
 21
60480.9704
 31
0.0000
  0
LINE
  8
BEAMS_OUTER
 62
2
 10
453142.7663
 20
60480.9704
 30
0.0000
 11
422189.9031
 21
49937.2116
 31
0.0000
  0
LINE
  8
BEAMS_OUTER
 62
2
 10
422189.9031
 20
49937.2116
 30
0.0000
 11
390000.0000
 21
37500.0000
 31
0.0000
  0
LINE
  8
BEAMS_OUTER
 62
2
 10
390000.0000
 20
37500.0000
 30
0.0000
 11
357810.0969
 21
25062.7884
 31
0.0000
  0
LINE
  8
BEAMS_OUTER
 62
2
 10
357810.0969
 20
25062.7884
 30
0.0000
 11
326857.2337
 21
14519.0296
 31
0.0000
  0
LINE
  8
BEAMS_OUTER
 62
2
 10
326857.2337
 20
14519.0296
 30
0.0000
 11
298330.9116
 21
7473.9152
 31
0.0000
  0
LINE
  8
BEAMS_OUTER
 62
2
 10
298330.9116
 20
7473.9152
 30
0.0000
 11
273327.3811
 21
5000.0000
 31
0.0000
  0
LINE
  8
BEAMS_OUTER
 62
2
 10
273327.3811
 20
5000.0000
 30
0.0000
 11
252807.5140
 21
7473.9152
 31
0.0000
  0
LINE
  8
BEAMS_OUTER
 62
2
 10
252807.5140
 20
7473.9152
 30
0.0000
 11
237559.8771
 21
14519.0296
 31
0.0000
  0
LINE
  8
BEAMS_OUTER
 62
2
 10
237559.8771
 20
14519.0296
 30
0.0000
 11
228170.4287
 21
25062.7884
 31
0.0000
  0
LINE
  8
BEAMS_OUTER
 62
2
 10
228170.4287
 20
25062.7884
 30
0.0000
 11
225000.0000
 21
37500.0000
 31
0.0000
  0
LINE
  8
BEAMS_OUTER
 62
2
 10
225000.0000
 20
37500.0000
 30
0.0000
 11
228170.4287
 21
49937.2116
 31
0.0000
  0
LINE
  8
BEAMS_OUTER
 62
2
 10
228170.4287
 20
49937.2116
 30
0.0000
 11
237559.8771
 21
60480.9704
 31
0.0000
  0
LINE
  8
BEAMS_OUTER
 62
2
 10
237559.8771
 20
60480.9704
 30
0.0000
 11
252807.5140
 21
67526.0848
 31
0.0000
  0
LINE
  8
BEAMS_OUTER
 62
2
 10
252807.5140
 20
67526.0848
 30
0.0000
 11
273327.3811
 21
70000.0000
 31
0.0000
  0
LINE
  8
BEAMS_OUTER
 62
2
 10
273327.3811
 20
70000.0000
 30
0.0000
 11
298330.9116
 21
67526.0848
 31
0.0000
  0
LINE
  8
BEAMS_OUTER
 62
2
 10
298330.9116
 20
67526.0848
 30
0.0000
 11
326857.2337
 21
60480.9704
 31
0.0000
  0
LINE
  8
BEAMS_OUTER
 62
2
 10
326857.2337
 20
60480.9704
 30
0.0000
 11
357810.0969
 21
49937.2116
 31
0.0000
  0
LINE
  8
BEAMS_OUTER
 62
2
 10
357810.0969
 20
49937.2116
 30
0.0000
 11
390000.0000
 21
37500.0000
 31
0.0000
  0
LINE
  8
BEAMS_OUTER
 62
2
 10
390000.0000
 20
37500.0000
 30
0.0000
 11
422189.9031
 21
25062.7884
 31
0.0000
  0
LINE
  8
BEAMS_OUTER
 62
2
 10
422189.9031
 20
25062.7884
 30
0.0000
 11
453142.7663
 21
14519.0296
 31
0.0000
  0
LINE
  8
BEAMS_OUTER
 62
2
 10
453142.7663
 20
14519.0296
 30
0.0000
 11
481669.0884
 21
7473.9152
 31
0.0000
  0
LINE
  8
BEAMS_OUTER
 62
2
 10
481669.0884
 20
7473.9152
 30
0.0000
 11
506672.6189
 21
5000.0000
 31
0.0000
  0
LINE
  8
BEAMS_OUTER
 62
2
 10
506672.6189
 20
5000.0000
 30
0.0000
 11
527192.4860
 21
7473.9152
 31
0.0000
  0
LINE
  8
BEAMS_OUTER
 62
2
 10
527192.4860
 20
7473.9152
 30
0.0000
 11
542440.1229
 21
14519.0296
 31
0.0000
  0
LINE
  8
BEAMS_OUTER
 62
2
 10
542440.1229
 20
14519.0296
 30
0.0000
 11
551829.5713
 21
25062.7884
 31
0.0000
  0
LINE
  8
BEAMS_OUTER
 62
2
 10
551829.5713
 20
25062.7884
 30
0.0000
 11
555000.0000
 21
37500.0000
 31
0.0000
  0
LINE
  8
BRACING
 62
4
 10
555000.0000
 20
0.0000
 30
0.0000
 11
551829.5713
 21
49937.2116
 31
0.0000
  0
LINE
  8
BRACING
 62
4
 10
551829.5713
 20
0.0000
 30
0.0000
 11
555000.0000
 21
37500.0000
 31
0.0000
  0
LINE
  8
BRACING
 62
4
 10
506672.6189
 20
0.0000
 30
0.0000
 11
481669.0884
 21
67526.0848
 31
0.0000
  0
LINE
  8
BRACING
 62
4
 10
481669.0884
 20
0.0000
 30
0.0000
 11
506672.6189
 21
70000.0000
 31
0.0000
  0
LINE
  8
BRACING
 62
4
 10
390000.0000
 20
0.0000
 30
0.0000
 11
357810.0969
 21
25062.7884
 31
0.0000
  0
LINE
  8
BRACING
 62
4
 10
357810.0969
 20
0.0000
 30
0.0000
 11
390000.0000
 21
37500.0000
 31
0.0000
  0
LINE
  8
BRACING
 62
4
 10
273327.3811
 20
0.0000
 30
0.0000
 11
252807.5140
 21
7473.9152
 31
0.0000
  0
LINE
  8
BRACING
 62
4
 10
252807.5140
 20
0.0000
 30
0.0000
 11
273327.3811
 21
5000.0000
 31
0.0000
  0
LINE
  8
BRACING
 62
4
 10
225000.0000
 20
0.0000
 30
0.0000
 11
228170.4287
 21
49937.2116
 31
0.0000
  0
LINE
  8
BRACING
 62
4
 10
228170.4287
 20
0.0000
 30
0.0000
 11
225000.0000
 21
37500.0000
 31
0.0000
  0
LINE
  8
BRACING
 62
4
 10
273327.3811
 20
0.0000
 30
0.0000
 11
298330.9116
 21
67526.0848
 31
0.0000
  0
LINE
  8
BRACING
 62
4
 10
298330.9116
 20
0.0000
 30
0.0000
 11
273327.3811
 21
70000.0000
 31
0.0000
  0
LINE
  8
BRACING
 62
4
 10
390000.0000
 20
0.0000
 30
0.0000
 11
422189.9031
 21
25062.7884
 31
0.0000
  0
LINE
  8
BRACING
 62
4
 10
422189.9031
 20
0.0000
 30
0.0000
 11
390000.0000
 21
37500.0000
 31
0.0000
  0
LINE
  8
BRACING
 62
4
 10
506672.6189
 20
0.0000
 30
0.0000
 11
527192.4860
 21
7473.9152
 31
0.0000
  0
LINE
  8
BRACING
 62
4
 10
527192.4860
 20
0.0000
 30
0.0000
 11
506672.6189
 21
5000.0000
 31
0.0000
  0
LINE
  8
DIMENSIONS
 62
3
 10
225000.0000
 20
-10000.0000
 30
0.0000
 11
555000.0000
 21
-10000.0000
 31
0.0000
  0
LINE
  8
DIMENSIONS
 62
3
 10
225000.0000
 20
-12000.0000
 30
0.0000
 11
225000.0000
 21
-8000.0000
 31
0.0000
  0
LINE
  8
DIMENSIONS
 62
3
 10
555000.0000
 20
-12000.0000
 30
0.0000
 11
555000.0000
 21
-8000.0000
 31
0.0000
  0
TEXT
  8
DIMENSIONS
 62
3
 10
375000.0000
 20
-18000.0000
 30
0.0000
 40
4500.0000
  1
Ø330000 (330m DIA)
 72
1
 11
375000.0000
 21
-18000.0000
 31
0.0000
  0
LINE
  8
DIMENSIONS
 62
3
 10
567000.0000
 20
0.0000
 30
0.0000
 11
567000.0000
 21
70000.0000
 31
0.0000
  0
LINE
  8
DIMENSIONS
 62
3
 10
565000.0000
 20
0.0000
 30
0.0000
 11
569000.0000
 21
0.0000
 31
0.0000
  0
LINE
  8
DIMENSIONS
 62
3
 10
565000.0000
 20
70000.0000
 30
0.0000
 11
569000.0000
 21
70000.0000
 31
0.0000
  0
TEXT
  8
DIMENSIONS
 62
3
 10
571000.0000
 20
35000.0000
 30
0.0000
 40
4500.0000
  1
H=70000
 72
1
 11
571000.0000
 21
35000.0000
 31
0.0000
  0
TEXT
  8
SECTION_LABELS
 62
3
 10
-175000.0000
 20
-200000.0000
 30
0.0000
 40
8000.0000
  1
SECTION A-A  (THROUGH CENTRE)
 72
1
 11
-175000.0000
 21
-200000.0000
 31
0.0000
  0
TEXT
  8
SECTION_LABELS
 62
3
 10
-175000.0000
 20
-210000.0000
 30
0.0000
 40
5000.0000
  1
SHOWING INNER & OUTER RING COLUMNS
 72
1
 11
-175000.0000
 21
-210000.0000
 31
0.0000
  0
LINE
  8
LEVELS
 62
8
 10
-175000.0000
 20
-280000.0000
 30
0.0000
 11
175000.0000
 21
-280000.0000
 31
0.0000
  0
TEXT
  8
LEVELS
 62
5
 10
177000.0000
 20
-281500.0000
 30
0.0000
 40
3500.0000
  1
EL.±0.000
 72
1
 11
177000.0000
 21
-281500.0000
 31
0.0000
  0
LINE
  8
LEVELS
 62
8
 10
-175000.0000
 20
-275000.0000
 30
0.0000
 11
175000.0000
 21
-275000.0000
 31
0.0000
  0
TEXT
  8
LEVELS
 62
5
 10
177000.0000
 20
-276500.0000
 30
0.0000
 40
3000.0000
  1
EL.+5.000
 72
1
 11
177000.0000
 21
-276500.0000
 31
0.0000
  0
LINE
  8
LEVELS
 62
8
 10
-175000.0000
 20
-250000.0000
 30
0.0000
 11
175000.0000
 21
-250000.0000
 31
0.0000
  0
TEXT
  8
LEVELS
 62
5
 10
177000.0000
 20
-251500.0000
 30
0.0000
 40
3000.0000
  1
EL.+30.000
 72
1
 11
177000.0000
 21
-251500.0000
 31
0.0000
  0
LINE
  8
LEVELS
 62
8
 10
-175000.0000
 20
-245000.0000
 30
0.0000
 11
175000.0000
 21
-245000.0000
 31
0.0000
  0
TEXT
  8
LEVELS
 62
5
 10
177000.0000
 20
-246500.0000
 30
0.0000
 40
3000.0000
  1
EL.+35.000
 72
1
 11
177000.0000
 21
-246500.0000
 31
0.0000
  0
LINE
  8
LEVELS
 62
8
 10
-175000.0000
 20
-227500.0000
 30
0.0000
 11
175000.0000
 21
-227500.0000
 31
0.0000
  0
TEXT
  8
LEVELS
 62
5
 10
177000.0000
 20
-229000.0000
 30
0.0000
 40
3000.0000
  1
EL.+52.500
 72
1
 11
177000.0000
 21
-229000.0000
 31
0.0000
  0
LINE
  8
LEVELS
 62
8
 10
-175000.0000
 20
-210000.0000
 30
0.0000
 11
175000.0000
 21
-210000.0000
 31
0.0000
  0
TEXT
  8
LEVELS
 62
5
 10
177000.0000
 20
-211500.0000
 30
0.0000
 40
3000.0000
  1
EL.+70.000
 72
1
 11
177000.0000
 21
-211500.0000
 31
0.0000
  0
LINE
  8
COLUMNS
 62
1
 10
-165000.0000
 20
-280000.0000
 30
0.0000
 11
-165000.0000
 21
-227500.0000
 31
0.0000
  0
LINE
  8
SECTION_PROFILES
 62
3
 10
-168000.0000
 20
-275000.0000
 30
0.0000
 11
-162000.0000
 21
-275000.0000
 31
0.0000
  0
LINE
  8
SECTION_PROFILES
 62
3
 10
-165000.0000
 20
-278000.0000
 30
0.0000
 11
-165000.0000
 21
-272000.0000
 31
0.0000
  0
LINE
  8
SECTION_PROFILES
 62
3
 10
-168000.0000
 20
-245000.0000
 30
0.0000
 11
-162000.0000
 21
-245000.0000
 31
0.0000
  0
LINE
  8
SECTION_PROFILES
 62
3
 10
-165000.0000
 20
-248000.0000
 30
0.0000
 11
-165000.0000
 21
-242000.0000
 31
0.0000
  0
LINE
  8
SECTION_PROFILES
 62
3
 10
-168000.0000
 20
-227500.0000
 30
0.0000
 11
-162000.0000
 21
-227500.0000
 31
0.0000
  0
LINE
  8
SECTION_PROFILES
 62
3
 10
-165000.0000
 20
-230500.0000
 30
0.0000
 11
-165000.0000
 21
-224500.0000
 31
0.0000
  0
TEXT
  8
COLUMNS
 62
1
 10
-161000.0000
 20
-253750.0000
 30
0.0000
 40
3500.0000
  1
CHS 355.6x16
 72
1
 11
-161000.0000
 21
-253750.0000
 31
0.0000
  0
LINE
  8
COLUMNS
 62
1
 10
165000.0000
 20
-280000.0000
 30
0.0000
 11
165000.0000
 21
-227500.0000
 31
0.0000
  0
LINE
  8
SECTION_PROFILES
 62
3
 10
162000.0000
 20
-275000.0000
 30
0.0000
 11
168000.0000
 21
-275000.0000
 31
0.0000
  0
LINE
  8
SECTION_PROFILES
 62
3
 10
165000.0000
 20
-278000.0000
 30
0.0000
 11
165000.0000
 21
-272000.0000
 31
0.0000
  0
LINE
  8
SECTION_PROFILES
 62
3
 10
162000.0000
 20
-245000.0000
 30
0.0000
 11
168000.0000
 21
-245000.0000
 31
0.0000
  0
LINE
  8
SECTION_PROFILES
 62
3
 10
165000.0000
 20
-248000.0000
 30
0.0000
 11
165000.0000
 21
-242000.0000
 31
0.0000
  0
LINE
  8
SECTION_PROFILES
 62
3
 10
162000.0000
 20
-227500.0000
 30
0.0000
 11
168000.0000
 21
-227500.0000
 31
0.0000
  0
LINE
  8
SECTION_PROFILES
 62
3
 10
165000.0000
 20
-230500.0000
 30
0.0000
 11
165000.0000
 21
-224500.0000
 31
0.0000
  0
TEXT
  8
COLUMNS
 62
1
 10
169000.0000
 20
-253750.0000
 30
0.0000
 40
3500.0000
  1
CHS 355.6x16
 72
1
 11
169000.0000
 21
-253750.0000
 31
0.0000
  0
LINE
  8
COLUMNS
 62
1
 10
-100000.0000
 20
-275000.0000
 30
0.0000
 11
-100000.0000
 21
-245000.0000
 31
0.0000
  0
TEXT
  8
COLUMNS
 62
1
 10
-96000.0000
 20
-260000.0000
 30
0.0000
 40
3500.0000
  1
CHS 219.1x10
 72
1
 11
-96000.0000
 21
-260000.0000
 31
0.0000
  0
LINE
  8
COLUMNS
 62
1
 10
100000.0000
 20
-275000.0000
 30
0.0000
 11
100000.0000
 21
-245000.0000
 31
0.0000
  0
TEXT
  8
COLUMNS
 62
1
 10
104000.0000
 20
-260000.0000
 30
0.0000
 40
3500.0000
  1
CHS 219.1x10
 72
1
 11
104000.0000
 21
-260000.0000
 31
0.0000
  0
LINE
  8
BEAMS_OUTER
 62
2
 10
-165000.0000
 20
-227500.0000
 30
0.0000
 11
165000.0000
 21
-227500.0000
 31
0.0000
  0
TEXT
  8
BEAMS_OUTER
 62
2
 10
-30000.0000
 20
-222500.0000
 30
0.0000
 40
3500.0000
  1
UB 533x210x92 (TYP. OUTER RING BEAM)
 72
1
 11
-30000.0000
 21
-222500.0000
 31
0.0000
  0
LINE
  8
BEAMS_INNER
 62
2
 10
-100000.0000
 20
-245000.0000
 30
0.0000
 11
100000.0000
 21
-245000.0000
 31
0.0000
  0
TEXT
  8
BEAMS_INNER
 62
2
 10
-20000.0000
 20
-241000.0000
 30
0.0000
 40
3500.0000
  1
UB 406x178x67 (TYP. INNER RING BEAM)
 72
1
 11
-20000.0000
 21
-241000.0000
 31
0.0000
  0
LINE
  8
BEAMS_INNER
 62
2
 10
-100000.0000
 20
-275000.0000
 30
0.0000
 11
100000.0000
 21
-275000.0000
 31
0.0000
  0
LINE
  8
BRACING
 62
4
 10
-165000.0000
 20
-280000.0000
 30
0.0000
 11
-100000.0000
 21
-275000.0000
 31
0.0000
  0
LINE
  8
BRACING
 62
4
 10
165000.0000
 20
-280000.0000
 30
0.0000
 11
100000.0000
 21
-275000.0000
 31
0.0000
  0
LINE
  8
BRACING
 62
4
 10
-100000.0000
 20
-245000.0000
 30
0.0000
 11
-165000.0000
 21
-227500.0000
 31
0.0000
  0
LINE
  8
BRACING
 62
4
 10
100000.0000
 20
-245000.0000
 30
0.0000
 11
165000.0000
 21
-227500.0000
 31
0.0000
  0
TEXT
  8
BRACING
 62
4
 10
10000.0000
 20
-277500.0000
 30
0.0000
 40
3000.0000
  1
SHS 150x150x8 (TYP. BRACING)
 72
1
 11
10000.0000
 21
-277500.0000
 31
0.0000
  0
LINE
  8
LATTICE
 62
6
 10
-165000.0000
 20
-275000.0000
 30
0.0000
 11
-145000.0000
 21
-245000.0000
 31
0.0000
  0
LINE
  8
LATTICE
 62
6
 10
-145000.0000
 20
-275000.0000
 30
0.0000
 11
-125000.0000
 21
-245000.0000
 31
0.0000
  0
LINE
  8
LATTICE
 62
6
 10
-125000.0000
 20
-275000.0000
 30
0.0000
 11
-105000.0000
 21
-245000.0000
 31
0.0000
  0
LINE
  8
LATTICE
 62
6
 10
-105000.0000
 20
-275000.0000
 30
0.0000
 11
-85000.0000
 21
-245000.0000
 31
0.0000
  0
LINE
  8
LATTICE
 62
6
 10
-85000.0000
 20
-275000.0000
 30
0.0000
 11
-65000.0000
 21
-245000.0000
 31
0.0000
  0
LINE
  8
LATTICE
 62
6
 10
-65000.0000
 20
-275000.0000
 30
0.0000
 11
-45000.0000
 21
-245000.0000
 31
0.0000
  0
TEXT
  8
LATTICE
 62
6
 10
-90000.0000
 20
-270000.0000
 30
0.0000
 40
3000.0000
  1
EA 100x100x8 (TYP. LATTICE)
 72
1
 11
-90000.0000
 21
-270000.0000
 31
0.0000
  0
LINE
  8
CONNECTIONS
 62
1
 10
-171000.0000
 20
-281500.0000
 30
0.0000
 11
-159000.0000
 21
-281500.0000
 31
0.0000
  0
LINE
  8
CONNECTIONS
 62
1
 10
-171000.0000
 20
-281500.0000
 30
0.0000
 11
-171000.0000
 21
-279000.0000
 31
0.0000
  0
LINE
  8
CONNECTIONS
 62
1
 10
-159000.0000
 20
-281500.0000
 30
0.0000
 11
-159000.0000
 21
-279000.0000
 31
0.0000
  0
LINE
  8
CONNECTIONS
 62
1
 10
-106000.0000
 20
-281500.0000
 30
0.0000
 11
-94000.0000
 21
-281500.0000
 31
0.0000
  0
LINE
  8
CONNECTIONS
 62
1
 10
-106000.0000
 20
-281500.0000
 30
0.0000
 11
-106000.0000
 21
-279000.0000
 31
0.0000
  0
LINE
  8
CONNECTIONS
 62
1
 10
-94000.0000
 20
-281500.0000
 30
0.0000
 11
-94000.0000
 21
-279000.0000
 31
0.0000
  0
LINE
  8
CONNECTIONS
 62
1
 10
94000.0000
 20
-281500.0000
 30
0.0000
 11
106000.0000
 21
-281500.0000
 31
0.0000
  0
LINE
  8
CONNECTIONS
 62
1
 10
94000.0000
 20
-281500.0000
 30
0.0000
 11
94000.0000
 21
-279000.0000
 31
0.0000
  0
LINE
  8
CONNECTIONS
 62
1
 10
106000.0000
 20
-281500.0000
 30
0.0000
 11
106000.0000
 21
-279000.0000
 31
0.0000
  0
LINE
  8
CONNECTIONS
 62
1
 10
159000.0000
 20
-281500.0000
 30
0.0000
 11
171000.0000
 21
-281500.0000
 31
0.0000
  0
LINE
  8
CONNECTIONS
 62
1
 10
159000.0000
 20
-281500.0000
 30
0.0000
 11
159000.0000
 21
-279000.0000
 31
0.0000
  0
LINE
  8
CONNECTIONS
 62
1
 10
171000.0000
 20
-281500.0000
 30
0.0000
 11
171000.0000
 21
-279000.0000
 31
0.0000
  0
TEXT
  8
CONNECTIONS
 62
1
 10
-180000.0000
 20
-292000.0000
 30
0.0000
 40
3000.0000
  1
BASE PL. 500x500x30 + 4-M30 ANCHOR BOLTS
 72
1
 11
-180000.0000
 21
-292000.0000
 31
0.0000
  0
LINE
  8
DIMENSIONS
 62
3
 10
-165000.0000
 20
-305000.0000
 30
0.0000
 11
-100000.0000
 21
-305000.0000
 31
0.0000
  0
TEXT
  8
DIMENSIONS
 62
3
 10
-135000.0000
 20
-312000.0000
 30
0.0000
 40
3500.0000
  1
65000
 72
1
 11
-135000.0000
 21
-312000.0000
 31
0.0000
  0
LINE
  8
DIMENSIONS
 62
3
 10
-100000.0000
 20
-305000.0000
 30
0.0000
 11
100000.0000
 21
-305000.0000
 31
0.0000
  0
TEXT
  8
DIMENSIONS
 62
3
 10
-15000.0000
 20
-312000.0000
 30
0.0000
 40
3500.0000
  1
200000
 72
1
 11
-15000.0000
 21
-312000.0000
 31
0.0000
  0
LINE
  8
DIMENSIONS
 62
3
 10
100000.0000
 20
-305000.0000
 30
0.0000
 11
165000.0000
 21
-305000.0000
 31
0.0000
  0
TEXT
  8
DIMENSIONS
 62
3
 10
110000.0000
 20
-312000.0000
 30
0.0000
 40
3500.0000
  1
65000
 72
1
 11
110000.0000
 21
-312000.0000
 31
0.0000
  0
TEXT
  8
MEMBER_SCHEDULE
 62
3
 10
390000.0000
 20
-200000.0000
 30
0.0000
 40
8000.0000
  1
MEMBER SCHEDULE
 72
1
 11
390000.0000
 21
-200000.0000
 31
0.0000
  0
LINE
  8
MEMBER_SCHEDULE
 62
7
 10
390000.0000
 20
-212000.0000
 30
0.0000
 11
585000.0000
 21
-212000.0000
 31
0.0000
  0
LINE
  8
MEMBER_SCHEDULE
 62
7
 10
390000.0000
 20
-218000.0000
 30
0.0000
 11
585000.0000
 21
-218000.0000
 31
0.0000
  0
TEXT
  8
MEMBER_SCHEDULE
 62
7
 10
391000.0000
 20
-216000.0000
 30
0.0000
 40
3500.0000
  1
MARK
 72
1
 11
391000.0000
 21
-216000.0000
 31
0.0000
  0
TEXT
  8
MEMBER_SCHEDULE
 62
7
 10
416000.0000
 20
-216000.0000
 30
0.0000
 40
3500.0000
  1
TYPE
 72
1
 11
416000.0000
 21
-216000.0000
 31
0.0000
  0
TEXT
  8
MEMBER_SCHEDULE
 62
7
 10
436000.0000
 20
-216000.0000
 30
0.0000
 40
3500.0000
  1
SECTION
 72
1
 11
436000.0000
 21
-216000.0000
 31
0.0000
  0
TEXT
  8
MEMBER_SCHEDULE
 62
7
 10
476000.0000
 20
-216000.0000
 30
0.0000
 40
3500.0000
  1
GRADE
 72
1
 11
476000.0000
 21
-216000.0000
 31
0.0000
  0
TEXT
  8
MEMBER_SCHEDULE
 62
7
 10
491000.0000
 20
-216000.0000
 30
0.0000
 40
3500.0000
  1
QTY
 72
1
 11
491000.0000
 21
-216000.0000
 31
0.0000
  0
TEXT
  8
MEMBER_SCHEDULE
 62
7
 10
506000.0000
 20
-216000.0000
 30
0.0000
 40
3500.0000
  1
REMARKS
 72
1
 11
506000.0000
 21
-216000.0000
 31
0.0000
  0
LINE
  8
MEMBER_SCHEDULE
 62
7
 10
390000.0000
 20
-212000.0000
 30
0.0000
 11
390000.0000
 21
-290000.0000
 31
0.0000
  0
LINE
  8
MEMBER_SCHEDULE
 62
7
 10
415000.0000
 20
-212000.0000
 30
0.0000
 11
415000.0000
 21
-290000.0000
 31
0.0000
  0
LINE
  8
MEMBER_SCHEDULE
 62
7
 10
435000.0000
 20
-212000.0000
 30
0.0000
 11
435000.0000
 21
-290000.0000
 31
0.0000
  0
LINE
  8
MEMBER_SCHEDULE
 62
7
 10
475000.0000
 20
-212000.0000
 30
0.0000
 11
475000.0000
 21
-290000.0000
 31
0.0000
  0
LINE
  8
MEMBER_SCHEDULE
 62
7
 10
490000.0000
 20
-212000.0000
 30
0.0000
 11
490000.0000
 21
-290000.0000
 31
0.0000
  0
LINE
  8
MEMBER_SCHEDULE
 62
7
 10
505000.0000
 20
-212000.0000
 30
0.0000
 11
505000.0000
 21
-290000.0000
 31
0.0000
  0
LINE
  8
MEMBER_SCHEDULE
 62
7
 10
585000.0000
 20
-212000.0000
 30
0.0000
 11
585000.0000
 21
-290000.0000
 31
0.0000
  0
LINE
  8
MEMBER_SCHEDULE
 62
8
 10
390000.0000
 20
-218000.0000
 30
0.0000
 11
585000.0000
 21
-218000.0000
 31
0.0000
  0
TEXT
  8
MEMBER_SCHEDULE
 62
7
 10
390800.0000
 20
-216500.0000
 30
0.0000
 40
2800.0000
  1
C-O
 72
1
 11
390800.0000
 21
-216500.0000
 31
0.0000
  0
TEXT
  8
MEMBER_SCHEDULE
 62
7
 10
415800.0000
 20
-216500.0000
 30
0.0000
 40
2800.0000
  1
COLUMN
 72
1
 11
415800.0000
 21
-216500.0000
 31
0.0000
  0
TEXT
  8
MEMBER_SCHEDULE
 62
7
 10
435800.0000
 20
-216500.0000
 30
0.0000
 40
2800.0000
  1
CHS 355.6x16
 72
1
 11
435800.0000
 21
-216500.0000
 31
0.0000
  0
TEXT
  8
MEMBER_SCHEDULE
 62
7
 10
475800.0000
 20
-216500.0000
 30
0.0000
 40
2800.0000
  1
S355
 72
1
 11
475800.0000
 21
-216500.0000
 31
0.0000
  0
TEXT
  8
MEMBER_SCHEDULE
 62
7
 10
490800.0000
 20
-216500.0000
 30
0.0000
 40
2800.0000
  1
32
 72
1
 11
490800.0000
 21
-216500.0000
 31
0.0000
  0
TEXT
  8
MEMBER_SCHEDULE
 62
7
 10
505800.0000
 20
-216500.0000
 30
0.0000
 40
2800.0000
  1
OUTER RING COLUMNS - VARIABLE HT 35-70m
 72
1
 11
505800.0000
 21
-216500.0000
 31
0.0000
  0
LINE
  8
MEMBER_SCHEDULE
 62
8
 10
390000.0000
 20
-224000.0000
 30
0.0000
 11
585000.0000
 21
-224000.0000
 31
0.0000
  0
TEXT
  8
MEMBER_SCHEDULE
 62
7
 10
390800.0000
 20
-222500.0000
 30
0.0000
 40
2800.0000
  1
C-I
 72
1
 11
390800.0000
 21
-222500.0000
 31
0.0000
  0
TEXT
  8
MEMBER_SCHEDULE
 62
7
 10
415800.0000
 20
-222500.0000
 30
0.0000
 40
2800.0000
  1
COLUMN
 72
1
 11
415800.0000
 21
-222500.0000
 31
0.0000
  0
TEXT
  8
MEMBER_SCHEDULE
 62
7
 10
435800.0000
 20
-222500.0000
 30
0.0000
 40
2800.0000
  1
CHS 219.1x10
 72
1
 11
435800.0000
 21
-222500.0000
 31
0.0000
  0
TEXT
  8
MEMBER_SCHEDULE
 62
7
 10
475800.0000
 20
-222500.0000
 30
0.0000
 40
2800.0000
  1
S355
 72
1
 11
475800.0000
 21
-222500.0000
 31
0.0000
  0
TEXT
  8
MEMBER_SCHEDULE
 62
7
 10
490800.0000
 20
-222500.0000
 30
0.0000
 40
2800.0000
  1
16
 72
1
 11
490800.0000
 21
-222500.0000
 31
0.0000
  0
TEXT
  8
MEMBER_SCHEDULE
 62
7
 10
505800.0000
 20
-222500.0000
 30
0.0000
 40
2800.0000
  1
INNER RING COLUMNS - HT=25m
 72
1
 11
505800.0000
 21
-222500.0000
 31
0.0000
  0
LINE
  8
MEMBER_SCHEDULE
 62
8
 10
390000.0000
 20
-230000.0000
 30
0.0000
 11
585000.0000
 21
-230000.0000
 31
0.0000
  0
TEXT
  8
MEMBER_SCHEDULE
 62
7
 10
390800.0000
 20
-228500.0000
 30
0.0000
 40
2800.0000
  1
B-OR
 72
1
 11
390800.0000
 21
-228500.0000
 31
0.0000
  0
TEXT
  8
MEMBER_SCHEDULE
 62
7
 10
415800.0000
 20
-228500.0000
 30
0.0000
 40
2800.0000
  1
BEAM
 72
1
 11
415800.0000
 21
-228500.0000
 31
0.0000
  0
TEXT
  8
MEMBER_SCHEDULE
 62
7
 10
435800.0000
 20
-228500.0000
 30
0.0000
 40
2800.0000
  1
UB 533x210x92
 72
1
 11
435800.0000
 21
-228500.0000
 31
0.0000
  0
TEXT
  8
MEMBER_SCHEDULE
 62
7
 10
475800.0000
 20
-228500.0000
 30
0.0000
 40
2800.0000
  1
S355
 72
1
 11
475800.0000
 21
-228500.0000
 31
0.0000
  0
TEXT
  8
MEMBER_SCHEDULE
 62
7
 10
490800.0000
 20
-228500.0000
 30
0.0000
 40
2800.0000
  1
32
 72
1
 11
490800.0000
 21
-228500.0000
 31
0.0000
  0
TEXT
  8
MEMBER_SCHEDULE
 62
7
 10
505800.0000
 20
-228500.0000
 30
0.0000
 40
2800.0000
  1
OUTER RING BEAMS - CURVED
 72
1
 11
505800.0000
 21
-228500.0000
 31
0.0000
  0
LINE
  8
MEMBER_SCHEDULE
 62
8
 10
390000.0000
 20
-236000.0000
 30
0.0000
 11
585000.0000
 21
-236000.0000
 31
0.0000
  0
TEXT
  8
MEMBER_SCHEDULE
 62
7
 10
390800.0000
 20
-234500.0000
 30
0.0000
 40
2800.0000
  1
B-IR
 72
1
 11
390800.0000
 21
-234500.0000
 31
0.0000
  0
TEXT
  8
MEMBER_SCHEDULE
 62
7
 10
415800.0000
 20
-234500.0000
 30
0.0000
 40
2800.0000
  1
BEAM
 72
1
 11
415800.0000
 21
-234500.0000
 31
0.0000
  0
TEXT
  8
MEMBER_SCHEDULE
 62
7
 10
435800.0000
 20
-234500.0000
 30
0.0000
 40
2800.0000
  1
UB 406x178x67
 72
1
 11
435800.0000
 21
-234500.0000
 31
0.0000
  0
TEXT
  8
MEMBER_SCHEDULE
 62
7
 10
475800.0000
 20
-234500.0000
 30
0.0000
 40
2800.0000
  1
S355
 72
1
 11
475800.0000
 21
-234500.0000
 31
0.0000
  0
TEXT
  8
MEMBER_SCHEDULE
 62
7
 10
490800.0000
 20
-234500.0000
 30
0.0000
 40
2800.0000
  1
16
 72
1
 11
490800.0000
 21
-234500.0000
 31
0.0000
  0
TEXT
  8
MEMBER_SCHEDULE
 62
7
 10
505800.0000
 20
-234500.0000
 30
0.0000
 40
2800.0000
  1
INNER RING BEAMS
 72
1
 11
505800.0000
 21
-234500.0000
 31
0.0000
  0
LINE
  8
MEMBER_SCHEDULE
 62
8
 10
390000.0000
 20
-242000.0000
 30
0.0000
 11
585000.0000
 21
-242000.0000
 31
0.0000
  0
TEXT
  8
MEMBER_SCHEDULE
 62
7
 10
390800.0000
 20
-240500.0000
 30
0.0000
 40
2800.0000
  1
B-LR
 72
1
 11
390800.0000
 21
-240500.0000
 31
0.0000
  0
TEXT
  8
MEMBER_SCHEDULE
 62
7
 10
415800.0000
 20
-240500.0000
 30
0.0000
 40
2800.0000
  1
BEAM
 72
1
 11
415800.0000
 21
-240500.0000
 31
0.0000
  0
TEXT
  8
MEMBER_SCHEDULE
 62
7
 10
435800.0000
 20
-240500.0000
 30
0.0000
 40
2800.0000
  1
UB 356x171x57
 72
1
 11
435800.0000
 21
-240500.0000
 31
0.0000
  0
TEXT
  8
MEMBER_SCHEDULE
 62
7
 10
475800.0000
 20
-240500.0000
 30
0.0000
 40
2800.0000
  1
S355
 72
1
 11
475800.0000
 21
-240500.0000
 31
0.0000
  0
TEXT
  8
MEMBER_SCHEDULE
 62
7
 10
490800.0000
 20
-240500.0000
 30
0.0000
 40
2800.0000
  1
16
 72
1
 11
490800.0000
 21
-240500.0000
 31
0.0000
  0
TEXT
  8
MEMBER_SCHEDULE
 62
7
 10
505800.0000
 20
-240500.0000
 30
0.0000
 40
2800.0000
  1
LOWER RING BEAMS @EL+5.000
 72
1
 11
505800.0000
 21
-240500.0000
 31
0.0000
  0
LINE
  8
MEMBER_SCHEDULE
 62
8
 10
390000.0000
 20
-248000.0000
 30
0.0000
 11
585000.0000
 21
-248000.0000
 31
0.0000
  0
TEXT
  8
MEMBER_SCHEDULE
 62
7
 10
390800.0000
 20
-246500.0000
 30
0.0000
 40
2800.0000
  1
B-RA
 72
1
 11
390800.0000
 21
-246500.0000
 31
0.0000
  0
TEXT
  8
MEMBER_SCHEDULE
 62
7
 10
415800.0000
 20
-246500.0000
 30
0.0000
 40
2800.0000
  1
BEAM
 72
1
 11
415800.0000
 21
-246500.0000
 31
0.0000
  0
TEXT
  8
MEMBER_SCHEDULE
 62
7
 10
435800.0000
 20
-246500.0000
 30
0.0000
 40
2800.0000
  1
UB 305x165x46
 72
1
 11
435800.0000
 21
-246500.0000
 31
0.0000
  0
TEXT
  8
MEMBER_SCHEDULE
 62
7
 10
475800.0000
 20
-246500.0000
 30
0.0000
 40
2800.0000
  1
S355
 72
1
 11
475800.0000
 21
-246500.0000
 31
0.0000
  0
TEXT
  8
MEMBER_SCHEDULE
 62
7
 10
490800.0000
 20
-246500.0000
 30
0.0000
 40
2800.0000
  1
16
 72
1
 11
490800.0000
 21
-246500.0000
 31
0.0000
  0
TEXT
  8
MEMBER_SCHEDULE
 62
7
 10
505800.0000
 20
-246500.0000
 30
0.0000
 40
2800.0000
  1
RADIAL BEAMS (INNER TO OUTER)
 72
1
 11
505800.0000
 21
-246500.0000
 31
0.0000
  0
LINE
  8
MEMBER_SCHEDULE
 62
8
 10
390000.0000
 20
-254000.0000
 30
0.0000
 11
585000.0000
 21
-254000.0000
 31
0.0000
  0
TEXT
  8
MEMBER_SCHEDULE
 62
7
 10
390800.0000
 20
-252500.0000
 30
0.0000
 40
2800.0000
  1
BR-1
 72
1
 11
390800.0000
 21
-252500.0000
 31
0.0000
  0
TEXT
  8
MEMBER_SCHEDULE
 62
7
 10
415800.0000
 20
-252500.0000
 30
0.0000
 40
2800.0000
  1
BRACE
 72
1
 11
415800.0000
 21
-252500.0000
 31
0.0000
  0
TEXT
  8
MEMBER_SCHEDULE
 62
7
 10
435800.0000
 20
-252500.0000
 30
0.0000
 40
2800.0000
  1
SHS 150x150x8
 72
1
 11
435800.0000
 21
-252500.0000
 31
0.0000
  0
TEXT
  8
MEMBER_SCHEDULE
 62
7
 10
475800.0000
 20
-252500.0000
 30
0.0000
 40
2800.0000
  1
S355
 72
1
 11
475800.0000
 21
-252500.0000
 31
0.0000
  0
TEXT
  8
MEMBER_SCHEDULE
 62
7
 10
490800.0000
 20
-252500.0000
 30
0.0000
 40
2800.0000
  1
24
 72
1
 11
490800.0000
 21
-252500.0000
 31
0.0000
  0
TEXT
  8
MEMBER_SCHEDULE
 62
7
 10
505800.0000
 20
-252500.0000
 30
0.0000
 40
2800.0000
  1
VERTICAL BRACING (X-BRACING)
 72
1
 11
505800.0000
 21
-252500.0000
 31
0.0000
  0
LINE
  8
MEMBER_SCHEDULE
 62
8
 10
390000.0000
 20
-260000.0000
 30
0.0000
 11
585000.0000
 21
-260000.0000
 31
0.0000
  0
TEXT
  8
MEMBER_SCHEDULE
 62
7
 10
390800.0000
 20
-258500.0000
 30
0.0000
 40
2800.0000
  1
BR-2
 72
1
 11
390800.0000
 21
-258500.0000
 31
0.0000
  0
TEXT
  8
MEMBER_SCHEDULE
 62
7
 10
415800.0000
 20
-258500.0000
 30
0.0000
 40
2800.0000
  1
BRACE
 72
1
 11
415800.0000
 21
-258500.0000
 31
0.0000
  0
TEXT
  8
MEMBER_SCHEDULE
 62
7
 10
435800.0000
 20
-258500.0000
 30
0.0000
 40
2800.0000
  1
SHS 120x120x6
 72
1
 11
435800.0000
 21
-258500.0000
 31
0.0000
  0
TEXT
  8
MEMBER_SCHEDULE
 62
7
 10
475800.0000
 20
-258500.0000
 30
0.0000
 40
2800.0000
  1
S355
 72
1
 11
475800.0000
 21
-258500.0000
 31
0.0000
  0
TEXT
  8
MEMBER_SCHEDULE
 62
7
 10
490800.0000
 20
-258500.0000
 30
0.0000
 40
2800.0000
  1
16
 72
1
 11
490800.0000
 21
-258500.0000
 31
0.0000
  0
TEXT
  8
MEMBER_SCHEDULE
 62
7
 10
505800.0000
 20
-258500.0000
 30
0.0000
 40
2800.0000
  1
HORIZONTAL BRACING
 72
1
 11
505800.0000
 21
-258500.0000
 31
0.0000
  0
LINE
  8
MEMBER_SCHEDULE
 62
8
 10
390000.0000
 20
-266000.0000
 30
0.0000
 11
585000.0000
 21
-266000.0000
 31
0.0000
  0
TEXT
  8
MEMBER_SCHEDULE
 62
7
 10
390800.0000
 20
-264500.0000
 30
0.0000
 40
2800.0000
  1
LA-1
 72
1
 11
390800.0000
 21
-264500.0000
 31
0.0000
  0
TEXT
  8
MEMBER_SCHEDULE
 62
7
 10
415800.0000
 20
-264500.0000
 30
0.0000
 40
2800.0000
  1
LATT
 72
1
 11
415800.0000
 21
-264500.0000
 31
0.0000
  0
TEXT
  8
MEMBER_SCHEDULE
 62
7
 10
435800.0000
 20
-264500.0000
 30
0.0000
 40
2800.0000
  1
EA 100x100x8
 72
1
 11
435800.0000
 21
-264500.0000
 31
0.0000
  0
TEXT
  8
MEMBER_SCHEDULE
 62
7
 10
475800.0000
 20
-264500.0000
 30
0.0000
 40
2800.0000
  1
S355
 72
1
 11
475800.0000
 21
-264500.0000
 31
0.0000
  0
TEXT
  8
MEMBER_SCHEDULE
 62
7
 10
490800.0000
 20
-264500.0000
 30
0.0000
 40
2800.0000
  1
192
 72
1
 11
490800.0000
 21
-264500.0000
 31
0.0000
  0
TEXT
  8
MEMBER_SCHEDULE
 62
7
 10
505800.0000
 20
-264500.0000
 30
0.0000
 40
2800.0000
  1
LATTICE DIAGONALS
 72
1
 11
505800.0000
 21
-264500.0000
 31
0.0000
  0
LINE
  8
MEMBER_SCHEDULE
 62
8
 10
390000.0000
 20
-272000.0000
 30
0.0000
 11
585000.0000
 21
-272000.0000
 31
0.0000
  0
TEXT
  8
MEMBER_SCHEDULE
 62
7
 10
390800.0000
 20
-270500.0000
 30
0.0000
 40
2800.0000
  1
LA-2
 72
1
 11
390800.0000
 21
-270500.0000
 31
0.0000
  0
TEXT
  8
MEMBER_SCHEDULE
 62
7
 10
415800.0000
 20
-270500.0000
 30
0.0000
 40
2800.0000
  1
LATT
 72
1
 11
415800.0000
 21
-270500.0000
 31
0.0000
  0
TEXT
  8
MEMBER_SCHEDULE
 62
7
 10
435800.0000
 20
-270500.0000
 30
0.0000
 40
2800.0000
  1
EA 80x80x6
 72
1
 11
435800.0000
 21
-270500.0000
 31
0.0000
  0
TEXT
  8
MEMBER_SCHEDULE
 62
7
 10
475800.0000
 20
-270500.0000
 30
0.0000
 40
2800.0000
  1
S355
 72
1
 11
475800.0000
 21
-270500.0000
 31
0.0000
  0
TEXT
  8
MEMBER_SCHEDULE
 62
7
 10
490800.0000
 20
-270500.0000
 30
0.0000
 40
2800.0000
  1
96
 72
1
 11
490800.0000
 21
-270500.0000
 31
0.0000
  0
TEXT
  8
MEMBER_SCHEDULE
 62
7
 10
505800.0000
 20
-270500.0000
 30
0.0000
 40
2800.0000
  1
LATTICE VERTICALS
 72
1
 11
505800.0000
 21
-270500.0000
 31
0.0000
  0
LINE
  8
MEMBER_SCHEDULE
 62
8
 10
390000.0000
 20
-278000.0000
 30
0.0000
 11
585000.0000
 21
-278000.0000
 31
0.0000
  0
TEXT
  8
MEMBER_SCHEDULE
 62
7
 10
390800.0000
 20
-276500.0000
 30
0.0000
 40
2800.0000
  1
BP-1
 72
1
 11
390800.0000
 21
-276500.0000
 31
0.0000
  0
TEXT
  8
MEMBER_SCHEDULE
 62
7
 10
415800.0000
 20
-276500.0000
 30
0.0000
 40
2800.0000
  1
BASE
 72
1
 11
415800.0000
 21
-276500.0000
 31
0.0000
  0
TEXT
  8
MEMBER_SCHEDULE
 62
7
 10
435800.0000
 20
-276500.0000
 30
0.0000
 40
2800.0000
  1
PL 500x500x30
 72
1
 11
435800.0000
 21
-276500.0000
 31
0.0000
  0
TEXT
  8
MEMBER_SCHEDULE
 62
7
 10
475800.0000
 20
-276500.0000
 30
0.0000
 40
2800.0000
  1
S355
 72
1
 11
475800.0000
 21
-276500.0000
 31
0.0000
  0
TEXT
  8
MEMBER_SCHEDULE
 62
7
 10
490800.0000
 20
-276500.0000
 30
0.0000
 40
2800.0000
  1
32
 72
1
 11
490800.0000
 21
-276500.0000
 31
0.0000
  0
TEXT
  8
MEMBER_SCHEDULE
 62
7
 10
505800.0000
 20
-276500.0000
 30
0.0000
 40
2800.0000
  1
OUTER COL BASE PLATE
 72
1
 11
505800.0000
 21
-276500.0000
 31
0.0000
  0
LINE
  8
MEMBER_SCHEDULE
 62
8
 10
390000.0000
 20
-284000.0000
 30
0.0000
 11
585000.0000
 21
-284000.0000
 31
0.0000
  0
TEXT
  8
MEMBER_SCHEDULE
 62
7
 10
390800.0000
 20
-282500.0000
 30
0.0000
 40
2800.0000
  1
BP-2
 72
1
 11
390800.0000
 21
-282500.0000
 31
0.0000
  0
TEXT
  8
MEMBER_SCHEDULE
 62
7
 10
415800.0000
 20
-282500.0000
 30
0.0000
 40
2800.0000
  1
BASE
 72
1
 11
415800.0000
 21
-282500.0000
 31
0.0000
  0
TEXT
  8
MEMBER_SCHEDULE
 62
7
 10
435800.0000
 20
-282500.0000
 30
0.0000
 40
2800.0000
  1
PL 350x350x25
 72
1
 11
435800.0000
 21
-282500.0000
 31
0.0000
  0
TEXT
  8
MEMBER_SCHEDULE
 62
7
 10
475800.0000
 20
-282500.0000
 30
0.0000
 40
2800.0000
  1
S355
 72
1
 11
475800.0000
 21
-282500.0000
 31
0.0000
  0
TEXT
  8
MEMBER_SCHEDULE
 62
7
 10
490800.0000
 20
-282500.0000
 30
0.0000
 40
2800.0000
  1
16
 72
1
 11
490800.0000
 21
-282500.0000
 31
0.0000
  0
TEXT
  8
MEMBER_SCHEDULE
 62
7
 10
505800.0000
 20
-282500.0000
 30
0.0000
 40
2800.0000
  1
INNER COL BASE PLATE
 72
1
 11
505800.0000
 21
-282500.0000
 31
0.0000
  0
LINE
  8
MEMBER_SCHEDULE
 62
7
 10
390000.0000
 20
-290000.0000
 30
0.0000
 11
585000.0000
 21
-290000.0000
 31
0.0000
  0
TEXT
  8
SECTION_LABELS
 62
3
 10
0.0000
 20
-480000.0000
 30
0.0000
 40
8000.0000
  1
CONNECTION DETAILS
 72
1
 11
0.0000
 21
-480000.0000
 31
0.0000
  0
TEXT
  8
SECTION_LABELS
 62
3
 10
10000.0000
 20
-539400.0000
 30
0.0000
 40
4000.0000
  1
DET 1: COLUMN BASE PLATE (1:10)
 72
1
 11
10000.0000
 21
-539400.0000
 31
0.0000
  0
TEXT
  8
SECTION_LABELS
 62
7
 10
10000.0000
 20
-544600.0000
 30
0.0000
 40
3000.0000
  1
OUTER COL: CHS 355.6x16 ON PL.500x500x30
 72
1
 11
10000.0000
 21
-544600.0000
 31
0.0000
  0
LINE
  8
CONNECTIONS
 62
1
 10
10000.0000
 20
-550000.0000
 30
0.0000
 11
15000.0000
 21
-550000.0000
 31
0.0000
  0
LINE
  8
CONNECTIONS
 62
1
 10
15000.0000
 20
-550000.0000
 30
0.0000
 11
15000.0000
 21
-549700.0000
 31
0.0000
  0
LINE
  8
CONNECTIONS
 62
1
 10
15000.0000
 20
-549700.0000
 30
0.0000
 11
10000.0000
 21
-549700.0000
 31
0.0000
  0
LINE
  8
CONNECTIONS
 62
1
 10
10000.0000
 20
-549700.0000
 30
0.0000
 11
10000.0000
 21
-550000.0000
 31
0.0000
  0
TEXT
  8
CONNECTIONS
 62
1
 10
12000.0000
 20
-549950.0000
 30
0.0000
 40
2500.0000
  1
PL.500x500x30 S355
 72
1
 11
12000.0000
 21
-549950.0000
 31
0.0000
  0
LINE
  8
COLUMNS
 62
1
 10
10710.0000
 20
-549700.0000
 30
0.0000
 11
10710.0000
 21
-548000.0000
 31
0.0000
  0
LINE
  8
COLUMNS
 62
1
 10
14260.0000
 20
-549700.0000
 30
0.0000
 11
14260.0000
 21
-548000.0000
 31
0.0000
  0
TEXT
  8
COLUMNS
 62
1
 10
10900.0000
 20
-548500.0000
 30
0.0000
 40
2500.0000
  1
CHS 355.6x16
 72
1
 11
10900.0000
 21
-548500.0000
 31
0.0000
  0
CIRCLE
  8
CONNECTIONS_BOLTS
 62
2
 10
10800.0000
 20
-550500.0000
 30
0.0000
 40
200.0000
  0
LINE
  8
CONNECTIONS_BOLTS
 62
2
 10
10800.0000
 20
-551000.0000
 30
0.0000
 11
10800.0000
 21
-549700.0000
 31
0.0000
  0
CIRCLE
  8
CONNECTIONS_BOLTS
 62
2
 10
11500.0000
 20
-550500.0000
 30
0.0000
 40
200.0000
  0
LINE
  8
CONNECTIONS_BOLTS
 62
2
 10
11500.0000
 20
-551000.0000
 30
0.0000
 11
11500.0000
 21
-549700.0000
 31
0.0000
  0
CIRCLE
  8
CONNECTIONS_BOLTS
 62
2
 10
13500.0000
 20
-550500.0000
 30
0.0000
 40
200.0000
  0
LINE
  8
CONNECTIONS_BOLTS
 62
2
 10
13500.0000
 20
-551000.0000
 30
0.0000
 11
13500.0000
 21
-549700.0000
 31
0.0000
  0
CIRCLE
  8
CONNECTIONS_BOLTS
 62
2
 10
14200.0000
 20
-550500.0000
 30
0.0000
 40
200.0000
  0
LINE
  8
CONNECTIONS_BOLTS
 62
2
 10
14200.0000
 20
-551000.0000
 30
0.0000
 11
14200.0000
 21
-549700.0000
 31
0.0000
  0
TEXT
  8
CONNECTIONS_BOLTS
 62
2
 10
10800.0000
 20
-551300.0000
 30
0.0000
 40
2000.0000
  1
4-M30 ANCHOR BOLTS Gr.8.8 L=600
 72
1
 11
10800.0000
 21
-551300.0000
 31
0.0000
  0
LINE
  8
CONNECTIONS
 62
1
 10
11200.0000
 20
-549700.0000
 30
0.0000
 11
11200.0000
 21
-549200.0000
 31
0.0000
  0
LINE
  8
CONNECTIONS
 62
1
 10
11200.0000
 20
-549200.0000
 30
0.0000
 11
11400.0000
 21
-549700.0000
 31
0.0000
  0
LINE
  8
CONNECTIONS
 62
1
 10
13800.0000
 20
-549700.0000
 30
0.0000
 11
13800.0000
 21
-549200.0000
 31
0.0000
  0
LINE
  8
CONNECTIONS
 62
1
 10
13800.0000
 20
-549200.0000
 30
0.0000
 11
14000.0000
 21
-549700.0000
 31
0.0000
  0
TEXT
  8
CONNECTIONS
 62
1
 10
11300.0000
 20
-549400.0000
 30
0.0000
 40
2000.0000
  1
STIFF.PL.200x10 (x4)
 72
1
 11
11300.0000
 21
-549400.0000
 31
0.0000
  0
LINE
  8
CONNECTIONS
 62
8
 10
9800.0000
 20
-550000.0000
 30
0.0000
 11
15200.0000
 21
-550000.0000
 31
0.0000
  0
LINE
  8
CONNECTIONS
 62
8
 10
9800.0000
 20
-550250.0000
 30
0.0000
 11
15200.0000
 21
-550250.0000
 31
0.0000
  0
TEXT
  8
CONNECTIONS
 62
8
 10
12000.0000
 20
-550200.0000
 30
0.0000
 40
2000.0000
  1
75 GROUT (MIN.)
 72
1
 11
12000.0000
 21
-550200.0000
 31
0.0000
  0
TEXT
  8
WELD_SYMBOLS
 62
4
 10
10510.0000
 20
-549700.0000
 30
0.0000
 40
2500.0000
  1
12FW
 72
1
 11
10510.0000
 21
-549700.0000
 31
0.0000
  0
TEXT
  8
SECTION_LABELS
 62
3
 10
200000.0000
 20
-541000.0000
 30
0.0000
 40
4000.0000
  1
DET 2: BEAM-COLUMN MOMENT CONNECTION (1:8)
 72
1
 11
200000.0000
 21
-541000.0000
 31
0.0000
  0
TEXT
  8
SECTION_LABELS
 62
7
 10
200000.0000
 20
-546160.0000
 30
0.0000
 40
3000.0000
  1
UB 533x210x92 TO CHS 355.6x16
 72
1
 11
200000.0000
 21
-546160.0000
 31
0.0000
  0
LINE
  8
COLUMNS
 62
1
 10
200400.0000
 20
-550000.0000
 30
0.0000
 11
200400.0000
 21
-546000.0000
 31
0.0000
  0
LINE
  8
COLUMNS
 62
1
 10
203240.0000
 20
-550000.0000
 30
0.0000
 11
203240.0000
 21
-546000.0000
 31
0.0000
  0
TEXT
  8
COLUMNS
 62
1
 10
200800.0000
 20
-546800.0000
 30
0.0000
 40
2000.0000
  1
CHS 355.6x16
 72
1
 11
200800.0000
 21
-546800.0000
 31
0.0000
  0
LINE
  8
BEAMS_OUTER
 62
2
 10
203240.0000
 20
-548000.0000
 30
0.0000
 11
205640.0000
 21
-548000.0000
 31
0.0000
  0
LINE
  8
BEAMS_OUTER
 62
2
 10
203240.0000
 20
-549680.0000
 30
0.0000
 11
205640.0000
 21
-549680.0000
 31
0.0000
  0
LINE
  8
BEAMS_OUTER
 62
2
 10
203240.0000
 20
-548000.0000
 30
0.0000
 11
203240.0000
 21
-549680.0000
 31
0.0000
  0
TEXT
  8
BEAMS_OUTER
 62
2
 10
203640.0000
 20
-548800.0000
 30
0.0000
 40
2000.0000
  1
UB533x210x92
 72
1
 11
203640.0000
 21
-548800.0000
 31
0.0000
  0
LINE
  8
CONNECTIONS
 62
1
 10
203040.0000
 20
-547760.0000
 30
0.0000
 11
203040.0000
 21
-549920.0000
 31
0.0000
  0
TEXT
  8
CONNECTIONS
 62
1
 10
202760.0000
 20
-548800.0000
 30
0.0000
 40
2000.0000
  1
EP.580x210x20
 72
1
 11
202760.0000
 21
-548800.0000
 31
0.0000
  0
CIRCLE
  8
CONNECTIONS_BOLTS
 62
2
 10
203120.0000
 20
-548400.0000
 30
0.0000
 40
80.0000
  0
CIRCLE
  8
CONNECTIONS_BOLTS
 62
2
 10
203120.0000
 20
-548480.0000
 30
0.0000
 40
80.0000
  0
CIRCLE
  8
CONNECTIONS_BOLTS
 62
2
 10
203120.0000
 20
-548880.0000
 30
0.0000
 40
80.0000
  0
CIRCLE
  8
CONNECTIONS_BOLTS
 62
2
 10
203120.0000
 20
-548960.0000
 30
0.0000
 40
80.0000
  0
CIRCLE
  8
CONNECTIONS_BOLTS
 62
2
 10
203120.0000
 20
-549360.0000
 30
0.0000
 40
80.0000
  0
CIRCLE
  8
CONNECTIONS_BOLTS
 62
2
 10
203120.0000
 20
-549440.0000
 30
0.0000
 40
80.0000
  0
TEXT
  8
CONNECTIONS_BOLTS
 62
2
 10
202600.0000
 20
-549760.0000
 30
0.0000
 40
2000.0000
  1
6-M24 Gr.8.8 HSFG
 72
1
 11
202600.0000
 21
-549760.0000
 31
0.0000
  0
TEXT
  8
WELD_SYMBOLS
 62
4
 10
203000.0000
 20
-547720.0000
 30
0.0000
 40
2000.0000
  1
10FW (TYP)
 72
1
 11
203000.0000
 21
-547720.0000
 31
0.0000
  0
TEXT
  8
WELD_SYMBOLS
 62
4
 10
203000.0000
 20
-549960.0000
 30
0.0000
 40
2000.0000
  1
10FW (TYP)
 72
1
 11
203000.0000
 21
-549960.0000
 31
0.0000
  0
TEXT
  8
SECTION_LABELS
 62
3
 10
430000.0000
 20
-540200.0000
 30
0.0000
 40
4000.0000
  1
DET 3: LATTICE NODE GUSSET PLATE (1:12)
 72
1
 11
430000.0000
 21
-540200.0000
 31
0.0000
  0
TEXT
  8
SECTION_LABELS
 62
7
 10
430000.0000
 20
-545440.0000
 30
0.0000
 40
3000.0000
  1
EA 100x100x8 TO GUSSET PLATE
 72
1
 11
430000.0000
 21
-545440.0000
 31
0.0000
  0
LINE
  8
CONNECTIONS
 62
1
 10
430840.0000
 20
-548560.0000
 30
0.0000
 11
432760.0000
 21
-548560.0000
 31
0.0000
  0
LINE
  8
CONNECTIONS
 62
1
 10
432760.0000
 20
-548560.0000
 30
0.0000
 11
432760.0000
 21
-546640.0000
 31
0.0000
  0
LINE
  8
CONNECTIONS
 62
1
 10
432760.0000
 20
-546640.0000
 30
0.0000
 11
430840.0000
 21
-546640.0000
 31
0.0000
  0
LINE
  8
CONNECTIONS
 62
1
 10
430840.0000
 20
-546640.0000
 30
0.0000
 11
430840.0000
 21
-548560.0000
 31
0.0000
  0
TEXT
  8
CONNECTIONS
 62
1
 10
431200.0000
 20
-547720.0000
 30
0.0000
 40
2000.0000
  1
GP.300x300x12
 72
1
 11
431200.0000
 21
-547720.0000
 31
0.0000
  0
LINE
  8
LATTICE
 62
6
 10
432478.8225
 20
-546921.1775
 30
0.0000
 11
433327.3506
 21
-546072.6494
 31
0.0000
  0
TEXT
  8
LATTICE
 62
6
 10
433327.3506
 20
-546072.6494
 30
0.0000
 40
2000.0000
  1
EA100x100x8
 72
1
 11
433327.3506
 21
-546072.6494
 31
0.0000
  0
LINE
  8
LATTICE
 62
6
 10
431121.1775
 20
-546921.1775
 30
0.0000
 11
430272.6494
 21
-546072.6494
 31
0.0000
  0
TEXT
  8
LATTICE
 62
6
 10
430272.6494
 20
-546072.6494
 30
0.0000
 40
2000.0000
  1
EA100x100x8
 72
1
 11
430272.6494
 21
-546072.6494
 31
0.0000
  0
LINE
  8
LATTICE
 62
6
 10
431121.1775
 20
-548278.8225
 30
0.0000
 11
430272.6494
 21
-549127.3506
 31
0.0000
  0
TEXT
  8
LATTICE
 62
6
 10
430272.6494
 20
-549127.3506
 30
0.0000
 40
2000.0000
  1
EA100x100x8
 72
1
 11
430272.6494
 21
-549127.3506
 31
0.0000
  0
LINE
  8
LATTICE
 62
6
 10
432478.8225
 20
-548278.8225
 30
0.0000
 11
433327.3506
 21
-549127.3506
 31
0.0000
  0
TEXT
  8
LATTICE
 62
6
 10
433327.3506
 20
-549127.3506
 30
0.0000
 40
2000.0000
  1
EA100x100x8
 72
1
 11
433327.3506
 21
-549127.3506
 31
0.0000
  0
CIRCLE
  8
CONNECTIONS_BOLTS
 62
2
 10
432054.5584
 20
-547345.4416
 30
0.0000
 40
96.0000
  0
CIRCLE
  8
CONNECTIONS_BOLTS
 62
2
 10
432266.6905
 20
-547133.3095
 30
0.0000
 40
96.0000
  0
CIRCLE
  8
CONNECTIONS_BOLTS
 62
2
 10
431545.4416
 20
-547345.4416
 30
0.0000
 40
96.0000
  0
CIRCLE
  8
CONNECTIONS_BOLTS
 62
2
 10
431333.3095
 20
-547133.3095
 30
0.0000
 40
96.0000
  0
CIRCLE
  8
CONNECTIONS_BOLTS
 62
2
 10
431545.4416
 20
-547854.5584
 30
0.0000
 40
96.0000
  0
CIRCLE
  8
CONNECTIONS_BOLTS
 62
2
 10
431333.3095
 20
-548066.6905
 30
0.0000
 40
96.0000
  0
CIRCLE
  8
CONNECTIONS_BOLTS
 62
2
 10
432054.5584
 20
-547854.5584
 30
0.0000
 40
96.0000
  0
CIRCLE
  8
CONNECTIONS_BOLTS
 62
2
 10
432266.6905
 20
-548066.6905
 30
0.0000
 40
96.0000
  0
TEXT
  8
CONNECTIONS_BOLTS
 62
2
 10
430840.0000
 20
-549160.0000
 30
0.0000
 40
2000.0000
  1
2-M20 Gr.8.8 PER LEG
 72
1
 11
430840.0000
 21
-549160.0000
 31
0.0000
  0
TEXT
  8
SECTION_LABELS
 62
3
 10
390000.0000
 20
-480000.0000
 30
0.0000
 40
8000.0000
  1
MATERIAL SPECIFICATION & GENERAL NOTES
 72
1
 11
390000.0000
 21
-480000.0000
 31
0.0000
  0
TEXT
  8
MATERIAL_NOTES
 62
7
 10
395000.0000
 20
-492000.0000
 30
0.0000
 40
3000.0000
  1
MATERIAL SPECIFICATION:
 72
1
 11
395000.0000
 21
-492000.0000
 31
0.0000
  0
TEXT
  8
MATERIAL_NOTES
 62
7
 10
395000.0000
 20
-496500.0000
 30
0.0000
 40
3000.0000
  1
  - ALL STRUCTURAL STEEL: S355 JR/J0/J2 TO BS EN 10025-2
 72
1
 11
395000.0000
 21
-496500.0000
 31
0.0000
  0
TEXT
  8
MATERIAL_NOTES
 62
7
 10
395000.0000
 20
-501000.0000
 30
0.0000
 40
3000.0000
  1
  - PLATES & FLATS: S355 TO BS EN 10025-2
 72
1
 11
395000.0000
 21
-501000.0000
 31
0.0000
  0
TEXT
  8
MATERIAL_NOTES
 62
7
 10
395000.0000
 20
-505500.0000
 30
0.0000
 40
3000.0000
  1
  - HOLLOW SECTIONS (CHS/SHS/RHS): S355J2H TO BS EN 10210
 72
1
 11
395000.0000
 21
-505500.0000
 31
0.0000
  0
TEXT
  8
MATERIAL_NOTES
 62
7
 10
395000.0000
 20
-510000.0000
 30
0.0000
 40
3000.0000
  1
  - EQUAL ANGLES: S355 TO BS EN 10056
 72
1
 11
395000.0000
 21
-510000.0000
 31
0.0000
  0
TEXT
  8
MATERIAL_NOTES
 62
7
 10
395000.0000
 20
-514500.0000
 30
0.0000
 40
3000.0000
  1

 72
1
 11
395000.0000
 21
-514500.0000
 31
0.0000
  0
TEXT
  8
MATERIAL_NOTES
 62
7
 10
395000.0000
 20
-519000.0000
 30
0.0000
 40
3000.0000
  1
BOLTS & FASTENERS:
 72
1
 11
395000.0000
 21
-519000.0000
 31
0.0000
  0
TEXT
  8
MATERIAL_NOTES
 62
7
 10
395000.0000
 20
-523500.0000
 30
0.0000
 40
3000.0000
  1
  - STRUCTURAL BOLTS: M20/M24 Gr.8.8 TO BS EN 14399
 72
1
 11
395000.0000
 21
-523500.0000
 31
0.0000
  0
TEXT
  8
MATERIAL_NOTES
 62
7
 10
395000.0000
 20
-528000.0000
 30
0.0000
 40
3000.0000
  1
  - ANCHOR BOLTS: M30 Gr.8.8 FULLY THREADED
 72
1
 11
395000.0000
 21
-528000.0000
 31
0.0000
  0
TEXT
  8
MATERIAL_NOTES
 62
7
 10
395000.0000
 20
-532500.0000
 30
0.0000
 40
3000.0000
  1
  - WASHERS: GRADE 8 HARDENED TO BS EN 14399
 72
1
 11
395000.0000
 21
-532500.0000
 31
0.0000
  0
TEXT
  8
MATERIAL_NOTES
 62
7
 10
395000.0000
 20
-537000.0000
 30
0.0000
 40
3000.0000
  1
  - NUTS: Gr.8 TO BS EN 14399
 72
1
 11
395000.0000
 21
-537000.0000
 31
0.0000
  0
TEXT
  8
MATERIAL_NOTES
 62
7
 10
395000.0000
 20
-541500.0000
 30
0.0000
 40
3000.0000
  1
  - HSFG BOLTS WHERE NOTED: PRELOADED CLASS 10.9
 72
1
 11
395000.0000
 21
-541500.0000
 31
0.0000
  0
TEXT
  8
MATERIAL_NOTES
 62
7
 10
395000.0000
 20
-546000.0000
 30
0.0000
 40
3000.0000
  1

 72
1
 11
395000.0000
 21
-546000.0000
 31
0.0000
  0
TEXT
  8
MATERIAL_NOTES
 62
7
 10
395000.0000
 20
-550500.0000
 30
0.0000
 40
3000.0000
  1
WELDING SPECIFICATION:
 72
1
 11
395000.0000
 21
-550500.0000
 31
0.0000
  0
TEXT
  8
MATERIAL_NOTES
 62
7
 10
395000.0000
 20
-555000.0000
 30
0.0000
 40
3000.0000
  1
  - ALL WELDING TO BS EN 1011 & AWS D1.1
 72
1
 11
395000.0000
 21
-555000.0000
 31
0.0000
  0
TEXT
  8
MATERIAL_NOTES
 62
7
 10
395000.0000
 20
-559500.0000
 30
0.0000
 40
3000.0000
  1
  - ELECTRODE: E70XX (MATCHING STRENGTH)
 72
1
 11
395000.0000
 21
-559500.0000
 31
0.0000
  0
TEXT
  8
MATERIAL_NOTES
 62
7
 10
395000.0000
 20
-564000.0000
 30
0.0000
 40
3000.0000
  1
  - FULL PENETRATION BUTT WELDS AS NOTED
 72
1
 11
395000.0000
 21
-564000.0000
 31
0.0000
  0
TEXT
  8
MATERIAL_NOTES
 62
7
 10
395000.0000
 20
-568500.0000
 30
0.0000
 40
3000.0000
  1
  - FILLET WELDS: MIN 6mm, AS NOTED ON DETAILS
 72
1
 11
395000.0000
 21
-568500.0000
 31
0.0000
  0
TEXT
  8
MATERIAL_NOTES
 62
7
 10
395000.0000
 20
-573000.0000
 30
0.0000
 40
3000.0000
  1
  - WELD INSPECTION: UT FOR FULL PEN, VT FOR FILLETS
 72
1
 11
395000.0000
 21
-573000.0000
 31
0.0000
  0
TEXT
  8
MATERIAL_NOTES
 62
7
 10
395000.0000
 20
-577500.0000
 30
0.0000
 40
3000.0000
  1
  - PREHEAT PER BS EN 1011-2 BASED ON THICKNESS
 72
1
 11
395000.0000
 21
-577500.0000
 31
0.0000
  0
TEXT
  8
MATERIAL_NOTES
 62
7
 10
395000.0000
 20
-582000.0000
 30
0.0000
 40
3000.0000
  1

 72
1
 11
395000.0000
 21
-582000.0000
 31
0.0000
  0
TEXT
  8
MATERIAL_NOTES
 62
7
 10
395000.0000
 20
-586500.0000
 30
0.0000
 40
3000.0000
  1
SURFACE TREATMENT:
 72
1
 11
395000.0000
 21
-586500.0000
 31
0.0000
  0
TEXT
  8
MATERIAL_NOTES
 62
7
 10
395000.0000
 20
-591000.0000
 30
0.0000
 40
3000.0000
  1
  - BLAST CLEAN TO Sa 2.5 (ISO 8501-1)
 72
1
 11
395000.0000
 21
-591000.0000
 31
0.0000
  0
TEXT
  8
MATERIAL_NOTES
 62
7
 10
395000.0000
 20
-595500.0000
 30
0.0000
 40
3000.0000
  1
  - PRIMER: ZINC RICH EPOXY PRIMER 75 MICRONS DFT
 72
1
 11
395000.0000
 21
-595500.0000
 31
0.0000
  0
TEXT
  8
MATERIAL_NOTES
 62
7
 10
395000.0000
 20
-600000.0000
 30
0.0000
 40
3000.0000
  1
  - INTERMEDIATE: EPOXY MIO 75 MICRONS DFT
 72
1
 11
395000.0000
 21
-600000.0000
 31
0.0000
  0
TEXT
  8
MATERIAL_NOTES
 62
7
 10
395000.0000
 20
-604500.0000
 30
0.0000
 40
3000.0000
  1
  - FINAL: POLYURETHANE TOP COAT 50 MICRONS DFT
 72
1
 11
395000.0000
 21
-604500.0000
 31
0.0000
  0
TEXT
  8
MATERIAL_NOTES
 62
7
 10
395000.0000
 20
-609000.0000
 30
0.0000
 40
3000.0000
  1
  - TOTAL DFT: 200 MICRONS MINIMUM
 72
1
 11
395000.0000
 21
-609000.0000
 31
0.0000
  0
TEXT
  8
MATERIAL_NOTES
 62
7
 10
395000.0000
 20
-613500.0000
 30
0.0000
 40
3000.0000
  1

 72
1
 11
395000.0000
 21
-613500.0000
 31
0.0000
  0
TEXT
  8
MATERIAL_NOTES
 62
7
 10
395000.0000
 20
-618000.0000
 30
0.0000
 40
3000.0000
  1
FABRICATION NOTES:
 72
1
 11
395000.0000
 21
-618000.0000
 31
0.0000
  0
TEXT
  8
MATERIAL_NOTES
 62
7
 10
395000.0000
 20
-622500.0000
 30
0.0000
 40
3000.0000
  1
  - ALL FABRICATION TO BS EN 1090-2 EXC CLASS 3
 72
1
 11
395000.0000
 21
-622500.0000
 31
0.0000
  0
TEXT
  8
MATERIAL_NOTES
 62
7
 10
395000.0000
 20
-627000.0000
 30
0.0000
 40
3000.0000
  1
  - MAX PIECE LENGTH FOR TRANSPORT: 12000mm
 72
1
 11
395000.0000
 21
-627000.0000
 31
0.0000
  0
TEXT
  8
MATERIAL_NOTES
 62
7
 10
395000.0000
 20
-631500.0000
 30
0.0000
 40
3000.0000
  1
  - MAX PIECE WEIGHT: 10 TONNES (CHECK WITH ERECTOR)
 72
1
 11
395000.0000
 21
-631500.0000
 31
0.0000
  0
TEXT
  8
MATERIAL_NOTES
 62
7
 10
395000.0000
 20
-636000.0000
 30
0.0000
 40
3000.0000
  1
  - CURVED BEAMS: HOT BENT TO RADIUS AS SHOWN
 72
1
 11
395000.0000
 21
-636000.0000
 31
0.0000
  0
TEXT
  8
MATERIAL_NOTES
 62
7
 10
395000.0000
 20
-640500.0000
 30
0.0000
 40
3000.0000
  1
  - CAMBER OUTER RING BEAMS: L/500 PRE-CAMBER
 72
1
 11
395000.0000
 21
-640500.0000
 31
0.0000
  0
TEXT
  8
MATERIAL_NOTES
 62
7
 10
395000.0000
 20
-645000.0000
 30
0.0000
 40
3000.0000
  1

 72
1
 11
395000.0000
 21
-645000.0000
 31
0.0000
  0
TEXT
  8
MATERIAL_NOTES
 62
7
 10
395000.0000
 20
-649500.0000
 30
0.0000
 40
3000.0000
  1
ERECTION NOTES:
 72
1
 11
395000.0000
 21
-649500.0000
 31
0.0000
  0
TEXT
  8
MATERIAL_NOTES
 62
7
 10
395000.0000
 20
-654000.0000
 30
0.0000
 40
3000.0000
  1
  - ERECT IN SEQUENCE PER ERECTION SCHEME DWG
 72
1
 11
395000.0000
 21
-654000.0000
 31
0.0000
  0
TEXT
  8
MATERIAL_NOTES
 62
7
 10
395000.0000
 20
-658500.0000
 30
0.0000
 40
3000.0000
  1
  - PROVIDE TEMP. BRACING DURING ERECTION
 72
1
 11
395000.0000
 21
-658500.0000
 31
0.0000
  0
TEXT
  8
MATERIAL_NOTES
 62
7
 10
395000.0000
 20
-663000.0000
 30
0.0000
 40
3000.0000
  1
  - ALL HOLDING DOWN BOLTS SET BY STEEL CONTRACTOR
 72
1
 11
395000.0000
 21
-663000.0000
 31
0.0000
  0
TEXT
  8
MATERIAL_NOTES
 62
7
 10
395000.0000
 20
-667500.0000
 30
0.0000
 40
3000.0000
  1
  - SURVEY CHECK COLUMNS PLUMB BEFORE FINAL FIX
 72
1
 11
395000.0000
 21
-667500.0000
 31
0.0000
  0
TEXT
  8
MATERIAL_NOTES
 62
7
 10
395000.0000
 20
-672000.0000
 30
0.0000
 40
3000.0000
  1
  - REFER TO RISK ASSESSMENT & METHOD STATEMENT
 72
1
 11
395000.0000
 21
-672000.0000
 31
0.0000
  0
TEXT
  8
SECTION_LABELS
 62
3
 10
390000.0000
 20
-770000.0000
 30
0.0000
 40
6000.0000
  1
SECTION PROFILE REFERENCE
 72
1
 11
390000.0000
 21
-770000.0000
 31
0.0000
  0
TEXT
  8
SECTION_PROFILES
 62
3
 10
390000.0000
 20
-810000.0000
 30
0.0000
 40
3000.0000
  1
CHS 355.6x16
 72
1
 11
390000.0000
 21
-810000.0000
 31
0.0000
  0
TEXT
  8
SECTION_PROFILES
 62
7
 10
390000.0000
 20
-814000.0000
 30
0.0000
 40
2500.0000
  1
(COLUMN-OUTER)
 72
1
 11
390000.0000
 21
-814000.0000
 31
0.0000
  0
CIRCLE
  8
SECTION_PROFILES
 62
3
 10
410000.0000
 20
-830000.0000
 30
0.0000
 40
53340.0000
  0
CIRCLE
  8
SECTION_PROFILES
 62
8
 10
410000.0000
 20
-830000.0000
 30
0.0000
 40
52340.0000
  0
TEXT
  8
SECTION_PROFILES
 62
3
 10
470000.0000
 20
-810000.0000
 30
0.0000
 40
3000.0000
  1
CHS 219.1x10
 72
1
 11
470000.0000
 21
-810000.0000
 31
0.0000
  0
TEXT
  8
SECTION_PROFILES
 62
7
 10
470000.0000
 20
-814000.0000
 30
0.0000
 40
2500.0000
  1
(COLUMN-INNER)
 72
1
 11
470000.0000
 21
-814000.0000
 31
0.0000
  0
CIRCLE
  8
SECTION_PROFILES
 62
3
 10
490000.0000
 20
-830000.0000
 30
0.0000
 40
32865.0000
  0
CIRCLE
  8
SECTION_PROFILES
 62
8
 10
490000.0000
 20
-830000.0000
 30
0.0000
 40
31865.0000
  0
TEXT
  8
SECTION_PROFILES
 62
3
 10
550000.0000
 20
-810000.0000
 30
0.0000
 40
3000.0000
  1
UB 533x210x92
 72
1
 11
550000.0000
 21
-810000.0000
 31
0.0000
  0
TEXT
  8
SECTION_PROFILES
 62
7
 10
550000.0000
 20
-814000.0000
 30
0.0000
 40
2500.0000
  1
(BEAM-OUTER)
 72
1
 11
550000.0000
 21
-814000.0000
 31
0.0000
  0
LINE
  8
SECTION_PROFILES
 62
3
 10
550000.0000
 20
-820000.0000
 30
0.0000
 11
580000.0000
 21
-820000.0000
 31
0.0000
  0
LINE
  8
SECTION_PROFILES
 62
3
 10
563000.0000
 20
-820000.0000
 30
0.0000
 11
563000.0000
 21
-840000.0000
 31
0.0000
  0
LINE
  8
SECTION_PROFILES
 62
3
 10
567000.0000
 20
-820000.0000
 30
0.0000
 11
567000.0000
 21
-840000.0000
 31
0.0000
  0
LINE
  8
SECTION_PROFILES
 62
3
 10
550000.0000
 20
-840000.0000
 30
0.0000
 11
580000.0000
 21
-840000.0000
 31
0.0000
  0
TEXT
  8
SECTION_PROFILES
 62
3
 10
650000.0000
 20
-810000.0000
 30
0.0000
 40
3000.0000
  1
SHS 150x150x8
 72
1
 11
650000.0000
 21
-810000.0000
 31
0.0000
  0
TEXT
  8
SECTION_PROFILES
 62
7
 10
650000.0000
 20
-814000.0000
 30
0.0000
 40
2500.0000
  1
(BRACING)
 72
1
 11
650000.0000
 21
-814000.0000
 31
0.0000
  0
LINE
  8
SECTION_PROFILES
 62
3
 10
650000.0000
 20
-820000.0000
 30
0.0000
 11
670000.0000
 21
-820000.0000
 31
0.0000
  0
LINE
  8
SECTION_PROFILES
 62
3
 10
670000.0000
 20
-820000.0000
 30
0.0000
 11
670000.0000
 21
-840000.0000
 31
0.0000
  0
LINE
  8
SECTION_PROFILES
 62
3
 10
670000.0000
 20
-840000.0000
 30
0.0000
 11
650000.0000
 21
-840000.0000
 31
0.0000
  0
LINE
  8
SECTION_PROFILES
 62
3
 10
650000.0000
 20
-840000.0000
 30
0.0000
 11
650000.0000
 21
-820000.0000
 31
0.0000
  0
TEXT
  8
SECTION_PROFILES
 62
3
 10
750000.0000
 20
-810000.0000
 30
0.0000
 40
3000.0000
  1
EA 100x100x8
 72
1
 11
750000.0000
 21
-810000.0000
 31
0.0000
  0
TEXT
  8
SECTION_PROFILES
 62
7
 10
750000.0000
 20
-814000.0000
 30
0.0000
 40
2500.0000
  1
(LATTICE)
 72
1
 11
750000.0000
 21
-814000.0000
 31
0.0000
  0
LINE
  8
SECTION_PROFILES
 62
3
 10
750000.0000
 20
-820000.0000
 30
0.0000
 11
770000.0000
 21
-820000.0000
 31
0.0000
  0
LINE
  8
SECTION_PROFILES
 62
3
 10
750000.0000
 20
-820000.0000
 30
0.0000
 11
750000.0000
 21
-840000.0000
 31
0.0000
  0
LINE
  8
SECTION_PROFILES
 62
3
 10
750000.0000
 20
-840000.0000
 30
0.0000
 11
753000.0000
 21
-840000.0000
 31
0.0000
  0
LINE
  8
SECTION_PROFILES
 62
3
 10
767000.0000
 20
-820000.0000
 30
0.0000
 11
770000.0000
 21
-823000.0000
 31
0.0000
  0
ENDSEC
  0
SECTION
  2
OBJECTS
  0
DICTIONARY
  5
A
330
0
100
AcDbDictionary
281
1
  3
ACAD_GROUP
350
C
  0
DICTIONARY
  5
C
330
A
100
AcDbDictionary
281
1
  0
ENDSEC
  0
EOF