  0
SECTION
  2
HEADER
  9
$ACADVER
  1
AC1015
  9
$ACADMAINTVER
 70
6
  9
$DWGCODEPAGE
  3
ANSI_1252
  9
$INSBASE
 10
0.0
 20
0.0
 30
0.0
  9
$EXTMIN
 10
1e+20
 20
1e+20
 30
1e+20
  9
$EXTMAX
 10
-1e+20
 20
-1e+20
 30
-1e+20
  9
$LIMMIN
 10
0.0
 20
0.0
  9
$LIMMAX
 10
420.0
 20
297.0
  9
$ORTHOMODE
 70
0
  9
$REGENMODE
 70
1
  9
$FILLMODE
 70
1
  9
$QTEXTMODE
 70
0
  9
$MIRRTEXT
 70
1
  9
$LTSCALE
 40
1.0
  9
$ATTMODE
 70
1
  9
$TEXTSIZE
 40
2.5
  9
$TRACEWID
 40
1.0
  9
$TEXTSTYLE
  7
Standard
  9
$CLAYER
  8
0
  9
$CELTYPE
  6
ByLayer
  9
$CECOLOR
 62
256
  9
$CELTSCALE
 40
1.0
  9
$DISPSILH
 70
0
  9
$DIMSCALE
 40
1.0
  9
$DIMASZ
 40
2.5
  9
$DIMEXO
 40
0.625
  9
$DIMDLI
 40
3.75
  9
$DIMRND
 40
0.0
  9
$DIMDLE
 40
0.0
  9
$DIMEXE
 40
1.25
  9
$DIMTP
 40
0.0
  9
$DIMTM
 40
0.0
  9
$DIMTXT
 40
2.5
  9
$DIMCEN
 40
2.5
  9
$DIMTSZ
 40
0.0
  9
$DIMTOL
 70
0
  9
$DIMLIM
 70
0
  9
$DIMTIH
 70
0
  9
$DIMTOH
 70
0
  9
$DIMSE1
 70
0
  9
$DIMSE2
 70
0
  9
$DIMTAD
 70
1
  9
$DIMZIN
 70
8
  9
$DIMBLK
  1

  9
$DIMASO
 70
1
  9
$DIMSHO
 70
1
  9
$DIMPOST
  1

  9
$DIMAPOST
  1

  9
$DIMALT
 70
0
  9
$DIMALTD
 70
3
  9
$DIMALTF
 40
0.03937007874
  9
$DIMLFAC
 40
1.0
  9
$DIMTOFL
 70
1
  9
$DIMTVP
 40
0.0
  9
$DIMTIX
 70
0
  9
$DIMSOXD
 70
0
  9
$DIMSAH
 70
0
  9
$DIMBLK1
  1

  9
$DIMBLK2
  1

  9
$DIMSTYLE
  2
ISO-25
  9
$DIMCLRD
 70
0
  9
$DIMCLRE
 70
0
  9
$DIMCLRT
 70
0
  9
$DIMTFAC
 40
1.0
  9
$DIMGAP
 40
0.625
  9
$DIMJUST
 70
0
  9
$DIMSD1
 70
0
  9
$DIMSD2
 70
0
  9
$DIMTOLJ
 70
0
  9
$DIMTZIN
 70
8
  9
$DIMALTZ
 70
0
  9
$DIMALTTZ
 70
0
  9
$DIMUPT
 70
0
  9
$DIMDEC
 70
2
  9
$DIMTDEC
 70
2
  9
$DIMALTU
 70
2
  9
$DIMALTTD
 70
3
  9
$DIMTXSTY
  7
Standard
  9
$DIMAUNIT
 70
0
  9
$DIMADEC
 70
0
  9
$DIMALTRND
 40
0.0
  9
$DIMAZIN
 70
0
  9
$DIMDSEP
 70
44
  9
$DIMATFIT
 70
3
  9
$DIMFRAC
 70
0
  9
$DIMLDRBLK
  1

  9
$DIMLUNIT
 70
2
  9
$DIMLWD
 70
-2
  9
$DIMLWE
 70
-2
  9
$DIMTMOVE
 70
0
  9
$LUNITS
 70
2
  9
$LUPREC
 70
4
  9
$SKETCHINC
 40
1.0
  9
$FILLETRAD
 40
10.0
  9
$AUNITS
 70
0
  9
$AUPREC
 70
2
  9
$MENU
  1
.
  9
$ELEVATION
 40
0.0
  9
$PELEVATION
 40
0.0
  9
$THICKNESS
 40
0.0
  9
$LIMCHECK
 70
0
  9
$CHAMFERA
 40
0.0
  9
$CHAMFERB
 40
0.0
  9
$CHAMFERC
 40
0.0
  9
$CHAMFERD
 40
0.0
  9
$SKPOLY
 70
0
  9
$TDCREATE
 40
2461026.9839351852
  9
$TDUCREATE
 40
2458532.153996898
  9
$TDUPDATE
 40
2461026.9839351852
  9
$TDUUPDATE
 40
2458532.1544311
  9
$TDINDWG
 40
0.0
  9
$TDUSRTIMER
 40
0.0
  9
$USRTIMER
 70
1
  9
$ANGBASE
 50
0.0
  9
$ANGDIR
 70
0
  9
$PDMODE
 70
0
  9
$PDSIZE
 40
0.0
  9
$PLINEWID
 40
0.0
  9
$SPLFRAME
 70
0
  9
$SPLINETYPE
 70
6
  9
$SPLINESEGS
 70
8
  9
$HANDSEED
  5
1FA
  9
$SURFTAB1
 70
6
  9
$SURFTAB2
 70
6
  9
$SURFTYPE
 70
6
  9
$SURFU
 70
6
  9
$SURFV
 70
6
  9
$UCSBASE
  2

  9
$UCSNAME
  2

  9
$UCSORG
 10
0.0
 20
0.0
 30
0.0
  9
$UCSXDIR
 10
1.0
 20
0.0
 30
0.0
  9
$UCSYDIR
 10
0.0
 20
1.0
 30
0.0
  9
$UCSORTHOREF
  2

  9
$UCSORTHOVIEW
 70
0
  9
$UCSORGTOP
 10
0.0
 20
0.0
 30
0.0
  9
$UCSORGBOTTOM
 10
0.0
 20
0.0
 30
0.0
  9
$UCSORGLEFT
 10
0.0
 20
0.0
 30
0.0
  9
$UCSORGRIGHT
 10
0.0
 20
0.0
 30
0.0
  9
$UCSORGFRONT
 10
0.0
 20
0.0
 30
0.0
  9
$UCSORGBACK
 10
0.0
 20
0.0
 30
0.0
  9
$PUCSBASE
  2

  9
$PUCSNAME
  2

  9
$PUCSORG
 10
0.0
 20
0.0
 30
0.0
  9
$PUCSXDIR
 10
1.0
 20
0.0
 30
0.0
  9
$PUCSYDIR
 10
0.0
 20
1.0
 30
0.0
  9
$PUCSORTHOREF
  2

  9
$PUCSORTHOVIEW
 70
0
  9
$PUCSORGTOP
 10
0.0
 20
0.0
 30
0.0
  9
$PUCSORGBOTTOM
 10
0.0
 20
0.0
 30
0.0
  9
$PUCSORGLEFT
 10
0.0
 20
0.0
 30
0.0
  9
$PUCSORGRIGHT
 10
0.0
 20
0.0
 30
0.0
  9
$PUCSORGFRONT
 10
0.0
 20
0.0
 30
0.0
  9
$PUCSORGBACK
 10
0.0
 20
0.0
 30
0.0
  9
$USERI1
 70
0
  9
$USERI2
 70
0
  9
$USERI3
 70
0
  9
$USERI4
 70
0
  9
$USERI5
 70
0
  9
$USERR1
 40
0.0
  9
$USERR2
 40
0.0
  9
$USERR3
 40
0.0
  9
$USERR4
 40
0.0
  9
$USERR5
 40
0.0
  9
$WORLDVIEW
 70
1
  9
$SHADEDGE
 70
3
  9
$SHADEDIF
 70
70
  9
$TILEMODE
 70
1
  9
$MAXACTVP
 70
64
  9
$PINSBASE
 10
0.0
 20
0.0
 30
0.0
  9
$PLIMCHECK
 70
0
  9
$PEXTMIN
 10
1e+20
 20
1e+20
 30
1e+20
  9
$PEXTMAX
 10
-1e+20
 20
-1e+20
 30
-1e+20
  9
$PLIMMIN
 10
0.0
 20
0.0
  9
$PLIMMAX
 10
420.0
 20
297.0
  9
$UNITMODE
 70
0
  9
$VISRETAIN
 70
1
  9
$PLINEGEN
 70
0
  9
$PSLTSCALE
 70
1
  9
$TREEDEPTH
 70
3020
  9
$CMLSTYLE
  2
Standard
  9
$CMLJUST
 70
0
  9
$CMLSCALE
 40
20.0
  9
$PROXYGRAPHICS
 70
1
  9
$MEASUREMENT
 70
1
  9
$CELWEIGHT
370
-1
  9
$ENDCAPS
280
0
  9
$JOINSTYLE
280
0
  9
$LWDISPLAY
290
0
  9
$INSUNITS
 70
6
  9
$HYPERLINKBASE
  1

  9
$STYLESHEET
  1

  9
$XEDIT
290
1
  9
$CEPSNTYPE
380
0
  9
$PSTYLEMODE
290
1
  9
$FINGERPRINTGUID
  2
{D3E5BEFA-31D3-44A7-AF7B-3746884856CC}
  9
$VERSIONGUID
  2
{1ABF6FAE-4C9C-4B07-8AC7-A35762D1F20D}
  9
$EXTNAMES
290
1
  9
$PSVPSCALE
 40
0.0
  9
$OLESTARTUP
290
0
  0
ENDSEC
  0
SECTION
  2
CLASSES
  0
CLASS
  1
ACDBDICTIONARYWDFLT
  2
AcDbDictionaryWithDefault
  3
ObjectDBX Classes
 90
0
280
0
281
0
  0
CLASS
  1
SUN
  2
AcDbSun
  3
SCENEOE
 90
1153
280
0
281
0
  0
CLASS
  1
VISUALSTYLE
  2
AcDbVisualStyle
  3
ObjectDBX Classes
 90
4095
280
0
281
0
  0
CLASS
  1
MATERIAL
  2
AcDbMaterial
  3
ObjectDBX Classes
 90
1153
280
0
281
0
  0
CLASS
  1
SCALE
  2
AcDbScale
  3
ObjectDBX Classes
 90
1153
280
0
281
0
  0
CLASS
  1
TABLESTYLE
  2
AcDbTableStyle
  3
ObjectDBX Classes
 90
4095
280
0
281
0
  0
CLASS
  1
MLEADERSTYLE
  2
AcDbMLeaderStyle
  3
ACDB_MLEADERSTYLE_CLASS
 90
4095
280
0
281
0
  0
CLASS
  1
DICTIONARYVAR
  2
AcDbDictionaryVar
  3
ObjectDBX Classes
 90
0
280
0
281
0
  0
CLASS
  1
CELLSTYLEMAP
  2
AcDbCellStyleMap
  3
ObjectDBX Classes
 90
1152
280
0
281
0
  0
CLASS
  1
MENTALRAYRENDERSETTINGS
  2
AcDbMentalRayRenderSettings
  3
SCENEOE
 90
1024
280
0
281
0
  0
CLASS
  1
ACDBDETAILVIEWSTYLE
  2
AcDbDetailViewStyle
  3
ObjectDBX Classes
 90
1025
280
0
281
0
  0
CLASS
  1
ACDBSECTIONVIEWSTYLE
  2
AcDbSectionViewStyle
  3
ObjectDBX Classes
 90
1025
280
0
281
0
  0
CLASS
  1
RASTERVARIABLES
  2
AcDbRasterVariables
  3
ISM
 90
0
280
0
281
0
  0
CLASS
  1
ACDBPLACEHOLDER
  2
AcDbPlaceHolder
  3
ObjectDBX Classes
 90
0
280
0
281
0
  0
CLASS
  1
LAYOUT
  2
AcDbLayout
  3
ObjectDBX Classes
 90
0
280
0
281
0
  0
ENDSEC
  0
SECTION
  2
TABLES
  0
TABLE
  2
VPORT
  5
8
330
0
100
AcDbSymbolTable
 70
1
  0
VPORT
  5
23
330
8
100
AcDbSymbolTableRecord
100
AcDbViewportTableRecord
  2
*Active
 70
0
 10
0.0
 20
0.0
 11
1.0
 21
1.0
 12
0.0
 22
0.0
 13
0.0
 23
0.0
 14
0.5
 24
0.5
 15
0.5
 25
0.5
 16
0.0
 26
0.0
 36
1.0
 17
0.0
 27
0.0
 37
0.0
 40
1000.0
 41
1.34
 42
50.0
 43
0.0
 44
0.0
 50
0.0
 51
0.0
 71
0
 72
1000
 73
1
 74
3
 75
0
 76
0
 77
0
 78
0
281
0
 65
0
146
0.0
  0
ENDTAB
  0
TABLE
  2
LTYPE
  5
2
330
0
100
AcDbSymbolTable
 70
3
  0
LTYPE
  5
24
330
2
100
AcDbSymbolTableRecord
100
AcDbLinetypeTableRecord
  2
ByBlock
 70
0
  3

 72
65
 73
0
 40
0.0
  0
LTYPE
  5
25
330
2
100
AcDbSymbolTableRecord
100
AcDbLinetypeTableRecord
  2
ByLayer
 70
0
  3

 72
65
 73
0
 40
0.0
  0
LTYPE
  5
26
330
2
100
AcDbSymbolTableRecord
100
AcDbLinetypeTableRecord
  2
Continuous
 70
0
  3

 72
65
 73
0
 40
0.0
  0
ENDTAB
  0
TABLE
  2
LAYER
  5
1
330
0
100
AcDbSymbolTable
 70
2
  0
LAYER
  5
27
330
1
100
AcDbSymbolTableRecord
100
AcDbLayerTableRecord
  2
0
 70
0
 62
7
  6
Continuous
370
-3
390
13
  0
LAYER
  5
28
330
1
100
AcDbSymbolTableRecord
100
AcDbLayerTableRecord
  2
Defpoints
 70
0
 62
7
  6
Continuous
290
0
370
-3
390
13
  0
ENDTAB
  0
TABLE
  2
STYLE
  5
5
330
0
100
AcDbSymbolTable
 70
1
  0
STYLE
  5
29
330
5
100
AcDbSymbolTableRecord
100
AcDbTextStyleTableRecord
  2
Standard
 70
0
 40
0.0
 41
1.0
 50
0.0
 71
0
 42
2.5
  3
txt
  4

  0
ENDTAB
  0
TABLE
  2
VIEW
  5
7
330
0
100
AcDbSymbolTable
 70
0
  0
ENDTAB
  0
TABLE
  2
UCS
  5
6
330
0
100
AcDbSymbolTable
 70
0
  0
ENDTAB
  0
TABLE
  2
APPID
  5
3
330
0
100
AcDbSymbolTable
 70
3
  0
APPID
  5
2A
330
3
100
AcDbSymbolTableRecord
100
AcDbRegAppTableRecord
  2
ACAD
 70
0
  0
APPID
  5
1F7
330
3
100
AcDbSymbolTableRecord
100
AcDbRegAppTableRecord
  2
HATCHBACKGROUNDCOLOR
 70
0
  0
APPID
  5
1F8
330
3
100
AcDbSymbolTableRecord
100
AcDbRegAppTableRecord
  2
EZDXF
 70
0
  0
ENDTAB
  0
TABLE
  2
DIMSTYLE
  5
4
330
0
100
AcDbSymbolTable
 70
1
100
AcDbDimStyleTable
  0
DIMSTYLE
105
2B
330
4
100
AcDbSymbolTableRecord
100
AcDbDimStyleTableRecord
  2
Standard
 70
0
  3

  4

 40
1.0
 41
2.5
 42
0.625
 43
3.75
 44
1.25
 45
0.0
 46
0.0
 47
0.0
 48
0.0
140
2.5
141
2.5
142
0.0
143
0.03937007874
144
1.0
145
0.0
146
1.0
147
0.625
148
0.0
 71
0
 72
0
 73
0
 74
0
 75
0
 76
0
 77
1
 78
8
 79
3
170
0
171
3
172
1
173
0
174
0
175
0
176
0
177
0
178
0
179
2
271
2
272
2
273
2
274
3
275
0
276
0
277
2
278
44
279
0
280
0
281
0
282
0
283
0
284
8
285
0
286
0
288
0
289
3
371
-2
372
-2
  0
ENDTAB
  0
TABLE
  2
BLOCK_RECORD
  5
9
330
0
100
AcDbSymbolTable
 70
2
  0
BLOCK_RECORD
  5
17
330
9
100
AcDbSymbolTableRecord
100
AcDbBlockTableRecord
  2
*Model_Space
340
1A
  0
BLOCK_RECORD
  5
1B
330
9
100
AcDbSymbolTableRecord
100
AcDbBlockTableRecord
  2
*Paper_Space
340
1E
  0
ENDTAB
  0
ENDSEC
  0
SECTION
  2
BLOCKS
  0
BLOCK
  5
18
330
17
100
AcDbEntity
  8
0
100
AcDbBlockBegin
  2
*Model_Space
 70
0
 10
0.0
 20
0.0
 30
0.0
  3
*Model_Space
  1

  0
ENDBLK
  5
19
330
17
100
AcDbEntity
  8
0
100
AcDbBlockEnd
  0
BLOCK
  5
1C
330
1B
100
AcDbEntity
  8
0
100
AcDbBlockBegin
  2
*Paper_Space
 70
0
 10
0.0
 20
0.0
 30
0.0
  3
*Paper_Space
  1

  0
ENDBLK
  5
1D
330
1B
100
AcDbEntity
  8
0
100
AcDbBlockEnd
  0
ENDSEC
  0
SECTION
  2
ENTITIES
  0
LINE
  5
2F
330
17
100
AcDbEntity
  8
0
 62
5
100
AcDbLine
 10
75000.0
 20
0.0
 30
0.0
 11
30000.0
 21
0.0
 31
828000.0
  0
LINE
  5
30
330
17
100
AcDbEntity
  8
0
 62
5
100
AcDbLine
 10
53033.00858899107
 20
53033.00858899106
 30
0.0
 11
21213.203435596428
 21
21213.203435596424
 31
828000.0
  0
LINE
  5
31
330
17
100
AcDbEntity
  8
0
 62
5
100
AcDbLine
 10
4.5924254968025744e-12
 20
75000.0
 30
0.0
 11
1.83697019872103e-12
 21
30000.0
 31
828000.0
  0
LINE
  5
32
330
17
100
AcDbEntity
  8
0
 62
5
100
AcDbLine
 10
-53033.00858899106
 20
53033.00858899107
 30
0.0
 11
-21213.203435596424
 21
21213.203435596428
 31
828000.0
  0
LINE
  5
33
330
17
100
AcDbEntity
  8
0
 62
5
100
AcDbLine
 10
-75000.0
 20
9.184850993605149e-12
 30
0.0
 11
-30000.0
 21
3.67394039744206e-12
 31
828000.0
  0
LINE
  5
34
330
17
100
AcDbEntity
  8
0
 62
5
100
AcDbLine
 10
-53033.00858899108
 20
-53033.00858899106
 30
0.0
 11
-21213.20343559643
 21
-21213.203435596424
 31
828000.0
  0
LINE
  5
35
330
17
100
AcDbEntity
  8
0
 62
5
100
AcDbLine
 10
-1.3777276490407722e-11
 20
-75000.0
 30
0.0
 11
-5.510910596163089e-12
 21
-30000.0
 31
828000.0
  0
LINE
  5
36
330
17
100
AcDbEntity
  8
0
 62
5
100
AcDbLine
 10
53033.00858899105
 20
-53033.00858899108
 30
0.0
 11
21213.20343559642
 21
-21213.20343559643
 31
828000.0
  0
LINE
  5
37
330
17
100
AcDbEntity
  8
0
 62
5
100
AcDbLine
 10
75000.0
 20
75000.0
 30
0.0
 11
75000.0
 21
75000.0
 31
172500.0
  0
LINE
  5
38
330
17
100
AcDbEntity
  8
0
 62
5
100
AcDbLine
 10
-75000.0
 20
75000.0
 30
0.0
 11
-75000.0
 21
75000.0
 31
172500.0
  0
LINE
  5
39
330
17
100
AcDbEntity
  8
0
 62
5
100
AcDbLine
 10
-75000.0
 20
-75000.0
 30
0.0
 11
-75000.0
 21
-75000.0
 31
172500.0
  0
LINE
  5
3A
330
17
100
AcDbEntity
  8
0
 62
5
100
AcDbLine
 10
75000.0
 20
-75000.0
 30
0.0
 11
75000.0
 21
-75000.0
 31
172500.0
  0
LINE
  5
3B
330
17
100
AcDbEntity
  8
0
 62
5
100
AcDbLine
 10
75000.0
 20
0.0
 30
0.0
 11
75000.0
 21
0.0
 31
172500.0
  0
LINE
  5
3C
330
17
100
AcDbEntity
  8
0
 62
5
100
AcDbLine
 10
-75000.0
 20
0.0
 30
0.0
 11
-75000.0
 21
0.0
 31
172500.0
  0
LINE
  5
3D
330
17
100
AcDbEntity
  8
0
 62
5
100
AcDbLine
 10
0.0
 20
75000.0
 30
0.0
 11
0.0
 21
75000.0
 31
172500.0
  0
LINE
  5
3E
330
17
100
AcDbEntity
  8
0
 62
5
100
AcDbLine
 10
0.0
 20
-75000.0
 30
0.0
 11
0.0
 21
-75000.0
 31
172500.0
  0
LINE
  5
3F
330
17
100
AcDbEntity
  8
0
 62
5
100
AcDbLine
 10
63750.0
 20
63750.0
 30
172500.0
 11
63750.0
 21
63750.0
 31
345000.0
  0
LINE
  5
40
330
17
100
AcDbEntity
  8
0
 62
5
100
AcDbLine
 10
-63750.0
 20
63750.0
 30
172500.0
 11
-63750.0
 21
63750.0
 31
345000.0
  0
LINE
  5
41
330
17
100
AcDbEntity
  8
0
 62
5
100
AcDbLine
 10
-63750.0
 20
-63750.0
 30
172500.0
 11
-63750.0
 21
-63750.0
 31
345000.0
  0
LINE
  5
42
330
17
100
AcDbEntity
  8
0
 62
5
100
AcDbLine
 10
63750.0
 20
-63750.0
 30
172500.0
 11
63750.0
 21
-63750.0
 31
345000.0
  0
LINE
  5
43
330
17
100
AcDbEntity
  8
0
 62
5
100
AcDbLine
 10
63750.0
 20
0.0
 30
172500.0
 11
63750.0
 21
0.0
 31
345000.0
  0
LINE
  5
44
330
17
100
AcDbEntity
  8
0
 62
5
100
AcDbLine
 10
-63750.0
 20
0.0
 30
172500.0
 11
-63750.0
 21
0.0
 31
345000.0
  0
LINE
  5
45
330
17
100
AcDbEntity
  8
0
 62
5
100
AcDbLine
 10
0.0
 20
63750.0
 30
172500.0
 11
0.0
 21
63750.0
 31
345000.0
  0
LINE
  5
46
330
17
100
AcDbEntity
  8
0
 62
5
100
AcDbLine
 10
0.0
 20
-63750.0
 30
172500.0
 11
0.0
 21
-63750.0
 31
345000.0
  0
LINE
  5
47
330
17
100
AcDbEntity
  8
0
 62
5
100
AcDbLine
 10
52500.0
 20
52500.0
 30
345000.0
 11
52500.0
 21
52500.0
 31
517500.0
  0
LINE
  5
48
330
17
100
AcDbEntity
  8
0
 62
5
100
AcDbLine
 10
-52500.0
 20
52500.0
 30
345000.0
 11
-52500.0
 21
52500.0
 31
517500.0
  0
LINE
  5
49
330
17
100
AcDbEntity
  8
0
 62
5
100
AcDbLine
 10
-52500.0
 20
-52500.0
 30
345000.0
 11
-52500.0
 21
-52500.0
 31
517500.0
  0
LINE
  5
4A
330
17
100
AcDbEntity
  8
0
 62
5
100
AcDbLine
 10
52500.0
 20
-52500.0
 30
345000.0
 11
52500.0
 21
-52500.0
 31
517500.0
  0
LINE
  5
4B
330
17
100
AcDbEntity
  8
0
 62
5
100
AcDbLine
 10
52500.0
 20
0.0
 30
345000.0
 11
52500.0
 21
0.0
 31
517500.0
  0
LINE
  5
4C
330
17
100
AcDbEntity
  8
0
 62
5
100
AcDbLine
 10
-52500.0
 20
0.0
 30
345000.0
 11
-52500.0
 21
0.0
 31
517500.0
  0
LINE
  5
4D
330
17
100
AcDbEntity
  8
0
 62
5
100
AcDbLine
 10
0.0
 20
52500.0
 30
345000.0
 11
0.0
 21
52500.0
 31
517500.0
  0
LINE
  5
4E
330
17
100
AcDbEntity
  8
0
 62
5
100
AcDbLine
 10
0.0
 20
-52500.0
 30
345000.0
 11
0.0
 21
-52500.0
 31
517500.0
  0
LINE
  5
4F
330
17
100
AcDbEntity
  8
0
 62
5
100
AcDbLine
 10
41250.0
 20
41250.0
 30
517500.0
 11
41250.0
 21
41250.0
 31
690000.0
  0
LINE
  5
50
330
17
100
AcDbEntity
  8
0
 62
5
100
AcDbLine
 10
-41250.0
 20
41250.0
 30
517500.0
 11
-41250.0
 21
41250.0
 31
690000.0
  0
LINE
  5
51
330
17
100
AcDbEntity
  8
0
 62
5
100
AcDbLine
 10
-41250.0
 20
-41250.0
 30
517500.0
 11
-41250.0
 21
-41250.0
 31
690000.0
  0
LINE
  5
52
330
17
100
AcDbEntity
  8
0
 62
5
100
AcDbLine
 10
41250.0
 20
-41250.0
 30
517500.0
 11
41250.0
 21
-41250.0
 31
690000.0
  0
LINE
  5
53
330
17
100
AcDbEntity
  8
0
 62
5
100
AcDbLine
 10
41250.0
 20
0.0
 30
517500.0
 11
41250.0
 21
0.0
 31
690000.0
  0
LINE
  5
54
330
17
100
AcDbEntity
  8
0
 62
5
100
AcDbLine
 10
-41250.0
 20
0.0
 30
517500.0
 11
-41250.0
 21
0.0
 31
690000.0
  0
LINE
  5
55
330
17
100
AcDbEntity
  8
0
 62
5
100
AcDbLine
 10
0.0
 20
41250.0
 30
517500.0
 11
0.0
 21
41250.0
 31
690000.0
  0
LINE
  5
56
330
17
100
AcDbEntity
  8
0
 62
5
100
AcDbLine
 10
0.0
 20
-41250.0
 30
517500.0
 11
0.0
 21
-41250.0
 31
690000.0
  0
LINE
  5
57
330
17
100
AcDbEntity
  8
0
 62
5
100
AcDbLine
 10
30000.0
 20
30000.0
 30
690000.0
 11
30000.0
 21
30000.0
 31
828000.0
  0
LINE
  5
58
330
17
100
AcDbEntity
  8
0
 62
5
100
AcDbLine
 10
-30000.0
 20
30000.0
 30
690000.0
 11
-30000.0
 21
30000.0
 31
828000.0
  0
LINE
  5
59
330
17
100
AcDbEntity
  8
0
 62
5
100
AcDbLine
 10
-30000.0
 20
-30000.0
 30
690000.0
 11
-30000.0
 21
-30000.0
 31
828000.0
  0
LINE
  5
5A
330
17
100
AcDbEntity
  8
0
 62
5
100
AcDbLine
 10
30000.0
 20
-30000.0
 30
690000.0
 11
30000.0
 21
-30000.0
 31
828000.0
  0
LINE
  5
5B
330
17
100
AcDbEntity
  8
0
 62
5
100
AcDbLine
 10
30000.0
 20
0.0
 30
690000.0
 11
30000.0
 21
0.0
 31
828000.0
  0
LINE
  5
5C
330
17
100
AcDbEntity
  8
0
 62
5
100
AcDbLine
 10
-30000.0
 20
0.0
 30
690000.0
 11
-30000.0
 21
0.0
 31
828000.0
  0
LINE
  5
5D
330
17
100
AcDbEntity
  8
0
 62
5
100
AcDbLine
 10
0.0
 20
30000.0
 30
690000.0
 11
0.0
 21
30000.0
 31
828000.0
  0
LINE
  5
5E
330
17
100
AcDbEntity
  8
0
 62
5
100
AcDbLine
 10
0.0
 20
-30000.0
 30
690000.0
 11
0.0
 21
-30000.0
 31
828000.0
  0
LINE
  5
5F
330
17
100
AcDbEntity
  8
0
 62
1
100
AcDbLine
 10
36562.5
 20
0.0
 30
34500.0
 11
73125.0
 21
0.0
 31
34500.0
  0
LINE
  5
60
330
17
100
AcDbEntity
  8
0
 62
1
100
AcDbLine
 10
31664.05382586854
 20
18281.249999999996
 30
34500.0
 11
63328.10765173708
 21
36562.49999999999
 31
34500.0
  0
LINE
  5
61
330
17
100
AcDbEntity
  8
0
 62
1
100
AcDbLine
 10
18281.250000000004
 20
31664.053825868537
 30
34500.0
 11
36562.50000000001
 21
63328.107651737075
 31
34500.0
  0
LINE
  5
62
330
17
100
AcDbEntity
  8
0
 62
1
100
AcDbLine
 10
2.238807429691255e-12
 20
36562.5
 30
34500.0
 11
4.47761485938251e-12
 21
73125.0
 31
34500.0
  0
LINE
  5
63
330
17
100
AcDbEntity
  8
0
 62
1
100
AcDbLine
 10
-18281.249999999993
 20
31664.05382586854
 30
34500.0
 11
-36562.499999999985
 21
63328.10765173708
 31
34500.0
  0
LINE
  5
64
330
17
100
AcDbEntity
  8
0
 62
1
100
AcDbLine
 10
-31664.05382586854
 20
18281.249999999996
 30
34500.0
 11
-63328.10765173708
 21
36562.49999999999
 31
34500.0
  0
LINE
  5
65
330
17
100
AcDbEntity
  8
0
 62
1
100
AcDbLine
 10
-36562.5
 20
4.47761485938251e-12
 30
34500.0
 11
-73125.0
 21
8.95522971876502e-12
 31
34500.0
  0
LINE
  5
66
330
17
100
AcDbEntity
  8
0
 62
1
100
AcDbLine
 10
-31664.053825868545
 20
-18281.249999999993
 30
34500.0
 11
-63328.10765173709
 21
-36562.499999999985
 31
34500.0
  0
LINE
  5
67
330
17
100
AcDbEntity
  8
0
 62
1
100
AcDbLine
 10
-18281.250000000015
 20
-31664.053825868526
 30
34500.0
 11
-36562.50000000003
 21
-63328.10765173705
 31
34500.0
  0
LINE
  5
68
330
17
100
AcDbEntity
  8
0
 62
1
100
AcDbLine
 10
-6.716422289073765e-12
 20
-36562.5
 30
34500.0
 11
-1.343284457814753e-11
 21
-73125.0
 31
34500.0
  0
LINE
  5
69
330
17
100
AcDbEntity
  8
0
 62
1
100
AcDbLine
 10
18281.250000000004
 20
-31664.053825868537
 30
34500.0
 11
36562.50000000001
 21
-63328.107651737075
 31
34500.0
  0
LINE
  5
6A
330
17
100
AcDbEntity
  8
0
 62
1
100
AcDbLine
 10
31664.053825868526
 20
-18281.250000000015
 30
34500.0
 11
63328.10765173705
 21
-36562.50000000003
 31
34500.0
  0
LINE
  5
6B
330
17
100
AcDbEntity
  8
0
 62
1
100
AcDbLine
 10
35437.5
 20
0.0
 30
75900.0
 11
70875.0
 21
0.0
 31
75900.0
  0
LINE
  5
6C
330
17
100
AcDbEntity
  8
0
 62
1
100
AcDbLine
 10
30689.775246611047
 20
17718.749999999996
 30
75900.0
 11
61379.550493222094
 21
35437.49999999999
 31
75900.0
  0
LINE
  5
6D
330
17
100
AcDbEntity
  8
0
 62
1
100
AcDbLine
 10
17718.750000000004
 20
30689.775246611043
 30
75900.0
 11
35437.50000000001
 21
61379.55049322209
 31
75900.0
  0
LINE
  5
6E
330
17
100
AcDbEntity
  8
0
 62
1
100
AcDbLine
 10
2.1699210472392164e-12
 20
35437.5
 30
75900.0
 11
4.339842094478433e-12
 21
70875.0
 31
75900.0
  0
LINE
  5
6F
330
17
100
AcDbEntity
  8
0
 62
1
100
AcDbLine
 10
-17718.749999999993
 20
30689.775246611047
 30
75900.0
 11
-35437.499999999985
 21
61379.550493222094
 31
75900.0
  0
LINE
  5
70
330
17
100
AcDbEntity
  8
0
 62
1
100
AcDbLine
 10
-30689.775246611047
 20
17718.749999999996
 30
75900.0
 11
-61379.550493222094
 21
35437.49999999999
 31
75900.0
  0
LINE
  5
71
330
17
100
AcDbEntity
  8
0
 62
1
100
AcDbLine
 10
-35437.5
 20
4.339842094478433e-12
 30
75900.0
 11
-70875.0
 21
8.679684188956865e-12
 31
75900.0
  0
LINE
  5
72
330
17
100
AcDbEntity
  8
0
 62
1
100
AcDbLine
 10
-30689.77524661105
 20
-17718.749999999993
 30
75900.0
 11
-61379.5504932221
 21
-35437.499999999985
 31
75900.0
  0
LINE
  5
73
330
17
100
AcDbEntity
  8
0
 62
1
100
AcDbLine
 10
-17718.750000000015
 20
-30689.775246611036
 30
75900.0
 11
-35437.50000000003
 21
-61379.55049322207
 31
75900.0
  0
LINE
  5
74
330
17
100
AcDbEntity
  8
0
 62
1
100
AcDbLine
 10
-6.509763141717649e-12
 20
-35437.5
 30
75900.0
 11
-1.3019526283435298e-11
 21
-70875.0
 31
75900.0
  0
LINE
  5
75
330
17
100
AcDbEntity
  8
0
 62
1
100
AcDbLine
 10
17718.750000000004
 20
-30689.775246611043
 30
75900.0
 11
35437.50000000001
 21
-61379.55049322209
 31
75900.0
  0
LINE
  5
76
330
17
100
AcDbEntity
  8
0
 62
1
100
AcDbLine
 10
30689.775246611036
 20
-17718.750000000015
 30
75900.0
 11
61379.55049322207
 21
-35437.50000000003
 31
75900.0
  0
LINE
  5
77
330
17
100
AcDbEntity
  8
0
 62
1
100
AcDbLine
 10
34312.5
 20
0.0
 30
117300.0
 11
68625.0
 21
0.0
 31
117300.0
  0
LINE
  5
78
330
17
100
AcDbEntity
  8
0
 62
1
100
AcDbLine
 10
29715.496667353553
 20
17156.249999999996
 30
117300.0
 11
59430.993334707106
 21
34312.49999999999
 31
117300.0
  0
LINE
  5
79
330
17
100
AcDbEntity
  8
0
 62
1
100
AcDbLine
 10
17156.250000000004
 20
29715.49666735355
 30
117300.0
 11
34312.50000000001
 21
59430.9933347071
 31
117300.0
  0
LINE
  5
7A
330
17
100
AcDbEntity
  8
0
 62
1
100
AcDbLine
 10
2.1010346647871777e-12
 20
34312.5
 30
117300.0
 11
4.202069329574355e-12
 21
68625.0
 31
117300.0
  0
LINE
  5
7B
330
17
100
AcDbEntity
  8
0
 62
1
100
AcDbLine
 10
-17156.249999999993
 20
29715.496667353553
 30
117300.0
 11
-34312.499999999985
 21
59430.993334707106
 31
117300.0
  0
LINE
  5
7C
330
17
100
AcDbEntity
  8
0
 62
1
100
AcDbLine
 10
-29715.496667353553
 20
17156.249999999996
 30
117300.0
 11
-59430.993334707106
 21
34312.49999999999
 31
117300.0
  0
LINE
  5
7D
330
17
100
AcDbEntity
  8
0
 62
1
100
AcDbLine
 10
-34312.5
 20
4.202069329574355e-12
 30
117300.0
 11
-68625.0
 21
8.40413865914871e-12
 31
117300.0
  0
LINE
  5
7E
330
17
100
AcDbEntity
  8
0
 62
1
100
AcDbLine
 10
-29715.496667353556
 20
-17156.249999999993
 30
117300.0
 11
-59430.99333470711
 21
-34312.499999999985
 31
117300.0
  0
LINE
  5
7F
330
17
100
AcDbEntity
  8
0
 62
1
100
AcDbLine
 10
-17156.250000000015
 20
-29715.496667353542
 30
117300.0
 11
-34312.50000000003
 21
-59430.993334707084
 31
117300.0
  0
LINE
  5
80
330
17
100
AcDbEntity
  8
0
 62
1
100
AcDbLine
 10
-6.3031039943615334e-12
 20
-34312.5
 30
117300.0
 11
-1.2606207988723067e-11
 21
-68625.0
 31
117300.0
  0
LINE
  5
81
330
17
100
AcDbEntity
  8
0
 62
1
100
AcDbLine
 10
17156.250000000004
 20
-29715.49666735355
 30
117300.0
 11
34312.50000000001
 21
-59430.9933347071
 31
117300.0
  0
LINE
  5
82
330
17
100
AcDbEntity
  8
0
 62
1
100
AcDbLine
 10
29715.496667353542
 20
-17156.250000000015
 30
117300.0
 11
59430.993334707084
 21
-34312.50000000003
 31
117300.0
  0
LINE
  5
83
330
17
100
AcDbEntity
  8
0
 62
1
100
AcDbLine
 10
33187.5
 20
0.0
 30
158700.0
 11
66375.0
 21
0.0
 31
158700.0
  0
LINE
  5
84
330
17
100
AcDbEntity
  8
0
 62
1
100
AcDbLine
 10
28741.21808809606
 20
16593.749999999996
 30
158700.0
 11
57482.43617619212
 21
33187.49999999999
 31
158700.0
  0
LINE
  5
85
330
17
100
AcDbEntity
  8
0
 62
1
100
AcDbLine
 10
16593.750000000004
 20
28741.218088096055
 30
158700.0
 11
33187.50000000001
 21
57482.43617619211
 31
158700.0
  0
LINE
  5
86
330
17
100
AcDbEntity
  8
0
 62
1
100
AcDbLine
 10
2.0321482823351394e-12
 20
33187.5
 30
158700.0
 11
4.064296564670279e-12
 21
66375.0
 31
158700.0
  0
LINE
  5
87
330
17
100
AcDbEntity
  8
0
 62
1
100
AcDbLine
 10
-16593.749999999993
 20
28741.21808809606
 30
158700.0
 11
-33187.499999999985
 21
57482.43617619212
 31
158700.0
  0
LINE
  5
88
330
17
100
AcDbEntity
  8
0
 62
1
100
AcDbLine
 10
-28741.21808809606
 20
16593.749999999996
 30
158700.0
 11
-57482.43617619212
 21
33187.49999999999
 31
158700.0
  0
LINE
  5
89
330
17
100
AcDbEntity
  8
0
 62
1
100
AcDbLine
 10
-33187.5
 20
4.064296564670279e-12
 30
158700.0
 11
-66375.0
 21
8.128593129340558e-12
 31
158700.0
  0
LINE
  5
8A
330
17
100
AcDbEntity
  8
0
 62
1
100
AcDbLine
 10
-28741.218088096062
 20
-16593.749999999993
 30
158700.0
 11
-57482.436176192125
 21
-33187.499999999985
 31
158700.0
  0
LINE
  5
8B
330
17
100
AcDbEntity
  8
0
 62
1
100
AcDbLine
 10
-16593.750000000015
 20
-28741.218088096048
 30
158700.0
 11
-33187.50000000003
 21
-57482.436176192095
 31
158700.0
  0
LINE
  5
8C
330
17
100
AcDbEntity
  8
0
 62
1
100
AcDbLine
 10
-6.096444847005417e-12
 20
-33187.5
 30
158700.0
 11
-1.2192889694010834e-11
 21
-66375.0
 31
158700.0
  0
LINE
  5
8D
330
17
100
AcDbEntity
  8
0
 62
1
100
AcDbLine
 10
16593.750000000004
 20
-28741.218088096055
 30
158700.0
 11
33187.50000000001
 21
-57482.43617619211
 31
158700.0
  0
LINE
  5
8E
330
17
100
AcDbEntity
  8
0
 62
1
100
AcDbLine
 10
28741.218088096048
 20
-16593.750000000015
 30
158700.0
 11
57482.436176192095
 21
-33187.50000000003
 31
158700.0
  0
LINE
  5
8F
330
17
100
AcDbEntity
  8
0
 62
1
100
AcDbLine
 10
32062.5
 20
0.0
 30
200100.0
 11
64125.0
 21
0.0
 31
200100.0
  0
LINE
  5
90
330
17
100
AcDbEntity
  8
0
 62
1
100
AcDbLine
 10
27766.939508838565
 20
16031.249999999998
 30
200100.0
 11
55533.87901767713
 21
32062.499999999996
 31
200100.0
  0
LINE
  5
91
330
17
100
AcDbEntity
  8
0
 62
1
100
AcDbLine
 10
16031.250000000004
 20
27766.93950883856
 30
200100.0
 11
32062.500000000007
 21
55533.87901767712
 31
200100.0
  0
LINE
  5
92
330
17
100
AcDbEntity
  8
0
 62
1
100
AcDbLine
 10
1.9632618998831007e-12
 20
32062.5
 30
200100.0
 11
3.9265237997662014e-12
 21
64125.0
 31
200100.0
  0
LINE
  5
93
330
17
100
AcDbEntity
  8
0
 62
1
100
AcDbLine
 10
-16031.249999999995
 20
27766.939508838565
 30
200100.0
 11
-32062.49999999999
 21
55533.87901767713
 31
200100.0
  0
LINE
  5
94
330
17
100
AcDbEntity
  8
0
 62
1
100
AcDbLine
 10
-27766.939508838565
 20
16031.249999999998
 30
200100.0
 11
-55533.87901767713
 21
32062.499999999996
 31
200100.0
  0
LINE
  5
95
330
17
100
AcDbEntity
  8
0
 62
1
100
AcDbLine
 10
-32062.5
 20
3.9265237997662014e-12
 30
200100.0
 11
-64125.0
 21
7.853047599532403e-12
 31
200100.0
  0
LINE
  5
96
330
17
100
AcDbEntity
  8
0
 62
1
100
AcDbLine
 10
-27766.939508838568
 20
-16031.249999999993
 30
200100.0
 11
-55533.879017677136
 21
-32062.499999999985
 31
200100.0
  0
LINE
  5
97
330
17
100
AcDbEntity
  8
0
 62
1
100
AcDbLine
 10
-16031.250000000015
 20
-27766.939508838554
 30
200100.0
 11
-32062.50000000003
 21
-55533.87901767711
 31
200100.0
  0
LINE
  5
98
330
17
100
AcDbEntity
  8
0
 62
1
100
AcDbLine
 10
-5.889785699649301e-12
 20
-32062.5
 30
200100.0
 11
-1.1779571399298603e-11
 21
-64125.0
 31
200100.0
  0
LINE
  5
99
330
17
100
AcDbEntity
  8
0
 62
1
100
AcDbLine
 10
16031.250000000004
 20
-27766.93950883856
 30
200100.0
 11
32062.500000000007
 21
-55533.87901767712
 31
200100.0
  0
LINE
  5
9A
330
17
100
AcDbEntity
  8
0
 62
1
100
AcDbLine
 10
27766.939508838554
 20
-16031.250000000015
 30
200100.0
 11
55533.87901767711
 21
-32062.50000000003
 31
200100.0
  0
LINE
  5
9B
330
17
100
AcDbEntity
  8
0
 62
1
100
AcDbLine
 10
30937.5
 20
0.0
 30
241500.0
 11
61875.0
 21
0.0
 31
241500.0
  0
LINE
  5
9C
330
17
100
AcDbEntity
  8
0
 62
1
100
AcDbLine
 10
26792.660929581074
 20
15468.749999999998
 30
241500.0
 11
53585.32185916215
 21
30937.499999999996
 31
241500.0
  0
LINE
  5
9D
330
17
100
AcDbEntity
  8
0
 62
1
100
AcDbLine
 10
15468.750000000004
 20
26792.66092958107
 30
241500.0
 11
30937.500000000007
 21
53585.32185916214
 31
241500.0
  0
LINE
  5
9E
330
17
100
AcDbEntity
  8
0
 62
1
100
AcDbLine
 10
1.894375517431062e-12
 20
30937.5
 30
241500.0
 11
3.788751034862124e-12
 21
61875.0
 31
241500.0
  0
LINE
  5
9F
330
17
100
AcDbEntity
  8
0
 62
1
100
AcDbLine
 10
-15468.749999999995
 20
26792.660929581074
 30
241500.0
 11
-30937.49999999999
 21
53585.32185916215
 31
241500.0
  0
LINE
  5
A0
330
17
100
AcDbEntity
  8
0
 62
1
100
AcDbLine
 10
-26792.660929581074
 20
15468.749999999998
 30
241500.0
 11
-53585.32185916215
 21
30937.499999999996
 31
241500.0
  0
LINE
  5
A1
330
17
100
AcDbEntity
  8
0
 62
1
100
AcDbLine
 10
-30937.5
 20
3.788751034862124e-12
 30
241500.0
 11
-61875.0
 21
7.577502069724248e-12
 31
241500.0
  0
LINE
  5
A2
330
17
100
AcDbEntity
  8
0
 62
1
100
AcDbLine
 10
-26792.660929581078
 20
-15468.749999999993
 30
241500.0
 11
-53585.321859162155
 21
-30937.499999999985
 31
241500.0
  0
LINE
  5
A3
330
17
100
AcDbEntity
  8
0
 62
1
100
AcDbLine
 10
-15468.750000000015
 20
-26792.660929581063
 30
241500.0
 11
-30937.50000000003
 21
-53585.321859162126
 31
241500.0
  0
LINE
  5
A4
330
17
100
AcDbEntity
  8
0
 62
1
100
AcDbLine
 10
-5.683126552293186e-12
 20
-30937.5
 30
241500.0
 11
-1.1366253104586371e-11
 21
-61875.0
 31
241500.0
  0
LINE
  5
A5
330
17
100
AcDbEntity
  8
0
 62
1
100
AcDbLine
 10
15468.750000000004
 20
-26792.66092958107
 30
241500.0
 11
30937.500000000007
 21
-53585.32185916214
 31
241500.0
  0
LINE
  5
A6
330
17
100
AcDbEntity
  8
0
 62
1
100
AcDbLine
 10
26792.660929581063
 20
-15468.750000000015
 30
241500.0
 11
53585.321859162126
 21
-30937.50000000003
 31
241500.0
  0
LINE
  5
A7
330
17
100
AcDbEntity
  8
0
 62
1
100
AcDbLine
 10
29812.5
 20
0.0
 30
282900.0
 11
59625.0
 21
0.0
 31
282900.0
  0
LINE
  5
A8
330
17
100
AcDbEntity
  8
0
 62
1
100
AcDbLine
 10
25818.38235032358
 20
14906.249999999998
 30
282900.0
 11
51636.76470064716
 21
29812.499999999996
 31
282900.0
  0
LINE
  5
A9
330
17
100
AcDbEntity
  8
0
 62
1
100
AcDbLine
 10
14906.250000000004
 20
25818.382350323576
 30
282900.0
 11
29812.500000000007
 21
51636.76470064715
 31
282900.0
  0
LINE
  5
AA
330
17
100
AcDbEntity
  8
0
 62
1
100
AcDbLine
 10
1.8254891349790233e-12
 20
29812.5
 30
282900.0
 11
3.650978269958047e-12
 21
59625.0
 31
282900.0
  0
LINE
  5
AB
330
17
100
AcDbEntity
  8
0
 62
1
100
AcDbLine
 10
-14906.249999999995
 20
25818.38235032358
 30
282900.0
 11
-29812.49999999999
 21
51636.76470064716
 31
282900.0
  0
LINE
  5
AC
330
17
100
AcDbEntity
  8
0
 62
1
100
AcDbLine
 10
-25818.38235032358
 20
14906.249999999998
 30
282900.0
 11
-51636.76470064716
 21
29812.499999999996
 31
282900.0
  0
LINE
  5
AD
330
17
100
AcDbEntity
  8
0
 62
1
100
AcDbLine
 10
-29812.5
 20
3.650978269958047e-12
 30
282900.0
 11
-59625.0
 21
7.301956539916093e-12
 31
282900.0
  0
LINE
  5
AE
330
17
100
AcDbEntity
  8
0
 62
1
100
AcDbLine
 10
-25818.382350323584
 20
-14906.249999999993
 30
282900.0
 11
-51636.76470064717
 21
-29812.499999999985
 31
282900.0
  0
LINE
  5
AF
330
17
100
AcDbEntity
  8
0
 62
1
100
AcDbLine
 10
-14906.250000000013
 20
-25818.38235032357
 30
282900.0
 11
-29812.500000000025
 21
-51636.76470064714
 31
282900.0
  0
LINE
  5
B0
330
17
100
AcDbEntity
  8
0
 62
1
100
AcDbLine
 10
-5.47646740493707e-12
 20
-29812.5
 30
282900.0
 11
-1.095293480987414e-11
 21
-59625.0
 31
282900.0
  0
LINE
  5
B1
330
17
100
AcDbEntity
  8
0
 62
1
100
AcDbLine
 10
14906.250000000004
 20
-25818.382350323576
 30
282900.0
 11
29812.500000000007
 21
-51636.76470064715
 31
282900.0
  0
LINE
  5
B2
330
17
100
AcDbEntity
  8
0
 62
1
100
AcDbLine
 10
25818.38235032357
 20
-14906.250000000013
 30
282900.0
 11
51636.76470064714
 21
-29812.500000000025
 31
282900.0
  0
LINE
  5
B3
330
17
100
AcDbEntity
  8
0
 62
1
100
AcDbLine
 10
28687.5
 20
0.0
 30
324300.0
 11
57375.0
 21
0.0
 31
324300.0
  0
LINE
  5
B4
330
17
100
AcDbEntity
  8
0
 62
1
100
AcDbLine
 10
24844.103771066086
 20
14343.749999999998
 30
324300.0
 11
49688.20754213217
 21
28687.499999999996
 31
324300.0
  0
LINE
  5
B5
330
17
100
AcDbEntity
  8
0
 62
1
100
AcDbLine
 10
14343.750000000004
 20
24844.103771066082
 30
324300.0
 11
28687.500000000007
 21
49688.207542132164
 31
324300.0
  0
LINE
  5
B6
330
17
100
AcDbEntity
  8
0
 62
1
100
AcDbLine
 10
1.7566027525269848e-12
 20
28687.5
 30
324300.0
 11
3.5132055050539697e-12
 21
57375.0
 31
324300.0
  0
LINE
  5
B7
330
17
100
AcDbEntity
  8
0
 62
1
100
AcDbLine
 10
-14343.749999999995
 20
24844.103771066086
 30
324300.0
 11
-28687.49999999999
 21
49688.20754213217
 31
324300.0
  0
LINE
  5
B8
330
17
100
AcDbEntity
  8
0
 62
1
100
AcDbLine
 10
-24844.103771066086
 20
14343.749999999998
 30
324300.0
 11
-49688.20754213217
 21
28687.499999999996
 31
324300.0
  0
LINE
  5
B9
330
17
100
AcDbEntity
  8
0
 62
1
100
AcDbLine
 10
-28687.5
 20
3.5132055050539697e-12
 30
324300.0
 11
-57375.0
 21
7.026411010107939e-12
 31
324300.0
  0
LINE
  5
BA
330
17
100
AcDbEntity
  8
0
 62
1
100
AcDbLine
 10
-24844.10377106609
 20
-14343.749999999993
 30
324300.0
 11
-49688.20754213218
 21
-28687.499999999985
 31
324300.0
  0
LINE
  5
BB
330
17
100
AcDbEntity
  8
0
 62
1
100
AcDbLine
 10
-14343.750000000013
 20
-24844.103771066075
 30
324300.0
 11
-28687.500000000025
 21
-49688.20754213215
 31
324300.0
  0
LINE
  5
BC
330
17
100
AcDbEntity
  8
0
 62
1
100
AcDbLine
 10
-5.2698082575809535e-12
 20
-28687.5
 30
324300.0
 11
-1.0539616515161907e-11
 21
-57375.0
 31
324300.0
  0
LINE
  5
BD
330
17
100
AcDbEntity
  8
0
 62
1
100
AcDbLine
 10
14343.750000000004
 20
-24844.103771066082
 30
324300.0
 11
28687.500000000007
 21
-49688.207542132164
 31
324300.0
  0
LINE
  5
BE
330
17
100
AcDbEntity
  8
0
 62
1
100
AcDbLine
 10
24844.103771066075
 20
-14343.750000000013
 30
324300.0
 11
49688.20754213215
 21
-28687.500000000025
 31
324300.0
  0
LINE
  5
BF
330
17
100
AcDbEntity
  8
0
 62
1
100
AcDbLine
 10
27562.500000000004
 20
0.0
 30
365700.0
 11
55125.00000000001
 21
0.0
 31
365700.0
  0
LINE
  5
C0
330
17
100
AcDbEntity
  8
0
 62
1
100
AcDbLine
 10
23869.825191808595
 20
13781.25
 30
365700.0
 11
47739.65038361719
 21
27562.5
 31
365700.0
  0
LINE
  5
C1
330
17
100
AcDbEntity
  8
0
 62
1
100
AcDbLine
 10
13781.250000000005
 20
23869.82519180859
 30
365700.0
 11
27562.50000000001
 21
47739.65038361718
 31
365700.0
  0
LINE
  5
C2
330
17
100
AcDbEntity
  8
0
 62
1
100
AcDbLine
 10
1.6877163700749464e-12
 20
27562.500000000004
 30
365700.0
 11
3.3754327401498927e-12
 21
55125.00000000001
 31
365700.0
  0
LINE
  5
C3
330
17
100
AcDbEntity
  8
0
 62
1
100
AcDbLine
 10
-13781.249999999996
 20
23869.825191808595
 30
365700.0
 11
-27562.499999999993
 21
47739.65038361719
 31
365700.0
  0
LINE
  5
C4
330
17
100
AcDbEntity
  8
0
 62
1
100
AcDbLine
 10
-23869.825191808595
 20
13781.25
 30
365700.0
 11
-47739.65038361719
 21
27562.5
 31
365700.0
  0
LINE
  5
C5
330
17
100
AcDbEntity
  8
0
 62
1
100
AcDbLine
 10
-27562.500000000004
 20
3.3754327401498927e-12
 30
365700.0
 11
-55125.00000000001
 21
6.7508654802997855e-12
 31
365700.0
  0
LINE
  5
C6
330
17
100
AcDbEntity
  8
0
 62
1
100
AcDbLine
 10
-23869.8251918086
 20
-13781.249999999996
 30
365700.0
 11
-47739.6503836172
 21
-27562.499999999993
 31
365700.0
  0
LINE
  5
C7
330
17
100
AcDbEntity
  8
0
 62
1
100
AcDbLine
 10
-13781.250000000015
 20
-23869.825191808584
 30
365700.0
 11
-27562.50000000003
 21
-47739.65038361717
 31
365700.0
  0
LINE
  5
C8
330
17
100
AcDbEntity
  8
0
 62
1
100
AcDbLine
 10
-5.063149110224839e-12
 20
-27562.500000000004
 30
365700.0
 11
-1.0126298220449677e-11
 21
-55125.00000000001
 31
365700.0
  0
LINE
  5
C9
330
17
100
AcDbEntity
  8
0
 62
1
100
AcDbLine
 10
13781.250000000005
 20
-23869.82519180859
 30
365700.0
 11
27562.50000000001
 21
-47739.65038361718
 31
365700.0
  0
LINE
  5
CA
330
17
100
AcDbEntity
  8
0
 62
1
100
AcDbLine
 10
23869.825191808584
 20
-13781.250000000015
 30
365700.0
 11
47739.65038361717
 21
-27562.50000000003
 31
365700.0
  0
LINE
  5
CB
330
17
100
AcDbEntity
  8
0
 62
1
100
AcDbLine
 10
26437.500000000004
 20
0.0
 30
407100.0
 11
52875.00000000001
 21
0.0
 31
407100.0
  0
LINE
  5
CC
330
17
100
AcDbEntity
  8
0
 62
1
100
AcDbLine
 10
22895.5466125511
 20
13218.75
 30
407100.0
 11
45791.0932251022
 21
26437.5
 31
407100.0
  0
LINE
  5
CD
330
17
100
AcDbEntity
  8
0
 62
1
100
AcDbLine
 10
13218.750000000005
 20
22895.546612551097
 30
407100.0
 11
26437.50000000001
 21
45791.093225102195
 31
407100.0
  0
LINE
  5
CE
330
17
100
AcDbEntity
  8
0
 62
1
100
AcDbLine
 10
1.6188299876229077e-12
 20
26437.500000000004
 30
407100.0
 11
3.2376599752458154e-12
 21
52875.00000000001
 31
407100.0
  0
LINE
  5
CF
330
17
100
AcDbEntity
  8
0
 62
1
100
AcDbLine
 10
-13218.749999999998
 20
22895.5466125511
 30
407100.0
 11
-26437.499999999996
 21
45791.0932251022
 31
407100.0
  0
LINE
  5
D0
330
17
100
AcDbEntity
  8
0
 62
1
100
AcDbLine
 10
-22895.5466125511
 20
13218.75
 30
407100.0
 11
-45791.0932251022
 21
26437.5
 31
407100.0
  0
LINE
  5
D1
330
17
100
AcDbEntity
  8
0
 62
1
100
AcDbLine
 10
-26437.500000000004
 20
3.2376599752458154e-12
 30
407100.0
 11
-52875.00000000001
 21
6.475319950491631e-12
 31
407100.0
  0
LINE
  5
D2
330
17
100
AcDbEntity
  8
0
 62
1
100
AcDbLine
 10
-22895.546612551105
 20
-13218.749999999996
 30
407100.0
 11
-45791.09322510221
 21
-26437.499999999993
 31
407100.0
  0
LINE
  5
D3
330
17
100
AcDbEntity
  8
0
 62
1
100
AcDbLine
 10
-13218.750000000013
 20
-22895.546612551094
 30
407100.0
 11
-26437.500000000025
 21
-45791.09322510219
 31
407100.0
  0
LINE
  5
D4
330
17
100
AcDbEntity
  8
0
 62
1
100
AcDbLine
 10
-4.856489962868723e-12
 20
-26437.500000000004
 30
407100.0
 11
-9.712979925737446e-12
 21
-52875.00000000001
 31
407100.0
  0
LINE
  5
D5
330
17
100
AcDbEntity
  8
0
 62
1
100
AcDbLine
 10
13218.750000000005
 20
-22895.546612551097
 30
407100.0
 11
26437.50000000001
 21
-45791.093225102195
 31
407100.0
  0
LINE
  5
D6
330
17
100
AcDbEntity
  8
0
 62
1
100
AcDbLine
 10
22895.546612551094
 20
-13218.750000000013
 30
407100.0
 11
45791.09322510219
 21
-26437.500000000025
 31
407100.0
  0
LINE
  5
D7
330
17
100
AcDbEntity
  8
0
 62
1
100
AcDbLine
 10
25312.5
 20
0.0
 30
448500.0
 11
50625.0
 21
0.0
 31
448500.0
  0
LINE
  5
D8
330
17
100
AcDbEntity
  8
0
 62
1
100
AcDbLine
 10
21921.268033293603
 20
12656.249999999998
 30
448500.0
 11
43842.53606658721
 21
25312.499999999996
 31
448500.0
  0
LINE
  5
D9
330
17
100
AcDbEntity
  8
0
 62
1
100
AcDbLine
 10
12656.250000000004
 20
21921.268033293603
 30
448500.0
 11
25312.500000000007
 21
43842.53606658721
 31
448500.0
  0
LINE
  5
DA
330
17
100
AcDbEntity
  8
0
 62
1
100
AcDbLine
 10
1.549943605170869e-12
 20
25312.5
 30
448500.0
 11
3.099887210341738e-12
 21
50625.0
 31
448500.0
  0
LINE
  5
DB
330
17
100
AcDbEntity
  8
0
 62
1
100
AcDbLine
 10
-12656.249999999996
 20
21921.268033293603
 30
448500.0
 11
-25312.499999999993
 21
43842.53606658721
 31
448500.0
  0
LINE
  5
DC
330
17
100
AcDbEntity
  8
0
 62
1
100
AcDbLine
 10
-21921.268033293603
 20
12656.249999999998
 30
448500.0
 11
-43842.53606658721
 21
25312.499999999996
 31
448500.0
  0
LINE
  5
DD
330
17
100
AcDbEntity
  8
0
 62
1
100
AcDbLine
 10
-25312.5
 20
3.099887210341738e-12
 30
448500.0
 11
-50625.0
 21
6.199774420683476e-12
 31
448500.0
  0
LINE
  5
DE
330
17
100
AcDbEntity
  8
0
 62
1
100
AcDbLine
 10
-21921.268033293607
 20
-12656.249999999995
 30
448500.0
 11
-43842.536066587214
 21
-25312.49999999999
 31
448500.0
  0
LINE
  5
DF
330
17
100
AcDbEntity
  8
0
 62
1
100
AcDbLine
 10
-12656.250000000011
 20
-21921.268033293596
 30
448500.0
 11
-25312.500000000022
 21
-43842.53606658719
 31
448500.0
  0
LINE
  5
E0
330
17
100
AcDbEntity
  8
0
 62
1
100
AcDbLine
 10
-4.6498308155126066e-12
 20
-25312.5
 30
448500.0
 11
-9.299661631025213e-12
 21
-50625.0
 31
448500.0
  0
LINE
  5
E1
330
17
100
AcDbEntity
  8
0
 62
1
100
AcDbLine
 10
12656.250000000004
 20
-21921.268033293603
 30
448500.0
 11
25312.500000000007
 21
-43842.53606658721
 31
448500.0
  0
LINE
  5
E2
330
17
100
AcDbEntity
  8
0
 62
1
100
AcDbLine
 10
21921.268033293596
 20
-12656.250000000011
 30
448500.0
 11
43842.53606658719
 21
-25312.500000000022
 31
448500.0
  0
LINE
  5
E3
330
17
100
AcDbEntity
  8
0
 62
1
100
AcDbLine
 10
24187.5
 20
0.0
 30
489900.0
 11
48375.0
 21
0.0
 31
489900.0
  0
LINE
  5
E4
330
17
100
AcDbEntity
  8
0
 62
1
100
AcDbLine
 10
20946.989454036113
 20
12093.749999999998
 30
489900.0
 11
41893.978908072226
 21
24187.499999999996
 31
489900.0
  0
LINE
  5
E5
330
17
100
AcDbEntity
  8
0
 62
1
100
AcDbLine
 10
12093.750000000002
 20
20946.98945403611
 30
489900.0
 11
24187.500000000004
 21
41893.97890807222
 31
489900.0
  0
LINE
  5
E6
330
17
100
AcDbEntity
  8
0
 62
1
100
AcDbLine
 10
1.4810572227188303e-12
 20
24187.5
 30
489900.0
 11
2.9621144454376606e-12
 21
48375.0
 31
489900.0
  0
LINE
  5
E7
330
17
100
AcDbEntity
  8
0
 62
1
100
AcDbLine
 10
-12093.749999999996
 20
20946.989454036113
 30
489900.0
 11
-24187.499999999993
 21
41893.978908072226
 31
489900.0
  0
LINE
  5
E8
330
17
100
AcDbEntity
  8
0
 62
1
100
AcDbLine
 10
-20946.989454036113
 20
12093.749999999998
 30
489900.0
 11
-41893.978908072226
 21
24187.499999999996
 31
489900.0
  0
LINE
  5
E9
330
17
100
AcDbEntity
  8
0
 62
1
100
AcDbLine
 10
-24187.5
 20
2.9621144454376606e-12
 30
489900.0
 11
-48375.0
 21
5.924228890875321e-12
 31
489900.0
  0
LINE
  5
EA
330
17
100
AcDbEntity
  8
0
 62
1
100
AcDbLine
 10
-20946.989454036113
 20
-12093.749999999995
 30
489900.0
 11
-41893.978908072226
 21
-24187.49999999999
 31
489900.0
  0
LINE
  5
EB
330
17
100
AcDbEntity
  8
0
 62
1
100
AcDbLine
 10
-12093.750000000011
 20
-20946.989454036102
 30
489900.0
 11
-24187.500000000022
 21
-41893.978908072204
 31
489900.0
  0
LINE
  5
EC
330
17
100
AcDbEntity
  8
0
 62
1
100
AcDbLine
 10
-4.443171668156491e-12
 20
-24187.5
 30
489900.0
 11
-8.886343336312982e-12
 21
-48375.0
 31
489900.0
  0
LINE
  5
ED
330
17
100
AcDbEntity
  8
0
 62
1
100
AcDbLine
 10
12093.750000000002
 20
-20946.98945403611
 30
489900.0
 11
24187.500000000004
 21
-41893.97890807222
 31
489900.0
  0
LINE
  5
EE
330
17
100
AcDbEntity
  8
0
 62
1
100
AcDbLine
 10
20946.989454036102
 20
-12093.750000000011
 30
489900.0
 11
41893.978908072204
 21
-24187.500000000022
 31
489900.0
  0
LINE
  5
EF
330
17
100
AcDbEntity
  8
0
 62
1
100
AcDbLine
 10
23062.5
 20
0.0
 30
531300.0
 11
46125.0
 21
0.0
 31
531300.0
  0
LINE
  5
F0
330
17
100
AcDbEntity
  8
0
 62
1
100
AcDbLine
 10
19972.71087477862
 20
11531.249999999998
 30
531300.0
 11
39945.42174955724
 21
23062.499999999996
 31
531300.0
  0
LINE
  5
F1
330
17
100
AcDbEntity
  8
0
 62
1
100
AcDbLine
 10
11531.250000000002
 20
19972.710874778615
 30
531300.0
 11
23062.500000000004
 21
39945.42174955723
 31
531300.0
  0
LINE
  5
F2
330
17
100
AcDbEntity
  8
0
 62
1
100
AcDbLine
 10
1.4121708402667916e-12
 20
23062.5
 30
531300.0
 11
2.8243416805335833e-12
 21
46125.0
 31
531300.0
  0
LINE
  5
F3
330
17
100
AcDbEntity
  8
0
 62
1
100
AcDbLine
 10
-11531.249999999996
 20
19972.71087477862
 30
531300.0
 11
-23062.499999999993
 21
39945.42174955724
 31
531300.0
  0
LINE
  5
F4
330
17
100
AcDbEntity
  8
0
 62
1
100
AcDbLine
 10
-19972.71087477862
 20
11531.249999999998
 30
531300.0
 11
-39945.42174955724
 21
23062.499999999996
 31
531300.0
  0
LINE
  5
F5
330
17
100
AcDbEntity
  8
0
 62
1
100
AcDbLine
 10
-23062.5
 20
2.8243416805335833e-12
 30
531300.0
 11
-46125.0
 21
5.6486833610671665e-12
 31
531300.0
  0
LINE
  5
F6
330
17
100
AcDbEntity
  8
0
 62
1
100
AcDbLine
 10
-19972.71087477862
 20
-11531.249999999995
 30
531300.0
 11
-39945.42174955724
 21
-23062.49999999999
 31
531300.0
  0
LINE
  5
F7
330
17
100
AcDbEntity
  8
0
 62
1
100
AcDbLine
 10
-11531.250000000011
 20
-19972.71087477861
 30
531300.0
 11
-23062.500000000022
 21
-39945.42174955722
 31
531300.0
  0
LINE
  5
F8
330
17
100
AcDbEntity
  8
0
 62
1
100
AcDbLine
 10
-4.2365125208003745e-12
 20
-23062.5
 30
531300.0
 11
-8.473025041600749e-12
 21
-46125.0
 31
531300.0
  0
LINE
  5
F9
330
17
100
AcDbEntity
  8
0
 62
1
100
AcDbLine
 10
11531.250000000002
 20
-19972.710874778615
 30
531300.0
 11
23062.500000000004
 21
-39945.42174955723
 31
531300.0
  0
LINE
  5
FA
330
17
100
AcDbEntity
  8
0
 62
1
100
AcDbLine
 10
19972.71087477861
 20
-11531.250000000011
 30
531300.0
 11
39945.42174955722
 21
-23062.500000000022
 31
531300.0
  0
LINE
  5
FB
330
17
100
AcDbEntity
  8
0
 62
1
100
AcDbLine
 10
21937.5
 20
0.0
 30
572700.0
 11
43875.0
 21
0.0
 31
572700.0
  0
LINE
  5
FC
330
17
100
AcDbEntity
  8
0
 62
1
100
AcDbLine
 10
18998.432295521125
 20
10968.749999999998
 30
572700.0
 11
37996.86459104225
 21
21937.499999999996
 31
572700.0
  0
LINE
  5
FD
330
17
100
AcDbEntity
  8
0
 62
1
100
AcDbLine
 10
10968.750000000002
 20
18998.43229552112
 30
572700.0
 11
21937.500000000004
 21
37996.86459104224
 31
572700.0
  0
LINE
  5
FE
330
17
100
AcDbEntity
  8
0
 62
1
100
AcDbLine
 10
1.3432844578147531e-12
 20
21937.5
 30
572700.0
 11
2.6865689156295063e-12
 21
43875.0
 31
572700.0
  0
LINE
  5
FF
330
17
100
AcDbEntity
  8
0
 62
1
100
AcDbLine
 10
-10968.749999999996
 20
18998.432295521125
 30
572700.0
 11
-21937.499999999993
 21
37996.86459104225
 31
572700.0
  0
LINE
  5
100
330
17
100
AcDbEntity
  8
0
 62
1
100
AcDbLine
 10
-18998.432295521125
 20
10968.749999999998
 30
572700.0
 11
-37996.86459104225
 21
21937.499999999996
 31
572700.0
  0
LINE
  5
101
330
17
100
AcDbEntity
  8
0
 62
1
100
AcDbLine
 10
-21937.5
 20
2.6865689156295063e-12
 30
572700.0
 11
-43875.0
 21
5.3731378312590126e-12
 31
572700.0
  0
LINE
  5
102
330
17
100
AcDbEntity
  8
0
 62
1
100
AcDbLine
 10
-18998.43229552113
 20
-10968.749999999995
 30
572700.0
 11
-37996.86459104226
 21
-21937.49999999999
 31
572700.0
  0
LINE
  5
103
330
17
100
AcDbEntity
  8
0
 62
1
100
AcDbLine
 10
-10968.75000000001
 20
-18998.432295521117
 30
572700.0
 11
-21937.50000000002
 21
-37996.864591042235
 31
572700.0
  0
LINE
  5
104
330
17
100
AcDbEntity
  8
0
 62
1
100
AcDbLine
 10
-4.029853373444259e-12
 20
-21937.5
 30
572700.0
 11
-8.059706746888518e-12
 21
-43875.0
 31
572700.0
  0
LINE
  5
105
330
17
100
AcDbEntity
  8
0
 62
1
100
AcDbLine
 10
10968.750000000002
 20
-18998.43229552112
 30
572700.0
 11
21937.500000000004
 21
-37996.86459104224
 31
572700.0
  0
LINE
  5
106
330
17
100
AcDbEntity
  8
0
 62
1
100
AcDbLine
 10
18998.432295521117
 20
-10968.75000000001
 30
572700.0
 11
37996.864591042235
 21
-21937.50000000002
 31
572700.0
  0
LINE
  5
107
330
17
100
AcDbEntity
  8
0
 62
1
100
AcDbLine
 10
20812.499999999996
 20
0.0
 30
614100.0
 11
41624.99999999999
 21
0.0
 31
614100.0
  0
LINE
  5
108
330
17
100
AcDbEntity
  8
0
 62
1
100
AcDbLine
 10
18024.153716263627
 20
10406.249999999996
 30
614100.0
 11
36048.307432527254
 21
20812.499999999993
 31
614100.0
  0
LINE
  5
109
330
17
100
AcDbEntity
  8
0
 62
1
100
AcDbLine
 10
10406.25
 20
18024.153716263627
 30
614100.0
 11
20812.5
 21
36048.307432527254
 31
614100.0
  0
LINE
  5
10A
330
17
100
AcDbEntity
  8
0
 62
1
100
AcDbLine
 10
1.2743980753627143e-12
 20
20812.499999999996
 30
614100.0
 11
2.5487961507254285e-12
 21
41624.99999999999
 31
614100.0
  0
LINE
  5
10B
330
17
100
AcDbEntity
  8
0
 62
1
100
AcDbLine
 10
-10406.249999999995
 20
18024.153716263627
 30
614100.0
 11
-20812.49999999999
 21
36048.307432527254
 31
614100.0
  0
LINE
  5
10C
330
17
100
AcDbEntity
  8
0
 62
1
100
AcDbLine
 10
-18024.153716263627
 20
10406.249999999996
 30
614100.0
 11
-36048.307432527254
 21
20812.499999999993
 31
614100.0
  0
LINE
  5
10D
330
17
100
AcDbEntity
  8
0
 62
1
100
AcDbLine
 10
-20812.499999999996
 20
2.5487961507254285e-12
 30
614100.0
 11
-41624.99999999999
 21
5.097592301450857e-12
 31
614100.0
  0
LINE
  5
10E
330
17
100
AcDbEntity
  8
0
 62
1
100
AcDbLine
 10
-18024.15371626363
 20
-10406.249999999993
 30
614100.0
 11
-36048.30743252726
 21
-20812.499999999985
 31
614100.0
  0
LINE
  5
10F
330
17
100
AcDbEntity
  8
0
 62
1
100
AcDbLine
 10
-10406.250000000007
 20
-18024.15371626362
 30
614100.0
 11
-20812.500000000015
 21
-36048.30743252724
 31
614100.0
  0
LINE
  5
110
330
17
100
AcDbEntity
  8
0
 62
1
100
AcDbLine
 10
-3.823194226088142e-12
 20
-20812.499999999996
 30
614100.0
 11
-7.646388452176285e-12
 21
-41624.99999999999
 31
614100.0
  0
LINE
  5
111
330
17
100
AcDbEntity
  8
0
 62
1
100
AcDbLine
 10
10406.25
 20
-18024.153716263627
 30
614100.0
 11
20812.5
 21
-36048.307432527254
 31
614100.0
  0
LINE
  5
112
330
17
100
AcDbEntity
  8
0
 62
1
100
AcDbLine
 10
18024.15371626362
 20
-10406.250000000007
 30
614100.0
 11
36048.30743252724
 21
-20812.500000000015
 31
614100.0
  0
LINE
  5
113
330
17
100
AcDbEntity
  8
0
 62
1
100
AcDbLine
 10
19687.5
 20
0.0
 30
655500.0
 11
39375.0
 21
0.0
 31
655500.0
  0
LINE
  5
114
330
17
100
AcDbEntity
  8
0
 62
1
100
AcDbLine
 10
17049.875137006136
 20
9843.749999999998
 30
655500.0
 11
34099.75027401227
 21
19687.499999999996
 31
655500.0
  0
LINE
  5
115
330
17
100
AcDbEntity
  8
0
 62
1
100
AcDbLine
 10
9843.750000000002
 20
17049.875137006136
 30
655500.0
 11
19687.500000000004
 21
34099.75027401227
 31
655500.0
  0
LINE
  5
116
330
17
100
AcDbEntity
  8
0
 62
1
100
AcDbLine
 10
1.2055116929106758e-12
 20
19687.5
 30
655500.0
 11
2.4110233858213515e-12
 21
39375.0
 31
655500.0
  0
LINE
  5
117
330
17
100
AcDbEntity
  8
0
 62
1
100
AcDbLine
 10
-9843.749999999996
 20
17049.875137006136
 30
655500.0
 11
-19687.499999999993
 21
34099.75027401227
 31
655500.0
  0
LINE
  5
118
330
17
100
AcDbEntity
  8
0
 62
1
100
AcDbLine
 10
-17049.875137006136
 20
9843.749999999998
 30
655500.0
 11
-34099.75027401227
 21
19687.499999999996
 31
655500.0
  0
LINE
  5
119
330
17
100
AcDbEntity
  8
0
 62
1
100
AcDbLine
 10
-19687.5
 20
2.4110233858213515e-12
 30
655500.0
 11
-39375.0
 21
4.822046771642703e-12
 31
655500.0
  0
LINE
  5
11A
330
17
100
AcDbEntity
  8
0
 62
1
100
AcDbLine
 10
-17049.87513700614
 20
-9843.749999999996
 30
655500.0
 11
-34099.75027401228
 21
-19687.499999999993
 31
655500.0
  0
LINE
  5
11B
330
17
100
AcDbEntity
  8
0
 62
1
100
AcDbLine
 10
-9843.75000000001
 20
-17049.87513700613
 30
655500.0
 11
-19687.50000000002
 21
-34099.75027401226
 31
655500.0
  0
LINE
  5
11C
330
17
100
AcDbEntity
  8
0
 62
1
100
AcDbLine
 10
-3.616535078732027e-12
 20
-19687.5
 30
655500.0
 11
-7.233070157464054e-12
 21
-39375.0
 31
655500.0
  0
LINE
  5
11D
330
17
100
AcDbEntity
  8
0
 62
1
100
AcDbLine
 10
9843.750000000002
 20
-17049.875137006136
 30
655500.0
 11
19687.500000000004
 21
-34099.75027401227
 31
655500.0
  0
LINE
  5
11E
330
17
100
AcDbEntity
  8
0
 62
1
100
AcDbLine
 10
17049.87513700613
 20
-9843.75000000001
 30
655500.0
 11
34099.75027401226
 21
-19687.50000000002
 31
655500.0
  0
LINE
  5
11F
330
17
100
AcDbEntity
  8
0
 62
1
100
AcDbLine
 10
18562.5
 20
0.0
 30
696900.0
 11
37125.0
 21
0.0
 31
696900.0
  0
LINE
  5
120
330
17
100
AcDbEntity
  8
0
 62
1
100
AcDbLine
 10
16075.596557748644
 20
9281.249999999998
 30
696900.0
 11
32151.193115497288
 21
18562.499999999996
 31
696900.0
  0
LINE
  5
121
330
17
100
AcDbEntity
  8
0
 62
1
100
AcDbLine
 10
9281.250000000002
 20
16075.596557748642
 30
696900.0
 11
18562.500000000004
 21
32151.193115497284
 31
696900.0
  0
LINE
  5
122
330
17
100
AcDbEntity
  8
0
 62
1
100
AcDbLine
 10
1.1366253104586373e-12
 20
18562.5
 30
696900.0
 11
2.2732506209172746e-12
 21
37125.0
 31
696900.0
  0
LINE
  5
123
330
17
100
AcDbEntity
  8
0
 62
1
100
AcDbLine
 10
-9281.249999999996
 20
16075.596557748644
 30
696900.0
 11
-18562.499999999993
 21
32151.193115497288
 31
696900.0
  0
LINE
  5
124
330
17
100
AcDbEntity
  8
0
 62
1
100
AcDbLine
 10
-16075.596557748644
 20
9281.249999999998
 30
696900.0
 11
-32151.193115497288
 21
18562.499999999996
 31
696900.0
  0
LINE
  5
125
330
17
100
AcDbEntity
  8
0
 62
1
100
AcDbLine
 10
-18562.5
 20
2.2732506209172746e-12
 30
696900.0
 11
-37125.0
 21
4.546501241834549e-12
 31
696900.0
  0
LINE
  5
126
330
17
100
AcDbEntity
  8
0
 62
1
100
AcDbLine
 10
-16075.596557748646
 20
-9281.249999999996
 30
696900.0
 11
-32151.19311549729
 21
-18562.499999999993
 31
696900.0
  0
LINE
  5
127
330
17
100
AcDbEntity
  8
0
 62
1
100
AcDbLine
 10
-9281.25000000001
 20
-16075.596557748637
 30
696900.0
 11
-18562.50000000002
 21
-32151.193115497274
 31
696900.0
  0
LINE
  5
128
330
17
100
AcDbEntity
  8
0
 62
1
100
AcDbLine
 10
-3.4098759313759115e-12
 20
-18562.5
 30
696900.0
 11
-6.819751862751823e-12
 21
-37125.0
 31
696900.0
  0
LINE
  5
129
330
17
100
AcDbEntity
  8
0
 62
1
100
AcDbLine
 10
9281.250000000002
 20
-16075.596557748642
 30
696900.0
 11
18562.500000000004
 21
-32151.193115497284
 31
696900.0
  0
LINE
  5
12A
330
17
100
AcDbEntity
  8
0
 62
1
100
AcDbLine
 10
16075.596557748637
 20
-9281.25000000001
 30
696900.0
 11
32151.193115497274
 21
-18562.50000000002
 31
696900.0
  0
LINE
  5
12B
330
17
100
AcDbEntity
  8
0
 62
1
100
AcDbLine
 10
17437.5
 20
0.0
 30
738300.0
 11
34875.0
 21
0.0
 31
738300.0
  0
LINE
  5
12C
330
17
100
AcDbEntity
  8
0
 62
1
100
AcDbLine
 10
15101.31797849115
 20
8718.749999999998
 30
738300.0
 11
30202.6359569823
 21
17437.499999999996
 31
738300.0
  0
LINE
  5
12D
330
17
100
AcDbEntity
  8
0
 62
1
100
AcDbLine
 10
8718.750000000002
 20
15101.317978491148
 30
738300.0
 11
17437.500000000004
 21
30202.635956982296
 31
738300.0
  0
LINE
  5
12E
330
17
100
AcDbEntity
  8
0
 62
1
100
AcDbLine
 10
1.0677389280065986e-12
 20
17437.5
 30
738300.0
 11
2.1354778560131972e-12
 21
34875.0
 31
738300.0
  0
LINE
  5
12F
330
17
100
AcDbEntity
  8
0
 62
1
100
AcDbLine
 10
-8718.749999999996
 20
15101.31797849115
 30
738300.0
 11
-17437.499999999993
 21
30202.6359569823
 31
738300.0
  0
LINE
  5
130
330
17
100
AcDbEntity
  8
0
 62
1
100
AcDbLine
 10
-15101.31797849115
 20
8718.749999999998
 30
738300.0
 11
-30202.6359569823
 21
17437.499999999996
 31
738300.0
  0
LINE
  5
131
330
17
100
AcDbEntity
  8
0
 62
1
100
AcDbLine
 10
-17437.5
 20
2.1354778560131972e-12
 30
738300.0
 11
-34875.0
 21
4.2709557120263944e-12
 31
738300.0
  0
LINE
  5
132
330
17
100
AcDbEntity
  8
0
 62
1
100
AcDbLine
 10
-15101.317978491152
 20
-8718.749999999996
 30
738300.0
 11
-30202.635956982303
 21
-17437.499999999993
 31
738300.0
  0
LINE
  5
133
330
17
100
AcDbEntity
  8
0
 62
1
100
AcDbLine
 10
-8718.750000000007
 20
-15101.317978491144
 30
738300.0
 11
-17437.500000000015
 21
-30202.63595698229
 31
738300.0
  0
LINE
  5
134
330
17
100
AcDbEntity
  8
0
 62
1
100
AcDbLine
 10
-3.2032167840197954e-12
 20
-17437.5
 30
738300.0
 11
-6.406433568039591e-12
 21
-34875.0
 31
738300.0
  0
LINE
  5
135
330
17
100
AcDbEntity
  8
0
 62
1
100
AcDbLine
 10
8718.750000000002
 20
-15101.317978491148
 30
738300.0
 11
17437.500000000004
 21
-30202.635956982296
 31
738300.0
  0
LINE
  5
136
330
17
100
AcDbEntity
  8
0
 62
1
100
AcDbLine
 10
15101.317978491144
 20
-8718.750000000007
 30
738300.0
 11
30202.63595698229
 21
-17437.500000000015
 31
738300.0
  0
LINE
  5
137
330
17
100
AcDbEntity
  8
0
 62
1
100
AcDbLine
 10
16312.500000000002
 20
0.0
 30
779700.0
 11
32625.000000000004
 21
0.0
 31
779700.0
  0
LINE
  5
138
330
17
100
AcDbEntity
  8
0
 62
1
100
AcDbLine
 10
14127.039399233658
 20
8156.25
 30
779700.0
 11
28254.078798467315
 21
16312.5
 31
779700.0
  0
LINE
  5
139
330
17
100
AcDbEntity
  8
0
 62
1
100
AcDbLine
 10
8156.250000000003
 20
14127.039399233656
 30
779700.0
 11
16312.500000000005
 21
28254.07879846731
 31
779700.0
  0
LINE
  5
13A
330
17
100
AcDbEntity
  8
0
 62
1
100
AcDbLine
 10
9.988525455545601e-13
 20
16312.500000000002
 30
779700.0
 11
1.9977050911091202e-12
 21
32625.000000000004
 31
779700.0
  0
LINE
  5
13B
330
17
100
AcDbEntity
  8
0
 62
1
100
AcDbLine
 10
-8156.249999999998
 20
14127.039399233658
 30
779700.0
 11
-16312.499999999996
 21
28254.078798467315
 31
779700.0
  0
LINE
  5
13C
330
17
100
AcDbEntity
  8
0
 62
1
100
AcDbLine
 10
-14127.039399233658
 20
8156.25
 30
779700.0
 11
-28254.078798467315
 21
16312.5
 31
779700.0
  0
LINE
  5
13D
330
17
100
AcDbEntity
  8
0
 62
1
100
AcDbLine
 10
-16312.500000000002
 20
1.9977050911091202e-12
 30
779700.0
 11
-32625.000000000004
 21
3.9954101822182405e-12
 31
779700.0
  0
LINE
  5
13E
330
17
100
AcDbEntity
  8
0
 62
1
100
AcDbLine
 10
-14127.03939923366
 20
-8156.249999999997
 30
779700.0
 11
-28254.07879846732
 21
-16312.499999999995
 31
779700.0
  0
LINE
  5
13F
330
17
100
AcDbEntity
  8
0
 62
1
100
AcDbLine
 10
-8156.250000000008
 20
-14127.039399233652
 30
779700.0
 11
-16312.500000000016
 21
-28254.078798467304
 31
779700.0
  0
LINE
  5
140
330
17
100
AcDbEntity
  8
0
 62
1
100
AcDbLine
 10
-2.99655763666368e-12
 20
-16312.500000000002
 30
779700.0
 11
-5.99311527332736e-12
 21
-32625.000000000004
 31
779700.0
  0
LINE
  5
141
330
17
100
AcDbEntity
  8
0
 62
1
100
AcDbLine
 10
8156.250000000003
 20
-14127.039399233656
 30
779700.0
 11
16312.500000000005
 21
-28254.07879846731
 31
779700.0
  0
LINE
  5
142
330
17
100
AcDbEntity
  8
0
 62
1
100
AcDbLine
 10
14127.039399233652
 20
-8156.250000000008
 30
779700.0
 11
28254.078798467304
 21
-16312.500000000016
 31
779700.0
  0
LINE
  5
143
330
17
100
AcDbEntity
  8
0
 62
1
100
AcDbLine
 10
15187.500000000002
 20
0.0
 30
821100.0
 11
30375.000000000004
 21
0.0
 31
821100.0
  0
LINE
  5
144
330
17
100
AcDbEntity
  8
0
 62
1
100
AcDbLine
 10
13152.760819976165
 20
7593.75
 30
821100.0
 11
26305.52163995233
 21
15187.5
 31
821100.0
  0
LINE
  5
145
330
17
100
AcDbEntity
  8
0
 62
1
100
AcDbLine
 10
7593.750000000003
 20
13152.760819976163
 30
821100.0
 11
15187.500000000005
 21
26305.521639952327
 31
821100.0
  0
LINE
  5
146
330
17
100
AcDbEntity
  8
0
 62
1
100
AcDbLine
 10
9.299661631025214e-13
 20
15187.500000000002
 30
821100.0
 11
1.859932326205043e-12
 21
30375.000000000004
 31
821100.0
  0
LINE
  5
147
330
17
100
AcDbEntity
  8
0
 62
1
100
AcDbLine
 10
-7593.749999999998
 20
13152.760819976165
 30
821100.0
 11
-15187.499999999996
 21
26305.52163995233
 31
821100.0
  0
LINE
  5
148
330
17
100
AcDbEntity
  8
0
 62
1
100
AcDbLine
 10
-13152.760819976165
 20
7593.75
 30
821100.0
 11
-26305.52163995233
 21
15187.5
 31
821100.0
  0
LINE
  5
149
330
17
100
AcDbEntity
  8
0
 62
1
100
AcDbLine
 10
-15187.500000000002
 20
1.859932326205043e-12
 30
821100.0
 11
-30375.000000000004
 21
3.719864652410086e-12
 31
821100.0
  0
LINE
  5
14A
330
17
100
AcDbEntity
  8
0
 62
1
100
AcDbLine
 10
-13152.760819976165
 20
-7593.749999999997
 30
821100.0
 11
-26305.52163995233
 21
-15187.499999999995
 31
821100.0
  0
LINE
  5
14B
330
17
100
AcDbEntity
  8
0
 62
1
100
AcDbLine
 10
-7593.750000000007
 20
-13152.76081997616
 30
821100.0
 11
-15187.500000000015
 21
-26305.52163995232
 31
821100.0
  0
LINE
  5
14C
330
17
100
AcDbEntity
  8
0
 62
1
100
AcDbLine
 10
-2.789898489307564e-12
 20
-15187.500000000002
 30
821100.0
 11
-5.579796978615128e-12
 21
-30375.000000000004
 31
821100.0
  0
LINE
  5
14D
330
17
100
AcDbEntity
  8
0
 62
1
100
AcDbLine
 10
7593.750000000003
 20
-13152.760819976163
 30
821100.0
 11
15187.500000000005
 21
-26305.521639952327
 31
821100.0
  0
LINE
  5
14E
330
17
100
AcDbEntity
  8
0
 62
1
100
AcDbLine
 10
13152.76081997616
 20
-7593.750000000007
 30
821100.0
 11
26305.52163995232
 21
-15187.500000000015
 31
821100.0
  0
LINE
  5
14F
330
17
100
AcDbEntity
  8
0
 62
6
100
AcDbLine
 10
35625.0
 20
0.0
 30
69000.0
 11
69375.0
 21
0.0
 31
103500.0
  0
LINE
  5
150
330
17
100
AcDbEntity
  8
0
 62
6
100
AcDbLine
 10
34687.5
 20
0.0
 30
103500.0
 11
69375.0
 21
0.0
 31
69000.0
  0
LINE
  5
151
330
17
100
AcDbEntity
  8
0
 62
6
100
AcDbLine
 10
2.181402110981223e-12
 20
35625.0
 30
69000.0
 11
4.247993584542381e-12
 21
69375.0
 31
103500.0
  0
LINE
  5
152
330
17
100
AcDbEntity
  8
0
 62
6
100
AcDbLine
 10
2.1239967922711907e-12
 20
34687.5
 30
103500.0
 11
4.247993584542381e-12
 21
69375.0
 31
69000.0
  0
LINE
  5
153
330
17
100
AcDbEntity
  8
0
 62
6
100
AcDbLine
 10
-35625.0
 20
4.362804221962446e-12
 30
69000.0
 11
-69375.0
 21
8.495987169084763e-12
 31
103500.0
  0
LINE
  5
154
330
17
100
AcDbEntity
  8
0
 62
6
100
AcDbLine
 10
-34687.5
 20
4.247993584542381e-12
 30
103500.0
 11
-69375.0
 21
8.495987169084763e-12
 31
69000.0
  0
LINE
  5
155
330
17
100
AcDbEntity
  8
0
 62
6
100
AcDbLine
 10
-6.544206332943668e-12
 20
-35625.0
 30
69000.0
 11
-1.2743980753627143e-11
 21
-69375.0
 31
103500.0
  0
LINE
  5
156
330
17
100
AcDbEntity
  8
0
 62
6
100
AcDbLine
 10
-6.371990376813572e-12
 20
-34687.5
 30
103500.0
 11
-1.2743980753627143e-11
 21
-69375.0
 31
69000.0
  0
LINE
  5
157
330
17
100
AcDbEntity
  8
0
 62
6
100
AcDbLine
 10
33750.0
 20
0.0
 30
138000.0
 11
65625.0
 21
0.0
 31
172500.0
  0
LINE
  5
158
330
17
100
AcDbEntity
  8
0
 62
6
100
AcDbLine
 10
32812.5
 20
0.0
 30
172500.0
 11
65625.0
 21
0.0
 31
138000.0
  0
LINE
  5
159
330
17
100
AcDbEntity
  8
0
 62
6
100
AcDbLine
 10
2.0665914735611585e-12
 20
33750.0
 30
138000.0
 11
4.018372309702253e-12
 21
65625.0
 31
172500.0
  0
LINE
  5
15A
330
17
100
AcDbEntity
  8
0
 62
6
100
AcDbLine
 10
2.0091861548511264e-12
 20
32812.5
 30
172500.0
 11
4.018372309702253e-12
 21
65625.0
 31
138000.0
  0
LINE
  5
15B
330
17
100
AcDbEntity
  8
0
 62
6
100
AcDbLine
 10
-33750.0
 20
4.133182947122317e-12
 30
138000.0
 11
-65625.0
 21
8.036744619404505e-12
 31
172500.0
  0
LINE
  5
15C
330
17
100
AcDbEntity
  8
0
 62
6
100
AcDbLine
 10
-32812.5
 20
4.018372309702253e-12
 30
172500.0
 11
-65625.0
 21
8.036744619404505e-12
 31
138000.0
  0
LINE
  5
15D
330
17
100
AcDbEntity
  8
0
 62
6
100
AcDbLine
 10
-6.199774420683475e-12
 20
-33750.0
 30
138000.0
 11
-1.2055116929106757e-11
 21
-65625.0
 31
172500.0
  0
LINE
  5
15E
330
17
100
AcDbEntity
  8
0
 62
6
100
AcDbLine
 10
-6.027558464553379e-12
 20
-32812.5
 30
172500.0
 11
-1.2055116929106757e-11
 21
-65625.0
 31
138000.0
  0
LINE
  5
15F
330
17
100
AcDbEntity
  8
0
 62
6
100
AcDbLine
 10
31875.0
 20
0.0
 30
207000.0
 11
61875.0
 21
0.0
 31
241500.0
  0
LINE
  5
160
330
17
100
AcDbEntity
  8
0
 62
6
100
AcDbLine
 10
30937.5
 20
0.0
 30
241500.0
 11
61875.0
 21
0.0
 31
207000.0
  0
LINE
  5
161
330
17
100
AcDbEntity
  8
0
 62
6
100
AcDbLine
 10
1.951780836141094e-12
 20
31875.0
 30
207000.0
 11
3.788751034862124e-12
 21
61875.0
 31
241500.0
  0
LINE
  5
162
330
17
100
AcDbEntity
  8
0
 62
6
100
AcDbLine
 10
1.894375517431062e-12
 20
30937.5
 30
241500.0
 11
3.788751034862124e-12
 21
61875.0
 31
207000.0
  0
LINE
  5
163
330
17
100
AcDbEntity
  8
0
 62
6
100
AcDbLine
 10
-31875.0
 20
3.903561672282188e-12
 30
207000.0
 11
-61875.0
 21
7.577502069724248e-12
 31
241500.0
  0
LINE
  5
164
330
17
100
AcDbEntity
  8
0
 62
6
100
AcDbLine
 10
-30937.5
 20
3.788751034862124e-12
 30
241500.0
 11
-61875.0
 21
7.577502069724248e-12
 31
207000.0
  0
LINE
  5
165
330
17
100
AcDbEntity
  8
0
 62
6
100
AcDbLine
 10
-5.855342508423282e-12
 20
-31875.0
 30
207000.0
 11
-1.1366253104586371e-11
 21
-61875.0
 31
241500.0
  0
LINE
  5
166
330
17
100
AcDbEntity
  8
0
 62
6
100
AcDbLine
 10
-5.683126552293186e-12
 20
-30937.5
 30
241500.0
 11
-1.1366253104586371e-11
 21
-61875.0
 31
207000.0
  0
LINE
  5
167
330
17
100
AcDbEntity
  8
0
 62
6
100
AcDbLine
 10
30000.0
 20
0.0
 30
276000.0
 11
58125.0
 21
0.0
 31
310500.0
  0
LINE
  5
168
330
17
100
AcDbEntity
  8
0
 62
6
100
AcDbLine
 10
29062.5
 20
0.0
 30
310500.0
 11
58125.0
 21
0.0
 31
276000.0
  0
LINE
  5
169
330
17
100
AcDbEntity
  8
0
 62
6
100
AcDbLine
 10
1.83697019872103e-12
 20
30000.0
 30
276000.0
 11
3.5591297600219954e-12
 21
58125.0
 31
310500.0
  0
LINE
  5
16A
330
17
100
AcDbEntity
  8
0
 62
6
100
AcDbLine
 10
1.7795648800109977e-12
 20
29062.5
 30
310500.0
 11
3.5591297600219954e-12
 21
58125.0
 31
276000.0
  0
LINE
  5
16B
330
17
100
AcDbEntity
  8
0
 62
6
100
AcDbLine
 10
-30000.0
 20
3.67394039744206e-12
 30
276000.0
 11
-58125.0
 21
7.118259520043991e-12
 31
310500.0
  0
LINE
  5
16C
330
17
100
AcDbEntity
  8
0
 62
6
100
AcDbLine
 10
-29062.5
 20
3.5591297600219954e-12
 30
310500.0
 11
-58125.0
 21
7.118259520043991e-12
 31
276000.0
  0
LINE
  5
16D
330
17
100
AcDbEntity
  8
0
 62
6
100
AcDbLine
 10
-5.510910596163089e-12
 20
-30000.0
 30
276000.0
 11
-1.0677389280065985e-11
 21
-58125.0
 31
310500.0
  0
LINE
  5
16E
330
17
100
AcDbEntity
  8
0
 62
6
100
AcDbLine
 10
-5.338694640032993e-12
 20
-29062.5
 30
310500.0
 11
-1.0677389280065985e-11
 21
-58125.0
 31
276000.0
  0
LINE
  5
16F
330
17
100
AcDbEntity
  8
0
 62
6
100
AcDbLine
 10
28125.0
 20
0.0
 30
345000.0
 11
54375.00000000001
 21
0.0
 31
379500.0
  0
LINE
  5
170
330
17
100
AcDbEntity
  8
0
 62
6
100
AcDbLine
 10
27187.500000000004
 20
0.0
 30
379500.0
 11
54375.00000000001
 21
0.0
 31
345000.0
  0
LINE
  5
171
330
17
100
AcDbEntity
  8
0
 62
6
100
AcDbLine
 10
1.7221595613009655e-12
 20
28125.0
 30
345000.0
 11
3.329508485181867e-12
 21
54375.00000000001
 31
379500.0
  0
LINE
  5
172
330
17
100
AcDbEntity
  8
0
 62
6
100
AcDbLine
 10
1.6647542425909335e-12
 20
27187.500000000004
 30
379500.0
 11
3.329508485181867e-12
 21
54375.00000000001
 31
345000.0
  0
LINE
  5
173
330
17
100
AcDbEntity
  8
0
 62
6
100
AcDbLine
 10
-28125.0
 20
3.444319122601931e-12
 30
345000.0
 11
-54375.00000000001
 21
6.659016970363734e-12
 31
379500.0
  0
LINE
  5
174
330
17
100
AcDbEntity
  8
0
 62
6
100
AcDbLine
 10
-27187.500000000004
 20
3.329508485181867e-12
 30
379500.0
 11
-54375.00000000001
 21
6.659016970363734e-12
 31
345000.0
  0
LINE
  5
175
330
17
100
AcDbEntity
  8
0
 62
6
100
AcDbLine
 10
-5.166478683902896e-12
 20
-28125.0
 30
345000.0
 11
-9.988525455545601e-12
 21
-54375.00000000001
 31
379500.0
  0
LINE
  5
176
330
17
100
AcDbEntity
  8
0
 62
6
100
AcDbLine
 10
-4.9942627277728004e-12
 20
-27187.500000000004
 30
379500.0
 11
-9.988525455545601e-12
 21
-54375.00000000001
 31
345000.0
  0
LINE
  5
177
330
17
100
AcDbEntity
  8
0
 62
6
100
AcDbLine
 10
26250.0
 20
0.0
 30
414000.0
 11
50625.0
 21
0.0
 31
448500.0
  0
LINE
  5
178
330
17
100
AcDbEntity
  8
0
 62
6
100
AcDbLine
 10
25312.5
 20
0.0
 30
448500.0
 11
50625.0
 21
0.0
 31
414000.0
  0
LINE
  5
179
330
17
100
AcDbEntity
  8
0
 62
6
100
AcDbLine
 10
1.6073489238809012e-12
 20
26250.0
 30
414000.0
 11
3.099887210341738e-12
 21
50625.0
 31
448500.0
  0
LINE
  5
17A
330
17
100
AcDbEntity
  8
0
 62
6
100
AcDbLine
 10
1.549943605170869e-12
 20
25312.5
 30
448500.0
 11
3.099887210341738e-12
 21
50625.0
 31
414000.0
  0
LINE
  5
17B
330
17
100
AcDbEntity
  8
0
 62
6
100
AcDbLine
 10
-26250.0
 20
3.2146978477618023e-12
 30
414000.0
 11
-50625.0
 21
6.199774420683476e-12
 31
448500.0
  0
LINE
  5
17C
330
17
100
AcDbEntity
  8
0
 62
6
100
AcDbLine
 10
-25312.5
 20
3.099887210341738e-12
 30
448500.0
 11
-50625.0
 21
6.199774420683476e-12
 31
414000.0
  0
LINE
  5
17D
330
17
100
AcDbEntity
  8
0
 62
6
100
AcDbLine
 10
-4.822046771642703e-12
 20
-26250.0
 30
414000.0
 11
-9.299661631025213e-12
 21
-50625.0
 31
448500.0
  0
LINE
  5
17E
330
17
100
AcDbEntity
  8
0
 62
6
100
AcDbLine
 10
-4.6498308155126066e-12
 20
-25312.5
 30
448500.0
 11
-9.299661631025213e-12
 21
-50625.0
 31
414000.0
  0
LINE
  5
17F
330
17
100
AcDbEntity
  8
0
 62
6
100
AcDbLine
 10
24374.999999999996
 20
0.0
 30
483000.0
 11
46875.0
 21
0.0
 31
517500.0
  0
LINE
  5
180
330
17
100
AcDbEntity
  8
0
 62
6
100
AcDbLine
 10
23437.5
 20
0.0
 30
517500.0
 11
46875.0
 21
0.0
 31
483000.0
  0
LINE
  5
181
330
17
100
AcDbEntity
  8
0
 62
6
100
AcDbLine
 10
1.4925382864608364e-12
 20
24374.999999999996
 30
483000.0
 11
2.870265935501609e-12
 21
46875.0
 31
517500.0
  0
LINE
  5
182
330
17
100
AcDbEntity
  8
0
 62
6
100
AcDbLine
 10
1.4351329677508045e-12
 20
23437.5
 30
517500.0
 11
2.870265935501609e-12
 21
46875.0
 31
483000.0
  0
LINE
  5
183
330
17
100
AcDbEntity
  8
0
 62
6
100
AcDbLine
 10
-24374.999999999996
 20
2.985076572921673e-12
 30
483000.0
 11
-46875.0
 21
5.740531871003218e-12
 31
517500.0
  0
LINE
  5
184
330
17
100
AcDbEntity
  8
0
 62
6
100
AcDbLine
 10
-23437.5
 20
2.870265935501609e-12
 30
517500.0
 11
-46875.0
 21
5.740531871003218e-12
 31
483000.0
  0
LINE
  5
185
330
17
100
AcDbEntity
  8
0
 62
6
100
AcDbLine
 10
-4.477614859382509e-12
 20
-24374.999999999996
 30
483000.0
 11
-8.610797806504827e-12
 21
-46875.0
 31
517500.0
  0
LINE
  5
186
330
17
100
AcDbEntity
  8
0
 62
6
100
AcDbLine
 10
-4.3053989032524136e-12
 20
-23437.5
 30
517500.0
 11
-8.610797806504827e-12
 21
-46875.0
 31
483000.0
  0
LINE
  5
187
330
17
100
AcDbEntity
  8
0
 62
6
100
AcDbLine
 10
22500.000000000004
 20
0.0
 30
552000.0
 11
43125.0
 21
0.0
 31
586500.0
  0
LINE
  5
188
330
17
100
AcDbEntity
  8
0
 62
6
100
AcDbLine
 10
21562.5
 20
0.0
 30
586500.0
 11
43125.0
 21
0.0
 31
552000.0
  0
LINE
  5
189
330
17
100
AcDbEntity
  8
0
 62
6
100
AcDbLine
 10
1.3777276490407725e-12
 20
22500.000000000004
 30
552000.0
 11
2.6406446606614802e-12
 21
43125.0
 31
586500.0
  0
LINE
  5
18A
330
17
100
AcDbEntity
  8
0
 62
6
100
AcDbLine
 10
1.3203223303307401e-12
 20
21562.5
 30
586500.0
 11
2.6406446606614802e-12
 21
43125.0
 31
552000.0
  0
LINE
  5
18B
330
17
100
AcDbEntity
  8
0
 62
6
100
AcDbLine
 10
-22500.000000000004
 20
2.755455298081545e-12
 30
552000.0
 11
-43125.0
 21
5.2812893213229605e-12
 31
586500.0
  0
LINE
  5
18C
330
17
100
AcDbEntity
  8
0
 62
6
100
AcDbLine
 10
-21562.5
 20
2.6406446606614802e-12
 30
586500.0
 11
-43125.0
 21
5.2812893213229605e-12
 31
552000.0
  0
LINE
  5
18D
330
17
100
AcDbEntity
  8
0
 62
6
100
AcDbLine
 10
-4.133182947122318e-12
 20
-22500.000000000004
 30
552000.0
 11
-7.921933981984441e-12
 21
-43125.0
 31
586500.0
  0
LINE
  5
18E
330
17
100
AcDbEntity
  8
0
 62
6
100
AcDbLine
 10
-3.9609669909922205e-12
 20
-21562.5
 30
586500.0
 11
-7.921933981984441e-12
 21
-43125.0
 31
552000.0
  0
LINE
  5
18F
330
17
100
AcDbEntity
  8
0
 62
6
100
AcDbLine
 10
20625.0
 20
0.0
 30
621000.0
 11
39375.0
 21
0.0
 31
655500.0
  0
LINE
  5
190
330
17
100
AcDbEntity
  8
0
 62
6
100
AcDbLine
 10
19687.5
 20
0.0
 30
655500.0
 11
39375.0
 21
0.0
 31
621000.0
  0
LINE
  5
191
330
17
100
AcDbEntity
  8
0
 62
6
100
AcDbLine
 10
1.262917011620708e-12
 20
20625.0
 30
621000.0
 11
2.4110233858213515e-12
 21
39375.0
 31
655500.0
  0
LINE
  5
192
330
17
100
AcDbEntity
  8
0
 62
6
100
AcDbLine
 10
1.2055116929106758e-12
 20
19687.5
 30
655500.0
 11
2.4110233858213515e-12
 21
39375.0
 31
621000.0
  0
LINE
  5
193
330
17
100
AcDbEntity
  8
0
 62
6
100
AcDbLine
 10
-20625.0
 20
2.525834023241416e-12
 30
621000.0
 11
-39375.0
 21
4.822046771642703e-12
 31
655500.0
  0
LINE
  5
194
330
17
100
AcDbEntity
  8
0
 62
6
100
AcDbLine
 10
-19687.5
 20
2.4110233858213515e-12
 30
655500.0
 11
-39375.0
 21
4.822046771642703e-12
 31
621000.0
  0
LINE
  5
195
330
17
100
AcDbEntity
  8
0
 62
6
100
AcDbLine
 10
-3.788751034862124e-12
 20
-20625.0
 30
621000.0
 11
-7.233070157464054e-12
 21
-39375.0
 31
655500.0
  0
LINE
  5
196
330
17
100
AcDbEntity
  8
0
 62
6
100
AcDbLine
 10
-3.616535078732027e-12
 20
-19687.5
 30
655500.0
 11
-7.233070157464054e-12
 21
-39375.0
 31
621000.0
  0
LINE
  5
197
330
17
100
AcDbEntity
  8
0
 62
6
100
AcDbLine
 10
18750.0
 20
0.0
 30
690000.0
 11
35625.0
 21
0.0
 31
724500.0
  0
LINE
  5
198
330
17
100
AcDbEntity
  8
0
 62
6
100
AcDbLine
 10
17812.5
 20
0.0
 30
724500.0
 11
35625.0
 21
0.0
 31
690000.0
  0
LINE
  5
199
330
17
100
AcDbEntity
  8
0
 62
6
100
AcDbLine
 10
1.1481063742006436e-12
 20
18750.0
 30
690000.0
 11
2.181402110981223e-12
 21
35625.0
 31
724500.0
  0
LINE
  5
19A
330
17
100
AcDbEntity
  8
0
 62
6
100
AcDbLine
 10
1.0907010554906114e-12
 20
17812.5
 30
724500.0
 11
2.181402110981223e-12
 21
35625.0
 31
690000.0
  0
LINE
  5
19B
330
17
100
AcDbEntity
  8
0
 62
6
100
AcDbLine
 10
-18750.0
 20
2.2962127484012872e-12
 30
690000.0
 11
-35625.0
 21
4.362804221962446e-12
 31
724500.0
  0
LINE
  5
19C
330
17
100
AcDbEntity
  8
0
 62
6
100
AcDbLine
 10
-17812.5
 20
2.181402110981223e-12
 30
724500.0
 11
-35625.0
 21
4.362804221962446e-12
 31
690000.0
  0
LINE
  5
19D
330
17
100
AcDbEntity
  8
0
 62
6
100
AcDbLine
 10
-3.4443191226019306e-12
 20
-18750.0
 30
690000.0
 11
-6.544206332943668e-12
 21
-35625.0
 31
724500.0
  0
LINE
  5
19E
330
17
100
AcDbEntity
  8
0
 62
6
100
AcDbLine
 10
-3.272103166471834e-12
 20
-17812.5
 30
724500.0
 11
-6.544206332943668e-12
 21
-35625.0
 31
690000.0
  0
LINE
  5
19F
330
17
100
AcDbEntity
  8
0
 62
6
100
AcDbLine
 10
16875.000000000004
 20
0.0
 30
759000.0
 11
31875.000000000004
 21
0.0
 31
793500.0
  0
LINE
  5
1A0
330
17
100
AcDbEntity
  8
0
 62
6
100
AcDbLine
 10
15937.500000000002
 20
0.0
 30
793500.0
 11
31875.000000000004
 21
0.0
 31
759000.0
  0
LINE
  5
1A1
330
17
100
AcDbEntity
  8
0
 62
6
100
AcDbLine
 10
1.0332957367805795e-12
 20
16875.000000000004
 30
759000.0
 11
1.9517808361410946e-12
 21
31875.000000000004
 31
793500.0
  0
LINE
  5
1A2
330
17
100
AcDbEntity
  8
0
 62
6
100
AcDbLine
 10
9.758904180705473e-13
 20
15937.500000000002
 30
793500.0
 11
1.9517808361410946e-12
 21
31875.000000000004
 31
759000.0
  0
LINE
  5
1A3
330
17
100
AcDbEntity
  8
0
 62
6
100
AcDbLine
 10
-16875.000000000004
 20
2.066591473561159e-12
 30
759000.0
 11
-31875.000000000004
 21
3.903561672282189e-12
 31
793500.0
  0
LINE
  5
1A4
330
17
100
AcDbEntity
  8
0
 62
6
100
AcDbLine
 10
-15937.500000000002
 20
1.9517808361410946e-12
 30
793500.0
 11
-31875.000000000004
 21
3.903561672282189e-12
 31
759000.0
  0
LINE
  5
1A5
330
17
100
AcDbEntity
  8
0
 62
6
100
AcDbLine
 10
-3.0998872103417384e-12
 20
-16875.000000000004
 30
759000.0
 11
-5.855342508423283e-12
 21
-31875.000000000004
 31
793500.0
  0
LINE
  5
1A6
330
17
100
AcDbEntity
  8
0
 62
6
100
AcDbLine
 10
-2.9276712542116415e-12
 20
-15937.500000000002
 30
793500.0
 11
-5.855342508423283e-12
 21
-31875.000000000004
 31
759000.0
  0
LINE
  5
1A7
330
17
100
AcDbEntity
  8
0
 62
4
100
AcDbLine
 10
10000.0
 20
0.0
 30
828000.0
 11
9500.0
 21
0.0
 31
832000.0
  0
LINE
  5
1A8
330
17
100
AcDbEntity
  8
0
 62
4
100
AcDbLine
 10
6.123233995736766e-13
 20
10000.0
 30
828000.0
 11
5.817072295949928e-13
 21
9500.0
 31
832000.0
  0
LINE
  5
1A9
330
17
100
AcDbEntity
  8
0
 62
4
100
AcDbLine
 10
-10000.0
 20
1.2246467991473533e-12
 30
828000.0
 11
-9500.0
 21
1.1634144591899856e-12
 31
832000.0
  0
LINE
  5
1AA
330
17
100
AcDbEntity
  8
0
 62
4
100
AcDbLine
 10
-1.83697019872103e-12
 20
-10000.0
 30
828000.0
 11
-1.7451216887849781e-12
 21
-9500.0
 31
832000.0
  0
LINE
  5
1AB
330
17
100
AcDbEntity
  8
0
 62
4
100
AcDbLine
 10
9500.0
 20
0.0
 30
832000.0
 11
9000.0
 21
0.0
 31
836000.0
  0
LINE
  5
1AC
330
17
100
AcDbEntity
  8
0
 62
4
100
AcDbLine
 10
5.817072295949928e-13
 20
9500.0
 30
832000.0
 11
5.51091059616309e-13
 21
9000.0
 31
836000.0
  0
LINE
  5
1AD
330
17
100
AcDbEntity
  8
0
 62
4
100
AcDbLine
 10
-9500.0
 20
1.1634144591899856e-12
 30
832000.0
 11
-9000.0
 21
1.102182119232618e-12
 31
836000.0
  0
LINE
  5
1AE
330
17
100
AcDbEntity
  8
0
 62
4
100
AcDbLine
 10
-1.7451216887849781e-12
 20
-9500.0
 30
832000.0
 11
-1.6532731788489266e-12
 21
-9000.0
 31
836000.0
  0
LINE
  5
1AF
330
17
100
AcDbEntity
  8
0
 62
4
100
AcDbLine
 10
9000.0
 20
0.0
 30
836000.0
 11
8500.0
 21
0.0
 31
840000.0
  0
LINE
  5
1B0
330
17
100
AcDbEntity
  8
0
 62
4
100
AcDbLine
 10
5.51091059616309e-13
 20
9000.0
 30
836000.0
 11
5.204748896376251e-13
 21
8500.0
 31
840000.0
  0
LINE
  5
1B1
330
17
100
AcDbEntity
  8
0
 62
4
100
AcDbLine
 10
-9000.0
 20
1.102182119232618e-12
 30
836000.0
 11
-8500.0
 21
1.0409497792752503e-12
 31
840000.0
  0
LINE
  5
1B2
330
17
100
AcDbEntity
  8
0
 62
4
100
AcDbLine
 10
-1.6532731788489266e-12
 20
-9000.0
 30
836000.0
 11
-1.5614246689128753e-12
 21
-8500.0
 31
840000.0
  0
LINE
  5
1B3
330
17
100
AcDbEntity
  8
0
 62
4
100
AcDbLine
 10
8500.0
 20
0.0
 30
840000.0
 11
8000.0
 21
0.0
 31
844000.0
  0
LINE
  5
1B4
330
17
100
AcDbEntity
  8
0
 62
4
100
AcDbLine
 10
5.204748896376251e-13
 20
8500.0
 30
840000.0
 11
4.898587196589413e-13
 21
8000.0
 31
844000.0
  0
LINE
  5
1B5
330
17
100
AcDbEntity
  8
0
 62
4
100
AcDbLine
 10
-8500.0
 20
1.0409497792752503e-12
 30
840000.0
 11
-8000.0
 21
9.797174393178826e-13
 31
844000.0
  0
LINE
  5
1B6
330
17
100
AcDbEntity
  8
0
 62
4
100
AcDbLine
 10
-1.5614246689128753e-12
 20
-8500.0
 30
840000.0
 11
-1.4695761589768238e-12
 21
-8000.0
 31
844000.0
  0
LINE
  5
1B7
330
17
100
AcDbEntity
  8
0
 62
4
100
AcDbLine
 10
8000.0
 20
0.0
 30
844000.0
 11
7500.0
 21
0.0
 31
848000.0
  0
LINE
  5
1B8
330
17
100
AcDbEntity
  8
0
 62
4
100
AcDbLine
 10
4.898587196589413e-13
 20
8000.0
 30
844000.0
 11
4.592425496802575e-13
 21
7500.0
 31
848000.0
  0
LINE
  5
1B9
330
17
100
AcDbEntity
  8
0
 62
4
100
AcDbLine
 10
-8000.0
 20
9.797174393178826e-13
 30
844000.0
 11
-7500.0
 21
9.18485099360515e-13
 31
848000.0
  0
LINE
  5
1BA
330
17
100
AcDbEntity
  8
0
 62
4
100
AcDbLine
 10
-1.4695761589768238e-12
 20
-8000.0
 30
844000.0
 11
-1.3777276490407723e-12
 21
-7500.0
 31
848000.0
  0
LINE
  5
1BB
330
17
100
AcDbEntity
  8
0
 62
4
100
AcDbLine
 10
7500.0
 20
0.0
 30
848000.0
 11
7000.0
 21
0.0
 31
852000.0
  0
LINE
  5
1BC
330
17
100
AcDbEntity
  8
0
 62
4
100
AcDbLine
 10
4.592425496802575e-13
 20
7500.0
 30
848000.0
 11
4.286263797015736e-13
 21
7000.0
 31
852000.0
  0
LINE
  5
1BD
330
17
100
AcDbEntity
  8
0
 62
4
100
AcDbLine
 10
-7500.0
 20
9.18485099360515e-13
 30
848000.0
 11
-7000.0
 21
8.572527594031472e-13
 31
852000.0
  0
LINE
  5
1BE
330
17
100
AcDbEntity
  8
0
 62
4
100
AcDbLine
 10
-1.3777276490407723e-12
 20
-7500.0
 30
848000.0
 11
-1.2858791391047208e-12
 21
-7000.0
 31
852000.0
  0
LINE
  5
1BF
330
17
100
AcDbEntity
  8
0
 62
4
100
AcDbLine
 10
7000.0
 20
0.0
 30
852000.0
 11
6500.0
 21
0.0
 31
856000.0
  0
LINE
  5
1C0
330
17
100
AcDbEntity
  8
0
 62
4
100
AcDbLine
 10
4.286263797015736e-13
 20
7000.0
 30
852000.0
 11
3.980102097228898e-13
 21
6500.0
 31
856000.0
  0
LINE
  5
1C1
330
17
100
AcDbEntity
  8
0
 62
4
100
AcDbLine
 10
-7000.0
 20
8.572527594031472e-13
 30
852000.0
 11
-6500.0
 21
7.960204194457796e-13
 31
856000.0
  0
LINE
  5
1C2
330
17
100
AcDbEntity
  8
0
 62
4
100
AcDbLine
 10
-1.2858791391047208e-12
 20
-7000.0
 30
852000.0
 11
-1.1940306291686693e-12
 21
-6500.0
 31
856000.0
  0
LINE
  5
1C3
330
17
100
AcDbEntity
  8
0
 62
4
100
AcDbLine
 10
6500.0
 20
0.0
 30
856000.0
 11
6000.000000000001
 21
0.0
 31
860000.0
  0
LINE
  5
1C4
330
17
100
AcDbEntity
  8
0
 62
4
100
AcDbLine
 10
3.980102097228898e-13
 20
6500.0
 30
856000.0
 11
3.67394039744206e-13
 21
6000.000000000001
 31
860000.0
  0
LINE
  5
1C5
330
17
100
AcDbEntity
  8
0
 62
4
100
AcDbLine
 10
-6500.0
 20
7.960204194457796e-13
 30
856000.0
 11
-6000.000000000001
 21
7.34788079488412e-13
 31
860000.0
  0
LINE
  5
1C6
330
17
100
AcDbEntity
  8
0
 62
4
100
AcDbLine
 10
-1.1940306291686693e-12
 20
-6500.0
 30
856000.0
 11
-1.102182119232618e-12
 21
-6000.000000000001
 31
860000.0
  0
LINE
  5
1C7
330
17
100
AcDbEntity
  8
0
 62
4
100
AcDbLine
 10
6000.0
 20
0.0
 30
860000.0
 11
5500.0
 21
0.0
 31
864000.0
  0
LINE
  5
1C8
330
17
100
AcDbEntity
  8
0
 62
4
100
AcDbLine
 10
3.6739403974420595e-13
 20
6000.0
 30
860000.0
 11
3.367778697655221e-13
 21
5500.0
 31
864000.0
  0
LINE
  5
1C9
330
17
100
AcDbEntity
  8
0
 62
4
100
AcDbLine
 10
-6000.0
 20
7.347880794884119e-13
 30
860000.0
 11
-5500.0
 21
6.735557395310442e-13
 31
864000.0
  0
LINE
  5
1CA
330
17
100
AcDbEntity
  8
0
 62
4
100
AcDbLine
 10
-1.1021821192326177e-12
 20
-6000.0
 30
860000.0
 11
-1.0103336092965662e-12
 21
-5500.0
 31
864000.0
  0
LINE
  5
1CB
330
17
100
AcDbEntity
  8
0
 62
4
100
AcDbLine
 10
5500.0
 20
0.0
 30
864000.0
 11
5000.0
 21
0.0
 31
868000.0
  0
LINE
  5
1CC
330
17
100
AcDbEntity
  8
0
 62
4
100
AcDbLine
 10
3.367778697655221e-13
 20
5500.0
 30
864000.0
 11
3.061616997868383e-13
 21
5000.0
 31
868000.0
  0
LINE
  5
1CD
330
17
100
AcDbEntity
  8
0
 62
4
100
AcDbLine
 10
-5500.0
 20
6.735557395310442e-13
 30
864000.0
 11
-5000.0
 21
6.123233995736766e-13
 31
868000.0
  0
LINE
  5
1CE
330
17
100
AcDbEntity
  8
0
 62
4
100
AcDbLine
 10
-1.0103336092965662e-12
 20
-5500.0
 30
864000.0
 11
-9.18485099360515e-13
 21
-5000.0
 31
868000.0
  0
LINE
  5
1CF
330
17
100
AcDbEntity
  8
0
 62
4
100
AcDbLine
 10
5000.0
 20
0.0
 30
868000.0
 11
4500.0
 21
0.0
 31
872000.0
  0
LINE
  5
1D0
330
17
100
AcDbEntity
  8
0
 62
4
100
AcDbLine
 10
3.061616997868383e-13
 20
5000.0
 30
868000.0
 11
2.755455298081545e-13
 21
4500.0
 31
872000.0
  0
LINE
  5
1D1
330
17
100
AcDbEntity
  8
0
 62
4
100
AcDbLine
 10
-5000.0
 20
6.123233995736766e-13
 30
868000.0
 11
-4500.0
 21
5.51091059616309e-13
 31
872000.0
  0
LINE
  5
1D2
330
17
100
AcDbEntity
  8
0
 62
4
100
AcDbLine
 10
-9.18485099360515e-13
 20
-5000.0
 30
868000.0
 11
-8.266365894244633e-13
 21
-4500.0
 31
872000.0
  0
LINE
  5
1D3
330
17
100
AcDbEntity
  8
0
 62
4
100
AcDbLine
 10
4500.0
 20
0.0
 30
872000.0
 11
3999.999999999999
 21
0.0
 31
876000.0
  0
LINE
  5
1D4
330
17
100
AcDbEntity
  8
0
 62
4
100
AcDbLine
 10
2.755455298081545e-13
 20
4500.0
 30
872000.0
 11
2.449293598294706e-13
 21
3999.999999999999
 31
876000.0
  0
LINE
  5
1D5
330
17
100
AcDbEntity
  8
0
 62
4
100
AcDbLine
 10
-4500.0
 20
5.51091059616309e-13
 30
872000.0
 11
-3999.999999999999
 21
4.898587196589412e-13
 31
876000.0
  0
LINE
  5
1D6
330
17
100
AcDbEntity
  8
0
 62
4
100
AcDbLine
 10
-8.266365894244633e-13
 20
-4500.0
 30
872000.0
 11
-7.347880794884117e-13
 21
-3999.999999999999
 31
876000.0
  0
LINE
  5
1D7
330
17
100
AcDbEntity
  8
0
 62
4
100
AcDbLine
 10
4000.0
 20
0.0
 30
876000.0
 11
3500.0
 21
0.0
 31
880000.0
  0
LINE
  5
1D8
330
17
100
AcDbEntity
  8
0
 62
4
100
AcDbLine
 10
2.4492935982947065e-13
 20
4000.0
 30
876000.0
 11
2.143131898507868e-13
 21
3500.0
 31
880000.0
  0
LINE
  5
1D9
330
17
100
AcDbEntity
  8
0
 62
4
100
AcDbLine
 10
-4000.0
 20
4.898587196589413e-13
 30
876000.0
 11
-3500.0
 21
4.286263797015736e-13
 31
880000.0
  0
LINE
  5
1DA
330
17
100
AcDbEntity
  8
0
 62
4
100
AcDbLine
 10
-7.347880794884119e-13
 20
-4000.0
 30
876000.0
 11
-6.429395695523604e-13
 21
-3500.0
 31
880000.0
  0
LINE
  5
1DB
330
17
100
AcDbEntity
  8
0
 62
4
100
AcDbLine
 10
3500.0
 20
0.0
 30
880000.0
 11
2999.9999999999995
 21
0.0
 31
884000.0
  0
LINE
  5
1DC
330
17
100
AcDbEntity
  8
0
 62
4
100
AcDbLine
 10
2.143131898507868e-13
 20
3500.0
 30
880000.0
 11
1.8369701987210295e-13
 21
2999.9999999999995
 31
884000.0
  0
LINE
  5
1DD
330
17
100
AcDbEntity
  8
0
 62
4
100
AcDbLine
 10
-3500.0
 20
4.286263797015736e-13
 30
880000.0
 11
-2999.9999999999995
 21
3.673940397442059e-13
 31
884000.0
  0
LINE
  5
1DE
330
17
100
AcDbEntity
  8
0
 62
4
100
AcDbLine
 10
-6.429395695523604e-13
 20
-3500.0
 30
880000.0
 11
-5.510910596163088e-13
 21
-2999.9999999999995
 31
884000.0
  0
LINE
  5
1DF
330
17
100
AcDbEntity
  8
0
 62
4
100
AcDbLine
 10
3000.0000000000005
 20
0.0
 30
884000.0
 11
2500.0
 21
0.0
 31
888000.0
  0
LINE
  5
1E0
330
17
100
AcDbEntity
  8
0
 62
4
100
AcDbLine
 10
1.83697019872103e-13
 20
3000.0000000000005
 30
884000.0
 11
1.5308084989341916e-13
 21
2500.0
 31
888000.0
  0
LINE
  5
1E1
330
17
100
AcDbEntity
  8
0
 62
4
100
AcDbLine
 10
-3000.0000000000005
 20
3.67394039744206e-13
 30
884000.0
 11
-2500.0
 21
3.061616997868383e-13
 31
888000.0
  0
LINE
  5
1E2
330
17
100
AcDbEntity
  8
0
 62
4
100
AcDbLine
 10
-5.51091059616309e-13
 20
-3000.0000000000005
 30
884000.0
 11
-4.592425496802575e-13
 21
-2500.0
 31
888000.0
  0
LINE
  5
1E3
330
17
100
AcDbEntity
  8
0
 62
4
100
AcDbLine
 10
2500.0
 20
0.0
 30
888000.0
 11
1999.9999999999995
 21
0.0
 31
892000.0
  0
LINE
  5
1E4
330
17
100
AcDbEntity
  8
0
 62
4
100
AcDbLine
 10
1.5308084989341916e-13
 20
2500.0
 30
888000.0
 11
1.224646799147353e-13
 21
1999.9999999999995
 31
892000.0
  0
LINE
  5
1E5
330
17
100
AcDbEntity
  8
0
 62
4
100
AcDbLine
 10
-2500.0
 20
3.061616997868383e-13
 30
888000.0
 11
-1999.9999999999995
 21
2.449293598294706e-13
 31
892000.0
  0
LINE
  5
1E6
330
17
100
AcDbEntity
  8
0
 62
4
100
AcDbLine
 10
-4.592425496802575e-13
 20
-2500.0
 30
888000.0
 11
-3.6739403974420585e-13
 21
-1999.9999999999995
 31
892000.0
  0
LINE
  5
1E7
330
17
100
AcDbEntity
  8
0
 62
4
100
AcDbLine
 10
1999.9999999999995
 20
0.0
 30
892000.0
 11
1499.999999999999
 21
0.0
 31
896000.0
  0
LINE
  5
1E8
330
17
100
AcDbEntity
  8
0
 62
4
100
AcDbLine
 10
1.224646799147353e-13
 20
1999.9999999999995
 30
892000.0
 11
9.184850993605144e-14
 21
1499.999999999999
 31
896000.0
  0
LINE
  5
1E9
330
17
100
AcDbEntity
  8
0
 62
4
100
AcDbLine
 10
-1999.9999999999995
 20
2.449293598294706e-13
 30
892000.0
 11
-1499.999999999999
 21
1.8369701987210287e-13
 31
896000.0
  0
LINE
  5
1EA
330
17
100
AcDbEntity
  8
0
 62
4
100
AcDbLine
 10
-3.6739403974420585e-13
 20
-1999.9999999999995
 30
892000.0
 11
-2.755455298081543e-13
 21
-1499.999999999999
 31
896000.0
  0
LINE
  5
1EB
330
17
100
AcDbEntity
  8
0
 62
4
100
AcDbLine
 10
1500.0000000000002
 20
0.0
 30
896000.0
 11
999.9999999999998
 21
0.0
 31
900000.0
  0
LINE
  5
1EC
330
17
100
AcDbEntity
  8
0
 62
4
100
AcDbLine
 10
9.18485099360515e-14
 20
1500.0000000000002
 30
896000.0
 11
6.123233995736765e-14
 21
999.9999999999998
 31
900000.0
  0
LINE
  5
1ED
330
17
100
AcDbEntity
  8
0
 62
4
100
AcDbLine
 10
-1500.0000000000002
 20
1.83697019872103e-13
 30
896000.0
 11
-999.9999999999998
 21
1.224646799147353e-13
 31
900000.0
  0
LINE
  5
1EE
330
17
100
AcDbEntity
  8
0
 62
4
100
AcDbLine
 10
-2.755455298081545e-13
 20
-1500.0000000000002
 30
896000.0
 11
-1.8369701987210292e-13
 21
-999.9999999999998
 31
900000.0
  0
LINE
  5
1EF
330
17
100
AcDbEntity
  8
0
 62
4
100
AcDbLine
 10
999.9999999999998
 20
0.0
 30
900000.0
 11
499.9999999999993
 21
0.0
 31
904000.0
  0
LINE
  5
1F0
330
17
100
AcDbEntity
  8
0
 62
4
100
AcDbLine
 10
6.123233995736765e-14
 20
999.9999999999998
 30
900000.0
 11
3.061616997868379e-14
 21
499.9999999999993
 31
904000.0
  0
LINE
  5
1F1
330
17
100
AcDbEntity
  8
0
 62
4
100
AcDbLine
 10
-999.9999999999998
 20
1.224646799147353e-13
 30
900000.0
 11
-499.9999999999993
 21
6.123233995736757e-14
 31
904000.0
  0
LINE
  5
1F2
330
17
100
AcDbEntity
  8
0
 62
4
100
AcDbLine
 10
-1.8369701987210292e-13
 20
-999.9999999999998
 30
900000.0
 11
-9.184850993605136e-14
 21
-499.9999999999993
 31
904000.0
  0
LINE
  5
1F3
330
17
100
AcDbEntity
  8
0
 62
4
100
AcDbLine
 10
500.00000000000045
 20
0.0
 30
904000.0
 11
0.0
 21
0.0
 31
908000.0
  0
LINE
  5
1F4
330
17
100
AcDbEntity
  8
0
 62
4
100
AcDbLine
 10
3.0616169978683856e-14
 20
500.00000000000045
 30
904000.0
 11
0.0
 21
0.0
 31
908000.0
  0
LINE
  5
1F5
330
17
100
AcDbEntity
  8
0
 62
4
100
AcDbLine
 10
-500.00000000000045
 20
6.123233995736771e-14
 30
904000.0
 11
-0.0
 21
0.0
 31
908000.0
  0
LINE
  5
1F6
330
17
100
AcDbEntity
  8
0
 62
4
100
AcDbLine
 10
-9.184850993605156e-14
 20
-500.00000000000045
 30
904000.0
 11
-0.0
 21
-0.0
 31
908000.0
  0
ENDSEC
  0
SECTION
  2
OBJECTS
  0
DICTIONARY
  5
A
330
0
100
AcDbDictionary
281
1
  3
ACAD_COLOR
350
B
  3
ACAD_GROUP
350
C
  3
ACAD_LAYOUT
350
D
  3
ACAD_MATERIAL
350
E
  3
ACAD_MLEADERSTYLE
350
F
  3
ACAD_MLINESTYLE
350
10
  3
ACAD_PLOTSETTINGS
350
11
  3
ACAD_PLOTSTYLENAME
350
12
  3
ACAD_SCALELIST
350
14
  3
ACAD_TABLESTYLE
350
15
  3
ACAD_VISUALSTYLE
350
16
  3
EZDXF_META
350
2D
  0
DICTIONARY
  5
B
330
A
100
AcDbDictionary
281
1
  0
DICTIONARY
  5
C
330
A
100
AcDbDictionary
281
1
  0
DICTIONARY
  5
D
330
A
100
AcDbDictionary
281
1
  3
Model
350
1A
  3
Layout1
350
1E
  0
DICTIONARY
  5
E
330
A
100
AcDbDictionary
281
1
  3
ByBlock
350
1F
  3
ByLayer
350
20
  3
Global
350
21
  0
DICTIONARY
  5
F
330
A
100
AcDbDictionary
281
1
  3
Standard
350
2C
  0
DICTIONARY
  5
10
330
A
100
AcDbDictionary
281
1
  3
Standard
350
22
  0
DICTIONARY
  5
11
330
A
100
AcDbDictionary
281
1
  0
ACDBDICTIONARYWDFLT
  5
12
330
A
100
AcDbDictionary
281
1
  3
Normal
350
13
100
AcDbDictionaryWithDefault
340
13
  0
ACDBPLACEHOLDER
  5
13
330
12
  0
DICTIONARY
  5
14
330
A
100
AcDbDictionary
281
1
  0
DICTIONARY
  5
15
330
A
100
AcDbDictionary
281
1
  0
DICTIONARY
  5
16
330
A
100
AcDbDictionary
281
1
  0
LAYOUT
  5
1A
330
D
100
AcDbPlotSettings
  1

  4
A3
  6

 40
7.5
 41
20.0
 42
7.5
 43
20.0
 44
420.0
 45
297.0
 46
0.0
 47
0.0
 48
0.0
 49
0.0
140
0.0
141
0.0
142
1.0
143
1.0
 70
1024
 72
1
 73
0
 74
5
  7

 75
16
 76
0
 77
2
 78
300
147
1.0
148
0.0
149
0.0
100
AcDbLayout
  1
Model
 70
1
 71
0
 10
0.0
 20
0.0
 11
420.0
 21
297.0
 12
0.0
 22
0.0
 32
0.0
 14
1e+20
 24
1e+20
 34
1e+20
 15
-1e+20
 25
-1e+20
 35
-1e+20
146
0.0
 13
0.0
 23
0.0
 33
0.0
 16
1.0
 26
0.0
 36
0.0
 17
0.0
 27
1.0
 37
0.0
 76
1
330
17
  0
LAYOUT
  5
1E
330
D
100
AcDbPlotSettings
  1

  4
A3
  6

 40
7.5
 41
20.0
 42
7.5
 43
20.0
 44
420.0
 45
297.0
 46
0.0
 47
0.0
 48
0.0
 49
0.0
140
0.0
141
0.0
142
1.0
143
1.0
 70
0
 72
1
 73
0
 74
5
  7

 75
16
 76
0
 77
2
 78
300
147
1.0
148
0.0
149
0.0
100
AcDbLayout
  1
Layout1
 70
1
 71
1
 10
0.0
 20
0.0
 11
420.0
 21
297.0
 12
0.0
 22
0.0
 32
0.0
 14
1e+20
 24
1e+20
 34
1e+20
 15
-1e+20
 25
-1e+20
 35
-1e+20
146
0.0
 13
0.0
 23
0.0
 33
0.0
 16
1.0
 26
0.0
 36
0.0
 17
0.0
 27
1.0
 37
0.0
 76
1
330
1B
  0
MATERIAL
  5
1F
102
{ACAD_REACTORS
330
E
102
}
330
E
100
AcDbMaterial
  1
ByBlock
  2

 70
0
 40
1.0
 71
1
 41
1.0
 91
-1023410177
 42
1.0
 72
1
  3

 73
1
 74
1
 75
1
 44
0.5
 73
0
 45
1.0
 46
1.0
 77
1
  4

 78
1
 79
1
170
1
 48
1.0
171
1
  6

172
1
173
1
174
1
140
1.0
141
1.0
175
1
  7

176
1
177
1
178
1
143
1.0
179
1
  8

270
1
271
1
272
1
145
1.0
146
1.0
273
1
  9

274
1
275
1
276
1
 42
1.0
 72
1
  3

 73
1
 74
1
 75
1
 94
63
  0
MATERIAL
  5
20
102
{ACAD_REACTORS
330
E
102
}
330
E
100
AcDbMaterial
  1
ByLayer
  2

 70
0
 40
1.0
 71
1
 41
1.0
 91
-1023410177
 42
1.0
 72
1
  3

 73
1
 74
1
 75
1
 44
0.5
 73
0
 45
1.0
 46
1.0
 77
1
  4

 78
1
 79
1
170
1
 48
1.0
171
1
  6

172
1
173
1
174
1
140
1.0
141
1.0
175
1
  7

176
1
177
1
178
1
143
1.0
179
1
  8

270
1
271
1
272
1
145
1.0
146
1.0
273
1
  9

274
1
275
1
276
1
 42
1.0
 72
1
  3

 73
1
 74
1
 75
1
 94
63
  0
MATERIAL
  5
21
102
{ACAD_REACTORS
330
E
102
}
330
E
100
AcDbMaterial
  1
Global
  2

 70
0
 40
1.0
 71
1
 41
1.0
 91
-1023410177
 42
1.0
 72
1
  3

 73
1
 74
1
 75
1
 44
0.5
 73
0
 45
1.0
 46
1.0
 77
1
  4

 78
1
 79
1
170
1
 48
1.0
171
1
  6

172
1
173
1
174
1
140
1.0
141
1.0
175
1
  7

176
1
177
1
178
1
143
1.0
179
1
  8

270
1
271
1
272
1
145
1.0
146
1.0
273
1
  9

274
1
275
1
276
1
 42
1.0
 72
1
  3

 73
1
 74
1
 75
1
 94
63
  0
MLINESTYLE
  5
22
102
{ACAD_REACTORS
330
10
102
}
330
10
100
AcDbMlineStyle
  2
Standard
 70
0
  3

 62
256
 51
90.0
 52
90.0
 71
2
 49
0.5
 62
256
  6
BYLAYER
 49
-0.5
 62
256
  6
BYLAYER
  0
MLEADERSTYLE
  5
2C
102
{ACAD_REACTORS
330
F
102
}
330
F
100
AcDbMLeaderStyle
179
2
170
2
171
1
172
0
 90
2
 40
0.0
 41
0.0
173
1
 91
-1056964608
 92
-2
290
1
 42
2.0
291
1
 43
8.0
  3
Standard
 44
4.0
300

342
29
174
1
175
1
176
0
178
1
 93
-1056964608
 45
4.0
292
0
297
0
 46
4.0
 94
-1056964608
 47
1.0
 49
1.0
140
1.0
294
1
141
0.0
177
0
142
1.0
295
0
296
0
143
3.75
271
0
272
9
273
9
  0
DICTIONARY
  5
2D
330
A
100
AcDbDictionary
280
1
281
1
  3
CREATED_BY_EZDXF
350
2E
  3
WRITTEN_BY_EZDXF
350
1F9
  0
DICTIONARYVAR
  5
2E
330
2D
100
DictionaryVariables
280
0
  1
1.4.3 @ 2025-12-16T18:06:52.395691+00:00
  0
DICTIONARYVAR
  5
1F9
330
2D
100
DictionaryVariables
280
0
  1
1.4.3 @ 2025-12-16T18:06:52.408543+00:00
  0
ENDSEC
  0
EOF
