  0
SECTION
  2
HEADER
  9
$ACADVER
  1
AC1015
  9
$ACADMAINTVER
 70
6
  9
$DWGCODEPAGE
  3
ANSI_1252
  9
$INSBASE
 10
0.0
 20
0.0
 30
0.0
  9
$EXTMIN
 10
1e+20
 20
1e+20
 30
1e+20
  9
$EXTMAX
 10
-1e+20
 20
-1e+20
 30
-1e+20
  9
$LIMMIN
 10
0.0
 20
0.0
  9
$LIMMAX
 10
420.0
 20
297.0
  9
$ORTHOMODE
 70
0
  9
$REGENMODE
 70
1
  9
$FILLMODE
 70
1
  9
$QTEXTMODE
 70
0
  9
$MIRRTEXT
 70
1
  9
$LTSCALE
 40
1.0
  9
$ATTMODE
 70
1
  9
$TEXTSIZE
 40
2.5
  9
$TRACEWID
 40
1.0
  9
$TEXTSTYLE
  7
Standard
  9
$CLAYER
  8
0
  9
$CELTYPE
  6
ByLayer
  9
$CECOLOR
 62
256
  9
$CELTSCALE
 40
1.0
  9
$DISPSILH
 70
0
  9
$DIMSCALE
 40
1.0
  9
$DIMASZ
 40
2.5
  9
$DIMEXO
 40
0.625
  9
$DIMDLI
 40
3.75
  9
$DIMRND
 40
0.0
  9
$DIMDLE
 40
0.0
  9
$DIMEXE
 40
1.25
  9
$DIMTP
 40
0.0
  9
$DIMTM
 40
0.0
  9
$DIMTXT
 40
2.5
  9
$DIMCEN
 40
2.5
  9
$DIMTSZ
 40
0.0
  9
$DIMTOL
 70
0
  9
$DIMLIM
 70
0
  9
$DIMTIH
 70
0
  9
$DIMTOH
 70
0
  9
$DIMSE1
 70
0
  9
$DIMSE2
 70
0
  9
$DIMTAD
 70
1
  9
$DIMZIN
 70
8
  9
$DIMBLK
  1

  9
$DIMASO
 70
1
  9
$DIMSHO
 70
1
  9
$DIMPOST
  1

  9
$DIMAPOST
  1

  9
$DIMALT
 70
0
  9
$DIMALTD
 70
3
  9
$DIMALTF
 40
0.03937007874
  9
$DIMLFAC
 40
1.0
  9
$DIMTOFL
 70
1
  9
$DIMTVP
 40
0.0
  9
$DIMTIX
 70
0
  9
$DIMSOXD
 70
0
  9
$DIMSAH
 70
0
  9
$DIMBLK1
  1

  9
$DIMBLK2
  1

  9
$DIMSTYLE
  2
ISO-25
  9
$DIMCLRD
 70
0
  9
$DIMCLRE
 70
0
  9
$DIMCLRT
 70
0
  9
$DIMTFAC
 40
1.0
  9
$DIMGAP
 40
0.625
  9
$DIMJUST
 70
0
  9
$DIMSD1
 70
0
  9
$DIMSD2
 70
0
  9
$DIMTOLJ
 70
0
  9
$DIMTZIN
 70
8
  9
$DIMALTZ
 70
0
  9
$DIMALTTZ
 70
0
  9
$DIMUPT
 70
0
  9
$DIMDEC
 70
2
  9
$DIMTDEC
 70
2
  9
$DIMALTU
 70
2
  9
$DIMALTTD
 70
3
  9
$DIMTXSTY
  7
Standard
  9
$DIMAUNIT
 70
0
  9
$DIMADEC
 70
0
  9
$DIMALTRND
 40
0.0
  9
$DIMAZIN
 70
0
  9
$DIMDSEP
 70
44
  9
$DIMATFIT
 70
3
  9
$DIMFRAC
 70
0
  9
$DIMLDRBLK
  1

  9
$DIMLUNIT
 70
2
  9
$DIMLWD
 70
-2
  9
$DIMLWE
 70
-2
  9
$DIMTMOVE
 70
0
  9
$LUNITS
 70
2
  9
$LUPREC
 70
4
  9
$SKETCHINC
 40
1.0
  9
$FILLETRAD
 40
10.0
  9
$AUNITS
 70
0
  9
$AUPREC
 70
2
  9
$MENU
  1
.
  9
$ELEVATION
 40
0.0
  9
$PELEVATION
 40
0.0
  9
$THICKNESS
 40
0.0
  9
$LIMCHECK
 70
0
  9
$CHAMFERA
 40
0.0
  9
$CHAMFERB
 40
0.0
  9
$CHAMFERC
 40
0.0
  9
$CHAMFERD
 40
0.0
  9
$SKPOLY
 70
0
  9
$TDCREATE
 40
2461027.012777778
  9
$TDUCREATE
 40
2458532.153996898
  9
$TDUPDATE
 40
2461027.012777778
  9
$TDUUPDATE
 40
2458532.1544311
  9
$TDINDWG
 40
0.0
  9
$TDUSRTIMER
 40
0.0
  9
$USRTIMER
 70
1
  9
$ANGBASE
 50
0.0
  9
$ANGDIR
 70
0
  9
$PDMODE
 70
0
  9
$PDSIZE
 40
0.0
  9
$PLINEWID
 40
0.0
  9
$SPLFRAME
 70
0
  9
$SPLINETYPE
 70
6
  9
$SPLINESEGS
 70
8
  9
$HANDSEED
  5
1FA
  9
$SURFTAB1
 70
6
  9
$SURFTAB2
 70
6
  9
$SURFTYPE
 70
6
  9
$SURFU
 70
6
  9
$SURFV
 70
6
  9
$UCSBASE
  2

  9
$UCSNAME
  2

  9
$UCSORG
 10
0.0
 20
0.0
 30
0.0
  9
$UCSXDIR
 10
1.0
 20
0.0
 30
0.0
  9
$UCSYDIR
 10
0.0
 20
1.0
 30
0.0
  9
$UCSORTHOREF
  2

  9
$UCSORTHOVIEW
 70
0
  9
$UCSORGTOP
 10
0.0
 20
0.0
 30
0.0
  9
$UCSORGBOTTOM
 10
0.0
 20
0.0
 30
0.0
  9
$UCSORGLEFT
 10
0.0
 20
0.0
 30
0.0
  9
$UCSORGRIGHT
 10
0.0
 20
0.0
 30
0.0
  9
$UCSORGFRONT
 10
0.0
 20
0.0
 30
0.0
  9
$UCSORGBACK
 10
0.0
 20
0.0
 30
0.0
  9
$PUCSBASE
  2

  9
$PUCSNAME
  2

  9
$PUCSORG
 10
0.0
 20
0.0
 30
0.0
  9
$PUCSXDIR
 10
1.0
 20
0.0
 30
0.0
  9
$PUCSYDIR
 10
0.0
 20
1.0
 30
0.0
  9
$PUCSORTHOREF
  2

  9
$PUCSORTHOVIEW
 70
0
  9
$PUCSORGTOP
 10
0.0
 20
0.0
 30
0.0
  9
$PUCSORGBOTTOM
 10
0.0
 20
0.0
 30
0.0
  9
$PUCSORGLEFT
 10
0.0
 20
0.0
 30
0.0
  9
$PUCSORGRIGHT
 10
0.0
 20
0.0
 30
0.0
  9
$PUCSORGFRONT
 10
0.0
 20
0.0
 30
0.0
  9
$PUCSORGBACK
 10
0.0
 20
0.0
 30
0.0
  9
$USERI1
 70
0
  9
$USERI2
 70
0
  9
$USERI3
 70
0
  9
$USERI4
 70
0
  9
$USERI5
 70
0
  9
$USERR1
 40
0.0
  9
$USERR2
 40
0.0
  9
$USERR3
 40
0.0
  9
$USERR4
 40
0.0
  9
$USERR5
 40
0.0
  9
$WORLDVIEW
 70
1
  9
$SHADEDGE
 70
3
  9
$SHADEDIF
 70
70
  9
$TILEMODE
 70
1
  9
$MAXACTVP
 70
64
  9
$PINSBASE
 10
0.0
 20
0.0
 30
0.0
  9
$PLIMCHECK
 70
0
  9
$PEXTMIN
 10
1e+20
 20
1e+20
 30
1e+20
  9
$PEXTMAX
 10
-1e+20
 20
-1e+20
 30
-1e+20
  9
$PLIMMIN
 10
0.0
 20
0.0
  9
$PLIMMAX
 10
420.0
 20
297.0
  9
$UNITMODE
 70
0
  9
$VISRETAIN
 70
1
  9
$PLINEGEN
 70
0
  9
$PSLTSCALE
 70
1
  9
$TREEDEPTH
 70
3020
  9
$CMLSTYLE
  2
Standard
  9
$CMLJUST
 70
0
  9
$CMLSCALE
 40
20.0
  9
$PROXYGRAPHICS
 70
1
  9
$MEASUREMENT
 70
1
  9
$CELWEIGHT
370
-1
  9
$ENDCAPS
280
0
  9
$JOINSTYLE
280
0
  9
$LWDISPLAY
290
0
  9
$INSUNITS
 70
6
  9
$HYPERLINKBASE
  1

  9
$STYLESHEET
  1

  9
$XEDIT
290
1
  9
$CEPSNTYPE
380
0
  9
$PSTYLEMODE
290
1
  9
$FINGERPRINTGUID
  2
{D188C8E6-C5AD-4BDA-81C2-85279F9F22A9}
  9
$VERSIONGUID
  2
{D997D9D3-5A63-4A04-A7AA-F965823D3DF2}
  9
$EXTNAMES
290
1
  9
$PSVPSCALE
 40
0.0
  9
$OLESTARTUP
290
0
  0
ENDSEC
  0
SECTION
  2
CLASSES
  0
CLASS
  1
ACDBDICTIONARYWDFLT
  2
AcDbDictionaryWithDefault
  3
ObjectDBX Classes
 90
0
280
0
281
0
  0
CLASS
  1
SUN
  2
AcDbSun
  3
SCENEOE
 90
1153
280
0
281
0
  0
CLASS
  1
VISUALSTYLE
  2
AcDbVisualStyle
  3
ObjectDBX Classes
 90
4095
280
0
281
0
  0
CLASS
  1
MATERIAL
  2
AcDbMaterial
  3
ObjectDBX Classes
 90
1153
280
0
281
0
  0
CLASS
  1
SCALE
  2
AcDbScale
  3
ObjectDBX Classes
 90
1153
280
0
281
0
  0
CLASS
  1
TABLESTYLE
  2
AcDbTableStyle
  3
ObjectDBX Classes
 90
4095
280
0
281
0
  0
CLASS
  1
MLEADERSTYLE
  2
AcDbMLeaderStyle
  3
ACDB_MLEADERSTYLE_CLASS
 90
4095
280
0
281
0
  0
CLASS
  1
DICTIONARYVAR
  2
AcDbDictionaryVar
  3
ObjectDBX Classes
 90
0
280
0
281
0
  0
CLASS
  1
CELLSTYLEMAP
  2
AcDbCellStyleMap
  3
ObjectDBX Classes
 90
1152
280
0
281
0
  0
CLASS
  1
MENTALRAYRENDERSETTINGS
  2
AcDbMentalRayRenderSettings
  3
SCENEOE
 90
1024
280
0
281
0
  0
CLASS
  1
ACDBDETAILVIEWSTYLE
  2
AcDbDetailViewStyle
  3
ObjectDBX Classes
 90
1025
280
0
281
0
  0
CLASS
  1
ACDBSECTIONVIEWSTYLE
  2
AcDbSectionViewStyle
  3
ObjectDBX Classes
 90
1025
280
0
281
0
  0
CLASS
  1
RASTERVARIABLES
  2
AcDbRasterVariables
  3
ISM
 90
0
280
0
281
0
  0
CLASS
  1
ACDBPLACEHOLDER
  2
AcDbPlaceHolder
  3
ObjectDBX Classes
 90
0
280
0
281
0
  0
CLASS
  1
LAYOUT
  2
AcDbLayout
  3
ObjectDBX Classes
 90
0
280
0
281
0
  0
ENDSEC
  0
SECTION
  2
TABLES
  0
TABLE
  2
VPORT
  5
8
330
0
100
AcDbSymbolTable
 70
1
  0
VPORT
  5
23
330
8
100
AcDbSymbolTableRecord
100
AcDbViewportTableRecord
  2
*Active
 70
0
 10
0.0
 20
0.0
 11
1.0
 21
1.0
 12
0.0
 22
0.0
 13
0.0
 23
0.0
 14
0.5
 24
0.5
 15
0.5
 25
0.5
 16
0.0
 26
0.0
 36
1.0
 17
0.0
 27
0.0
 37
0.0
 40
1000.0
 41
1.34
 42
50.0
 43
0.0
 44
0.0
 50
0.0
 51
0.0
 71
0
 72
1000
 73
1
 74
3
 75
0
 76
0
 77
0
 78
0
281
0
 65
0
146
0.0
  0
ENDTAB
  0
TABLE
  2
LTYPE
  5
2
330
0
100
AcDbSymbolTable
 70
3
  0
LTYPE
  5
24
330
2
100
AcDbSymbolTableRecord
100
AcDbLinetypeTableRecord
  2
ByBlock
 70
0
  3

 72
65
 73
0
 40
0.0
  0
LTYPE
  5
25
330
2
100
AcDbSymbolTableRecord
100
AcDbLinetypeTableRecord
  2
ByLayer
 70
0
  3

 72
65
 73
0
 40
0.0
  0
LTYPE
  5
26
330
2
100
AcDbSymbolTableRecord
100
AcDbLinetypeTableRecord
  2
Continuous
 70
0
  3

 72
65
 73
0
 40
0.0
  0
ENDTAB
  0
TABLE
  2
LAYER
  5
1
330
0
100
AcDbSymbolTable
 70
2
  0
LAYER
  5
27
330
1
100
AcDbSymbolTableRecord
100
AcDbLayerTableRecord
  2
0
 70
0
 62
7
  6
Continuous
370
-3
390
13
  0
LAYER
  5
28
330
1
100
AcDbSymbolTableRecord
100
AcDbLayerTableRecord
  2
Defpoints
 70
0
 62
7
  6
Continuous
290
0
370
-3
390
13
  0
ENDTAB
  0
TABLE
  2
STYLE
  5
5
330
0
100
AcDbSymbolTable
 70
1
  0
STYLE
  5
29
330
5
100
AcDbSymbolTableRecord
100
AcDbTextStyleTableRecord
  2
Standard
 70
0
 40
0.0
 41
1.0
 50
0.0
 71
0
 42
2.5
  3
txt
  4

  0
ENDTAB
  0
TABLE
  2
VIEW
  5
7
330
0
100
AcDbSymbolTable
 70
0
  0
ENDTAB
  0
TABLE
  2
UCS
  5
6
330
0
100
AcDbSymbolTable
 70
0
  0
ENDTAB
  0
TABLE
  2
APPID
  5
3
330
0
100
AcDbSymbolTable
 70
3
  0
APPID
  5
2A
330
3
100
AcDbSymbolTableRecord
100
AcDbRegAppTableRecord
  2
ACAD
 70
0
  0
APPID
  5
1F7
330
3
100
AcDbSymbolTableRecord
100
AcDbRegAppTableRecord
  2
HATCHBACKGROUNDCOLOR
 70
0
  0
APPID
  5
1F8
330
3
100
AcDbSymbolTableRecord
100
AcDbRegAppTableRecord
  2
EZDXF
 70
0
  0
ENDTAB
  0
TABLE
  2
DIMSTYLE
  5
4
330
0
100
AcDbSymbolTable
 70
1
100
AcDbDimStyleTable
  0
DIMSTYLE
105
2B
330
4
100
AcDbSymbolTableRecord
100
AcDbDimStyleTableRecord
  2
Standard
 70
0
  3

  4

 40
1.0
 41
2.5
 42
0.625
 43
3.75
 44
1.25
 45
0.0
 46
0.0
 47
0.0
 48
0.0
140
2.5
141
2.5
142
0.0
143
0.03937007874
144
1.0
145
0.0
146
1.0
147
0.625
148
0.0
 71
0
 72
0
 73
0
 74
0
 75
0
 76
0
 77
1
 78
8
 79
3
170
0
171
3
172
1
173
0
174
0
175
0
176
0
177
0
178
0
179
2
271
2
272
2
273
2
274
3
275
0
276
0
277
2
278
44
279
0
280
0
281
0
282
0
283
0
284
8
285
0
286
0
288
0
289
3
371
-2
372
-2
  0
ENDTAB
  0
TABLE
  2
BLOCK_RECORD
  5
9
330
0
100
AcDbSymbolTable
 70
2
  0
BLOCK_RECORD
  5
17
330
9
100
AcDbSymbolTableRecord
100
AcDbBlockTableRecord
  2
*Model_Space
340
1A
  0
BLOCK_RECORD
  5
1B
330
9
100
AcDbSymbolTableRecord
100
AcDbBlockTableRecord
  2
*Paper_Space
340
1E
  0
ENDTAB
  0
ENDSEC
  0
SECTION
  2
BLOCKS
  0
BLOCK
  5
18
330
17
100
AcDbEntity
  8
0
100
AcDbBlockBegin
  2
*Model_Space
 70
0
 10
0.0
 20
0.0
 30
0.0
  3
*Model_Space
  1

  0
ENDBLK
  5
19
330
17
100
AcDbEntity
  8
0
100
AcDbBlockEnd
  0
BLOCK
  5
1C
330
1B
100
AcDbEntity
  8
0
100
AcDbBlockBegin
  2
*Paper_Space
 70
0
 10
0.0
 20
0.0
 30
0.0
  3
*Paper_Space
  1

  0
ENDBLK
  5
1D
330
1B
100
AcDbEntity
  8
0
100
AcDbBlockEnd
  0
ENDSEC
  0
SECTION
  2
ENTITIES
  0
LINE
  5
2F
330
17
100
AcDbEntity
  8
0
 62
5
100
AcDbLine
 10
75.0
 20
0.0
 30
0.0
 11
30.0
 21
0.0
 31
828.0
  0
LINE
  5
30
330
17
100
AcDbEntity
  8
0
 62
5
100
AcDbLine
 10
53.033008588991066
 20
53.03300858899106
 30
0.0
 11
21.213203435596427
 21
21.213203435596423
 31
828.0
  0
LINE
  5
31
330
17
100
AcDbEntity
  8
0
 62
5
100
AcDbLine
 10
4.592425496802574e-15
 20
75.0
 30
0.0
 11
1.83697019872103e-15
 21
30.0
 31
828.0
  0
LINE
  5
32
330
17
100
AcDbEntity
  8
0
 62
5
100
AcDbLine
 10
-53.03300858899106
 20
53.033008588991066
 30
0.0
 11
-21.213203435596423
 21
21.213203435596427
 31
828.0
  0
LINE
  5
33
330
17
100
AcDbEntity
  8
0
 62
5
100
AcDbLine
 10
-75.0
 20
9.184850993605149e-15
 30
0.0
 11
-30.0
 21
3.67394039744206e-15
 31
828.0
  0
LINE
  5
34
330
17
100
AcDbEntity
  8
0
 62
5
100
AcDbLine
 10
-53.03300858899107
 20
-53.03300858899106
 30
0.0
 11
-21.21320343559643
 21
-21.213203435596423
 31
828.0
  0
LINE
  5
35
330
17
100
AcDbEntity
  8
0
 62
5
100
AcDbLine
 10
-1.3777276490407723e-14
 20
-75.0
 30
0.0
 11
-5.510910596163089e-15
 21
-30.0
 31
828.0
  0
LINE
  5
36
330
17
100
AcDbEntity
  8
0
 62
5
100
AcDbLine
 10
53.03300858899105
 20
-53.03300858899107
 30
0.0
 11
21.21320343559642
 21
-21.21320343559643
 31
828.0
  0
LINE
  5
37
330
17
100
AcDbEntity
  8
0
 62
5
100
AcDbLine
 10
75.0
 20
75.0
 30
0.0
 11
75.0
 21
75.0
 31
172.5
  0
LINE
  5
38
330
17
100
AcDbEntity
  8
0
 62
5
100
AcDbLine
 10
-75.0
 20
75.0
 30
0.0
 11
-75.0
 21
75.0
 31
172.5
  0
LINE
  5
39
330
17
100
AcDbEntity
  8
0
 62
5
100
AcDbLine
 10
-75.0
 20
-75.0
 30
0.0
 11
-75.0
 21
-75.0
 31
172.5
  0
LINE
  5
3A
330
17
100
AcDbEntity
  8
0
 62
5
100
AcDbLine
 10
75.0
 20
-75.0
 30
0.0
 11
75.0
 21
-75.0
 31
172.5
  0
LINE
  5
3B
330
17
100
AcDbEntity
  8
0
 62
5
100
AcDbLine
 10
75.0
 20
0.0
 30
0.0
 11
75.0
 21
0.0
 31
172.5
  0
LINE
  5
3C
330
17
100
AcDbEntity
  8
0
 62
5
100
AcDbLine
 10
-75.0
 20
0.0
 30
0.0
 11
-75.0
 21
0.0
 31
172.5
  0
LINE
  5
3D
330
17
100
AcDbEntity
  8
0
 62
5
100
AcDbLine
 10
0.0
 20
75.0
 30
0.0
 11
0.0
 21
75.0
 31
172.5
  0
LINE
  5
3E
330
17
100
AcDbEntity
  8
0
 62
5
100
AcDbLine
 10
0.0
 20
-75.0
 30
0.0
 11
0.0
 21
-75.0
 31
172.5
  0
LINE
  5
3F
330
17
100
AcDbEntity
  8
0
 62
5
100
AcDbLine
 10
63.75
 20
63.75
 30
172.5
 11
63.75
 21
63.75
 31
345.0
  0
LINE
  5
40
330
17
100
AcDbEntity
  8
0
 62
5
100
AcDbLine
 10
-63.75
 20
63.75
 30
172.5
 11
-63.75
 21
63.75
 31
345.0
  0
LINE
  5
41
330
17
100
AcDbEntity
  8
0
 62
5
100
AcDbLine
 10
-63.75
 20
-63.75
 30
172.5
 11
-63.75
 21
-63.75
 31
345.0
  0
LINE
  5
42
330
17
100
AcDbEntity
  8
0
 62
5
100
AcDbLine
 10
63.75
 20
-63.75
 30
172.5
 11
63.75
 21
-63.75
 31
345.0
  0
LINE
  5
43
330
17
100
AcDbEntity
  8
0
 62
5
100
AcDbLine
 10
63.75
 20
0.0
 30
172.5
 11
63.75
 21
0.0
 31
345.0
  0
LINE
  5
44
330
17
100
AcDbEntity
  8
0
 62
5
100
AcDbLine
 10
-63.75
 20
0.0
 30
172.5
 11
-63.75
 21
0.0
 31
345.0
  0
LINE
  5
45
330
17
100
AcDbEntity
  8
0
 62
5
100
AcDbLine
 10
0.0
 20
63.75
 30
172.5
 11
0.0
 21
63.75
 31
345.0
  0
LINE
  5
46
330
17
100
AcDbEntity
  8
0
 62
5
100
AcDbLine
 10
0.0
 20
-63.75
 30
172.5
 11
0.0
 21
-63.75
 31
345.0
  0
LINE
  5
47
330
17
100
AcDbEntity
  8
0
 62
5
100
AcDbLine
 10
52.5
 20
52.5
 30
345.0
 11
52.5
 21
52.5
 31
517.5
  0
LINE
  5
48
330
17
100
AcDbEntity
  8
0
 62
5
100
AcDbLine
 10
-52.5
 20
52.5
 30
345.0
 11
-52.5
 21
52.5
 31
517.5
  0
LINE
  5
49
330
17
100
AcDbEntity
  8
0
 62
5
100
AcDbLine
 10
-52.5
 20
-52.5
 30
345.0
 11
-52.5
 21
-52.5
 31
517.5
  0
LINE
  5
4A
330
17
100
AcDbEntity
  8
0
 62
5
100
AcDbLine
 10
52.5
 20
-52.5
 30
345.0
 11
52.5
 21
-52.5
 31
517.5
  0
LINE
  5
4B
330
17
100
AcDbEntity
  8
0
 62
5
100
AcDbLine
 10
52.5
 20
0.0
 30
345.0
 11
52.5
 21
0.0
 31
517.5
  0
LINE
  5
4C
330
17
100
AcDbEntity
  8
0
 62
5
100
AcDbLine
 10
-52.5
 20
0.0
 30
345.0
 11
-52.5
 21
0.0
 31
517.5
  0
LINE
  5
4D
330
17
100
AcDbEntity
  8
0
 62
5
100
AcDbLine
 10
0.0
 20
52.5
 30
345.0
 11
0.0
 21
52.5
 31
517.5
  0
LINE
  5
4E
330
17
100
AcDbEntity
  8
0
 62
5
100
AcDbLine
 10
0.0
 20
-52.5
 30
345.0
 11
0.0
 21
-52.5
 31
517.5
  0
LINE
  5
4F
330
17
100
AcDbEntity
  8
0
 62
5
100
AcDbLine
 10
41.25
 20
41.25
 30
517.5
 11
41.25
 21
41.25
 31
690.0
  0
LINE
  5
50
330
17
100
AcDbEntity
  8
0
 62
5
100
AcDbLine
 10
-41.25
 20
41.25
 30
517.5
 11
-41.25
 21
41.25
 31
690.0
  0
LINE
  5
51
330
17
100
AcDbEntity
  8
0
 62
5
100
AcDbLine
 10
-41.25
 20
-41.25
 30
517.5
 11
-41.25
 21
-41.25
 31
690.0
  0
LINE
  5
52
330
17
100
AcDbEntity
  8
0
 62
5
100
AcDbLine
 10
41.25
 20
-41.25
 30
517.5
 11
41.25
 21
-41.25
 31
690.0
  0
LINE
  5
53
330
17
100
AcDbEntity
  8
0
 62
5
100
AcDbLine
 10
41.25
 20
0.0
 30
517.5
 11
41.25
 21
0.0
 31
690.0
  0
LINE
  5
54
330
17
100
AcDbEntity
  8
0
 62
5
100
AcDbLine
 10
-41.25
 20
0.0
 30
517.5
 11
-41.25
 21
0.0
 31
690.0
  0
LINE
  5
55
330
17
100
AcDbEntity
  8
0
 62
5
100
AcDbLine
 10
0.0
 20
41.25
 30
517.5
 11
0.0
 21
41.25
 31
690.0
  0
LINE
  5
56
330
17
100
AcDbEntity
  8
0
 62
5
100
AcDbLine
 10
0.0
 20
-41.25
 30
517.5
 11
0.0
 21
-41.25
 31
690.0
  0
LINE
  5
57
330
17
100
AcDbEntity
  8
0
 62
5
100
AcDbLine
 10
30.0
 20
30.0
 30
690.0
 11
30.0
 21
30.0
 31
828.0
  0
LINE
  5
58
330
17
100
AcDbEntity
  8
0
 62
5
100
AcDbLine
 10
-30.0
 20
30.0
 30
690.0
 11
-30.0
 21
30.0
 31
828.0
  0
LINE
  5
59
330
17
100
AcDbEntity
  8
0
 62
5
100
AcDbLine
 10
-30.0
 20
-30.0
 30
690.0
 11
-30.0
 21
-30.0
 31
828.0
  0
LINE
  5
5A
330
17
100
AcDbEntity
  8
0
 62
5
100
AcDbLine
 10
30.0
 20
-30.0
 30
690.0
 11
30.0
 21
-30.0
 31
828.0
  0
LINE
  5
5B
330
17
100
AcDbEntity
  8
0
 62
5
100
AcDbLine
 10
30.0
 20
0.0
 30
690.0
 11
30.0
 21
0.0
 31
828.0
  0
LINE
  5
5C
330
17
100
AcDbEntity
  8
0
 62
5
100
AcDbLine
 10
-30.0
 20
0.0
 30
690.0
 11
-30.0
 21
0.0
 31
828.0
  0
LINE
  5
5D
330
17
100
AcDbEntity
  8
0
 62
5
100
AcDbLine
 10
0.0
 20
30.0
 30
690.0
 11
0.0
 21
30.0
 31
828.0
  0
LINE
  5
5E
330
17
100
AcDbEntity
  8
0
 62
5
100
AcDbLine
 10
0.0
 20
-30.0
 30
690.0
 11
0.0
 21
-30.0
 31
828.0
  0
LINE
  5
5F
330
17
100
AcDbEntity
  8
0
 62
1
100
AcDbLine
 10
36.5625
 20
0.0
 30
34.5
 11
73.125
 21
0.0
 31
34.5
  0
LINE
  5
60
330
17
100
AcDbEntity
  8
0
 62
1
100
AcDbLine
 10
31.66405382586854
 20
18.281249999999996
 30
34.5
 11
63.32810765173708
 21
36.56249999999999
 31
34.5
  0
LINE
  5
61
330
17
100
AcDbEntity
  8
0
 62
1
100
AcDbLine
 10
18.281250000000004
 20
31.664053825868535
 30
34.5
 11
36.56250000000001
 21
63.32810765173707
 31
34.5
  0
LINE
  5
62
330
17
100
AcDbEntity
  8
0
 62
1
100
AcDbLine
 10
2.238807429691255e-15
 20
36.5625
 30
34.5
 11
4.47761485938251e-15
 21
73.125
 31
34.5
  0
LINE
  5
63
330
17
100
AcDbEntity
  8
0
 62
1
100
AcDbLine
 10
-18.281249999999993
 20
31.66405382586854
 30
34.5
 11
-36.562499999999986
 21
63.32810765173708
 31
34.5
  0
LINE
  5
64
330
17
100
AcDbEntity
  8
0
 62
1
100
AcDbLine
 10
-31.66405382586854
 20
18.281249999999996
 30
34.5
 11
-63.32810765173708
 21
36.56249999999999
 31
34.5
  0
LINE
  5
65
330
17
100
AcDbEntity
  8
0
 62
1
100
AcDbLine
 10
-36.5625
 20
4.47761485938251e-15
 30
34.5
 11
-73.125
 21
8.95522971876502e-15
 31
34.5
  0
LINE
  5
66
330
17
100
AcDbEntity
  8
0
 62
1
100
AcDbLine
 10
-31.664053825868546
 20
-18.281249999999993
 30
34.5
 11
-63.32810765173709
 21
-36.562499999999986
 31
34.5
  0
LINE
  5
67
330
17
100
AcDbEntity
  8
0
 62
1
100
AcDbLine
 10
-18.281250000000018
 20
-31.66405382586853
 30
34.5
 11
-36.562500000000036
 21
-63.32810765173706
 31
34.5
  0
LINE
  5
68
330
17
100
AcDbEntity
  8
0
 62
1
100
AcDbLine
 10
-6.7164222890737645e-15
 20
-36.5625
 30
34.5
 11
-1.3432844578147529e-14
 21
-73.125
 31
34.5
  0
LINE
  5
69
330
17
100
AcDbEntity
  8
0
 62
1
100
AcDbLine
 10
18.281250000000004
 20
-31.664053825868535
 30
34.5
 11
36.56250000000001
 21
-63.32810765173707
 31
34.5
  0
LINE
  5
6A
330
17
100
AcDbEntity
  8
0
 62
1
100
AcDbLine
 10
31.66405382586853
 20
-18.281250000000018
 30
34.5
 11
63.32810765173706
 21
-36.562500000000036
 31
34.5
  0
LINE
  5
6B
330
17
100
AcDbEntity
  8
0
 62
1
100
AcDbLine
 10
35.4375
 20
0.0
 30
75.9
 11
70.875
 21
0.0
 31
75.9
  0
LINE
  5
6C
330
17
100
AcDbEntity
  8
0
 62
1
100
AcDbLine
 10
30.689775246611045
 20
17.718749999999996
 30
75.9
 11
61.37955049322209
 21
35.43749999999999
 31
75.9
  0
LINE
  5
6D
330
17
100
AcDbEntity
  8
0
 62
1
100
AcDbLine
 10
17.718750000000004
 20
30.689775246611042
 30
75.9
 11
35.43750000000001
 21
61.379550493222084
 31
75.9
  0
LINE
  5
6E
330
17
100
AcDbEntity
  8
0
 62
1
100
AcDbLine
 10
2.1699210472392166e-15
 20
35.4375
 30
75.9
 11
4.339842094478433e-15
 21
70.875
 31
75.9
  0
LINE
  5
6F
330
17
100
AcDbEntity
  8
0
 62
1
100
AcDbLine
 10
-17.718749999999993
 20
30.689775246611045
 30
75.9
 11
-35.437499999999986
 21
61.37955049322209
 31
75.9
  0
LINE
  5
70
330
17
100
AcDbEntity
  8
0
 62
1
100
AcDbLine
 10
-30.689775246611045
 20
17.718749999999996
 30
75.9
 11
-61.37955049322209
 21
35.43749999999999
 31
75.9
  0
LINE
  5
71
330
17
100
AcDbEntity
  8
0
 62
1
100
AcDbLine
 10
-35.4375
 20
4.339842094478433e-15
 30
75.9
 11
-70.875
 21
8.679684188956866e-15
 31
75.9
  0
LINE
  5
72
330
17
100
AcDbEntity
  8
0
 62
1
100
AcDbLine
 10
-30.68977524661105
 20
-17.718749999999993
 30
75.9
 11
-61.3795504932221
 21
-35.437499999999986
 31
75.9
  0
LINE
  5
73
330
17
100
AcDbEntity
  8
0
 62
1
100
AcDbLine
 10
-17.718750000000014
 20
-30.689775246611035
 30
75.9
 11
-35.43750000000003
 21
-61.37955049322207
 31
75.9
  0
LINE
  5
74
330
17
100
AcDbEntity
  8
0
 62
1
100
AcDbLine
 10
-6.509763141717649e-15
 20
-35.4375
 30
75.9
 11
-1.3019526283435298e-14
 21
-70.875
 31
75.9
  0
LINE
  5
75
330
17
100
AcDbEntity
  8
0
 62
1
100
AcDbLine
 10
17.718750000000004
 20
-30.689775246611042
 30
75.9
 11
35.43750000000001
 21
-61.379550493222084
 31
75.9
  0
LINE
  5
76
330
17
100
AcDbEntity
  8
0
 62
1
100
AcDbLine
 10
30.689775246611035
 20
-17.718750000000014
 30
75.9
 11
61.37955049322207
 21
-35.43750000000003
 31
75.9
  0
LINE
  5
77
330
17
100
AcDbEntity
  8
0
 62
1
100
AcDbLine
 10
34.3125
 20
0.0
 30
117.30000000000001
 11
68.625
 21
0.0
 31
117.30000000000001
  0
LINE
  5
78
330
17
100
AcDbEntity
  8
0
 62
1
100
AcDbLine
 10
29.715496667353552
 20
17.156249999999996
 30
117.30000000000001
 11
59.430993334707104
 21
34.31249999999999
 31
117.30000000000001
  0
LINE
  5
79
330
17
100
AcDbEntity
  8
0
 62
1
100
AcDbLine
 10
17.156250000000004
 20
29.71549666735355
 30
117.30000000000001
 11
34.31250000000001
 21
59.4309933347071
 31
117.30000000000001
  0
LINE
  5
7A
330
17
100
AcDbEntity
  8
0
 62
1
100
AcDbLine
 10
2.101034664787178e-15
 20
34.3125
 30
117.30000000000001
 11
4.202069329574356e-15
 21
68.625
 31
117.30000000000001
  0
LINE
  5
7B
330
17
100
AcDbEntity
  8
0
 62
1
100
AcDbLine
 10
-17.156249999999993
 20
29.715496667353552
 30
117.30000000000001
 11
-34.312499999999986
 21
59.430993334707104
 31
117.30000000000001
  0
LINE
  5
7C
330
17
100
AcDbEntity
  8
0
 62
1
100
AcDbLine
 10
-29.715496667353552
 20
17.156249999999996
 30
117.30000000000001
 11
-59.430993334707104
 21
34.31249999999999
 31
117.30000000000001
  0
LINE
  5
7D
330
17
100
AcDbEntity
  8
0
 62
1
100
AcDbLine
 10
-34.3125
 20
4.202069329574356e-15
 30
117.30000000000001
 11
-68.625
 21
8.404138659148712e-15
 31
117.30000000000001
  0
LINE
  5
7E
330
17
100
AcDbEntity
  8
0
 62
1
100
AcDbLine
 10
-29.715496667353555
 20
-17.156249999999993
 30
117.30000000000001
 11
-59.43099333470711
 21
-34.312499999999986
 31
117.30000000000001
  0
LINE
  5
7F
330
17
100
AcDbEntity
  8
0
 62
1
100
AcDbLine
 10
-17.156250000000014
 20
-29.71549666735354
 30
117.30000000000001
 11
-34.31250000000003
 21
-59.43099333470708
 31
117.30000000000001
  0
LINE
  5
80
330
17
100
AcDbEntity
  8
0
 62
1
100
AcDbLine
 10
-6.303103994361533e-15
 20
-34.3125
 30
117.30000000000001
 11
-1.2606207988723067e-14
 21
-68.625
 31
117.30000000000001
  0
LINE
  5
81
330
17
100
AcDbEntity
  8
0
 62
1
100
AcDbLine
 10
17.156250000000004
 20
-29.71549666735355
 30
117.30000000000001
 11
34.31250000000001
 21
-59.4309933347071
 31
117.30000000000001
  0
LINE
  5
82
330
17
100
AcDbEntity
  8
0
 62
1
100
AcDbLine
 10
29.71549666735354
 20
-17.156250000000014
 30
117.30000000000001
 11
59.43099333470708
 21
-34.31250000000003
 31
117.30000000000001
  0
LINE
  5
83
330
17
100
AcDbEntity
  8
0
 62
1
100
AcDbLine
 10
33.1875
 20
0.0
 30
158.70000000000002
 11
66.375
 21
0.0
 31
158.70000000000002
  0
LINE
  5
84
330
17
100
AcDbEntity
  8
0
 62
1
100
AcDbLine
 10
28.74121808809606
 20
16.593749999999996
 30
158.70000000000002
 11
57.48243617619212
 21
33.18749999999999
 31
158.70000000000002
  0
LINE
  5
85
330
17
100
AcDbEntity
  8
0
 62
1
100
AcDbLine
 10
16.593750000000004
 20
28.741218088096055
 30
158.70000000000002
 11
33.18750000000001
 21
57.48243617619211
 31
158.70000000000002
  0
LINE
  5
86
330
17
100
AcDbEntity
  8
0
 62
1
100
AcDbLine
 10
2.032148282335139e-15
 20
33.1875
 30
158.70000000000002
 11
4.064296564670278e-15
 21
66.375
 31
158.70000000000002
  0
LINE
  5
87
330
17
100
AcDbEntity
  8
0
 62
1
100
AcDbLine
 10
-16.593749999999993
 20
28.74121808809606
 30
158.70000000000002
 11
-33.187499999999986
 21
57.48243617619212
 31
158.70000000000002
  0
LINE
  5
88
330
17
100
AcDbEntity
  8
0
 62
1
100
AcDbLine
 10
-28.74121808809606
 20
16.593749999999996
 30
158.70000000000002
 11
-57.48243617619212
 21
33.18749999999999
 31
158.70000000000002
  0
LINE
  5
89
330
17
100
AcDbEntity
  8
0
 62
1
100
AcDbLine
 10
-33.1875
 20
4.064296564670278e-15
 30
158.70000000000002
 11
-66.375
 21
8.128593129340557e-15
 31
158.70000000000002
  0
LINE
  5
8A
330
17
100
AcDbEntity
  8
0
 62
1
100
AcDbLine
 10
-28.741218088096062
 20
-16.593749999999993
 30
158.70000000000002
 11
-57.482436176192124
 21
-33.187499999999986
 31
158.70000000000002
  0
LINE
  5
8B
330
17
100
AcDbEntity
  8
0
 62
1
100
AcDbLine
 10
-16.593750000000014
 20
-28.741218088096048
 30
158.70000000000002
 11
-33.18750000000003
 21
-57.482436176192095
 31
158.70000000000002
  0
LINE
  5
8C
330
17
100
AcDbEntity
  8
0
 62
1
100
AcDbLine
 10
-6.096444847005417e-15
 20
-33.1875
 30
158.70000000000002
 11
-1.2192889694010834e-14
 21
-66.375
 31
158.70000000000002
  0
LINE
  5
8D
330
17
100
AcDbEntity
  8
0
 62
1
100
AcDbLine
 10
16.593750000000004
 20
-28.741218088096055
 30
158.70000000000002
 11
33.18750000000001
 21
-57.48243617619211
 31
158.70000000000002
  0
LINE
  5
8E
330
17
100
AcDbEntity
  8
0
 62
1
100
AcDbLine
 10
28.741218088096048
 20
-16.593750000000014
 30
158.70000000000002
 11
57.482436176192095
 21
-33.18750000000003
 31
158.70000000000002
  0
LINE
  5
8F
330
17
100
AcDbEntity
  8
0
 62
1
100
AcDbLine
 10
32.0625
 20
0.0
 30
200.10000000000002
 11
64.125
 21
0.0
 31
200.10000000000002
  0
LINE
  5
90
330
17
100
AcDbEntity
  8
0
 62
1
100
AcDbLine
 10
27.766939508838565
 20
16.031249999999996
 30
200.10000000000002
 11
55.53387901767713
 21
32.06249999999999
 31
200.10000000000002
  0
LINE
  5
91
330
17
100
AcDbEntity
  8
0
 62
1
100
AcDbLine
 10
16.031250000000004
 20
27.76693950883856
 30
200.10000000000002
 11
32.06250000000001
 21
55.53387901767712
 31
200.10000000000002
  0
LINE
  5
92
330
17
100
AcDbEntity
  8
0
 62
1
100
AcDbLine
 10
1.9632618998831006e-15
 20
32.0625
 30
200.10000000000002
 11
3.926523799766201e-15
 21
64.125
 31
200.10000000000002
  0
LINE
  5
93
330
17
100
AcDbEntity
  8
0
 62
1
100
AcDbLine
 10
-16.031249999999993
 20
27.766939508838565
 30
200.10000000000002
 11
-32.062499999999986
 21
55.53387901767713
 31
200.10000000000002
  0
LINE
  5
94
330
17
100
AcDbEntity
  8
0
 62
1
100
AcDbLine
 10
-27.766939508838565
 20
16.031249999999996
 30
200.10000000000002
 11
-55.53387901767713
 21
32.06249999999999
 31
200.10000000000002
  0
LINE
  5
95
330
17
100
AcDbEntity
  8
0
 62
1
100
AcDbLine
 10
-32.0625
 20
3.926523799766201e-15
 30
200.10000000000002
 11
-64.125
 21
7.853047599532402e-15
 31
200.10000000000002
  0
LINE
  5
96
330
17
100
AcDbEntity
  8
0
 62
1
100
AcDbLine
 10
-27.76693950883857
 20
-16.031249999999993
 30
200.10000000000002
 11
-55.53387901767714
 21
-32.062499999999986
 31
200.10000000000002
  0
LINE
  5
97
330
17
100
AcDbEntity
  8
0
 62
1
100
AcDbLine
 10
-16.031250000000014
 20
-27.766939508838554
 30
200.10000000000002
 11
-32.06250000000003
 21
-55.53387901767711
 31
200.10000000000002
  0
LINE
  5
98
330
17
100
AcDbEntity
  8
0
 62
1
100
AcDbLine
 10
-5.8897856996493014e-15
 20
-32.0625
 30
200.10000000000002
 11
-1.1779571399298603e-14
 21
-64.125
 31
200.10000000000002
  0
LINE
  5
99
330
17
100
AcDbEntity
  8
0
 62
1
100
AcDbLine
 10
16.031250000000004
 20
-27.76693950883856
 30
200.10000000000002
 11
32.06250000000001
 21
-55.53387901767712
 31
200.10000000000002
  0
LINE
  5
9A
330
17
100
AcDbEntity
  8
0
 62
1
100
AcDbLine
 10
27.766939508838554
 20
-16.031250000000014
 30
200.10000000000002
 11
55.53387901767711
 21
-32.06250000000003
 31
200.10000000000002
  0
LINE
  5
9B
330
17
100
AcDbEntity
  8
0
 62
1
100
AcDbLine
 10
30.9375
 20
0.0
 30
241.5
 11
61.875
 21
0.0
 31
241.5
  0
LINE
  5
9C
330
17
100
AcDbEntity
  8
0
 62
1
100
AcDbLine
 10
26.79266092958107
 20
15.468749999999998
 30
241.5
 11
53.58532185916214
 21
30.937499999999996
 31
241.5
  0
LINE
  5
9D
330
17
100
AcDbEntity
  8
0
 62
1
100
AcDbLine
 10
15.468750000000004
 20
26.792660929581068
 30
241.5
 11
30.937500000000007
 21
53.585321859162136
 31
241.5
  0
LINE
  5
9E
330
17
100
AcDbEntity
  8
0
 62
1
100
AcDbLine
 10
1.894375517431062e-15
 20
30.9375
 30
241.5
 11
3.788751034862124e-15
 21
61.875
 31
241.5
  0
LINE
  5
9F
330
17
100
AcDbEntity
  8
0
 62
1
100
AcDbLine
 10
-15.468749999999995
 20
26.79266092958107
 30
241.5
 11
-30.93749999999999
 21
53.58532185916214
 31
241.5
  0
LINE
  5
A0
330
17
100
AcDbEntity
  8
0
 62
1
100
AcDbLine
 10
-26.79266092958107
 20
15.468749999999998
 30
241.5
 11
-53.58532185916214
 21
30.937499999999996
 31
241.5
  0
LINE
  5
A1
330
17
100
AcDbEntity
  8
0
 62
1
100
AcDbLine
 10
-30.9375
 20
3.788751034862124e-15
 30
241.5
 11
-61.875
 21
7.577502069724248e-15
 31
241.5
  0
LINE
  5
A2
330
17
100
AcDbEntity
  8
0
 62
1
100
AcDbLine
 10
-26.792660929581075
 20
-15.468749999999993
 30
241.5
 11
-53.58532185916215
 21
-30.937499999999986
 31
241.5
  0
LINE
  5
A3
330
17
100
AcDbEntity
  8
0
 62
1
100
AcDbLine
 10
-15.468750000000014
 20
-26.79266092958106
 30
241.5
 11
-30.93750000000003
 21
-53.58532185916212
 31
241.5
  0
LINE
  5
A4
330
17
100
AcDbEntity
  8
0
 62
1
100
AcDbLine
 10
-5.683126552293186e-15
 20
-30.9375
 30
241.5
 11
-1.1366253104586372e-14
 21
-61.875
 31
241.5
  0
LINE
  5
A5
330
17
100
AcDbEntity
  8
0
 62
1
100
AcDbLine
 10
15.468750000000004
 20
-26.792660929581068
 30
241.5
 11
30.937500000000007
 21
-53.585321859162136
 31
241.5
  0
LINE
  5
A6
330
17
100
AcDbEntity
  8
0
 62
1
100
AcDbLine
 10
26.79266092958106
 20
-15.468750000000014
 30
241.5
 11
53.58532185916212
 21
-30.93750000000003
 31
241.5
  0
LINE
  5
A7
330
17
100
AcDbEntity
  8
0
 62
1
100
AcDbLine
 10
29.8125
 20
0.0
 30
282.90000000000003
 11
59.625
 21
0.0
 31
282.90000000000003
  0
LINE
  5
A8
330
17
100
AcDbEntity
  8
0
 62
1
100
AcDbLine
 10
25.818382350323578
 20
14.906249999999998
 30
282.90000000000003
 11
51.636764700647156
 21
29.812499999999996
 31
282.90000000000003
  0
LINE
  5
A9
330
17
100
AcDbEntity
  8
0
 62
1
100
AcDbLine
 10
14.906250000000004
 20
25.818382350323574
 30
282.90000000000003
 11
29.812500000000007
 21
51.63676470064715
 31
282.90000000000003
  0
LINE
  5
AA
330
17
100
AcDbEntity
  8
0
 62
1
100
AcDbLine
 10
1.8254891349790236e-15
 20
29.8125
 30
282.90000000000003
 11
3.650978269958047e-15
 21
59.625
 31
282.90000000000003
  0
LINE
  5
AB
330
17
100
AcDbEntity
  8
0
 62
1
100
AcDbLine
 10
-14.906249999999995
 20
25.818382350323578
 30
282.90000000000003
 11
-29.81249999999999
 21
51.636764700647156
 31
282.90000000000003
  0
LINE
  5
AC
330
17
100
AcDbEntity
  8
0
 62
1
100
AcDbLine
 10
-25.818382350323578
 20
14.906249999999998
 30
282.90000000000003
 11
-51.636764700647156
 21
29.812499999999996
 31
282.90000000000003
  0
LINE
  5
AD
330
17
100
AcDbEntity
  8
0
 62
1
100
AcDbLine
 10
-29.8125
 20
3.650978269958047e-15
 30
282.90000000000003
 11
-59.625
 21
7.301956539916094e-15
 31
282.90000000000003
  0
LINE
  5
AE
330
17
100
AcDbEntity
  8
0
 62
1
100
AcDbLine
 10
-25.81838235032358
 20
-14.906249999999993
 30
282.90000000000003
 11
-51.63676470064716
 21
-29.812499999999986
 31
282.90000000000003
  0
LINE
  5
AF
330
17
100
AcDbEntity
  8
0
 62
1
100
AcDbLine
 10
-14.906250000000012
 20
-25.81838235032357
 30
282.90000000000003
 11
-29.812500000000025
 21
-51.63676470064714
 31
282.90000000000003
  0
LINE
  5
B0
330
17
100
AcDbEntity
  8
0
 62
1
100
AcDbLine
 10
-5.4764674049370695e-15
 20
-29.8125
 30
282.90000000000003
 11
-1.0952934809874139e-14
 21
-59.625
 31
282.90000000000003
  0
LINE
  5
B1
330
17
100
AcDbEntity
  8
0
 62
1
100
AcDbLine
 10
14.906250000000004
 20
-25.818382350323574
 30
282.90000000000003
 11
29.812500000000007
 21
-51.63676470064715
 31
282.90000000000003
  0
LINE
  5
B2
330
17
100
AcDbEntity
  8
0
 62
1
100
AcDbLine
 10
25.81838235032357
 20
-14.906250000000012
 30
282.90000000000003
 11
51.63676470064714
 21
-29.812500000000025
 31
282.90000000000003
  0
LINE
  5
B3
330
17
100
AcDbEntity
  8
0
 62
1
100
AcDbLine
 10
28.6875
 20
0.0
 30
324.3
 11
57.375
 21
0.0
 31
324.3
  0
LINE
  5
B4
330
17
100
AcDbEntity
  8
0
 62
1
100
AcDbLine
 10
24.844103771066084
 20
14.343749999999998
 30
324.3
 11
49.68820754213217
 21
28.687499999999996
 31
324.3
  0
LINE
  5
B5
330
17
100
AcDbEntity
  8
0
 62
1
100
AcDbLine
 10
14.343750000000004
 20
24.84410377106608
 30
324.3
 11
28.687500000000007
 21
49.68820754213216
 31
324.3
  0
LINE
  5
B6
330
17
100
AcDbEntity
  8
0
 62
1
100
AcDbLine
 10
1.7566027525269848e-15
 20
28.6875
 30
324.3
 11
3.5132055050539697e-15
 21
57.375
 31
324.3
  0
LINE
  5
B7
330
17
100
AcDbEntity
  8
0
 62
1
100
AcDbLine
 10
-14.343749999999995
 20
24.844103771066084
 30
324.3
 11
-28.68749999999999
 21
49.68820754213217
 31
324.3
  0
LINE
  5
B8
330
17
100
AcDbEntity
  8
0
 62
1
100
AcDbLine
 10
-24.844103771066084
 20
14.343749999999998
 30
324.3
 11
-49.68820754213217
 21
28.687499999999996
 31
324.3
  0
LINE
  5
B9
330
17
100
AcDbEntity
  8
0
 62
1
100
AcDbLine
 10
-28.6875
 20
3.5132055050539697e-15
 30
324.3
 11
-57.375
 21
7.026411010107939e-15
 31
324.3
  0
LINE
  5
BA
330
17
100
AcDbEntity
  8
0
 62
1
100
AcDbLine
 10
-24.844103771066088
 20
-14.343749999999993
 30
324.3
 11
-49.688207542132176
 21
-28.687499999999986
 31
324.3
  0
LINE
  5
BB
330
17
100
AcDbEntity
  8
0
 62
1
100
AcDbLine
 10
-14.343750000000012
 20
-24.844103771066077
 30
324.3
 11
-28.687500000000025
 21
-49.688207542132155
 31
324.3
  0
LINE
  5
BC
330
17
100
AcDbEntity
  8
0
 62
1
100
AcDbLine
 10
-5.269808257580954e-15
 20
-28.6875
 30
324.3
 11
-1.0539616515161908e-14
 21
-57.375
 31
324.3
  0
LINE
  5
BD
330
17
100
AcDbEntity
  8
0
 62
1
100
AcDbLine
 10
14.343750000000004
 20
-24.84410377106608
 30
324.3
 11
28.687500000000007
 21
-49.68820754213216
 31
324.3
  0
LINE
  5
BE
330
17
100
AcDbEntity
  8
0
 62
1
100
AcDbLine
 10
24.844103771066077
 20
-14.343750000000012
 30
324.3
 11
49.688207542132155
 21
-28.687500000000025
 31
324.3
  0
LINE
  5
BF
330
17
100
AcDbEntity
  8
0
 62
1
100
AcDbLine
 10
27.562500000000004
 20
0.0
 30
365.70000000000005
 11
55.12500000000001
 21
0.0
 31
365.70000000000005
  0
LINE
  5
C0
330
17
100
AcDbEntity
  8
0
 62
1
100
AcDbLine
 10
23.869825191808594
 20
13.78125
 30
365.70000000000005
 11
47.73965038361719
 21
27.5625
 31
365.70000000000005
  0
LINE
  5
C1
330
17
100
AcDbEntity
  8
0
 62
1
100
AcDbLine
 10
13.781250000000005
 20
23.86982519180859
 30
365.70000000000005
 11
27.56250000000001
 21
47.73965038361718
 31
365.70000000000005
  0
LINE
  5
C2
330
17
100
AcDbEntity
  8
0
 62
1
100
AcDbLine
 10
1.6877163700749463e-15
 20
27.562500000000004
 30
365.70000000000005
 11
3.3754327401498926e-15
 21
55.12500000000001
 31
365.70000000000005
  0
LINE
  5
C3
330
17
100
AcDbEntity
  8
0
 62
1
100
AcDbLine
 10
-13.781249999999996
 20
23.869825191808594
 30
365.70000000000005
 11
-27.562499999999993
 21
47.73965038361719
 31
365.70000000000005
  0
LINE
  5
C4
330
17
100
AcDbEntity
  8
0
 62
1
100
AcDbLine
 10
-23.869825191808594
 20
13.78125
 30
365.70000000000005
 11
-47.73965038361719
 21
27.5625
 31
365.70000000000005
  0
LINE
  5
C5
330
17
100
AcDbEntity
  8
0
 62
1
100
AcDbLine
 10
-27.562500000000004
 20
3.3754327401498926e-15
 30
365.70000000000005
 11
-55.12500000000001
 21
6.750865480299785e-15
 31
365.70000000000005
  0
LINE
  5
C6
330
17
100
AcDbEntity
  8
0
 62
1
100
AcDbLine
 10
-23.869825191808598
 20
-13.781249999999996
 30
365.70000000000005
 11
-47.739650383617196
 21
-27.562499999999993
 31
365.70000000000005
  0
LINE
  5
C7
330
17
100
AcDbEntity
  8
0
 62
1
100
AcDbLine
 10
-13.781250000000014
 20
-23.869825191808587
 30
365.70000000000005
 11
-27.56250000000003
 21
-47.739650383617175
 31
365.70000000000005
  0
LINE
  5
C8
330
17
100
AcDbEntity
  8
0
 62
1
100
AcDbLine
 10
-5.063149110224838e-15
 20
-27.562500000000004
 30
365.70000000000005
 11
-1.0126298220449677e-14
 21
-55.12500000000001
 31
365.70000000000005
  0
LINE
  5
C9
330
17
100
AcDbEntity
  8
0
 62
1
100
AcDbLine
 10
13.781250000000005
 20
-23.86982519180859
 30
365.70000000000005
 11
27.56250000000001
 21
-47.73965038361718
 31
365.70000000000005
  0
LINE
  5
CA
330
17
100
AcDbEntity
  8
0
 62
1
100
AcDbLine
 10
23.869825191808587
 20
-13.781250000000014
 30
365.70000000000005
 11
47.739650383617175
 21
-27.56250000000003
 31
365.70000000000005
  0
LINE
  5
CB
330
17
100
AcDbEntity
  8
0
 62
1
100
AcDbLine
 10
26.437500000000004
 20
0.0
 30
407.1
 11
52.87500000000001
 21
0.0
 31
407.1
  0
LINE
  5
CC
330
17
100
AcDbEntity
  8
0
 62
1
100
AcDbLine
 10
22.8955466125511
 20
13.21875
 30
407.1
 11
45.7910932251022
 21
26.4375
 31
407.1
  0
LINE
  5
CD
330
17
100
AcDbEntity
  8
0
 62
1
100
AcDbLine
 10
13.218750000000005
 20
22.895546612551097
 30
407.1
 11
26.43750000000001
 21
45.791093225102195
 31
407.1
  0
LINE
  5
CE
330
17
100
AcDbEntity
  8
0
 62
1
100
AcDbLine
 10
1.6188299876229078e-15
 20
26.437500000000004
 30
407.1
 11
3.2376599752458156e-15
 21
52.87500000000001
 31
407.1
  0
LINE
  5
CF
330
17
100
AcDbEntity
  8
0
 62
1
100
AcDbLine
 10
-13.218749999999998
 20
22.8955466125511
 30
407.1
 11
-26.437499999999996
 21
45.7910932251022
 31
407.1
  0
LINE
  5
D0
330
17
100
AcDbEntity
  8
0
 62
1
100
AcDbLine
 10
-22.8955466125511
 20
13.21875
 30
407.1
 11
-45.7910932251022
 21
26.4375
 31
407.1
  0
LINE
  5
D1
330
17
100
AcDbEntity
  8
0
 62
1
100
AcDbLine
 10
-26.437500000000004
 20
3.2376599752458156e-15
 30
407.1
 11
-52.87500000000001
 21
6.475319950491631e-15
 31
407.1
  0
LINE
  5
D2
330
17
100
AcDbEntity
  8
0
 62
1
100
AcDbLine
 10
-22.895546612551104
 20
-13.218749999999996
 30
407.1
 11
-45.79109322510221
 21
-26.437499999999993
 31
407.1
  0
LINE
  5
D3
330
17
100
AcDbEntity
  8
0
 62
1
100
AcDbLine
 10
-13.218750000000014
 20
-22.895546612551094
 30
407.1
 11
-26.43750000000003
 21
-45.79109322510219
 31
407.1
  0
LINE
  5
D4
330
17
100
AcDbEntity
  8
0
 62
1
100
AcDbLine
 10
-4.856489962868723e-15
 20
-26.437500000000004
 30
407.1
 11
-9.712979925737446e-15
 21
-52.87500000000001
 31
407.1
  0
LINE
  5
D5
330
17
100
AcDbEntity
  8
0
 62
1
100
AcDbLine
 10
13.218750000000005
 20
-22.895546612551097
 30
407.1
 11
26.43750000000001
 21
-45.791093225102195
 31
407.1
  0
LINE
  5
D6
330
17
100
AcDbEntity
  8
0
 62
1
100
AcDbLine
 10
22.895546612551094
 20
-13.218750000000014
 30
407.1
 11
45.79109322510219
 21
-26.43750000000003
 31
407.1
  0
LINE
  5
D7
330
17
100
AcDbEntity
  8
0
 62
1
100
AcDbLine
 10
25.3125
 20
0.0
 30
448.5
 11
50.625
 21
0.0
 31
448.5
  0
LINE
  5
D8
330
17
100
AcDbEntity
  8
0
 62
1
100
AcDbLine
 10
21.921268033293604
 20
12.656249999999998
 30
448.5
 11
43.84253606658721
 21
25.312499999999996
 31
448.5
  0
LINE
  5
D9
330
17
100
AcDbEntity
  8
0
 62
1
100
AcDbLine
 10
12.656250000000004
 20
21.9212680332936
 30
448.5
 11
25.312500000000007
 21
43.8425360665872
 31
448.5
  0
LINE
  5
DA
330
17
100
AcDbEntity
  8
0
 62
1
100
AcDbLine
 10
1.5499436051708689e-15
 20
25.3125
 30
448.5
 11
3.0998872103417378e-15
 21
50.625
 31
448.5
  0
LINE
  5
DB
330
17
100
AcDbEntity
  8
0
 62
1
100
AcDbLine
 10
-12.656249999999996
 20
21.921268033293604
 30
448.5
 11
-25.312499999999993
 21
43.84253606658721
 31
448.5
  0
LINE
  5
DC
330
17
100
AcDbEntity
  8
0
 62
1
100
AcDbLine
 10
-21.921268033293604
 20
12.656249999999998
 30
448.5
 11
-43.84253606658721
 21
25.312499999999996
 31
448.5
  0
LINE
  5
DD
330
17
100
AcDbEntity
  8
0
 62
1
100
AcDbLine
 10
-25.3125
 20
3.0998872103417378e-15
 30
448.5
 11
-50.625
 21
6.1997744206834756e-15
 31
448.5
  0
LINE
  5
DE
330
17
100
AcDbEntity
  8
0
 62
1
100
AcDbLine
 10
-21.921268033293607
 20
-12.656249999999995
 30
448.5
 11
-43.842536066587215
 21
-25.31249999999999
 31
448.5
  0
LINE
  5
DF
330
17
100
AcDbEntity
  8
0
 62
1
100
AcDbLine
 10
-12.65625000000001
 20
-21.921268033293597
 30
448.5
 11
-25.31250000000002
 21
-43.84253606658719
 31
448.5
  0
LINE
  5
E0
330
17
100
AcDbEntity
  8
0
 62
1
100
AcDbLine
 10
-4.6498308155126065e-15
 20
-25.3125
 30
448.5
 11
-9.299661631025213e-15
 21
-50.625
 31
448.5
  0
LINE
  5
E1
330
17
100
AcDbEntity
  8
0
 62
1
100
AcDbLine
 10
12.656250000000004
 20
-21.9212680332936
 30
448.5
 11
25.312500000000007
 21
-43.8425360665872
 31
448.5
  0
LINE
  5
E2
330
17
100
AcDbEntity
  8
0
 62
1
100
AcDbLine
 10
21.921268033293597
 20
-12.65625000000001
 30
448.5
 11
43.84253606658719
 21
-25.31250000000002
 31
448.5
  0
LINE
  5
E3
330
17
100
AcDbEntity
  8
0
 62
1
100
AcDbLine
 10
24.1875
 20
0.0
 30
489.90000000000003
 11
48.375
 21
0.0
 31
489.90000000000003
  0
LINE
  5
E4
330
17
100
AcDbEntity
  8
0
 62
1
100
AcDbLine
 10
20.94698945403611
 20
12.093749999999998
 30
489.90000000000003
 11
41.89397890807222
 21
24.187499999999996
 31
489.90000000000003
  0
LINE
  5
E5
330
17
100
AcDbEntity
  8
0
 62
1
100
AcDbLine
 10
12.093750000000004
 20
20.946989454036107
 30
489.90000000000003
 11
24.187500000000007
 21
41.893978908072214
 31
489.90000000000003
  0
LINE
  5
E6
330
17
100
AcDbEntity
  8
0
 62
1
100
AcDbLine
 10
1.4810572227188304e-15
 20
24.1875
 30
489.90000000000003
 11
2.9621144454376607e-15
 21
48.375
 31
489.90000000000003
  0
LINE
  5
E7
330
17
100
AcDbEntity
  8
0
 62
1
100
AcDbLine
 10
-12.093749999999996
 20
20.94698945403611
 30
489.90000000000003
 11
-24.187499999999993
 21
41.89397890807222
 31
489.90000000000003
  0
LINE
  5
E8
330
17
100
AcDbEntity
  8
0
 62
1
100
AcDbLine
 10
-20.94698945403611
 20
12.093749999999998
 30
489.90000000000003
 11
-41.89397890807222
 21
24.187499999999996
 31
489.90000000000003
  0
LINE
  5
E9
330
17
100
AcDbEntity
  8
0
 62
1
100
AcDbLine
 10
-24.1875
 20
2.9621144454376607e-15
 30
489.90000000000003
 11
-48.375
 21
5.9242288908753215e-15
 31
489.90000000000003
  0
LINE
  5
EA
330
17
100
AcDbEntity
  8
0
 62
1
100
AcDbLine
 10
-20.946989454036114
 20
-12.093749999999995
 30
489.90000000000003
 11
-41.89397890807223
 21
-24.18749999999999
 31
489.90000000000003
  0
LINE
  5
EB
330
17
100
AcDbEntity
  8
0
 62
1
100
AcDbLine
 10
-12.09375000000001
 20
-20.946989454036103
 30
489.90000000000003
 11
-24.18750000000002
 21
-41.89397890807221
 31
489.90000000000003
  0
LINE
  5
EC
330
17
100
AcDbEntity
  8
0
 62
1
100
AcDbLine
 10
-4.443171668156491e-15
 20
-24.1875
 30
489.90000000000003
 11
-8.886343336312982e-15
 21
-48.375
 31
489.90000000000003
  0
LINE
  5
ED
330
17
100
AcDbEntity
  8
0
 62
1
100
AcDbLine
 10
12.093750000000004
 20
-20.946989454036107
 30
489.90000000000003
 11
24.187500000000007
 21
-41.893978908072214
 31
489.90000000000003
  0
LINE
  5
EE
330
17
100
AcDbEntity
  8
0
 62
1
100
AcDbLine
 10
20.946989454036103
 20
-12.09375000000001
 30
489.90000000000003
 11
41.89397890807221
 21
-24.18750000000002
 31
489.90000000000003
  0
LINE
  5
EF
330
17
100
AcDbEntity
  8
0
 62
1
100
AcDbLine
 10
23.0625
 20
0.0
 30
531.3000000000001
 11
46.125
 21
0.0
 31
531.3000000000001
  0
LINE
  5
F0
330
17
100
AcDbEntity
  8
0
 62
1
100
AcDbLine
 10
19.972710874778617
 20
11.531249999999998
 30
531.3000000000001
 11
39.945421749557234
 21
23.062499999999996
 31
531.3000000000001
  0
LINE
  5
F1
330
17
100
AcDbEntity
  8
0
 62
1
100
AcDbLine
 10
11.531250000000002
 20
19.972710874778617
 30
531.3000000000001
 11
23.062500000000004
 21
39.945421749557234
 31
531.3000000000001
  0
LINE
  5
F2
330
17
100
AcDbEntity
  8
0
 62
1
100
AcDbLine
 10
1.4121708402667916e-15
 20
23.0625
 30
531.3000000000001
 11
2.8243416805335833e-15
 21
46.125
 31
531.3000000000001
  0
LINE
  5
F3
330
17
100
AcDbEntity
  8
0
 62
1
100
AcDbLine
 10
-11.531249999999996
 20
19.972710874778617
 30
531.3000000000001
 11
-23.062499999999993
 21
39.945421749557234
 31
531.3000000000001
  0
LINE
  5
F4
330
17
100
AcDbEntity
  8
0
 62
1
100
AcDbLine
 10
-19.972710874778617
 20
11.531249999999998
 30
531.3000000000001
 11
-39.945421749557234
 21
23.062499999999996
 31
531.3000000000001
  0
LINE
  5
F5
330
17
100
AcDbEntity
  8
0
 62
1
100
AcDbLine
 10
-23.0625
 20
2.8243416805335833e-15
 30
531.3000000000001
 11
-46.125
 21
5.6486833610671666e-15
 31
531.3000000000001
  0
LINE
  5
F6
330
17
100
AcDbEntity
  8
0
 62
1
100
AcDbLine
 10
-19.97271087477862
 20
-11.531249999999995
 30
531.3000000000001
 11
-39.94542174955724
 21
-23.06249999999999
 31
531.3000000000001
  0
LINE
  5
F7
330
17
100
AcDbEntity
  8
0
 62
1
100
AcDbLine
 10
-11.53125000000001
 20
-19.97271087477861
 30
531.3000000000001
 11
-23.06250000000002
 21
-39.94542174955722
 31
531.3000000000001
  0
LINE
  5
F8
330
17
100
AcDbEntity
  8
0
 62
1
100
AcDbLine
 10
-4.2365125208003746e-15
 20
-23.0625
 30
531.3000000000001
 11
-8.473025041600749e-15
 21
-46.125
 31
531.3000000000001
  0
LINE
  5
F9
330
17
100
AcDbEntity
  8
0
 62
1
100
AcDbLine
 10
11.531250000000002
 20
-19.972710874778617
 30
531.3000000000001
 11
23.062500000000004
 21
-39.945421749557234
 31
531.3000000000001
  0
LINE
  5
FA
330
17
100
AcDbEntity
  8
0
 62
1
100
AcDbLine
 10
19.97271087477861
 20
-11.53125000000001
 30
531.3000000000001
 11
39.94542174955722
 21
-23.06250000000002
 31
531.3000000000001
  0
LINE
  5
FB
330
17
100
AcDbEntity
  8
0
 62
1
100
AcDbLine
 10
21.9375
 20
0.0
 30
572.7
 11
43.875
 21
0.0
 31
572.7
  0
LINE
  5
FC
330
17
100
AcDbEntity
  8
0
 62
1
100
AcDbLine
 10
18.998432295521123
 20
10.968749999999998
 30
572.7
 11
37.99686459104225
 21
21.937499999999996
 31
572.7
  0
LINE
  5
FD
330
17
100
AcDbEntity
  8
0
 62
1
100
AcDbLine
 10
10.968750000000002
 20
18.998432295521123
 30
572.7
 11
21.937500000000004
 21
37.99686459104225
 31
572.7
  0
LINE
  5
FE
330
17
100
AcDbEntity
  8
0
 62
1
100
AcDbLine
 10
1.3432844578147531e-15
 20
21.9375
 30
572.7
 11
2.6865689156295063e-15
 21
43.875
 31
572.7
  0
LINE
  5
FF
330
17
100
AcDbEntity
  8
0
 62
1
100
AcDbLine
 10
-10.968749999999996
 20
18.998432295521123
 30
572.7
 11
-21.937499999999993
 21
37.99686459104225
 31
572.7
  0
LINE
  5
100
330
17
100
AcDbEntity
  8
0
 62
1
100
AcDbLine
 10
-18.998432295521123
 20
10.968749999999998
 30
572.7
 11
-37.99686459104225
 21
21.937499999999996
 31
572.7
  0
LINE
  5
101
330
17
100
AcDbEntity
  8
0
 62
1
100
AcDbLine
 10
-21.9375
 20
2.6865689156295063e-15
 30
572.7
 11
-43.875
 21
5.3731378312590125e-15
 31
572.7
  0
LINE
  5
102
330
17
100
AcDbEntity
  8
0
 62
1
100
AcDbLine
 10
-18.998432295521127
 20
-10.968749999999995
 30
572.7
 11
-37.996864591042254
 21
-21.93749999999999
 31
572.7
  0
LINE
  5
103
330
17
100
AcDbEntity
  8
0
 62
1
100
AcDbLine
 10
-10.968750000000009
 20
-18.998432295521116
 30
572.7
 11
-21.937500000000018
 21
-37.99686459104223
 31
572.7
  0
LINE
  5
104
330
17
100
AcDbEntity
  8
0
 62
1
100
AcDbLine
 10
-4.029853373444259e-15
 20
-21.9375
 30
572.7
 11
-8.059706746888518e-15
 21
-43.875
 31
572.7
  0
LINE
  5
105
330
17
100
AcDbEntity
  8
0
 62
1
100
AcDbLine
 10
10.968750000000002
 20
-18.998432295521123
 30
572.7
 11
21.937500000000004
 21
-37.99686459104225
 31
572.7
  0
LINE
  5
106
330
17
100
AcDbEntity
  8
0
 62
1
100
AcDbLine
 10
18.998432295521116
 20
-10.968750000000009
 30
572.7
 11
37.99686459104223
 21
-21.937500000000018
 31
572.7
  0
LINE
  5
107
330
17
100
AcDbEntity
  8
0
 62
1
100
AcDbLine
 10
20.812499999999996
 20
0.0
 30
614.1
 11
41.62499999999999
 21
0.0
 31
614.1
  0
LINE
  5
108
330
17
100
AcDbEntity
  8
0
 62
1
100
AcDbLine
 10
18.024153716263626
 20
10.406249999999996
 30
614.1
 11
36.04830743252725
 21
20.812499999999993
 31
614.1
  0
LINE
  5
109
330
17
100
AcDbEntity
  8
0
 62
1
100
AcDbLine
 10
10.40625
 20
18.024153716263626
 30
614.1
 11
20.8125
 21
36.04830743252725
 31
614.1
  0
LINE
  5
10A
330
17
100
AcDbEntity
  8
0
 62
1
100
AcDbLine
 10
1.2743980753627142e-15
 20
20.812499999999996
 30
614.1
 11
2.5487961507254284e-15
 21
41.62499999999999
 31
614.1
  0
LINE
  5
10B
330
17
100
AcDbEntity
  8
0
 62
1
100
AcDbLine
 10
-10.406249999999995
 20
18.024153716263626
 30
614.1
 11
-20.81249999999999
 21
36.04830743252725
 31
614.1
  0
LINE
  5
10C
330
17
100
AcDbEntity
  8
0
 62
1
100
AcDbLine
 10
-18.024153716263626
 20
10.406249999999996
 30
614.1
 11
-36.04830743252725
 21
20.812499999999993
 31
614.1
  0
LINE
  5
10D
330
17
100
AcDbEntity
  8
0
 62
1
100
AcDbLine
 10
-20.812499999999996
 20
2.5487961507254284e-15
 30
614.1
 11
-41.62499999999999
 21
5.097592301450857e-15
 31
614.1
  0
LINE
  5
10E
330
17
100
AcDbEntity
  8
0
 62
1
100
AcDbLine
 10
-18.02415371626363
 20
-10.406249999999993
 30
614.1
 11
-36.04830743252726
 21
-20.812499999999986
 31
614.1
  0
LINE
  5
10F
330
17
100
AcDbEntity
  8
0
 62
1
100
AcDbLine
 10
-10.406250000000007
 20
-18.02415371626362
 30
614.1
 11
-20.812500000000014
 21
-36.04830743252724
 31
614.1
  0
LINE
  5
110
330
17
100
AcDbEntity
  8
0
 62
1
100
AcDbLine
 10
-3.823194226088143e-15
 20
-20.812499999999996
 30
614.1
 11
-7.646388452176285e-15
 21
-41.62499999999999
 31
614.1
  0
LINE
  5
111
330
17
100
AcDbEntity
  8
0
 62
1
100
AcDbLine
 10
10.40625
 20
-18.024153716263626
 30
614.1
 11
20.8125
 21
-36.04830743252725
 31
614.1
  0
LINE
  5
112
330
17
100
AcDbEntity
  8
0
 62
1
100
AcDbLine
 10
18.02415371626362
 20
-10.406250000000007
 30
614.1
 11
36.04830743252724
 21
-20.812500000000014
 31
614.1
  0
LINE
  5
113
330
17
100
AcDbEntity
  8
0
 62
1
100
AcDbLine
 10
19.6875
 20
0.0
 30
655.5
 11
39.375
 21
0.0
 31
655.5
  0
LINE
  5
114
330
17
100
AcDbEntity
  8
0
 62
1
100
AcDbLine
 10
17.049875137006136
 20
9.843749999999998
 30
655.5
 11
34.09975027401227
 21
19.687499999999996
 31
655.5
  0
LINE
  5
115
330
17
100
AcDbEntity
  8
0
 62
1
100
AcDbLine
 10
9.843750000000002
 20
17.049875137006136
 30
655.5
 11
19.687500000000004
 21
34.09975027401227
 31
655.5
  0
LINE
  5
116
330
17
100
AcDbEntity
  8
0
 62
1
100
AcDbLine
 10
1.2055116929106759e-15
 20
19.6875
 30
655.5
 11
2.4110233858213518e-15
 21
39.375
 31
655.5
  0
LINE
  5
117
330
17
100
AcDbEntity
  8
0
 62
1
100
AcDbLine
 10
-9.843749999999996
 20
17.049875137006136
 30
655.5
 11
-19.687499999999993
 21
34.09975027401227
 31
655.5
  0
LINE
  5
118
330
17
100
AcDbEntity
  8
0
 62
1
100
AcDbLine
 10
-17.049875137006136
 20
9.843749999999998
 30
655.5
 11
-34.09975027401227
 21
19.687499999999996
 31
655.5
  0
LINE
  5
119
330
17
100
AcDbEntity
  8
0
 62
1
100
AcDbLine
 10
-19.6875
 20
2.4110233858213518e-15
 30
655.5
 11
-39.375
 21
4.8220467716427036e-15
 31
655.5
  0
LINE
  5
11A
330
17
100
AcDbEntity
  8
0
 62
1
100
AcDbLine
 10
-17.04987513700614
 20
-9.843749999999996
 30
655.5
 11
-34.09975027401228
 21
-19.687499999999993
 31
655.5
  0
LINE
  5
11B
330
17
100
AcDbEntity
  8
0
 62
1
100
AcDbLine
 10
-9.843750000000009
 20
-17.04987513700613
 30
655.5
 11
-19.687500000000018
 21
-34.09975027401226
 31
655.5
  0
LINE
  5
11C
330
17
100
AcDbEntity
  8
0
 62
1
100
AcDbLine
 10
-3.616535078732027e-15
 20
-19.6875
 30
655.5
 11
-7.233070157464054e-15
 21
-39.375
 31
655.5
  0
LINE
  5
11D
330
17
100
AcDbEntity
  8
0
 62
1
100
AcDbLine
 10
9.843750000000002
 20
-17.049875137006136
 30
655.5
 11
19.687500000000004
 21
-34.09975027401227
 31
655.5
  0
LINE
  5
11E
330
17
100
AcDbEntity
  8
0
 62
1
100
AcDbLine
 10
17.04987513700613
 20
-9.843750000000009
 30
655.5
 11
34.09975027401226
 21
-19.687500000000018
 31
655.5
  0
LINE
  5
11F
330
17
100
AcDbEntity
  8
0
 62
1
100
AcDbLine
 10
18.5625
 20
0.0
 30
696.9000000000001
 11
37.125
 21
0.0
 31
696.9000000000001
  0
LINE
  5
120
330
17
100
AcDbEntity
  8
0
 62
1
100
AcDbLine
 10
16.075596557748643
 20
9.281249999999998
 30
696.9000000000001
 11
32.151193115497286
 21
18.562499999999996
 31
696.9000000000001
  0
LINE
  5
121
330
17
100
AcDbEntity
  8
0
 62
1
100
AcDbLine
 10
9.281250000000002
 20
16.075596557748643
 30
696.9000000000001
 11
18.562500000000004
 21
32.151193115497286
 31
696.9000000000001
  0
LINE
  5
122
330
17
100
AcDbEntity
  8
0
 62
1
100
AcDbLine
 10
1.1366253104586372e-15
 20
18.5625
 30
696.9000000000001
 11
2.2732506209172743e-15
 21
37.125
 31
696.9000000000001
  0
LINE
  5
123
330
17
100
AcDbEntity
  8
0
 62
1
100
AcDbLine
 10
-9.281249999999996
 20
16.075596557748643
 30
696.9000000000001
 11
-18.562499999999993
 21
32.151193115497286
 31
696.9000000000001
  0
LINE
  5
124
330
17
100
AcDbEntity
  8
0
 62
1
100
AcDbLine
 10
-16.075596557748643
 20
9.281249999999998
 30
696.9000000000001
 11
-32.151193115497286
 21
18.562499999999996
 31
696.9000000000001
  0
LINE
  5
125
330
17
100
AcDbEntity
  8
0
 62
1
100
AcDbLine
 10
-18.5625
 20
2.2732506209172743e-15
 30
696.9000000000001
 11
-37.125
 21
4.546501241834549e-15
 31
696.9000000000001
  0
LINE
  5
126
330
17
100
AcDbEntity
  8
0
 62
1
100
AcDbLine
 10
-16.075596557748646
 20
-9.281249999999996
 30
696.9000000000001
 11
-32.15119311549729
 21
-18.562499999999993
 31
696.9000000000001
  0
LINE
  5
127
330
17
100
AcDbEntity
  8
0
 62
1
100
AcDbLine
 10
-9.281250000000009
 20
-16.075596557748636
 30
696.9000000000001
 11
-18.562500000000018
 21
-32.15119311549727
 31
696.9000000000001
  0
LINE
  5
128
330
17
100
AcDbEntity
  8
0
 62
1
100
AcDbLine
 10
-3.4098759313759115e-15
 20
-18.5625
 30
696.9000000000001
 11
-6.819751862751823e-15
 21
-37.125
 31
696.9000000000001
  0
LINE
  5
129
330
17
100
AcDbEntity
  8
0
 62
1
100
AcDbLine
 10
9.281250000000002
 20
-16.075596557748643
 30
696.9000000000001
 11
18.562500000000004
 21
-32.151193115497286
 31
696.9000000000001
  0
LINE
  5
12A
330
17
100
AcDbEntity
  8
0
 62
1
100
AcDbLine
 10
16.075596557748636
 20
-9.281250000000009
 30
696.9000000000001
 11
32.15119311549727
 21
-18.562500000000018
 31
696.9000000000001
  0
LINE
  5
12B
330
17
100
AcDbEntity
  8
0
 62
1
100
AcDbLine
 10
17.4375
 20
0.0
 30
738.3000000000001
 11
34.875
 21
0.0
 31
738.3000000000001
  0
LINE
  5
12C
330
17
100
AcDbEntity
  8
0
 62
1
100
AcDbLine
 10
15.10131797849115
 20
8.718749999999998
 30
738.3000000000001
 11
30.2026359569823
 21
17.437499999999996
 31
738.3000000000001
  0
LINE
  5
12D
330
17
100
AcDbEntity
  8
0
 62
1
100
AcDbLine
 10
8.718750000000002
 20
15.101317978491148
 30
738.3000000000001
 11
17.437500000000004
 21
30.202635956982295
 31
738.3000000000001
  0
LINE
  5
12E
330
17
100
AcDbEntity
  8
0
 62
1
100
AcDbLine
 10
1.0677389280065987e-15
 20
17.4375
 30
738.3000000000001
 11
2.1354778560131973e-15
 21
34.875
 31
738.3000000000001
  0
LINE
  5
12F
330
17
100
AcDbEntity
  8
0
 62
1
100
AcDbLine
 10
-8.718749999999996
 20
15.10131797849115
 30
738.3000000000001
 11
-17.437499999999993
 21
30.2026359569823
 31
738.3000000000001
  0
LINE
  5
130
330
17
100
AcDbEntity
  8
0
 62
1
100
AcDbLine
 10
-15.10131797849115
 20
8.718749999999998
 30
738.3000000000001
 11
-30.2026359569823
 21
17.437499999999996
 31
738.3000000000001
  0
LINE
  5
131
330
17
100
AcDbEntity
  8
0
 62
1
100
AcDbLine
 10
-17.4375
 20
2.1354778560131973e-15
 30
738.3000000000001
 11
-34.875
 21
4.2709557120263946e-15
 31
738.3000000000001
  0
LINE
  5
132
330
17
100
AcDbEntity
  8
0
 62
1
100
AcDbLine
 10
-15.101317978491151
 20
-8.718749999999996
 30
738.3000000000001
 11
-30.202635956982302
 21
-17.437499999999993
 31
738.3000000000001
  0
LINE
  5
133
330
17
100
AcDbEntity
  8
0
 62
1
100
AcDbLine
 10
-8.718750000000007
 20
-15.101317978491144
 30
738.3000000000001
 11
-17.437500000000014
 21
-30.202635956982288
 31
738.3000000000001
  0
LINE
  5
134
330
17
100
AcDbEntity
  8
0
 62
1
100
AcDbLine
 10
-3.2032167840197956e-15
 20
-17.4375
 30
738.3000000000001
 11
-6.406433568039591e-15
 21
-34.875
 31
738.3000000000001
  0
LINE
  5
135
330
17
100
AcDbEntity
  8
0
 62
1
100
AcDbLine
 10
8.718750000000002
 20
-15.101317978491148
 30
738.3000000000001
 11
17.437500000000004
 21
-30.202635956982295
 31
738.3000000000001
  0
LINE
  5
136
330
17
100
AcDbEntity
  8
0
 62
1
100
AcDbLine
 10
15.101317978491144
 20
-8.718750000000007
 30
738.3000000000001
 11
30.202635956982288
 21
-17.437500000000014
 31
738.3000000000001
  0
LINE
  5
137
330
17
100
AcDbEntity
  8
0
 62
1
100
AcDbLine
 10
16.312500000000004
 20
0.0
 30
779.7
 11
32.62500000000001
 21
0.0
 31
779.7
  0
LINE
  5
138
330
17
100
AcDbEntity
  8
0
 62
1
100
AcDbLine
 10
14.12703939923366
 20
8.15625
 30
779.7
 11
28.25407879846732
 21
16.3125
 31
779.7
  0
LINE
  5
139
330
17
100
AcDbEntity
  8
0
 62
1
100
AcDbLine
 10
8.156250000000004
 20
14.127039399233658
 30
779.7
 11
16.312500000000007
 21
28.254078798467315
 31
779.7
  0
LINE
  5
13A
330
17
100
AcDbEntity
  8
0
 62
1
100
AcDbLine
 10
9.988525455545601e-16
 20
16.312500000000004
 30
779.7
 11
1.9977050911091203e-15
 21
32.62500000000001
 31
779.7
  0
LINE
  5
13B
330
17
100
AcDbEntity
  8
0
 62
1
100
AcDbLine
 10
-8.156249999999998
 20
14.12703939923366
 30
779.7
 11
-16.312499999999996
 21
28.25407879846732
 31
779.7
  0
LINE
  5
13C
330
17
100
AcDbEntity
  8
0
 62
1
100
AcDbLine
 10
-14.12703939923366
 20
8.15625
 30
779.7
 11
-28.25407879846732
 21
16.3125
 31
779.7
  0
LINE
  5
13D
330
17
100
AcDbEntity
  8
0
 62
1
100
AcDbLine
 10
-16.312500000000004
 20
1.9977050911091203e-15
 30
779.7
 11
-32.62500000000001
 21
3.9954101822182405e-15
 31
779.7
  0
LINE
  5
13E
330
17
100
AcDbEntity
  8
0
 62
1
100
AcDbLine
 10
-14.127039399233661
 20
-8.156249999999998
 30
779.7
 11
-28.254078798467322
 21
-16.312499999999996
 31
779.7
  0
LINE
  5
13F
330
17
100
AcDbEntity
  8
0
 62
1
100
AcDbLine
 10
-8.156250000000009
 20
-14.127039399233654
 30
779.7
 11
-16.312500000000018
 21
-28.254078798467308
 31
779.7
  0
LINE
  5
140
330
17
100
AcDbEntity
  8
0
 62
1
100
AcDbLine
 10
-2.9965576366636804e-15
 20
-16.312500000000004
 30
779.7
 11
-5.993115273327361e-15
 21
-32.62500000000001
 31
779.7
  0
LINE
  5
141
330
17
100
AcDbEntity
  8
0
 62
1
100
AcDbLine
 10
8.156250000000004
 20
-14.127039399233658
 30
779.7
 11
16.312500000000007
 21
-28.254078798467315
 31
779.7
  0
LINE
  5
142
330
17
100
AcDbEntity
  8
0
 62
1
100
AcDbLine
 10
14.127039399233654
 20
-8.156250000000009
 30
779.7
 11
28.254078798467308
 21
-16.312500000000018
 31
779.7
  0
LINE
  5
143
330
17
100
AcDbEntity
  8
0
 62
1
100
AcDbLine
 10
15.187500000000002
 20
0.0
 30
821.1
 11
30.375000000000004
 21
0.0
 31
821.1
  0
LINE
  5
144
330
17
100
AcDbEntity
  8
0
 62
1
100
AcDbLine
 10
13.152760819976164
 20
7.59375
 30
821.1
 11
26.305521639952328
 21
15.1875
 31
821.1
  0
LINE
  5
145
330
17
100
AcDbEntity
  8
0
 62
1
100
AcDbLine
 10
7.593750000000003
 20
13.152760819976162
 30
821.1
 11
15.187500000000005
 21
26.305521639952325
 31
821.1
  0
LINE
  5
146
330
17
100
AcDbEntity
  8
0
 62
1
100
AcDbLine
 10
9.299661631025214e-16
 20
15.187500000000002
 30
821.1
 11
1.859932326205043e-15
 21
30.375000000000004
 31
821.1
  0
LINE
  5
147
330
17
100
AcDbEntity
  8
0
 62
1
100
AcDbLine
 10
-7.593749999999998
 20
13.152760819976164
 30
821.1
 11
-15.187499999999996
 21
26.305521639952328
 31
821.1
  0
LINE
  5
148
330
17
100
AcDbEntity
  8
0
 62
1
100
AcDbLine
 10
-13.152760819976164
 20
7.59375
 30
821.1
 11
-26.305521639952328
 21
15.1875
 31
821.1
  0
LINE
  5
149
330
17
100
AcDbEntity
  8
0
 62
1
100
AcDbLine
 10
-15.187500000000002
 20
1.859932326205043e-15
 30
821.1
 11
-30.375000000000004
 21
3.719864652410086e-15
 31
821.1
  0
LINE
  5
14A
330
17
100
AcDbEntity
  8
0
 62
1
100
AcDbLine
 10
-13.152760819976166
 20
-7.593749999999997
 30
821.1
 11
-26.30552163995233
 21
-15.187499999999995
 31
821.1
  0
LINE
  5
14B
330
17
100
AcDbEntity
  8
0
 62
1
100
AcDbLine
 10
-7.593750000000008
 20
-13.152760819976159
 30
821.1
 11
-15.187500000000016
 21
-26.305521639952318
 31
821.1
  0
LINE
  5
14C
330
17
100
AcDbEntity
  8
0
 62
1
100
AcDbLine
 10
-2.789898489307564e-15
 20
-15.187500000000002
 30
821.1
 11
-5.579796978615128e-15
 21
-30.375000000000004
 31
821.1
  0
LINE
  5
14D
330
17
100
AcDbEntity
  8
0
 62
1
100
AcDbLine
 10
7.593750000000003
 20
-13.152760819976162
 30
821.1
 11
15.187500000000005
 21
-26.305521639952325
 31
821.1
  0
LINE
  5
14E
330
17
100
AcDbEntity
  8
0
 62
1
100
AcDbLine
 10
13.152760819976159
 20
-7.593750000000008
 30
821.1
 11
26.305521639952318
 21
-15.187500000000016
 31
821.1
  0
LINE
  5
14F
330
17
100
AcDbEntity
  8
0
 62
6
100
AcDbLine
 10
35.625
 20
0.0
 30
69.0
 11
69.375
 21
0.0
 31
103.5
  0
LINE
  5
150
330
17
100
AcDbEntity
  8
0
 62
6
100
AcDbLine
 10
34.6875
 20
0.0
 30
103.5
 11
69.375
 21
0.0
 31
69.0
  0
LINE
  5
151
330
17
100
AcDbEntity
  8
0
 62
6
100
AcDbLine
 10
2.181402110981223e-15
 20
35.625
 30
69.0
 11
4.247993584542382e-15
 21
69.375
 31
103.5
  0
LINE
  5
152
330
17
100
AcDbEntity
  8
0
 62
6
100
AcDbLine
 10
2.123996792271191e-15
 20
34.6875
 30
103.5
 11
4.247993584542382e-15
 21
69.375
 31
69.0
  0
LINE
  5
153
330
17
100
AcDbEntity
  8
0
 62
6
100
AcDbLine
 10
-35.625
 20
4.362804221962446e-15
 30
69.0
 11
-69.375
 21
8.495987169084764e-15
 31
103.5
  0
LINE
  5
154
330
17
100
AcDbEntity
  8
0
 62
6
100
AcDbLine
 10
-34.6875
 20
4.247993584542382e-15
 30
103.5
 11
-69.375
 21
8.495987169084764e-15
 31
69.0
  0
LINE
  5
155
330
17
100
AcDbEntity
  8
0
 62
6
100
AcDbLine
 10
-6.544206332943668e-15
 20
-35.625
 30
69.0
 11
-1.2743980753627144e-14
 21
-69.375
 31
103.5
  0
LINE
  5
156
330
17
100
AcDbEntity
  8
0
 62
6
100
AcDbLine
 10
-6.371990376813572e-15
 20
-34.6875
 30
103.5
 11
-1.2743980753627144e-14
 21
-69.375
 31
69.0
  0
LINE
  5
157
330
17
100
AcDbEntity
  8
0
 62
6
100
AcDbLine
 10
33.75
 20
0.0
 30
138.0
 11
65.625
 21
0.0
 31
172.5
  0
LINE
  5
158
330
17
100
AcDbEntity
  8
0
 62
6
100
AcDbLine
 10
32.8125
 20
0.0
 30
172.5
 11
65.625
 21
0.0
 31
138.0
  0
LINE
  5
159
330
17
100
AcDbEntity
  8
0
 62
6
100
AcDbLine
 10
2.0665914735611584e-15
 20
33.75
 30
138.0
 11
4.0183723097022526e-15
 21
65.625
 31
172.5
  0
LINE
  5
15A
330
17
100
AcDbEntity
  8
0
 62
6
100
AcDbLine
 10
2.0091861548511263e-15
 20
32.8125
 30
172.5
 11
4.0183723097022526e-15
 21
65.625
 31
138.0
  0
LINE
  5
15B
330
17
100
AcDbEntity
  8
0
 62
6
100
AcDbLine
 10
-33.75
 20
4.133182947122317e-15
 30
138.0
 11
-65.625
 21
8.036744619404505e-15
 31
172.5
  0
LINE
  5
15C
330
17
100
AcDbEntity
  8
0
 62
6
100
AcDbLine
 10
-32.8125
 20
4.0183723097022526e-15
 30
172.5
 11
-65.625
 21
8.036744619404505e-15
 31
138.0
  0
LINE
  5
15D
330
17
100
AcDbEntity
  8
0
 62
6
100
AcDbLine
 10
-6.1997744206834756e-15
 20
-33.75
 30
138.0
 11
-1.2055116929106757e-14
 21
-65.625
 31
172.5
  0
LINE
  5
15E
330
17
100
AcDbEntity
  8
0
 62
6
100
AcDbLine
 10
-6.0275584645533785e-15
 20
-32.8125
 30
172.5
 11
-1.2055116929106757e-14
 21
-65.625
 31
138.0
  0
LINE
  5
15F
330
17
100
AcDbEntity
  8
0
 62
6
100
AcDbLine
 10
31.875
 20
0.0
 30
207.0
 11
61.875
 21
0.0
 31
241.5
  0
LINE
  5
160
330
17
100
AcDbEntity
  8
0
 62
6
100
AcDbLine
 10
30.9375
 20
0.0
 30
241.5
 11
61.875
 21
0.0
 31
207.0
  0
LINE
  5
161
330
17
100
AcDbEntity
  8
0
 62
6
100
AcDbLine
 10
1.951780836141094e-15
 20
31.875
 30
207.0
 11
3.788751034862124e-15
 21
61.875
 31
241.5
  0
LINE
  5
162
330
17
100
AcDbEntity
  8
0
 62
6
100
AcDbLine
 10
1.894375517431062e-15
 20
30.9375
 30
241.5
 11
3.788751034862124e-15
 21
61.875
 31
207.0
  0
LINE
  5
163
330
17
100
AcDbEntity
  8
0
 62
6
100
AcDbLine
 10
-31.875
 20
3.903561672282188e-15
 30
207.0
 11
-61.875
 21
7.577502069724248e-15
 31
241.5
  0
LINE
  5
164
330
17
100
AcDbEntity
  8
0
 62
6
100
AcDbLine
 10
-30.9375
 20
3.788751034862124e-15
 30
241.5
 11
-61.875
 21
7.577502069724248e-15
 31
207.0
  0
LINE
  5
165
330
17
100
AcDbEntity
  8
0
 62
6
100
AcDbLine
 10
-5.855342508423282e-15
 20
-31.875
 30
207.0
 11
-1.1366253104586372e-14
 21
-61.875
 31
241.5
  0
LINE
  5
166
330
17
100
AcDbEntity
  8
0
 62
6
100
AcDbLine
 10
-5.683126552293186e-15
 20
-30.9375
 30
241.5
 11
-1.1366253104586372e-14
 21
-61.875
 31
207.0
  0
LINE
  5
167
330
17
100
AcDbEntity
  8
0
 62
6
100
AcDbLine
 10
30.0
 20
0.0
 30
276.0
 11
58.125
 21
0.0
 31
310.5
  0
LINE
  5
168
330
17
100
AcDbEntity
  8
0
 62
6
100
AcDbLine
 10
29.0625
 20
0.0
 30
310.5
 11
58.125
 21
0.0
 31
276.0
  0
LINE
  5
169
330
17
100
AcDbEntity
  8
0
 62
6
100
AcDbLine
 10
1.83697019872103e-15
 20
30.0
 30
276.0
 11
3.559129760021995e-15
 21
58.125
 31
310.5
  0
LINE
  5
16A
330
17
100
AcDbEntity
  8
0
 62
6
100
AcDbLine
 10
1.7795648800109975e-15
 20
29.0625
 30
310.5
 11
3.559129760021995e-15
 21
58.125
 31
276.0
  0
LINE
  5
16B
330
17
100
AcDbEntity
  8
0
 62
6
100
AcDbLine
 10
-30.0
 20
3.67394039744206e-15
 30
276.0
 11
-58.125
 21
7.11825952004399e-15
 31
310.5
  0
LINE
  5
16C
330
17
100
AcDbEntity
  8
0
 62
6
100
AcDbLine
 10
-29.0625
 20
3.559129760021995e-15
 30
310.5
 11
-58.125
 21
7.11825952004399e-15
 31
276.0
  0
LINE
  5
16D
330
17
100
AcDbEntity
  8
0
 62
6
100
AcDbLine
 10
-5.510910596163089e-15
 20
-30.0
 30
276.0
 11
-1.0677389280065985e-14
 21
-58.125
 31
310.5
  0
LINE
  5
16E
330
17
100
AcDbEntity
  8
0
 62
6
100
AcDbLine
 10
-5.3386946400329925e-15
 20
-29.0625
 30
310.5
 11
-1.0677389280065985e-14
 21
-58.125
 31
276.0
  0
LINE
  5
16F
330
17
100
AcDbEntity
  8
0
 62
6
100
AcDbLine
 10
28.125
 20
0.0
 30
345.0
 11
54.37500000000001
 21
0.0
 31
379.5
  0
LINE
  5
170
330
17
100
AcDbEntity
  8
0
 62
6
100
AcDbLine
 10
27.187500000000004
 20
0.0
 30
379.5
 11
54.37500000000001
 21
0.0
 31
345.0
  0
LINE
  5
171
330
17
100
AcDbEntity
  8
0
 62
6
100
AcDbLine
 10
1.7221595613009654e-15
 20
28.125
 30
345.0
 11
3.329508485181867e-15
 21
54.37500000000001
 31
379.5
  0
LINE
  5
172
330
17
100
AcDbEntity
  8
0
 62
6
100
AcDbLine
 10
1.6647542425909335e-15
 20
27.187500000000004
 30
379.5
 11
3.329508485181867e-15
 21
54.37500000000001
 31
345.0
  0
LINE
  5
173
330
17
100
AcDbEntity
  8
0
 62
6
100
AcDbLine
 10
-28.125
 20
3.4443191226019308e-15
 30
345.0
 11
-54.37500000000001
 21
6.659016970363734e-15
 31
379.5
  0
LINE
  5
174
330
17
100
AcDbEntity
  8
0
 62
6
100
AcDbLine
 10
-27.187500000000004
 20
3.329508485181867e-15
 30
379.5
 11
-54.37500000000001
 21
6.659016970363734e-15
 31
345.0
  0
LINE
  5
175
330
17
100
AcDbEntity
  8
0
 62
6
100
AcDbLine
 10
-5.166478683902896e-15
 20
-28.125
 30
345.0
 11
-9.9885254555456e-15
 21
-54.37500000000001
 31
379.5
  0
LINE
  5
176
330
17
100
AcDbEntity
  8
0
 62
6
100
AcDbLine
 10
-4.9942627277728e-15
 20
-27.187500000000004
 30
379.5
 11
-9.9885254555456e-15
 21
-54.37500000000001
 31
345.0
  0
LINE
  5
177
330
17
100
AcDbEntity
  8
0
 62
6
100
AcDbLine
 10
26.25
 20
0.0
 30
414.0
 11
50.625
 21
0.0
 31
448.5
  0
LINE
  5
178
330
17
100
AcDbEntity
  8
0
 62
6
100
AcDbLine
 10
25.3125
 20
0.0
 30
448.5
 11
50.625
 21
0.0
 31
414.0
  0
LINE
  5
179
330
17
100
AcDbEntity
  8
0
 62
6
100
AcDbLine
 10
1.607348923880901e-15
 20
26.25
 30
414.0
 11
3.0998872103417378e-15
 21
50.625
 31
448.5
  0
LINE
  5
17A
330
17
100
AcDbEntity
  8
0
 62
6
100
AcDbLine
 10
1.5499436051708689e-15
 20
25.3125
 30
448.5
 11
3.0998872103417378e-15
 21
50.625
 31
414.0
  0
LINE
  5
17B
330
17
100
AcDbEntity
  8
0
 62
6
100
AcDbLine
 10
-26.25
 20
3.214697847761802e-15
 30
414.0
 11
-50.625
 21
6.1997744206834756e-15
 31
448.5
  0
LINE
  5
17C
330
17
100
AcDbEntity
  8
0
 62
6
100
AcDbLine
 10
-25.3125
 20
3.0998872103417378e-15
 30
448.5
 11
-50.625
 21
6.1997744206834756e-15
 31
414.0
  0
LINE
  5
17D
330
17
100
AcDbEntity
  8
0
 62
6
100
AcDbLine
 10
-4.822046771642703e-15
 20
-26.25
 30
414.0
 11
-9.299661631025213e-15
 21
-50.625
 31
448.5
  0
LINE
  5
17E
330
17
100
AcDbEntity
  8
0
 62
6
100
AcDbLine
 10
-4.6498308155126065e-15
 20
-25.3125
 30
448.5
 11
-9.299661631025213e-15
 21
-50.625
 31
414.0
  0
LINE
  5
17F
330
17
100
AcDbEntity
  8
0
 62
6
100
AcDbLine
 10
24.374999999999996
 20
0.0
 30
483.0
 11
46.875
 21
0.0
 31
517.5
  0
LINE
  5
180
330
17
100
AcDbEntity
  8
0
 62
6
100
AcDbLine
 10
23.4375
 20
0.0
 30
517.5
 11
46.875
 21
0.0
 31
483.0
  0
LINE
  5
181
330
17
100
AcDbEntity
  8
0
 62
6
100
AcDbLine
 10
1.4925382864608366e-15
 20
24.374999999999996
 30
483.0
 11
2.870265935501609e-15
 21
46.875
 31
517.5
  0
LINE
  5
182
330
17
100
AcDbEntity
  8
0
 62
6
100
AcDbLine
 10
1.4351329677508045e-15
 20
23.4375
 30
517.5
 11
2.870265935501609e-15
 21
46.875
 31
483.0
  0
LINE
  5
183
330
17
100
AcDbEntity
  8
0
 62
6
100
AcDbLine
 10
-24.374999999999996
 20
2.985076572921673e-15
 30
483.0
 11
-46.875
 21
5.740531871003218e-15
 31
517.5
  0
LINE
  5
184
330
17
100
AcDbEntity
  8
0
 62
6
100
AcDbLine
 10
-23.4375
 20
2.870265935501609e-15
 30
517.5
 11
-46.875
 21
5.740531871003218e-15
 31
483.0
  0
LINE
  5
185
330
17
100
AcDbEntity
  8
0
 62
6
100
AcDbLine
 10
-4.477614859382509e-15
 20
-24.374999999999996
 30
483.0
 11
-8.610797806504826e-15
 21
-46.875
 31
517.5
  0
LINE
  5
186
330
17
100
AcDbEntity
  8
0
 62
6
100
AcDbLine
 10
-4.305398903252413e-15
 20
-23.4375
 30
517.5
 11
-8.610797806504826e-15
 21
-46.875
 31
483.0
  0
LINE
  5
187
330
17
100
AcDbEntity
  8
0
 62
6
100
AcDbLine
 10
22.500000000000004
 20
0.0
 30
552.0
 11
43.125
 21
0.0
 31
586.5
  0
LINE
  5
188
330
17
100
AcDbEntity
  8
0
 62
6
100
AcDbLine
 10
21.5625
 20
0.0
 30
586.5
 11
43.125
 21
0.0
 31
552.0
  0
LINE
  5
189
330
17
100
AcDbEntity
  8
0
 62
6
100
AcDbLine
 10
1.3777276490407726e-15
 20
22.500000000000004
 30
552.0
 11
2.64064466066148e-15
 21
43.125
 31
586.5
  0
LINE
  5
18A
330
17
100
AcDbEntity
  8
0
 62
6
100
AcDbLine
 10
1.32032233033074e-15
 20
21.5625
 30
586.5
 11
2.64064466066148e-15
 21
43.125
 31
552.0
  0
LINE
  5
18B
330
17
100
AcDbEntity
  8
0
 62
6
100
AcDbLine
 10
-22.500000000000004
 20
2.755455298081545e-15
 30
552.0
 11
-43.125
 21
5.28128932132296e-15
 31
586.5
  0
LINE
  5
18C
330
17
100
AcDbEntity
  8
0
 62
6
100
AcDbLine
 10
-21.5625
 20
2.64064466066148e-15
 30
586.5
 11
-43.125
 21
5.28128932132296e-15
 31
552.0
  0
LINE
  5
18D
330
17
100
AcDbEntity
  8
0
 62
6
100
AcDbLine
 10
-4.1331829471223176e-15
 20
-22.500000000000004
 30
552.0
 11
-7.921933981984441e-15
 21
-43.125
 31
586.5
  0
LINE
  5
18E
330
17
100
AcDbEntity
  8
0
 62
6
100
AcDbLine
 10
-3.9609669909922205e-15
 20
-21.5625
 30
586.5
 11
-7.921933981984441e-15
 21
-43.125
 31
552.0
  0
LINE
  5
18F
330
17
100
AcDbEntity
  8
0
 62
6
100
AcDbLine
 10
20.625
 20
0.0
 30
621.0
 11
39.375
 21
0.0
 31
655.5
  0
LINE
  5
190
330
17
100
AcDbEntity
  8
0
 62
6
100
AcDbLine
 10
19.6875
 20
0.0
 30
655.5
 11
39.375
 21
0.0
 31
621.0
  0
LINE
  5
191
330
17
100
AcDbEntity
  8
0
 62
6
100
AcDbLine
 10
1.262917011620708e-15
 20
20.625
 30
621.0
 11
2.4110233858213518e-15
 21
39.375
 31
655.5
  0
LINE
  5
192
330
17
100
AcDbEntity
  8
0
 62
6
100
AcDbLine
 10
1.2055116929106759e-15
 20
19.6875
 30
655.5
 11
2.4110233858213518e-15
 21
39.375
 31
621.0
  0
LINE
  5
193
330
17
100
AcDbEntity
  8
0
 62
6
100
AcDbLine
 10
-20.625
 20
2.525834023241416e-15
 30
621.0
 11
-39.375
 21
4.8220467716427036e-15
 31
655.5
  0
LINE
  5
194
330
17
100
AcDbEntity
  8
0
 62
6
100
AcDbLine
 10
-19.6875
 20
2.4110233858213518e-15
 30
655.5
 11
-39.375
 21
4.8220467716427036e-15
 31
621.0
  0
LINE
  5
195
330
17
100
AcDbEntity
  8
0
 62
6
100
AcDbLine
 10
-3.788751034862123e-15
 20
-20.625
 30
621.0
 11
-7.233070157464054e-15
 21
-39.375
 31
655.5
  0
LINE
  5
196
330
17
100
AcDbEntity
  8
0
 62
6
100
AcDbLine
 10
-3.616535078732027e-15
 20
-19.6875
 30
655.5
 11
-7.233070157464054e-15
 21
-39.375
 31
621.0
  0
LINE
  5
197
330
17
100
AcDbEntity
  8
0
 62
6
100
AcDbLine
 10
18.75
 20
0.0
 30
690.0
 11
35.625
 21
0.0
 31
724.5
  0
LINE
  5
198
330
17
100
AcDbEntity
  8
0
 62
6
100
AcDbLine
 10
17.8125
 20
0.0
 30
724.5
 11
35.625
 21
0.0
 31
690.0
  0
LINE
  5
199
330
17
100
AcDbEntity
  8
0
 62
6
100
AcDbLine
 10
1.1481063742006436e-15
 20
18.75
 30
690.0
 11
2.181402110981223e-15
 21
35.625
 31
724.5
  0
LINE
  5
19A
330
17
100
AcDbEntity
  8
0
 62
6
100
AcDbLine
 10
1.0907010554906115e-15
 20
17.8125
 30
724.5
 11
2.181402110981223e-15
 21
35.625
 31
690.0
  0
LINE
  5
19B
330
17
100
AcDbEntity
  8
0
 62
6
100
AcDbLine
 10
-18.75
 20
2.296212748401287e-15
 30
690.0
 11
-35.625
 21
4.362804221962446e-15
 31
724.5
  0
LINE
  5
19C
330
17
100
AcDbEntity
  8
0
 62
6
100
AcDbLine
 10
-17.8125
 20
2.181402110981223e-15
 30
724.5
 11
-35.625
 21
4.362804221962446e-15
 31
690.0
  0
LINE
  5
19D
330
17
100
AcDbEntity
  8
0
 62
6
100
AcDbLine
 10
-3.4443191226019308e-15
 20
-18.75
 30
690.0
 11
-6.544206332943668e-15
 21
-35.625
 31
724.5
  0
LINE
  5
19E
330
17
100
AcDbEntity
  8
0
 62
6
100
AcDbLine
 10
-3.272103166471834e-15
 20
-17.8125
 30
724.5
 11
-6.544206332943668e-15
 21
-35.625
 31
690.0
  0
LINE
  5
19F
330
17
100
AcDbEntity
  8
0
 62
6
100
AcDbLine
 10
16.875000000000004
 20
0.0
 30
759.0
 11
31.875000000000004
 21
0.0
 31
793.5
  0
LINE
  5
1A0
330
17
100
AcDbEntity
  8
0
 62
6
100
AcDbLine
 10
15.937500000000002
 20
0.0
 30
793.5
 11
31.875000000000004
 21
0.0
 31
759.0
  0
LINE
  5
1A1
330
17
100
AcDbEntity
  8
0
 62
6
100
AcDbLine
 10
1.0332957367805794e-15
 20
16.875000000000004
 30
759.0
 11
1.9517808361410946e-15
 21
31.875000000000004
 31
793.5
  0
LINE
  5
1A2
330
17
100
AcDbEntity
  8
0
 62
6
100
AcDbLine
 10
9.758904180705473e-16
 20
15.937500000000002
 30
793.5
 11
1.9517808361410946e-15
 21
31.875000000000004
 31
759.0
  0
LINE
  5
1A3
330
17
100
AcDbEntity
  8
0
 62
6
100
AcDbLine
 10
-16.875000000000004
 20
2.0665914735611588e-15
 30
759.0
 11
-31.875000000000004
 21
3.903561672282189e-15
 31
793.5
  0
LINE
  5
1A4
330
17
100
AcDbEntity
  8
0
 62
6
100
AcDbLine
 10
-15.937500000000002
 20
1.9517808361410946e-15
 30
793.5
 11
-31.875000000000004
 21
3.903561672282189e-15
 31
759.0
  0
LINE
  5
1A5
330
17
100
AcDbEntity
  8
0
 62
6
100
AcDbLine
 10
-3.099887210341738e-15
 20
-16.875000000000004
 30
759.0
 11
-5.855342508423283e-15
 21
-31.875000000000004
 31
793.5
  0
LINE
  5
1A6
330
17
100
AcDbEntity
  8
0
 62
6
100
AcDbLine
 10
-2.9276712542116415e-15
 20
-15.937500000000002
 30
793.5
 11
-5.855342508423283e-15
 21
-31.875000000000004
 31
759.0
  0
LINE
  5
1A7
330
17
100
AcDbEntity
  8
0
 62
4
100
AcDbLine
 10
10.0
 20
0.0
 30
828.0
 11
9.5
 21
0.0
 31
832.0
  0
LINE
  5
1A8
330
17
100
AcDbEntity
  8
0
 62
4
100
AcDbLine
 10
6.123233995736766e-16
 20
10.0
 30
828.0
 11
5.817072295949927e-16
 21
9.5
 31
832.0
  0
LINE
  5
1A9
330
17
100
AcDbEntity
  8
0
 62
4
100
AcDbLine
 10
-10.0
 20
1.2246467991473533e-15
 30
828.0
 11
-9.5
 21
1.1634144591899855e-15
 31
832.0
  0
LINE
  5
1AA
330
17
100
AcDbEntity
  8
0
 62
4
100
AcDbLine
 10
-1.8369701987210296e-15
 20
-10.0
 30
828.0
 11
-1.7451216887849782e-15
 21
-9.5
 31
832.0
  0
LINE
  5
1AB
330
17
100
AcDbEntity
  8
0
 62
4
100
AcDbLine
 10
9.5
 20
0.0
 30
832.0
 11
9.0
 21
0.0
 31
836.0
  0
LINE
  5
1AC
330
17
100
AcDbEntity
  8
0
 62
4
100
AcDbLine
 10
5.817072295949927e-16
 20
9.5
 30
832.0
 11
5.51091059616309e-16
 21
9.0
 31
836.0
  0
LINE
  5
1AD
330
17
100
AcDbEntity
  8
0
 62
4
100
AcDbLine
 10
-9.5
 20
1.1634144591899855e-15
 30
832.0
 11
-9.0
 21
1.102182119232618e-15
 31
836.0
  0
LINE
  5
1AE
330
17
100
AcDbEntity
  8
0
 62
4
100
AcDbLine
 10
-1.7451216887849782e-15
 20
-9.5
 30
832.0
 11
-1.6532731788489267e-15
 21
-9.0
 31
836.0
  0
LINE
  5
1AF
330
17
100
AcDbEntity
  8
0
 62
4
100
AcDbLine
 10
9.0
 20
0.0
 30
836.0
 11
8.5
 21
0.0
 31
840.0
  0
LINE
  5
1B0
330
17
100
AcDbEntity
  8
0
 62
4
100
AcDbLine
 10
5.51091059616309e-16
 20
9.0
 30
836.0
 11
5.204748896376251e-16
 21
8.5
 31
840.0
  0
LINE
  5
1B1
330
17
100
AcDbEntity
  8
0
 62
4
100
AcDbLine
 10
-9.0
 20
1.102182119232618e-15
 30
836.0
 11
-8.5
 21
1.0409497792752501e-15
 31
840.0
  0
LINE
  5
1B2
330
17
100
AcDbEntity
  8
0
 62
4
100
AcDbLine
 10
-1.6532731788489267e-15
 20
-9.0
 30
836.0
 11
-1.5614246689128753e-15
 21
-8.5
 31
840.0
  0
LINE
  5
1B3
330
17
100
AcDbEntity
  8
0
 62
4
100
AcDbLine
 10
8.5
 20
0.0
 30
840.0
 11
8.0
 21
0.0
 31
844.0
  0
LINE
  5
1B4
330
17
100
AcDbEntity
  8
0
 62
4
100
AcDbLine
 10
5.204748896376251e-16
 20
8.5
 30
840.0
 11
4.898587196589413e-16
 21
8.0
 31
844.0
  0
LINE
  5
1B5
330
17
100
AcDbEntity
  8
0
 62
4
100
AcDbLine
 10
-8.5
 20
1.0409497792752501e-15
 30
840.0
 11
-8.0
 21
9.797174393178826e-16
 31
844.0
  0
LINE
  5
1B6
330
17
100
AcDbEntity
  8
0
 62
4
100
AcDbLine
 10
-1.5614246689128753e-15
 20
-8.5
 30
840.0
 11
-1.4695761589768238e-15
 21
-8.0
 31
844.0
  0
LINE
  5
1B7
330
17
100
AcDbEntity
  8
0
 62
4
100
AcDbLine
 10
8.0
 20
0.0
 30
844.0
 11
7.5
 21
0.0
 31
848.0
  0
LINE
  5
1B8
330
17
100
AcDbEntity
  8
0
 62
4
100
AcDbLine
 10
4.898587196589413e-16
 20
8.0
 30
844.0
 11
4.592425496802575e-16
 21
7.5
 31
848.0
  0
LINE
  5
1B9
330
17
100
AcDbEntity
  8
0
 62
4
100
AcDbLine
 10
-8.0
 20
9.797174393178826e-16
 30
844.0
 11
-7.5
 21
9.18485099360515e-16
 31
848.0
  0
LINE
  5
1BA
330
17
100
AcDbEntity
  8
0
 62
4
100
AcDbLine
 10
-1.4695761589768238e-15
 20
-8.0
 30
844.0
 11
-1.3777276490407722e-15
 21
-7.5
 31
848.0
  0
LINE
  5
1BB
330
17
100
AcDbEntity
  8
0
 62
4
100
AcDbLine
 10
7.5
 20
0.0
 30
848.0
 11
7.0
 21
0.0
 31
852.0
  0
LINE
  5
1BC
330
17
100
AcDbEntity
  8
0
 62
4
100
AcDbLine
 10
4.592425496802575e-16
 20
7.5
 30
848.0
 11
4.286263797015736e-16
 21
7.0
 31
852.0
  0
LINE
  5
1BD
330
17
100
AcDbEntity
  8
0
 62
4
100
AcDbLine
 10
-7.5
 20
9.18485099360515e-16
 30
848.0
 11
-7.0
 21
8.572527594031472e-16
 31
852.0
  0
LINE
  5
1BE
330
17
100
AcDbEntity
  8
0
 62
4
100
AcDbLine
 10
-1.3777276490407722e-15
 20
-7.5
 30
848.0
 11
-1.2858791391047208e-15
 21
-7.0
 31
852.0
  0
LINE
  5
1BF
330
17
100
AcDbEntity
  8
0
 62
4
100
AcDbLine
 10
7.0
 20
0.0
 30
852.0
 11
6.5
 21
0.0
 31
856.0
  0
LINE
  5
1C0
330
17
100
AcDbEntity
  8
0
 62
4
100
AcDbLine
 10
4.286263797015736e-16
 20
7.0
 30
852.0
 11
3.9801020972288977e-16
 21
6.5
 31
856.0
  0
LINE
  5
1C1
330
17
100
AcDbEntity
  8
0
 62
4
100
AcDbLine
 10
-7.0
 20
8.572527594031472e-16
 30
852.0
 11
-6.5
 21
7.960204194457795e-16
 31
856.0
  0
LINE
  5
1C2
330
17
100
AcDbEntity
  8
0
 62
4
100
AcDbLine
 10
-1.2858791391047208e-15
 20
-7.0
 30
852.0
 11
-1.1940306291686693e-15
 21
-6.5
 31
856.0
  0
LINE
  5
1C3
330
17
100
AcDbEntity
  8
0
 62
4
100
AcDbLine
 10
6.5
 20
0.0
 30
856.0
 11
6.000000000000001
 21
0.0
 31
860.0
  0
LINE
  5
1C4
330
17
100
AcDbEntity
  8
0
 62
4
100
AcDbLine
 10
3.9801020972288977e-16
 20
6.5
 30
856.0
 11
3.6739403974420604e-16
 21
6.000000000000001
 31
860.0
  0
LINE
  5
1C5
330
17
100
AcDbEntity
  8
0
 62
4
100
AcDbLine
 10
-6.5
 20
7.960204194457795e-16
 30
856.0
 11
-6.000000000000001
 21
7.347880794884121e-16
 31
860.0
  0
LINE
  5
1C6
330
17
100
AcDbEntity
  8
0
 62
4
100
AcDbLine
 10
-1.1940306291686693e-15
 20
-6.5
 30
856.0
 11
-1.102182119232618e-15
 21
-6.000000000000001
 31
860.0
  0
LINE
  5
1C7
330
17
100
AcDbEntity
  8
0
 62
4
100
AcDbLine
 10
6.0
 20
0.0
 30
860.0
 11
5.5
 21
0.0
 31
864.0
  0
LINE
  5
1C8
330
17
100
AcDbEntity
  8
0
 62
4
100
AcDbLine
 10
3.6739403974420594e-16
 20
6.0
 30
860.0
 11
3.3677786976552215e-16
 21
5.5
 31
864.0
  0
LINE
  5
1C9
330
17
100
AcDbEntity
  8
0
 62
4
100
AcDbLine
 10
-6.0
 20
7.347880794884119e-16
 30
860.0
 11
-5.5
 21
6.735557395310443e-16
 31
864.0
  0
LINE
  5
1CA
330
17
100
AcDbEntity
  8
0
 62
4
100
AcDbLine
 10
-1.102182119232618e-15
 20
-6.0
 30
860.0
 11
-1.0103336092965664e-15
 21
-5.5
 31
864.0
  0
LINE
  5
1CB
330
17
100
AcDbEntity
  8
0
 62
4
100
AcDbLine
 10
5.5
 20
0.0
 30
864.0
 11
5.0
 21
0.0
 31
868.0
  0
LINE
  5
1CC
330
17
100
AcDbEntity
  8
0
 62
4
100
AcDbLine
 10
3.3677786976552215e-16
 20
5.5
 30
864.0
 11
3.061616997868383e-16
 21
5.0
 31
868.0
  0
LINE
  5
1CD
330
17
100
AcDbEntity
  8
0
 62
4
100
AcDbLine
 10
-5.5
 20
6.735557395310443e-16
 30
864.0
 11
-5.0
 21
6.123233995736766e-16
 31
868.0
  0
LINE
  5
1CE
330
17
100
AcDbEntity
  8
0
 62
4
100
AcDbLine
 10
-1.0103336092965664e-15
 20
-5.5
 30
864.0
 11
-9.184850993605148e-16
 21
-5.0
 31
868.0
  0
LINE
  5
1CF
330
17
100
AcDbEntity
  8
0
 62
4
100
AcDbLine
 10
5.0
 20
0.0
 30
868.0
 11
4.5
 21
0.0
 31
872.0
  0
LINE
  5
1D0
330
17
100
AcDbEntity
  8
0
 62
4
100
AcDbLine
 10
3.061616997868383e-16
 20
5.0
 30
868.0
 11
2.755455298081545e-16
 21
4.5
 31
872.0
  0
LINE
  5
1D1
330
17
100
AcDbEntity
  8
0
 62
4
100
AcDbLine
 10
-5.0
 20
6.123233995736766e-16
 30
868.0
 11
-4.5
 21
5.51091059616309e-16
 31
872.0
  0
LINE
  5
1D2
330
17
100
AcDbEntity
  8
0
 62
4
100
AcDbLine
 10
-9.184850993605148e-16
 20
-5.0
 30
868.0
 11
-8.266365894244633e-16
 21
-4.5
 31
872.0
  0
LINE
  5
1D3
330
17
100
AcDbEntity
  8
0
 62
4
100
AcDbLine
 10
4.5
 20
0.0
 30
872.0
 11
3.999999999999999
 21
0.0
 31
876.0
  0
LINE
  5
1D4
330
17
100
AcDbEntity
  8
0
 62
4
100
AcDbLine
 10
2.755455298081545e-16
 20
4.5
 30
872.0
 11
2.449293598294706e-16
 21
3.999999999999999
 31
876.0
  0
LINE
  5
1D5
330
17
100
AcDbEntity
  8
0
 62
4
100
AcDbLine
 10
-4.5
 20
5.51091059616309e-16
 30
872.0
 11
-3.999999999999999
 21
4.898587196589412e-16
 31
876.0
  0
LINE
  5
1D6
330
17
100
AcDbEntity
  8
0
 62
4
100
AcDbLine
 10
-8.266365894244633e-16
 20
-4.5
 30
872.0
 11
-7.347880794884117e-16
 21
-3.999999999999999
 31
876.0
  0
LINE
  5
1D7
330
17
100
AcDbEntity
  8
0
 62
4
100
AcDbLine
 10
4.0
 20
0.0
 30
876.0
 11
3.5
 21
0.0
 31
880.0
  0
LINE
  5
1D8
330
17
100
AcDbEntity
  8
0
 62
4
100
AcDbLine
 10
2.4492935982947064e-16
 20
4.0
 30
876.0
 11
2.143131898507868e-16
 21
3.5
 31
880.0
  0
LINE
  5
1D9
330
17
100
AcDbEntity
  8
0
 62
4
100
AcDbLine
 10
-4.0
 20
4.898587196589413e-16
 30
876.0
 11
-3.5
 21
4.286263797015736e-16
 31
880.0
  0
LINE
  5
1DA
330
17
100
AcDbEntity
  8
0
 62
4
100
AcDbLine
 10
-7.347880794884119e-16
 20
-4.0
 30
876.0
 11
-6.429395695523604e-16
 21
-3.5
 31
880.0
  0
LINE
  5
1DB
330
17
100
AcDbEntity
  8
0
 62
4
100
AcDbLine
 10
3.5
 20
0.0
 30
880.0
 11
2.999999999999999
 21
0.0
 31
884.0
  0
LINE
  5
1DC
330
17
100
AcDbEntity
  8
0
 62
4
100
AcDbLine
 10
2.143131898507868e-16
 20
3.5
 30
880.0
 11
1.8369701987210292e-16
 21
2.999999999999999
 31
884.0
  0
LINE
  5
1DD
330
17
100
AcDbEntity
  8
0
 62
4
100
AcDbLine
 10
-3.5
 20
4.286263797015736e-16
 30
880.0
 11
-2.999999999999999
 21
3.6739403974420584e-16
 31
884.0
  0
LINE
  5
1DE
330
17
100
AcDbEntity
  8
0
 62
4
100
AcDbLine
 10
-6.429395695523604e-16
 20
-3.5
 30
880.0
 11
-5.510910596163088e-16
 21
-2.999999999999999
 31
884.0
  0
LINE
  5
1DF
330
17
100
AcDbEntity
  8
0
 62
4
100
AcDbLine
 10
3.0000000000000004
 20
0.0
 30
884.0
 11
2.5
 21
0.0
 31
888.0
  0
LINE
  5
1E0
330
17
100
AcDbEntity
  8
0
 62
4
100
AcDbLine
 10
1.8369701987210302e-16
 20
3.0000000000000004
 30
884.0
 11
1.5308084989341916e-16
 21
2.5
 31
888.0
  0
LINE
  5
1E1
330
17
100
AcDbEntity
  8
0
 62
4
100
AcDbLine
 10
-3.0000000000000004
 20
3.6739403974420604e-16
 30
884.0
 11
-2.5
 21
3.061616997868383e-16
 31
888.0
  0
LINE
  5
1E2
330
17
100
AcDbEntity
  8
0
 62
4
100
AcDbLine
 10
-5.51091059616309e-16
 20
-3.0000000000000004
 30
884.0
 11
-4.592425496802574e-16
 21
-2.5
 31
888.0
  0
LINE
  5
1E3
330
17
100
AcDbEntity
  8
0
 62
4
100
AcDbLine
 10
2.5
 20
0.0
 30
888.0
 11
1.9999999999999996
 21
0.0
 31
892.0
  0
LINE
  5
1E4
330
17
100
AcDbEntity
  8
0
 62
4
100
AcDbLine
 10
1.5308084989341916e-16
 20
2.5
 30
888.0
 11
1.224646799147353e-16
 21
1.9999999999999996
 31
892.0
  0
LINE
  5
1E5
330
17
100
AcDbEntity
  8
0
 62
4
100
AcDbLine
 10
-2.5
 20
3.061616997868383e-16
 30
888.0
 11
-1.9999999999999996
 21
2.449293598294706e-16
 31
892.0
  0
LINE
  5
1E6
330
17
100
AcDbEntity
  8
0
 62
4
100
AcDbLine
 10
-4.592425496802574e-16
 20
-2.5
 30
888.0
 11
-3.6739403974420584e-16
 21
-1.9999999999999996
 31
892.0
  0
LINE
  5
1E7
330
17
100
AcDbEntity
  8
0
 62
4
100
AcDbLine
 10
1.9999999999999996
 20
0.0
 30
892.0
 11
1.4999999999999991
 21
0.0
 31
896.0
  0
LINE
  5
1E8
330
17
100
AcDbEntity
  8
0
 62
4
100
AcDbLine
 10
1.224646799147353e-16
 20
1.9999999999999996
 30
892.0
 11
9.184850993605144e-17
 21
1.4999999999999991
 31
896.0
  0
LINE
  5
1E9
330
17
100
AcDbEntity
  8
0
 62
4
100
AcDbLine
 10
-1.9999999999999996
 20
2.449293598294706e-16
 30
892.0
 11
-1.4999999999999991
 21
1.8369701987210287e-16
 31
896.0
  0
LINE
  5
1EA
330
17
100
AcDbEntity
  8
0
 62
4
100
AcDbLine
 10
-3.6739403974420584e-16
 20
-1.9999999999999996
 30
892.0
 11
-2.755455298081543e-16
 21
-1.4999999999999991
 31
896.0
  0
LINE
  5
1EB
330
17
100
AcDbEntity
  8
0
 62
4
100
AcDbLine
 10
1.5000000000000002
 20
0.0
 30
896.0
 11
0.9999999999999998
 21
0.0
 31
900.0
  0
LINE
  5
1EC
330
17
100
AcDbEntity
  8
0
 62
4
100
AcDbLine
 10
9.184850993605151e-17
 20
1.5000000000000002
 30
896.0
 11
6.123233995736765e-17
 21
0.9999999999999998
 31
900.0
  0
LINE
  5
1ED
330
17
100
AcDbEntity
  8
0
 62
4
100
AcDbLine
 10
-1.5000000000000002
 20
1.8369701987210302e-16
 30
896.0
 11
-0.9999999999999998
 21
1.224646799147353e-16
 31
900.0
  0
LINE
  5
1EE
330
17
100
AcDbEntity
  8
0
 62
4
100
AcDbLine
 10
-2.755455298081545e-16
 20
-1.5000000000000002
 30
896.0
 11
-1.8369701987210292e-16
 21
-0.9999999999999998
 31
900.0
  0
LINE
  5
1EF
330
17
100
AcDbEntity
  8
0
 62
4
100
AcDbLine
 10
0.9999999999999998
 20
0.0
 30
900.0
 11
0.49999999999999933
 21
0.0
 31
904.0
  0
LINE
  5
1F0
330
17
100
AcDbEntity
  8
0
 62
4
100
AcDbLine
 10
6.123233995736765e-17
 20
0.9999999999999998
 30
900.0
 11
3.061616997868379e-17
 21
0.49999999999999933
 31
904.0
  0
LINE
  5
1F1
330
17
100
AcDbEntity
  8
0
 62
4
100
AcDbLine
 10
-0.9999999999999998
 20
1.224646799147353e-16
 30
900.0
 11
-0.49999999999999933
 21
6.123233995736757e-17
 31
904.0
  0
LINE
  5
1F2
330
17
100
AcDbEntity
  8
0
 62
4
100
AcDbLine
 10
-1.8369701987210292e-16
 20
-0.9999999999999998
 30
900.0
 11
-9.184850993605136e-17
 21
-0.49999999999999933
 31
904.0
  0
LINE
  5
1F3
330
17
100
AcDbEntity
  8
0
 62
4
100
AcDbLine
 10
0.5000000000000004
 20
0.0
 30
904.0
 11
0.0
 21
0.0
 31
908.0
  0
LINE
  5
1F4
330
17
100
AcDbEntity
  8
0
 62
4
100
AcDbLine
 10
3.0616169978683855e-17
 20
0.5000000000000004
 30
904.0
 11
0.0
 21
0.0
 31
908.0
  0
LINE
  5
1F5
330
17
100
AcDbEntity
  8
0
 62
4
100
AcDbLine
 10
-0.5000000000000004
 20
6.123233995736771e-17
 30
904.0
 11
-0.0
 21
0.0
 31
908.0
  0
LINE
  5
1F6
330
17
100
AcDbEntity
  8
0
 62
4
100
AcDbLine
 10
-9.184850993605157e-17
 20
-0.5000000000000004
 30
904.0
 11
-0.0
 21
-0.0
 31
908.0
  0
ENDSEC
  0
SECTION
  2
OBJECTS
  0
DICTIONARY
  5
A
330
0
100
AcDbDictionary
281
1
  3
ACAD_COLOR
350
B
  3
ACAD_GROUP
350
C
  3
ACAD_LAYOUT
350
D
  3
ACAD_MATERIAL
350
E
  3
ACAD_MLEADERSTYLE
350
F
  3
ACAD_MLINESTYLE
350
10
  3
ACAD_PLOTSETTINGS
350
11
  3
ACAD_PLOTSTYLENAME
350
12
  3
ACAD_SCALELIST
350
14
  3
ACAD_TABLESTYLE
350
15
  3
ACAD_VISUALSTYLE
350
16
  3
EZDXF_META
350
2D
  0
DICTIONARY
  5
B
330
A
100
AcDbDictionary
281
1
  0
DICTIONARY
  5
C
330
A
100
AcDbDictionary
281
1
  0
DICTIONARY
  5
D
330
A
100
AcDbDictionary
281
1
  3
Model
350
1A
  3
Layout1
350
1E
  0
DICTIONARY
  5
E
330
A
100
AcDbDictionary
281
1
  3
ByBlock
350
1F
  3
ByLayer
350
20
  3
Global
350
21
  0
DICTIONARY
  5
F
330
A
100
AcDbDictionary
281
1
  3
Standard
350
2C
  0
DICTIONARY
  5
10
330
A
100
AcDbDictionary
281
1
  3
Standard
350
22
  0
DICTIONARY
  5
11
330
A
100
AcDbDictionary
281
1
  0
ACDBDICTIONARYWDFLT
  5
12
330
A
100
AcDbDictionary
281
1
  3
Normal
350
13
100
AcDbDictionaryWithDefault
340
13
  0
ACDBPLACEHOLDER
  5
13
330
12
  0
DICTIONARY
  5
14
330
A
100
AcDbDictionary
281
1
  0
DICTIONARY
  5
15
330
A
100
AcDbDictionary
281
1
  0
DICTIONARY
  5
16
330
A
100
AcDbDictionary
281
1
  0
LAYOUT
  5
1A
330
D
100
AcDbPlotSettings
  1

  4
A3
  6

 40
7.5
 41
20.0
 42
7.5
 43
20.0
 44
420.0
 45
297.0
 46
0.0
 47
0.0
 48
0.0
 49
0.0
140
0.0
141
0.0
142
1.0
143
1.0
 70
1024
 72
1
 73
0
 74
5
  7

 75
16
 76
0
 77
2
 78
300
147
1.0
148
0.0
149
0.0
100
AcDbLayout
  1
Model
 70
1
 71
0
 10
0.0
 20
0.0
 11
420.0
 21
297.0
 12
0.0
 22
0.0
 32
0.0
 14
1e+20
 24
1e+20
 34
1e+20
 15
-1e+20
 25
-1e+20
 35
-1e+20
146
0.0
 13
0.0
 23
0.0
 33
0.0
 16
1.0
 26
0.0
 36
0.0
 17
0.0
 27
1.0
 37
0.0
 76
1
330
17
  0
LAYOUT
  5
1E
330
D
100
AcDbPlotSettings
  1

  4
A3
  6

 40
7.5
 41
20.0
 42
7.5
 43
20.0
 44
420.0
 45
297.0
 46
0.0
 47
0.0
 48
0.0
 49
0.0
140
0.0
141
0.0
142
1.0
143
1.0
 70
0
 72
1
 73
0
 74
5
  7

 75
16
 76
0
 77
2
 78
300
147
1.0
148
0.0
149
0.0
100
AcDbLayout
  1
Layout1
 70
1
 71
1
 10
0.0
 20
0.0
 11
420.0
 21
297.0
 12
0.0
 22
0.0
 32
0.0
 14
1e+20
 24
1e+20
 34
1e+20
 15
-1e+20
 25
-1e+20
 35
-1e+20
146
0.0
 13
0.0
 23
0.0
 33
0.0
 16
1.0
 26
0.0
 36
0.0
 17
0.0
 27
1.0
 37
0.0
 76
1
330
1B
  0
MATERIAL
  5
1F
102
{ACAD_REACTORS
330
E
102
}
330
E
100
AcDbMaterial
  1
ByBlock
  2

 70
0
 40
1.0
 71
1
 41
1.0
 91
-1023410177
 42
1.0
 72
1
  3

 73
1
 74
1
 75
1
 44
0.5
 73
0
 45
1.0
 46
1.0
 77
1
  4

 78
1
 79
1
170
1
 48
1.0
171
1
  6

172
1
173
1
174
1
140
1.0
141
1.0
175
1
  7

176
1
177
1
178
1
143
1.0
179
1
  8

270
1
271
1
272
1
145
1.0
146
1.0
273
1
  9

274
1
275
1
276
1
 42
1.0
 72
1
  3

 73
1
 74
1
 75
1
 94
63
  0
MATERIAL
  5
20
102
{ACAD_REACTORS
330
E
102
}
330
E
100
AcDbMaterial
  1
ByLayer
  2

 70
0
 40
1.0
 71
1
 41
1.0
 91
-1023410177
 42
1.0
 72
1
  3

 73
1
 74
1
 75
1
 44
0.5
 73
0
 45
1.0
 46
1.0
 77
1
  4

 78
1
 79
1
170
1
 48
1.0
171
1
  6

172
1
173
1
174
1
140
1.0
141
1.0
175
1
  7

176
1
177
1
178
1
143
1.0
179
1
  8

270
1
271
1
272
1
145
1.0
146
1.0
273
1
  9

274
1
275
1
276
1
 42
1.0
 72
1
  3

 73
1
 74
1
 75
1
 94
63
  0
MATERIAL
  5
21
102
{ACAD_REACTORS
330
E
102
}
330
E
100
AcDbMaterial
  1
Global
  2

 70
0
 40
1.0
 71
1
 41
1.0
 91
-1023410177
 42
1.0
 72
1
  3

 73
1
 74
1
 75
1
 44
0.5
 73
0
 45
1.0
 46
1.0
 77
1
  4

 78
1
 79
1
170
1
 48
1.0
171
1
  6

172
1
173
1
174
1
140
1.0
141
1.0
175
1
  7

176
1
177
1
178
1
143
1.0
179
1
  8

270
1
271
1
272
1
145
1.0
146
1.0
273
1
  9

274
1
275
1
276
1
 42
1.0
 72
1
  3

 73
1
 74
1
 75
1
 94
63
  0
MLINESTYLE
  5
22
102
{ACAD_REACTORS
330
10
102
}
330
10
100
AcDbMlineStyle
  2
Standard
 70
0
  3

 62
256
 51
90.0
 52
90.0
 71
2
 49
0.5
 62
256
  6
BYLAYER
 49
-0.5
 62
256
  6
BYLAYER
  0
MLEADERSTYLE
  5
2C
102
{ACAD_REACTORS
330
F
102
}
330
F
100
AcDbMLeaderStyle
179
2
170
2
171
1
172
0
 90
2
 40
0.0
 41
0.0
173
1
 91
-1056964608
 92
-2
290
1
 42
2.0
291
1
 43
8.0
  3
Standard
 44
4.0
300

342
29
174
1
175
1
176
0
178
1
 93
-1056964608
 45
4.0
292
0
297
0
 46
4.0
 94
-1056964608
 47
1.0
 49
1.0
140
1.0
294
1
141
0.0
177
0
142
1.0
295
0
296
0
143
3.75
271
0
272
9
273
9
  0
DICTIONARY
  5
2D
330
A
100
AcDbDictionary
280
1
281
1
  3
CREATED_BY_EZDXF
350
2E
  3
WRITTEN_BY_EZDXF
350
1F9
  0
DICTIONARYVAR
  5
2E
330
2D
100
DictionaryVariables
280
0
  1
1.4.3 @ 2025-12-16T18:48:24.792231+00:00
  0
DICTIONARYVAR
  5
1F9
330
2D
100
DictionaryVariables
280
0
  1
1.4.3 @ 2025-12-16T18:48:24.798674+00:00
  0
ENDSEC
  0
EOF
