  0
SECTION
  2
HEADER
  9
$ACADVER
  1
AC1009
  0
ENDSEC
  0
SECTION
  2
TABLES
  0
TABLE
  2
LAYER
 70
0
  0
LAYER
  2
BEAMS
 70
0
 62
7
  6
Continuous
  0
LAYER
  2
COLUMNS
 70
0
 62
7
  6
Continuous
  0
LAYER
  2
CURVED_MEMBERS
 70
0
 62
7
  6
Continuous
  0
LAYER
  2
TEXT
 70
0
 62
7
  6
Continuous
  0
ENDTAB
  0
ENDSEC
  0
SECTION
  2
BLOCKS
  0
ENDSEC
  0
SECTION
  2
ENTITIES
  0
LINE
  8
TEXT
 10
-1000.000000
 20
0.000000
 11
7000.000000
 21
0.000000
  0
TEXT
  8
TEXT
 10
3000.000000
 20
-150.000000
 40
300.0
  1
Plan view - steel frame (mm)
  0
LWPOLYLINE
  8
COLUMNS
 90
4
 70
1
 10
-150.000000
 20
-150.000000
 10
150.000000
 20
-150.000000
 10
150.000000
 20
150.000000
 10
-150.000000
 20
150.000000
  0
TEXT
  8
TEXT
 10
0.000000
 20
200.000000
 40
160.0
  1
COL Ø300
  0
LWPOLYLINE
  8
COLUMNS
 90
4
 70
1
 10
2850.000000
 20
-150.000000
 10
3150.000000
 20
-150.000000
 10
3150.000000
 20
150.000000
 10
2850.000000
 20
150.000000
  0
TEXT
  8
TEXT
 10
3000.000000
 20
200.000000
 40
160.0
  1
COL Ø300
  0
LWPOLYLINE
  8
COLUMNS
 90
4
 70
1
 10
5850.000000
 20
-150.000000
 10
6150.000000
 20
-150.000000
 10
6150.000000
 20
150.000000
 10
5850.000000
 20
150.000000
  0
TEXT
  8
TEXT
 10
6000.000000
 20
200.000000
 40
160.0
  1
COL Ø300
  0
LINE
  8
BEAMS
 10
0.000000
 20
150.000000
 11
3000.000000
 21
150.000000
  0
TEXT
  8
TEXT
 10
1500.000000
 20
270.000000
 40
140.0
  1
W200X50
  0
LINE
  8
BEAMS
 10
3000.000000
 20
150.000000
 11
6000.000000
 21
150.000000
  0
TEXT
  8
TEXT
 10
4500.000000
 20
270.000000
 40
140.0
  1
W300X70
  0
LINE
  8
BEAMS
 10
0.000000
 20
450.000000
 11
3000.000000
 21
450.000000
  0
TEXT
  8
TEXT
 10
1500.000000
 20
570.000000
 40
140.0
  1
W250X60
  0
LINE
  8
BEAMS
 10
3000.000000
 20
450.000000
 11
6000.000000
 21
450.000000
  0
TEXT
  8
TEXT
 10
4500.000000
 20
570.000000
 40
140.0
  1
W250X60
  0
LWPOLYLINE
  8
CURVED_MEMBERS
 90
37
 70
0
 10
2154.276641
 20
892.181871
 10
2177.100745
 20
835.532146
 10
2203.714383
 20
780.560832
 10
2233.994995
 20
727.521078
 10
2267.803137
 20
676.657136
 10
2304.983119
 20
628.203240
 10
2345.363723
 20
582.382526
 10
2388.758992
 20
539.406002
 10
2434.969088
 20
499.471579
 10
2483.781207
 20
462.763160
 10
2534.970566
 20
429.449790
 10
2588.301432
 20
399.684882
 10
2643.528211
 20
373.605504
 10
2700.396578
 20
351.331755
 10
2758.644649
 20
332.966209
 10
2818.004185
 20
318.593440
 10
2878.201830
 20
308.279637
 10
2938.960368
 20
302.072295
 10
3000.000000
 20
300.000000
 10
3061.039632
 20
302.072295
 10
3121.798170
 20
308.279637
 10
3181.995815
 20
318.593440
 10
3241.355351
 20
332.966209
 10
3299.603422
 20
351.331755
 10
3356.471789
 20
373.605504
 10
3411.698568
 20
399.684882
 10
3465.029434
 20
429.449790
 10
3516.218793
 20
462.763160
 10
3565.030912
 20
499.471579
 10
3611.241008
 20
539.406002
 10
3654.636277
 20
582.382526
 10
3695.016881
 20
628.203240
 10
3732.196863
 20
676.657136
 10
3766.005005
 20
727.521078
 10
3796.285617
 20
780.560832
 10
3822.899255
 20
835.532146
 10
3845.723359
 20
892.181871
  0
TEXT
  8
TEXT
 10
3000.000000
 20
2250.000000
 40
120.0
  1
Curved girder - complex
(approx. modelling time: 2-4 hours)
  0
LINE
  8
BEAMS
 10
500.000000
 20
150.000000
 11
2500.000000
 21
450.000000
  0
TEXT
  8
TEXT
 10
1500.000000
 20
300.000000
 40
120.0
  1
BRACE
  0
LINE
  8
BEAMS
 10
3500.000000
 20
150.000000
 11
5500.000000
 21
450.000000
  0
TEXT
  8
TEXT
 10
4500.000000
 20
300.000000
 40
120.0
  1
BRACE
  0
CIRCLE
  8
COLUMNS
 10
3000.000000
 20
150.000000
 40
60.000000
  0
ENDSEC
  0
EOF
